<?xml version="1.0" encoding="UTF-8"?>
<svg width="60px" height="60px" viewBox="0 0 60 60" version="1.1" xmlns="http://www.w3.org/2000/svg" xmlns:xlink="http://www.w3.org/1999/xlink">
    <!-- Generator: Sketch 43.2 (39069) - http://www.bohemiancoding.com/sketch -->
    <title>Slice</title>
    <desc>Created with Sketch.</desc>
    <defs></defs>
    <g id="Page-1" stroke="none" stroke-width="1" fill="none" fill-rule="evenodd">
        <g id="HOU" transform="translate(0.000000, 6.000000)" fill-rule="nonzero">
            <path d="M50.6144065,13.5609838 C48.9028744,9.66226328 46.1299432,6.3357844 42.5905614,3.93361592 C38.8548934,1.39955147 34.4909021,0.0598206665 29.9700895,0.0598206665 C25.449277,0.0598206665 21.0852857,1.39955147 17.3496177,3.93361592 C13.8102359,6.33474585 11.0373047,9.66226328 9.32577263,13.5609838 C1.67061316,15.57058 0.0598205474,18.0776421 0.0598205474,19.8307162 L0.0681289555,29.3791541 C0.175099709,30.9805998 1.85755234,33.9737038 11.9128032,36.0632684 C13.9421319,38.7759637 16.5935526,41.032735 19.5866566,42.5936772 C22.770854,44.2543202 26.3611248,45.1318958 29.9700895,45.1318958 C33.5790543,45.1318958 37.1693251,44.2543202 40.3535225,42.5936772 C43.345588,41.0337735 45.9980472,38.7759637 48.0273759,36.0632684 C58.0826268,33.9737038 59.7661179,30.9795612 59.8730887,29.3635759 L59.8803585,19.8296776 C59.8803585,18.0776421 58.2695659,15.57058 50.6144065,13.5609838 L50.6144065,13.5609838 Z" id="path4" fill="#FFFFFF"></path>
            <g id="g26" transform="translate(0.744226, 0.763958)">
                <path d="M49.3405198,13.4160019 C46.0410432,5.56040209 38.267489,0.0280408772 29.2269024,0.0280408772 C20.1863159,0.0280408772 12.4127616,5.55936354 9.11328509,13.4160019 C3.52899632,14.8367397 0.0477733463,16.8432202 0.0477733463,19.0667579 L0.0540046524,28.566384 C0.0540046524,26.5671733 2.86120802,24.8971833 7.48587566,23.516949 C8.34891155,34.756148 17.7696077,43.6367977 29.2258639,43.6367977 C40.68212,43.6367977 50.1028162,34.756148 50.9658521,23.516949 C55.5905198,24.8971833 58.3977231,26.5682119 58.3977231,28.566384 L58.4039544,19.0667579 C58.404993,16.8432202 54.9248086,14.8367397 49.3405198,13.4160019 L49.3405198,13.4160019 Z" id="path6" fill="#9EA2A2"></path>
                <path d="M58.3790292,28.2953222 C58.374875,28.26105 58.3717593,28.2267778 58.365528,28.1935442 C58.3582582,28.1551178 58.3489112,28.1166914 58.3395643,28.0793036 C58.3343715,28.0564555 58.3302173,28.0336073 58.323986,28.0107592 C58.3115234,27.9640244 58.2959451,27.9183282 58.2803669,27.8715934 C58.2762127,27.8580922 58.2720585,27.8435525 58.2668657,27.8300513 C58.2471332,27.7760467 58.2253237,27.7210035 58.201437,27.6669988 C58.1993599,27.6618061 58.1972828,27.6566133 58.1952057,27.6524591 C57.8950644,26.9857094 57.2667411,26.3594631 56.3548933,25.7706047 C54.9050761,26.7312644 52.703348,27.6358423 50.0301177,28.362828 L50.0301177,28.3638666 L50.0301177,28.3638666 C49.6718176,29.5010799 49.2242021,30.5988283 48.692464,31.6477648 L48.692464,31.6488034 L48.692464,31.6488034 C48.1617644,32.6967014 47.5490193,33.696826 46.8625371,34.6398303 L46.8625371,34.6398303 C53.7450146,33.2419406 58.2336321,31.0454053 58.3998002,28.566384 C58.3998002,28.5030324 58.3966846,28.4407193 58.3914918,28.3784063 C58.3873376,28.3503654 58.3831834,28.3233631 58.3790292,28.2953222 L58.3790292,28.2953222 Z" id="path8" fill="#707271"></path>
                <path d="M0.0737371215,28.2953222 C0.0778913255,28.26105 0.0810069785,28.2267778 0.0872382846,28.1935442 C0.0945081416,28.1551178 0.103855101,28.1166914 0.11320206,28.0793036 C0.118394815,28.0564555 0.122549019,28.0336073 0.128780325,28.0107592 C0.141242937,27.9640244 0.156821202,27.9183282 0.172399467,27.8715934 C0.176553671,27.8580922 0.180707875,27.8435525 0.18590063,27.8300513 C0.205633099,27.7760467 0.227442671,27.7210035 0.251329344,27.6669988 C0.253406446,27.6618061 0.255483548,27.6566133 0.25756065,27.6524591 C0.557701891,26.9857094 1.18602525,26.3594631 2.09787303,25.7706047 C3.54769024,26.7312644 5.74941837,27.6358423 8.42264867,28.362828 L8.42264867,28.3638666 L8.42264867,28.3638666 C8.78094876,29.5010799 9.22856425,30.5988283 9.76030236,31.6477648 C9.76030236,31.6477648 9.76030236,31.6477648 9.76030236,31.6488034 L9.76030236,31.6488034 C10.2910019,32.6967014 10.903747,33.696826 11.5902292,34.6398303 L11.5902292,34.6398303 C4.70775171,33.2419406 0.219134262,31.0454053 0.0540046524,28.5674225 C0.0540046524,28.5040709 0.0571203054,28.4417579 0.0623130604,28.3794448 C0.0643901624,28.3503654 0.0695829175,28.3233631 0.0737371215,28.2953222 Z" id="path10" fill="#707271"></path>
                <circle id="circle12" fill="#373A36" cx="29.2258639" cy="21.8324193" r="20.6692421"></circle>
                <g id="g16" transform="translate(0.934696, 1.142406)" fill="#061922">
                    <path d="M54.6963273,15.6499251 C53.3233629,14.7816965 51.2472994,13.9622797 48.6914254,13.2789132 C48.2936604,13.172981 47.8855098,13.0701644 47.4690509,12.9715021 C44.4105182,5.37969422 36.9776086,0.0207710201 28.291168,0.0207710201 C19.6047274,0.0207710201 12.1718178,5.37969422 9.11328509,12.9715021 C8.69682613,13.071203 8.28867559,13.172981 7.89091055,13.2789132 C5.33607507,13.9622797 3.25897306,14.7816965 1.88600863,15.6499251 C1.03128115,16.1899716 0.0124626121,17.0228896 0.0124626121,17.9243518 L0.0124626121,24.4298353 C1.55782651,23.181497 4.05138748,22.092057 7.42460115,21.1895562 C7.49106841,21.1719008 7.55961278,21.1542455 7.6271186,21.1365901 C7.86494678,32.3446326 17.0249667,41.3582168 28.2901294,41.3582168 C39.5552922,41.3582168 48.7153121,32.3446326 48.9531403,21.1365901 C49.0206461,21.1542455 49.0891904,21.1719008 49.1556577,21.1895562 C52.5288714,22.0910185 55.0224323,23.181497 56.5677962,24.4298353 L56.5677962,17.9243518 C56.5688348,17.0228896 55.5500163,16.1899716 54.6963273,15.6499251 L54.6963273,15.6499251 Z M41.3976817,7.69774006 C41.4714188,7.54091886 41.6801676,7.50353103 41.8006395,7.62815715 C43.1746425,9.04889492 44.325357,10.6856513 45.1998169,12.4823446 C45.0263789,12.4491109 44.8529409,12.4158773 44.6774258,12.3836822 C43.5537136,11.1156114 42.2939512,9.97216677 40.9147555,8.98242766 C41.0404201,8.53792783 41.2024341,8.10900626 41.3976817,7.69774006 L41.3976817,7.69774006 Z M36.6006146,3.83329177 C37.8707625,4.46057657 39.0599034,5.22702722 40.1483048,6.11291123 C40.3819788,6.30296606 40.4494846,6.62907108 40.3134344,6.89701724 C40.0994929,7.3176304 39.9156694,7.75589892 39.7661181,8.20974571 C38.7711862,7.58349945 37.7253653,7.03099032 36.6348868,6.56260381 C36.4894896,5.77953635 36.3139745,5.0047773 36.1114571,4.23832666 C36.0335657,3.94857093 36.3326684,3.70035724 36.6006146,3.83329177 Z M31.0246342,2.09787303 C31.9697156,2.23496177 32.8909104,2.44267197 33.7851028,2.71581088 C34.1215933,2.81862743 34.3822696,3.08241939 34.4861247,3.41787136 C34.746801,4.26117478 34.9732052,5.11901791 35.1622214,5.99036221 C34.0758971,5.61129109 32.9521849,5.3121884 31.7973162,5.10136255 C31.651919,4.61947488 31.4712112,4.14485707 31.2551926,3.67958622 C31.0838316,3.31193916 30.8927383,2.95675472 30.682951,2.61610999 C30.5313225,2.3699734 30.7369556,2.05633099 31.0246342,2.09787303 L31.0246342,2.09787303 Z M47.0827099,20.6900132 C47.0827099,24.0268775 46.2124042,27.1612245 44.6867727,29.8780739 C44.5964188,30.0390493 44.3492437,29.9455797 44.3887086,29.7648719 L44.3907857,29.7544863 C45.1188099,26.4965518 44.9599116,23.1783814 43.9670569,20.0814223 C43.8798186,19.8082834 43.7873876,19.5351444 43.6866481,19.2651212 C43.6409519,19.1425722 43.531904,19.0542953 43.4031237,19.0335243 L42.5577432,18.895397 C42.350033,18.8611248 42.1838648,19.0677965 42.2638332,19.2630441 C42.3427631,19.4572531 42.4175388,19.6525007 42.4881602,19.8477483 C43.6004484,22.9031654 43.8237368,26.2161431 43.0967511,29.4657692 C43.0541705,29.6537469 43.0095129,29.8417246 42.9617395,30.0276253 C42.1963274,32.9895727 40.0891074,35.4073195 37.2881354,36.6369639 C34.9285475,37.6723992 32.3249001,38.2550263 29.5903953,38.2716432 C28.4085242,38.278913 27.2515784,38.177135 26.1289048,37.9777332 C25.6667496,37.8956877 25.5068127,37.3099449 25.8651128,37.0056495 C26.5183614,36.4510632 27.1518775,35.8684361 27.7646226,35.255691 C28.2018526,34.8184611 28.6245429,34.369807 29.033732,33.911806 C29.20717,33.7165584 29.2975239,33.4621134 29.290254,33.2003986 L29.2549433,32.0756479 C29.2497506,31.9053255 29.0368476,31.834704 28.9288383,31.9666 C27.4956379,33.7248668 25.8734212,35.3221583 24.0923063,36.7283564 C23.6436522,37.0825023 23.0392155,37.1666249 22.5064389,36.9568376 C19.9702973,35.9608672 17.6969092,34.4373128 15.8171318,32.5222248 C15.4380607,32.1358838 15.2677384,31.5885674 15.3840561,31.059945 C15.8877533,28.7720171 16.8037553,26.5869058 18.0925971,24.6209287 C18.2037221,24.4516449 18.1237536,24.2231637 17.9305831,24.1629277 C17.6917164,24.0891906 17.4611581,24.0102607 17.2409853,23.9261381 C17.1132435,23.8773262 16.9668078,23.9219839 16.8930707,24.0372631 C15.8181704,25.7082916 14.9925223,27.5247173 14.4379361,29.4231886 C14.3060401,29.8770354 13.702642,29.9715435 13.4430042,29.5768941 C11.7055084,26.9317047 10.598413,23.8347456 10.332544,20.5061896 C10.2910019,19.9910683 10.2691924,19.4717928 10.2691924,18.946286 C10.2691924,18.8881272 10.2691924,18.8299683 10.2702309,18.7718095 C10.2920405,16.3457543 11.1966184,14.0194 12.7918328,12.2258225 C13.0587404,11.9256812 13.3433033,11.6380026 13.6486373,11.3700564 C16.4236456,8.93050011 19.8352857,7.19923558 23.5989945,6.45978726 C23.7101195,6.00594047 23.8368227,5.53547687 23.9822199,5.04320369 C20.2797855,5.66010299 16.878531,7.17846456 14.0110916,9.36253733 C13.7431455,9.56713188 13.4035393,9.22233294 13.6133266,8.95957954 C17.0955881,4.60805082 22.4721667,1.83823528 28.4936854,1.90158689 C28.494724,1.90262544 28.4957625,1.90262544 28.4978396,1.903664 C29.1240859,2.59014621 29.6506312,3.37425222 30.0546276,4.24040376 C30.1532899,4.45226817 30.2415668,4.66828678 30.3236123,4.88430539 C29.4688848,4.78564304 28.6006562,4.73371549 27.7199649,4.73371549 C27.3076602,4.73371549 26.8974325,4.7461781 26.4913591,4.76798767 C26.611831,5.18963938 26.7219174,5.6258308 26.8195412,6.07967759 C27.1186439,6.06721498 27.4177466,6.05890657 27.7199649,6.05890657 C28.7408606,6.05890657 29.7451394,6.1326437 30.7286472,6.27180953 C30.8096542,6.66022761 30.8646974,7.05279989 30.8937768,7.44641072 C30.9020852,7.55753568 30.9799765,7.64996672 31.0869473,7.67904615 C31.5127532,7.79328676 31.8990942,7.9386839 32.2449317,8.11212192 C32.2438931,7.5783067 32.2013125,7.04449148 32.119267,6.51586902 C33.2658273,6.75681285 34.379154,7.09122628 35.4509386,7.50872378 C35.6264537,8.57946987 35.7469257,9.66890987 35.8092387,10.7739281 C35.8185857,10.9484047 35.947366,11.0927633 36.1197655,11.1208042 L36.914257,11.2506231 C37.0409602,11.2713941 37.1562394,11.1696161 37.1500081,11.0408358 C37.1053504,10.0625207 37.0170735,9.09251407 36.8872547,8.13185438 C37.7679459,8.55246754 38.614365,9.03227811 39.4233962,9.56505477 C39.3205797,10.1414506 39.2717678,10.720962 39.2738449,11.2963193 C39.2748834,11.4282153 39.3392736,11.5466101 39.4410516,11.6193087 C39.4888249,11.6535808 39.5449067,11.6785061 39.6061812,11.6888916 L40.4110582,11.819749 C40.4775255,11.8301345 40.5377615,11.8020936 40.5741107,11.7532817 C40.5969589,11.7231638 40.6094215,11.6847374 40.6073444,11.6431953 C40.5886505,11.2402375 40.599036,10.8341641 40.6395395,10.4280907 C41.2875953,10.9224409 41.9065717,11.4541791 42.493353,12.0181123 C44.2931619,13.7483382 45.7897139,15.789091 46.8988864,18.0552093 C47.0193583,18.9151295 47.0837485,19.7927051 47.0837485,20.685859 C47.0827099,20.6868975 47.0827099,20.6879361 47.0827099,20.6900132 L47.0827099,20.6900132 Z" id="path14"></path>
                </g>
                <g id="g22" transform="translate(16.616816, 5.192755)">
                    <path d="M16.910726,15.453639 L16.9460368,12.4802675 C16.9429211,11.0844549 15.4920654,10.8507809 14.4213193,10.8684363 C15.1399966,10.6306081 16.004071,10.2245347 16.6303173,9.54843796 C17.2866815,8.94192417 17.755068,8.08823524 17.674061,6.88974738 C17.5369723,4.87288132 15.0153705,3.8686025 10.8352027,4.27363739 C10.7666583,4.2798687 10.6981139,4.28713856 10.6306081,4.29440841 C10.434322,2.80408772 10.128988,1.36050182 9.66475567,0.0270023262 L9.45808402,0.232635426 C8.90245923,1.9566301 8.57012291,3.33063308 8.37695242,4.60597372 C5.8823529,5.03593383 4.13447156,5.60817544 4.13447156,5.60817544 L3.92883846,5.81380854 C3.92883846,5.81380854 5.94674307,5.63102356 8.246095,5.66321864 C7.99061145,8.27725153 8.25128775,10.760427 8.24297934,15.4515619 C4.52808239,15.3466682 1.26910933,15.9646061 0.471502157,16.9564223 C0.209787303,17.1724409 0.0706214685,17.4092305 0.0789298765,17.6636755 C0.119433366,18.8008889 3.49680124,19.8446326 8.24401789,20.2434362 L8.44653534,26.6907609 L8.65320699,26.4840892 L8.98658186,22.1117895 C8.98762041,22.0401295 8.99592882,21.9798935 9.00942999,21.927966 C9.10913088,21.9414671 9.20363902,22.0692089 9.20363902,22.2914588 L9.35007472,28.0491856 L9.55674637,27.8435525 L9.91089226,23.1576104 C9.90985371,23.0527167 9.92127777,22.966517 9.94101024,22.8979726 C10.0417497,22.915628 10.1341807,23.0631022 10.1269109,23.3268942 L10.2910019,29.329719 L10.496635,29.1240859 L10.7801595,20.3877948 C11.3253987,20.4054502 11.8820621,20.4147971 12.4491109,20.4147971 C13.0493934,20.4147971 13.6403289,20.4044116 14.2188018,20.3857177 L14.5054419,29.49381 L14.711075,29.2881769 L14.9561731,24.5212278 C14.9572116,24.4256811 14.9675971,24.3457127 14.9852525,24.2813225 C15.0787221,24.3031321 15.1649218,24.4422979 15.1649218,24.6884345 L15.4110584,31.3735874 L15.6166915,31.1679543 L15.8659437,25.3925721 C15.8690594,25.3105266 15.8804834,25.2409437 15.8991774,25.1827848 C16.0175722,25.1817463 16.1380441,25.3229892 16.1432369,25.5992438 L16.34887,33.2544032 L16.5545031,33.0477316 L16.8546443,20.2288965 C20.9112245,19.8747506 23.9915668,19.0563724 24.7549018,18.1164838 C25.0083082,17.9035808 25.1443584,17.683408 25.1443584,17.459081 C25.0841225,16.2086656 21.3318377,15.2448902 16.910726,15.453639 L16.910726,15.453639 Z M8.20039875,18.8881272 C4.94869555,18.5744848 2.75216017,17.9150049 2.75216017,17.0810484 C2.75216017,17.0197739 2.76981554,16.961615 2.80408772,16.9055333 C3.56638416,16.369641 5.90208537,16.0310733 8.24194079,15.6800431 C8.23882514,16.5970836 8.22532398,17.5961697 8.195206,18.6959952 L8.20039875,18.8881272 Z M14.8253156,7.69358586 C14.9489032,8.61374205 14.6851112,9.30853268 14.2104934,9.83300093 C13.3619973,10.6025672 12.0316134,10.9525589 10.9494433,11.1114572 C10.9681372,9.37499994 10.943212,7.57311394 10.7926221,5.80446158 C12.8801096,6.02775004 14.6716101,6.55429541 14.8253156,7.69358586 L14.8253156,7.69358586 Z M14.2167247,19.0646808 C13.7067962,19.0792205 13.1854436,19.087529 12.6526669,19.087529 C12.0253821,19.087529 11.4136756,19.0771434 10.8206629,19.0563724 L10.8445496,18.314847 C10.7884679,16.4371468 10.9058241,14.0827517 10.943212,11.5684197 C12.4657277,11.7449733 14.3029245,12.1790877 14.2707294,13.2498337 L14.2167247,19.0646808 Z M22.3028829,17.6159022 C21.5457792,18.213069 19.5299517,18.6752242 16.8702226,18.9120138 L16.9086489,15.7143153 C19.9536805,16.1110418 22.4243933,16.5565802 22.4243933,17.2866815 C22.4243933,17.3998836 22.3828513,17.50997 22.3028829,17.6159022 L22.3028829,17.6159022 Z" id="path18" fill="#9EA2A2"></path>
                    <path d="M25.1412428,17.4570039 C25.0841225,16.2086656 21.3318377,15.2448902 16.910726,15.4526004 L16.9460368,12.4792289 C16.940844,10.6389165 14.4213193,10.8185858 13.5717846,10.9307493 C14.5636008,10.75108 17.8786556,9.92335487 17.674061,6.88767028 C17.5369723,4.87080422 15.0153705,3.8665254 10.8352027,4.27156029 C10.7666583,4.2777916 10.6981139,4.28506145 10.6306081,4.29233131 C10.434322,2.80201062 10.128988,1.35842472 9.66475567,0.0249252242 C9.08316711,1.82784977 8.74563803,3.24858755 8.55662175,4.57377863 C5.96543698,5.0068544 4.13343301,5.60609834 4.13343301,5.60609834 C4.13343301,5.60609834 6.15133761,5.42331336 8.45068954,5.45550844 C8.19105179,8.10900626 8.46315216,10.6264539 8.44757389,15.4557161 C4.05346458,15.300972 0.238866732,16.156738 0.284562976,17.4549268 C0.324027914,18.5921401 3.70243434,19.6369224 8.44965099,20.035726 L8.65112989,26.4820121 L8.98450476,22.1097124 C8.99489027,21.5675888 9.40823357,21.6174392 9.40823357,22.0827101 L9.55570782,27.8404368 L9.90985371,23.1544947 C9.90466095,22.5220171 10.3470837,22.5521351 10.3315054,23.1181454 L10.4945579,29.1209702 L10.7843137,20.1738533 C11.3929045,20.1956629 12.0170737,20.2070869 12.6526669,20.2070869 C13.2529494,20.2070869 13.8438849,20.1967014 14.4223578,20.1780075 L14.7089979,29.2850613 L14.9540959,24.5181122 C14.9572116,23.9105598 15.3684778,23.9417164 15.3674393,24.4796858 L15.6135758,31.1648386 L15.8638666,25.3894565 C15.8825605,24.8224076 16.3364073,24.8473328 16.3467928,25.3894565 L16.5524259,33.0446159 L16.8567214,20.0461115 L16.8567214,20.0378031 C21.6569041,19.6421152 25.1412428,18.5962943 25.1412428,17.4570039 M15.0309487,7.48795276 C15.3705549,10.0105932 12.7980641,10.8403954 10.9504818,11.1114572 C10.9702143,9.30022427 10.9421734,7.41629274 10.7739281,5.57598036 C12.9559238,5.78472911 14.8720504,6.30815882 15.0309487,7.48795276 M2.75216017,17.0810484 C2.75216017,16.3104436 5.59778993,15.9033316 8.44757389,15.4754486 C8.44445824,16.3914505 8.43095707,17.3915752 8.4008391,18.4903621 L8.41434026,18.9088982 C5.04528079,18.6035642 2.75216017,17.9326602 2.75216017,17.0810484 M10.8206629,19.0563724 L10.8445496,18.314847 C10.7863908,16.381065 10.913094,13.9404702 10.9473662,11.3399384 C12.5041541,11.4998753 14.5106347,11.9236041 14.477401,13.0431621 L14.4202807,19.057411 C13.8470006,19.0761049 13.2560651,19.0864904 12.6526669,19.0864904 C12.0253821,19.087529 11.4136756,19.0771434 10.8206629,19.0563724 M16.8702226,18.9120138 L16.910726,15.4816799 C20.0481886,15.8867148 22.6289879,16.3353688 22.6289879,17.082087 C22.6300264,17.9357759 20.2797855,18.6087569 16.8702226,18.9120138" id="path20" fill="#CE1141"></path>
                </g>
                <path d="M7.41213854,16.2564389 C7.02164336,16.3872963 6.63114818,16.5212694 6.2427301,16.6593967 C5.99347786,16.7476735 5.79096041,17.0301594 5.79096041,17.285643 L5.79096041,21.3089896 C5.79096041,21.5644731 5.99451641,21.6994847 6.2427301,21.6112079 C6.63218673,21.4730806 7.02164336,21.3391075 7.41213854,21.2082501 C7.66242933,21.1241275 7.86702388,20.8489115 7.86702388,20.5934279 L7.86702388,16.5700813 C7.86806243,16.3145978 7.66242933,16.1723163 7.41213854,16.2564389 Z M7.11303585,20.5394233 C6.92194246,20.6038134 6.73084908,20.6702807 6.54079424,20.736748 L6.54079424,17.3240693 C6.73084908,17.2576021 6.92194246,17.1921734 7.11303585,17.1267447 L7.11303585,20.5394233 Z M19.1726901,13.4440428 C18.7686938,13.5032402 18.365736,13.5665918 17.9638168,13.6340976 C17.7062561,13.6766782 17.4954303,13.9228148 17.4954303,14.1782983 L17.4954303,18.2016449 C17.4954303,18.4571285 17.7062561,18.629528 17.9638168,18.5869474 C18.3667746,18.5204801 18.7697323,18.4571285 19.1726901,18.3968925 C19.4312893,18.3584662 19.6421152,18.120638 19.6421152,17.8651544 L19.6421152,13.8418078 C19.6421152,13.5852857 19.4312893,13.4056164 19.1726901,13.4440428 L19.1726901,13.4440428 Z M18.8642405,17.6719839 C18.6669158,17.7021019 18.4695911,17.7332584 18.2722664,17.764415 L18.2722664,14.3517364 C18.4695911,14.3195413 18.6669158,14.2894233 18.8642405,14.2593053 L18.8642405,17.6719839 Z M10.0936772,15.4204054 C10.3470837,15.3466682 10.6015287,15.2750082 10.8559737,15.2043867 L10.8559737,19.6919656 C10.8559737,19.9474492 10.6482635,20.2133182 10.3958956,20.2860168 C10.0012462,20.3981803 9.60659681,20.514498 9.21298598,20.6339314 C8.96165664,20.7107842 8.75602354,20.5664256 8.75602354,20.310942 L8.75602354,15.8233631 C9.00839143,15.7444333 9.26179788,15.6675805 9.51520433,15.5917663 L9.51520433,19.7740112 C9.70837481,19.7158523 9.90050675,19.6597706 10.0936772,19.6036888 L10.0936772,15.4204054 L10.0936772,15.4204054 Z M4.16978229,17.4331172 C4.41799598,17.336532 4.66620967,17.2409853 4.91442337,17.1464771 L4.91442337,22.0993269 C4.66517112,22.193835 4.41695743,22.2893817 4.16978229,22.385967 L4.16978229,20.2943252 C3.99738283,20.361831 3.82498336,20.4303754 3.65362244,20.4989198 L3.65362244,22.5905615 C3.4064473,22.6892238 3.15927216,22.7899633 2.91313557,22.8927798 L2.91313557,17.9399301 C3.15927216,17.8381521 3.4064473,17.7374126 3.65362244,17.6377118 L3.65362244,19.7293535 C3.82602191,19.6608091 3.99738283,19.5922647 4.16978229,19.5247589 L4.16978229,17.4331172 Z M14.618644,14.273845 C15.3248587,14.1201395 16.0331504,13.977858 16.7435193,13.8470006 L16.7435193,14.6165669 C16.5181538,14.6581089 16.2917496,14.7006895 16.0663841,14.7453472 L16.0663841,18.9275921 C15.8088234,18.9774426 15.5502242,19.0293701 15.2926636,19.0833748 L15.2926636,14.9011298 C15.067298,14.9478646 14.842971,14.995638 14.6176054,15.0444499 C14.618644,14.7868892 14.618644,14.5303671 14.618644,14.273845 L14.618644,14.273845 Z M22.5988699,13.0244682 L22.5988699,17.9773179 C22.3381936,18.0022432 22.0775173,18.0292455 21.816841,18.0572864 L21.816841,17.1921734 C21.6361331,16.6760135 21.4543867,16.1608922 21.2736788,15.6468095 L21.2736788,18.1185609 C21.0130025,18.1486788 20.7533648,18.1808739 20.4926885,18.2141076 L20.4926885,13.2612578 C20.7471335,13.2290627 21.002617,13.1979062 21.2581006,13.1677882 C21.4440012,13.6964107 21.6309404,14.2271102 21.816841,14.7567713 L21.816841,13.1044366 C22.0775173,13.0763957 22.3381936,13.050432 22.5988699,13.0244682 L22.5988699,13.0244682 Z M13.8729644,14.9052841 L13.8729644,15.4816799 C13.6164423,15.5408773 13.3599202,15.6011132 13.1033981,15.6623877 L13.1033981,15.3913259 C12.9081505,15.4380607 12.7139414,15.4858341 12.5197324,15.534646 L12.5197324,16.5565802 C12.8894565,16.7300182 13.2591807,16.9076104 13.6289049,17.0872797 C13.8096127,17.1755566 13.8729644,17.3344549 13.8729644,17.5473578 L13.8729644,18.9286307 C13.8729644,19.1841142 13.6642156,19.4406363 13.4087321,19.5008723 C13.0099285,19.5953804 12.6121634,19.6930042 12.2154369,19.7947822 C11.9609919,19.8591724 11.7532817,19.7054668 11.7532817,19.4499833 L11.7532817,18.8735874 C12.0087653,18.8060816 12.2642488,18.7406529 12.5197324,18.6773013 L12.5197324,18.9483631 C12.7139414,18.8995512 12.909189,18.8517779 13.1033981,18.8050431 L13.1033981,17.7831089 C12.7336739,17.6055167 12.3639497,17.4320787 11.9952641,17.2607177 C11.8155948,17.1776337 11.7532817,17.0208125 11.7532817,16.8079095 L11.7532817,15.4266367 C11.7532817,15.1711531 11.9609919,14.9073612 12.2154369,14.842971 C12.6121634,14.741193 13.010967,14.6435692 13.4087321,14.5490611 C13.663177,14.4888251 13.8719258,14.6498005 13.8729644,14.9052841 Z M40.6468093,13.6600614 C40.2438515,13.5925556 39.8408937,13.5281654 39.4379359,13.4679295 C39.1793367,13.4295031 38.9685109,13.6081338 38.9685109,13.8636174 L38.9685109,17.886964 C38.9685109,18.1424475 39.1793367,18.3813143 39.4379359,18.4197407 C39.8408937,18.4799766 40.2438515,18.5443668 40.6468093,18.6118726 C40.90437,18.6554917 41.1151958,18.4830923 41.1151958,18.2276087 L41.1151958,14.2042621 C41.1151958,13.9487786 40.90437,13.702642 40.6468093,13.6600614 Z M40.3383597,17.7914173 C40.141035,17.7592222 39.9437103,17.7280657 39.7463856,17.6969092 L39.7463856,14.2842305 C39.9437103,14.3143485 40.141035,14.3465436 40.3383597,14.3787387 L40.3383597,17.7914173 L40.3383597,17.7914173 Z M50.7757973,16.1692006 C51.4674723,16.3976818 52.1560316,16.6365486 52.8414752,16.8878779 L52.8414752,17.6574442 C52.6233795,17.5774758 52.4052838,17.4995845 52.1861495,17.4216931 L52.1861495,21.603938 C51.9358588,21.5156612 51.685568,21.4284229 51.4342386,21.3422232 L51.4342386,17.1599783 C51.2151044,17.0852026 50.9949315,17.0114655 50.7757973,16.9387669 L50.7757973,16.1692006 L50.7757973,16.1692006 Z M54.8001824,18.6783399 L54.8001824,18.407278 C54.6122047,18.3314638 54.4231884,18.2577267 54.2352107,18.1839896 L54.2352107,19.2059238 C54.5935108,19.6119972 54.9507723,20.0211863 55.3069953,20.4334911 C55.4804333,20.63497 55.5406693,20.8333332 55.5417079,21.0462362 L55.5417079,22.427509 C55.5417079,22.6829925 55.3412675,22.8086572 55.0951309,22.7089563 C54.710867,22.5531737 54.3255646,22.4005067 53.9402622,22.2519939 C53.6930871,22.1564472 53.4905696,21.8718842 53.4905696,21.6164007 L53.4905696,21.0400049 C53.7398219,21.1334744 53.9880355,21.2290211 54.2362492,21.3256064 L54.2362492,21.5966682 C54.4252655,21.6704053 54.6132433,21.745181 54.801221,21.8199567 L54.801221,20.7980225 C54.4439594,20.3888334 54.0856593,19.9817214 53.7273592,19.5787636 C53.5528827,19.3824774 53.4905696,19.1861913 53.4916082,18.9732883 L53.4916082,17.5920155 C53.4916082,17.336532 53.6941256,17.2035974 53.9413008,17.2991441 C54.3276417,17.4476569 54.7129441,17.6003239 55.0961695,17.7561066 C55.3423061,17.8558075 55.5427464,18.1476403 55.5427464,18.4031238 L55.5427464,18.9795197 C55.2945327,18.8777417 55.0473576,18.7770022 54.8001824,18.6783399 Z M47.1938349,15.0932618 C46.9290044,15.8472498 46.6641738,16.6022764 46.3993433,17.3593801 C46.6641738,18.2535725 46.9290044,19.1488035 47.1938349,20.045073 C46.9258887,19.9723744 46.6579425,19.9017529 46.3899964,19.83217 C46.1791705,19.119724 45.9673061,18.4093551 45.7554417,17.6989863 L45.7554417,19.6711946 C45.4999582,19.607843 45.2434361,19.54553 44.986914,19.485294 L44.986914,14.5324442 C45.2434361,14.5926802 45.4989196,14.6549933 45.7554417,14.7183449 L45.7554417,16.6905532 C45.9673061,16.085078 46.178132,15.4816799 46.3899964,14.8782817 C46.6579425,14.9499417 46.9258887,15.0205632 47.1938349,15.0932618 L47.1938349,15.0932618 Z M44.1197239,14.801429 L44.1197239,15.3923645 C43.8632018,15.3352442 43.6056411,15.280201 43.3480805,15.2261963 L43.3480805,14.9405948 C43.1517943,14.8990527 42.9565468,14.8595878 42.7602606,14.8201229 L42.7602606,18.2328015 C42.9565468,18.2722664 43.1517943,18.3127699 43.3480805,18.3532734 L43.3480805,18.0967513 C43.6056411,18.1507559 43.8632018,18.2057992 44.1197239,18.2629195 L44.1197239,18.8247756 C44.1197239,19.0802591 43.9099366,19.2422731 43.654453,19.1872299 C43.2546109,19.1010301 42.8537302,19.0189846 42.4528495,18.9410933 C42.1963274,18.8912428 41.9855016,18.6419906 41.9855016,18.386507 L41.9855016,14.3631604 C41.9855016,14.1076769 42.1963274,13.9383931 42.4528495,13.9882435 C42.8537302,14.0671734 43.2546109,14.1492189 43.654453,14.2343801 C43.9099366,14.2904619 44.1197239,14.5459454 44.1197239,14.801429 Z M38.0161596,15.6655034 L38.0161596,13.73276 C38.0161596,13.4772764 37.8042952,13.2404868 37.545696,13.2093303 C36.9838399,13.1407859 36.4219838,13.0795114 35.8590892,13.0244682 L35.8590892,13.0244682 L35.8590892,17.9773179 C36.1197655,18.0022432 36.3804418,18.0292455 36.6411181,18.0572864 L36.6411181,15.9656446 C36.7460117,15.9770687 36.8519439,15.9884928 36.9568376,16.0009554 C37.0710782,16.7113243 37.1853188,17.4216931 37.2995594,18.132062 C37.5633514,18.1632186 37.8271433,18.1954136 38.0898967,18.2296858 C37.973579,17.5037387 37.8572613,16.7777915 37.739905,16.0518444 C37.9029576,15.9999168 38.0161596,15.8524426 38.0161596,15.6655034 L38.0161596,15.6655034 Z M37.2362078,15.2635841 C37.0378446,15.240736 36.8405199,15.2178879 36.6421566,15.1960783 L36.6421566,13.8750415 C36.8405199,13.896851 37.0388831,13.9186606 37.2362078,13.9425473 L37.2362078,15.2635841 L37.2362078,15.2635841 Z M48.051678,15.3321285 C48.7443915,15.5294532 49.4339894,15.7371634 50.1215101,15.9573362 L50.1215101,16.7269025 C49.6863573,16.5877367 49.2501659,16.4537636 48.8129359,16.3239447 L48.8129359,17.6449816 C49.1369638,17.7415669 49.4609917,17.8402292 49.7839811,17.9409686 L49.7839811,18.7105349 C49.4609917,18.6097955 49.1369638,18.5100946 48.8129359,18.4145479 L48.8129359,19.7355848 C49.2501659,19.8654037 49.6863573,20.0004153 50.1215101,20.1385426 L50.1215101,20.9081089 C49.4339894,20.6889746 48.743353,20.4802259 48.051678,20.2829012 L48.051678,15.3321285 L48.051678,15.3321285 Z" id="path24" fill="#FFFFFF"></path>
            </g>
        </g>
    </g>
</svg>
