<?xml version="1.0" encoding="UTF-8"?>
<svg width="60px" height="60px" viewBox="0 0 60 60" version="1.1" xmlns="http://www.w3.org/2000/svg" xmlns:xlink="http://www.w3.org/1999/xlink">
    <!-- Generator: Sketch 43.2 (39069) - http://www.bohemiancoding.com/sketch -->
    <title>Slice</title>
    <desc>Created with Sketch.</desc>
    <defs></defs>
    <g id="Page-1" stroke="none" stroke-width="1" fill="none" fill-rule="evenodd">
        <g id="CHA" transform="translate(0.000000, 1.000000)" fill-rule="nonzero">
            <path d="M58.8557621,9.19650558 C57.5020818,12.7579182 55.7295167,16.4805948 54.8431227,18.0115985 C53.3444164,20.5739777 50.362974,22.1049814 48.6227509,22.7011896 C48.6227509,22.7011896 47.7686543,24.7639405 46.8823048,25.892119 L50.4437175,25.892119 L50.4437175,30.7266914 L53.8601487,32.3543197 L50.4437175,34.0625353 L50.4437175,38.1559182 L47.1401487,40.1864387 C47.1401487,40.1864387 44.5133086,39.8641338 43.2240892,39.7191078 L32.7814126,45.7623792 C30.7186617,55.2220818 30.1869145,57.9455019 30.1869145,57.9455019 C30.1869145,57.9455019 29.6873309,55.3510037 27.5924164,45.7623792 L17.1486245,39.72 C15.8755093,39.8650372 13.2325651,40.1873309 13.2325651,40.1873309 L9.92899628,38.1568104 L9.92899628,34.0634275 L6.51256506,32.3713383 L9.92899628,30.74371 L9.92899628,25.8767955 L13.4904089,25.8767955 C12.6201859,24.7970632 11.7338587,22.6537472 11.7338587,22.6537472 C10.7024833,22.2992119 9.67110781,21.8318587 8.78471375,21.2678364 C7.36657249,20.381487 6.22233457,19.2050855 5.48114498,17.9963866 C4.15969517,15.4663494 2.46753903,11.7113309 1.5650855,9.18129368 C0.95270632,7.65033457 0.211405204,5.31363569 0.211405204,5.31363569 C0.211405204,5.31363569 2.16133829,6.23219331 2.74144238,6.52228996 C1.82288476,3.71812639 1.00099628,0.011732342 1.00099628,0.011732342 C1.00099628,0.011732342 14.3604758,8.82682528 23.7385428,16.3203569 L23.8835799,16.2075502 L23.8835799,15.7079665 C23.8835799,15.5951599 23.8835799,15.4178922 23.9480409,15.1761747 C24.0608476,14.8538699 24.3025762,14.4993346 24.8343903,14.1447993 C24.1575502,13.6130074 22.8844572,12.791119 22.7716394,12.6460929 C21.88529,11.8564572 21.7080335,10.9701078 21.7724944,10.5511115 L21.9175316,9.55196654 L26.9938885,13.3228216 C29.76571,12.5331859 31.7155985,12.9038253 33.1821413,13.3228216 L38.2584981,9.55196654 L38.4035353,10.5511115 C38.4679963,11.0184424 38.3390743,11.8725613 37.4043903,12.6460929 C37.2915836,12.7588996 36.05071,13.6130074 35.3416394,14.1447993 C35.905684,14.4993346 36.1312751,14.8538699 36.2279888,15.1761747 C36.2924498,15.4179145 36.2924498,15.595171 36.2924498,15.7079665 L36.2924498,16.2075502 L36.437487,16.3203569 C46.0582305,8.64950186 59.2084907,0.0277918216 59.2084907,0.0277918216 C59.2084907,0.0277918216 58.5316506,3.08979926 57.4680446,6.53834944 C57.9998364,6.29660967 59.9980818,5.32969517 59.9980818,5.32969517 C59.6435465,7.1990632 58.8538885,9.19735316 58.8538885,9.19735316 L58.8557621,9.19650558 Z" id="Shape" fill="#A1A1A4"></path>
            <path d="M14.8289219,26.4557621 L10.5584387,26.4557621 L10.5584387,31.0808922 L7.99605948,32.3217546 L10.5584387,33.6754349 L10.5584387,37.7688178 L13.3947212,39.5092639 C14.4260967,39.3642268 15.7474349,39.1869591 17.3107807,39.0419331 L28.2207435,45.3269888 L30.2190335,54.4643866 C30.2190335,54.4321561 32.2495539,45.3269888 32.2495539,45.3269888 L43.1595167,39.0419331 C44.6904758,39.2192007 46.0442007,39.3642379 47.0755762,39.5092639 L49.8797398,37.7688178 L49.8797398,33.6754349 L52.442119,32.3539851 L49.8797398,31.0808699 L49.8797398,26.4557398 L45.6092565,26.4557398 C45.6092565,26.4557398 46.2860967,25.8111301 47.1079628,24.3929888 C47.4624981,23.7967361 47.784803,23.0393086 48.1715688,22.1852119 C51.2656952,21.266632 53.5378885,19.2684089 54.537145,17.3506394 C57.1961041,12.5160669 59.1943941,6.55331599 59.1943941,6.55331599 C59.1943941,6.55331599 58.0502007,7.11736059 56.6643569,7.79417844 C57.7601933,4.37774721 58.4692639,1.46094424 58.4692639,1.46094424 C58.4692639,1.46094424 46.2377398,9.56696654 36.6814572,17.1733606 L35.8595688,16.673777 C35.8595688,16.609316 35.8917993,15.9324758 35.8917993,15.8518885 C35.8917993,15.8518885 36.0046059,15.0622528 34.5703494,14.5787732 C34.4575428,14.5465428 34.3930818,14.5143123 34.3286097,14.5143123 C35.0054498,13.9825204 36.1012862,13.1928625 36.8586468,12.6610483 C38.0995093,11.8069517 37.9544833,10.8561413 37.9544833,10.8561413 L33.4100967,14.2402305 C29.9292045,13.0960372 27.0124015,14.2402305 27.0124015,14.2402305 L22.4680149,10.8561413 C22.4680149,10.8561413 22.3229777,11.7746989 23.5638513,12.6610483 C24.353487,13.1928401 25.4493234,13.9824981 26.1262305,14.5143123 C26.0617695,14.5465428 25.9489628,14.5787732 25.8844907,14.5787732 C24.4663494,15.0783569 24.5630409,15.8518885 24.5630409,15.8518885 C24.5630409,15.9163494 24.5952714,16.5931896 24.5952714,16.673777 L23.7733829,17.0927732 C14.2128625,9.5044461 1.99762082,1.41470632 1.99762082,1.41470632 C1.99762082,1.41470632 2.67446097,4.33150929 3.80252788,7.74794052 C2.30382156,7.03886989 1.27249071,6.50707807 1.27249071,6.50707807 C1.27249071,6.50707807 3.25465428,12.4858885 5.89762082,17.3044015 C6.86453532,19.2543346 9.16907063,21.220461 12.263197,22.138974 C12.263197,22.138974 12.7949888,23.3476283 13.2301115,24.2017249 C13.7941561,25.2975613 14.8255316,26.4578587 14.8255316,26.4578587 L14.8289219,26.4557621 Z" id="Shape" fill="#1D1160"></path>
            <path d="M56.067658,4.79687732 C47.2684015,10.1792565 39.4215613,16.2227509 35.3263941,19.5263197 C35.2951673,19.6713011 35.2148699,19.8165056 35.1814126,19.9130855 C39.4862454,17.109145 46.9472119,12.2420074 55.3271375,6.79516729 C55.3271375,6.79516729 55.3271375,6.97249071 56.067658,4.79687732 L56.067658,4.79687732 Z M4.30483271,4.8129368 C5.01390335,6.9401487 5.04624535,6.81122677 5.04624535,6.81122677 C13.426171,12.2098885 20.9357621,17.1252045 25.2394796,19.929368 C25.1591822,19.8165056 25.1257249,19.6713011 25.0944981,19.5263197 C21.0486245,16.2227509 13.1841636,10.1792565 4.30483271,4.8129368 L4.30483271,4.8129368 Z M30.3211896,14.7120446 C29.6275093,14.7080297 28.8981413,14.7883271 28.1710037,14.9656506 C28.929368,16.029145 28.8178439,17.5280297 28.8178439,17.5280297 C28.5256506,16.1743494 27.6401487,15.5457993 27.1092937,15.2556134 C26.8996283,15.3200743 26.6565056,15.3847584 26.3665428,15.4973978 C26.930855,15.7231227 27.6089219,16.2872119 28.0750929,17.3507063 C28.3003717,17.8824535 28.4297398,19.9133086 29.5739777,20.4129368 C28.6237918,21.2991078 27.4460967,21.0573234 26.5605948,20.2677323 C27.6557621,22.6527881 29.5092937,23.5717472 30.2185874,23.86171 C30.8475836,23.3776952 31.1687732,21.9115985 30.863197,20.4129368 C32.0074349,19.9133086 32.1524164,17.8824535 32.3620818,17.3507063 C32.8304833,16.2388104 33.5063197,15.7391822 34.070632,15.4973978 C33.8297398,15.4329368 33.5710037,15.3200743 33.3301115,15.2556134 C32.797026,15.5297398 31.9115242,16.2064684 31.6215613,17.5280297 C31.6215613,17.5280297 31.5234201,16.029145 32.266171,14.9656506 C31.6773234,14.8043866 31.0171004,14.7160595 30.3211896,14.7120446 L30.3211896,14.7120446 Z M46.3828996,22.4275093 L45.5598513,22.6684015 C42.7895911,23.4089219 37.5680297,24.1182156 37.5680297,24.1182156 C40.0817844,24.1516729 42.2565056,24.3613383 43.4654275,24.5063197 C43.7241636,24.1828996 44.0297398,23.8282528 44.1434944,23.5070632 C44.1434944,23.5070632 44.0297398,24.4572491 43.8200743,25.070632 C43.5814126,25.8557621 43.2446097,26.5182156 43.1197026,26.6654275 C43.333829,26.5070632 45.2698885,25.0148699 46.3828996,22.4275093 L46.3828996,22.4275093 Z M43.1197026,26.6654275 C43.1085502,26.6743494 43.0795539,26.6966543 43.0795539,26.6966543 C43.0862454,26.6988848 43.1018587,26.6877323 43.1197026,26.6654275 Z M14.0074349,22.4431227 C15.2161338,25.2156134 17.3112268,26.7144981 17.3112268,26.7144981 C17.3112268,26.7144981 16.892119,25.9717472 16.5698141,25.0862454 C16.3603717,24.4907063 16.2475093,23.5226766 16.2475093,23.5226766 C16.3603717,23.8126394 16.6826766,24.2007435 16.924461,24.5219331 C18.1331599,24.3769517 20.2924907,24.2007435 22.822974,24.1360595 C22.822974,24.1360595 17.5690706,23.3933086 14.829368,22.6840149 L14.0074349,22.4431227 Z M18.3423792,36.6245353 C17.9556134,36.6579926 17.6014126,36.6892193 17.2467658,36.73829 L24.6765056,41.0408922 C24.2727881,40.605948 23.9515985,40.1866171 23.6772491,39.7182156 L18.3423792,36.6245353 L18.3423792,36.6245353 Z M42.0814126,36.6245353 L36.7460967,39.7182156 C36.5052045,40.1866171 36.1817844,40.605948 35.7468401,41.0408922 L43.1765799,36.73829 C42.8219331,36.6892193 42.4672862,36.6579926 42.0814126,36.6245353 L42.0814126,36.6245353 Z M29.7535316,36.8832714 C28.2546468,36.9144981 27.1260223,37.0929368 26.3364312,37.3003717 C26.5126394,37.5100372 26.7223048,37.6884758 26.9007435,37.864684 C27.7862454,38.7189591 28.5758364,39.1070632 28.5758364,40.2825279 C28.5758364,40.6371747 28.3996283,40.9605948 28.1565056,41.201487 C28.0115242,41.4111524 27.7215613,41.5561338 27.4806691,41.7011152 C27.4159851,41.7501859 27.3022305,41.7814126 27.239777,41.8126394 C28.236803,42.4260223 28.9460967,42.6669145 29.2360595,42.7806691 C29.2360595,42.7806691 28.6739777,42.8765799 27.9959108,42.8118959 C28.2211896,43.1665428 28.430855,43.4899628 28.6405204,43.8758364 C28.8189591,43.8111524 29.3810409,43.4899628 30.170632,43.4899628 C30.9936803,43.4899628 31.5245353,43.8111524 31.63829,43.8758364 C31.8144981,43.4899628 32.0732342,43.1665428 32.2828996,42.8118959 C31.63829,42.9256506 31.0427509,42.7806691 31.0427509,42.7806691 C31.3327138,42.6669145 32.0732342,42.4572491 33.0390335,41.8126394 C32.9765799,41.7657993 32.8628253,41.732342 32.7981413,41.7011152 C32.5884758,41.5873606 32.3319703,41.4111524 32.1223048,41.201487 C31.8791822,40.9605948 31.702974,40.670632 31.702974,40.2825279 C31.702974,39.13829 32.4925651,38.7189591 33.3780669,37.864684 C33.5565056,37.6884758 33.7327138,37.4788104 33.9423792,37.3003717 C33.1215613,37.0929368 32.0241636,36.9144981 30.5252788,36.8832714 L30.1394052,41.8304833 L30.105948,41.8304833 L29.7535316,36.8832714 L29.7535316,36.8832714 Z M25.8858736,37.3828996 C25.1431227,37.6728625 24.7081784,37.9472119 24.4672862,38.1234201 C24.9981413,38.6230483 25.9973978,39.267658 27.770632,39.6535316 C27.5765799,39.1226766 27.0122677,38.5427509 26.4167286,37.9137546 L25.8858736,37.3828996 Z M34.5223048,37.4141264 L33.9914498,37.9449814 C33.4115242,38.5427509 32.8472119,39.1226766 32.6375465,39.6869888 C34.4420074,39.2988848 35.4100372,38.6542751 35.9408922,38.1546468 C35.7312268,37.9472119 35.2628253,37.6550186 34.5223048,37.4141264 Z M24.498513,38.7836431 C24.9981413,39.7516729 25.7074349,40.6371747 26.5929368,41.201487 C26.6263941,41.2171004 27.6256506,40.8959108 27.835316,40.4609665 C25.4821561,39.927881 24.498513,38.7836431 24.498513,38.7836431 Z M35.9408922,38.7992565 C35.9408922,38.7992565 34.9728625,39.9769517 32.6040892,40.4765799 C32.8137546,40.8959108 33.8464684,41.2171004 33.8464684,41.2171004 C34.7319703,40.5724907 35.4747212,39.7672862 35.9408922,38.7992565 Z" id="Shape" fill="#00788C"></path>
            <path d="M55.4074349,6.77910781 C47.0275093,12.2098885 39.5486989,17.0930855 35.2639405,19.897026 C35.0855019,20.3643123 34.9092937,20.7510781 34.6996283,21.1378439 L51.6200743,11.9362082 L38.4379182,21.4601487 L39.0825279,21.3472862 L46.0438662,20.6703346 C46.0438662,20.6703346 50.7657993,20.2030483 53.4089219,16.6898141 C54.6490706,14.7720446 56.7434944,9.26096654 56.7434944,9.26096654 L53.6342007,10.8238662 C54.6334572,8.47115242 55.4074349,6.77910781 55.4074349,6.77910781 L55.4074349,6.77910781 Z M5.04758364,6.81122677 C5.04758364,6.81122677 5.78877323,8.47115242 6.8201487,10.8238662 L3.77464684,9.2930855 C3.77464684,9.2930855 5.86951673,14.8043866 7.09427509,16.7221561 C9.73717472,20.2351673 14.4586617,20.7024535 14.4586617,20.7024535 L21.4206691,21.3796283 L22.0650558,21.4922677 L8.88289963,11.9683271 L25.7560595,21.1699628 C25.5463941,20.783197 25.3679554,20.3966543 25.1917472,19.929368 C20.9049814,17.1252045 13.4275093,12.2420074 5.04758364,6.81122677 L5.04758364,6.81122677 Z M27.6089219,18.7204461 C27.6245353,18.7204461 26.4802974,20.6384387 28.6081784,20.5255762 C28.6081784,20.5255762 27.7539033,19.9612639 27.6089219,18.7204461 Z M32.8773234,18.7204461 C32.732342,19.9612639 31.8780669,20.5255762 31.8780669,20.5255762 C33.9747212,20.6384387 32.8773234,18.7204461 32.8773234,18.7204461 Z M18.7608178,25.5055762 L18.7608178,27.3591078 L19.0188848,27.6 L20.2918216,27.6 L20.2918216,26.9241636 L19.7924164,26.9241636 L19.7924164,27.1315985 L19.3088476,27.1315985 L19.3088476,26.0052045 L19.7924164,26.0052045 L19.7924164,26.1501859 L20.2918216,26.1501859 L20.2918216,25.5055762 L18.7608178,25.5055762 L18.7608178,25.5055762 Z M21.4684015,25.5055762 L21.4684015,27.6 L21.9680297,27.6 L21.9680297,26.9241636 L22.5635688,26.9241636 L22.5635688,27.6 L23.063197,27.6 L23.063197,25.5055762 L22.5635688,25.5055762 L22.5635688,26.4557621 L21.9680297,26.4557621 L21.9680297,25.5055762 L21.4684015,25.5055762 Z M24.2074349,25.5055762 L24.2074349,27.5687732 L24.7405204,27.5687732 L24.7405204,26.8907063 L25.3516729,26.8907063 L25.3516729,27.5687732 L25.8356877,27.5687732 L25.8356877,25.7464684 L25.5947955,25.5055762 L24.2074349,25.5055762 Z M25.8356877,27.5687732 L25.8356877,27.6 L25.8513011,27.5687732 L25.8356877,27.5687732 Z M29.9620818,25.5055762 L29.9620818,27.6 L31.2513011,27.6 L31.2513011,27.1315985 L30.4929368,27.1315985 L30.4929368,25.5055762 L29.9620818,25.5055762 Z M32.2817844,25.5055762 L32.2817844,27.3591078 L32.5226766,27.6 L33.9100372,27.6 L33.9100372,25.7464684 L33.6669145,25.5055762 L32.2817844,25.5055762 Z M35.0542751,25.5055762 L35.0542751,26.0052045 L35.5204461,26.0052045 L35.5204461,27.6 L36.0847584,27.6 L36.0847584,26.0052045 L36.5040892,25.9717472 L36.5040892,25.5055762 L35.0542751,25.5055762 L35.0542751,25.5055762 Z M37.5680297,25.5055762 L37.5680297,26.0052045 L38.0342007,26.0052045 L38.0342007,27.6 L38.598513,27.6 L38.598513,26.0052045 L38.9866171,25.9717472 L38.9866171,25.5055762 L37.5680297,25.5055762 L37.5680297,25.5055762 Z M40.1933086,25.5055762 L40.1933086,27.6 L41.7256506,27.6 L41.7256506,27.1315985 L40.6929368,27.1315985 L40.6929368,26.8104089 L41.7256506,26.8104089 L41.7256506,26.3263941 L40.6929368,26.3263941 L40.6929368,26.0052045 L41.7256506,26.0052045 L41.7256506,25.5055762 L40.1933086,25.5055762 Z M27.0446097,25.5524164 L27.0446097,27.6156134 L27.5754647,27.6156134 L27.5754647,26.8907063 L27.9635688,26.8907063 L28.2847584,27.6 L28.8178439,27.6 L28.4788104,26.8907063 L28.6884758,26.8907063 L28.6884758,25.795539 L28.4453532,25.5524164 L27.0446097,25.5524164 L27.0446097,25.5524164 Z M24.7405204,25.9561338 L25.3516729,25.9561338 L25.3516729,26.4557621 L24.7405204,26.4557621 L24.7405204,25.9561338 Z M27.5754647,25.9717472 L28.1888476,25.9717472 L28.1888476,26.3910781 L27.5754647,26.3910781 L27.5754647,25.9717472 Z M32.7814126,25.9895911 L33.3769517,25.9895911 L33.3769517,27.1315985 L32.7814126,27.1315985 L32.7814126,25.9895911 Z M43.5791822,27.5687732 L44.1434944,28.2133829 L44.1434944,31.597026 L47.0921933,32.870632 L47.0921933,34.7553903 C47.0921933,34.7553903 46.4141264,34.6907063 45.5598513,34.5457249 L45.5598513,33.9501859 L44.1434944,33.7717472 L44.1434944,35.6899628 C45.7048327,35.866171 47.1568773,36.0758364 48.5085502,36.3345725 C48.4773234,35.270632 48.4773234,33.7070632 48.4773234,32.9330855 C48.9457249,32.7256506 49.3628253,32.5159851 49.8,32.2907063 C48.3814126,31.6126394 46.9628253,31.0483271 45.4951673,30.4840149 L45.4951673,28.8579926 L47.0275093,28.8579926 L47.0275093,29.4535316 L48.4773234,29.4535316 L48.4773234,27.5687732 L43.5791822,27.5687732 Z M11.8483271,27.6 L11.8483271,31.7910781 C11.8483271,31.7910781 10.6717472,32.3531599 10.6717472,32.3866171 L11.8483271,32.9977695 L11.8483271,36.4148699 C12.3156134,36.3501859 12.7668401,36.2386617 13.2664684,36.1739777 L13.2664684,32.9018587 L14.893829,32.2260223 L14.893829,35.8840149 C15.3613383,35.8193309 15.812342,35.7390335 16.3119703,35.7055762 L16.3119703,27.6 L14.893829,27.6 L14.893829,30.5174721 L13.2664684,31.1933086 L13.2664684,27.6 L11.8483271,27.6 Z M22.4192565,28.8089219 L22.9835688,29.4847584 L22.9835688,35.0944238 C23.483197,35.0609665 23.9025279,35.0609665 24.4021561,35.0297398 L24.4021561,32.8527881 L24.3865428,32.8527881 C24.7411896,32.8527881 25.0623792,32.8215613 25.4504833,32.8215613 C25.7404461,33.4973978 25.9813383,34.2713755 26.2378439,34.9494424 C26.7374721,34.9494424 27.156803,34.9159851 27.6564312,34.9159851 C27.3664684,34.2401487 27.1255762,33.466171 26.8668401,32.7881041 L27.4311524,32.7881041 L27.4311524,29.4535316 L26.7865428,28.8089219 L22.4192565,28.8089219 L22.4192565,28.8089219 Z M16.86,28.8401487 L17.3919703,29.4847584 L17.3919703,34.8200743 L17.9560595,35.4959108 C19.1968773,35.3509294 20.5505576,35.2550186 21.9042379,35.1747212 L21.9042379,29.5182156 L21.2272862,28.8401487 L16.86,28.8401487 L16.86,28.8401487 Z M39.2763569,28.8401487 L39.2763569,30.1628253 L40.5165056,30.1628253 L40.5165056,35.3197026 C41.0473606,35.3509294 41.5469888,35.3843866 42.0800743,35.464684 L42.0800743,30.1628253 L43.320223,30.1628253 L43.320223,28.8401487 L39.2763569,28.8401487 Z M27.9633457,28.8579926 L28.5254275,29.533829 L28.5254275,34.9650558 L29.9774721,34.9650558 C29.9618587,34.9159851 29.9618587,30.1628253 29.9618587,30.1628253 L31.587881,30.1628253 L31.587881,34.9315985 C32.0875093,34.9315985 32.5871375,34.9315985 33.0867658,34.9650558 L33.0867658,29.533829 L32.4109294,28.8579926 L27.9633457,28.8579926 Z M33.6510781,28.8892193 L34.1819331,29.5650558 L34.1819331,35.0453532 C35.6339777,35.0765799 37.0994052,35.1591078 38.4845353,35.2550186 L38.4845353,33.8052045 L38.4533086,33.8052045 L38.4533086,33.7873606 C37.5343494,33.7561338 36.599777,33.6758364 35.6808178,33.6423792 L35.6808178,32.6431227 C36.599777,32.6765799 37.5343494,32.7078067 38.4533086,32.7568773 L38.4533086,31.33829 C37.5343494,31.3070632 36.599777,31.3070632 35.6808178,31.2736059 L35.6808178,30.2118959 L38.4533086,30.2118959 L38.4533086,28.8892193 L33.6510781,28.8892193 L33.6510781,28.8892193 Z M18.8089963,30.1628253 L20.4365799,30.1628253 L20.4365799,33.8520446 C19.8724907,33.8855019 19.3730855,33.9167286 18.8089963,33.9657993 L18.8089963,30.1628253 L18.8089963,30.1628253 Z M24.3856506,30.1628253 L26.0116729,30.1628253 L26.0116729,31.4364312 C25.4495911,31.4364312 24.9477323,31.4364312 24.3856506,31.467658 L24.3856506,30.1628253 Z M30.1871375,44.939777 C29.5090706,44.939777 29.3328625,45.1182156 29.123197,45.263197 L30.2183643,49.66171 L31.2510781,45.2944238 C31.1060967,45.1182156 30.862974,44.939777 30.1871375,44.939777 L30.1871375,44.939777 Z" id="Shape" fill="#FFFFFF"></path>
        </g>
    </g>
</svg>
