<?xml version="1.0" encoding="UTF-8"?>
<svg width="60px" height="60px" viewBox="0 0 60 60" version="1.1" xmlns="http://www.w3.org/2000/svg" xmlns:xlink="http://www.w3.org/1999/xlink">
    <!-- Generator: Sketch 43.2 (39069) - http://www.bohemiancoding.com/sketch -->
    <title>DET</title>
    <desc>Created with Sketch.</desc>
    <defs></defs>
    <g id="Page-1" stroke="none" stroke-width="1" fill="none" fill-rule="evenodd">
        <g id="DET" fill-rule="nonzero">
            <path d="M59.9514908,29.9757486 C59.9514885,46.5308945 46.5308896,59.9514903 29.9757437,59.9514887 C13.4205977,59.9514872 1.33481068e-06,46.5308889 2.11267639e-06,29.975743 C2.8905421e-06,13.420597 13.4206006,1.64904603e-13 29.9757465,1.20315101e-16 C37.926264,-0.00148477964 45.5515752,3.15618871 51.1734398,8.77805405 C56.7953043,14.3999194 59.9529767,22.0252311 59.9514908,29.9757486" id="Shape" fill="#B5B3B3"></path>
            <path d="M59.0876028,29.9757486 C59.0876045,41.7503983 51.994728,52.3656411 41.1163706,56.8716057 C30.2380132,61.3775702 17.7164814,58.8868839 9.39054612,50.5609498 C1.06461086,42.2350158 -1.42607732,29.7134843 3.07988566,18.8351263 C7.58584863,7.95676823 18.2010904,0.863890141 29.9757401,0.863890141 C37.6969663,0.862973827 45.1022143,3.92981286 50.5619461,9.38954389 C56.0216779,14.8492749 59.088518,22.2545224 59.0876028,29.9757486" id="Shape" fill="#1D428A"></path>
            <path d="M54.7994113,29.9757486 C54.802286,43.6883535 43.6883546,54.8069471 29.9757497,54.8098236 C16.2631447,54.8127 5.14454972,43.6987701 5.14167152,29.9861651 C5.13879331,16.2735602 16.2527218,5.15496376 29.9653268,5.1520838 C36.5505615,5.15002376 42.8668259,7.76437251 47.5242672,12.4198597 C52.1817085,17.0753469 54.7987077,23.3905136 54.7994113,29.9757486" id="Shape" fill="#C8102E"></path>
            <path d="M29.9757423,5.1520838 C16.266011,5.15208614 5.15207975,16.2660209 5.15208169,29.9757521 C5.15208363,43.6854833 16.2660181,54.7994149 29.9757493,54.7994134 C43.6854805,54.7994118 54.7994124,43.6854777 54.7994113,29.9757465 C54.7832282,16.2727225 43.6787662,5.16826334 29.9757423,5.1520838 M6.58841831,30.7043261 L11.1576359,30.7043261 L11.1576359,29.2471711 L6.5884162,29.2471711 C6.60923239,28.6955366 6.63004859,28.1438979 6.6924993,27.6026641 C8.30577676,19.4530162 18.1311613,13.1560183 29.9757423,13.1560183 C41.8203232,13.1560183 51.6353007,19.4425965 53.2589852,27.602662 C53.3110268,28.1438915 53.34225,28.6955261 53.3630683,29.247169 L48.7938486,29.247169 L48.7938486,30.7043239 L53.3526613,30.7043239 C53.3318451,31.2559585 53.3110268,31.8075972 53.2485803,32.348831 C51.6248958,40.4984789 41.8099183,46.7954746 29.9653331,46.7954746 C18.1207479,46.7954746 8.30577465,40.508888 6.68209014,32.3488246 C6.63004859,31.8076014 6.59882535,31.2663718 6.5884162,30.7043176 M29.9757401,6.57800493 C39.6236581,6.58993155 48.2781882,12.5138421 51.7810183,21.5034275 C47.6177218,15.8101268 39.4056169,11.9278521 29.9757465,11.9278521 C20.5458761,11.9278521 12.323362,15.8101268 8.17047254,21.5034359 C11.6708634,12.5119179 20.3269054,6.58697007 29.9757423,6.57801338 M29.9757423,53.3838908 C20.3278255,53.3719637 11.6732969,47.448053 8.17046831,38.4584683 C12.3337669,44.1517796 20.5458718,48.0340542 29.9757423,48.0340542 C39.4056127,48.0340542 47.6281268,44.1517796 51.7810204,38.4584683 C48.2757555,47.4461201 39.622739,53.3689947 29.9757423,53.3838908" id="Shape" fill="#FFFFFF"></path>
            <polygon id="Shape" fill="#FFFFFF" points="19.4841549 38.510493 21.2328169 38.510493 21.2328169 30.6314789 19.4841549 30.6314789"></polygon>
            <path d="M26.2079577,30.6314789 L26.1559162,30.6314789 C25.6667282,30.6314789 23.8661028,30.6210697 23.5226324,30.6314789 L23.4289585,30.6314789 C22.898138,30.6314789 22.5650852,30.8812754 22.4818077,31.339238 C22.4754831,31.3840742 22.4720064,31.4292662 22.4713986,31.4745423 C22.4713986,31.4953606 22.3464993,32.9733296 22.4922148,33.3896599 C22.7316042,34.0661958 23.2728317,34.3159923 23.782838,34.4721169 C23.8036563,34.4721169 23.8140613,34.4825261 23.8348796,34.4825261 L23.9285535,34.5137493 C23.9768408,34.530008 24.0175451,34.5633117 24.0430437,34.6074232 L24.0534528,37.4488711 L22.606707,37.4488711 L22.6171162,38.5001049 L24.521831,38.5001049 C25.1879577,38.4688817 25.6355134,38.1774486 25.8124521,37.6778514 C25.8644937,37.2927444 25.8644937,34.6490514 25.8332704,34.0974148 C25.8203207,33.8832702 25.7088429,33.6872223 25.5314324,33.5665944 C25.4418915,33.4981563 25.3480212,33.4355766 25.2504085,33.3792465 C25.1463254,33.3272049 25.0318331,33.2647542 24.9277521,33.2231197 C24.5114218,33.0253732 24.0534592,32.7963824 24.0534592,32.2655599 L24.0534592,31.8180085 L25.4273493,31.8180085 C25.7035596,31.8223677 25.958079,31.6688482 26.0830669,31.4224965 C26.1578082,31.2943116 26.2072734,31.1529824 26.2287824,31.0061662 C26.2392836,30.8953927 26.2392836,30.7838742 26.2287824,30.6731007 L26.2079577,30.6314789 Z" id="Shape" fill="#FFFFFF"></path>
            <path d="M34.2327148,30.6210592 C33.8516153,30.6057541 33.470161,30.6407492 33.0982077,30.7251401 C32.2343239,30.9333063 31.8179958,31.5057592 31.8179958,32.4841331 L31.8179958,37.1782521 C31.8179958,38.3752014 32.681869,38.6249979 33.9725028,38.6249979 C35.5337387,38.6249979 36.42885,38.0733634 36.42885,37.1053944 L36.42885,32.2135183 C36.42885,30.6210592 35.4192486,30.6210592 34.2327063,30.6210592 M33.6602514,32.4008683 C33.662668,32.2365612 33.6800876,32.0728183 33.712293,31.9116803 L33.7435162,31.880457 C33.8262211,31.8679215 33.9096758,31.8609663 33.9933148,31.8596387 L34.024538,31.8596387 C34.6178092,31.8700479 34.6386232,32.0469866 34.6386232,33.1190366 L34.6386232,36.4080507 C34.6401719,36.5053081 34.6366976,36.6025805 34.6282141,36.6994796 C34.628712,36.7906111 34.6182287,36.8814707 34.5969908,36.9700944 L34.5657676,37.0013176 C34.4616845,37.0117268 34.3576035,37.0221359 34.2535141,37.0221359 C34.0843017,37.0370325 33.9160309,36.9846826 33.7851338,36.8764204 C33.6498296,36.7307049 33.6394204,36.4913134 33.6498296,36.2102937 L33.6498296,32.8796599 C33.6498296,32.9004782 33.6498296,32.5257866 33.6602366,32.4008789" id="Shape" fill="#FFFFFF"></path>
            <path d="M40.4984789,33.9829225 C39.6554113,30.9437155 38.3127486,30.6106521 37.761112,30.6106521 C37.680857,30.6104847 37.6007459,30.6174516 37.5217246,30.6314704 L37.4800923,30.6418796 L37.4800923,38.520919 L39.2599014,38.520919 L39.2599014,35.346412 L40.4984831,38.520919 L42.309507,38.520919 L42.309507,30.6314789 L40.5088732,30.6314789 L40.5088732,33.9829225 L40.4984789,33.9829225 Z" id="Shape" fill="#FFFFFF"></path>
            <path d="M17.3401331,30.6210592 L12.9062197,30.6314683 L12.8541803,30.6314683 L12.8541803,30.6835077 C12.8499069,31.2648727 13.2774651,31.7592372 13.8533725,31.8388246 L13.8533725,38.520919 L15.6748141,38.520919 L15.6748141,35.1694627 L17.2048268,35.1694627 C18.016669,35.1694627 18.4746317,34.6386423 18.4746317,33.7123077 L18.4746317,33.4312838 C18.4746317,31.183107 18.3809577,30.7355493 17.3401246,30.6210592 M16.6323634,34.128638 L15.6435887,34.128638 L15.6435887,31.8388246 C15.6435887,31.8388246 16.1848183,31.8284155 16.2576761,31.8388246 C16.4554225,31.859643 16.6323718,31.9429077 16.6323718,32.1718901 C16.642781,32.2447458 16.6323718,34.128638 16.6323718,34.128638" id="Shape" fill="#FFFFFF"></path>
            <path d="M31.2767725,30.6314789 L27.1655176,30.6314789 L27.1655176,31.8700585 L28.3416444,31.8700585 L28.3416444,38.5209254 L30.1526789,38.5209254 L30.1526789,31.8596577 L30.2151296,31.8596577 C30.4987998,31.8781155 30.7763649,31.7716527 30.9749303,31.5682289 C31.183683,31.3220422 31.2915197,31.0059674 31.2767683,30.6835268 L31.2767725,30.6314789 Z" id="Shape" fill="#FFFFFF"></path>
            <path d="M47.0869014,30.6314789 L47.0348599,30.6314789 C46.5456718,30.6314789 44.7450465,30.6210697 44.4015761,30.6314789 L44.3079021,30.6314789 C43.7770796,30.6314789 43.4440183,30.8812754 43.3607514,31.339238 C43.3544267,31.3840742 43.35095,31.4292662 43.3503423,31.4745423 C43.3503423,31.4953606 43.2254408,32.9733296 43.3711606,33.3896599 C43.6105479,34.0661958 44.1517775,34.3159923 44.6617817,34.4721169 C44.6826,34.4721169 44.6930049,34.4825261 44.7138232,34.4825261 L44.8074972,34.5137493 C44.8557844,34.530008 44.8964888,34.5633117 44.9219873,34.6074232 L44.9323965,37.4488711 L43.4856507,37.4488711 L43.4960599,38.5001049 L45.4007746,38.5001049 C46.0669014,38.4688817 46.514457,38.1774486 46.6913958,37.6778514 C46.7434373,37.2927444 46.7434373,34.6490514 46.7122141,34.0974148 C46.6992645,33.8832696 46.5877858,33.6872214 46.4103739,33.5665944 C46.3208337,33.4981554 46.2269634,33.4355756 46.12935,33.3792465 C46.025269,33.3272049 45.9107768,33.2647542 45.8066958,33.2231197 C45.3903655,33.0253732 44.9324028,32.7963824 44.9324028,32.2655599 L44.9324028,31.8180085 L46.306293,31.8180085 C46.5825033,31.8223677 46.8370227,31.6688482 46.9620106,31.4224965 C47.0367519,31.2943116 47.086217,31.1529824 47.1077261,31.0061662 C47.1182273,30.8953927 47.1182273,30.7838742 47.1077261,30.6731007 L47.0869014,30.6314789 Z" id="Shape" fill="#FFFFFF"></path>
            <path d="M30.9645254,25.7604106 L31.2663655,25.7604106 C31.5577944,25.7708197 32.0469824,25.8540824 32.0469824,26.3849049 C32.0469824,26.6347014 32.0678007,27.4257296 32.0782056,27.7171585 L32.0782056,27.8316507 C32.0830077,27.9988137 32.0969057,28.1655915 32.119838,28.3312437 C32.2447394,28.7892063 32.598619,29.0702303 33.1606627,29.1222718 L33.6706627,29.1222718 L33.6706627,26.3120451 C33.64693,26.0120515 33.5346294,25.7258661 33.3480063,25.4897915 L33.3063739,25.43775 C33.5857599,25.1325318 33.7285949,24.7265786 33.7018859,24.3136606 L33.7018859,24.0430458 C33.7018859,21.8677225 33.6186211,21.4305761 32.5986106,21.3160859 L29.2055324,21.3160859 L29.2055324,29.0181887 L30.9645254,29.0181887 L30.9645254,25.7604106 Z M30.9749345,22.5442606 L31.3288077,22.5442606 C31.7867704,22.5546697 31.9637113,22.5546697 31.9428951,23.3665141 C31.9428951,24.0118268 31.9428951,24.0534592 31.9324859,24.3761155 L31.9324859,24.4385641 C31.9301159,24.5331273 31.8972597,24.6243945 31.838812,24.6987697 C31.8005484,24.7382388 31.7480662,24.7607315 31.6930965,24.7612204 L30.9749282,24.7612204 L30.9749345,22.5442606 Z" id="Shape" fill="#FFFFFF"></path>
            <polygon id="Shape" fill="#FFFFFF" points="41.8620423 21.3264085 40.1446479 21.3264085 40.1446479 29.0285915 41.8620423 29.0285915"></polygon>
            <path d="M25.4273408,29.039007 L27.1863338,29.039007 L27.1863338,22.5338535 L27.2487845,22.5338535 C27.5268732,22.5489856 27.7986105,22.4470847 27.9981803,22.2528317 C28.2007745,22.0119213 28.3048675,21.7033617 28.2896092,21.3889585 L28.2896092,21.3369169 L24.2824352,21.3369169 L24.2824352,22.5442732 L25.4273408,22.5442732 L25.4273408,29.039007 Z" id="Shape" fill="#FFFFFF"></path>
            <path d="M43.9019768,29.039007 L45.6609697,29.039007 L45.6609697,22.5338535 L45.7234204,22.5338535 C46.0037185,22.5503457 46.2773023,22.443952 46.4728141,22.2424225 C46.6754085,22.0015122 46.7795022,21.6929527 46.7642451,21.3785493 L46.7642451,21.3265077 L42.757069,21.3265077 L42.757069,22.5338641 L43.9019768,22.5338641 L43.9019768,29.039007 Z" id="Shape" fill="#FFFFFF"></path>
            <polygon id="Shape" fill="#FFFFFF" points="23.3560563 27.7899296 21.5138028 27.7899296 21.5138028 25.9166197 22.7837324 25.9166197 22.7837324 24.2511972 21.5138028 24.2511972 21.5138028 22.5130986 23.3560563 22.5130986 23.3560563 21.3264085 19.8069718 21.3264085 19.7964085 29.0285915 23.3560563 29.0285915"></polygon>
            <path d="M17.5691155,21.3264972 L13.1768366,21.3264972 L13.1664275,21.3785387 C13.1411686,21.6647934 13.2227329,21.9502695 13.3954077,22.1799718 C13.6059172,22.4105914 13.9054633,22.5395071 14.2176613,22.5338451 L14.2176613,29.0181824 L17.4858465,29.0181824 C18.2352401,29.0181824 18.7348373,28.3832789 18.7348373,27.4465373 L18.7348373,23.8765162 C18.7348373,21.89895 18.7348373,21.3681359 17.5691155,21.3264972 M16.9550282,27.7900183 L15.9766479,27.7900183 L15.9766479,22.5338535 C16.223191,22.5084817 16.4721105,22.5189996 16.7156345,22.5650789 C16.9446148,22.6587528 16.9342077,23.0750789 16.9342077,23.0854923 C17.0070634,23.6995754 16.965431,27.3112373 16.9550218,27.7900183" id="Shape" fill="#FFFFFF"></path>
            <path d="M37.0325345,21.3264972 C36.651448,21.311695 36.2700591,21.3466848 35.8980275,21.4305803 C35.0445507,21.6283268 34.6282204,22.200788 34.6282204,23.1479387 L34.6282204,27.7379768 C34.6282204,28.9141035 35.4816993,29.1534993 36.7619113,29.1534993 C38.3127401,29.1534993 39.2078493,28.6122676 39.2078493,27.6755261 L39.2078493,22.8877331 C39.2078493,21.3264972 38.1982479,21.3264972 37.0325261,21.3264972 M36.4496641,23.075081 C36.4519797,22.9142098 36.4694035,22.7539118 36.5017056,22.5963 L36.5329289,22.5650768 C36.6155801,22.5520959 36.6990655,22.5451388 36.7827254,22.5442606 L36.8139486,22.5442606 C37.4072197,22.5546676 37.4176268,22.7316085 37.4176268,23.7828401 L37.4176268,27.0093951 C37.4193571,27.1031901 37.4158821,27.197009 37.4072176,27.290419 C37.4077313,27.3781193 37.3972416,27.4655376 37.3759944,27.5506268 L37.3447711,27.58185 C37.240688,27.5922592 37.1366049,27.6026683 37.0325176,27.6026683 C36.8659481,27.6228845 36.698816,27.5697061 36.5745549,27.4569528 C36.4392486,27.3112373 36.4288394,27.0822549 36.4392486,26.8116401 L36.4392486,23.5538599 C36.4496577,23.5538599 36.4496577,23.1999866 36.4496577,23.075081" id="Shape" fill="#FFFFFF"></path>
        </g>
    </g>
</svg>