<?xml version="1.0" encoding="UTF-8"?>
<svg width="60px" height="60px" viewBox="0 0 60 60" version="1.1" xmlns="http://www.w3.org/2000/svg" xmlns:xlink="http://www.w3.org/1999/xlink">
    <!-- Generator: Sketch 43.2 (39069) - http://www.bohemiancoding.com/sketch -->
    <title>Slice</title>
    <desc>Created with Sketch.</desc>
    <defs></defs>
    <g id="Page-1" stroke="none" stroke-width="1" fill="none" fill-rule="evenodd">
        <g id="GSW" transform="translate(6.000000, 0.000000)" fill-rule="nonzero">
            <g id="Group" transform="translate(24.315789, 29.919079) scale(-1, 1) rotate(-180.000000) translate(-24.315789, -29.919079) translate(0.138158, 0.067105)">
                <g transform="translate(0.282237, 0.253026)" id="Shape">
                    <path d="M21.6312597,0.238297322 L21.6312597,0.360186978 C21.7130282,0.357367373 21.7560892,0.397781715 21.7560892,0.477670531 L21.7560892,3.46615135 C21.755187,3.54416043 21.7139681,3.5836349 21.6312597,3.5836349 L21.6297559,3.70111846 L22.6033844,3.70111846 L22.6048882,3.5851011 C22.5033824,3.58416123 22.4536295,3.5464492 22.4536295,3.46467764 L22.4536295,1.27952115 L24.4611133,3.37369837 L24.5653785,3.52495704 L24.4816701,3.58516727 L24.4816701,3.70118462 L25.546353,3.70118462 L25.546353,3.58516727 C25.4617649,3.58516727 25.4209971,3.54610408 25.4200573,3.46621752 L25.4215611,0.477736697 C25.4215611,0.39878775 25.4618025,0.360253145 25.5463906,0.360253145 L25.5463906,0.239829684 L24.5521602,0.239829684 L24.5521602,0.360253145 C24.6668242,0.360253145 24.7239832,0.39878775 24.7239832,0.477736697 L24.7239832,2.56890634 L22.8352236,0.608416003 C22.7465,0.522910533 22.703642,0.460585978 22.7043939,0.424870978 L22.7557935,0.357317748 L22.7557935,0.239834195 L21.6308837,0.238365669 L21.6312597,0.238297322 Z M19.8998717,0.269137037 L19.785328,0.292633747 L19.7515529,0.417463312 C19.7205373,0.453178312 19.6582127,0.476909613 19.5679853,0.493825741 L16.6235655,1.0709651 L16.6470623,1.18550875 L16.7322369,1.200194 L16.7851026,1.28096254 L17.3578359,4.21214898 L17.3402115,4.30760201 L17.2623753,4.35019008 L17.285872,4.46767364 L20.2964586,3.88187245 L20.4581159,3.86420292 L20.5415762,3.96112215 L20.6558642,3.93909164 L20.4814247,3.05358521 L20.3678886,3.07411193 L20.3302938,3.20922742 L20.1799149,3.28561992 L18.0227289,3.70562832 L17.8497931,2.81568571 L19.1152319,2.56748526 C19.2007599,2.55244736 19.2706034,2.55403311 19.3222962,2.57189136 C19.3768086,2.58974886 19.4131101,2.64902072 19.4309676,2.74958664 L19.5484511,2.72315303 L19.3516652,1.71719306 L19.2356479,1.74068978 C19.2544452,1.83843609 19.2427157,1.90698633 19.2004066,1.93894186 C19.1581125,1.97277712 19.0930285,1.99492268 19.0065606,2.01090044 L17.7411217,2.2605295 L17.5854795,1.46013755 L19.6780026,1.0519339 C19.7672901,1.0340764 19.8343741,1.03301923 19.8747885,1.04899399 L19.9511509,1.14592074 L20.0671683,1.12095558 L19.8997514,0.269209219 L19.8998717,0.269137037 Z M30.4233904,1.12231199 C30.21192,1.12983094 30.0288186,1.16495871 29.8756201,1.22511104 C29.7214816,1.28714236 29.5959528,1.37267039 29.4982065,1.48357486 C29.4023399,1.59353946 29.3366093,1.71366969 29.2999544,1.84337153 C29.245442,2.03698442 29.2375096,2.20716076 29.2779239,2.35002076 C29.3183382,2.49006115 29.3897682,2.61083801 29.4893943,2.71422353 C29.5909001,2.81854893 29.7161958,2.90618978 29.8609356,2.97855965 C30.0066152,3.05186938 30.1592272,3.1156075 30.3161853,3.17387934 C30.4722034,3.23121131 30.6265148,3.28413719 30.7787735,3.33395021 C30.931972,3.38282337 31.0674334,3.43656881 31.1811574,3.49108117 C31.2958214,3.54653341 31.381996,3.60591806 31.4440274,3.67170885 C31.5041789,3.73937937 31.5221567,3.82255397 31.4939607,3.91842055 C31.4676444,4.01710673 31.4047935,4.08389754 31.3089269,4.11961254 C31.2121205,4.15720728 31.1037424,4.17606329 30.9843791,4.17982277 C30.8659557,4.18264237 30.7479458,4.1744768 30.6304622,4.15192071 C30.5148584,4.13218347 30.4208716,4.11050785 30.3485017,4.09171048 C30.2507554,4.06257456 30.1424976,4.021279 30.0268862,3.96394853 C29.9094027,3.90567668 29.8033179,3.84446493 29.7008722,3.77303493 C29.5993664,3.70630427 29.5118383,3.63393441 29.4394685,3.56156454 L29.3078869,3.3647185 L29.3093907,3.25310724 L29.2550513,3.20611382 L28.6925964,3.87724002 L28.7674926,3.95213551 L28.8644194,3.92423345 L29.015678,4.01675409 C29.0701904,4.06656712 29.1450265,4.12489911 29.2418329,4.19444938 C29.3395793,4.26681924 29.4656419,4.33848233 29.6207202,4.41179207 C29.7757985,4.48416194 29.9724641,4.55265203 30.2140103,4.62032255 C30.3869461,4.66825584 30.5780928,4.70814386 30.7867435,4.73633991 C30.9953943,4.76547583 31.1968194,4.76336075 31.3932519,4.73046761 C31.5887445,4.69851209 31.7639135,4.63096187 31.9189918,4.52193713 C32.07407,4.415732 32.1824481,4.25190165 32.2435396,4.03291231 C32.2961722,3.84211902 32.3019844,3.67617585 32.2596903,3.53801519 C32.2202158,3.39891467 32.1497257,3.27814534 32.0482199,3.17381242 C31.9485938,3.07136676 31.8238244,2.98172587 31.6781448,2.9065364 C31.5324652,2.83228679 31.3803795,2.76655616 31.2243613,2.70828431 C31.0674033,2.65283208 30.9130919,2.59844001 30.7617731,2.54674725 C30.6095144,2.49505449 30.4775193,2.43813605 30.3637952,2.38080408 C30.251011,2.31971263 30.1640168,2.25920766 30.1038652,2.18401819 C30.0437136,2.11258819 30.0286757,2.02852636 30.0568718,1.92702057 L30.1861075,1.76841589 C30.2518983,1.73458063 30.329787,1.71278771 30.4181347,1.70526877 C30.5064823,1.69774982 30.602582,1.69998295 30.7059675,1.71408022 C30.8112328,1.72723838 30.9085129,1.74691697 30.9996726,1.77135355 C31.1246751,1.80612868 31.2429256,1.85206193 31.3594693,1.9093939 C31.476013,1.96672588 31.5793383,2.02928352 31.6752049,2.09883378 C31.7710715,2.1636847 31.8497272,2.23394175 31.9145781,2.30443188 L32.0408739,2.49975157 L32.0511523,2.65688254 L32.1084241,2.70387596 L32.766332,2.03128356 L32.7046541,1.96079343 L32.5680799,1.96373333 L32.3742039,1.85505447 C32.302022,1.79776009 32.2102908,1.7341498 32.1012661,1.6627198 C31.9899857,1.5884326 31.8599079,1.51587475 31.7035138,1.43504607 C31.5471197,1.35519485 31.3583941,1.28308814 31.1335775,1.21917709 C30.8711663,1.14774709 30.6358232,1.11759611 30.4237889,1.12225786 L30.4233904,1.12231199 Z M14.1651705,1.96383258 C13.9452413,1.97605087 13.723079,2.02821357 13.4984504,2.11655744 L11.4689361,2.92131038 L11.5144634,3.03292163 C11.6056306,2.99626677 11.668895,3.01341974 11.6980309,3.08578886 L12.8018124,5.86576927 C12.8300085,5.939079 12.7997823,5.9926515 12.7048857,6.03024624 L12.7489392,6.14038378 L14.7799572,5.33269846 C15.0027061,5.24341096 15.1991386,5.12991996 15.367375,4.9861201 C15.5356115,4.84419996 15.6633734,4.67866282 15.7536008,4.48974927 C15.8438281,4.29989585 15.8882952,4.08789912 15.8901749,3.85387189 C15.8920547,3.62078452 15.8372491,3.36666666 15.7301041,3.09317998 C15.6220192,2.8187384 15.4864451,2.5984558 15.3247877,2.42645988 C15.1621905,2.26010317 14.9842621,2.13744658 14.7887695,2.06225711 C14.5932768,1.98612777 14.3850922,1.95446548 14.1661104,1.96386416 L14.1651705,1.96383258 Z M34.1918868,2.06663163 L33.7968489,2.90078365 L33.904054,2.95218243 L34.0053869,2.86113549 L34.1258103,2.8816953 L35.1068074,3.3486896 L33.9848301,5.71452639 L33.9143399,5.77914197 L33.8262254,5.77179596 L33.7762921,5.8760612 L34.6927014,6.3122203 L34.7426347,6.20501515 C34.6542871,6.16554068 34.6294971,6.10797562 34.6633324,6.03466588 L35.7853097,3.66740049 L36.7663067,4.13439479 L36.8558875,4.21223093 L36.8543837,4.3473389 L36.9588971,4.39869331 L37.3536418,3.56604508 L37.2468727,3.51611927 L37.1423594,3.60574512 L37.0250638,3.58664699 L34.3829057,2.33399036 L34.2934302,2.25609407 L34.2964378,2.11804619 L34.1904206,2.06669178 L34.1918868,2.06663163 Z M14.2080285,2.57912309 C14.2787517,2.58417582 14.3448358,2.59821444 14.4092205,2.62171115 C14.5351629,2.66776471 14.649887,2.75387921 14.7513928,2.87136276 C14.8538384,2.99260579 14.9458252,3.15678953 15.0304134,3.36919979 C15.1150015,3.58348979 15.1629348,3.76547087 15.1713936,3.92430863 C15.1789126,4.08032679 15.1526564,4.2201341 15.0906251,4.34137713 C15.0304735,4.46168028 14.9359604,4.5654192 14.8071984,4.65564657 C14.6765567,4.74493407 14.5167189,4.82864251 14.3240459,4.90383198 L13.3759066,5.28263655 L12.5149871,3.11507441 L13.4638783,2.74063083 C13.6556115,2.66450148 13.8310736,2.61286887 13.985212,2.58937216 C14.0636948,2.57762381 14.1377038,2.57404028 14.2084345,2.57909226 L14.2080285,2.57912309 Z M38.8543861,4.69969181 L38.7874675,4.79811483 L38.847619,4.8862369 L38.8340849,4.98902091 L38.7355867,5.07270679 L38.5769369,5.15940025 L36.1347828,6.59709818 L35.9663584,6.68078406 L35.804701,6.67785167 L35.7400381,6.77334231 L36.5137378,7.29906711 L36.5799045,7.19921549 L36.5167454,7.06703239 C36.5383623,7.03601673 36.5943409,6.99536705 36.6826885,6.94367654 L37.1394044,6.68961883 L38.4698822,7.58542622 L38.4052643,8.13025666 C38.3958656,8.20732587 38.3768352,8.26448491 38.3523986,8.30207965 L38.2863146,8.32851627 L38.2216967,8.30795946 L38.1556127,8.40488621 L39.1145793,9.05251571 L39.1821295,8.95706267 L39.1131056,8.82930072 L39.0969549,8.69419275 L39.4611576,5.70714053 L39.4802482,5.55294196 L39.5213694,5.45308282 L39.6124163,5.39874639 L39.7108092,5.4222431 L39.7747203,5.3236697 L38.8536492,4.69952188 L38.8543861,4.69969181 Z M8.37783673,4.71292516 L7.41608817,5.30917769 L7.47924733,5.4105331 C7.5901518,5.34004296 7.66886766,5.33751735 7.70834213,5.40612699 L9.28559172,7.94527552 C9.32600607,8.01106631 9.29115574,8.08090981 9.17838657,8.15233981 L9.2400645,8.25219895 L11.9040275,6.60006065 L12.0479477,6.52516516 L12.159559,6.58831229 L12.2608918,6.52516516 L11.7865515,5.76003708 L11.6852187,5.82318421 L11.6969708,5.96416447 L11.5856904,6.08491876 L9.72625467,7.23922756 L8.34727972,5.01001005 C8.30592551,4.94421926 8.33694117,4.88048114 8.44126657,4.81469035 L8.37812245,4.7133575 L8.37783673,4.71292516 Z M23.5021994,4.74963868 C10.7605911,4.74963868 0.434068832,15.0821761 0.434068832,27.8222806 C0.434068832,40.5593774 10.7598393,50.8858997 23.5021994,50.8858997 C36.2438076,50.8858997 46.5688261,40.5593774 46.5688261,27.8222806 C46.5688261,15.0821761 36.2445595,4.74963868 23.5021994,4.74963868 L23.5021994,4.74963868 Z M38.7739334,5.72770335 L38.5461093,7.04938392 L37.5754131,6.3959122 L38.7739334,5.72770335 L38.7739334,5.72770335 Z M41.5215823,6.37973895 L40.8959833,7.05820364 L40.9855641,7.13750598 L41.1103936,7.08316956 L41.2175988,7.13750598 L42.0164869,7.87325002 L40.2410379,9.79998028 L40.1529233,9.83962769 L40.073621,9.80585258 L39.9943187,9.89396712 L40.7388674,10.5827177 L40.8196359,10.493137 L40.7931993,10.3081032 L42.5686483,8.38287675 L43.3660327,9.11862079 L43.4291768,9.22288603 L43.3836496,9.35064799 L43.4732303,9.43288271 L44.0958894,8.7529443 L44.0092411,8.67217577 L43.8829453,8.7279814 L43.7772139,8.67217577 L41.6275468,6.69168503 L41.5658915,6.59040481 L41.6095013,6.46115411 L41.5215297,6.37889682 L41.5215823,6.37973895 Z M6.29982524,6.94072761 C6.17576261,6.93015446 6.05088041,6.93309137 5.92681778,6.94953906 C5.67587291,6.98055472 5.43350716,7.05503741 5.20135966,7.16688176 C4.96639256,7.28248557 4.75979444,7.42093947 4.58309918,7.58541644 C4.40358431,7.74613394 4.24650598,7.93886712 4.11022506,8.1625558 C3.97488401,8.38530462 3.87931067,8.61680549 3.82385843,8.86305102 C3.77028593,9.10835667 3.7682889,9.35918124 3.82091852,9.61200585 C3.87167142,9.86201085 3.99932059,10.1010908 4.2042119,10.3257194 C4.40722348,10.5484682 4.63443855,10.7008472 4.87974421,10.7750968 C5.12598974,10.8502862 5.37482178,10.8696701 5.62576665,10.8367747 C5.87577165,10.805759 6.11455838,10.730923 6.34388627,10.6106198 C6.5722743,10.4903166 6.77675207,10.3492161 6.95626694,10.1847391 C7.13390207,10.0249615 7.2925669,9.83540129 7.43354716,9.61641195 C7.57358756,9.40024221 7.67127372,9.16709469 7.72578609,8.92178903 C7.78123833,8.67554351 7.78282407,8.42765133 7.73019219,8.17576659 C7.67846184,7.92237807 7.55079011,7.68402744 7.34687626,7.46033875 C7.14386468,7.23665007 6.91761955,7.08672226 6.67137403,7.01243506 C6.54821367,6.97529146 6.42385028,6.95108045 6.29978765,6.94047873 L6.29982524,6.94072761 Z M6.14561163,7.61622984 C6.22690649,7.62421872 6.30756224,7.64078371 6.38792475,7.66616016 C6.54582264,7.71785293 6.68680291,7.81236609 6.81086554,7.94958688 C6.93586804,8.08492794 7.01598994,8.23583321 7.05170494,8.39749058 C7.08741994,8.56102768 7.08953502,8.7243317 7.05757724,8.8850492 C7.02468184,9.04952617 6.96341746,9.2066045 6.87694957,9.35792332 C6.78860193,9.510182 6.6828705,9.64111695 6.55974021,9.7529613 C6.43661745,9.86668537 6.29710338,9.96108576 6.13826562,10.0334556 C5.97942786,10.1067654 5.81665768,10.1502926 5.65218071,10.1700298 C5.48676387,10.1850677 5.32533959,10.1699125 5.16462209,10.1200965 C5.00578432,10.0684037 4.86280402,9.97494318 4.73874139,9.83960213 C4.61467876,9.7005016 4.53508318,9.55041589 4.49936818,9.38875852 C4.46365318,9.22616129 4.4615381,9.06180462 4.49349588,8.89826751 C4.52545141,8.73473041 4.58577592,8.57818592 4.67412356,8.42686711 C4.76153132,8.27648816 4.86673643,8.1441998 4.98985919,8.03329532 C5.11298196,7.91863138 5.25354868,7.82758444 5.41426618,7.75427471 C5.57216407,7.67908523 5.73346805,7.63461818 5.89888489,7.61770055 C5.98205949,7.60924173 6.06430173,7.60824321 6.14559659,7.61623435 L6.14561163,7.61622984 Z M44.9486433,9.93650181 L44.8575964,10.0084581 L44.8825593,10.0892267 L44.8355659,10.1729351 L42.4667967,11.9968814 L42.3757498,12.0203781 L42.3023197,11.9748508 L42.2068667,12.0482809 L44.079235,14.4772768 L44.1658833,14.6123848 L44.1174237,14.7328083 L44.1879138,14.8267951 L44.9030935,14.2760924 L44.8326034,14.1806393 L44.694563,14.2070759 L44.5594551,14.108683 L43.2171726,12.3654902 L43.9367584,11.8147875 L44.723917,12.8339808 L44.8164377,13.0190146 C44.8220769,13.0763466 44.7861889,13.1357312 44.7063001,13.1996423 L44.7767903,13.2906892 L45.5918441,12.6650902 L45.5184141,12.5696372 C45.4394652,12.6326084 45.3744939,12.6522854 45.3275005,12.626909 L45.1733019,12.4888686 L44.3861433,11.4667429 L45.0323066,10.9703721 L46.3334605,12.6592029 L46.4245074,12.8339583 L46.3716417,12.9455695 L46.443598,13.0395563 L47.1323486,12.5094104 L47.0589186,12.4154236 L46.934089,12.4403865 L46.7813642,12.3140907 L44.9486208,9.93652437 L44.9486433,9.93650181 Z M2.03500311,10.5165736 L1.95129466,10.5518149 L1.94982847,10.6340571 L1.91605185,10.7221717 L1.7824176,10.8323092 C1.70628826,10.8887013 1.61494809,10.9599508 1.50780309,11.0511256 C1.40065809,11.1394732 1.28382116,11.2493175 1.15975853,11.3771396 C1.0356959,11.503082 0.916625851,11.6411224 0.802901772,11.7971405 C0.621507167,12.0471455 0.488045851,12.2966242 0.403457693,12.5475691 C0.319809404,12.7994538 0.288147116,13.0448798 0.305064748,13.278907 C0.323862116,13.5129342 0.391179252,13.7355101 0.507722936,13.9441534 C0.625206489,14.1518643 0.794149717,14.3390786 1.01877827,14.5007359 C1.24246695,14.6642731 1.46815568,14.7700045 1.70312278,14.8179453 C1.93527028,14.8686982 2.1654779,14.8621793 2.39480579,14.8076669 C2.62225395,14.7503349 2.84324333,14.6468892 3.05565359,14.4889914 C3.26524425,14.3301536 3.46355649,14.127142 3.64307136,13.8780769 C3.7370582,13.7511946 3.8274585,13.6163799 3.91768587,13.480099 C4.00791324,13.3428782 4.08644864,13.1951459 4.15411917,13.0410075 C4.21990996,12.8859292 4.27430203,12.7251516 4.31565624,12.557855 C4.35795032,12.3896185 4.38144703,12.2166827 4.38614637,12.0409274 L4.30097173,11.9763095 L4.20845108,12.0247691 L4.11740415,12.0071447 L3.51676808,11.5680532 L3.4448095,11.4755326 C3.44386963,11.4463967 3.46460538,11.3934708 3.50501972,11.3154617 L3.40956669,11.2435054 L2.43736679,12.5725545 L2.33310155,12.6665414 L2.18330908,12.6298264 L2.11281895,12.7252794 L2.79128364,13.2231164 L2.86324223,13.1291296 L2.76044318,12.9793371 L2.8103735,12.8457028 L3.30674433,12.1642982 L3.76493394,12.4976583 C3.71982026,12.6414582 3.65567612,12.8029952 3.57108796,12.9881493 C3.48743967,13.176123 3.37154262,13.3690893 3.22304341,13.571161 C3.12717683,13.7027425 3.01245273,13.8182261 2.88087115,13.9206717 C2.75022944,14.0240572 2.60872285,14.0967805 2.45646417,14.1409543 C2.30608522,14.1823085 2.14384137,14.1905343 1.97184545,14.1585787 C1.80172927,14.1303827 1.62879348,14.0504939 1.45491782,13.9236116 C1.27916242,13.7967294 1.15016736,13.6539897 1.07309815,13.5036107 C0.994149206,13.3504122 0.952028063,13.1930406 0.948268589,13.0351427 C0.944509115,12.8772448 0.970766783,12.7193469 1.02903712,12.5652085 C1.0863691,12.4082505 1.16279168,12.2635709 1.25959812,12.1319893 C1.33666733,12.0257842 1.42630822,11.9184663 1.52687415,11.8103814 C1.62837994,11.7032364 1.73135192,11.6097759 1.83379758,11.5298871 C1.93812297,11.451878 2.03580914,11.3953656 2.1260365,11.3624702 C2.21720374,11.327695 2.28781418,11.3269883 2.34044681,11.368335 L2.39772013,11.4256068 L2.50639148,11.3404321 L2.03499107,10.5165811 L2.03500311,10.5165736 Z M44.3155479,41.5186973 L44.2773667,41.537788 L44.1481311,41.5891875 C44.1218147,41.7320475 44.1073032,41.7921991 44.0791071,41.8241546 C44.0734679,41.8382526 43.9790149,41.9000508 43.8323954,41.9827593 C43.3699802,42.2299447 43.0165896,42.4494002 42.7515467,42.6524118 C42.4912032,42.8516639 42.2440779,43.0977364 42.0128703,43.3881558 C41.4997022,44.0178676 41.2404489,44.6203609 41.2404489,45.1973649 L41.2492611,45.3500898 C41.2840362,45.8209638 41.500439,46.2197312 41.8895445,46.5307901 C42.1226319,46.7197036 42.3755768,46.836127 42.6443717,46.8803008 C42.7242605,46.8915792 42.8020966,46.8993914 42.8866848,46.8993914 C43.0972153,46.8993914 43.2971742,46.8578643 43.491727,46.7657497 C43.6787608,46.6830412 43.8469371,46.5816557 43.9954363,46.4632323 C44.1392362,46.3457488 44.366564,46.1364514 44.673901,45.824415 L45.1394291,45.3618268 C45.4458262,45.0554297 45.6713946,44.8644034 45.797337,44.7920335 C45.8819251,44.7412806 45.9619343,44.7215434 46.035244,44.7215434 L46.2569928,44.8081917 C46.3425208,44.8805616 46.409665,44.9781876 46.4435003,45.110709 L46.4655308,45.311901 C46.4655308,45.3852108 46.4583878,45.458701 46.4405679,45.5395296 C46.3738372,45.8149111 46.2239846,46.0996912 45.9955966,46.3854112 C45.7803667,46.6495142 45.5061582,46.8893536 45.1791141,47.1064632 C44.8492203,47.3301519 44.5699064,47.4580342 44.3406011,47.4956289 L44.2304635,47.507381 C44.1308375,47.507381 44.0539487,47.4800647 43.9881579,47.4236726 L43.9455706,47.3884313 L43.7737476,47.4442369 L43.7326265,47.4618613 L44.4742429,48.9171536 L44.6431259,48.8451973 C44.6703821,48.7098562 44.6817808,48.642712 44.6930593,48.6351931 C44.694939,48.6342908 44.7904522,48.5742219 44.9427109,48.4971527 C45.6974628,48.1484615 46.3216106,47.6749558 46.801921,47.0799815 C47.0754227,46.7463282 47.2860735,46.3985769 47.4392721,46.0461262 C47.5911548,45.69048 47.6701038,45.369421 47.6701038,45.0679112 C47.6701038,44.9626459 47.6612916,44.8606138 47.6377948,44.7609878 C47.557906,44.3530849 47.3579471,44.012439 47.0327527,43.7520954 C46.8288012,43.5866786 46.6013531,43.473774 46.3513481,43.4202015 C46.2319848,43.3901258 46.118381,43.3805541 46.0018373,43.3805541 C45.8711956,43.3805541 45.74596,43.3979981 45.6200176,43.4290138 C45.3972688,43.4966843 45.178693,43.6014834 44.9606436,43.7462231 C44.7482333,43.8919027 44.4985817,44.1044333 44.217561,44.3835742 L43.7476268,44.8564483 C43.43935,45.1741238 43.2225336,45.3702631 43.1088095,45.4482722 C42.9979051,45.5234617 42.8945195,45.5584097 42.8033523,45.5584097 C42.7253432,45.5584097 42.649447,45.5338002 42.5742575,45.4717689 C42.4868497,45.3956395 42.4260515,45.2975398 42.4053744,45.1574994 L42.3936223,45.0356098 C42.3936223,44.9322243 42.4162393,44.8198536 42.453834,44.7051896 C42.5431215,44.4890199 42.6784024,44.2620379 42.8635565,44.0355372 C43.2827378,43.5186095 43.7814696,43.1777005 44.3585488,43.0075467 C44.4421971,42.9821702 44.5182663,42.9678993 44.5802976,42.9678993 L44.7109995,43.0031406 L44.7565267,43.0516002 L44.9312821,43.0031406 L44.9694633,42.9869899 L44.3159615,41.5198929 L44.3155479,41.5186973 Z M3.47638532,42.8984242 L3.35593178,43.0337652 L3.33390352,43.0602019 L3.35446333,43.0910446 C3.4296528,43.1869112 3.46313467,43.2816048 3.46313467,43.3671328 C3.46313467,43.4564203 3.42524595,43.6113257 3.35005723,43.8209163 L1.74791992,48.0856633 C1.67179058,48.2886749 1.60835322,48.4137375 1.59519506,48.4278355 L1.43659039,48.5056717 L1.25155661,48.4425276 L1.21777999,48.427843 L1.10764245,48.5541388 L1.07827119,48.5864477 L2.52040529,49.8788044 L2.64376114,49.7481025 L2.66872631,49.7231396 L2.6481665,49.6937706 C2.57767636,49.5875655 2.54830736,49.5119023 2.54830736,49.4470589 L2.59089543,49.3354477 C2.60875293,49.31853 2.70914591,49.2574987 2.88020196,49.184189 L5.97139161,47.6337821 L4.78775891,50.8015146 C4.72196812,51.005466 4.66668882,51.1309949 4.63943264,51.1554314 L4.49258008,51.2303277 C4.4352481,51.2303277 4.3669911,51.2096506 4.28992189,51.1598375 L4.25614527,51.137807 L4.14453402,51.2685089 L4.11663196,51.3052239 L5.58079658,52.6136711 L5.69828013,52.4785632 L5.72765139,52.4477204 L5.70268623,52.4227575 C5.62839903,52.3310264 5.60133082,52.2580926 5.60133082,52.2001967 L5.64832424,52.085653 C5.68121964,52.0480583 5.79981599,51.9700492 5.99342889,51.8741827 L10.049525,49.8064721 C10.2628752,49.6993271 10.4086751,49.6445817 10.4754057,49.6361229 L10.5091809,49.6316867 C10.5712122,49.6316867 10.6611463,49.6565894 10.7720508,49.7139289 L10.8014198,49.7242073 L10.9159634,49.6023177 L10.9438662,49.5670764 L9.40188052,48.1881014 L9.27999086,48.3217432 L9.25796034,48.3511122 L9.27999086,48.3834211 C9.35142086,48.4755282 9.38278991,48.5515974 9.38278991,48.6051699 L9.3475486,48.707969 C9.30431465,48.7530826 9.2133805,48.8157004 9.07146037,48.8871304 L6.33118,50.3101664 L7.44729255,47.3657466 C7.49240624,47.2426239 7.5295348,47.1679081 7.55302399,47.1425241 L7.68959815,47.0808462 C7.74599026,47.0808462 7.81530743,47.097824 7.89519625,47.1410579 L7.92163287,47.1572086 L8.03471032,47.0294467 L8.06848543,46.9956715 L6.43837764,45.5418079 L6.31942789,45.6739759 L6.29299428,45.7062849 L6.31502254,45.7341877 C6.37987346,45.8187758 6.40754319,45.8871531 6.40754319,45.9397858 L6.36250469,46.05257 C6.34840666,46.074187 6.26922463,46.1259399 6.145162,46.1832718 L3.28886427,47.5945783 L4.42700734,44.6706852 C4.47400076,44.5560213 4.51958813,44.4761324 4.556243,44.4357181 L4.67813266,44.3799125 L4.86316643,44.4357181 L4.89694305,44.4533425 L5.00708059,44.3241068 L5.03645185,44.2932641 L3.475368,42.8981234 L3.47638532,42.8984242 Z M40.279377,46.1791665 L40.1736456,46.1836027 C39.9414981,46.1967608 39.7021249,46.2659577 39.4643381,46.3862609 C39.222792,46.5046843 38.9341922,46.7005905 38.5817641,46.9722124 L35.6989997,49.197069 L35.8091372,49.3380492 L35.8252879,49.3630121 L35.8575968,49.3483276 L36.0323522,49.3072065 L36.0675935,49.3101389 L36.2129799,49.4188102 L39.1823626,53.2752032 L39.2484466,53.4294017 L39.2484466,53.4382139 C39.2437097,53.4786283 39.2164911,53.5444191 39.1544598,53.6261876 L39.1368354,53.6555566 L39.2411006,53.7891909 L39.2690034,53.8244322 L40.7610633,52.673131 L40.6494521,52.5292108 L40.6288953,52.4998418 L40.5980525,52.5159925 L40.4232972,52.5585798 L40.3939282,52.5556474 L40.250008,52.4528484 L39.1133687,50.978458 L40.2926404,50.0664848 L42.2105735,50.7067683 C42.428623,50.7697395 42.5614978,50.8392296 42.5718364,50.858027 L42.5865209,50.8976744 L42.492534,51.0489331 L42.4675711,51.0724298 L42.5747763,51.2148762 L42.5997392,51.2515913 L44.3209014,49.9211135 L44.2092902,49.7815994 L44.1857935,49.7522304 L44.1461461,49.771321 C44.0559187,49.8371118 43.9596987,49.8634282 43.8553733,49.8653079 L43.8260043,49.8653079 C43.7179195,49.8568491 43.4939375,49.8040435 43.1725025,49.7081769 L41.3838201,49.1471958 C41.7616472,48.7355334 41.9521473,48.3172544 41.9521473,47.9019077 C41.9521473,47.5560361 41.8220921,47.2152774 41.5673877,46.890083 C41.3972715,46.6626348 41.1895606,46.4841801 40.9564732,46.3525985 C40.7412434,46.2341751 40.5163216,46.1764898 40.2794747,46.1793094 L40.279377,46.1791665 Z M39.9944766,47.408364 C40.1833901,47.408364 40.3484536,47.5007042 40.502592,47.6961968 C40.6144363,47.844696 40.6685352,47.9857966 40.6685352,48.1220775 L40.6244816,48.337954 C40.579368,48.4366402 40.5182765,48.5268074 40.436508,48.6066962 C40.357559,48.6922243 40.2044206,48.8257457 39.9797921,48.9958619 L38.4775064,50.1501707 L37.6110981,49.0267648 L39.1133838,47.8739598 C39.3389522,47.6963247 39.5076022,47.579781 39.6053485,47.5215091 C39.6974556,47.4660569 39.8020742,47.433748 39.9063996,47.4187101 L39.9945142,47.4084317 L39.9944766,47.408364 Z M11.7074447,49.4423145 L11.6310822,49.6038515 L11.6178639,49.6317543 L11.6398944,49.658191 C11.7169637,49.7333804 11.7515057,49.8039909 11.7515057,49.8726013 L11.728009,49.9651219 C11.6913541,50.0271532 11.6202775,50.1128016 11.5018541,50.2030289 L7.65681479,53.245195 C7.51583452,53.359859 7.41409565,53.4275897 7.34548525,53.446387 L7.24127264,53.460673 L7.09292381,53.4388681 L7.05480275,53.4298453 L6.97547785,53.5794724 L6.95491804,53.6205935 L8.74510422,54.5002352 L8.82881266,54.3357582 L8.84349717,54.3049155 L8.81559435,54.2814188 C8.71126896,54.1977705 8.66874179,54.1197012 8.66874179,54.0567301 L8.68490001,53.9818338 C8.71027646,53.9357803 8.76578885,53.8699895 8.86259529,53.7938601 L9.5645567,53.2387513 L11.839339,54.378323 L11.839339,55.2550322 C11.839339,55.3800347 11.8244741,55.4681493 11.8084963,55.5076237 C11.7671421,55.5818733 11.716096,55.6140018 11.6249287,55.6177613 L11.4898208,55.5972045 L11.4589856,55.5854524 L11.3811494,55.7425833 L11.3664649,55.7792983 L13.3460534,56.7544306 L13.4238895,56.5914199 L13.4371078,56.5547048 L13.4121449,56.5326743 C13.319098,56.4659437 13.2626457,56.3917542 13.2344496,56.3109255 C13.2043739,56.2253975 13.1845163,56.0780712 13.1845163,55.8703603 L13.1654257,50.9213892 C13.1654257,50.8076651 13.1808771,50.7162648 13.2109529,50.657053 C13.2438483,50.593142 13.2976539,50.5613669 13.4047989,50.5557277 L13.4973196,50.5645399 L13.6089308,50.4191536 L13.6280214,50.3809723 L11.7086597,49.4426077 L11.7074447,49.4423145 Z M34.3349649,50.0032956 C33.8368346,50.0032956 33.3103579,50.1227792 32.7577153,50.3586862 C31.5227282,50.90287 30.8130899,51.7193901 30.6533123,52.7964793 C30.6279359,52.9496778 30.6165973,53.1012297 30.6165973,53.2487891 C30.6165973,53.6604515 30.7032456,54.0586549 30.8677151,54.4515199 C31.0227934,54.8190085 31.2438354,55.1372103 31.518277,55.4163512 C31.832193,55.7274477 32.1928093,55.9578358 32.6035618,56.1006958 C32.9127785,56.2116002 33.2380332,56.2695788 33.5801227,56.2695788 C34.0688543,56.2695788 34.5894662,56.1530351 35.1412066,55.9171282 C36.3705545,55.3955012 37.0774859,54.5749961 37.2485419,53.4734703 C37.2739184,53.3061737 37.2896631,53.1463359 37.2896631,52.9903178 C37.2896631,52.595573 37.2054885,52.2168436 37.0532298,51.8521747 C36.6951399,51.0166693 36.1091507,50.453049 35.3027436,50.1692087 C34.9972864,50.0583042 34.6695656,50.0032655 34.3349799,50.0032655 L34.3349649,50.0032956 Z M34.0424778,51.1567021 C34.2332711,51.1567021 34.425884,51.1875975 34.6166773,51.2477491 C35.1458232,51.419745 35.5318836,51.7964518 35.785648,52.3829597 C35.8946728,52.6245059 35.9448993,52.8731575 35.9486588,53.1363583 L35.9486588,53.1583888 C35.9486588,53.4488081 35.8946201,53.7184902 35.7724297,53.9675779 C35.5741175,54.4008572 35.2257797,54.7215028 34.7239125,54.933913 C34.4287938,55.0579756 34.1471265,55.1218867 33.8735948,55.1218867 C33.6762224,55.1218867 33.4851359,55.0922245 33.2905831,55.0264337 C32.7576777,54.8450391 32.3686098,54.475964 32.1289809,53.9176897 C32.0077379,53.6329096 31.9527518,53.3594078 31.9527518,53.0952672 C31.9527518,52.8264649 32.0073243,52.5637679 32.1304471,52.3081086 C32.3353384,51.8729495 32.6827363,51.5547101 33.1789643,51.3432773 C33.4737071,51.2184628 33.7624346,51.1568074 34.0428914,51.1568074 L34.0424778,51.1567021 Z M15.1789427,51.181665 L15.1348892,51.3578941 C15.2523727,51.4537607 15.3070054,51.4995812 15.3258028,51.5399955 L15.3463596,51.6339824 L15.3404948,51.7147509 L14.3448358,56.4875531 L14.2625935,56.6388118 C14.2240589,56.6632484 14.1605012,56.6878052 14.0599353,56.6887451 L13.9894452,56.8576282 L13.980633,56.8972756 L15.8221736,57.2893737 L15.861821,57.1102122 C15.7518564,57.0171652 15.7001636,56.9730515 15.6738473,56.9354568 L15.6518168,56.8326578 L15.6591854,56.7636338 L16.0439449,54.9338228 L17.5022448,55.23928 L18.2615081,57.1102197 C18.3413969,57.3019529 18.3842173,57.4293088 18.3804578,57.4744225 L18.3804578,57.489107 C18.371999,57.5220024 18.3334644,57.5483788 18.2159809,57.5493187 L18.1822057,57.5493187 L18.1073095,57.719668 L18.1014447,57.7637215 L20.2235172,58.202813 L20.2602323,58.03099 L20.2705107,57.9898689 L20.2269008,57.9800942 C20.1094172,57.946259 20.0191297,57.8910398 19.9552186,57.7979929 C19.8837886,57.7049459 19.7788166,57.4998816 19.6453553,57.1944244 L18.9052127,55.4718335 L19.0153502,55.4718335 C19.9711588,55.4774728 20.5662835,55.0257494 20.7467382,54.1413558 C20.7749343,53.9984958 20.7907917,53.8532297 20.7907917,53.7169488 C20.7907917,53.587247 20.7785133,53.4581316 20.7540767,53.3321893 C20.6929853,53.0586875 20.5697422,52.822367 20.3751895,52.6287541 C20.2125922,52.4567582 20.0065279,52.3245902 19.7584027,52.2146255 C19.5093375,52.1121799 19.1746241,52.0207796 18.7450741,51.9267927 L15.1788374,51.1824169 L15.1789427,51.181665 Z M11.9246671,51.3314575 L11.8644553,53.4196948 L10.3004391,52.6472733 L11.9246821,51.3314575 L11.9246671,51.3314575 Z M29.4866724,51.6046058 L27.6451318,52.0099222 L27.678907,52.1890837 C27.8255264,52.2285582 27.89243,52.249942 27.9300248,52.2771982 L28.012267,52.4240508 L29.0637166,57.1865521 L29.0710852,57.2673206 L29.0519946,57.3613074 C29.0284979,57.399842 28.9762788,57.4507679 28.8860514,57.4949417 L28.8904876,57.6770431 L28.9037059,57.7196304 L30.7481789,57.3128403 L30.7041253,57.1380849 C30.5687843,57.1023699 30.5008807,57.0813996 30.4632859,57.0485042 C30.4238115,57.0221879 30.3945026,56.9713748 30.3766451,56.8943056 L29.3251955,52.1333081 L29.3163833,52.0525396 L29.3369401,51.9629589 C29.3613767,51.9234844 29.4148289,51.8730849 29.4984772,51.8307908 L29.4969734,51.6486894 L29.486695,51.6046359 L29.4866724,51.6046058 Z M25.289596,52.3241917 C25.1777517,52.3241917 25.0533356,52.3254699 24.9283331,52.3330039 L21.333374,52.4783902 L21.2951928,52.6546193 C21.4230149,52.7175905 21.4889786,52.7521325 21.5228139,52.7897273 C21.5519498,52.8179233 21.57286,52.8733756 21.5756796,52.9542043 L21.7695256,57.8209933 L21.7695256,57.8400839 L21.7239984,57.9898764 C21.6995618,58.0218319 21.6348312,58.0579003 21.5389646,58.0926754 L21.5095956,58.2733106 L23.3585048,58.2439416 L23.3908137,58.0589078 C23.260172,58.0025157 23.2034265,57.9684474 23.1705311,57.935552 C23.1357559,57.9017167 23.1126126,57.8476179 23.1088531,57.7696088 L23.038363,55.9103987 L24.5274905,55.8516607 L25.7214242,57.4759037 C25.8558254,57.6572983 25.9255486,57.7805414 25.9255486,57.8077976 L25.9255486,57.8122337 C25.9255486,57.8545278 25.8874801,57.8972354 25.7493195,57.9282511 L25.7214167,58.1030065 L27.8434892,58.0677652 L27.8846103,57.8871375 C27.7135543,57.8401441 27.6136951,57.8023689 27.5262874,57.7300065 C27.4426391,57.6604563 27.2875608,57.4920469 27.0798499,57.2204249 L25.9402782,55.7312974 C26.9102224,55.5273459 27.4130896,54.9701543 27.4103076,54.08946 L27.4073752,53.9954732 C27.3951569,53.7135127 27.3341858,53.449763 27.2223414,53.2053822 C27.0954592,52.9544373 26.9168842,52.751719 26.6819171,52.6135583 C26.4770258,52.4894957 26.2459384,52.4067271 25.9799557,52.3653729 C25.7910421,52.3381167 25.560421,52.3242518 25.2897389,52.3242518 L25.289596,52.3241917 Z M21.4992946,52.5165714 L21.3744651,52.5210076 L21.3744651,52.5195038 L21.4992946,52.5165714 Z M16.5444587,52.5297897 L18.3963002,52.9189554 C18.6867196,52.9725279 18.8817987,53.0251606 18.9851842,53.0599357 C19.0829305,53.0994102 19.1753309,53.1541556 19.2627386,53.230285 C19.3924405,53.3336705 19.4551184,53.4744778 19.4551184,53.6605718 L19.4404339,53.8558915 C19.3737033,54.1397317 19.240475,54.3045019 19.0233654,54.368413 C18.9425367,54.3909698 18.8576553,54.4095341 18.7693077,54.4095341 L18.7017575,54.4080303 C18.5861537,54.3967519 18.3851948,54.3653828 18.1069937,54.3052313 L16.2522198,53.9175393 L16.5444587,52.5297672 L16.5444587,52.5297897 Z M25.2085418,53.3653704 C25.3072279,53.3653704 25.3825903,53.3705584 25.4361704,53.3771225 C25.5404958,53.3855813 25.6484002,53.4187699 25.7489736,53.4667032 C25.9435264,53.5625698 26.0535511,53.7484908 26.0676492,54.0379703 L26.0676492,54.0820238 C26.0667469,54.3508262 25.9754819,54.5242281 25.795967,54.6342003 C25.7038599,54.6887126 25.5980683,54.7260743 25.4890436,54.7458115 C25.3762594,54.7674285 25.1780073,54.7825867 24.8913474,54.7957448 L22.9983773,54.8706411 L22.9381655,53.4050479 L23.0086557,53.4021155 L24.8355343,53.3771526 C24.9793342,53.3705359 25.1013968,53.3654004 25.2085418,53.3654004 L25.2085418,53.3653704 Z M25.7680567,58.0544115 L25.7680567,58.0588477 L25.7665529,58.0588477 L25.7680567,58.0544115 Z" fill="#006BB6" transform="translate(23.985384, 29.255804) scale(-1, 1) rotate(-180.000000) translate(-23.985384, -29.255804) "></path>
                    <path d="M39.107925,17.0492132 C42.5891976,20.8293639 44.7179996,25.8755175 44.7179996,31.4207412 C44.7179996,43.1455997 35.2159299,52.6410904 23.4938909,52.6410904 C11.771852,52.6410904 2.26978224,43.1455997 2.26978224,31.4207412 C2.26978224,19.6977624 11.771852,10.1985122 23.4938909,10.1985122 C29.4535966,10.1985122 34.836223,12.657208 38.6906234,16.6121743 C38.8184455,16.6826645 38.9744637,16.8668787 39.107925,17.0492132" fill="#FDB927"></path>
                    <path d="M23.4937029,11.5389225 C12.5115284,11.5389225 3.60984663,20.44286 3.60984663,31.4257864 C3.60984663,32.4003924 3.68303907,33.3583063 3.81837712,34.2953175 C5.21975853,32.8667175 8.04417592,29.512891 10.6118964,23.6424728 C10.643852,21.9243934 10.6647622,20.8448981 10.6647622,20.8448981 L11.1772837,20.7215422 L11.1934344,20.2104869 L12.0466845,20.2104869 C12.0466845,20.2104869 12.0524741,20.7495052 12.0628352,21.6790125 C12.1483633,21.7861575 12.2504555,21.9143932 12.382977,22.0769904 C12.3698188,21.4933321 12.3624202,21.1562201 12.3624202,21.1562201 L12.9395595,20.6569169 L13.5563463,20.9344713 C13.5563463,20.9344713 13.5834296,21.9217843 13.6341825,23.530839 C17.4960642,27.8467148 27.3547576,37.4070564 41.1858613,40.5041108 C42.5852878,37.7813496 43.3798901,34.6972278 43.3798901,31.4257338 C43.3798901,20.4420554 34.4782083,11.5388699 23.49453,11.5388699 L23.4937029,11.5389225 Z M12.0649029,22.0037935 C12.1090768,25.8816906 12.2416584,35.3175936 12.5480555,42.7839083 C12.6974945,42.7669907 12.8447606,42.7479602 12.9988991,42.7310426 C12.7159987,35.6566154 12.4693396,25.7525075 12.3894508,22.3592066 C12.2804261,22.2398433 12.1739277,22.125059 12.0649029,22.003816 L12.0649029,22.0037935 Z M13.6392201,23.7175871 C13.6777548,24.9375363 13.7305603,26.4927554 13.7963511,28.2465499 L18.1402726,42.2182579 C18.5810709,42.1797233 19.029764,42.1427752 19.4884198,42.1051804 L13.7394327,23.8236118 C13.7065373,23.7878968 13.6724689,23.7535878 13.6395735,23.7178804 L13.6392201,23.7175871 Z M10.5846478,24.4724143 C10.0808783,25.6002564 9.53718322,26.704489 8.97514191,27.7590213 L6.49043056,41.7457672 C6.74607477,42.1668283 7.02122313,42.5735281 7.30691305,42.9720324 L10.5849485,24.4724143 L10.5846478,24.4724143 Z M14.4293111,24.5502504 L19.9158118,42.0716534 C20.3180755,42.0396979 20.724625,42.0082687 21.1391446,41.9791328 L16.1397965,26.3006237 C15.5768153,25.7404622 15.0051121,25.1516534 14.4289352,24.5501376 L14.4293111,24.5502504 Z M16.8759014,27.020375 L21.5723111,41.9484931 C21.9886728,41.9193572 22.4110497,41.8915145 22.8396297,41.8633185 L18.6763886,28.7352363 C18.0852113,28.1872931 17.4840339,27.612056 16.8759766,27.0200141 L16.8759014,27.020375 Z M10.5508877,27.0923313 L7.65488994,43.4122066 C7.98666349,43.3642733 8.3717163,43.3084075 8.81062734,43.2491958 L10.381937,34.3926277 L10.4421487,34.4029061 C10.4741042,31.8342833 10.5141652,29.28333 10.55082,27.0924591 L10.5508877,27.0923313 Z M8.34219692,28.9162776 C7.88918034,29.7254667 7.43578781,30.4947302 6.99404965,31.2174514 L5.46920713,39.8289018 C5.69101607,40.3044752 5.931269,40.7695221 6.18879295,41.2225387 L8.34146758,28.9162776 L8.34219692,28.9162776 Z M19.3183563,29.3201277 L23.2731722,41.8354156 C23.6669771,41.8109791 24.0667971,41.7884222 24.4700383,41.7649255 L20.9857581,30.797037 C20.4387546,30.325223 19.8823525,29.8328824 19.317454,29.3197142 L19.3183563,29.3201277 Z M13.8641871,29.9956601 C13.9177596,31.3687702 13.9800841,32.8223331 14.0477546,34.3073252 L16.582467,42.3608698 C16.9508954,42.3270345 17.328309,42.2904398 17.7118129,42.2566045 L13.8636156,29.9962089 L13.8641871,29.9956601 Z M21.5711081,31.3011749 L24.9017762,41.7397295 C25.3453941,41.7162328 25.7939745,41.6928564 26.2469911,41.6721793 L23.4341529,32.831401 C22.8251181,32.345489 22.2049554,31.8387495 21.5705818,31.3011448 L21.5711081,31.3011749 Z M6.43396326,32.1192364 C6.09279103,32.6596607 5.76659653,33.1621895 5.45740238,33.627462 L4.57625694,37.5613753 C4.75671167,38.1187172 4.95825706,38.6674876 5.18570522,39.2032126 L6.43400086,32.1189356 L6.43396326,32.1192364 Z M24.0523607,33.3190348 L26.6839923,41.6530361 C27.0928351,41.6361184 27.5050614,41.6166744 27.9204832,41.6016365 L25.6632952,34.5405931 C25.1384727,34.1526154 24.6016198,33.748096 24.0527367,33.3187641 L24.0523607,33.3190348 Z M4.76475695,34.6536479 C4.50347353,35.0342947 4.26956659,35.3657148 4.06279554,35.6551717 C4.12858633,35.9578094 4.20024942,36.2589207 4.28013823,36.5568439 L4.76473439,34.6537983 L4.76475695,34.6536479 Z M26.2847362,34.9958202 L28.3553791,41.5852001 C28.7801997,41.5692223 29.2069751,41.5557709 29.6374348,41.5426128 L27.9398069,36.1691971 L28.0000186,36.1882877 L27.9295285,36.1412942 L27.9280247,36.1383619 C27.3941795,35.7783922 26.8486798,35.4009185 26.2847588,34.9958578 L26.2847362,34.9958202 Z M14.1296059,36.0429088 C14.2386306,38.2638555 14.3620466,40.4966821 14.5011472,42.5691296 C15.0321728,42.5136773 15.5803417,42.4571649 16.1517817,42.4017127 L14.1295608,36.0429389 L14.1296059,36.0429088 Z M28.4772613,36.5069707 L30.0706014,41.5323344 C30.516099,41.5201161 30.9646794,41.509958 31.4158163,41.5014917 L30.2086493,37.6084063 C29.653187,37.2691138 29.0759199,36.9026854 28.4772613,36.5070309 L28.4772613,36.5069707 Z M10.4167497,36.6038975 L9.24928273,43.190345 C9.60079352,43.1442914 9.97350774,43.0951852 10.3786286,43.0434924 C10.3777263,41.1505974 10.3923733,38.9188235 10.4168098,36.60389 L10.4167497,36.6038975 Z M30.7524947,37.9355031 L31.8538701,41.4937697 C32.2702319,41.4862508 32.6883981,41.4804386 33.1094592,41.477619 L32.2733522,38.8106484 C31.7898839,38.5437257 31.2800993,38.2504868 30.7522692,37.9354429 L30.7524947,37.9355031 Z M32.8069719,39.1015414 L33.5500544,41.4717392 C33.9814541,41.4698595 34.4165379,41.4702354 34.8526369,41.4702354 L34.35186,39.8900534 C33.8687676,39.6550863 33.3539453,39.3937427 32.8069418,39.1014662 L32.8069719,39.1015414 Z M34.8702463,40.1383291 L35.2946532,41.4703106 C36.2777556,41.4750475 37.2677754,41.4884613 38.2640359,41.5128979 C37.5600745,41.28357 36.4031717,40.8573359 34.8702087,40.1383591 L34.8702463,40.1383291 Z M29.9594714,44.6364641 C26.3612791,44.6427049 22.1397661,44.7071874 17.8998317,44.9008003 C29.1707338,44.6893299 35.2317573,45.0013662 37.826546,45.2062575 C37.9797445,45.04554 38.1327702,44.8866421 38.2803295,44.723105 C36.5336028,44.6822169 33.5577538,44.6302309 29.9598623,44.6364566 L29.9594714,44.6364641 Z M19.8780667,45.5264068 C18.0187814,45.5400311 16.2693479,45.5689339 14.7249561,45.6027692 C14.847139,47.0858815 14.9779537,48.3983138 15.1170542,49.4650269 C17.6631202,50.6501634 20.4991919,51.3153646 23.4939135,51.3153646 C28.6773254,51.3153646 33.3971191,49.3300618 36.9355357,46.0799968 C32.0143846,45.5799868 25.4556068,45.4859999 19.8780517,45.5266022 L19.8780667,45.5264068 Z M13.125676,45.6409504 C12.9752971,45.6447099 12.8239783,45.6480182 12.6792385,45.6527025 C12.7271718,46.5643749 12.7789247,47.4256703 12.8334371,48.2123778 C12.9847559,48.3082443 13.1345484,48.4051711 13.2886868,48.4972782 C13.2341745,47.7294433 13.1792485,46.7603262 13.125676,45.6409805 L13.125676,45.6409504 Z M10.3971252,45.7217189 C10.1377215,45.7301777 9.91062678,45.7391629 9.70103612,45.7466818 C9.93130389,45.9694306 10.1667973,46.1847207 10.4074036,46.3943113 C10.4026667,46.1847207 10.3999599,45.9595056 10.3971252,45.7217189 L10.3971252,45.7217189 Z" fill="#006BB6" transform="translate(23.494868, 31.427117) scale(-1, 1) rotate(-180.000000) translate(-23.494868, -31.427117) "></path>
                </g>
            </g>
        </g>
    </g>
</svg>