<?xml version="1.0" encoding="UTF-8"?>
<svg width="60px" height="60px" viewBox="0 0 60 60" version="1.1" xmlns="http://www.w3.org/2000/svg" xmlns:xlink="http://www.w3.org/1999/xlink">
    <!-- Generator: Sketch 43.2 (39069) - http://www.bohemiancoding.com/sketch -->
    <title>Slice</title>
    <desc>Created with Sketch.</desc>
    <defs></defs>
    <g id="Page-1" stroke="none" stroke-width="1" fill="none" fill-rule="evenodd">
        <g id="HOU" transform="translate(0.000000, 14.000000)" fill-rule="nonzero">
            <path d="M37.98,10.08 C38.1085714,10.9285714 37.2085714,11.2114286 36.6685714,11.2885714 L36.6428571,9.59142857 L36.6428571,9.46285714 C37.3114286,9.54 37.9285714,9.69428571 37.98,10.08 Z M36.0257143,9.43714286 C36.0257143,9.48857143 36,9.54 36,9.59142857 L35.9742857,14.04 L36.6685714,13.6542857 L36.6428571,11.3142857 C37.1314286,11.34 37.8514286,11.4428571 37.8514286,11.8285714 L37.8514286,13.6542857 L38.52,14.04 L38.4942857,11.7 C38.4942857,11.0057036 37.4657143,11.2371429 37.4657143,11.2371429 C37.4657143,11.2371429 38.7514286,10.9542707 38.6742857,9.89998929 C38.6228571,9.25713214 37.9542857,8.94856071 36.7457143,9.07713214 L36.5657143,9.07713214 C36.516228,8.75129129 36.429963,8.43211056 36.3085714,8.12570357 C36.1785429,8.46655483 36.0837627,8.81982628 36.0257143,9.17998929 C35.5960896,9.2513289 35.1742002,9.36325874 34.7657143,9.514275 C35.1839971,9.46564746 35.6046234,9.43989841 36.0257143,9.43714286 L36.0257143,9.43714286 Z" id="Shape" fill="#000000"></path>
            <path d="M41.58,12.7285714 C41.58,13.14 41.3485714,13.3971429 40.9628571,13.3971429 C40.5771429,13.3971429 40.3457143,13.1914286 40.3457143,12.7285714 L40.3457143,10.1828571 C40.3457143,9.72 40.6028571,9.51428571 40.9628571,9.51428571 C41.1352993,9.51537028 41.2995719,9.58791039 41.4165383,9.714624 C41.5335047,9.84133762 41.5926922,10.0108793 41.58,10.1828571 L41.58,12.7285714 Z M41.4,9.20571429 L40.5514286,9.20571429 C40.5514286,9.20571429 39.6514286,9.20571429 39.6514286,10.0542857 L39.6514286,12.8571429 C39.6514286,13.7057143 40.5514286,13.7057143 40.5514286,13.7057143 L41.4,13.7057143 C41.4,13.7057143 42.3,13.7314286 42.3,12.8571429 L42.3,10.0542857 C42.3,9.20571429 41.4,9.20571429 41.4,9.20571429 L41.4,9.20571429 Z" id="Shape" fill="#000000"></path>
            <path d="M45.0257143,9.20571429 L44.1771429,9.20571429 C44.1771429,9.20571429 43.2514286,9.20571429 43.2514286,10.0542857 L43.2514286,12.8571429 C43.2514286,13.7057143 44.1771429,13.7057143 44.1771429,13.7057143 L45.0257143,13.7057143 C45.0257143,13.7057143 45.9257143,13.7314286 45.9257143,12.8571429 L45.9257143,12.4971429 L45.2314286,12.4971429 L45.2314286,12.7285714 C45.2472804,12.9057398 45.1855933,13.0810861 45.0623058,13.2093051 C44.9390183,13.337524 44.766225,13.4060374 44.5885714,13.3971429 C44.2028571,13.3971429 43.9714286,13.1914286 43.9714286,12.7285714 L43.9714286,10.1828571 C43.9714286,9.72 44.2285714,9.51428571 44.5885714,9.51428571 C44.7649646,9.50974432 44.9351308,9.57961874 45.057431,9.70681088 C45.1797311,9.83400303 45.2428812,10.0067776 45.2314286,10.1828571 L45.2314286,10.4142857 L45.9257143,10.4142857 L45.9257143,10.0542857 C45.9514286,9.20571429 45.0257143,9.20571429 45.0257143,9.20571429 Z" id="Shape" fill="#000000"></path>
            <path d="M58.6028571,11.0314286 C58.0114286,11.0314286 57.8314286,11.0057014 57.8314286,10.5171429 L57.8314286,10.0542857 C57.8314286,9.694275 57.9085714,9.48857143 58.4742857,9.48857143 C59.0657143,9.48857143 59.1171429,9.77142857 59.1171429,10.1314286 L59.1171429,10.3628571 L59.76,10.0285714 L59.76,9.95142857 C59.7737819,9.74502636 59.7013976,9.54214397 59.5600784,9.39107869 C59.4187593,9.24001341 59.2211475,9.15427925 59.0142857,9.15428571 L58.0114286,9.15428571 C58.0114286,9.15428571 57.1628571,9.15428571 57.1628571,9.9 L57.1628571,10.5685714 C57.1628571,11.1857143 57.1885714,11.3914286 58.0628571,11.3914286 C58.7314286,11.3914286 59.1428571,11.4171429 59.1428571,11.9828571 L59.1428571,12.6257143 C59.1428571,13.14 59.0657143,13.3714286 58.5,13.3714286 C57.9085714,13.3714286 57.8314286,13.0885714 57.8314286,12.5485714 L57.8314286,12.24 L57.1885714,12.4971429 L57.1885714,12.9857143 C57.1885714,13.68 58.0371429,13.68 58.0371429,13.68 L59.0142857,13.68 C59.2387885,13.6780569 59.4523325,13.5826716 59.6035978,13.4167678 C59.7548631,13.2508639 59.830173,13.0294416 59.8114286,12.8057143 L59.8114286,11.8285714 C59.7857143,11.0828571 59.4257143,11.0314286 58.6028571,11.0314286 Z" id="Shape" fill="#000000"></path>
            <path d="M51.1714286,12.7028571 L51.1714286,11.6228571 L51.4028571,11.6228571 C51.9556516,11.6051735 52.5022697,11.5010557 53.0228571,11.3142857 C52.5007821,11.1330237 51.9550101,11.0290672 51.4028571,11.0057143 L51.1714286,11.0057143 L51.1714286,10.26 C51.1457143,10.1314286 51.2742857,9.9 51.3,9.82285714 C51.4408118,9.69709271 51.6257802,9.63235377 51.8142857,9.64285714 L53.0228571,9.64285714 C52.9457143,9.15428571 52.1228571,9.23142857 52.1228571,9.23142857 L51.4028571,9.23142857 C51.4028571,9.23142857 50.4257143,9.23142857 50.4257143,10.1314286 L50.4257143,12.8571429 C50.4257143,13.7314286 51.4028571,13.7057143 51.4028571,13.7057143 L52.1228571,13.7057143 C52.1228571,13.7057143 52.9457143,13.7828571 53.0228571,13.32 L51.8142857,13.32 C51.7885714,13.2942857 51.1714286,13.3457143 51.1714286,12.7028571 Z" id="Shape" fill="#000000"></path>
            <path d="M53.5371429,9.20571429 L53.5371429,9.79714286 L54.6171429,9.79714286 L54.6171429,13.5257143 L55.2857143,13.9628571 L55.2857143,9.79714286 L55.5428571,9.79714286 C55.9933053,9.78129516 56.4373524,9.6855203 56.8542857,9.51428571 C56.4431769,9.32186953 55.9966319,9.21680012 55.5428571,9.20571429 L53.5371429,9.20571429 Z" id="Shape" fill="#000000"></path>
            <polygon id="Shape" fill="#000000" points="49.6028571 9.20571429 48.96 9.20571429 47.5714286 11.1857143 47.5714286 9.20571429 46.8771429 8.74285714 46.8771429 13.9628571 47.5714286 13.5257143 47.5714286 11.2885714 49.0371429 13.6285714 49.7828571 13.6285714 48.2142857 11.1342857"></polygon>
            <path d="M5.58,12.7285714 C5.58,13.14 5.34857143,13.3971429 4.96285714,13.3971429 C4.57714286,13.3971429 4.34571429,13.1914286 4.34571429,12.7285714 L4.34571429,10.1828571 C4.34571429,9.72 4.60285714,9.51428571 4.96285714,9.51428571 C5.13529912,9.51537091 5.29957128,9.58791121 5.41653755,9.71462468 C5.53350382,9.84133814 5.59269159,10.0108794 5.58,10.1828571 L5.58,12.7285714 Z M5.37428571,9.20571429 L4.52571429,9.20571429 C4.52571429,9.20571429 3.6,9.20571429 3.6,10.0542857 L3.6,12.8571429 C3.6,13.7057143 4.52571429,13.7057143 4.52571429,13.7057143 L5.37428571,13.7057143 C5.37428571,13.7057143 6.3,13.7314286 6.3,12.8571429 L6.3,10.0542857 C6.3,9.20571429 5.37428571,9.20571429 5.37428571,9.20571429 L5.37428571,9.20571429 Z" id="Shape" fill="#000000"></path>
            <path d="M9.18,9.61714286 L9.18,12.7542857 C9.18,13.3971429 8.66571429,13.3971429 8.66571429,13.3971429 L8.46,13.3971429 C8.3097168,13.377218 8.17360384,13.2981295 8.08187426,13.1774327 C7.99014467,13.0567359 7.95038782,12.9044167 7.97142857,12.7542857 L7.97142857,9.64285714 L7.27714286,9.20571429 L7.27714286,12.8828571 C7.27714286,13.68 8.12571429,13.7314286 8.12571429,13.7314286 L9,13.7314286 C9,13.7314286 9.95142857,13.7057143 9.95142857,12.8828571 L9.95142857,11.2114286 C9.95142857,11.2114286 9.92571429,9.23142857 9.92571429,9.20571429 L9.18,9.61714286 Z" id="Shape" fill="#000000"></path>
            <path d="M21.2142857,14.0142857 L21.8057143,13.5771429 L21.8057143,11.0571429 L23.8371429,13.7314286 L23.8371429,10.3628571 C23.8029821,9.78678359 23.6993748,9.21694372 23.5285714,8.66571429 C23.3740662,9.21973013 23.2792415,9.78867831 23.2457143,10.3628571 L23.2457143,11.8542857 L21.2142857,9.20571429 L21.2142857,14.0142857 Z" id="Shape" fill="#000000"></path>
            <path d="M12.2142857,11.0314286 C11.6228571,11.0314286 11.4428571,11.0057014 11.4428571,10.5171429 L11.4428571,10.0542857 C11.4428571,9.694275 11.52,9.48857143 12.0857143,9.48857143 C12.6771429,9.48857143 12.7285714,9.77142857 12.7285714,10.1314286 L12.7285714,10.3628571 L13.3714286,10.0285714 L13.3714286,9.95142857 C13.3852099,9.74502652 13.3128253,9.5421445 13.1715063,9.39107937 C13.0301873,9.24001424 12.8325759,9.15427989 12.6257143,9.15428571 L11.6228571,9.15428571 C11.6228571,9.15428571 10.7742857,9.15428571 10.7742857,9.9 L10.7742857,10.5685714 C10.7742857,11.1857143 10.8,11.3914286 11.6742857,11.3914286 C12.3428571,11.3914286 12.7542857,11.4171429 12.7542857,11.9828571 L12.7542857,12.6257143 C12.7542857,13.14 12.6771429,13.3714286 12.1371429,13.3714286 C11.52,13.3714286 11.4428571,13.0885714 11.4428571,12.5485714 L11.4428571,12.24 L10.8,12.4971429 L10.8,12.9857143 C10.8,13.68 11.6228571,13.68 11.6228571,13.68 L12.6257143,13.68 C12.8502171,13.6780569 13.0637611,13.5826716 13.2150264,13.4167678 C13.3662917,13.2508639 13.4416015,13.0294416 13.4228571,12.8057143 L13.4228571,11.8285714 C13.4228571,11.0828571 13.0371429,11.0314286 12.2142857,11.0314286 Z" id="Shape" fill="#000000"></path>
            <path d="M13.8857143,9.33429857 L13.8857143,9.9 L14.9657143,9.9 L14.9657143,13.5771429 L15.6342857,14.0142857 L15.6342857,9.9 L15.8657143,9.9 C16.3097092,9.89990433 16.7483881,9.80339497 17.1514286,9.61714286 C16.7525111,9.41892467 16.3109887,9.32179341 15.8657143,9.33429643 L13.8857143,9.33429857 Z" id="Shape" fill="#000000"></path>
            <path d="M18.2571429,12.7285714 L18.2571429,10.1828571 C18.2571429,9.72 18.5142857,9.51428571 18.8742857,9.51428571 C19.0506791,9.50974366 19.2208457,9.57961786 19.343146,9.70681017 C19.4654463,9.83400247 19.5285962,10.0067774 19.5171429,10.1828571 L19.5171429,12.7285714 C19.532999,12.9057409 19.4713135,13.0810897 19.348025,13.2093097 C19.2247365,13.3375298 19.0519405,13.4060417 18.8742857,13.3971429 C18.4885714,13.3971429 18.2571429,13.2171536 18.2571429,12.7285714 Z M19.2857143,13.7057143 C19.2857143,13.7057143 20.2114286,13.7057143 20.2114286,12.8314286 L20.2114286,10.0542857 C20.2114286,9.18 19.2857143,9.18 19.2857143,9.18 L18.4371429,9.18 C18.4371429,9.18 17.5371429,9.18 17.5371429,10.0542857 L17.5371429,12.8314286 C17.5371429,13.7057143 18.4371429,13.7057143 18.4371429,13.7057143 L19.2857143,13.7057143 Z" id="Shape" fill="#000000"></path>
            <path d="M2.36571429,8.61428571 C2.19567886,9.04055173 2.10000646,9.49282127 2.08285714,9.95142857 L2.08285714,11.16 L0.617142857,11.16 L0.617142857,9.95142857 C0.581539564,9.49282072 0.477531458,9.04211893 0.308571429,8.61428571 C0.155721965,9.04557329 0.0606108589,9.49518942 0.0257142857,9.95142857 L0,14.0914286 L0.642857143,13.7314286 L0.642857143,11.6228571 L2.10857143,11.6228571 L2.10857143,13.7314286 L2.75142857,14.0914286 L2.72571429,9.95142857 C2.65077681,9.49478726 2.53017172,9.0468255 2.36571429,8.61428571 L2.36571429,8.61428571 Z" id="Shape" fill="#000000"></path>
            <path d="M33.9428571,18.4628571 L33.9685714,15.1714286 C37.0028571,15.5571429 39.4971429,15.9685714 39.4971429,16.7142857 C39.5228571,17.5114286 37.2342857,18.1542857 33.9428571,18.4628571 Z M28.1057143,18.5914286 L28.1314286,17.8971429 C28.08,16.02 28.1828571,13.6542857 28.2085714,11.16 C29.7257143,11.3142857 31.6542857,11.7257143 31.6285714,12.8057143 L31.5771429,18.6171429 C31.0114286,18.6428571 30.4457143,18.6428571 29.88,18.6428571 C29.2628571,18.6428571 28.6714286,18.6171429 28.1057143,18.5914286 L28.1057143,18.5914286 Z M20.3142857,16.7142857 C20.3142857,15.9685714 23.0657143,15.5571429 25.8171429,15.145725 C25.8171429,16.0200107 25.7914286,16.9971536 25.7657143,18.0514264 L25.7657143,18.462855 C22.5,18.1542857 20.3142857,17.5114286 20.3142857,16.7142857 Z M32.1685714,7.43143929 C32.5028571,9.87428571 30.0085714,10.6714286 28.2342857,10.9285714 C28.2637911,9.14382578 28.2037156,7.35872379 28.0542857,5.58 C30.1628571,5.78571429 32.0142857,6.3 32.1685714,7.43143929 Z M33.9942857,15.1200107 L34.02,12.24 C34.02,10.4657143 31.5514286,10.6457271 30.7542857,10.7485714 C31.7057143,10.5685714 34.92,9.79714286 34.7142857,6.84 C34.5857143,4.91142857 32.1428571,3.93428571 28.1314286,4.32 C28.0542857,4.32 28.0028571,4.34571429 27.9257143,4.34571429 C27.7540525,2.93862742 27.4439791,1.55191033 27,0.205714286 C26.5109938,1.64547567 26.1496006,3.1254668 25.92,4.62857143 C24.4765763,4.85683016 23.0504076,5.18330252 21.6514286,5.60571429 C23.0368566,5.49110029 24.4272836,5.44818588 25.8171429,5.47714286 C25.56,8.04857143 25.8428571,10.4657143 25.8171429,15.12 C21.5742857,14.9914286 17.8714286,15.8142857 17.9228571,17.0485714 C17.9742857,18.1542857 21.24,19.1571429 25.8171429,19.5428571 L26.0228571,25.7914286 L26.3314286,21.5485864 C26.3571429,21.0343007 26.7428571,21.0857293 26.7428571,21.5228721 L26.8714286,27.0771407 L27.2314286,22.5514264 C27.2314286,21.9342836 27.6428571,21.9857121 27.6171429,22.5257121 L27.7714286,28.3114264 L28.0542857,19.6714286 C28.6457143,19.6971429 29.2371429,19.6971429 29.8542857,19.6971429 C30.4457143,19.6971429 31.0114286,19.6971429 31.5514286,19.6714286 L31.8342857,28.4914286 L32.0657143,23.8628571 C32.0657143,23.2714393 32.4771429,23.2971429 32.4771429,23.8371429 L32.7085714,30.2914286 L32.9657143,24.7114286 C32.9657143,24.1714286 33.4028571,24.1971429 33.4285714,24.7114286 L33.6085714,32.1171429 L33.9171429,19.5428571 C38.5457143,19.1571429 41.9142857,18.1285714 41.9142857,17.0485714 C41.8885714,15.84 38.2628571,14.9142857 33.9942857,15.1200129 L33.9942857,15.1200107 Z" id="Shape" fill="#000000"></path>
            <path d="M38.16,9.92571429 C38.2628571,10.7742857 37.3628571,11.0571429 36.8228571,11.1342857 L36.8228571,9.41142857 C36.8266762,9.37518378 36.8175689,9.33875495 36.7971429,9.30857143 C37.4914286,9.38571429 38.1085714,9.54 38.16,9.92571429 Z M36.18,9.28285714 L36.18,9.41142857 L36.1285714,13.8857143 L36.8228571,13.5 L36.8228571,11.16 C37.2857143,11.1857143 38.0314286,11.2628571 38.0057143,11.6485714 L38.0314286,13.5 L38.6742857,13.8857143 L38.6742857,11.52 C38.6742857,10.8257143 37.6457143,11.0828571 37.6457143,11.0828571 C37.6457143,11.0828571 38.9057143,10.8 38.8285714,9.72 C38.8028571,9.10285714 38.1085714,8.76858429 36.9,8.89714286 C36.8485714,8.89714286 36.7714286,8.92285714 36.7457143,8.92285714 C36.699227,8.59342139 36.6038938,8.27275504 36.4628571,7.97142857 C36.3296632,8.31124643 36.2347909,8.66486145 36.18,9.02571429 C35.7616857,9.09875303 35.3491863,9.20187789 34.9457143,9.33428571 C34.9457143,9.33428571 35.5371429,9.28285714 36.18,9.28285714 Z" id="Shape" fill="#CE1141"></path>
            <path d="M41.76,12.5742964 C41.7758518,12.7514648 41.7141648,12.9268111 41.5908773,13.0550301 C41.4675898,13.183249 41.2947965,13.2517624 41.1171429,13.2428679 C40.7314286,13.2428679 40.5,13.0371536 40.5,12.5742964 L40.5,10.0285714 C40.5,9.54 40.7571429,9.36 41.1171429,9.36 C41.2935368,9.35545595 41.4637046,9.42532953 41.5860054,9.5525223 C41.7083061,9.67971507 41.7714553,9.8524912 41.76,10.0285714 L41.76,12.5742964 Z M41.5542857,9.02571429 L40.7057143,9.02571429 C40.7057143,9.02571429 39.78,9.02571429 39.78,9.9 L39.78,12.6771429 C39.78,13.5514286 40.7057143,13.5514286 40.7057143,13.5514286 L41.5542857,13.5514286 C41.5542857,13.5514286 42.4542857,13.5771429 42.4542857,12.6771429 L42.4542857,9.9 C42.4542857,9.02571429 41.5542857,9.02571429 41.5542857,9.02571429 Z" id="Shape" fill="#CE1141"></path>
            <path d="M45.18,9.02571429 L44.3314286,9.02571429 C44.3314286,9.02571429 43.4314286,9.02571429 43.4314286,9.9 L43.4314286,12.6771429 C43.4314286,13.5514286 44.3571429,13.5514286 44.3571429,13.5514286 L45.2057143,13.5514286 C45.2057143,13.5514286 46.1057143,13.5771429 46.1057143,12.6771429 L46.1057143,12.3428571 L45.3857143,12.3428571 L45.3857143,12.5742857 C45.3857143,12.9857143 45.1542857,13.2428571 44.7685714,13.2428571 C44.3828571,13.2428571 44.1514286,13.0371429 44.1514286,12.5742857 L44.1514286,10.0285714 C44.1514286,9.54 44.4085714,9.36 44.7685714,9.36 C44.941014,9.3610833 45.1052873,9.43362303 45.222254,9.56033694 C45.3392207,9.68705085 45.3984078,9.85659324 45.3857143,10.0285714 L45.3857143,10.26 L46.1057143,10.26 L46.1057143,9.9 C46.1057143,9.02571429 45.18,9.02571429 45.18,9.02571429 Z" id="Shape" fill="#CE1141"></path>
            <path d="M58.7571429,10.8771429 C58.1657143,10.8771429 57.9857143,10.8514286 57.9857143,10.3628571 L57.9857143,9.9 C57.9857143,9.54 58.0628571,9.33428571 58.6285714,9.33428571 C59.22,9.33428571 59.2714286,9.61714286 59.2714286,9.97714286 L59.2714286,10.2085714 L59.9142857,9.87428571 L59.9142857,9.79714286 C59.9280664,9.59074096 59.8556816,9.38785931 59.7143627,9.23679433 C59.5730439,9.08572935 59.3754328,8.9999948 59.1685714,9 L58.1657143,9 C58.1657143,9 57.3171429,9 57.3171429,9.72 L57.3171429,10.4142857 C57.3171429,11.0314157 57.3428571,11.2371429 58.2171429,11.2371429 C58.8857143,11.2371429 59.2971429,11.2628571 59.2971429,11.8285714 L59.2971429,12.4714286 C59.2971429,12.9857143 59.22,13.2171429 58.68,13.2171429 C58.0628571,13.2171429 57.9857143,12.9342707 57.9857143,12.3942857 L57.9857143,12.0857143 L57.3428571,12.3428571 L57.3428571,12.8314286 C57.3428571,13.5257143 58.1914286,13.5257143 58.1914286,13.5257143 L59.1942857,13.5257143 C59.1942857,13.5257143 59.9657143,13.5257143 59.9657143,12.6257143 L59.9657143,11.6742857 C59.9657143,10.9285714 59.58,10.8771429 58.7571429,10.8771429 Z" id="Shape" fill="#CE1141"></path>
            <path d="M51.3257143,12.5485843 L51.3257143,11.4685714 L51.5571429,11.4685714 C52.1115091,11.4442052 52.6584131,11.331352 53.1771429,11.1342857 C52.6550693,10.9530182 52.1092965,10.8490614 51.5571429,10.8257143 L51.3257143,10.8257143 L51.3257143,10.1057143 C51.3336312,9.94811514 51.3872393,9.79622569 51.48,9.66857143 C51.6196058,9.53799648 51.8031401,9.46458276 51.9942857,9.46285714 L53.2028571,9.46285714 C53.1,9 52.3028571,9.07714286 52.3028571,9.07714286 L51.5571429,9.07714286 C51.5571429,9.07714286 50.58,9.07714286 50.58,9.97714286 L50.58,12.6771429 C50.58,13.5771429 51.5571429,13.5514286 51.5571429,13.5514286 L52.3028571,13.5514286 C52.3028571,13.5514286 53.1,13.6285714 53.2028571,13.14 L51.9685714,13.14 C51.8011416,13.1631292 51.6321335,13.1102492 51.5077453,12.9958145 C51.3833571,12.8813799 51.3165972,12.7173581 51.3257143,12.5485843 Z" id="Shape" fill="#CE1141"></path>
            <path d="M53.6914286,9.05142857 L53.6914286,9.64285714 L54.7714286,9.64285714 L54.7714286,13.3714286 L55.4657143,13.8085714 L55.4657143,9.64285714 L55.7228571,9.64285714 C56.1666971,9.61952265 56.6024866,9.51493319 57.0085714,9.33428571 C56.6045793,9.15087625 56.1665228,9.05450381 55.7228571,9.05142857 L53.6914286,9.05142857 Z" id="Shape" fill="#CE1141"></path>
            <polygon id="Shape" fill="#CE1141" points="49.7571429 9.05142857 49.1142857 9.05142857 47.7257143 11.0314286 47.7257143 9.02571429 47.0314286 8.58857143 47.0314286 13.8085714 47.7257143 13.3714286 47.7257143 11.1085714 49.1914286 13.4485714 49.9371429 13.4485714 48.3685714 10.9542857"></polygon>
            <path d="M5.76,12.5742964 C5.7758518,12.7514648 5.71416475,12.9268111 5.59087726,13.0550301 C5.46758977,13.183249 5.29479646,13.2517624 5.11714286,13.2428679 C4.73142857,13.2428679 4.5,13.0371536 4.5,12.5742964 L4.5,10.0285714 C4.5,9.54 4.75714286,9.36 5.11714286,9.36 C5.2935368,9.35545595 5.46370464,9.42532953 5.58600538,9.5525223 C5.70830612,9.67971507 5.77145531,9.8524912 5.76,10.0285714 L5.76,12.5742964 Z M5.55428571,9.02571429 L4.70571429,9.02571429 C4.70571429,9.02571429 3.78,9.02571429 3.78,9.9 L3.78,12.6771429 C3.78,13.5514286 4.70571429,13.5514286 4.70571429,13.5514286 L5.55428571,13.5514286 C5.55428571,13.5514286 6.48,13.5771429 6.48,12.6771429 L6.48,9.9 C6.45428571,9.02571429 5.55428571,9.02571429 5.55428571,9.02571429 Z" id="Shape" fill="#CE1141"></path>
            <path d="M9.36,9.46285714 L9.36,12.5742857 C9.36,13.2428571 8.82,13.2428571 8.82,13.2428571 L8.61428571,13.2428571 C8.29843153,13.1821554 8.07765243,12.8951426 8.1,12.5742857 L8.1,11.16 L8.12571429,9.46285714 L7.43142857,9.02571429 L7.43142857,12.7285714 C7.43142857,13.5 8.28,13.5514286 8.28,13.5514286 L9.15428571,13.5514286 C9.15428571,13.5514286 10.08,13.5257143 10.08,12.7285714 L10.08,9.02571429 L9.36,9.46285714 Z" id="Shape" fill="#CE1141"></path>
            <path d="M21.3942857,13.8342986 L21.9857143,13.3971557 L21.9857143,10.8771429 L24.0171429,13.5514286 L24.0171429,10.1828571 C23.9829832,9.60678345 23.879376,9.03694345 23.7085714,8.48571429 C23.5460104,9.03893019 23.4425749,9.60782557 23.4,10.1828571 L23.4,11.6742857 L21.3942857,9.02571429 L21.3942857,13.8342986 Z" id="Shape" fill="#CE1141"></path>
            <path d="M12.3685714,10.8771429 C11.8028571,10.8771429 11.5971429,10.8514286 11.5971429,10.3628571 L11.5971429,9.9 C11.5971429,9.54 11.6742857,9.33428571 12.24,9.33428571 C12.8314286,9.33428571 12.9085714,9.61714286 12.9085714,9.97714286 L12.9085714,10.2085714 L13.5514286,9.87428571 L13.5514286,9.79714286 C13.5606257,9.58751924 13.483172,9.38334517 13.337255,9.23256428 C13.191338,9.08178338 12.9898124,8.99767889 12.78,9 L11.8028571,9 C11.8028571,9 10.9285714,9 10.9285714,9.72 L10.9285714,10.4142857 C10.9285714,11.0314157 10.98,11.2371429 11.8285714,11.2371429 C12.5228571,11.2371429 12.9085714,11.2628571 12.9085714,11.8285714 L12.9085714,12.4714286 C12.9085714,12.9857143 12.8314286,13.2171429 12.2914286,13.2171429 C11.6742857,13.2171429 11.6228571,12.9342707 11.6228571,12.3942857 L11.6228571,12.0857143 L10.98,12.3428571 L10.98,12.8314286 C10.98,13.5257143 11.8028571,13.5257143 11.8028571,13.5257143 L12.8057143,13.5257143 C13.0341324,13.5214278 13.2503139,13.4216676 13.4017897,13.2506464 C13.5532656,13.0796253 13.6261877,12.8529782 13.6028571,12.6257143 L13.6028571,11.6742857 C13.5771429,10.9285714 13.2171429,10.8771429 12.3685714,10.8771429 Z" id="Shape" fill="#CE1141"></path>
            <path d="M14.0657143,9.15428571 L14.0657143,9.74571429 L15.1457143,9.74571429 L15.1457143,13.3971429 L15.7885714,13.86 L15.7885714,9.74571429 L16.0457143,9.74571429 C16.4890461,9.73971793 16.9265106,9.64347939 17.3314286,9.46286786 C16.9294676,9.27033948 16.4912718,9.16517251 16.0457143,9.15429643 L14.0657143,9.15428571 Z" id="Shape" fill="#CE1141"></path>
            <path d="M18.4114286,12.5742964 L18.4114286,10.0285714 C18.4114286,9.54 18.6685714,9.36 19.0285714,9.36 C19.2049654,9.35545595 19.3751332,9.42532953 19.497434,9.5525223 C19.6197347,9.67971507 19.6828839,9.8524912 19.6714286,10.0285714 L19.6714286,12.5742857 C19.6872804,12.7514541 19.6255933,12.9268004 19.5023058,13.0550193 C19.3790183,13.1832383 19.206225,13.2517517 19.0285714,13.2428571 C18.6428571,13.2428571 18.4114286,13.0371429 18.4114286,12.5742964 Z M19.4657143,13.5257143 C19.4657143,13.5257143 20.3657143,13.5514286 20.3657143,12.6771429 L20.3657143,9.9 C20.3657143,9.02571429 19.4657143,9.02571429 19.4657143,9.02571429 L18.6171429,9.02571429 C18.6171429,9.02571429 17.6914286,9.02571429 17.6914286,9.9 L17.6914286,12.6771429 C17.6914286,13.5257143 18.6171429,13.5257143 18.6171429,13.5257143 L19.4657143,13.5257143 Z" id="Shape" fill="#CE1141"></path>
            <path d="M2.54571429,8.43428571 C2.37944427,8.87184993 2.27556889,9.33063284 2.23714286,9.79714286 L2.23714286,11.0057143 L0.771428571,11.0057143 L0.771428571,9.79714286 C0.741804397,9.33180206 0.646577433,8.87298123 0.488571429,8.43428571 C0.315653661,8.86981827 0.211551493,9.32960284 0.18,9.79714286 L0.18,13.9371429 L0.822857143,13.5771321 L0.797142857,11.4685607 L2.28857143,11.4685607 L2.26285714,13.5771321 L2.90571429,13.9371429 L2.88,9.79714286 C2.80214793,9.33527324 2.69041774,8.87975782 2.54571429,8.43428571 L2.54571429,8.43428571 Z" id="Shape" fill="#CE1141"></path>
            <path d="M34.1485714,18.2571429 L34.1742857,14.94 C37.2085714,15.3257143 39.7028571,15.7628571 39.7028571,16.4828571 C39.7028571,17.3057143 37.44,17.9742857 34.1485714,18.2571429 Z M31.7828571,18.4114286 C31.2428571,18.4114286 30.6514286,18.4371429 30.0857143,18.4371429 C29.4685714,18.4371429 28.9028571,18.4114286 28.3114286,18.4114286 L28.3371429,17.6914286 C28.2857143,15.84 28.3885714,13.474275 28.4142857,10.9542729 C29.9314286,11.1342729 31.86,11.5199871 31.8342857,12.5999979 L31.7828571,18.4114286 Z M28.26,5.37428571 C30.3428571,5.58 32.22,6.06857143 32.3742857,7.22571429 C32.6828571,9.66857143 30.2142857,10.4657143 28.4142857,10.7228571 C28.4524453,8.93854129 28.4009519,7.15343489 28.26,5.37428571 Z M25.9714286,18.2571429 C22.7057143,17.9742857 20.4942857,17.3057143 20.4942857,16.4828571 C20.4942857,15.7628571 23.2457143,15.3514286 25.9971429,14.94 C25.9971429,15.8142857 25.9714286,16.7914286 25.9457143,17.8457143 L25.9714286,18.2571429 Z M34.1742857,14.9142857 L34.2,12.0342857 C34.2,10.26 31.7571429,10.44 30.96,10.5428571 C31.8857143,10.3628571 35.1,9.59142857 34.92,6.63428571 C34.7914286,4.70571429 32.3485714,3.72857143 28.3114286,4.11428571 C28.26,4.11428571 28.1828571,4.14 28.1314286,4.14 C27.9512304,2.73206489 27.6325436,1.34534641 27.18,0 C26.7035041,1.43462257 26.3423558,2.90501219 26.1,4.39714286 C24.6580856,4.64437534 23.2325844,4.97928225 21.8314286,5.4 C23.2254714,5.28581236 24.6244365,5.24289932 26.0228571,5.27142857 C25.7657143,7.84285714 26.0228571,10.26 26.0228571,14.9142857 C21.78,14.7857143 18.0771429,15.5828571 18.1285714,16.8428571 C18.1542857,17.9485714 21.4457143,18.9514286 26.0228571,19.3371429 L26.2028571,25.5857143 L26.5371429,21.3428571 C26.5371429,20.8285714 26.9228571,20.8542857 26.9228571,21.3171429 L27.0771429,26.8714286 L27.4114286,22.3457143 C27.4114286,21.7285714 27.8228571,21.7542857 27.8228571,22.32 L27.9771429,28.1057143 L28.26,19.4657143 C28.8514286,19.4914286 29.4428571,19.4914286 30.06,19.4914286 C30.6257143,19.4914286 31.2171429,19.4914286 31.7571429,19.4657143 L32.0142857,28.2857143 L32.2714286,23.6571429 C32.2714286,23.0914286 32.6571429,23.0914286 32.6571429,23.6314286 L32.9142857,30.0857143 L33.1457143,24.5057143 C33.1714286,23.9657143 33.6085714,23.9914286 33.6085714,24.5057143 L33.8142857,31.9114286 L34.0971429,19.3371429 L34.0971429,19.3114286 C38.7514286,18.9257143 42.0942857,17.9228571 42.0942857,16.8428571 C42.0942857,15.66 38.4428571,14.7342857 34.1742857,14.9142857 L34.1742857,14.9142857 Z" id="Shape" fill="#CE1141"></path>
        </g>
    </g>
</svg>