<?xml version="1.0" encoding="UTF-8"?>
<svg width="60px" height="60px" viewBox="0 0 60 60" version="1.1" xmlns="http://www.w3.org/2000/svg" xmlns:xlink="http://www.w3.org/1999/xlink">
    <!-- Generator: Sketch 43.2 (39069) - http://www.bohemiancoding.com/sketch -->
    <title>Slice</title>
    <desc>Created with Sketch.</desc>
    <defs></defs>
    <g id="Page-1" stroke="none" stroke-width="1" fill="none" fill-rule="evenodd">
        <g id="LAC" transform="translate(0.000000, 7.000000)" fill-rule="nonzero">
            <path d="M1.07115789,19.8808084 C0.502084676,20.4006602 0.187846552,21.1427234 0.210526316,21.9131621 L0.210526316,36.8862147 C0.182263039,37.6625435 0.4959551,38.4121986 1.06869117,38.9370401 C1.64142724,39.4618816 2.41555771,39.7090808 3.18647368,39.6133011 C4.52409474,39.49924 5.87208421,39.3955474 7.20970316,39.3022274 L7.20970316,36.4714484 C5.87208421,36.5440337 4.52409263,36.6166168 3.18647368,36.6995726 L3.18647368,22.0998084 C4.52409263,22.1827558 5.87208421,22.2553453 7.20970316,22.3279305 L7.20970316,19.4971537 C5.87208421,19.4038316 4.52409263,19.3001411 3.18647368,19.18608 C2.41233684,19.0831443 1.63352295,19.3389325 1.07116632,19.8808168" id="Shape" fill="#061922"></path>
            <path d="M10.8078,19.7252632 C9.81236211,19.6630484 8.81692211,19.6008421 7.82148421,19.5282505 L7.82148421,39.2607495 C9.99900561,39.1052126 12.176527,38.9773263 14.3540484,38.8770905 L14.3540484,36.1707474 C13.1719663,36.2122211 11.9898821,36.2536947 10.8078,36.3055453 L10.8078,19.7252632 Z" id="Shape" fill="#061922"></path>
            <path d="M14.9450926,38.8459874 C15.9612695,38.7941404 16.9774463,38.7526667 17.9936232,38.7215663 L17.9936232,20.0778168 L14.9450926,19.9533958 L14.9450926,38.8459874 Z" id="Shape" fill="#061922"></path>
            <path d="M23.6344421,20.2333579 C21.95464,20.2022526 20.2748379,20.1504105 18.5950337,20.09856 L18.5950337,38.7008189 C19.5904737,38.6697137 20.59628,38.6386042 21.5917179,38.6074968 L21.5917179,30.7165726 C22.2760821,30.7165726 22.9500779,30.7165726 23.6240716,30.7062021 C24.3982807,30.7226826 25.1513954,30.453186 25.7393789,29.9492547 C26.3073766,29.5015251 26.6365423,28.8164014 26.6311263,28.0931768 L26.6311263,22.8878611 C26.6274979,22.1696109 26.2998149,21.4913841 25.7393789,21.0421537 C25.1619218,20.5214832 24.4119732,20.2333248 23.6344421,20.2333579 L23.6344421,20.2333579 Z M23.6344421,28.0931768 C22.9500779,28.0931768 22.2760821,28.0931768 21.6020884,28.0828084 L21.6020884,22.8256463 C22.2864526,22.8360168 22.9604463,22.8463853 23.6344421,22.8567516 L23.6344421,28.0931768 Z" id="Shape" fill="#061922"></path>
            <path d="M50.1068905,29.9803621 C50.6836083,29.4854568 51.0103787,28.7597189 50.9986337,27.9998526 L50.9986337,22.41088 C51.0162606,21.6704152 50.6862706,20.9643878 50.1068905,20.5029579 C49.5319773,19.9886076 48.7706876,19.7335946 48.0019537,19.7978568 C46.3221495,19.8911768 44.6527179,19.9741326 42.9729137,20.0363453 L42.9729137,38.7422947 C43.9683537,38.7837684 44.97416,38.8252421 45.9695979,38.8770926 L45.9695979,30.8306295 C46.7991305,33.5162435 47.6286632,36.2433312 48.4581958,39.0118926 C49.4536337,39.0637389 50.4490695,39.1259537 51.45488,39.1985368 C50.5838674,36.2951684 49.7128632,33.4540274 48.8418526,30.6543558 C49.3151113,30.5439046 49.7512334,30.3115458 50.1068905,29.9803642 L50.1068905,29.9803621 Z M45.9695958,22.6182589 C46.6435895,22.59752 47.3279558,22.5664126 48.0019495,22.5456737 L48.0019495,28.0309537 C47.3279558,28.0413242 46.6435895,28.0413242 45.9695958,28.0413242 L45.9695958,22.6182589 Z" id="Shape" fill="#061922"></path>
            <path d="M32.2823158,20.2955789 C30.6025123,20.3059481 28.9227095,20.3059481 27.2429074,20.2955789 L27.2429074,38.5141789 C28.2487179,38.5038105 29.2441537,38.5038105 30.2499621,38.5038105 L30.2499621,30.7062042 L32.2926863,30.7062042 C33.0656661,30.726315 33.818882,30.4604741 34.4079937,29.9596253 C34.9759913,29.5118956 35.3051571,28.826772 35.2997411,28.1035474 L35.2997411,22.8774947 C35.3023116,22.1636317 34.9727461,21.4891725 34.4079937,21.0525242 C33.82262,20.5371241 33.0616965,20.2661624 32.2823158,20.2955789 L32.2823158,20.2955789 Z M32.2823158,28.0931811 L30.2395916,28.0931811 L30.2395916,22.8982337 C30.9239579,22.8982337 31.5979516,22.8982337 32.2823158,22.8878632 L32.2823158,28.0931811 Z" id="Shape" fill="#061922"></path>
            <path d="M35.8907789,38.5452821 C38.0786695,38.5867558 40.2561916,38.6489726 42.4440842,38.7319242 L42.4440842,36.0670526 C41.262,36.0359453 40.0799179,36.0048358 38.8978316,35.9841053 L38.8978316,30.7165726 C39.5718274,30.7165726 40.7850189,30.7269411 41.4693811,30.7269411 L41.4693811,28.0724379 C40.7953853,28.0724379 39.5821937,28.0828084 38.8978316,28.0828084 L38.8978316,22.81528 C40.0799158,22.7945411 41.2619979,22.7634337 42.4440842,22.7323326 L42.4440842,20.0674547 C40.2665614,20.1504021 38.0821263,20.2126161 35.8907789,20.2540968 L35.8907789,38.5452821" id="Shape" fill="#061922"></path>
            <path d="M59.9368421,24.9098463 L59.9368421,21.9131621 C59.9463437,21.1426253 59.6270133,20.4045568 59.0588836,19.8839361 C58.490754,19.3633154 57.7276751,19.1094894 56.9608947,19.1860737 C56.1209958,19.2586589 55.2810905,19.3208716 54.4411916,19.3830863 C53.6316646,19.4318811 52.8713199,19.7879442 52.3155074,20.3785263 C51.7614382,20.9045608 51.449889,21.6365199 51.4548758,22.4005095 L51.4548758,27.9998526 C51.4428974,28.7562065 51.7563364,29.4812774 52.3155074,29.9907305 C52.8872268,30.5375032 53.6501452,30.8389485 54.4411916,30.8306337 L56.9608947,30.8617389 L56.9608947,36.6995789 C56.1209958,36.6477326 55.2810905,36.6062568 54.4411916,36.5544126 L54.4411916,33.6925179 L51.4548758,33.5991979 L51.4548758,36.3988674 C51.4503919,37.1688064 51.7614022,37.9069949 52.3155074,38.4415916 C52.8798634,39.0156638 53.6375185,39.3593789 54.4411916,39.4059221 C55.2810905,39.4681368 56.1209958,39.54072 56.9608947,39.6029347 C57.7238341,39.693113 58.4882861,39.4471267 59.0554653,38.9289411 C59.64231,38.4114017 59.9658406,37.6577646 59.9368421,36.8758484 L59.9368421,30.8824779 C59.9538818,30.0877751 59.6336598,29.3230099 59.0554653,28.7775432 C58.5134016,28.2029837 57.7503231,27.8894448 56.9608947,27.9169116 C56.1209958,27.9272821 55.2810947,27.9376512 54.4411916,27.9480189 L54.4411916,22.2242358 C55.2810905,22.1827621 56.1209958,22.1309158 56.9608947,22.0790695 L56.9608947,25.0031705 C57.9563305,24.9824316 58.9517726,24.9409537 59.9368421,24.9098463" id="Shape" fill="#061922"></path>
            <path d="M3.36274947,19.5075179 C4.54483158,19.6112084 5.77876,19.7045305 7.02305895,19.7978526 L7.02305895,19.6734316 C5.74765263,19.5801095 4.45150947,19.4764189 3.18647368,19.3727263 C3.09341441,19.3640958 2.999948,19.3606343 2.90650526,19.3623579 C2.27873358,19.3471099 1.6706664,19.5821323 1.21633474,20.0156211 C0.688273926,20.4985411 0.396775753,21.1875369 0.417909474,21.9028084 L0.417909474,36.8758611 C0.40164652,37.4551547 0.584656655,38.022487 0.936366316,38.48308 C0.673233235,38.0530459 0.540000748,37.5561236 0.552707368,37.0521326 L0.552707368,22.0894358 C0.528298524,21.3624026 0.82392709,20.6612323 1.36150105,20.1711432 C1.82416251,19.7298077 2.4435945,19.4909908 3.08278105,19.5075179 C3.17603139,19.5023166 3.26949914,19.5023166 3.36274947,19.5075179" id="Shape" fill="#BEC0C2"></path>
            <path d="M10.6107853,20.0363453 L10.6107853,19.9119242 C9.75015368,19.8600779 8.87913895,19.8082337 8.01849895,19.7460168 L8.01849895,39.0533853 L8.15329684,39.0430147 L8.15329684,19.8808084 L8.17403579,19.8808084 C8.96209053,19.9326526 9.78125474,19.9844989 10.6107853,20.0363453" id="Shape" fill="#BEC0C2"></path>
            <path d="M17.7966084,20.3888947 L17.7966084,20.2644737 C16.9256,20.2333663 16.0338526,20.1918884 15.1421053,20.1504126 L15.1421053,38.6386084 L15.2769053,38.62824 L15.2769053,20.2852042 L15.2976421,20.2852042 C16.1168,20.3266779 16.9567074,20.3577895 17.7966084,20.3888947" id="Shape" fill="#BEC0C2"></path>
            <path d="M23.8107158,20.5651726 C24.3798031,20.5655806 24.9371053,20.7273782 25.4179347,21.0317853 C24.9025369,20.6467202 24.2777734,20.4360443 23.63444,20.4303747 C22.0272211,20.3992695 20.3992632,20.3577895 18.8024126,20.2955768 L18.8024126,38.4934358 L18.9372126,38.4934358 L18.9372126,20.4407411 L18.9579516,20.4407411 C20.5651726,20.4925874 22.2034989,20.5340632 23.8107158,20.5651621" id="Shape" fill="#BEC0C2"></path>
            <path d="M48.3856063,20.1296674 C48.8910333,20.1168214 49.3889467,20.2539267 49.8165537,20.5236926 C49.3559606,20.1719847 48.7886295,19.9889747 48.2093368,20.0052358 C48.1434986,20.0037805 48.0776437,20.007247 48.0123221,20.0156063 C46.4258442,20.1089263 44.7978863,20.1815011 43.1699284,20.2437284 L43.1699284,38.5660211 L43.3047242,38.5763916 L43.3047242,20.36816 L43.3254653,20.36816 C44.9637811,20.3059432 46.6021179,20.2229916 48.1885958,20.1296695 L48.3856126,20.1296695" id="Shape" fill="#BEC0C2"></path>
            <path d="M30.2603305,20.6377537 C30.9965411,20.6377537 31.7431179,20.6377537 32.4689621,20.6273853 L32.5000674,20.6273853 C33.0696922,20.6158989 33.6307967,20.7669657 34.1176568,21.0628905 C33.6013827,20.6754346 32.9690302,20.4743977 32.3237937,20.4925874 L32.2926884,20.4925874 C31.5564779,20.4925874 30.8099011,20.5029579 30.0840568,20.5029579 C29.2234253,20.5029579 28.3316695,20.5029579 27.4502926,20.4925874 L27.4502926,38.3067916 L27.5850905,38.3067916 L27.5850905,20.6273874 L27.6058295,20.6273874 C28.4872042,20.6273874 29.3789516,20.6377537 30.2603305,20.6377537" id="Shape" fill="#BEC0C2"></path>
            <path d="M42.2470695,20.2748337 C40.2147158,20.3474189 38.1408863,20.4096316 36.0981642,20.4511116 L36.0981642,38.3586379 L36.2329621,38.3586379 L36.2329621,20.5755432 L36.2537011,20.5755432 C38.2342105,20.5340695 40.2561958,20.4822211 42.25744,20.4096358 L42.25744,20.2748337 L42.2470695,20.2748337 Z" id="Shape" fill="#BEC0C2"></path>
            <path d="M57.1475411,19.5075179 C57.2371319,19.4988864 57.3271456,19.4954239 57.4171347,19.4971474 C57.8773039,19.488026 58.3305314,19.6103257 58.7236463,19.8496989 C58.3005319,19.5208186 57.7765822,19.3486107 57.2408589,19.3623474 C57.1543196,19.3606245 57.0677548,19.3640868 56.9816295,19.3727158 C56.1417305,19.4453011 55.3018253,19.5075137 54.4619263,19.5697305 C53.7041397,19.6177515 52.9927235,19.9512276 52.4710484,20.5029537 C51.9531826,20.9938743 51.6606003,21.6765688 51.6622568,22.3901411 L51.6622568,27.9894737 C51.6477701,28.5462918 51.8315085,29.0901581 52.1807137,29.5241074 C51.9219798,29.118924 51.7885239,28.6464177 51.7970547,28.1657474 L51.7970547,22.5664147 C51.7941094,21.8414253 52.0904928,21.1473586 52.6162126,20.6481221 C53.147541,20.0904761 53.8695137,19.7535553 54.6381979,19.7045284 C55.4677305,19.6526842 56.3076358,19.5801074 57.1475347,19.5075179" id="Shape" fill="#BEC0C2"></path>
            <path d="M0.210526316,42.8588463 C20.0428204,40.3909897 40.104548,40.3909897 59.9368421,42.8588463 L59.9368421,41.8219305 C40.0940129,39.5303474 20.0533555,39.5303474 0.210526316,41.8219305 L0.210526316,42.8588463 L0.210526316,42.8588463 Z" id="Shape" fill="#1D428A"></path>
            <path d="M7.41708632,45.6170526 C22.2725621,41.7389916 37.8748084,41.7389916 52.7302842,45.6170526 L52.7302842,44.6423495 C37.8616758,40.8679789 22.2856969,40.8679789 7.41708842,44.6423495 L7.41708842,45.6170526" id="Shape" fill="#C8102E"></path>
            <path d="M24.1425263,17.3611053 C16.1404128,17.1666774 8.15306621,16.571433 0.210526316,15.5776105 L0.210526316,16.6145263 C8.65101684,17.5892274 17.15372,18.14916 25.6667958,18.2943305 C25.1327092,18.027861 24.6227138,17.7156191 24.1425305,17.3611074" id="Shape" fill="#1D428A"></path>
            <path d="M36.0048421,17.3611053 C35.5246581,17.715617 35.014662,18.0278589 34.4805747,18.2943284 C42.9936505,18.1491621 51.4963642,17.5892274 59.93684,16.6145242 L59.93684,15.5776105 C51.9942999,16.5714314 44.0069534,17.1666759 36.00484,17.3611053" id="Shape" fill="#1D428A"></path>
            <path d="M22.1516526,15.3702274 C17.1779806,14.9293554 12.2495178,14.0761518 7.41708632,12.8194147 L7.41708632,13.7941053 C12.5273542,15.0820528 17.7374211,15.9353692 22.9915537,16.3449263 C22.6926494,16.0368383 22.4121945,15.7113725 22.1516526,15.3702274" id="Shape" fill="#C8102E"></path>
            <path d="M37.9957179,15.3702274 C37.7351765,15.7176596 37.4510844,16.0467903 37.1454463,16.3552968 C42.3997782,15.9474033 47.6099842,15.0940668 52.7199116,13.8044842 L52.7199116,12.8297853 C47.8900132,14.0798538 42.9652642,14.9295465 37.9957179,15.3702274" id="Shape" fill="#C8102E"></path>
            <path d="M20.8658779,9.41833474 C20.8658779,5.69412368 23.1092886,2.33662247 26.5500111,0.911428796 C29.9907335,-0.513764877 33.9511762,0.274016514 36.5845908,2.90743171 C39.2180054,5.5408469 40.0057859,9.5012898 38.5805915,12.9420119 C37.155397,16.3827341 33.7978953,18.626144 30.0736842,18.6261432 C27.6315451,18.6263933 25.2893578,17.656368 23.5625049,15.9295147 C21.8356519,14.2026613 20.8656271,11.8604739 20.8658779,9.41833474" id="Shape" fill="#FFFFFF"></path>
            <path d="M30.0736842,0.210526316 C26.3494732,0.210525464 22.9919714,2.45393542 21.566777,5.89465755 C20.1415825,9.33537967 20.929363,13.2958226 23.5627776,15.9292378 C26.1961922,18.562653 30.1566349,19.3504344 33.5973574,17.9252407 C37.0380798,16.500047 39.2814905,13.1425458 39.2814905,9.41833474 C39.2783468,4.33430613 35.1577128,0.213671195 30.0736842,0.210526316 M36.7306779,4.30634105 C37.7788296,5.65981617 38.3835827,7.30387368 38.4623284,9.01393684 L34.9886632,9.01393684 C35.0759844,7.30387153 35.683798,5.66132683 36.73068,4.30634105 M23.4270589,4.30634105 C24.4752107,5.65981617 25.0799637,7.30387368 25.1587095,9.01393684 L21.6850526,9.01393684 C21.7657695,7.30252074 22.3742946,5.65805309 23.4270695,4.30634105 M23.4270695,14.5303242 C22.3789162,13.1768525 21.7741603,11.5327981 21.6954105,9.82273684 L25.1690779,9.82273684 C25.0787163,11.5321711 24.4712264,13.1738333 23.4270589,14.5303158 M30.4780821,17.8069684 L30.4780821,15.4013347 L29.6692905,15.4013347 L29.6692905,17.8069768 C27.4916775,17.7093146 25.4396954,16.7596683 23.9558863,15.1628442 C25.1830832,13.6453591 25.8884957,11.7727449 25.9675011,9.82273684 L25.9675011,9.01393684 C25.8884977,7.06392648 25.1830851,5.1913096 23.9558863,3.67382316 C25.4409958,2.07879113 27.4922021,1.12950165 29.6692905,1.02968421 L29.6692905,3.41458947 L30.4780821,3.41458947 L30.4780821,1.02968421 C32.6556955,1.12734704 34.7076776,2.07699406 36.1914863,3.67381895 C34.9642871,5.19130516 34.2588744,7.06392218 34.1798716,9.01393263 L34.1798716,9.82273684 C34.2588756,11.7727471 34.9642882,13.6453637 36.1914863,15.1628505 C34.7076773,16.7596746 32.6556952,17.7093209 30.4780821,17.8069832 M36.73068,14.5303158 C35.6782237,13.1792348 35.0729492,11.5337658 34.9990295,9.82273684 L38.4726968,9.82273684 C38.3889393,11.5335276 37.7807427,13.1771016 36.73068,14.5303158" id="Shape" fill="#061922"></path>
            <polygon id="Shape" fill="#C8102E" points="28.0309474 5.56105263 28.0309474 13.2446316 32.1267368 13.2446316 32.1267368 12.1869474 29.1197895 12.1869474 29.1197895 5.56105263"></polygon>
            <path d="M33.5266126,8.13255789 L33.5266126,4.96996632 C33.5266126,4.49298526 33.3399684,4.30634105 32.8629874,4.30634105 L27.2740147,4.30634105 C26.8074042,4.30634105 26.6207516,4.50335368 26.6207516,4.96996632 L26.6207516,13.8666989 C26.6207516,14.3436821 26.8073958,14.5303242 27.2740147,14.5303242 L32.8629874,14.5303242 C33.3296,14.5303242 33.5266126,14.3333116 33.5266126,13.8666989 L33.5266126,10.6937389 L32.4171116,10.6937389 L32.4171116,13.5556337 L27.7302547,13.5556337 L27.7302547,5.27067368 L32.4171116,5.27067368 L32.4171116,8.13256842 L33.5266126,8.13256842 L33.5266126,8.13255789 Z" id="Shape" fill="#1D428A"></path>
            <path d="M32.1267768,11.8861916 L32.1267768,5.56100842 L29.4618947,5.56100842 L29.4307895,11.8861916 L30.4988105,11.8861916 L30.5195495,9.91605263 L31.0587474,9.91605263 L31.0483768,11.8861916 L32.1267768,11.8861916 Z M31.0587558,8.86876842 L30.5195579,8.86876842 L30.5195579,6.61866316 L31.0587558,6.61866316 L31.0587558,8.86876842 Z" id="Shape" fill="#C8102E"></path>
        </g>
    </g>
</svg>