<?xml version="1.0" encoding="UTF-8"?>
<svg width="60px" height="60px" viewBox="0 0 60 60" version="1.1" xmlns="http://www.w3.org/2000/svg" xmlns:xlink="http://www.w3.org/1999/xlink">
    <!-- Generator: Sketch 43.2 (39069) - http://www.bohemiancoding.com/sketch -->
    <title>Slice</title>
    <desc>Created with Sketch.</desc>
    <defs></defs>
    <g id="Page-1" stroke="none" stroke-width="1" fill="none" fill-rule="evenodd">
        <g id="MIL" transform="translate(6.000000, 0.000000)" fill-rule="nonzero">
            <path d="M24.259719,59.8488926 C10.9704628,59.8488926 0.160545455,49.0389752 0.160545455,35.749719 C0.160545455,29.2538512 2.72252893,23.1546777 7.36715702,18.5761653 C7.40021488,18.5431074 7.44980165,18.5100496 7.4828595,18.4769917 C5.87955372,16.0637686 4.98699174,13.2373223 5.66467769,9.81583471 C6.92087603,3.51831405 12.0117851,1.6174876 12.2266612,1.53484298 C12.3093058,1.50178512 12.3919504,1.4852562 12.474595,1.4852562 C12.7390579,1.4852562 13.0035207,1.63401653 13.1357521,1.88195041 C13.2183967,2.03071074 13.2349256,2.21252893 13.2018678,2.37781818 C14.8712893,0.972859504 16.4580661,0.361289256 17.1192231,0.146413223 C17.2018678,0.129884298 17.2679835,0.113355372 17.3506281,0.113355372 C17.6316198,0.113355372 17.9126116,0.278644628 18.028314,0.543107438 C18.1770744,0.890214876 18.0613719,1.28690909 17.7307934,1.4852562 C16.2101322,2.39434711 14.8878182,3.65054545 13.8960826,5.07203306 C15.1026942,4.79104132 15.8960826,4.75798347 16.1770744,4.75798347 L16.3258347,4.75798347 C16.6894711,4.7745124 16.9869917,5.07203306 17.0200496,5.43566942 C17.0531074,5.79930579 16.8217025,6.1298843 16.4580661,6.22905785 C16.4415372,6.22905785 14.4415372,6.74145455 12.2431901,8.31170248 C11.8299669,9.58442975 11.6150909,10.9067438 11.6150909,12.2455868 C11.6150909,14.7910413 12.4250083,17.4191405 13.8464959,19.4191405 C14.1770744,19.8819504 14.491124,20.2951736 14.8382314,20.6588099 C14.706,18.0307107 15.4828595,13.964595 20.2101322,12.0802975 C20.2927769,12.0472397 20.3919504,12.0307107 20.491124,12.0307107 C20.7721157,12.0307107 21.0200496,12.1794711 21.152281,12.4439339 C21.3340992,12.7910413 21.2018678,13.2042645 20.8712893,13.4191405 L20.8382314,13.4356694 C20.1274876,13.8984793 19.5159174,14.4935207 19.0531074,15.1877355 C19.5489752,15.0389752 19.9787273,14.9893884 20.259719,14.9563306 L20.3093058,14.9563306 L20.3919504,14.9563306 C20.706,14.9563306 20.9869917,15.1546777 21.0861653,15.4521983 C21.2018678,15.7827769 21.0696364,16.1464132 20.7886446,16.3282314 L20.7390579,16.3612893 C19.2349256,17.2373223 18.3919504,18.2455868 18.2431901,19.3695537 C18.0779008,20.5926942 18.7555868,21.749719 19.2349256,22.410876 C20.5076529,20.9398017 21.3175702,18.4439339 21.5489752,17.5017851 C21.6316198,17.1712066 21.9291405,16.9398017 22.2762479,16.9398017 L22.3588926,16.9398017 C22.7390579,16.9893884 23.0200496,17.303438 23.0200496,17.6670744 C23.0365785,20.7579835 22.2101322,22.873686 21.367157,24.2125289 C22.6398843,24.8406281 23.8630248,24.8902149 24.1440165,24.8902149 L24.2266612,24.8902149 L24.259719,24.8902149 L24.3093058,24.8902149 C24.5737686,24.8902149 25.813438,24.857157 27.0861653,24.2125289 C26.2431901,22.857157 25.4167438,20.7414545 25.4332727,17.6670744 C25.4332727,17.2869091 25.7142645,16.9728595 26.0944298,16.9398017 L26.1770744,16.9398017 C26.5076529,16.9398017 26.8217025,17.1712066 26.9043471,17.5017851 C27.1357521,18.4439339 27.9621983,20.9398017 29.2183967,22.410876 C29.7142645,21.749719 30.3754215,20.5926942 30.2101322,19.3695537 C30.0613719,18.2455868 29.2183967,17.2207934 27.7142645,16.3612893 C27.6977355,16.3612893 27.6646777,16.3282314 27.6646777,16.3282314 C27.367157,16.1464132 27.2349256,15.7662479 27.3506281,15.4521983 C27.4498017,15.1546777 27.7307934,14.9563306 28.044843,14.9563306 L28.1274876,14.9563306 L28.1770744,14.9563306 C28.474595,14.9893884 28.8878182,15.0389752 29.383686,15.1877355 C28.920876,14.4935207 28.3093058,13.8984793 27.598562,13.4356694 L27.5655041,13.4191405 C27.2349256,13.2207934 27.1192231,12.7910413 27.2845124,12.4439339 C27.4167438,12.1794711 27.6812066,12.0307107 27.9456694,12.0307107 C28.044843,12.0307107 28.1274876,12.0472397 28.2266612,12.0802975 C32.937405,13.964595 33.7142645,18.0307107 33.598562,20.6588099 C33.9456694,20.2951736 34.259719,19.8819504 34.5902975,19.4191405 C36.0117851,17.4026116 36.8217025,14.7910413 36.8217025,12.2455868 C36.8217025,10.9067438 36.6068264,9.58442975 36.1936033,8.31170248 C33.9787273,6.72492562 32.0117851,6.22905785 31.9787273,6.22905785 C31.6150909,6.14641322 31.383686,5.79930579 31.4167438,5.43566942 C31.4498017,5.07203306 31.7473223,4.7745124 32.1109587,4.75798347 L32.259719,4.75798347 C32.5407107,4.75798347 33.3506281,4.79104132 34.5407107,5.07203306 C33.5324463,3.63401653 32.2101322,2.39434711 30.706,1.4852562 C30.3754215,1.28690909 30.259719,0.890214876 30.4084793,0.543107438 C30.5241818,0.278644628 30.8051736,0.113355372 31.0861653,0.113355372 C31.1688099,0.113355372 31.2349256,0.129884298 31.3175702,0.146413223 C31.9787273,0.361289256 33.5655041,0.972859504 35.2349256,2.37781818 C35.2018678,2.21252893 35.2183967,2.04723967 35.3175702,1.88195041 C35.4498017,1.63401653 35.6977355,1.4852562 35.9787273,1.4852562 C36.0613719,1.4852562 36.1440165,1.50178512 36.2266612,1.53484298 C36.4415372,1.6174876 41.5324463,3.51831405 42.7886446,9.81583471 C43.4663306,13.2373223 42.5737686,16.0637686 40.9704628,18.4769917 C41.0200496,18.5100496 41.0531074,18.5431074 41.0861653,18.5761653 C45.7307934,23.1546777 48.2927769,29.2538512 48.2927769,35.749719 C48.3588926,49.0389752 37.5489752,59.8488926 24.259719,59.8488926 L24.259719,59.8488926 Z" id="Shape" fill="#EEE1C6"></path>
            <path d="M17.3506281,0.873619835 C15.6812066,1.40254545 12.2927769,3.13808264 10.3093058,7.41907438 C9.51591736,7.96452893 8.83816529,8.6587438 8.09442975,9.56783471 C8.85476033,6.08006612 10.6894711,3.58436364 12.474595,2.26204959 C12.474595,2.26204959 7.58186777,4.03047934 6.39178512,9.98089256 C5.00335537,16.9065124 10.5407107,21.2374215 15.0200496,24.9564298 L11.6150909,23.5679339 C11.383686,23.4687603 11.2181322,23.7002298 11.267719,23.9646942 L11.3671504,24.8076033 C11.4167372,25.2704132 11.7637124,27.6173554 13.0529355,28.3280992 C13.3173983,28.4768595 13.7966711,28.6589421 15.2182248,28.7581157 L17.7802083,28.923405 L17.3504562,30.3614215 L19.8628529,34.3779504 L18.5735967,33.0225785 L15.9454975,42.3614215 L23.1521091,48.2953058 L20.9041752,38.0969587 L24.2595471,42.1796033 L27.5818612,38.0969587 L25.3339273,48.2953058 L32.5405388,42.3614215 L29.9124397,33.0225785 L28.6231835,34.3779504 L31.1355802,30.3614215 L30.7058942,28.9235372 L33.2678777,28.7582479 C34.6728364,28.6590744 35.1521752,28.4769917 35.4331669,28.3282314 C36.7224231,27.6174876 37.0693983,25.2705455 37.1189521,24.8077355 L37.2180612,23.9648264 C37.2676479,23.7003636 37.1024231,23.4688926 36.8710198,23.5680661 L33.4660612,24.9564959 C37.9454,21.2374876 43.4824248,16.9065785 42.093995,9.98095868 C40.9039124,4.03071074 36.0113504,2.26228099 36.0113504,2.26228099 C37.8130033,3.58459504 39.6311851,6.0637686 40.3915157,9.56790083 C39.664243,8.65880992 38.9864909,7.96459504 38.1766397,7.4191405 C36.1766397,3.13814876 32.8047388,1.40277686 31.1353174,0.87385124 C33.3006066,2.17963636 35.1022595,4.11335537 36.1931686,6.34476033 C33.6973008,5.45219835 32.1933339,5.53510744 32.1933339,5.53510744 C32.1933339,5.53510744 34.4245736,6.08042975 36.8543256,7.88204959 C37.3336645,9.27047934 37.5981273,10.7415537 37.5981273,12.2787438 C37.5981273,14.9729587 36.7220281,17.7498182 35.217962,19.8820496 C34.3749868,21.0721322 33.5487058,21.8987438 32.5404413,22.6590744 C32.8710198,21.8160992 34.1603421,15.2871736 27.9784579,12.8078347 L28.0280446,12.8407273 C29.499119,13.782876 30.5734992,15.2539504 31.0032512,16.9894876 C29.8792843,15.8985785 28.6893669,15.7995372 28.0612678,15.7168926 C28.0777967,15.7168926 28.0776645,15.733357 28.0941967,15.733357 C33.8297339,19.0391421 29.2676843,23.518481 29.2676843,23.518481 C27.4660314,21.9978198 26.4083455,18.6095554 26.1769405,17.6839355 C26.1604116,21.2707124 27.3504942,23.4194727 28.1604116,24.460795 C26.3091719,25.7335223 24.2428909,25.6507455 24.2428909,25.6507455 C24.2428909,25.6507455 22.1769405,25.733519 20.3257008,24.460795 C21.1356182,23.4194727 22.3257008,21.2707124 22.3091719,17.6839355 C22.0777669,18.6095554 21.0200479,21.9978198 19.2184281,23.518481 C19.2184281,23.518481 14.6564446,19.0391421 20.3919157,15.733357 C20.4084446,15.733357 20.4083124,15.7168926 20.4248446,15.7168926 C19.7967455,15.7995372 18.6068281,15.9151074 17.4828612,16.9894876 C17.9291421,15.2539504 19.0035223,13.782876 20.4580678,12.8407273 L20.5074612,12.8077983 C14.325643,15.2871372 15.6148992,21.8158975 15.9454777,22.6588727 C14.9372132,21.8985421 14.1109322,21.0719636 13.267957,19.8818479 C11.7638248,17.7661455 10.8877917,14.989286 10.8877917,12.2785421 C10.8877917,10.7413521 11.1522545,9.25374876 11.6315934,7.88184793 C14.0613455,6.08019504 16.2925851,5.53490579 16.2925851,5.53490579 C16.2925851,5.53490579 14.7885851,5.45200331 12.2927504,6.34455868 C13.4000231,4.11331901 15.201676,2.1796 17.3504364,0.873814876 L17.3506281,0.873619835 Z M7.87938843,19.1050248 C3.58186777,23.3529587 0.904347107,29.2370909 0.904347107,35.7496529 C0.904347107,48.625686 11.3838512,59.1050248 24.259719,59.1050248 C37.1357521,59.1050248 47.6150909,48.6255207 47.6150909,35.7496529 C47.6150909,29.2372562 44.9540992,23.353124 40.6400496,19.1050248 L40.127719,19.7329256 C44.2599504,23.8155702 46.8050744,29.4849917 46.8050744,35.7494545 C46.8050744,48.1957355 36.7059008,58.2949091 24.2596198,58.2949091 C11.8135041,58.2949091 1.71416529,48.1957355 1.71416529,35.7494545 C1.71416529,29.4849917 4.27614876,23.8155702 8.39185124,19.7329256 L7.87919008,19.1050248 L7.87938843,19.1050248 Z M9.00352066,20.2951074 C5.02004959,24.2455207 2.54071074,29.716595 2.54071074,35.7496529 C2.54071074,47.716595 12.2762479,57.4686612 24.259719,57.4686612 C36.2266612,57.4686612 45.9787273,47.733124 45.9787273,35.7496529 C45.9787273,29.716595 43.5159174,24.2622149 39.5324463,20.3283306 L38.9707273,20.9233058 C42.7558512,24.7084298 45.1522149,29.9809917 45.1522149,35.7495868 C45.1522149,37.0884298 45.0201124,38.3942149 44.7887107,39.6504132 L38.3259008,37.8654545 C37.3011074,44.7745455 31.3505289,50.0968595 24.1604463,50.0968595 C17.0034215,50.0968595 11.0530083,44.8241322 10.011686,37.9480992 L3.71416529,39.6505785 C3.48276033,38.3778512 3.35066116,37.088595 3.35066116,35.7497521 C3.35066116,29.997686 5.78041322,24.642314 9.56553719,20.8571901 L9.00338843,20.2952066 L9.00352066,20.2951074 Z" id="Shape" fill="#00471B"></path>
            <path d="M9.5491405,9.76624793 C9.33426446,9.99765289 9.1192562,10.2288595 8.92090909,10.4767934 C7.00355372,12.9726612 9.83,17.4358017 9.83,17.4358017 C9.83,17.4358017 8.77228099,12.6093554 9.5491405,9.76638017 L9.5491405,9.76624793 Z M38.9540992,9.76624793 C39.7640165,12.6092231 38.6897025,17.4356694 38.6897025,17.4356694 C38.6897025,17.4356694 41.5161488,12.9725289 39.5823306,10.4766612 C39.3839835,10.2287273 39.1689752,9.98099174 38.9540992,9.7661157 L38.9540992,9.76624793 Z" id="Shape" fill="#EEE1C6"></path>
            <path d="M12.474595,24.7745124 C12.474595,24.7745124 12.7226612,26.8740165 13.5986942,27.3533554 C14.1937355,27.6839339 15.6317521,27.6506116 16.9044793,27.7497851 C15.4995207,27.2043306 13.4332397,25.7167273 12.474562,24.7745785 L12.474595,24.7745124 Z M36.044843,24.7745124 C35.0696364,25.7166612 33.0202149,27.2042645 31.6152562,27.749719 C32.8714545,27.6505455 34.326,27.6838612 34.9210413,27.3532893 C35.7970744,26.8739504 36.0448099,24.7744463 36.0448099,24.7744463 L36.044843,24.7745124 Z M28.4450083,27.9275702 C28.4104017,27.9255041 28.3754066,27.9317025 28.3423488,27.9482314 C27.6481339,28.262281 26.9704479,28.5761322 26.6068116,28.7414215 C26.4580512,28.8075372 26.4249273,29.0060826 26.5406314,29.1052562 C26.8877388,29.4523636 27.5325653,29.7829421 28.3093917,29.1879008 C28.7226149,28.8738512 28.7224826,28.4110413 28.6728959,28.1135207 C28.6481025,28.0143471 28.5488,27.9337686 28.4449785,27.9275702 L28.4450083,27.9275702 Z M20.074595,27.9417686 C19.9715471,27.9440992 19.8752231,28.0184083 19.8628264,28.1299835 C19.8132397,28.4275041 19.8134331,28.890314 20.2266612,29.2043636 C20.9869917,29.799405 21.6480165,29.4688264 21.9950909,29.121719 C22.0942645,29.0060165 22.0612066,28.8243306 21.9124463,28.7582149 C21.5488099,28.5929256 20.854595,28.2787438 20.1769091,27.9646942 C20.1438512,27.9481653 20.1089207,27.9409983 20.0745719,27.9417736 L20.074595,27.9417686 Z M23.4826942,29.551405 L22.8050083,31.7646281 C22.8050083,31.7646281 22.5737355,32.6406612 21.6150579,33.2522314 L21.2018347,35.0704132 L22.2100331,36.4424463 L23.2844132,36.4424463 L22.2926777,34.9713058 L22.4579669,34.0622149 C22.9042479,34.5415537 23.5489421,34.855405 24.2596198,34.855405 C24.9703636,34.855405 25.6147273,34.5580826 26.0609421,34.0622149 L26.2262314,34.9713058 L25.2344959,36.4424463 L26.308876,36.4424463 L27.317405,35.0704132 L26.9041818,33.2522314 C25.9455041,32.6406612 25.7139008,31.7646281 25.7139008,31.7646281 L25.0362149,29.5497521 L24.2594876,29.9300496 L23.4824298,29.5497521 L23.4826942,29.551405 Z M22.8050083,37.2852893 L23.4990909,38.2273058 L25.0199504,38.2273058 L25.7140331,37.2852893 L22.8049421,37.2852893 L22.8050083,37.2852893 Z M39.4000496,39.2190083 L38.8215372,41.1198347 L38.6562479,41.6489587 L40.8215372,42.2933223 L41.367124,42.4586116 L41.8794545,40.7728264 L43.2182314,41.1695868 L42.9373719,42.1116033 L42.3588595,41.9298512 L42.1273884,42.6736529 L42.9373719,42.9215868 L43.4826281,43.086876 L44.2099669,40.6404298 L43.6643802,40.5248562 L41.8630579,39.9792694 L41.3174711,39.8139802 L40.8051405,41.5000959 L39.6481157,41.1530545 L39.9289752,40.2107074 L40.5074876,40.3759967 L40.7389587,39.632195 L39.945438,39.3842612 L39.4001818,39.2189719 L39.4000496,39.2190083 Z M9.11905785,39.3349041 L4.32566942,40.9877967 L4.57360331,41.7315983 L7.59839669,40.690276 L6.52401653,41.5829041 L7.9125124,41.6322975 L4.90408264,42.6737521 L5.15201653,43.4175537 L9.94540496,41.7646612 L9.68100826,41.0208595 L8.2925124,40.9711438 L9.36689256,40.0788463 L9.11895868,39.3350446 L9.11905785,39.3349041 Z M38.408314,41.9464744 L38.0116198,42.6737471 L38.9371736,43.9298793 L37.6975041,43.2687223 L37.334,43.9631355 L41.8133388,46.3433008 L42.1769752,45.649086 L40.226562,44.6077636 L42.5736694,44.9052843 L42.9539669,44.1779455 L39.7308264,43.7482595 L38.4085124,41.9466066 L38.408314,41.9464744 Z M10.2760826,42.4258132 L5.78038017,44.7729207 L6.14385124,45.4671355 L10.6398843,43.1200281 L10.2760826,42.4258132 L10.2760826,42.4258132 Z M10.9869587,43.8143091 L6.8712562,46.7729868 L8.29267769,48.7564579 L8.95383471,48.2770529 L7.99535537,46.9214826 L11.4499008,44.4590033 L10.9869256,43.8143752 L10.9869587,43.8143091 Z M37.0861322,44.4093504 L35.4994215,46.3928215 L35.9455702,46.7563256 L39.4331736,49.549714 L39.7802149,49.1200281 L41.0198843,47.566243 L40.5736033,47.2191355 L39.8298017,46.5909041 L39.3503967,47.2026727 L39.9289091,47.6652843 L39.3174711,48.4423421 L36.6396198,46.3101107 L37.2513884,45.5333835 L37.813438,45.9795322 L38.2925124,45.3680942 L37.5322479,44.7727884 L37.0859669,44.4091521 L37.0861322,44.4093504 Z M12.3258017,45.6820777 L9.08613223,49.5994331 L9.61492562,50.1282264 L11.0034215,49.1697471 L10.061405,50.5747058 L10.5901653,51.1036314 L14.4579339,47.8143752 L13.978595,47.3019785 L12.3421653,48.6407554 L13.5159835,46.8391025 L13.3339008,46.6573504 L11.5489421,47.8476314 L12.8547934,46.1947388 L12.3256694,45.6820777 L12.3258017,45.6820777 Z M35.0696033,46.8558959 L34.4581653,47.3517636 L37.2183306,50.5749041 L36.4580661,51.202805 L33.7307934,47.9631355 L33.1358182,48.4754661 L36.3589587,52.3597636 L36.8051074,51.9797967 L37.9127438,51.0539124 L38.3259669,50.7068711 L35.0696033,46.8557967 L35.0696033,46.8558959 Z M14.8547273,48.0955653 L14.8382628,48.1120281 L12.127519,52.3597967 L12.788676,52.7730198 L13.9786264,50.9054165 L14.8050727,51.4342099 L13.6151223,53.3021438 L14.2762793,53.7153669 L16.5738,50.1284248 L16.8381967,49.7152017 L16.9870215,49.4837306 L17.0034843,49.4672678 L14.854724,48.0955653 L14.8547273,48.0955653 Z M32.1109256,49.1037636 L30.3585289,50.0457802 L32.7552231,54.4756975 L34.5076198,53.5333504 L34.7222975,52.7895488 L33.9784959,51.4178463 L33.5323471,51.2193008 L33.6149917,50.7234331 L32.8379339,49.3020116 L32.1109256,49.1037967 L32.1109256,49.1037636 Z M15.0696033,49.2029372 L15.8960496,49.7317306 L15.2348926,50.7731851 L14.4084463,50.2443917 L15.0696033,49.2029372 Z M17.3836529,49.7152678 L15.5489421,54.4094826 L16.0945289,54.6244909 L17.4497686,55.1368215 L17.9620992,55.3350364 L19.780281,50.6242926 L19.0364793,50.3434331 L17.5159504,54.2938463 L16.5903967,53.9464744 L18.1109256,49.9963917 L17.3835868,49.7152017 L17.3836529,49.7152678 Z M32.309438,49.930276 L32.8879504,51.0046562 L32.0117851,51.4672678 L31.4332727,50.3928876 L32.309438,49.930276 L32.309438,49.930276 Z M28.4748926,50.7070033 L26.0781983,51.1699455 L27.0531405,56.1120942 L29.4498347,55.6491521 L29.3013322,54.8556314 L27.6649025,55.1697471 L27.3837124,53.7812512 L29.0036793,53.4674661 L28.8548545,52.6904083 L27.2352182,53.004524 L27.0037471,51.8145736 L28.6233835,51.5004579 L28.474881,50.7069372 L28.4748926,50.7070033 Z M20.3424959,50.756719 L19.4666612,55.7482893 L20.2433884,55.8806496 L20.623686,53.6986661 L21.0698347,56.0127157 L21.8798182,56.1615405 L21.284843,52.9716231 L22.5903636,51.1534413 L21.7807107,51.0046165 L20.8716198,52.2772116 L21.1195537,50.8887157 L20.3424959,50.7566777 L20.3424959,50.756719 Z M25.5325785,51.2193306 L23.1029917,51.2525818 L23.1856364,56.2939041 L25.6152231,56.2606529 L25.5987603,55.451 L23.9458678,55.5003934 L23.929405,54.0789719 L25.5822975,54.046043 L25.5655107,53.2525223 L23.9126182,53.2854512 L23.8961554,52.0625752 L25.5490479,52.029324 L25.5325851,51.2193405 L25.5325785,51.2193306 Z M33.2514215,51.6987355 L33.9293719,52.938405 L33.0532066,53.4013471 L32.3755868,52.1616777 L33.2514215,51.6987355 L33.2514215,51.6987355 Z" id="Shape" fill="#FFFFFF"></path>
        </g>
    </g>
</svg>