<?xml version="1.0" encoding="UTF-8"?>
<svg width="60px" height="60px" viewBox="0 0 60 60" version="1.1" xmlns="http://www.w3.org/2000/svg" xmlns:xlink="http://www.w3.org/1999/xlink">
    <!-- Generator: Sketch 43.2 (39069) - http://www.bohemiancoding.com/sketch -->
    <title>Slice</title>
    <desc>Created with Sketch.</desc>
    <defs></defs>
    <g id="Page-1" stroke="none" stroke-width="1" fill="none" fill-rule="evenodd">
        <g id="OKC" transform="translate(0.000000, 2.000000)" fill-rule="nonzero">
            <path d="M9.70688259,23.1449393 L11.3975709,22.3287449 L4.22672065,7.60809717 L5.91740891,6.76275304 L5.10121457,5.10121457 L0,7.57894737 L0.816194332,9.26963563 L2.50688259,8.4242915 L9.70688259,23.1449393 Z M13.4672065,21.308502 L15.2744939,20.7255061 L12.7384615,12.9425101 L14.545749,12.3595142 L17.0817814,20.1425101 L18.8890688,19.5595142 L13.2631579,2.18623482 L11.4558704,2.76923077 L13.9919028,10.5522267 L12.1846154,11.1352227 L9.6194332,3.35222672 L7.81214575,3.93522267 L13.4672065,21.308502 Z M22.9700405,0.349797571 L21.1044534,0.641295547 L23.6696356,16.7902834 L21.8040486,17.0817814 L19.2388664,0.932793522 L17.3732794,1.2242915 L19.8218623,16.5862348 C20.0633472,18.1317377 21.511987,19.1888532 23.0574899,18.9473684 C24.6029928,18.7058836 25.6601083,17.2572438 25.4186235,15.7117409 L22.9700405,0.349797571 Z M26.9635628,18.2477733 L28.8582996,18.2769377 L28.945749,13.0008243 C29.0040486,11.3975854 28.8874494,8.1328081 28.8,6.61701862 L28.8582996,6.61701862 C29.3538462,10.6979903 30.2574899,14.487464 30.8404858,18.3352372 L32.6477733,18.364387 L32.9684211,0.11659919 L31.0736842,0.0582995951 L30.9862348,5.36356275 C30.9279352,6.96680162 31.0445344,10.2024291 31.1319838,11.7473684 L31.0736842,11.7473684 C30.5781377,7.66639676 29.6744939,3.87692308 29.091498,0.0291497976 L27.2842105,0 L26.9635628,18.2477733 Z M34.0469636,18.3643725 L37.7781377,18.9473684 C38.2695666,19.0324062 38.77457,18.9167752 39.1800346,18.6263748 C39.5854992,18.3359745 39.8575396,17.8950743 39.9352227,17.4024291 L42.2089069,3.11902834 C42.3618933,2.08448632 41.6644666,1.11583815 40.6348178,0.932793522 L36.8744939,0.349797571 L34.0469636,18.3643725 Z M38.4777328,2.53603239 L40.3433198,2.82753036 L38.0696356,17.1109312 L36.2040486,16.8194332 L38.4777328,2.53603239 Z M51.7700405,3.99352227 L48.1846154,2.82753036 C47.7056058,2.65907105 47.1784288,2.69475812 46.7264929,2.92623747 C46.274557,3.15771682 45.9375388,3.56466632 45.794332,4.05182186 L41.334413,17.7813765 C41.1659536,18.2603861 41.2016407,18.7875631 41.4331201,19.239499 C41.6645994,19.6914349 42.0715489,20.0284531 42.5587045,20.1716599 L46.1441296,21.3376518 L46.7271255,19.5303644 L43.1125506,18.3643725 L45.065587,12.388664 L47.7473684,13.2631579 L48.3303644,11.4850202 L45.648583,10.6105263 L47.6016194,4.63481781 L51.1870445,5.80080972 L51.7700405,3.99352227 Z M46.9603239,21.7165992 L54.9765182,5.27611336 L58.3870445,6.93765182 C58.8444827,7.15239076 59.1955436,7.54311599 59.3602778,8.02084516 C59.525012,8.49857433 59.4893951,9.0226367 59.2615385,9.47368421 L56.3174089,15.5368421 C55.9384615,16.3238866 55.2680162,16.6445344 54.5392713,16.2947368 L52.4987854,24.3983806 L50.8080972,23.5821862 L52.8194332,15.4202429 L52.265587,15.1578947 L48.6801619,22.5327935 L46.9603239,21.7165992 Z M55.8510121,7.84129555 L53.0817814,13.4963563 L54.8016194,14.3417004 L57.5708502,8.65748988 L55.8510121,7.84129555 Z" id="Shape" fill="#002D62"></path>
            <path d="M3.35222672,55.1805668 C7.02924185,51.9363469 10.9681619,49.0016564 15.1287449,46.4064777 C15.9449393,45.9983806 16.7611336,45.5902834 17.5773279,45.1821862 C17.8979757,45.0364372 18.5684211,44.7157895 19.3846154,44.3076923 C19.9676113,44.9489879 20.5214575,45.5611336 21.1336032,46.1441296 C14.9246964,49.0299595 8.97813765,52.0615385 3.35222672,55.1805668 Z M47.6307692,33.0558704 C51.6733376,32.1506655 55.7738908,31.5273035 59.902834,31.1902834 C55.5012146,32.5311741 51.0121457,34.0178138 46.4939271,35.6793522 C46.9020243,34.8340081 47.2518219,33.9595142 47.6307692,33.0558704 L47.6307692,33.0558704 Z" id="Shape" fill="#007AC1"></path>
            <path d="M0.291497976,42.908502 C4.57264288,40.2223915 9.06709159,37.8922977 13.7295547,35.9417004 C13.8753036,36.2623482 14.0502024,36.582996 14.2251012,36.9036437 C13.962753,37.4283401 13.7004049,37.9821862 13.4380567,38.5068826 C8.91983806,39.9060729 4.51821862,41.3635628 0.291497976,42.908502 Z M49.3506073,27.8963563 C52.8583407,27.7535853 56.3712505,27.8022405 59.8736842,28.0421053 C56.2299595,28.5668016 52.5279352,29.1497976 48.7676113,29.8493927 C48.9716599,29.2080972 49.1757085,28.5668016 49.3506073,27.8963563 L49.3506073,27.8963563 Z" id="Shape" fill="#F05133"></path>
            <path d="M30.0825911,22.0955466 C36.9327935,22.0955466 42.2963563,23.6987854 48.388664,26.7303644 C45.4153846,37.8947368 39.9643725,45.4445344 30.0825911,51.5368421 C26.3805668,49.2340081 23.2032389,46.6688259 20.5797571,43.7538462 C21.745749,43.2 23.0574899,42.5587045 24.2234818,42.0340081 C24.7190283,42.0631579 25.1562753,42.0923077 25.5935223,42.0923077 C25.5959981,42.6354429 25.3868952,43.1582002 25.0105263,43.5497976 C25.2145749,43.782996 25.3894737,43.9870445 25.5935223,44.1910931 C26.1182186,43.7246964 26.4388664,43.054251 26.4680162,42.0923077 C27.6249308,42.0912172 28.7782872,41.9641525 29.9076923,41.7133603 C29.8785425,43.491498 29.6161943,44.7740891 29.1206478,45.2987733 C29.1128673,45.298608 29.1053565,45.301626 29.0998536,45.3071289 C29.0943507,45.3126318 29.0913327,45.3201426 29.091498,45.3279231 C28.9830005,45.4433209 28.8660795,45.5504985 28.7417004,45.6485709 C29.237247,45.5611215 29.7327935,45.4445223 30.1700405,45.3279231 C30.7821862,44.0744818 30.7821862,41.888247 30.7821862,41.5092996 C31.9190283,41.2178016 32.9101215,40.9263036 33.8137652,40.6348057 C33.842915,41.6550486 34.2801619,42.6169919 35.0672065,42.9959393 C35.417004,42.7335911 35.7376518,42.4712429 36.0874494,42.2088947 C35.8834008,42.2380445 34.6591093,42.3254939 34.6882591,40.3433077 C37.3117409,39.3230648 39.0315789,38.1570729 40.5473684,36.3497854 C40.9494398,35.4398292 41.2618484,34.4928448 41.4801619,33.5222672 C39.6728745,36.3789474 38.0404858,38.0404858 34.7757085,39.3522267 C34.8954486,38.649526 35.0709008,37.9574644 35.3004049,37.2825911 C36.2623482,36.8745109 37.2534413,36.4080972 37.8364372,36.145766 L39.2647773,34.6591263 C39.6437247,33.2890858 39.9643725,31.9190453 40.31417,30.5198551 L39.2064777,30.8696526 L40.5182186,29.4996121 C40.8097166,28.4210696 41.0720648,27.3425271 41.334413,26.2639846 C40.6931174,26.351434 40.0226721,26.4680332 39.3813765,26.5554826 C39.4979757,26.0016364 39.5562753,25.4769401 39.6145749,24.9522437 C39.2939271,24.893932 38.9732794,24.7773449 38.6526316,24.7481951 C38.5803945,25.4159892 38.463534,26.0781984 38.302834,26.7303814 L38.2153846,26.7595312 C37.5677792,26.8565359 36.9557044,27.1174202 36.437247,27.5174259 L36.6121457,26.9927296 C35.562753,27.1676283 34.5133603,27.3716915 33.4639676,27.5757255 L32.4145749,28.6834178 L32.4437247,28.5668186 L32.7935223,27.6923077 C31.7732794,27.9255061 30.7238866,28.1295547 29.6744939,28.362753 C29.4704453,26.9635628 29.237247,25.7101215 29.0623482,24.6898785 L28.1878543,24.7773279 C28.362753,25.8267206 28.5959514,27.1093117 28.8291498,28.5376518 L28.1004049,28.7125506 L27.1676113,29.7036437 C26.5263158,29.0040486 25.1854251,29.4412955 24.340081,29.6453441 C23.4364372,29.8785425 22.5327935,30.1408907 21.6291498,30.3740891 C21.3619415,30.4343629 21.099018,30.5122662 20.8421053,30.6072874 C20.1421278,29.6367576 19.5183989,28.6134523 18.9765182,27.5465587 L18.8890688,27.3425101 C18.6267206,27.4591093 18.3643725,27.5465587 18.0728745,27.6923077 L18.1894737,27.9255061 C18.7081047,28.9776975 19.3023766,29.9908824 19.9676113,30.957085 C18.960175,31.3954119 18.0563494,32.0410016 17.3149798,32.8518219 C17.3149798,32.8518219 16.0323887,34.1635628 15.8866397,34.3384615 C15.5694134,34.7105498 15.2864802,35.1105588 15.0412955,35.5336032 C13.6593932,32.7228716 12.5843629,29.7714248 11.8348178,26.7303644 C17.8688259,23.6987854 23.2323887,22.0955466 30.0825911,22.0955466 Z M30.7530364,39.0315789 C31.394332,38.7692113 32.0064777,38.4777328 32.6477733,38.2153846 L32.9392713,37.8947368 C33.0836917,37.9189397 33.230163,37.9287044 33.3765182,37.9238866 C33.6752812,37.8765337 33.9683407,37.7983845 34.2510121,37.6906883 C34.0619595,38.3492756 33.9254982,39.0218344 33.842915,39.7020243 C32.9684211,40.0226721 31.9481781,40.3433198 30.811336,40.6348178 C30.7821862,40.0809717 30.7821862,39.5854251 30.7530364,39.0315911 L30.7530364,39.0315789 Z M26.3805668,41.0137652 L26.9927126,40.7222672 L28.508502,39.4979757 L28.8582996,38.594332 C29.0623482,39.0315789 29.1789474,39.2064777 29.4121457,39.6437247 L29.9076923,39.4105263 L29.9076923,40.8097166 C28.7618637,41.0831616 27.5877191,41.2201493 26.4097166,41.2178259 L26.3805668,41.0137652 Z" id="Shape" fill="#FFFFFF"></path>
            <path d="M33.7846154,24.3983806 C35.2164074,24.3872626 36.6475063,24.4651455 38.0696356,24.6315789 C39.1428976,24.8452306 40.2036064,25.1177063 41.2469636,25.4477733 C41.6601307,26.8881867 41.8662449,28.380061 41.8591093,29.8785425 C41.8578815,31.1140785 41.7210295,32.3457465 41.4510121,33.551417 C39.6437247,36.4080972 37.9821862,38.0404858 34.7465587,39.3522267 C34.8662971,38.6495256 35.0417493,37.9574639 35.2712551,37.2825911 C36.2331984,36.8745109 37.1951417,36.4080972 37.8072874,36.1749134 L39.2356275,34.6882737 C39.5854251,33.2890834 39.9352227,31.9190429 40.2850202,30.5490024 L39.1773279,30.8988 L40.4890688,29.5287595 C40.751417,28.450217 41.042915,27.3716891 41.3052632,26.293132 C40.6639676,26.3805814 39.9935223,26.4971806 39.3522267,26.58463 C39.4396761,26.0307838 39.5271255,25.5060874 39.5854251,24.9813911 C39.2647773,24.8939417 38.9441296,24.8064923 38.6234818,24.7481927 C38.551457,25.4256312 38.4346016,26.0975498 38.2736842,26.7595287 L38.1862348,26.7886785 C37.522623,26.8590216 36.8942368,27.1225383 36.3789474,27.5465733 L36.582996,27.0218769 C35.5044534,27.1967757 34.4842105,27.4008389 33.405668,27.6048729 L32.3854251,28.6834154 L32.4145749,28.595966 L32.7643725,27.7214721 C31.7149798,27.9546704 30.6947368,28.158719 29.6453441,28.3919174 C29.4412955,26.9635773 29.2080972,25.710136 29.0331984,24.6898931 C30.6088001,24.4876003 32.1961015,24.390215 33.7846154,24.3983806 L33.7846154,24.3983806 Z M40.5182186,36.3789474 C39.5070539,38.6440924 37.9915405,40.6481594 36.0874494,42.2380567 C35.8834008,42.2672065 34.6299595,42.3546559 34.6591093,40.3724696 C37.2825911,39.3522267 39.0024291,38.157085 40.5182186,36.3789474 Z M35.0380567,43.0251012 C33.562743,44.078588 31.9155619,44.8676569 30.1700405,45.357085 C30.7530364,44.1036437 30.7821862,41.9174089 30.7821862,41.5384615 C31.8898785,41.2469636 32.8809717,40.9554656 33.8137652,40.6639676 C33.842915,41.6842105 34.2510121,42.6753158 35.0380567,43.0251012 Z M28.7417004,45.6777328 C28.2461538,45.7651822 27.7214575,45.8234818 27.2259109,45.8817814 C26.6720648,45.3279352 26.1182186,44.7449393 25.5935223,44.1910931 C26.1182186,43.7246964 26.4388664,43.054251 26.4680162,42.0923077 C27.6249308,42.0912172 28.7782872,41.9641525 29.9076923,41.7133603 C29.8785425,43.491498 29.6161943,44.7740891 29.1206478,45.2987733 C29.1128673,45.298608 29.1053565,45.301626 29.0998536,45.3071289 C29.0943507,45.3126318 29.0913327,45.3201426 29.091498,45.3279231 C28.945749,45.4736802 28.8291498,45.5902834 28.7417004,45.6777328 L28.7417004,45.6777328 Z M25.0105263,43.5497976 C24.6315789,43.1125506 24.2526316,42.6461538 23.902834,42.1797571 L24.2234818,42.0340081 C24.7190283,42.0631579 25.1562753,42.0923077 25.5935223,42.0923077 C25.5825664,42.6328016 25.3753472,43.1508497 25.0105263,43.5497976 L25.0105263,43.5497976 Z M18.0728745,32.0647773 C17.5703307,30.8152776 17.1325033,29.5407134 16.7611336,28.2461538 C17.1692308,28.0421053 17.5773279,27.8672065 18.0145749,27.6923077 L18.1020243,27.9255061 C18.6306691,28.9782324 19.2346701,29.9913953 19.9093117,30.957085 C19.2462394,31.2344212 18.6274918,31.6076341 18.0728745,32.0647773 L18.0728745,32.0647773 Z M18.8016194,27.3425101 C21.7920569,26.1025741 24.9256031,25.2408489 28.1295547,24.7773279 C28.3044534,25.8267206 28.5376518,27.1093117 28.7417004,28.5376518 L28.0129555,28.7125506 L27.1093117,29.7036437 C26.4388664,29.0040486 25.0979757,29.4412955 24.2817814,29.6453441 C23.3781377,29.8785425 22.4744939,30.1408907 21.5708502,30.3740891 C21.303642,30.4343632 21.0407185,30.5122664 20.7838057,30.6072874 C20.0932756,29.6361713 19.4792803,28.6128458 18.9473684,27.5465587 L18.8016194,27.3425101 Z M30.7530364,39.0315935 C31.394332,38.7692259 32.0064777,38.4777474 32.6477733,38.2153992 L32.9392713,37.8947514 C33.0836917,37.9189542 33.230163,37.928719 33.3765182,37.9239012 C33.6745116,37.872971 33.9672269,37.7949136 34.2510121,37.6907028 C34.0479936,38.3457968 33.9112753,39.0196229 33.842915,39.7020389 C32.9392713,40.0226866 31.9481781,40.3433344 30.7821862,40.6348324 C30.7821862,40.0809717 30.7821862,39.5854251 30.7530364,39.0315911 L30.7530364,39.0315935 Z M26.3805668,41.0137798 L26.9927126,40.7222818 L28.508502,39.4979903 L28.8582996,38.5943466 C29.0623482,39.0315935 29.1789474,39.2064923 29.4121457,39.6437393 L29.9076923,39.4396907 L29.9076923,40.838881 C28.7593787,41.0980285 27.5868462,41.234819 26.4097166,41.2469636 L26.3805668,41.0137798 Z" id="Shape" fill="#F05133"></path>
            <path d="M30.4032389,49.6712551 C27.5158476,47.7325646 24.9070742,45.4082064 22.6493927,42.762753 L23.902834,42.1797571 C24.2817814,42.6461538 24.6607287,43.1125506 25.0396761,43.5497976 C25.2185293,43.7771388 25.4133547,43.9914466 25.6226721,44.1910931 C27.2888046,46.0316812 29.134378,47.7014857 31.1319838,49.1757085 C30.8982186,49.3539611 30.6549454,49.5193869 30.4032389,49.6712551 Z M16.6445344,33.4348178 C15.7922997,31.5566814 15.0810236,29.6177232 14.5165992,27.6340081 C19.4966798,25.258915 24.9173217,23.9484301 30.4323887,23.7862348 C32.9986946,23.808043 35.5566799,24.0814155 38.0696356,24.6024291 C36.6462369,24.4512997 35.2160084,24.3734641 33.7846154,24.3692308 C32.1864397,24.3619799 30.5895032,24.4593541 29.0040486,24.6607287 C28.7125506,24.6898785 28.4210526,24.7481781 28.1295547,24.7773279 C24.9267401,25.2308007 21.7931486,26.0827459 18.8016194,27.3133603 C18.5392713,27.4299595 18.2477733,27.5465587 17.9854251,27.6631579 C17.5773279,27.8380567 17.1692308,28.0421053 16.7611336,28.2461538 C17.114012,29.5428961 17.5422705,30.8179384 18.0437247,32.0647773 C17.7813765,32.2979757 17.4898785,32.5603239 17.2275304,32.8226721 L16.6445344,33.4348178 Z" id="Shape" fill="#FDBB30"></path>
            <path d="M10.3481781,26.059919 C16.9068826,22.7076923 22.6493927,20.8421053 30.1117409,20.8421053 C37.5449393,20.8421053 43.3165992,22.7076753 49.8753036,26.059919 C46.8145749,38.3319838 40.9846154,46.4939271 30.0825911,53.0234818 C25.9724696,50.545749 22.3870445,47.659919 19.4137652,44.3076923 C18.5975709,44.7157895 17.9271255,45.0364372 17.5773279,45.211336 C16.557085,45.7360324 15.5368421,46.2315789 14.5165992,46.7562753 C13.3506073,47.3392713 12.0680162,48.242915 10.7271255,47.8931296 C9.26963563,47.251834 10.2315789,45.4736964 10.6688259,44.4826032 C11.805668,41.9465854 13.0008097,39.4105385 14.2251012,36.9036559 C12.6952041,34.0414883 11.5391912,30.9947044 10.7854251,27.8380567 L10.3481781,26.059919 Z M30.0825911,22.0955466 C23.2323887,22.0955466 17.8688259,23.6987854 11.7765182,26.7303644 C12.5080738,29.7635079 13.5736939,32.7061838 14.9538462,35.5044534 C15.2093376,35.0809361 15.5019884,34.6809801 15.8283401,34.3093117 C15.9740891,34.1635628 17.2275304,32.8226721 17.2275304,32.8226721 C17.9818003,32.0135663 18.8947121,31.3685743 19.9093117,30.9279352 C19.2284016,29.9663102 18.6241123,28.9526637 18.1020243,27.8963563 L18.0145749,27.6631579 C18.2769231,27.5465587 18.5392713,27.4299595 18.8307692,27.3133603 L18.9182186,27.5174089 C19.4499912,28.5930633 20.0639588,29.6260881 20.7546559,30.6072874 C21.017004,30.5198381 21.2793522,30.4323887 21.5708502,30.3449393 C22.4744939,30.1117409 23.3489879,29.8785425 24.2817814,29.6453441 C25.0979757,29.4121457 26.4388664,28.9748988 27.0801619,29.6744939 L28.0129555,28.6834008 L28.7417004,28.5376518 C28.508502,27.0801619 28.3044534,25.7975709 28.1004049,24.7773279 C28.3919028,24.7481781 28.6834008,24.6898785 28.9748988,24.6607287 C29.1497976,25.6809717 29.382996,26.9635628 29.5870445,28.3336032 C30.6364372,28.1295547 31.6566802,27.8963563 32.7060729,27.6923077 L32.3562753,28.5668016 L32.3271255,28.654251 L33.3765182,27.5465587 C34.4259109,27.3716599 35.4461538,27.1676113 36.5246964,26.9635628 L36.3497976,27.5174089 C36.8624944,27.1024544 37.476059,26.8308766 38.1279352,26.7303644 L38.2153846,26.7303644 C38.3847699,26.0687542 38.5113479,25.396917 38.594332,24.7190283 C38.9149798,24.7773279 39.2356275,24.8647773 39.5271255,24.9230769 C39.4944278,25.4630775 39.4164207,25.9993765 39.2939271,26.5263158 C39.9643725,26.4388664 40.605668,26.351417 41.2761134,26.2348178 C40.9846154,27.3133603 40.7222672,28.4210526 40.459919,29.4995951 L39.1481781,30.8696356 L40.2558704,30.5198381 C39.8769231,31.8898785 39.5271255,33.259919 39.2064777,34.6591093 L37.7781377,36.145749 C37.1659919,36.4080972 36.1748988,36.8744939 35.2421053,37.2534267 C35.0159687,37.9292933 34.840583,38.6210927 34.7174089,39.3230623 C37.9530364,38.0113215 39.6145749,36.349783 41.4218623,33.5222526 C41.1891698,34.4924318 40.8671476,35.4389821 40.459919,36.349783 C38.9441296,38.1279085 37.2534413,39.3230623 34.6008097,40.3141433 C34.5716599,42.3254794 35.854251,42.23803 36.0291498,42.1797425 C35.7046008,42.4741682 35.3532795,42.7376592 34.9797571,42.966787 C34.1927126,42.6169895 33.7846154,41.6258964 33.7554656,40.6056534 C32.8518219,40.9262891 31.8607287,41.1886494 30.7238866,41.4801474 C30.6947368,41.8590947 30.6947368,44.0453296 30.1117409,45.2987709 C29.6414795,45.4302328 29.1647283,45.5372634 28.6834008,45.6194332 C28.7975197,45.5200405 28.9046559,45.4129043 29.0040486,45.2987854 L29.0331984,45.2696356 C29.5578947,44.7449393 29.7910931,43.4623482 29.8493927,41.6842105 C28.718105,41.9274256 27.5665084,42.0640557 26.4097166,42.0923077 C26.3805668,43.054251 26.059919,43.7246964 25.5352227,44.1619433 C25.3311741,43.9578729 25.1562753,43.753834 24.9522267,43.5497976 C25.3027685,43.1443787 25.4989121,42.6282114 25.5060729,42.0923077 C25.0979757,42.0631579 24.6315789,42.0340081 24.1651822,42.0048583 C22.9991903,42.5587045 21.6582996,43.2 20.4923077,43.7246964 C23.2801556,46.7625054 26.4903329,49.3836594 30.0242915,51.5076923 C39.9060729,45.4153652 45.3279352,37.8947368 48.3012146,26.7012146 C42.2963563,23.6987854 36.9327935,22.0955466 30.0825911,22.0955466 L30.0825911,22.0955466 Z M30.7530364,39.0315789 C30.7821862,39.5854032 30.7821862,40.0809595 30.7821862,40.605668 C31.9481781,40.314153 32.9392713,40.0226721 33.842915,39.7020243 C33.9137112,39.0104265 34.0503634,38.3271657 34.2510121,37.6615385 C33.9672269,37.7657492 33.6745116,37.8438066 33.3765182,37.8947368 C33.2322559,37.9241774 33.0835335,37.9241774 32.9392713,37.8947368 L32.6477733,38.1862348 C32.0064777,38.4777328 31.394332,38.7692308 30.7530364,39.0315911 L30.7530364,39.0315789 Z M26.3805668,41.0137652 L26.4097166,41.2178138 C27.5877186,41.2201411 28.7618633,41.0831575 29.9076923,40.8097166 L29.9076923,39.4105263 L29.4121457,39.6437247 C29.1789474,39.2064777 29.091498,39.0315789 28.8582996,38.594332 L28.508502,39.4979757 L26.9927126,40.7222672 L26.3805668,41.0137652 Z" id="Shape" fill="#002D62"></path>
            <path d="M21.6582996,30.8696356 C20.1133603,31.3068826 18.7433198,31.9481781 17.6356275,33.1724696 C17.0331887,33.9032838 16.5240149,34.7062118 16.1198381,35.562753 C14.8955466,38.0987854 13.7004049,40.6348178 12.5635628,43.1708502 C12.2720648,43.8412834 11.3684211,45.4445344 12.3303644,45.8817814 C13.4089069,46.1441296 14.7497976,45.2404858 15.6825911,44.7741036 C16.702834,44.2494073 17.7522267,43.7246939 18.7724696,43.2291644 C20.5214575,42.3546704 22.0955466,41.3052777 23.1740891,39.6145895 C23.5652146,38.8764614 23.9155389,38.1174254 24.2234818,37.3409053 C24.8939271,35.6793668 25.5643725,34.0469781 26.2639676,32.4145895 C26.5263158,31.7732939 26.9927126,31.0154113 26.8469636,30.3449538 C26.5554656,29.4413101 25.0105263,29.9951563 24.3692308,30.1700551 C23.465587,30.4032437 22.5619433,30.6364372 21.6582996,30.8696356 Z M19.7052632,40.2850202 C18.8890688,40.6639676 18.1020243,41.0137652 17.28583,41.3927126 C18.4518219,38.6817733 19.6761134,35.9708421 20.9587045,33.259919 C21.6582996,33.0558704 22.3870445,32.7935223 23.1157895,32.5894737 C21.9206478,35.1546559 20.7838057,37.7198381 19.7052632,40.2850202 Z M33.6680162,28.0421053 C32.5311741,29.5287595 31.4234818,31.0153968 30.3157895,32.5020243 C30.8404858,31.1611336 31.3651822,29.7910931 31.8898785,28.4210526 C30.7238866,28.654251 29.5287449,28.9165992 28.3919028,29.1789474 C28.0712551,29.8785425 27.7797571,30.5781377 27.4882591,31.3068826 C27.7272018,31.2254038 27.9704928,31.1572823 28.217004,31.102834 C27.3133603,33.3182186 26.4097166,35.5336032 25.5352227,37.7781377 C25.1562753,38.6817814 24.8064777,39.6145749 24.4566802,40.5182186 C25.6226721,39.9643725 26.8178138,39.4105117 27.9838057,38.88583 C28.508502,37.3991903 29.0331984,35.9417004 29.5870445,34.4550607 C30.0825911,35.4753036 30.5781377,36.4663968 31.0736842,37.4574899 C31.8315789,37.1368421 32.5894737,36.7870445 33.3473684,36.4663968 C32.8809717,35.417017 32.4145749,34.3676243 31.9481781,33.3182186 C32.7935223,32.0356275 33.6388664,30.7530364 34.4842105,29.4995951 C34.7174089,29.4412955 34.9797571,29.4121457 35.2129555,29.3538462 C35.417004,28.8 35.5919028,28.2461538 35.7668016,27.6923077 C35.0672065,27.8089166 34.3676113,27.9255158 33.6680162,28.0421053 Z M38.2153846,27.2842275 C37.5849886,27.3688496 36.9952876,27.6433656 36.5246964,28.0712721 C36.1713128,28.4866762 35.9126829,28.9740891 35.7668016,29.4995976 C35.2712551,31.0736866 34.7757085,32.6477757 34.2510121,34.2218648 C34.0469636,34.8340105 33.7263158,35.9708526 34.7174089,35.912553 C35.0616813,35.8399117 35.3949035,35.7223031 35.708502,35.562753 C36.7287449,35.1255061 37.7489879,34.7174089 38.7692308,34.3093117 C39.0024291,33.3182186 39.2647773,32.3271255 39.5271255,31.3360324 C39.0024291,31.4817814 38.4777328,31.6566972 37.9238866,31.8315789 C37.7781377,32.2979757 37.6615385,32.7352227 37.5449393,33.2016194 C37.1659919,33.3182186 36.7870445,33.4639676 36.437247,33.5805522 C36.9036437,31.9773134 37.3408907,30.4032243 37.8364372,28.8000024 C38.157085,28.712553 38.4777328,28.6542534 38.7983806,28.566804 C38.7380044,28.8530883 38.6601254,29.1353997 38.5651822,29.4121482 C39.0607287,29.295549 39.5271255,29.1789498 40.0226721,29.0623506 C40.1975709,28.3627555 40.3724696,27.6340105 40.5473684,26.9052656 C39.7894737,27.0218623 39.0024291,27.1676113 38.2153846,27.2842275 Z" id="Shape" fill="#FFFFFF"></path>
            <path d="M42.4712551,25.7975709 C42.9376518,25.9724696 43.4040486,26.1182186 43.8704453,26.2931174 C44.9781377,26.7303644 45.9692308,27.1384615 46.8145749,27.5465587 C44.3525534,36.1448987 39.0246832,43.6430017 31.7149798,48.7967611 L31.1319838,49.2048583 C29.9315297,48.3090493 28.7831087,47.3455476 27.6923077,46.3190405 L28.7125506,46.1732915 C37.6399921,44.6592521 43.6694852,36.2205664 42.2089069,27.2842227 C42.1797571,27.1676235 42.1506073,27.0510243 42.1214575,26.9344251 L42.0923077,26.8178259 L42.0631579,26.7886761 L41.9465587,26.3805789 L41.9174089,26.3222672 L41.8882591,26.205668 L41.8591093,26.1765182 L41.8591093,26.1182186 C41.828038,25.9483825 41.7791861,25.7822863 41.7133603,25.6226721 C41.96881,25.668005 42.2217724,25.7263809 42.4712551,25.7975709 Z M42.5587045,25.91417 C42.9959514,26.059919 43.4623482,26.2348057 43.8995951,26.3805668 C43.4623482,26.2348178 42.9959514,26.059919 42.5587045,25.9141822 L42.5587045,25.91417 Z" id="Shape" fill="#007AC1"></path>
        </g>
    </g>
</svg>