<?xml version="1.0" encoding="UTF-8"?>
<svg width="60px" height="60px" viewBox="0 0 60 60" version="1.1" xmlns="http://www.w3.org/2000/svg" xmlns:xlink="http://www.w3.org/1999/xlink">
    <!-- Generator: Sketch 43.2 (39069) - http://www.bohemiancoding.com/sketch -->
    <title>Slice</title>
    <desc>Created with Sketch.</desc>
    <defs>
        <rect id="path-1" x="0.000171806167" y="0" width="52.5379427" height="59.9375471"></rect>
        <rect id="path-3" x="0.000171806167" y="0" width="52.5379427" height="59.9375471"></rect>
        <rect id="path-5" x="0.000171806167" y="0" width="52.5379427" height="59.9375471"></rect>
        <rect id="path-7" x="0.000171806167" y="0" width="52.5379427" height="59.9375471"></rect>
        <rect id="path-9" x="0.000171806167" y="0" width="52.5379427" height="59.9375471"></rect>
        <rect id="path-11" x="0.000171806167" y="0" width="52.5379427" height="59.9375471"></rect>
        <rect id="path-13" x="0.000171806167" y="0" width="52.5379427" height="59.9375471"></rect>
        <rect id="path-15" x="0.000171806167" y="0" width="52.5379427" height="59.9375471"></rect>
        <rect id="path-17" x="0.000171806167" y="0" width="52.5379427" height="59.9375471"></rect>
        <rect id="path-19" x="0.000171806167" y="0" width="52.5379427" height="59.9375471"></rect>
        <rect id="path-21" x="0.000171806167" y="0" width="52.5379427" height="59.9375471"></rect>
        <rect id="path-23" x="0.000171806167" y="0" width="52.5379427" height="59.9375471"></rect>
        <rect id="path-25" x="0.000171806167" y="0" width="52.5379427" height="59.9375471"></rect>
        <rect id="path-27" x="0.000171806167" y="0" width="52.5379427" height="59.9375471"></rect>
        <rect id="path-29" x="0.000171806167" y="0" width="52.5379427" height="59.9375471"></rect>
        <rect id="path-31" x="0.000171806167" y="0" width="52.5379427" height="59.9375471"></rect>
        <rect id="path-33" x="0.000171806167" y="0" width="52.5379427" height="59.9375471"></rect>
        <rect id="path-35" x="0.000171806167" y="0" width="52.5379427" height="59.9375471"></rect>
        <rect id="path-37" x="0.000171806167" y="0" width="52.5379427" height="59.9375471"></rect>
        <rect id="path-39" x="0.000171806167" y="0" width="52.5379427" height="59.9375471"></rect>
        <rect id="path-41" x="0.000171806167" y="0" width="52.5379427" height="59.9375471"></rect>
    </defs>
    <g id="Page-1" stroke="none" stroke-width="1" fill="none" fill-rule="evenodd">
        <g id="SAC" transform="translate(4.000000, 0.000000)">
            <g id="Clipped">
                <mask id="mask-2" fill="white">
                    <use xlink:href="#path-1"></use>
                </mask>
                <g id="Rectangle-path"></g>
                <path d="M52.5379348,0 L45.0189674,7.54850485 L38.7350247,1.27250749 L32.422237,7.54936916 L26.1488326,1.27250749 L19.8776722,7.54850485 L13.6023648,1.27250749 L7.33242291,7.55178502 L0,0.150449339 L0,33.5740097 C0,48.1101595 11.6617374,59.9375471 26.1894264,59.9375471 C40.7388416,59.9174512 52.5261369,48.1234313 52.5379348,33.574007 L52.5379348,0 Z" id="Shape" fill="#FFFFFF" fill-rule="nonzero" mask="url(#mask-2)"></path>
            </g>
            <g id="Clipped">
                <mask id="mask-4" fill="white">
                    <use xlink:href="#path-3"></use>
                </mask>
                <g id="Rectangle-path"></g>
                <path d="M2.34533656,38.1517163 C2.96520794,41.2995966 4.20888489,44.2915626 6.00308194,46.9513084 C7.09559471,45.0352097 9.2814978,42.654978 13.5745586,41.6436396 C13.2448176,40.5412758 12.9510026,39.369296 12.7017515,38.1515445 L2.34533656,38.1515445 L2.34533656,38.1517163 Z" id="Shape" fill="#5C6670" fill-rule="nonzero" mask="url(#mask-4)"></path>
            </g>
            <g id="Clipped">
                <mask id="mask-6" fill="white">
                    <use xlink:href="#path-5"></use>
                </mask>
                <g id="Rectangle-path"></g>
                <path d="M7.71605022,49.2161524 C12.2918301,54.6233714 18.9956839,57.7696315 26.0788758,57.8342141 C25.414726,57.4949736 24.7649154,57.1215251 24.1398026,56.7195885 C21.1543242,54.7898432 17.049896,51.0343322 14.3996934,44.0720749 C10.2285938,44.9811568 8.46293921,47.3456722 7.71605022,49.2161683" id="Shape" fill="#5C6670" fill-rule="nonzero" mask="url(#mask-6)"></path>
            </g>
            <g id="Clipped">
                <mask id="mask-8" fill="white">
                    <use xlink:href="#path-7"></use>
                </mask>
                <g id="Rectangle-path"></g>
                <path d="M16.9695806,43.7065612 C18.8506176,48.4354123 21.6925559,52.0691445 25.4226767,54.5082767 C27.3698401,55.7859157 29.5351381,56.6949981 31.8107736,57.1902661 C35.7247692,56.2725957 39.3512845,54.4017826 42.3677313,51.7442405 C39.9890564,51.4837639 37.5501013,50.1148705 34.9755463,48.6711938 C30.9557577,46.4148132 25.9496775,43.6070749 19.1910714,43.6070749 C18.4612916,43.6070749 17.7156053,43.6423084 16.9695806,43.7065612" id="Shape" fill="#5C6670" fill-rule="nonzero" mask="url(#mask-8)"></path>
            </g>
            <g id="Clipped">
                <mask id="mask-10" fill="white">
                    <use xlink:href="#path-9"></use>
                </mask>
                <g id="Rectangle-path"></g>
                <path d="M27.1321877,25.8520837 L18.441074,25.8520837 L18.441074,36.1995172 L22.0516626,36.1995172 L22.0516626,27.8994714 L24.7640537,27.8994714 L24.7640537,36.1996969 L28.205022,36.1996969 L28.205022,27.301467 C28.2048476,26.5131251 27.7231004,25.8520837 27.1321877,25.8520837" id="Shape" fill="#5B2B82" fill-rule="nonzero" mask="url(#mask-10)"></path>
            </g>
            <g id="Clipped">
                <mask id="mask-12" fill="white">
                    <use xlink:href="#path-11"></use>
                </mask>
                <g id="Rectangle-path"></g>
                <path d="M29.7262599,25.8520837 L29.7262599,34.7287137 C29.7262599,35.5187841 30.2040344,36.199689 30.7932159,36.199689 L39.4756996,36.199689 L39.4756996,29.9173031 L36.0091797,29.9133383 L36.0091797,34.1497295 L33.2979991,34.1497295 L33.2979991,27.8492009 L39.4758846,27.8492009 L39.4758846,25.8520863 L29.7262811,25.8520863 L29.7262599,25.8520837 Z" id="Shape" fill="#5B2B82" fill-rule="nonzero" mask="url(#mask-12)"></path>
            </g>
            <g id="Clipped">
                <mask id="mask-14" fill="white">
                    <use xlink:href="#path-13"></use>
                </mask>
                <g id="Rectangle-path"></g>
                <polygon id="Shape" fill="#5B2B82" fill-rule="nonzero" mask="url(#mask-14)" points="8.83215859 25.8520705 6.86828194 30.0306608 5.73409692 30.0306608 5.73409692 25.8520705 2.14017621 25.8520705 2.14017621 36.1995595 5.73409692 36.1995595 5.73409692 32.0360352 6.86828194 32.0360352 8.83215859 36.1995595 12.4226432 36.1995595 9.89022026 31.0332159 12.4226432 25.8520705"></polygon>
            </g>
            <g id="Clipped">
                <mask id="mask-16" fill="white">
                    <use xlink:href="#path-15"></use>
                </mask>
                <g id="Rectangle-path"></g>
                <rect id="Rectangle-path" fill="#5B2B82" fill-rule="nonzero" mask="url(#mask-16)" x="13.3788555" y="25.8520837" width="3.7206185" height="10.3474308"></rect>
            </g>
            <g id="Clipped">
                <mask id="mask-18" fill="white">
                    <use xlink:href="#path-17"></use>
                </mask>
                <g id="Rectangle-path"></g>
                <path d="M50.407652,28.6504916 L50.407652,25.8520705 L40.8680828,25.8520705 L40.8680828,30.5793833 C40.8680828,31.3675533 41.3467189,32.007867 41.9346925,32.007867 L46.7953348,32.007867 L46.7953348,34.263037 L40.8682546,34.263037 L40.8682546,36.199689 L50.4124837,36.199689 L50.4124837,31.4497797 C50.4124837,30.7148115 50.0065639,30.0242326 49.4600432,30.0242326 L44.4486159,30.0242326 L44.4486159,27.8574978 L46.95563,27.8574978 L46.95563,28.6506608 L50.407652,28.6506608 L50.407652,28.6504916 Z" id="Shape" fill="#5B2B82" fill-rule="nonzero" mask="url(#mask-18)"></path>
            </g>
            <g id="Clipped">
                <mask id="mask-20" fill="white">
                    <use xlink:href="#path-19"></use>
                </mask>
                <g id="Rectangle-path"></g>
                <polygon id="Shape" fill="#5B2B82" fill-rule="nonzero" mask="url(#mask-20)" points="40.259207 15.3576211 37.2129515 15.3576211 43.4957709 9.07189427 38.7351542 4.31973568 32.4222026 10.5954185 26.1488987 4.31973568 15.1194714 15.3576211 12.0734802 15.3576211 18.3454626 9.06237885 13.6022907 4.31973568 7.33242291 10.5954185 2.14044053 5.4414978 2.14044053 15.7398238 2.14044053 23.9532159 50.4068722 23.9532159 50.4068722 15.987489 50.4068722 5.20255507"></polygon>
            </g>
            <g id="Clipped">
                <mask id="mask-22" fill="white">
                    <use xlink:href="#path-21"></use>
                </mask>
                <g id="Rectangle-path"></g>
                <path d="M12.6844758,21.9642608 C12.6847409,22.2327431 12.9017168,22.4506447 13.1701956,22.4520529 L15.8825841,22.4520529 L15.8825841,21.723304 L13.6719753,21.723304 L13.6719753,19.3596476 L15.8825841,19.3596476 L15.8825841,18.6326326 L12.6844758,18.6326326 L12.6844758,21.9642608 Z" id="Shape" fill="#FFFFFF" fill-rule="nonzero" mask="url(#mask-22)"></path>
            </g>
            <g id="Clipped">
                <mask id="mask-24" fill="white">
                    <use xlink:href="#path-23"></use>
                </mask>
                <g id="Rectangle-path"></g>
                <path d="M8.26257093,18.6324581 L8.26257093,22.4518784 L9.24920881,22.4518784 L9.24920881,21.45263 L10.4729974,21.45263 L10.4729974,22.4518784 L11.4604863,22.4518784 L11.4604863,19.1192115 C11.4578126,18.9810722 11.3979103,18.8502426 11.2950823,18.7579604 C11.1922542,18.6656783 11.0557301,18.6202268 10.9181075,18.6324581 L8.26257093,18.6324581 Z M10.4731797,20.7261145 L9.24920881,20.7261145 L9.24920881,19.3603454 L10.4731797,19.3603454 L10.4731797,20.7261145 Z" id="Shape" fill="#FFFFFF" fill-rule="nonzero" mask="url(#mask-24)"></path>
            </g>
            <g id="Clipped">
                <mask id="mask-26" fill="white">
                    <use xlink:href="#path-25"></use>
                </mask>
                <g id="Rectangle-path"></g>
                <path d="M48.1298485,18.6324581 L45.8921392,18.6324581 C45.6251835,18.6328717 45.4087692,18.8489765 45.4079736,19.1159313 L45.4079736,21.9644326 C45.4084703,22.2321296 45.6244509,22.4494956 45.8921392,22.451704 L48.1298485,22.451704 C48.397942,22.4490133 48.6138928,22.2309828 48.6140141,21.9628758 L48.6140141,19.1159313 C48.6134634,18.8488745 48.3969057,18.6326266 48.1298485,18.6324581 L48.1298485,18.6324581 Z M47.6225366,21.7176026 L46.4028846,21.7176026 L46.4028846,19.3587912 L47.6225366,19.3587912 L47.6225366,21.7176026 Z" id="Shape" fill="#FFFFFF" fill-rule="nonzero" mask="url(#mask-26)"></path>
            </g>
            <g id="Clipped">
                <mask id="mask-28" fill="white">
                    <use xlink:href="#path-27"></use>
                </mask>
                <g id="Rectangle-path"></g>
                <path d="M3.83703965,20.4195304 C3.83790285,20.6877247 4.05525428,20.9048446 4.32344934,20.905422 L6.04747401,20.905422 L6.04747401,21.7229551 L3.83703965,21.7229551 L3.83703965,22.451704 L7.03514802,22.451704 L7.03514802,20.6632599 C7.03583433,20.4147369 6.84811977,20.2061141 6.60090396,20.1806485 L6.57394361,20.1782273 L4.82281322,20.1782273 L4.82281322,19.3594784 L7.03514802,19.3594784 L7.03514802,18.6324555 L3.83703965,18.6324555 L3.83703965,20.4195304 Z" id="Shape" fill="#FFFFFF" fill-rule="nonzero" mask="url(#mask-28)"></path>
            </g>
            <g id="Clipped">
                <mask id="mask-30" fill="white">
                    <use xlink:href="#path-29"></use>
                </mask>
                <g id="Rectangle-path"></g>
                <path d="M24.1591507,18.6324581 L21.4484881,18.6324581 L21.4484881,22.4518784 L22.4359771,22.4518784 L22.4359771,21.45263 L23.6599454,21.45263 L23.6599454,22.4518784 L24.6481374,22.4518784 L24.6481374,19.1192115 C24.6466697,18.8501187 24.4282341,18.6326867 24.1591374,18.6324581 L24.1591507,18.6324581 Z M23.6597709,20.7261145 L22.4358159,20.7261145 L22.4358159,19.3603454 L23.6597841,19.3603454 L23.6597709,20.7261145 Z" id="Shape" fill="#FFFFFF" fill-rule="nonzero" mask="url(#mask-30)"></path>
            </g>
            <g id="Clipped">
                <mask id="mask-32" fill="white">
                    <use xlink:href="#path-31"></use>
                </mask>
                <g id="Rectangle-path"></g>
                <polygon id="Shape" fill="#FFFFFF" fill-rule="nonzero" mask="url(#mask-32)" points="41.105815 19.3585903 42.2130396 19.3585903 42.2130396 22.45163 43.1984141 22.45163 43.1984141 19.3585903 44.3043172 19.3585903 44.3043172 18.632511 41.105815 18.632511"></polygon>
            </g>
            <g id="Clipped">
                <mask id="mask-34" fill="white">
                    <use xlink:href="#path-33"></use>
                </mask>
                <g id="Rectangle-path"></g>
                <path d="M30.8681841,18.6324581 L25.9579639,18.6324581 L25.9579639,22.4520529 L26.9452943,22.4520529 L26.9452943,19.3600018 L28.1559648,19.3600018 L28.1559648,22.4520529 L29.156593,22.4520529 L29.156593,19.3600018 L30.3663991,19.3600018 L30.3663991,22.4520529 L31.3540731,22.4520529 L31.3540731,19.1185242 C31.3529171,18.8506256 31.1360796,18.6337103 30.8681815,18.6324581" id="Shape" fill="#FFFFFF" fill-rule="nonzero" mask="url(#mask-34)"></path>
            </g>
            <g id="Clipped">
                <mask id="mask-36" fill="white">
                    <use xlink:href="#path-35"></use>
                </mask>
                <g id="Rectangle-path"></g>
                <path d="M39.6187189,18.6324581 L36.9077101,18.6324581 L36.9077101,22.4520529 L37.8945225,22.4520529 L37.8945225,19.3600018 L39.1184934,19.3600018 L39.1184934,22.4520529 L40.1059956,22.4520529 L40.1059956,19.1185242 C40.1047973,18.850103 39.8871423,18.6329888 39.6187189,18.6324581" id="Shape" fill="#FFFFFF" fill-rule="nonzero" mask="url(#mask-36)"></path>
            </g>
            <g id="Clipped">
                <mask id="mask-38" fill="white">
                    <use xlink:href="#path-37"></use>
                </mask>
                <g id="Rectangle-path"></g>
                <path d="M32.6984352,21.9642608 C32.6981717,22.2330295 32.9155619,22.4512687 33.1843295,22.4520529 L35.8941251,22.4520529 L35.8941251,21.723304 L33.6859374,21.723304 L33.6859374,20.9045577 L35.8941251,20.9045577 L35.8941251,20.1790916 L33.6859374,20.1790916 L33.6859374,19.3596476 L35.8941251,19.3596476 L35.8941251,18.6326326 L32.6984326,18.6326326 L32.6984326,21.9642608 L32.6984352,21.9642608 Z" id="Shape" fill="#FFFFFF" fill-rule="nonzero" mask="url(#mask-38)"></path>
            </g>
            <g id="Clipped">
                <mask id="mask-40" fill="white">
                    <use xlink:href="#path-39"></use>
                </mask>
                <g id="Rectangle-path"></g>
                <path d="M19.6892247,21.0622599 L20.2172643,21.0622599 L20.2172643,19.1183498 C20.2136027,18.9806224 20.1533773,18.8504831 20.0507578,18.7585512 C19.9481383,18.6666192 19.8121852,18.6210113 19.6748855,18.6324581 L17.0189815,18.6324581 L17.0189815,22.4518784 L18.0056194,22.4518784 L18.0056194,21.0624317 L18.7215859,21.0624317 L19.3124987,22.4518784 L20.2742643,22.4518784 L19.6892247,21.0622599 Z M19.2295771,20.3359163 L18.0057885,20.3359163 L18.0057885,19.3596476 L19.2295771,19.3596476 L19.2295771,20.3359163 Z" id="Shape" fill="#FFFFFF" fill-rule="nonzero" mask="url(#mask-40)"></path>
            </g>
            <g id="Clipped">
                <mask id="mask-42" fill="white">
                    <use xlink:href="#path-41"></use>
                </mask>
                <g id="Rectangle-path"></g>
                <path d="M18.6642423,41.0819233 C23.806607,40.9774176 28.8919718,42.2649542 35.3811172,45.9627727 C40.1775013,48.6957145 42.2848176,49.5246502 43.7229674,49.1707242 C45.0481559,48.8447815 46.2773075,48.0619639 48.4461145,43.4782123 C49.2232445,41.7763105 49.7976014,39.9889484 50.1573595,38.1529269 L15.2707744,38.1529269 C15.5136344,39.2096907 15.7521753,40.2607559 16.0712088,41.2277075 C16.9321846,41.1311067 17.7978643,41.0824369 18.6642423,41.0819233" id="Shape" fill="#5C6670" fill-rule="nonzero" mask="url(#mask-42)"></path>
            </g>
        </g>
    </g>
</svg>