<?xml version="1.0" encoding="UTF-8"?>
<svg width="60px" height="60px" viewBox="0 0 60 60" version="1.1" xmlns="http://www.w3.org/2000/svg" xmlns:xlink="http://www.w3.org/1999/xlink">
    <title>PHI</title>
    <g id="Page-1" stroke="none" stroke-width="1" fill="none" fill-rule="evenodd">
        <g id="PHI" fill-rule="nonzero">
            <path d="M59.9771782,29.9885891 C59.9771782,46.5508295 46.5508295,59.9771782 29.9885891,59.9771782 C13.4263487,59.9771782 2.02828947e-15,46.5508295 0,29.9885891 C-2.02828947e-15,13.4263487 13.4263487,1.46681786e-15 29.9885891,-1.57561628e-15 C37.9425125,-0.0014847485 45.5710902,3.15754145 51.1953635,8.78181473 C56.8196367,14.406088 59.9786629,22.0346657 59.9771782,29.9885891" id="Shape" fill="#FFFFFF"></path>
            <path d="M58.8734345,29.9885891 C58.8734356,41.6714188 51.8358697,52.2038824 41.0423428,56.6747086 C30.2488159,61.1455347 17.8249284,58.6742706 9.56391996,50.4132629 C1.30291148,42.1522552 -1.16835379,29.728368 3.30247131,18.9348406 C7.77329642,8.14131332 18.3057594,1.10374636 29.9885891,1.10374636 C45.9411323,1.10402501 58.8731544,14.0360459 58.8734345,29.9885891" id="Shape" fill="#006BB6"></path>
            <polygon id="Shape" fill="#FFFFFF" points="5.56036364 34.9137273 6.15381818 36.7985455 8.15318182 36.7985455 6.53918182 37.9750909 7.12227273 39.8285455 5.56036364 38.6937273 3.97772727 39.8285455 4.57118182 37.9750909 2.94681818 36.7985455 4.94590909 36.7985455"></polygon>
            <polygon id="Shape" fill="#FFFFFF" points="54.4270909 34.9137273 55.0208182 36.7985455 57.0302727 36.7985455 55.4059091 37.9750909 55.9996364 39.8285455 54.4270909 38.6937273 52.8548182 39.8285455 53.4485455 37.9750909 51.8239091 36.7985455 53.8129091 36.7985455"></polygon>
            <polygon id="Shape" fill="#FFFFFF" points="12.5784545 45.0141818 13.1721818 46.8883636 15.1712727 46.8883636 13.5469091 48.0755455 14.1403636 49.929 12.5784545 48.7939091 10.9958182 49.929 11.5892727 48.0755455 9.96490909 46.8883636 11.9642727 46.8883636"></polygon>
            <polygon id="Shape" fill="#FFFFFF" points="48.0651818 45.0141818 48.6586364 46.8883636 50.6577273 46.8883636 49.0437273 48.0755455 49.6374545 49.929 48.0651818 48.7939091 46.4822727 49.929 47.0863636 48.0755455 45.462 46.8883636 47.4507273 46.8883636"></polygon>
            <polygon id="Shape" fill="#FFFFFF" points="23.5221818 51.5844545 24.1055455 53.4692727 26.115 53.4692727 24.4906364 54.6458182 25.0840909 56.4992727 23.5221818 55.3644545 21.9395455 56.4992727 22.533 54.6458182 20.9086364 53.4692727 22.908 53.4692727"></polygon>
            <polygon id="Shape" fill="#FFFFFF" points="36.8192727 51.5844545 37.4127273 53.4692727 39.4120909 53.4692727 37.7877273 54.6458182 38.3811818 56.4992727 36.8192727 55.3644545 35.2366364 56.4992727 35.8300909 54.6458182 34.2057273 53.4692727 36.2050909 53.4692727"></polygon>
            <path d="M51.6470155,30.1239545 C51.6470155,42.0855731 41.9502077,51.7823809 29.9885891,51.7823809 C18.0269705,51.7823809 8.33016273,42.0855731 8.33016273,30.1239545 C8.33016273,18.162336 18.0269705,8.46552818 29.9885891,8.46552818 C35.7330295,8.464652 41.2424441,10.746234 45.3043768,14.8081668 C49.3663096,18.8700996 51.6478916,24.3795142 51.6470155,30.1239545" id="Shape" fill="#FFFFFF"></path>
            <path d="M9.62133818,34.3827518 C11.9758842,45.6295834 22.9994202,52.8403282 34.2473864,50.4912082 C39.6657131,49.4035944 44.411193,46.1647941 47.3986336,41.5154536 C50.3835515,36.8823415 51.4444159,31.2679807 50.3558427,25.86516 C47.9991997,14.6236803 36.986402,7.41225509 25.7402073,9.74629364 C20.3350223,10.8745388 15.5997062,14.1044378 12.5766015,18.7250221 C9.55349678,23.3456064 8.49040615,28.9781284 9.62133818,34.3827518" id="Shape" fill="#006BB6"></path>
            <path d="M37.06923,13.9113736 C37.1421191,14.7235555 36.7568482,15.5149309 35.9446582,16.2646473 C32.0398936,13.4011527 28.3225555,11.9954373 24.6781091,11.9746118 C23.9145647,11.9749893 23.1521832,12.0341697 22.3977273,12.1516282 C23.5602121,11.6631806 24.7665976,11.2866213 26.0005255,11.0270564 C29.2060535,10.3530013 32.5299316,10.4998529 35.6635255,11.4539755 C36.34035,12.1099745 36.9963436,12.9638182 37.0692409,13.9113736" id="Shape" fill="#FFFFFF"></path>
            <path d="M32.9978618,47.5235836 C37.1004545,43.7541818 39.006,35.68434 40.1409764,30.8632555 L40.3179927,30.1135282 C40.9011055,27.65613 41.9319627,25.8234927 43.0461245,24.7301645 C47.1591409,31.1235655 46.6072691,37.7252236 45.5659991,41.8694782 C41.8734061,46.757186 36.1039393,49.6322859 29.9781818,49.6373591 C31.0776446,49.0757939 32.0938902,48.3644221 32.9978618,47.5235836" id="Shape" fill="#FFFFFF"></path>
            <path d="M40.4533636,20.1381818 C42.1193973,18.7428791 43.4522209,17.6807809 44.3997764,16.9831309 C46.4634752,19.2392476 47.9654537,21.9506562 48.7835264,24.8967845 C48.0129873,23.8659273 47.0341936,22.8871336 45.9720955,22.6684664 C45.0557809,22.4810373 44.1186409,22.7413555 43.2335564,23.3661191 C42.3942298,22.2178476 41.4645437,21.1384375 40.4533636,20.1381818" id="Shape" fill="#FFFFFF"></path>
            <path d="M10.86045,29.2492882 C12.7555636,24.1678882 19.7008391,22.0853455 22.3144255,21.3043936 L22.4289709,21.2731555 C23.5878663,20.9710485 24.7629028,20.7346501 25.9484645,20.56509 C29.3117673,19.9923927 33.4664373,19.2843273 35.9758964,17.4100391 C37.0680919,18.2449375 38.1143599,19.1382625 39.1101218,20.0861045 C33.4351964,24.9071918 24.6572727,33.0082745 15.2962636,42.9524073 C13.0910965,40.4355921 11.5770015,37.3894635 10.9021009,34.1120209 C10.6245971,32.8043422 10.4849982,31.4711663 10.4855945,30.1343673 C10.7042618,29.6137309 10.86045,29.2492882 10.86045,29.2492882" id="Shape" fill="#FFFFFF"></path>
            <path d="M39.7973591,19.503 C38.8038921,18.553375 37.7611799,17.6566443 36.6735409,16.8165218 C37.6210991,15.8897945 38.0584309,14.89017 37.9647164,13.8280745 C37.8999653,13.193541 37.6780816,12.5851519 37.3191273,12.0579164 C39.7259724,13.0460835 41.9157529,14.4965029 43.7645918,16.3271236 C42.7857982,17.0560145 41.4425591,18.1285227 39.7973536,19.503" id="Shape" fill="#FFFFFF"></path>
            <path d="M35.2157673,16.8477573 C32.8624964,18.47214 28.9681445,19.1385518 25.7922709,19.6696009 C24.5725343,19.8493294 23.3630142,20.0926233 22.16865,20.3984891 L22.0541045,20.4297273 C19.54464,21.1794545 13.2345436,23.0641418 10.6313673,27.6144955 C11.0117983,24.6961298 12.0477022,21.9016866 13.6614709,19.4405209 C15.048652,17.3090162 16.8213812,15.4550652 18.8886464,13.97385 C23.5118864,12.0266727 28.6974136,12.1620382 35.2157673,16.8477573" id="Shape" fill="#FFFFFF"></path>
            <path d="M45.7846636,23.5535455 C47.1487282,23.8346891 48.6065073,26.1254836 49.3041573,27.4374818 C49.9121613,31.6956052 49.0802356,36.034806 46.9404709,39.7661182 C47.0445982,39.1101191 47.1279,38.4124664 47.1903764,37.6835727 C47.5772183,32.9072501 46.3647322,28.1378969 43.7437691,24.1262318 C44.4518345,23.6264209 45.1599027,23.4285791 45.7846636,23.5535345" id="Shape" fill="#FFFFFF"></path>
            <path d="M39.7661182,20.7212727 C40.7791522,21.7139101 41.7025293,22.7940865 42.5254855,23.94921 C41.1926673,25.21956 40.0576718,27.3229255 39.4433236,29.9052791 L39.2663073,30.6654055 C38.1521455,35.3927727 36.2882727,43.2960136 32.3939209,46.8675873 C31.0928744,48.1008163 29.5197745,49.0104322 27.8019191,49.5228273 C24.7679235,49.1795753 21.8572476,48.1273088 19.30515,46.4510782 C18.0686673,45.6401371 16.9266063,44.693658 15.9001964,43.6292345 C25.3549364,33.5705591 34.1640845,25.4798891 39.7661182,20.7212727" id="Shape" fill="#FFFFFF"></path>
            <path d="M35.3719582,35.9134173 L35.9030073,35.7676418 C36.2258018,35.68434 36.4340564,35.5802127 36.4340564,35.1116427 C36.4340564,34.7263691 36.3299291,34.0287218 35.8613564,34.0287218 C35.3719582,34.0287218 35.3719582,34.8617373 35.3719582,35.3094818 L35.3719582,35.9134173 Z" id="Shape" fill="#FFFFFF"></path>
            <path d="M29.0306182,35.6218636 C29.0306182,33.95583 28.9681418,32.5188791 27.8435727,32.5188791 C26.9272555,32.5188791 26.7606518,33.95583 26.7606518,35.6218636 C26.7606518,37.2878973 26.7085882,38.7352609 27.8435727,38.7352609 C28.7911282,38.7248482 29.0306182,37.2878973 29.0306182,35.6218636" id="Shape" fill="#FFFFFF"></path>
            <path d="M35.3719582,35.9134173 L35.9030073,35.7676418 C36.2258018,35.68434 36.4340564,35.5802127 36.4340564,35.1116427 C36.4340564,34.7263691 36.3299291,34.0287218 35.8613564,34.0287218 C35.3719582,34.0287218 35.3719582,34.8617373 35.3719582,35.3094818 L35.3719582,35.9134173 Z" id="Shape" fill="#FFFFFF"></path>
            <path d="M26.6252864,31.8003982 L26.6461118,31.8003982 C27.1875736,30.95697 28.2184309,30.5508736 29.22846,30.5508736 C31.5192545,30.5508736 32.92497,32.5292891 32.92497,35.1845291 C32.92497,38.3291673 30.7903664,40.2034527 28.1559518,40.2034527 C24.1054064,40.2034527 22.6268073,36.9338645 22.6268073,33.1436345 C22.6268073,28.7807127 24.5219209,25.1779173 29.2388727,25.1779173 C31.0819227,25.1779173 32.5917655,26.3649627 32.5917655,28.1767745 C32.6064205,28.6505626 32.4224593,29.1089271 32.0843272,29.4411266 C31.746195,29.7733261 31.2846463,29.9491458 30.8111918,29.9261073 C29.5408418,29.9261073 29.1347373,28.8640091 28.9473191,27.9268664 C28.87443,27.5311855 29.0202082,26.6565027 28.3642064,26.6565027 C26.9897291,26.6565027 26.7710645,29.3429809 26.7085882,30.3321873 L26.6252864,31.8003982 Z" id="Shape" fill="#FFFFFF"></path>
            <path d="M29.0306182,35.6218636 C29.0306182,33.95583 28.9681418,32.5188791 27.8435727,32.5188791 C26.9272555,32.5188791 26.7606518,33.95583 26.7606518,35.6218636 C26.7606518,37.2878973 26.7085882,38.7352609 27.8435727,38.7352609 C28.7911282,38.7248482 29.0306182,37.2878973 29.0306182,35.6218636" id="Shape" fill="#FFFFFF"></path>
            <path d="M4.46705182,25.3445236 C5.23759091,25.4382355 5.54997273,25.9797055 5.43543273,26.9793191 L5.35213091,27.7082073 L5.76863727,27.7602709 C6.29968636,27.8227473 6.49752818,27.8123345 6.56000455,27.3854127 L7.0494,27.4478891 L6.82032273,29.4263045 L6.33092455,29.3638282 C6.37257545,28.9264936 6.17473364,28.87443 5.64368727,28.8119564 L4.10260636,28.6349373 C3.57155727,28.5724609 3.37371545,28.5828736 3.31123909,29.0097955 L2.82184364,28.9473191 L3.08216182,26.7814773 C3.20711455,25.7193818 3.67568455,25.2508091 4.46705182,25.3445236 Z M4.88355818,27.4478891 C4.95644727,26.79189 4.76901273,26.4378573 4.30044818,26.3857936 C3.89435727,26.33373 3.60279545,26.5940482 3.54031909,27.0834464 C3.49866818,27.4270636 3.62362091,27.4999527 3.99847909,27.5416036 L4.85232,27.6457309 C4.86272727,27.5832545 4.87314545,27.5207782 4.88355818,27.4478891 L4.88355818,27.4478891 Z" id="Shape" fill="#FFFFFF"></path>
            <path d="M7.36178182,23.1578536 C7.51797273,22.7517627 7.35136909,22.6476327 6.86197091,22.4393782 L5.43543273,21.8458555 C4.94603455,21.6376009 4.74819273,21.59595 4.57117636,21.9916309 L4.11301636,21.8042018 L4.88355818,19.9715673 L5.33130545,20.1589964 C5.17511455,20.5650873 5.34171818,20.6692173 5.83111364,20.8774718 L6.19555909,21.0336627 L6.76825909,19.6591855 L6.40381364,19.5029945 C5.91441545,19.29474 5.71657636,19.2530891 5.53955727,19.6487727 L5.09181818,19.4613436 L5.86235727,17.6287064 L6.32051727,17.8161355 C6.16432636,18.2222264 6.33093,18.3263564 6.82032818,18.5346109 L8.24686636,19.1281364 C8.73626455,19.3363882 8.93410636,19.3780391 9.11112273,18.9823582 L9.56928,19.1697873 L8.79872727,21.0024245 L8.35098,20.8149955 C8.50717091,20.4089045 8.34056727,20.3047718 7.85117182,20.0965173 L7.22640818,19.8362018 L6.65372727,21.2106764 L7.27849091,21.4709945 C7.76788636,21.6792491 7.96572818,21.7209 8.14274455,21.3252191 L8.59049182,21.5126482 L7.81995273,23.3452827 L7.36178182,23.1578536 Z" id="Shape" fill="#FFFFFF"></path>
            <path d="M9.27772091,13.4219755 C9.02781545,13.7760082 9.16317545,13.9217864 9.59010273,14.2445782 L10.8292118,15.1713055 C11.2561336,15.4941 11.43315,15.5773964 11.7038782,15.2441945 L12.0995618,15.53574 L10.9125136,17.1184718 L10.5168327,16.8269264 C10.7667355,16.4728936 10.6313782,16.3271155 10.1940382,16.0043236 L8.95492636,15.0775964 C8.52800455,14.7548018 8.35098818,14.6610873 8.08025727,15.0047073 L7.68457364,14.7131618 L8.87162455,13.13043 L9.27772091,13.4219755 Z" id="Shape" fill="#FFFFFF"></path>
            <path d="M13.7551827,13.6510555 L13.4428036,13.2761973 C13.7655982,12.9846518 13.6614709,12.81804 13.3178509,12.4119436 L12.3182291,11.2249091 C11.9746091,10.8188182 11.8288336,10.68345 11.4852136,10.9541782 L11.1728318,10.57932 L12.6930873,9.30897 L13.0054691,9.68382818 C12.6826745,9.97537364 12.7763782,10.1419882 13.1200145,10.5584945 L14.2341818,11.8808945 C14.4945,12.1828636 14.60904,12.2349273 14.9214218,11.9746091 C15.3379309,11.6205764 15.5149445,10.9958155 15.3691691,10.2044482 L15.8065009,10.1107364 L16.2542482,11.5685127 L13.7551827,13.6510555 Z" id="Shape" fill="#FFFFFF"></path>
            <path d="M18.4721373,10.0170218 L18.2638827,9.56927455 C18.6387409,9.34018364 18.6179155,9.09029182 18.6075027,8.65295727 L18.5033755,5.58120818 L19.3363936,5.20636364 L21.6271882,7.44509455 C21.8875036,7.695 22.0332791,7.81995 22.3664891,7.70541273 L22.5747436,8.15315727 L20.7629345,8.97576273 L20.5650927,8.53842818 C20.5807546,8.53583241 20.5952699,8.52857475 20.6067436,8.51760273 C20.8566491,8.40305727 20.9503636,8.29893818 20.8774745,8.14274727 C20.8524468,8.08791989 20.8170939,8.03842579 20.7733473,7.99696909 L20.3568382,7.58046 L19.1906155,8.11150909 L19.2635045,8.68420636 C19.2677238,8.72716546 19.2782495,8.76926849 19.2947427,8.80915909 C19.3780445,8.98617545 19.5446482,8.99658818 19.8257918,8.87163545 L20.0236364,9.30895636 L18.4721373,10.0170218 Z M19.9507418,7.21600364 L19.0969091,6.29968636 L19.1697982,7.58044909 L19.9507418,7.21600364 Z" id="Shape" fill="#FFFFFF"></path>
            <path d="M24.5948182,7.0494 C25.02174,6.97651091 25.0321527,6.77867182 24.9592636,6.24762273 L24.7405964,4.71695455 C24.6677045,4.18590818 24.6052309,3.99847909 24.1678964,4.05054273 L24.0950073,3.56114455 L26.0942455,3.28000364 C27.6353264,3.06133636 28.5516464,3.66527182 28.7390727,4.93562182 C28.9160891,6.21638727 28.2080236,7.03899 26.6669455,7.26807 L24.6677045,7.54921091 L24.5948182,7.0494 Z M26.0317691,6.34133727 C26.0838327,6.73702091 26.1567245,6.84114818 26.5732309,6.77867182 C27.3645982,6.66412636 27.80193,6.03936818 27.6561518,5.0814 C27.5207891,4.12343182 26.9376764,3.64444636 26.1358964,3.75898636 C25.71939,3.82146273 25.6881518,3.93600273 25.7402155,4.33168636 L26.0317691,6.34133727 Z" id="Shape" fill="#FFFFFF"></path>
            <path d="M31.5817309,6.46629 C32.0086527,6.51835364 32.0815418,6.33092455 32.1544309,5.79987545 L32.3730982,4.26921 C32.4459873,3.73816091 32.4459873,3.54031909 32.0190682,3.46743 L32.0919573,2.97803455 L35.3927755,3.45701727 L35.7572209,4.73778273 L35.3615373,4.87314818 C35.0387427,4.20673364 34.5805855,3.82146273 33.9662373,3.73816091 C33.5705536,3.67568455 33.4976645,3.79022455 33.4456009,4.17549545 L33.3623127,4.74818182 L33.5497391,4.77942273 C33.9662482,4.84189636 34.0912009,4.72735909 34.1849209,4.23796091 L34.6014273,4.30043727 L34.3411118,6.09143727 L33.9246027,6.02896091 C33.9350155,5.56038818 33.79965,5.32089545 33.4768582,5.27924727 L33.2894291,5.24800636 L33.1540664,6.17473364 C33.1020027,6.56000182 33.1332382,6.68495455 33.5393373,6.73701818 C34.12245,6.82032 34.8097009,6.53917909 35.3511464,5.89359 L35.6947664,6.15390818 L34.8929864,7.43467091 L31.5088582,6.93486 L31.5817309,6.46629 Z" id="Shape" fill="#FFFFFF"></path>
            <path d="M37.8085309,8.22603545 L38.0063727,7.77829091 C38.4124636,7.94489455 38.5165936,7.77829091 38.7352609,7.27848 L39.3600245,5.86235182 C39.5786918,5.37295636 39.6307555,5.18552727 39.2350691,4.99809818 L39.4329109,4.55035091 L41.24472,5.34171545 L41.0468809,5.78946273 C40.64079,5.62285909 40.5366573,5.78946273 40.31799,6.27886091 L39.6203373,7.86159 C39.4641464,8.22603545 39.4745618,8.35098818 39.8494282,8.51759182 C40.3492364,8.73625909 40.9948255,8.62171909 41.6299991,8.13232091 L41.9111455,8.47594091 L40.8073964,9.52762364 L37.8085309,8.22603545 Z" id="Shape" fill="#FFFFFF"></path>
            <path d="M48.0025691,11.1728318 C47.5131709,11.77677 46.8884073,11.7559445 46.0970455,11.1207682 L45.5243455,10.6626109 L45.2640273,10.9854055 C44.93082,11.4019145 44.8266927,11.5789282 45.1599027,11.8600718 L44.8475209,12.24534 L43.3064427,10.9958182 L43.6188218,10.61055 C43.9624418,10.8708682 44.11863,10.7459155 44.45184,10.3294064 L45.4202182,9.12153273 C45.7534282,8.70502636 45.84714,8.52801 45.5243455,8.24686636 L45.8367273,7.86159545 L47.5339964,9.23607273 C48.3565991,9.89206909 48.5023773,10.5480709 48.0025691,11.1728318 Z M45.9929182,10.39188 C46.5031391,10.8083891 46.9092355,10.8292118 47.2007918,10.4647691 C47.46111,10.1419745 47.3986336,9.76711636 47.0133655,9.45473727 C46.7426345,9.23607 46.6176845,9.29854636 46.3781836,9.59010273 L45.8367273,10.2565145 C45.8992009,10.3085782 45.9512727,10.3502291 45.9929182,10.39188 Z" id="Shape" fill="#FFFFFF"></path>
            <path d="M48.3045355,14.78604 C48.5648536,15.1400727 48.74187,15.0567709 49.1792018,14.7443918 L50.4495655,13.85931 C50.8869,13.5573436 51.0326727,13.4115627 50.7931827,13.0471282 L51.1992736,12.7659845 L52.3342609,14.3903673 L51.93858,14.6715109 C51.6782618,14.3174782 51.5012427,14.40078 51.0639082,14.7131591 L50.7411191,14.94225 L51.59496,16.1605364 L51.9177518,15.9314455 C52.3550864,15.6294791 52.5008618,15.4837009 52.2613691,15.1192636 L52.6570527,14.83812 L53.79204,16.4625027 L53.3859491,16.7436464 C53.1256309,16.3896136 52.9486145,16.4729155 52.51128,16.7852973 L51.2409164,17.6703764 C50.8035818,17.9723427 50.6578091,18.1181236 50.8972991,18.4825582 L50.4912082,18.7637018 L49.3562291,17.1393218 L49.75191,16.8581782 C50.0122282,17.2122082 50.1892445,17.1289091 50.6265791,16.8165273 L51.1784509,16.4312591 L50.32461,15.2129727 L49.7727273,15.5982327 C49.3353927,15.9002018 49.1896173,16.04598 49.42911,16.4104145 L49.0334291,16.6915555 L47.8984418,15.0671727 L48.3045355,14.78604 Z" id="Shape" fill="#FFFFFF"></path>
            <path d="M55.5205418,21.6063627 C55.3539409,21.2002718 55.1560991,21.2419173 54.6562882,21.4293464 L53.2089245,21.9812209 C52.7091164,22.16865 52.5425073,22.2727664 52.6778782,22.6892836 L52.2197155,22.8663 L51.5116555,21.0128455 L51.9698182,20.8358182 C52.1364191,21.2419091 52.3342636,21.1898482 52.8340718,21.0024218 L54.2814355,20.4505473 C54.7812436,20.2631182 54.95826,20.1590018 54.8124791,19.7529109 L55.2706418,19.5758945 L55.9787045,21.4293491 L55.5205418,21.6063627 Z" id="Shape" fill="#FFFFFF"></path>
            <path d="M52.9277755,25.0425545 L53.4171764,24.9800782 C53.5213009,25.407 53.7712091,25.4590636 54.1877182,25.5736036 L57.1553373,26.3753836 L57.2698827,27.2812882 L54.4584545,28.8119591 C54.1356627,28.9889755 53.9794718,29.08269 53.9898818,29.4471409 L53.5004836,29.50962 L53.2401655,27.54162 L53.7191482,27.4791436 L53.7191482,27.5207945 C53.7503836,27.7915255 53.8336936,27.9164755 54.0002918,27.8956527 C54.0622037,27.8842212 54.1219367,27.863139 54.1773082,27.8331764 L54.6979445,27.55203 L54.5313436,26.28168 L53.9586464,26.1775527 C53.9140711,26.1689176 53.8686524,26.1654239 53.8232809,26.16714 C53.6358545,26.1879655 53.5733727,26.3545664 53.6046164,26.6565382 L53.1256364,26.7190145 L52.9277755,25.0425545 Z M55.1769245,27.2708727 L56.3014964,26.7190009 L55.0623818,26.4170318 L55.1769245,27.2708727 Z" id="Shape" fill="#FFFFFF"></path>
            <path d="M42.16104,32.6542418 C41.7607246,32.6544967 41.38045,32.829423 41.1197673,33.1332273 C41.0885318,33.0707509 41.0677036,33.0082745 41.0364682,32.9562109 L40.8178009,32.5292891 L37.7044009,33.4456064 L37.7044009,35.1532882 L38.2771009,35.1532882 C38.3291645,35.1532882 38.3604,35.1637009 38.3708127,35.1532882 C38.4446158,35.3887278 38.4694226,35.636787 38.4437045,35.8821791 L38.4437045,37.8605918 L37.8710045,37.9438909 L37.8710045,39.8181818 L42.1818655,39.8181818 L42.1818655,37.9438909 L41.6195782,37.8605918 L41.6195782,37.2774791 C41.6328088,36.8260664 41.6850673,36.3766444 41.7757691,35.93424 C41.9577023,35.9911814 42.1474285,36.019289 42.3380564,36.0175418 C43.1085955,36.0175418 43.6500573,35.3198891 43.6500573,34.3306827 C43.66047,33.3310691 43.0565455,32.6542418 42.16104,32.6542418 Z" id="Shape" fill="#FFFFFF"></path>
            <path d="M47.5652345,34.64307 C47.5340109,34.5560544 47.5164484,34.464729 47.5131709,34.3723391 C47.5131709,33.8621182 47.3049164,32.67507 45.4202155,32.67507 C44.3789427,32.67507 42.3276409,33.47685 42.3276409,35.3407227 C42.3101516,35.9032769 42.4866186,36.4547393 42.8274491,36.9026318 C42.3901603,37.1826653 42.1359795,37.6751406 42.1610373,38.1938045 C42.1610373,38.8602191 42.4942445,39.9848045 44.7538009,39.9848045 C46.6905627,39.9848045 47.7943118,38.9851855 47.7943118,37.2358527 C47.8047273,35.5698 47.6589518,35.0179255 47.5652345,34.64307 Z" id="Shape" fill="#FFFFFF"></path>
            <path d="M24.7822364,24.6260455 C24.6648725,24.489016 24.4940759,24.4093105 24.3136664,24.4073782 C24.03252,24.4073782 23.8034427,24.5843973 23.5327118,24.8759509 C22.5969502,25.8539614 21.2935844,26.3941964 19.9403291,26.3649655 C18.0660436,26.3649655 16.0876282,25.5007118 14.5153091,24.0012818 C14.3935316,23.8804548 14.2286984,23.8130226 14.0571518,23.8138527 C13.2866127,23.8138527 13.0887682,25.0425518 13.0887682,25.0633773 L13.0887682,31.2381109 L13.5781664,31.311 C15.2179381,31.5935676 16.8984721,31.5332952 18.5137882,31.1339836 C16.9310564,32.5501118 13.3699118,36.4028018 13.42197,40.0680873 C13.4323827,40.7449118 13.8488918,40.8178145 14.0259082,40.8178145 C14.2018265,40.8150417 14.3698058,40.7441167 14.4944782,40.6199727 C14.5257164,40.5991445 14.5569573,40.5679091 14.5881927,40.5470836 C15.2639474,40.1251194 16.0518456,39.9181585 16.8477382,39.9535582 C17.5679974,39.9434408 18.2819391,40.0890699 18.9406936,40.3804773 C19.0588822,40.4456435 19.1910372,40.4813613 19.3259618,40.4846045 C19.4996202,40.4855901 19.6657644,40.413847 19.7841218,40.2867655 C19.9334964,40.0992952 19.9908298,39.8546737 19.9403127,39.6203536 C19.6799945,36.9546982 20.2631073,34.0495555 21.3980891,32.3731091 L21.5646955,32.1232036 C22.5330764,30.6966627 24.5427273,27.7186309 24.9175855,25.2612327 C24.9718744,25.0399447 24.9220198,24.8059796 24.7822364,24.6260455 L24.7822364,24.6260455 Z" id="Shape" fill="#FFFFFF"></path>
            <path d="M39.1205455,36.4236409 L39.08931,35.9550682 C39.0728884,35.6597888 39.0275496,35.3668314 38.9539445,35.0804018 L38.9331191,34.53894 L38.8289918,34.6951309 C38.4284503,33.4673061 37.2777652,32.6411719 35.9863255,32.6542391 C33.9870845,32.6542391 32.5917818,34.2369709 32.5917818,36.4965273 C32.5917818,38.2354364 33.6122264,39.9847827 35.8717855,39.9847827 C37.1375605,40.0021986 38.3195652,39.3538753 38.9851827,38.2771009 L39.0684818,38.1313227 L39.0060055,36.4548682 L39.1205455,36.4236409 Z M36.6943855,37.5065645 C36.4967878,37.5008432 36.319398,37.3839272 36.2362255,37.2045955 L37.3399745,36.9026291 C37.169252,37.1467694 36.9493368,37.3524886 36.6943636,37.5065645 L36.6943855,37.5065645 Z" id="Shape" fill="#FFFFFF"></path>
            <path d="M31.6754482,30.95697 C31.5609027,30.8007791 31.4359582,30.6133527 31.3318309,30.4571618 C32.4268632,30.2669613 33.2136342,29.2979447 33.1748809,28.1871927 C33.1748809,26.1463009 31.4880218,24.6156355 29.2492909,24.6156355 C24.7510009,24.6156355 22.05411,27.8123373 22.05411,33.1540555 C22.05411,38.0063755 24.2824282,40.7865655 28.1559573,40.7865655 C31.3005955,40.7865655 33.4976727,38.4853582 33.4976727,35.1949418 C33.5080909,33.5497364 32.4043391,31.98783 31.6754482,30.95697 Z" id="Shape" fill="#FFFFFF"></path>
            <path d="M36.7047845,38.0896718 C36.0071318,38.0896718 35.5906227,37.45449 35.5281491,36.8089118 L38.5270064,35.99673 C38.4437073,34.5285382 37.5898636,33.2373627 35.9967218,33.2373627 C34.2994527,33.2373627 33.1748782,34.5597764 33.1748782,36.5069509 C33.1748782,38.0272064 34.0495445,39.4120964 35.8821818,39.4120964 C36.9449375,39.4346375 37.9398527,38.891595 38.4957709,37.9855527 L37.9022455,37.27749 C37.6210909,37.7356364 37.2774818,38.0896718 36.7047845,38.0896718 Z M35.3823682,35.3198945 C35.3823682,34.87215 35.3823682,34.0391345 35.8717664,34.0391345 C36.3299264,34.0391345 36.4444664,34.7367873 36.4444664,35.1220555 C36.4648407,35.2801816 36.4196116,35.439757 36.3192961,35.5636756 C36.2189807,35.6875942 36.0723201,35.7650581 35.9134173,35.7780545 L35.3823682,35.92383 L35.3823682,35.3198945 Z" id="Shape" fill="#006BB6"></path>
            <path d="M41.6299909,39.2454845 L38.46453,39.2454845 L38.46453,38.4437045 L39.03723,38.3604027 L39.03723,35.8821818 C39.03723,34.9971 38.9226845,34.5701809 38.2875027,34.5701809 L38.2875027,33.8725282 L40.5366464,33.2165291 C40.7709927,33.7304612 40.8985229,34.2866335 40.9115045,34.8513245 L40.9323327,34.8513245 C41.1614236,34.1744973 41.4425536,33.2269418 42.1714418,33.2269418 C42.8170309,33.2269418 43.0981691,33.72675 43.0981691,34.3306882 C43.0981691,34.9450364 42.8274355,35.44485 42.3588655,35.44485 C42.0997264,35.4279174 41.8457593,35.3644266 41.6091382,35.2574209 C41.2030473,35.1220582 41.0676764,36.9026291 41.0676764,37.2774873 L41.0676764,38.3604055 L41.6299609,38.4437073 L41.6299609,39.2454845 L41.6299909,39.2454845 Z" id="Shape" fill="#006BB6"></path>
            <path d="M46.9508836,34.3827518 C46.9508836,34.87215 46.5239645,35.1220555 46.0762173,35.1220555 C45.5430513,35.0923749 45.1082731,34.6839469 45.04536,34.1536745 C44.8162691,34.1536745 44.6496791,34.26822 44.6496791,34.6638955 C44.6496791,35.5802127 47.2424427,34.9242136 47.2424427,37.2462464 C47.2424427,38.9851555 45.9825055,39.4225009 44.7746291,39.4225009 C44.0353282,39.4225009 42.7545655,39.3287864 42.7545655,38.2042118 C42.7545655,37.6939909 43.0357091,37.30872 43.5459327,37.30872 C44.3268845,37.30872 44.46225,38.0271955 44.5976155,38.5374164 C44.6345432,38.6461128 44.7446473,38.7121752 44.8579336,38.6936073 C45.2744427,38.6936073 45.5764091,38.5270036 45.5764091,38.2458627 C45.5764091,37.20459 42.9211691,37.6106809 42.9211691,35.34072 C42.9211691,33.9037664 44.6184409,33.2581745 45.4410464,33.2581745 C46.3677736,33.2581745 46.9508836,33.5705564 46.9508836,34.3827491" id="Shape" fill="#006BB6"></path>
            <path d="M29.2492882,30.5612891 C28.2392536,30.5612891 27.2083964,30.96738 26.6669373,31.8108136 L26.6461118,31.8108136 L26.7502391,30.3530345 C26.8127155,29.3638282 27.0313827,26.67735 28.4058573,26.67735 C29.0618564,26.67735 28.9160782,27.5520164 28.98897,27.9477136 C29.1659864,28.8744409 29.57208,29.9469545 30.8528427,29.9469545 C31.3258382,29.9683024 31.786398,29.7919305 32.1241464,29.4601076 C32.4618948,29.1282846 32.6463899,28.6709183 32.6334164,28.1976191 C32.6334164,26.38581 31.1235736,25.1987618 29.2805236,25.1987618 C24.5635691,25.1987618 22.6684555,28.80156 22.6684555,33.1644818 C22.6684555,36.9547064 24.1366473,40.2243 28.1976027,40.2243 C30.8320173,40.2243 32.9666209,38.3500118 32.9666209,35.2053736 C32.9457982,32.5397018 31.5400909,30.5612891 29.2492882,30.5612891 Z M27.8435727,38.7352609 C26.7190009,38.7352609 26.7606518,37.2878973 26.7606518,35.6218636 C26.7606518,33.95583 26.9168427,32.5188791 27.8435727,32.5188791 C28.9785545,32.5188791 29.0306182,33.95583 29.0306182,35.6218636 C29.0410336,37.2878973 28.8015409,38.7352609 27.8435727,38.7352609 L27.8435727,38.7352609 Z" id="Shape" fill="#006BB6"></path>
            <path d="M13.6614682,25.1154545 L13.6614682,30.7383164 C16.8061036,31.2068891 20.5650927,30.8945073 23.2307455,27.0105682 C23.3452909,26.8439645 23.4077618,26.9585073 23.3348727,27.1042827 C22.5955691,28.6141255 20.8358236,30.0094282 19.3155682,31.2068891 C17.8577891,32.3522864 13.9426118,36.45489 13.9946755,40.0681009 C13.9946755,40.3492445 14.0050882,40.26594 14.2549909,40.0889264 C15.4420391,39.2038473 17.7640745,39.1830218 19.1906127,39.8598355 C19.3884545,39.95355 19.40928,39.9223118 19.3780418,39.6724091 C19.1073109,36.8713909 19.7320745,33.8204673 20.9295355,32.0398936 C21.7521382,30.8111945 23.9804564,27.6457309 24.36573,25.1675073 C24.4073782,24.9071918 24.2720155,24.94884 23.9492209,25.2924627 C21.4293464,27.9581155 16.8789955,27.8852264 13.9321991,25.0737955 C13.7551827,24.8759509 13.6718809,24.95925 13.6614682,25.1154436" id="Shape" fill="#ED174C"></path>
            <circle id="Oval" fill="#FFFFFF" cx="19.1201509" cy="21.74433" r="5.39355"></circle>
            <polygon id="Shape" fill="#006BB6" points="19.1176364 16.5458182 19.2946364 17.1185455 19.9090909 17.1185455 19.4091818 17.4725455 19.5861818 18.0349091 19.1176364 17.6912727 18.6283636 18.0349091 18.8157273 17.4725455 18.3158182 17.1185455 18.9302727 17.1185455"></polygon>
            <polygon id="Shape" fill="#006BB6" points="22.6996364 18.6387273 22.887 19.2010909 23.5014545 19.2010909 23.0015455 19.5654545 23.1785455 20.1278182 22.6996364 19.7841818 22.2207273 20.1278182 22.4080909 19.5654545 21.9084545 19.2010909 22.5226364 19.2010909"></polygon>
            <polygon id="Shape" fill="#006BB6" points="21.1587273 17.0247273 21.3460909 17.5870909 21.9602727 17.5870909 21.4606364 17.9514545 21.6376364 18.5138182 21.1690909 18.1701818 20.6899091 18.5138182 20.8671818 17.9514545 20.3672727 17.5870909 20.9817273 17.5870909"></polygon>
            <polygon id="Shape" fill="#006BB6" points="23.2930909 20.6067273 23.4703636 21.1794545 24.0845455 21.1794545 23.5849091 21.5438182 23.7722727 22.1061818 23.2930909 21.7625455 22.8141818 22.1061818 22.9911818 21.5438182 22.5019091 21.1794545 23.1057273 21.1794545"></polygon>
            <polygon id="Shape" fill="#006BB6" points="23.0329091 22.6996364 23.2202727 23.2723636 23.8243636 23.2723636 23.3348182 23.6367273 23.5118182 24.1990909 23.0329091 23.8450909 22.554 24.1990909 22.731 23.6263636 22.2414545 23.2723636 22.8559091 23.2723636"></polygon>
            <polygon id="Shape" fill="#006BB6" points="21.8770909 24.3657273 22.0540909 24.9384545 22.6685455 24.9384545 22.179 25.3028182 22.356 25.8651818 21.8874545 25.5215455 21.3981818 25.8651818 21.5855455 25.3028182 21.0856364 24.9384545 21.7000909 24.9384545"></polygon>
            <polygon id="Shape" fill="#006BB6" points="20.0653636 25.3028182 20.2527273 25.8755455 20.8565455 25.8755455 20.3569091 26.2399091 20.5442727 26.8022727 20.0653636 26.4586364 19.5861818 26.8022727 19.7631818 26.2399091 19.2739091 25.8755455 19.8777273 25.8755455"></polygon>
            <polygon id="Shape" fill="#006BB6" points="15.4628182 18.4513636 15.2754545 19.0240909 14.6716364 19.0240909 15.1609091 19.3780909 14.9839091 19.9404545 15.4524545 19.5968182 15.9417273 19.9404545 15.7543636 19.3780909 16.2542727 19.0240909 15.6398182 19.0240909"></polygon>
            <polygon id="Shape" fill="#006BB6" points="16.9622727 17.0247273 16.7749091 17.5870909 16.1708182 17.5870909 16.6603636 17.9514545 16.4833636 18.5138182 16.9622727 18.1701818 17.4411818 18.5138182 17.2641818 17.9514545 17.7537273 17.5870909 17.1496364 17.5870909"></polygon>
            <polygon id="Shape" fill="#006BB6" points="14.7548182 20.3569091 14.5778182 20.9296364 13.9633636 20.9296364 14.4632727 21.2836364 14.2862727 21.8563636 14.7548182 21.5023636 15.2337273 21.8563636 15.0567273 21.2836364 15.5566364 20.9296364 14.9525455 20.9296364"></polygon>
            <polygon id="Shape" fill="#006BB6" points="14.9525455 22.4394545 14.7651818 23.0121818 14.151 23.0121818 14.6506364 23.3765455 14.4736364 23.9389091 14.9421818 23.5952727 15.4210909 23.9389091 15.2440909 23.3765455 15.7336364 23.0121818 15.1295455 23.0121818"></polygon>
            <polygon id="Shape" fill="#006BB6" points="16.098 24.147 15.921 24.7197273 15.3065455 24.7197273 15.8064545 25.0840909 15.6190909 25.6464545 16.098 25.2924545 16.5875455 25.6464545 16.3999091 25.0840909 16.8894545 24.7197273 16.2853636 24.7197273"></polygon>
            <polygon id="Shape" fill="#006BB6" points="17.9097273 25.23 17.7327273 25.8027273 17.1185455 25.8027273 17.6181818 26.1670909 17.4411818 26.7294545 17.9097273 26.3858182 18.3992727 26.7294545 18.2119091 26.1567273 18.7115455 25.8027273 18.0973636 25.8027273"></polygon>
        </g>
    </g>
</svg>
