<?xml version="1.0" encoding="UTF-8"?>
<svg width="60px" height="60px" viewBox="0 0 60 60" version="1.1" xmlns="http://www.w3.org/2000/svg" xmlns:xlink="http://www.w3.org/1999/xlink">
    <!-- Generator: Sketch 43.2 (39069) - http://www.bohemiancoding.com/sketch -->
    <title>Slice</title>
    <desc>Created with Sketch.</desc>
    <defs></defs>
    <g id="Page-1" stroke="none" stroke-width="1" fill="none" fill-rule="evenodd">
        <g id="PHO" fill-rule="nonzero">
            <path d="M58.6583227,0.390909091 C58.5611883,0.28303397 58.4216103,0.223214829 58.2765045,0.227272727 L21.43105,0.227272727 C17.0401409,0.227272727 14.3401409,2.13636364 13.4128682,5.84545455 L0.0219568182,59.2454545 C-0.0206148984,59.3956957 0.00966796408,59.5572043 0.103775,59.6818182 C0.193896383,59.8020146 0.335363207,59.872748 0.485593182,59.8727273 L40.6310477,59.8727273 C42.9219568,59.8727273 45.2128659,58.0181818 45.7310477,55.7818182 L58.7401386,0.827272727 C58.7827081,0.677031796 58.7524263,0.515524538 58.6583227,0.390909091 L58.6583227,0.390909091 Z" id="Shape" fill="#63727A"></path>
            <path d="M0.485593182,59.3818182 L40.6310477,59.3818182 C42.703775,59.3818182 44.803775,57.6909227 45.2674114,55.6727386 L58.2765023,0.690920455 L21.4310477,0.690920455 C18.0219568,0.718193182 14.9128659,1.836375 13.8765023,5.98182955 L0.485593182,59.3818182 Z" id="Shape" fill="#000000"></path>
            <path d="M8.74923182,37.6727273 L43.5765045,37.6727273 C45.3219591,37.6727273 47.0401409,36.2818182 47.4492318,34.5636364 L54.7583227,2.92727273 L22.8492318,2.92727273 C18.9492318,2.92727273 17.2037773,4.15454545 16.4128682,7.4 L8.74923182,37.6727273 Z M43.5765045,38.1090909 L8.20377727,38.1090909 L15.9765045,7.29090909 C16.9855955,3.30909091 19.4401409,2.51818182 22.8492318,2.51818182 L55.3037773,2.51818182 L47.8583227,34.6727273 C47.4219591,36.5545455 45.5128659,38.1090909 43.5765045,38.1090909 L43.5765045,38.1090909 Z" id="Shape" fill="#63727A"></path>
            <polygon id="Shape" fill="#FFFFFF" points="13.9856818 55.3727273 14.9675 56.7090909 22.3038636 56.7090909 25.2765909 44.9272727 22.2765909 44.9272727 19.7129545 55.0454545 17.0402273 55.0454545 19.6038636 44.9272727 15.8129545 44.9272727 15.5675 45.1181818 16.3311364 46.1545455"></polygon>
            <polygon id="Shape" fill="#FFFFFF" points="14.2311364 49.0454545 14.9402273 46.2090909 13.9584091 44.8727273 7.95840909 44.8727273 6.32204545 46.2090909 5.31295455 50.1636364 10.3856818 52.2909091 9.70386364 55.0454545 7.05840909 55.0454545 7.35840909 53.7636364 4.71295455 52.5363636 4.00386364 55.3727273 4.95840909 56.7090909 10.9856818 56.7090909 12.6220455 55.3727273 13.6311364 51.3909091 8.55840909 49.2636364 9.24022727 46.5363636 11.8856818 46.5363636 11.5584091 47.8454545"></polygon>
            <polygon id="Shape" fill="#FFFFFF" points="34.9584091 46.2090909 33.9765909 44.8727273 26.6675 44.8727273 23.6947727 56.6545455 26.6947727 56.6545455 29.2311364 46.5363636 31.9038636 46.5363636 29.3675 56.6545455 33.1311364 56.6545455 33.3765909 56.4363636 32.6402273 55.4272727"></polygon>
            <polygon id="Shape" fill="#FFFFFF" points="44.2584091 49.0454545 44.9675 46.2090909 43.9856818 44.8727273 37.9856818 44.8727273 36.3493182 46.2090909 35.3402273 50.1636364 40.4129545 52.2909091 39.7311364 55.0454545 37.0584091 55.0454545 37.3856818 53.7636364 34.7402273 52.5363636 34.0311364 55.3727273 34.9856818 56.7090909 41.0129545 56.7090909 42.6493182 55.3727273 43.6584091 51.3909091 38.5856818 49.2636364 39.2675 46.5363636 41.9129545 46.5363636 41.5856818 47.8454545"></polygon>
            <polygon id="Shape" fill="#BEC0C2" points="4.71295455 52.5363636 5.80386364 54.1727273 5.55840909 55.1272727 6.10386364 55.8636364 10.3584091 55.8636364 11.2038636 55.2090909 12.6220455 55.3727273 10.9856818 56.7090909 4.95840909 56.7090909 4.00386364 55.3727273"></polygon>
            <polygon id="Shape" fill="#BEC0C2" points="9.70386364 55.0454545 11.2038636 55.2090909 12.0493182 51.8545455 6.92204545 49.7 7.7675 46.3727273 6.32204545 46.2090909 5.31295455 50.1636364 10.3856818 52.2909091"></polygon>
            <polygon id="Shape" fill="#BEC0C2" points="12.8129545 45.6909091 8.6675 45.6909091 7.7675 46.3727273 9.24022727 46.5363636 11.8856818 46.5363636 11.5584091 47.8454545 13.1402273 47.3545455 13.3856818 46.4545455"></polygon>
            <polygon id="Shape" fill="#BEC0C2" points="34.7402273 52.5363636 35.8311364 54.1727273 35.5856818 55.1272727 36.1311364 55.8636364 40.3856818 55.8636364 41.2311364 55.2090909 42.6493182 55.3727273 41.0129545 56.7090909 34.9856818 56.7090909 34.0311364 55.3727273"></polygon>
            <polygon id="Shape" fill="#BEC0C2" points="39.7311364 55.0454545 41.2311364 55.2090909 42.0765909 51.8545455 36.9493182 49.7 37.7947727 46.3727273 36.3493182 46.2090909 35.3402273 50.1636364 40.4129545 52.2909091"></polygon>
            <polygon id="Shape" fill="#BEC0C2" points="42.8402273 45.6909091 38.6675 45.6909091 37.7947727 46.3727273 39.2675 46.5363636 41.9129545 46.5363636 41.5856818 47.8454545 43.1675 47.3545455 43.3856818 46.4545455"></polygon>
            <polygon id="Shape" fill="#BEC0C2" points="15.5675 45.1181818 17.9129545 45.6909091 15.5402273 55.1272727 16.0856818 55.8636364 20.9947727 55.8636364 22.3038636 56.7090909 14.9675 56.7090909 13.9856818 55.3727273 16.3311364 46.1545455"></polygon>
            <polygon id="Shape" fill="#BEC0C2" points="22.2765909 44.9272727 23.5584091 45.6909091 20.9947727 55.8636364 19.7129545 55.0454545"></polygon>
            <polygon id="Shape" fill="#BEC0C2" points="27.9765909 45.6909091 26.6675 44.8727273 23.6947727 56.6545455 26.6947727 56.6545455 25.3856818 55.8636364"></polygon>
            <polygon id="Shape" fill="#BEC0C2" points="31.0311364 55.8636364 33.4038636 46.4545455 32.8584091 45.6909091 27.9765909 45.6909091 29.2311364 46.5363636 31.9038636 46.5363636 29.3675 56.6545455 33.1311364 56.6545455 33.3765909 56.4363636"></polygon>
            <path d="M9.34923182,41.3272727 L8.55832273,41.5454545 L8.80377727,40.5090909 L9.54014091,40.5090909 L9.34923182,41.3272727 Z M7.93105,39.9090909 L7.84923182,39.9636364 L8.09468636,40.2908955 L7.33105,43.3999977 L8.39468636,43.3999977 L8.44923182,43.3181795 L8.20377727,43.0181636 L8.39468636,42.1999818 L10.03105,41.6818 L10.3583227,40.3181636 L10.03105,39.9090727 L7.93105,39.9090909 Z" id="Shape" fill="#FFFFFF"></path>
            <polygon id="Shape" fill="#FFFFFF" points="16.6038636 39.9090909 15.8129545 39.9090909 15.5129545 41.1636364 14.7493182 41.3545455 15.1038636 39.9090909 14.0675 39.9090909 13.9856818 39.9636364 14.2311364 40.2909091 13.4675 43.4 14.2584091 43.4 14.5856818 42.0090909 15.3493182 41.8454545 14.9675 43.4 16.0038636 43.4 16.0856818 43.3181818 15.8402273 43.0181818"></polygon>
            <path d="M21.2674114,42.8272727 L20.5310477,42.8272727 L21.103775,40.4818182 L21.8401386,40.4818182 L21.2674114,42.8272727 Z M20.9128659,39.9090909 L20.3946841,40.3181818 L19.7401386,42.9636364 L20.0674114,43.4 L21.4855932,43.4 L22.003775,42.9636364 L22.6583205,40.3181818 L22.3310477,39.9090909 L20.9128659,39.9090909 Z" id="Shape" fill="#FFFFFF"></path>
            <polygon id="Shape" fill="#FFFFFF" points="34.7129545 40.3181818 34.3856818 39.9090909 32.5038636 39.9090909 31.6584091 43.4 32.4493182 43.4 33.1584091 40.4818182 33.8947727 40.4818182 33.1856818 43.4 34.2220455 43.4 34.3038636 43.3181818 34.0584091 43.0181818"></polygon>
            <polygon id="Shape" fill="#FFFFFF" points="39.5675 39.9090909 38.5038636 39.9090909 38.4220455 39.9636364 38.6947727 40.2909091 37.9311364 43.4 38.9675 43.4 39.0493182 43.3181818 38.8038636 43.0181818"></polygon>
            <polygon id="Shape" fill="#FFFFFF" points="45.1584091 43.0454545 44.7493182 41.6818182 46.1402273 39.9090909 45.3765909 39.9090909 44.5856818 40.9727273 44.3129545 39.9090909 43.2765909 39.9090909 43.1947727 39.9636364 43.6038636 40.2909091 44.0129545 41.7090909 42.7038636 43.4 43.4402273 43.4 44.2038636 42.3636364 44.4765909 43.4 45.5129545 43.4 45.5947727 43.3181818"></polygon>
            <polygon id="Shape" fill="#FFFFFF" points="27.6220455 42.8272727 26.7220455 42.8272727 26.9402273 41.9272727 27.6765909 41.9272727 27.8129545 41.3545455 27.0765909 41.3545455 27.2947727 40.4818182 28.1402273 40.4818182 28.3584091 40.7818182 28.4402273 40.7272727 28.6311364 39.9090909 26.3947727 39.9090909 26.3129545 39.9636364 26.5584091 40.2909091 25.7947727 43.4 27.8402273 43.4 28.0311364 42.5818182 27.9765909 42.5272727"></polygon>
            <polygon id="Shape" fill="#F9A01B" points="9.70386364 37.1 29.5856818 26.2181818 16.0856818 37.1 32.4765909 27.6909091 32.2038636 29.6 34.9311364 28.0727273 41.0947727 33.9090909 44.3675 24.0363636 49.1129545 23.7363636 46.7129545 17.7636364 50.9947727 14.4090909 45.4311364 12.2272727 46.8493182 6.25454545 42.1311364 8.40909091 39.6765909 3.28181818 35.8856818 7.04545455 29.0675 3.99090909 28.1402273 10.0727273 22.0584091 11.4090909 25.6584091 13.5636364 22.0311364 15.3909091 25.1129545 15.6636364 12.4584091 25.4818182 25.1947727 18.7181818 11.5584091 29.1090909 26.0675 21.5545455 10.5493182 33.2 27.6493182 24.0909091"></polygon>
            <path d="M46.0855955,17.8454545 C45.8526037,23.3016997 41.2431625,27.5375002 35.7867058,27.3095178 C30.3302491,27.0815353 26.0902185,22.4759849 26.3131914,17.0193211 C26.5361644,11.5626574 31.1378202,7.3184004 36.5946864,7.53636364 C42.0622091,7.76250609 46.3113151,12.3779144 46.0855955,17.8454545 L46.0855955,17.8454545 Z" id="Shape" fill="#E56020"></path>
            <path d="M37.4128659,25.9727273 C33.5135758,25.8175657 30.0697926,23.3847623 28.6204866,19.7614972 C27.1711805,16.138232 27.9871591,12.001524 30.703775,9.2 C27.143876,11.5816396 25.5169769,15.9808445 26.6706829,20.1056536 C27.8243889,24.2304628 31.497563,27.1472412 35.7765023,27.3363636 C38.5972092,27.4474008 41.3327133,26.3571636 43.303775,24.3363636 C41.568642,25.5042477 39.5017596,26.0783817 37.4128659,25.9727273 Z" id="Shape" fill="#B95915"></path>
            <path d="M46.0855955,17.5454545 C46.1041401,17.1998252 46.0950201,16.8532665 46.0583227,16.5090909 C45.4535719,16.0733786 44.7512824,15.7924628 44.0128682,15.6909091 C43.8492318,15.6909091 43.7128682,15.6636364 43.5492318,15.6636364 C43.458875,15.0069892 43.3128956,14.3592054 43.1128682,13.7272727 C43.2113623,13.748691 43.3121264,13.7578513 43.4128682,13.7545455 C44.1219591,13.8090909 44.8037773,13.8909091 45.4855955,14 C45.393078,13.7386666 45.283759,13.483589 45.1583227,13.2363636 C44.4219591,13.1272727 43.63105,13.0454545 42.8401409,12.9909091 L42.8401409,12.9909091 C42.5955902,12.3473218 42.2944089,11.7267058 41.9401409,11.1363636 C42.4302176,11.0481534 42.8846176,10.8209534 43.2492318,10.4818182 C43.0583227,10.2909091 42.8674136,10.1272727 42.6765045,9.93636364 C42.3421847,10.2329324 41.9216141,10.4145424 41.4765045,10.4545455 C41.3946864,10.3454545 41.3128682,10.2363636 41.2583227,10.1545455 C40.5972293,9.30142901 39.8164511,8.54820768 38.9401409,7.91818182 C38.177688,7.69191488 37.3895375,7.5636075 36.5946864,7.53635227 L36.4855955,7.53635227 C38.0223167,8.15790765 39.3743291,9.16252792 40.4128682,10.4545341 C39.2552012,10.2930413 38.1142942,10.0283508 37.0037773,9.663625 C36.6492318,9.55453409 36.3219591,9.47271591 35.9946864,9.363625 C34.4731423,8.9178634 32.8870077,8.73342914 31.3037773,8.81817045 C30.4456166,9.31027415 29.6645257,9.92595758 28.9855955,10.6454432 C30.2401409,10.1272614 32.7492318,9.25453409 35.8037773,10.0999886 C36.13105,10.1818068 36.4583227,10.263625 36.8128682,10.3727159 C38.1492318,10.7818068 39.6765045,11.2181705 40.9855955,11.2181705 C41.3373296,11.7668379 41.6472949,12.3411854 41.9128682,12.9363523 C41.6589617,12.9141253 41.404077,12.9050223 41.1492318,12.9090795 C34.7674136,12.7999886 29.3401409,14.6818068 26.3128682,17.7363523 C26.3209919,18.3319274 26.3849077,18.9254309 26.5037773,19.5090795 C27.3492318,18.2818068 28.63105,17.163625 30.2674136,16.2363523 C33.3219591,14.5181705 37.4128682,13.6181705 41.7492318,13.6727159 C41.9128682,13.6727159 42.0492318,13.6999886 42.2128682,13.6999886 C42.4307134,14.3304757 42.5949331,14.9782312 42.7037773,15.6363523 C39.8946864,15.7727159 38.0946864,17.4908977 35.9946864,19.3727159 C34.1401409,21.0363523 31.8492318,22.6999886 28.5219591,23.7090795 C28.8392683,24.09 29.1857711,24.4456214 29.5583227,24.7727159 C32.6946864,23.5181705 34.7674136,21.5545341 36.5401409,19.9727159 C38.5583227,18.1727159 40.2765045,16.4545341 42.7855955,16.3727159 C42.8674141,17.0794467 42.8674141,17.7932579 42.7855955,18.4999886 C42.4583227,22.3727159 40.1946864,25.6727295 37.1401409,27.3090795 C37.9109884,27.2326209 38.6705078,27.0679058 39.4037773,26.8181705 C39.6492318,26.5999886 39.8946864,26.3818068 40.1128682,26.163625 C42.1542973,24.1382268 43.4024497,21.4484098 43.63105,18.5818068 C43.7128712,17.8568354 43.7128712,17.1249601 43.63105,16.3999886 C43.7674136,16.4272614 43.9037773,16.4272614 44.0128682,16.4545455 C44.803143,16.585737 45.5300325,16.9683104 46.0855955,17.5454545 L46.0855955,17.5454545 Z" id="Shape" fill="#000000"></path>
        </g>
    </g>
</svg>