<?xml version="1.0" encoding="UTF-8"?>
<svg width="60px" height="60px" viewBox="0 0 60 60" version="1.1" xmlns="http://www.w3.org/2000/svg" xmlns:xlink="http://www.w3.org/1999/xlink">
    <!-- Generator: Sketch 43.2 (39069) - http://www.bohemiancoding.com/sketch -->
    <title>WAS</title>
    <desc>Created with Sketch.</desc>
    <defs></defs>
    <g id="Page-1" stroke="none" stroke-width="1" fill="none" fill-rule="evenodd">
        <g id="WAS" fill-rule="nonzero">
            <g id="Group" transform="translate(30.050079, 30.000000) scale(-1, 1) rotate(-180.000000) translate(-30.050079, -30.000000) translate(0.227244, 0.177165)">
                <g>
                    <ellipse id="Oval" fill="#C4CED4" transform="translate(29.843504, 29.816929) scale(-1, 1) rotate(-180.000000) translate(-29.843504, -29.816929) " cx="29.8435039" cy="29.8169291" rx="29.746063" ry="29.7431102"></ellipse>
                    <ellipse id="Oval" fill="#E31837" transform="translate(29.722441, 29.961614) scale(-1, 1) rotate(-180.000000) translate(-29.722441, -29.961614) " cx="29.7224409" cy="29.9616142" rx="28.5318898" ry="28.5770669"></ellipse>
                    <g transform="translate(0.885827, 0.885827)" id="Shape">
                        <path d="M57.4547244,30.4281496 L0.250984252,30.4228346 C0.224409449,29.9338583 0.209793307,29.4422244 0.209793307,28.9466043 C0.209793307,26.3396161 0.593799213,23.788435 1.30334646,21.3488681 C8.04005906,21.3503445 49.5425197,21.3528543 56.3929134,21.3568406 C57.1064469,23.8163386 57.4904528,26.3901083 57.4904528,29.0183563 C57.4904528,29.4900591 57.4771654,29.9604331 57.453248,30.4281496" fill="#FFFFFF"></path>
                        <path d="M25.1811024,0.404527559 C26.3410925,0.261023622 27.5223425,0.185285433 28.7208661,0.183956693 L28.7381398,0.183956693 L28.7540846,0.183956693 L28.7593996,0.183956693 C31.3650591,0.183956693 33.8883366,0.533415354 36.2880413,1.18184055 C43.8033957,3.33971457 50.2158957,8.66943898 53.9629429,15.5097933 L3.73656496,15.5097933 C8.10812008,7.58518701 16.0950295,1.69621063 25.18125,0.404675197" fill="#002B5C"></path>
                        <path d="M46.3966535,38.4330709 C45.1702264,40.6932579 43.5212598,42.6891732 41.5547244,44.3155512 C41.1853346,44.6211614 40.8026575,44.9081693 40.4120079,45.185876 C37.1580709,47.5058563 33.1836614,48.8771161 28.8838583,48.8850886 L28.849311,48.8850886 C18.1886811,48.8836122 9.47746063,40.5193406 8.9261811,29.9904035 C8.90890748,29.6515748 8.8996063,29.3087598 8.89827756,28.9646161 L8.89827756,28.9300689 C8.8996063,26.178248 9.45634843,23.5554626 10.4648622,21.1702264 C10.5897638,20.8725886 10.7239665,20.5776083 10.8634843,20.2866142 C11.9822835,17.9626476 13.5395669,15.8884843 15.426378,14.171752 C15.8980807,13.7412402 16.3910433,13.3346457 16.9012795,12.9519685 C20.2272638,10.4619094 24.3540354,8.98582677 28.8280512,8.98051181 L28.8386811,8.98051181 L28.8506398,8.98051181 L28.854626,8.98051181 C31.2636319,8.98198819 33.5716535,9.40836614 35.7082677,10.1909941 C43.3405512,12.9840059 48.7910433,20.3080217 48.8001969,28.9091043 L48.8001969,28.9197343 L48.8001969,28.9212106 L48.8001969,28.934498 C48.8001969,31.6849902 48.242126,34.3067421 47.2349409,36.6916831 C46.9824803,37.2882874 46.7034449,37.8689469 46.3965059,38.4336614" fill="#C4CED4"></path>
                        <path d="M29.4469488,2.09870079 C29.4469488,2.09870079 29.8367126,2.38311024 29.7965551,2.74051181 L29.2981299,7.19185039 L30.3162402,7.30570866 C30.5146654,7.32838583 30.6658465,7.33051181 30.7461614,7.19374016 C30.7461614,7.19374016 30.8713583,6.07240157 31.0130906,4.81665354 L32.0430118,7.08153543 C32.1941929,7.45358268 31.8634843,7.48027559 31.8634843,7.48027559 L32.1658465,7.52161417 L32.1658465,7.51996063 L33.1792323,7.6338189 C33.3800197,7.65649606 33.5288386,7.65720472 33.6091535,7.52161417 L34.157185,2.63444882 L32.7304134,2.47240157 L32.3406496,2.43318898 C32.3406496,2.43318898 32.7020669,2.69161417 32.6642717,3.04783465 L32.4516732,4.94137795 L31.2398622,2.39350394 C31.2067913,2.32972441 31.1524606,2.29074803 31.0697835,2.28153543 C30.8926181,2.26287402 29.8674213,2.14452756 29.8674213,2.14452756 L29.4469488,2.09870079 L29.4469488,2.09870079 Z M28.7004921,2.15917323 C28.5563976,2.16177165 27.9989173,2.20334646 27.4130906,2.2234252 C27.2713583,2.25248031 27.0115157,2.25767717 27.0682087,2.84610236 L27.3044291,7.30169291 L28.7406496,7.22492126 L28.8469488,7.19586614 C28.8469488,7.19586614 28.7500984,7.03216535 28.7170276,6.7557874 C28.7170276,6.7557874 28.4902559,2.71665354 28.4902559,2.53051181 C28.4902559,2.34602362 28.7004921,2.15917323 28.7004921,2.15917323 L28.7004921,2.15917323 Z M25.6839567,2.27728346 L23.8650591,2.65759843 C23.8650591,2.65759843 24.3186024,2.80240157 24.3941929,3.1557874 L24.3989173,3.16996063 L24.661122,4.42830709 L23.6619094,4.63807087 C23.3689961,4.69925197 23.3075787,4.99098425 23.3075787,4.99098425 L22.8800197,2.86098425 L21.1610433,3.21814961 C21.1610433,3.21814961 21.515374,3.38374016 21.5909646,3.73712598 L21.5992323,3.75129921 L22.5044291,8.12185039 L23.5083661,7.9142126 C23.7067913,7.87452756 23.8485236,7.82751969 23.8839567,7.67350394 L23.517815,5.91885827 L24.9091535,5.62830709 L25.3060039,7.54051181 L26.3099409,7.33476378 C26.5083661,7.29366142 26.6500984,7.24688976 26.6855315,7.09405512 L25.6839567,2.27728346 Z M35.921752,3.20751969 C35.8319882,3.21271654 35.7563976,3.22783465 35.6878937,3.25311024 C35.4186024,3.3542126 35.1894685,3.68185039 34.9957677,4.23720472 L34.2729331,6.32586614 C34.1855315,6.57153543 34.1312008,6.77704724 34.1123031,6.94452756 C34.0697835,7.27003937 34.1477362,7.52161417 34.3343504,7.69830709 C34.5209646,7.87523622 34.8658465,8.05311024 35.3784449,8.22980315 L36.2713583,8.53901575 C36.9162402,8.76224409 37.3721457,8.82224409 37.6367126,8.71996063 C37.9060039,8.61744094 38.1375,8.29240157 38.3312008,7.73586614 C38.3312008,7.73586614 38.6760827,6.7557874 38.725689,6.60814961 C38.8083661,6.33838583 38.6052165,6.1673622 38.4918307,6.12885827 L36.8170276,5.54515748 C36.6209646,5.4773622 36.4957677,5.62665354 36.4272638,5.75279528 C36.3587598,5.88035433 36.1107283,6.59562992 36.1107283,6.59562992 L36.0233268,6.82003937 C36.0233268,6.82003937 36.2146654,6.63389764 36.4650591,6.72035433 L37.0792323,6.93437008 C36.9871063,7.15901575 36.8831693,7.28610236 36.7768701,7.32059055 C36.6800197,7.35366142 36.4768701,7.31374016 36.1650591,7.20602362 C36.1650591,7.20602362 35.9500984,7.1226378 35.8910433,7.08791339 C35.7422244,6.99106299 35.6760827,6.86822835 35.6973425,6.71019685 C35.7067913,6.61972441 35.7398622,6.49570866 35.7965551,6.33224409 L36.1981299,5.17570866 C36.3067913,4.86602362 36.4154528,4.69240157 36.5288386,4.65649606 C36.6422244,4.62200787 36.8524606,4.65791339 37.1642717,4.76681102 L38.6855315,5.29192913 C38.9619094,5.38759843 39.013878,5.74688976 39.013878,5.74688976 L39.1201772,5.44358268 L39.3894685,4.66311024 C39.4674213,4.36547244 39.2784449,4.2057874 39.0233268,4.11673228 L37.0461614,3.43169291 C36.5666339,3.26515748 36.1934055,3.19122047 35.921752,3.20751969 L35.921752,3.20751969 Z M19.9818307,3.58523622 C19.9168701,3.58169291 19.8509646,3.59066929 19.7888386,3.61665354 L18.0615945,4.33688976 C17.4384449,4.59602362 17.061437,4.85232283 16.9298622,5.10744094 C16.7982874,5.35972441 16.8474213,5.76248031 17.073248,6.30744094 L17.2726181,6.77232283 C17.3030906,6.84295276 17.3394685,6.90791339 17.3805709,6.96767717 C17.5386024,7.19610236 17.7580512,7.34917323 18.0450591,7.4261811 C18.3852165,7.5138189 18.7737992,7.4642126 19.2136417,7.28090551 L19.8861614,7.00074803 C20.1467126,6.89326772 20.3361614,6.92090551 20.4490748,7.0857874 C20.4797835,7.12948819 20.4949016,7.17909449 20.4949016,7.23106299 C20.4949016,7.23106299 20.5712008,7.46681102 20.035689,7.69003937 L18.6802559,8.25673228 C18.3774213,8.35901575 17.9371063,8.07200787 17.9371063,8.07200787 C17.9371063,8.07200787 18.2158465,8.73318898 18.3873425,9.14114173 C18.4870276,9.37901575 18.7908071,9.53350394 19.039311,9.42980315 L19.1744291,9.37358268 L20.1086811,8.98570866 L20.7830906,8.70318898 C21.4076575,8.44287402 21.7834843,8.18917323 21.9148228,7.93287402 C22.047815,7.67775591 21.9899409,7.30901575 21.7655315,6.76830709 C21.7655315,6.76830709 21.591437,6.36507874 21.5328543,6.25334646 C21.2059252,5.6261811 20.5218307,5.41287402 19.8280512,5.70106299 L19.0475787,6.02681102 C18.7657677,6.14374016 18.5680512,6.12129921 18.4579724,5.96043307 C18.4539567,5.955 18.423248,5.88956693 18.4204134,5.88153543 C18.3859252,5.7646063 18.2975787,5.56003937 18.713563,5.3873622 L20.1252165,4.80011811 C20.4294685,4.67374016 20.8910433,4.97633858 20.8910433,4.97633858 C20.8910433,4.97633858 20.6123031,4.31161417 20.4408071,3.90507874 C20.3661614,3.72673228 20.1769488,3.59610236 19.9818307,3.58523622 L19.9818307,3.58523622 Z M40.2186024,4.66901575 C40.1075787,4.66688976 40.0319882,4.75452756 39.9989173,4.80413386 C39.9563976,4.87476378 39.5193898,5.64484252 39.5193898,5.64484252 L39.325689,5.98759843 C39.325689,5.98759843 39.6186024,5.70224409 39.9540354,5.8961811 L40.7052165,6.33224409 L38.7847441,9.65822835 L40.1382874,10.443189 C40.1382874,10.443189 40.1430118,10.2227953 40.2658465,9.97145669 C40.2658465,9.97145669 41.3288386,8.12066929 41.9500984,7.04822835 L42.5288386,7.3846063 C42.8619094,7.5773622 42.8500984,8.10106299 42.8500984,8.10106299 L43.1642717,7.54901575 L43.6863189,6.63956693 L41.5626969,5.41240157 C41.5626969,5.41240157 41.553248,5.40649606 41.5437992,5.39988189 L40.3390748,4.70468504 C40.2965551,4.67964567 40.2540354,4.66972441 40.2186024,4.66901575 L40.2186024,4.66901575 Z M13.7949803,6.74751969 L12.9478937,7.33901575 C12.777815,7.45996063 12.7036417,7.57429134 12.7197047,7.75240157 L14.1481299,12.1016929 C14.2397835,12.3740551 13.907185,12.8656299 13.907185,12.8656299 L15.3960827,11.8234252 C15.5302559,11.7305906 15.5600197,11.5732677 15.5123031,11.4230315 L15.3023031,10.8083858 L16.4382874,10.0153937 L16.8783661,10.2936614 C17.1320669,10.5034252 16.9508858,10.7379921 16.9508858,10.7379921 L18.5850591,9.59374016 L13.7949803,6.74751969 L13.7949803,6.74751969 Z M44.4209646,7.60051181 C44.1327756,7.60854331 43.8091535,7.84405512 43.445374,8.3065748 L42.0800197,10.0444488 C41.9193898,10.2490157 41.8036417,10.4264173 41.7304134,10.5778346 C41.5863189,10.872874 41.5697835,11.1341339 41.6902559,11.3625591 C41.8083661,11.5912205 42.0800197,11.8720866 42.5028543,12.2053937 L43.2445866,12.7909843 C43.7831693,13.2135827 44.1965551,13.4183858 44.4776575,13.4077559 C44.7658465,13.3985433 45.0918307,13.1644488 45.4556102,12.7019291 L46.8233268,10.9640551 C46.9815945,10.7620866 47.0997047,10.5839764 47.1729331,10.4325591 C47.3193898,10.1387008 47.3264764,9.86964567 47.1965551,9.62917323 C47.0902559,9.41397638 46.8186024,9.13523622 46.3863189,8.79649606 L45.6445866,8.21090551 C45.1154528,7.79374016 44.7067913,7.59129921 44.4209646,7.60051181 L44.4209646,7.60051181 Z M11.333563,8.20688976 L11.1840354,8.38547244 L10.3867913,9.29066929 C10.3827756,9.29586614 10.383248,9.29870079 10.3766339,9.30531496 C10.2689173,9.42767717 10.1904921,9.53279528 10.1999409,9.64594488 L12.2302559,12.7784646 L9.36938976,11.2319291 C9.00537402,11.0859449 9.15773622,10.6881496 9.15773622,10.6881496 L8.87120079,11.0120079 L8.28372047,11.6762598 C8.28112205,11.6816929 8.27805118,11.6861811 8.27143701,11.6930315 C8.12261811,11.8602756 8.04938976,12.0298819 8.12781496,12.2120079 L10.1815157,15.0995669 L7.31214567,13.6255512 C6.94009843,13.4342126 7.10214567,13.0217717 7.10214567,13.0217717 L6.79718504,13.3621654 L6.12230315,14.1303543 C6.11970472,14.1343701 6.11781496,14.1376772 6.10978346,14.1468898 C5.95576772,14.3209843 5.91537402,14.5732677 6.06419291,14.696811 C6.08687008,14.7154724 6.07482283,14.7093307 6.07482283,14.7093307 L10.527815,16.7961024 L11.5742717,15.6105118 C11.7164764,15.4496457 11.7571063,15.3634252 11.6904921,15.1933465 L10.8476575,13.6236614 L12.5749016,14.475 L13.6877362,13.2102756 C13.8259252,13.0536614 13.8469488,12.8332677 13.7897835,12.6646063 L11.4207283,8.70106299 C11.2678937,8.43248031 11.333563,8.20688976 11.333563,8.20688976 Z M14.5787598,8.8569685 L15.2637992,9.30720472 L14.8527756,9.60625984 L14.5787598,8.8569685 L14.5787598,8.8569685 Z M44.7559252,9.20161417 C44.8645866,9.20751969 45.0393898,9.30106299 45.2637992,9.46901575 C45.4031693,9.58122047 45.5141929,9.6761811 45.5519882,9.72484252 C45.6630118,9.85901575 45.6795472,10.0005118 45.6110433,10.1441339 C45.5708858,10.2237402 45.4976575,10.3283858 45.3866339,10.4573622 L44.6307283,11.4187795 C44.4252165,11.6819291 44.2598622,11.8080709 44.1228543,11.8026378 C44.0330906,11.8038189 43.865374,11.7072047 43.6433268,11.539252 C43.5086811,11.4308268 43.3976575,11.3361024 43.3622244,11.2919291 C43.2512008,11.1525591 43.2323031,11.0148425 43.3031693,10.8726378 C43.3433268,10.7901969 43.4165551,10.6855512 43.5204921,10.5487795 L44.2763976,9.58547244 C44.4795472,9.32751969 44.6401772,9.20161417 44.7559252,9.20161417 L44.7559252,9.20161417 Z M28.8795472,9.64712598 C18.156025,9.64764781 9.46316928,18.3409265 9.46316929,29.0644488 C9.46316928,39.7879711 18.156025,48.4812498 28.8795472,48.4817717 C39.6034385,48.4817717 48.2968701,39.7883401 48.2968701,29.0644488 C48.2968701,23.9146546 46.2511223,18.9757826 42.6096679,15.3343282 C38.9682135,11.6928738 34.0293414,9.64712598 28.8795472,9.64712598 L28.8795472,9.64712598 Z M48.3724606,10.6631102 C48.3724606,10.6631102 48.4433268,11.1374409 48.1622244,11.3606693 L44.6307283,14.1197244 L45.2637992,14.9294882 C45.3842717,15.0861024 45.4905709,15.195 45.6441142,15.1579134 C45.6441142,15.1579134 46.5346654,14.4624803 47.5291535,13.6836614 L46.633878,16.0047638 C46.473248,16.3742126 46.2228543,16.1542913 46.2228543,16.1542913 L46.4023819,16.399252 L46.4047441,16.3975984 L47.0330906,17.2031102 C47.1582874,17.3611417 47.2622244,17.4672047 47.4134055,17.4315354 L51.2874213,14.4001181 L50.4039567,13.2683858 L50.1606496,12.9634252 C50.1606496,12.9634252 50.2291535,13.4037402 49.945689,13.6255512 L48.445689,14.7988583 L49.4165551,12.1472835 C49.4401772,12.0809055 49.4283661,12.0159449 49.3787598,11.9521654 C49.2700984,11.811378 48.6346654,10.9952362 48.6346654,10.9952362 L48.3724606,10.6631102 L48.3724606,10.6631102 Z M5.59529528,18.5734252 L4.92490157,20.638937 L2.75309055,20.638937 L4.51151575,21.9135827 L3.83875984,23.978622 L5.59529528,22.7025591 L7.35159449,23.978622 L6.68120079,21.9135827 L8.43962598,20.638937 L6.26781496,20.638937 L5.59529528,18.5734252 L5.59529528,18.5734252 Z M52.1071063,18.8474409 L51.4386024,20.9129528 L49.2630118,20.9129528 L51.0228543,22.1899606 L50.3519882,24.255 L52.1071063,22.9794094 L53.8645866,24.255 L53.1937205,22.1899606 L54.9512008,20.9129528 L52.7779724,20.9129528 L52.1071063,18.8474409 L52.1071063,18.8474409 Z M43.6173425,45.1624016 C43.5700984,45.155315 43.5204921,45.155315 43.4708858,45.1624016 C43.4071063,45.1718504 43.3433268,45.1954724 43.2889961,45.2356299 L41.7488386,46.298622 C41.1937205,46.6812992 40.877185,47.0096457 40.8015945,47.2860236 C40.7236417,47.5600394 40.8606496,47.9427165 41.1913583,48.4293307 L41.4819094,48.8427165 C41.5267913,48.9041339 41.5740354,48.9608268 41.6283661,49.0104331 C41.8291535,49.2017717 42.077185,49.3057087 42.3748228,49.3222441 C42.7244291,49.3364173 43.0929331,49.2088583 43.4850591,48.9395669 L44.0874213,48.5261811 C44.3189173,48.3655512 44.5078937,48.3537402 44.6543504,48.490748 C44.6945079,48.5285433 44.7181299,48.571063 44.7299409,48.6230315 C44.7299409,48.6230315 44.8527756,48.8379921 44.3756102,49.1663386 L43.1661614,50.0025591 C42.8921457,50.1655512 42.4008071,49.9742126 42.4008071,49.9742126 C42.4008071,49.9742126 42.8118307,50.567126 43.0645866,50.9285433 C43.2086811,51.1411417 43.5393898,51.2309055 43.761437,51.0773622 L43.8819094,50.994685 L44.7134055,50.4183071 L45.3157677,50.0025591 C45.873248,49.6198819 46.1874213,49.2938976 46.2630118,49.0151575 C46.3386024,48.7364173 46.2086811,48.3891732 45.8756102,47.9072835 C45.8756102,47.9072835 45.6204921,47.5482283 45.5401772,47.451378 C45.0913583,46.9080709 44.3779724,46.8372047 43.7590748,47.2624016 L43.0622244,47.7442913 C42.8118307,47.9167323 42.6134055,47.9379921 42.4716732,47.8033465 C42.4645866,47.798622 42.4244291,47.7395669 42.4220669,47.7324803 C42.3630118,47.6238189 42.2330906,47.4466535 42.6039567,47.1915354 L43.8630118,46.3222441 C44.1346654,46.1356299 44.6472638,46.3340551 44.6472638,46.3340551 L43.9858465,45.3820866 C43.9031693,45.2616142 43.7637992,45.1812992 43.6173425,45.1624016 L43.6173425,45.1624016 Z M13.2559252,45.2450787 C13.1552953,45.2498031 13.0660039,45.2923228 13.0173425,45.375 C13.0029331,45.4009843 13.0069488,45.3891732 13.0069488,45.3891732 L11.4188386,49.9694882 L12.7558465,50.8127953 C12.9365551,50.9285433 13.029626,50.9521654 13.1876575,50.8600394 L14.601437,49.7781496 L14.0347441,51.6206693 L15.4589173,52.5206693 C15.6358465,52.6316929 15.857185,52.6175197 16.0154528,52.5348425 L19.3206496,49.4214567 C19.5625394,49.2253937 19.7959252,49.2561024 19.7959252,49.2561024 L19.5946654,49.1379921 L18.5751378,48.4931102 C18.5697047,48.4883858 18.5645079,48.4883858 18.5567126,48.4836614 C18.4185236,48.3962598 18.303248,48.3372047 18.1931693,48.3655512 L15.9507283,50.5482283 L16.771122,47.9096457 C16.8230906,47.6545276 17.2319882,47.6474409 17.2319882,47.6474409 L16.8708071,47.4159449 L16.1170276,46.9411417 C16.1115945,46.9387795 16.1092323,46.9387795 16.1026181,46.9340551 C15.9112795,46.8135827 15.7319882,46.7663386 15.5647441,46.8726378 L13.2601772,49.0104331 L14.271437,46.4379921 C14.4015945,46.0411417 14.8362402,46.1332677 14.8362402,46.1332677 L14.4519094,45.8875984 L13.5863976,45.3419291 C13.5823819,45.3419291 13.5767126,45.3395669 13.5675,45.3324803 C13.4685236,45.2687008 13.3565551,45.2403543 13.2559252,45.2450787 L13.2559252,45.2450787 Z M39.5803346,48.0915354 C39.4031693,48.1033465 39.1787598,48.167126 38.9071063,48.2852362 L35.5220669,49.7498031 C35.5220669,49.7498031 35.9897835,49.8348425 36.1575,50.1301181 L37.7260039,53.751378 C37.7945079,54.0064961 37.7000197,54.282874 37.6551378,54.3419291 L40.9527756,52.9269685 C41.4015945,52.7332677 41.661437,52.5206693 41.7346654,52.298622 C41.8078937,52.0718504 41.7275787,51.686811 41.4960827,51.1505906 L40.5157677,49.0104331 C40.4118307,48.7742126 40.3622244,48.686811 40.2889961,48.5450787 C40.1401772,48.2616142 39.9370276,48.1246063 39.7433268,48.0962598 C39.6937205,48.0891732 39.6393898,48.086811 39.5803346,48.0915354 L39.5803346,48.0915354 Z M20.4155315,49.3576772 C20.2789961,49.3482283 20.1103346,49.4025591 19.9818307,49.8253937 L18.5200984,54.0395669 L19.8797835,54.5120079 L19.9860827,54.5238189 C19.9860827,54.5238189 19.9603346,54.3372047 20.033563,54.0679134 C20.033563,54.0679134 21.3500197,50.2435039 21.4204134,50.0734252 C21.4908071,49.9009843 21.7549016,49.8064961 21.7549016,49.8064961 C21.6219094,49.7545276 21.0915945,49.5820866 20.5400197,49.378937 C20.5041142,49.3718504 20.461122,49.3624016 20.4155315,49.3576772 L20.4155315,49.3576772 Z M39.0937205,49.551378 C39.1267913,49.5490157 39.1575,49.5537402 39.1858465,49.5655512 C39.2449016,49.5891732 39.2968701,49.6364173 39.3441142,49.7120079 C39.4055315,49.8088583 40.2441142,51.6797244 40.2323031,51.778937 C40.2228543,51.8805118 40.1708858,51.9537402 40.0787598,51.9915354 L38.7819094,52.5561024 L38.0212795,50.8057087 C37.9740354,50.6899606 37.8582874,50.4253937 37.7260039,50.1253937 L38.9945079,49.575 C39.0299409,49.5608268 39.0630118,49.5537402 39.0937205,49.551378 L39.0937205,49.551378 Z M22.4782087,50.0639764 C22.2478937,50.082874 22.1479724,50.2624016 22.0806496,50.4797244 L21.931122,51.155315 L21.9351378,51.155315 L21.8668701,51.4340551 C21.8668701,51.4340551 22.1439567,51.2238189 22.4482087,51.271063 L24.1763976,51.6490157 L21.2834055,54.086811 L21.107185,54.9041339 L24.8779724,55.7332677 C25.1189173,55.7875984 25.2866339,55.794685 25.3716732,55.551378 L25.6433268,54.3041339 C25.6433268,54.3041339 25.3622244,54.5781496 25.0504134,54.5261811 L23.2220669,54.1222441 L26.1819094,51.859252 L26.3968701,50.8954724 C26.3968701,50.8954724 22.6386024,50.071063 22.5842717,50.0663386 C22.5464764,50.0616142 22.5110433,50.0616142 22.4782087,50.0639764 L22.4782087,50.0639764 Z M34.6882087,50.0994094 C34.5464764,50.0994094 34.3787598,50.1159449 34.1850591,50.151378 L30.5897835,50.8269685 C30.5897835,50.8269685 31.0433268,50.9970472 31.1212795,51.3395669 L31.9197047,55.7285433 L32.9212795,55.5419291 C33.1197047,55.5064961 33.2637992,55.4639764 33.3015945,55.3104331 L33.0323031,53.8246063 L33.7315157,53.6852362 L34.9433268,55.1568898 L36.7362402,54.8238189 C36.7362402,54.8238189 36.4267913,54.7482283 36.2543504,54.582874 L35.1630118,53.3757874 C35.4157677,53.3167323 35.6212795,53.1773622 35.6968701,53.0521654 C35.8197047,52.8466535 35.8244291,52.4545276 35.7181299,51.8781496 C35.7181299,51.8781496 35.5126181,50.8694882 35.4724606,50.7112205 C35.3945079,50.4088583 35.2244291,50.2246063 35.037815,50.1561024 C34.9480512,50.1183071 34.8323031,50.0994094 34.6882087,50.0994094 L34.6882087,50.0994094 Z M27.9630118,50.8505906 C27.7551378,50.8529528 27.6323031,50.9025591 27.5425394,51.0584646 L26.2197047,55.4379921 C26.1370276,55.7143701 25.5842717,55.9293307 25.5842717,55.9293307 L27.3984449,55.9293307 C27.561437,55.9293307 27.6795472,55.8183071 27.7267913,55.667126 L27.9063189,55.0435039 L29.2905709,55.0435039 L29.4937205,55.5253937 C29.5834843,55.8419291 29.2976575,55.9293307 29.2976575,55.9293307 L31.2937205,55.9293307 L28.9976575,50.8505906 L27.9630118,50.8505906 L27.9630118,50.8505906 Z M34.0882087,51.4269685 C34.1803346,51.4411417 34.2512008,51.5143701 34.2937205,51.6419291 C34.3315157,51.7458661 34.3858465,52.1143701 34.3527756,52.2112205 C34.3220669,52.3057087 34.2559252,52.3624016 34.1543504,52.3812992 L33.3252165,52.5466535 C33.1362402,52.5820866 32.9992323,52.7781496 32.8858465,53.0143701 L32.6401772,51.686811 L33.9842717,51.4269685 C34.0220669,51.4222441 34.0551378,51.4198819 34.0882087,51.4269685 L34.0882087,51.4269685 Z M28.4897835,53.059252 L28.7779724,53.8269685 L28.2700984,53.8269685 L28.4897835,53.059252 Z" fill="#FFFFFF" transform="translate(28.852146, 29.014016) scale(-1, 1) rotate(-180.000000) translate(-28.852146, -29.014016) "></path>
                        <path d="M28.8661417,46.765748 C27.5732776,46.7669291 26.3165551,46.626812 25.1019685,46.3650591 C25.9962106,45.9026575 26.8889469,45.0541831 27.4563189,43.5062008 L28.8618898,45.5761417 L30.2695276,43.5062008 C30.8342421,45.0488681 31.7247343,45.8985236 32.6176476,46.3609252 C31.4084941,46.622687 30.1535728,46.7644488 28.8661713,46.7657776 L28.8661417,46.765748 Z M23.2437992,45.8584547 C18.0298228,44.1204626 13.8947835,40.0270571 12.1009843,34.8381791 C14.4887303,38.4245965 19.1577756,42.5002854 26.2957677,43.3066831 C25.6672736,44.8134744 24.3918602,45.523435 23.2437992,45.8582776 L23.2437992,45.8584547 Z M34.4633858,45.8543209 C33.3206693,45.5168209 32.0525492,44.8070374 31.4279528,43.3068898 C38.5101378,42.5069882 43.1648622,38.4882874 45.5687008,34.9234252 C43.7602854,40.0683071 39.6454724,44.1245079 34.4633858,45.8545276 L34.4633858,45.8543209 Z" fill="#E31837"></path>
                        <path d="M34.9488189,41.2322835 C34.3105217,41.2184941 34.0104035,41.0080571 34.0104035,41.0080571 L31.944626,39.8516398 L32.0505118,39.4675453 L32.5010433,37.8315413 C32.5010433,37.8315413 33.3491043,35.4741201 35.3661319,33.4570335 C39.1757776,29.6913839 44.0392618,24.1812461 43.5461516,19.1441398 C45.3984154,21.8879882 46.4969587,25.1798681 46.5606201,28.7234705 C46.2523524,30.510626 45.6789272,32.0860689 44.964065,33.4611673 C43.6353248,36.0123484 41.0670177,38.4197303 37.9114075,40.2814429 C36.5634154,41.0633917 35.5870276,41.2461083 34.9486122,41.2323189 L34.9488189,41.2322835 Z M22.774311,41.2302165 C22.1358661,41.2436811 21.1610433,41.063377 19.8135827,40.2814075 C16.6576772,38.4211713 14.0896654,36.0129035 12.7609252,33.459065 C12.0261319,32.0439567 11.4410728,30.4177264 11.1394488,28.5654626 C11.2337894,25.0617224 12.3387992,21.8113287 14.1831496,19.0983366 C13.6569685,24.1475492 18.5369882,29.6795374 22.3569685,33.456998 C24.3753248,35.4726969 25.2241535,37.8315059 25.2241535,37.8315059 L25.674685,39.4696063 L25.7805709,39.8516339 L23.7147933,41.0080512 C23.7147933,41.0080512 23.4127559,41.2167461 22.7742815,41.2302018 L22.774311,41.2302165 Z M28.8617126,37.4973425 C28.6570866,37.3511811 22.1173228,32.6441929 19.2366142,27.9844488 C15.3487205,21.6956693 15.8536417,18.0690945 16.8594094,15.9989173 C19.3654134,13.6948819 22.5366732,12.1036417 26.0525197,11.5455709 L27.5681102,33.0274606 L28.8304134,34.2959941 L28.8470374,34.3126181 L28.8491043,34.3126181 L28.8636319,34.2959941 L30.128002,33.0274606 L31.6539862,11.5621063 L31.6332283,11.5516831 C35.1756496,12.1110827 38.3699409,13.7159646 40.8865748,16.0466634 C41.8764862,18.124813 42.3452067,21.7434154 38.4865453,27.9846555 C35.6058366,32.6446949 29.0675492,37.3513878 28.8614469,37.4975492 L28.8617126,37.4973425 Z" fill="#002B5C"></path>
                        <path d="M28.8602362,44.1998031 L28.652622,43.7804232 L28.2415394,42.9416634 L28.2394724,42.9416634 L28.2228484,42.906372 L28.2062244,42.8710807 L27.9840768,42.4184823 L27.9653858,42.3790335 L27.961252,42.3727736 L27.408998,42.3374823 C26.6263701,42.2883189 25.8496476,42.1804429 25.0816358,42.0488976 C24.7408287,41.9905482 24.3970394,41.9403691 24.0601594,41.8661959 L25.1460059,41.2807234 L26.2318228,40.695251 L26.5681713,40.514625 L26.9045197,40.333999 L26.7010541,39.5969616 L26.6885935,39.55544 L26.5972411,39.2149577 L25.9910108,37.018373 L27.369564,38.0336191 L28.301749,38.7229104 L28.577876,38.926376 L28.8519301,39.1298386 L28.8519301,39.1402618 L28.8602274,39.134002 L28.8685246,39.1402618 L28.8685246,39.1298386 L29.1446516,38.926376 L29.4207815,38.7229104 L31.7294823,37.0184026 L31.1253189,39.2149872 L31.0734124,39.4059921 L31.0215059,39.597 L30.8180433,40.3340374 L31.0360394,40.4503022 L31.4886378,40.6952894 L32.9564823,41.4842362 L33.6623681,41.8662638 C33.3248681,41.9406732 32.980311,41.990501 32.6388248,42.0489656 C31.8694843,42.1805108 31.0974862,42.2883868 30.3135295,42.3375502 L29.7591791,42.3728415 L29.7487559,42.3956663 L29.7362953,42.4184911 L29.5141476,42.8710896 L29.501687,42.8980778 L28.8601713,44.1998297 L28.8602362,44.1998031 Z M28.8643701,34.2944882 L28.8788976,9.98267717 L31.6318701,11.5522441 L31.652628,11.5626673 L30.1266437,33.0280217 L28.8643406,34.2944882 L28.8643701,34.2944882 Z" fill="#C4CED4"></path>
                    </g>
                </g>
            </g>
        </g>
    </g>
</svg>