<?xml version="1.0" encoding="UTF-8"?>
<svg width="60px" height="60px" viewBox="0 0 60 60" version="1.1" xmlns="http://www.w3.org/2000/svg" xmlns:xlink="http://www.w3.org/1999/xlink">
    <title>ATL</title>
    <g id="Page-1" stroke="none" stroke-width="1" fill="none" fill-rule="evenodd">
        <g id="ATL" fill-rule="nonzero">
            <path d="M30.0148148,60 C13.4518519,60 0,46.5481481 0,30.0148 C0.009733814,13.4421115 13.4421263,0.00972563399 30.0148148,0 C46.5481481,0 60,13.4518519 60,30.0148 C59.9808951,46.5672429 46.5672577,59.9808869 30.0148148,60 L30.0148148,60 Z" id="Shape" fill="#E03A3E"></path>
            <path d="M30.0148148,58.637037 C14.207198,58.637037 1.39259259,45.8224317 1.39259259,30.0148148 C1.39259259,14.207198 14.207198,1.39259259 30.0148148,1.39259259 C45.8224317,1.39259259 58.637037,14.207198 58.637037,30.0148148 C58.637037,45.7777778 45.7777778,58.637037 30.0148148,58.637037 Z" id="Shape" fill="#FFFFFF"></path>
            <path d="M30.0148148,57.2444444 C14.9763056,57.2444444 2.78518519,45.053324 2.78518519,30.0148148 C2.78518519,14.9763056 14.9763056,2.78518519 30.0148148,2.78518519 C45.053324,2.78518519 57.2444444,14.9763056 57.2444444,30.0148148 C57.2329288,45.0485515 45.0485515,57.2329288 30.0148148,57.2444444 Z" id="Shape" fill="#E03A3E"></path>
            <polygon id="Shape" fill="#FFFFFF" points="20.2962963 6.99259259 20.8 8.17777778 19.3481481 7.40740741 18.5185185 7.79259259 20.2074074 11.6148148 21.037037 11.2592593 19.9703704 8.82962963 21.4518519 9.62962963 21.9851852 10.8444444 22.8148148 10.4888889 21.0962963 6.63703704"></polygon>
            <polygon id="Shape" fill="#FFFFFF" points="38.1037037 6.34074074 37.4814815 8.32592593 36.4740741 8 37.1259259 6.04444444 36.2666667 5.77777778 35.6444444 7.73333333 35.3481481 7.64444444 35.4666667 8.23703704 34.9925926 9.77777778 35.8518519 10.0444444 36.237037 8.77037037 37.2444444 9.0962963 36.8296296 10.3703704 37.6888889 10.637037 38.962963 6.63703704"></polygon>
            <path d="M52.0592593,18.0740741 C51.9111111,17.8074074 51.7333333,17.5703704 51.5851852,17.3037037 C50.969489,17.6513802 50.3124711,17.9201602 49.6296296,18.1037037 L49.2740741,17.5407407 L51.0222222,16.4444444 L50.5481481,15.6740741 L48.8,16.8 L48.6222222,16.5333333 L48.3555556,17.0666667 L46.9925926,17.9555556 L47.4666667,18.6962963 L48.5925926,17.9851852 L49.037037,18.637037 C48.7339846,18.9861702 48.3964721,19.303829 48.0296296,19.5851852 C48.2074074,19.8222222 48.3555556,20.0888889 48.5333333,20.3259259 C48.8,20.1185185 49.6296296,19.3777778 49.8074074,18.9333333 C50.5960541,18.7587373 51.3547722,18.4692264 52.0592593,18.0740741 L52.0592593,18.0740741 Z" id="Shape" fill="#FFFFFF"></path>
            <path d="M53.1851852,20.5333333 C52.5578865,20.5506832 51.9415858,20.7022325 51.3777778,20.9777778 L51.1407407,23.1703704 C50.962963,23.2296296 50.7851852,23.2592593 50.6074074,23.3185185 L50.2222222,22.4 L50.5481481,22.2518519 L50.2222222,21.4222222 L49.1555556,21.837037 C49.1555556,21.837037 50.0740741,24.1481481 50.1037037,24.2666667 C50.7635217,24.2297352 51.4088278,24.0583258 52,23.762963 L52.2074074,21.6000123 C52.3616385,21.546639 52.5202784,21.506979 52.6814815,21.4814938 L53.037037,22.4000123 L52.7407407,22.5481605 L53.0666667,23.3777901 L54.1037037,22.9629753 C54.1037037,22.9629753 53.2444444,20.7110963 53.1851852,20.5333333 Z" id="Shape" fill="#FFFFFF"></path>
            <polygon id="Shape" fill="#FFFFFF" points="7.94074074 18.1333333 8.62222222 18.5481481 9.12592593 17.7185185 12.0592593 19.4962963 12.5037037 18.7259259 9.6 16.9481481 10.1037037 16.1185185 9.42222222 15.7037037"></polygon>
            <polygon id="Shape" fill="#FFFFFF" points="23.3777778 5.86666667 23.5555556 6.63703704 24.5037037 6.42962963 25.2740741 9.74814815 26.1333333 9.54074074 25.3925926 6.22222222 26.3407407 6.01481481 26.162963 5.21481481"></polygon>
            <polygon id="Shape" fill="#FFFFFF" points="11.4666667 13.2148148 10.8740741 13.8666667 13.9851852 16.7111111 15.437037 15.1111111 14.8444444 14.5777778 13.9851852 15.4962963"></polygon>
            <path d="M7.2,21.896279 L7.40740741,21.3036864 C7.8393624,21.3368409 8.26650505,21.4163093 8.68148148,21.5407235 L8.32592593,22.5185185 C7.92383144,22.3637774 7.54496345,22.1543972 7.2,21.896279 L7.2,21.896279 Z M10.9925926,21.4222049 L9.06666667,20.7407235 C8.35222326,20.4996199 7.59564739,20.4088308 6.84444444,20.4740568 C6.84444444,20.5037012 6.28148148,22.1036864 6.25185185,22.1925753 C6.76644806,22.6936881 7.36914234,23.0954843 8.02962963,23.3777605 L7.91111111,23.6444272 L8.5037037,23.5555383 L10.0148148,24.0888716 L10.3111111,23.259242 L9.06666667,22.8147975 L9.42222222,21.8073901 L10.6666667,22.2814642 L10.9925926,21.4222049 Z" id="Shape" fill="#FFFFFF"></path>
            <path d="M41.8666667,8.91851852 L42.4,9.21481481 C42.3060861,9.63758484 42.1566408,10.0460686 41.9555556,10.4296296 L41.037037,9.92592593 C41.2715187,9.55758775 41.5501261,9.21927872 41.8666667,8.91851852 L41.8666667,8.91851852 Z M41.6592593,12.7111111 L42.6666667,10.962963 C43.0375794,10.3081786 43.2601086,9.57990101 43.3185185,8.82962963 C43.2888889,8.82962963 41.837037,7.97037037 41.7481481,7.94074074 C41.1605442,8.35509852 40.6576715,8.87808607 40.2666667,9.48148148 L40,9.3037037 L40,9.92592593 L39.2,11.2888889 L39.9703704,11.762963 L40.6518519,10.6074074 L41.5407407,11.1407407 L40.8888889,12.2666519 L41.6592593,12.7111111 Z" id="Shape" fill="#FFFFFF"></path>
            <path d="M15.2296296,10.8147975 L15.7037037,10.4592593 C16.0541983,10.7165299 16.372527,11.0149631 16.6518519,11.3481481 L15.8222222,11.9703704 C15.578209,11.6108443 15.3791936,11.2227584 15.2296296,10.8147975 Z M18.6666667,12.4740741 L17.4222222,10.8740741 C16.954789,10.2853857 16.3694229,9.80094471 15.7037037,9.45185185 C15.6740741,9.48148148 14.3407407,10.4888889 14.2518519,10.5481481 C14.4161017,11.2471188 14.7073548,11.9099707 15.1111111,12.5037037 L14.8740741,12.7111111 L15.437037,12.9185185 L16.4148148,14.1925926 L17.1259259,13.6592593 L16.3259259,12.5925926 L17.1555556,11.9703704 L17.9555556,13.0370247 L18.6666667,12.4740741 Z" id="Shape" fill="#FFFFFF"></path>
            <path d="M30.1333333,7.0814642 L29.0962963,7.0814642 C29.0971432,6.65065049 29.1569577,6.22198019 29.2740741,5.80739012 L29.8962963,5.80739012 C30.0207052,6.22236784 30.1001735,6.64950992 30.1333333,7.0814642 L30.1333333,7.0814642 Z M29.0962963,9.21479753 L29.0962963,7.8814642 L30.1333333,7.8814642 L30.1333333,9.18518519 L31.0518519,9.18518519 L31.0222222,7.58518519 L31.3185185,7.05185185 L31.0222222,7.05185185 C30.9852948,6.33172937 30.8039212,5.62638758 30.4888889,4.97777778 C30.4,4.97777778 28.7111111,5.00740741 28.6814815,5.00740741 C28.3608381,5.68407951 28.1890732,6.42165833 28.1777778,7.17037037 L28.2074074,9.21481481 L29.0962963,9.21479753 Z" id="Shape" fill="#FFFFFF"></path>
            <path d="M48.3851852,13.037037 L47.0222222,14.4296296 C46.6836897,14.790298 46.2944162,15.0997205 45.8666667,15.3481481 L45.6,15.0814815 C45.7961801,14.6342875 46.0666705,14.2235428 46.4,13.8666667 L47.762963,12.4444444 L47.1407407,11.8222222 L45.7777778,13.2148148 C45.4102003,13.5507039 45.0021023,13.8393586 44.562963,14.0740741 L44.2962963,13.8074074 C44.523883,13.3728643 44.8133181,12.9736435 45.1555556,12.6222222 L46.5185185,11.2296296 L45.8666667,10.6074074 L44.4740741,12.0592593 C43.9543684,12.5988768 43.5598446,13.2463005 43.3185185,13.9555556 C43.3185185,13.9851852 44.3555556,14.962963 44.4148148,15.0222222 C44.5333333,14.9925926 44.6518519,14.9333333 44.7703704,14.9037037 C44.7111111,15.0222222 44.6814815,15.1407407 44.6222222,15.2592593 C44.6814815,15.3185185 45.7185185,16.2962963 45.7185185,16.3259259 C46.4314611,16.0637518 47.0786115,15.6491711 47.6148148,15.1111111 L49.037037,13.6592593 L48.3851852,13.037037 Z" id="Shape" fill="#FFFFFF"></path>
            <path d="M12.4444444,41.2740741 C11.8525119,41.4497675 11.3063372,41.7531979 10.8444444,42.162963 L11.2,44.3555556 C11.0222222,44.4444444 10.8740741,44.5333333 10.6962963,44.6222222 L10.1037037,43.8222222 L10.3703704,43.6444444 L9.83703704,42.9333333 L8.94814815,43.5851852 C8.94814815,43.5851852 10.4296296,45.5703704 10.4888889,45.6592593 C11.2296296,45.4518519 11.6444444,45.0962963 12.2074074,44.6814815 L11.8222222,42.5481481 C11.9499052,42.4518993 12.0892912,42.3722501 12.237037,42.3111111 L12.8296296,43.1111111 L12.562963,43.2888889 L13.0962963,44.0296296 L14.0148148,43.3481481 C14.0148148,43.3481481 12.5333333,41.3925926 12.4444444,41.2740741 Z" id="Shape" fill="#FFFFFF"></path>
            <polygon id="Shape" fill="#FFFFFF" points="22.0148148 49.2740741 21.7777778 50.0444444 22.6962963 50.3407407 21.5703704 53.5703704 22.4296296 53.8666667 23.5259259 50.637037 24.4444444 50.962963 24.7111111 50.1925926"></polygon>
            <path d="M6.22222222,34.4888716 L7.11111111,34.3110938 L7.28888889,35.1110938 C6.99259259,35.2296123 6.6962963,35.3481309 6.42962963,35.4370198 L6.22222222,34.4888716 Z M8.77037037,33.9555383 L8.97777778,34.933316 C8.673275,34.9727672 8.36567156,34.9826899 8.05925926,34.9629457 L7.88148148,34.1629457 L8.77037037,33.9555383 Z M9.95555556,35.6740568 C9.92592593,35.4666494 9.36296296,32.9185012 9.36296296,32.9185012 L7.7037037,33.2740568 L7.64444444,32.9481309 L7.17037037,33.3925753 L5.24444444,33.8073901 C5.24444444,33.8073901 5.80740741,36.3259086 5.83703704,36.5036864 C6.53353748,36.378064 7.20437265,36.1377648 7.82222222,35.7925753 C8.53403949,35.8975387 9.25974246,35.8572278 9.95555556,35.6740741 L9.95555556,35.6740568 Z" id="Shape" fill="#FFFFFF"></path>
            <polygon id="Shape" fill="#FFFFFF" points="20.5037037 49.4518519 20.9185185 48.7407407 18.4888889 47.3777778 17.6296296 48.8296296 17.3333333 48.6814815 17.362963 49.3333333 16.3851852 51.0222222 18.8148148 52.4148148 19.2 51.7037037 17.5703704 50.7555556 18.0148148 49.9851852 19.0222222 50.5777778 19.437037 49.8666667 18.4 49.2740741 18.8444444 48.5037037"></polygon>
            <path d="M46.7259259,47.051837 L46.9333333,47.3185037 L46.1925926,47.9999852 L44.4444444,46.0444444 L45.1259259,45.4518519 C45.2219897,45.5224032 45.3112651,45.6017591 45.3925926,45.6888889 L46.0444444,45.0962963 C45.7662951,44.8192858 45.4692876,44.5618794 45.1555556,44.3259259 C45.0666667,44.4148148 43.2592593,46.0740741 43.2592593,46.0740741 L46.0740741,49.1851852 L48.1481481,47.2888889 L47.3777778,46.4592593 L46.7259259,47.051837 Z" id="Shape" fill="#FFFFFF"></path>
            <polygon id="Shape" fill="#FFFFFF" points="35.7333333 49.9851852 34.8740741 50.2222222 35.9703704 54.2814815 38.0740741 53.7185185 37.8666667 52.9481481 36.6222222 53.2740741"></polygon>
            <path d="M10.162963,38.5481481 L10.4296296,39.1111111 C10.1126479,39.4014498 9.752884,39.6412924 9.36296296,39.8222222 L8.91851852,38.8740741 C9.31909403,38.7169371 9.73678781,38.6075411 10.162963,38.5481481 L10.162963,38.5481481 Z M7.79259259,41.5407407 L9.65925926,40.6814815 C10.3348207,40.3607672 10.9316207,39.8954656 11.4074074,39.3185185 C11.4074074,39.2888889 10.6962963,37.7481481 10.6666667,37.6592593 C9.94456827,37.6535531 9.22884476,37.7946817 8.56296296,38.0740741 L8.41481481,37.7777778 L8.05925926,38.2814815 L6.60740741,38.9629506 L6.99259259,39.762963 L8.20740741,39.2296296 L8.62222222,40.1481481 L7.43703704,40.7111111 L7.79259259,41.5407407 Z" id="Shape" fill="#FFFFFF"></path>
            <path d="M26.3703704,53.9259259 L26.4888889,53.0074074 L27.2888889,53.1259259 C27.3185185,53.4222395 27.3185185,53.7481481 27.3185185,54.0444444 L26.3703704,53.9259259 Z M26.6962963,51.3185185 L27.6740741,51.4666667 C27.6166733,51.7619257 27.5272563,52.0500474 27.4074074,52.3259259 L26.5777778,52.237037 L26.6962963,51.3185185 Z M28.6814815,50.7851852 C28.5037037,50.7555556 25.9259259,50.4296444 25.9259259,50.4296444 L25.6888889,52.1185333 L25.3925926,52.0592741 L25.6296296,52.6518667 L25.362963,54.5777753 C25.362963,54.5777753 27.9407407,54.9333333 28.1185185,54.962963 C28.2222662,54.2556359 28.2222662,53.5369567 28.1185185,52.8296296 C28.4740741,52.2073926 28.5925926,51.6444222 28.6814815,50.7851679 L28.6814815,50.7851852 Z" id="Shape" fill="#FFFFFF"></path>
            <path d="M53.5703704,35.5259259 L52.6814815,35.3185185 L52.8592593,34.5481481 C53.1851852,34.5481481 53.4814815,34.5481481 53.7777778,34.5777778 L53.5703704,35.5259259 Z M51.0222222,34.962963 L51.2296296,34.0148148 C51.5284939,34.0872845 51.8171447,34.1967727 52.0888889,34.3407407 L51.9111111,35.1703704 L51.0222222,34.962963 Z M50.6666667,32.9481481 C50.6074074,33.1259259 50.0444444,35.6740741 50.0444444,35.6740741 L51.7333333,36.0296296 L51.6444444,36.3555556 L52.2666667,36.1481481 L54.162963,36.562963 C54.162963,36.562963 54.7259259,34.0444444 54.7555556,33.8666667 C54.0698484,33.6863703 53.3580911,33.6262218 52.6518519,33.6888889 C52.0592593,33.2740617 51.5259259,33.1259259 50.6666667,32.9481333 L50.6666667,32.9481481 Z" id="Shape" fill="#FFFFFF"></path>
            <path d="M31.4666667,51.5555383 L32.0888889,51.496279 C32.252518,51.8947106 32.3621314,52.3132346 32.4148148,52.7407235 L31.3777778,52.8296123 C31.3492991,52.4028548 31.3792047,51.974207 31.4666667,51.5555383 L31.4666667,51.5555383 Z M33.5111111,54.7851852 L33.3333333,52.7407407 C33.2389704,51.9947756 32.9864277,51.2775543 32.5925926,50.637037 C32.5925926,50.637037 30.8740741,50.8148148 30.8148148,50.8148148 C30.5647661,51.4867251 30.45388,52.2024444 30.4888889,52.9185185 L30.1925926,52.9481481 L30.5481481,53.4518519 L30.6962963,55.0518519 L31.5851852,54.962963 L31.4666667,53.6296296 L32.5037037,53.5407407 L32.6222222,54.8444444 L33.5111111,54.7851852 Z" id="Shape" fill="#FFFFFF"></path>
            <polygon id="Shape" fill="#FFFFFF" points="46.7555556 42.3703704 46.2222222 43.0814815 49.6 45.6 50.9037037 43.8518519 50.2518519 43.3777778 49.5111111 44.3851852"></polygon>
            <polygon id="Shape" fill="#FFFFFF" points="39.2 48.6518519 38.4 49.037037 40.237037 52.8296296 42.1925926 51.8814815 41.837037 51.1407407 40.6814815 51.7037037"></polygon>
            <path d="M49.1259259,38.2814815 L50.9037037,39.0814815 C51.3536148,39.2766933 51.7728015,39.5361898 52.1481481,39.8518519 L51.8518519,40.4740741 C51.3701987,40.4031416 50.9012197,40.2634457 50.4592593,40.0592593 L48.6814815,39.2592593 L48.3259259,40.0592593 L50.162963,40.8888889 C50.8536188,41.1921783 51.6013131,41.343738 52.3555556,41.3333333 C52.3555556,41.3037037 53.0666667,39.7333333 53.0962963,39.6444444 C52.6205098,39.0674971 52.0237098,38.6021954 51.3481481,38.2814815 L49.4814815,37.4518519 L49.1259259,38.2814815 Z" id="Shape" fill="#FFFFFF"></path>
            <path d="M17.2444444,46.4888889 C17.0074074,46.2814815 16.8,46.0740741 16.562963,45.8666667 C16.0722965,46.3752882 15.5139732,46.8139708 14.9037037,47.1703704 L14.4296296,46.7259259 L15.7925926,45.1851852 L15.1407407,44.5925926 L13.7481481,46.1333333 L13.5111111,45.9259259 L13.3925926,46.5185185 L12.3259259,47.7037037 L12.9777778,48.2962963 L13.8962963,47.3185185 L14.4592593,47.8222222 C14.2571035,48.2311446 14.0294961,48.6269835 13.7777778,49.0074074 C13.9851852,49.2148148 14.1925926,49.3925926 14.4296296,49.6 C14.637037,49.3036864 15.2592593,48.3851852 15.2888889,47.9111111 C16.0035862,47.5300905 16.661756,47.0514216 17.2444444,46.4888889 Z" id="Shape" fill="#FFFFFF"></path>
            <path d="M48.5925926,30.0148 C48.5866042,37.5347996 44.0512668,44.3107243 37.1014012,47.1829707 C30.1515357,50.0552171 22.1557992,48.4581454 16.8425913,43.1364678 C11.5293835,37.8147902 9.94504973,29.81652 12.8283624,22.8712382 C15.7116751,15.9259565 22.4948152,11.4014178 30.0148148,11.4074074 C40.2783509,11.4272951 48.589053,19.7512453 48.5925926,30.0148 L48.5925926,30.0148 Z" id="Shape" fill="#FFFFFF"></path>
            <path d="M30.0148148,43.6148148 C26.3780539,43.6263947 22.8923037,42.1615242 20.3555556,39.5555556 C27.3481481,35.9407407 31.7333333,36.8888889 31.7333333,37.6 C31.7333333,38.3111111 30.637037,39.9703704 30.637037,39.9703704 C36.3555556,39.170358 40.5037037,35.7333333 40.5037037,31.0814667 C40.5037037,26.4592444 36.1777778,24.2073926 35.0814815,23.5259111 C33.8962963,22.7851704 34.4296296,21.777763 30.5481481,20.3259111 C28.1777778,19.4370222 24.8592593,18.5481333 23.5555556,18.2222074 C28.5102648,15.5296436 34.6159386,16.1960088 38.8731961,19.8939546 C43.1304535,23.5919003 44.6445914,29.5442681 42.6717973,34.8269877 C40.6990031,40.1097074 35.6538784,43.6125651 30.0148148,43.6148 L30.0148148,43.6148148 Z M30.0148148,12.7703704 C24.5404458,12.7556014 19.3838377,15.3394029 16.1185185,19.7333333 C16.562963,19.8814815 17.4518519,20.1185333 18.5185185,20.4444444 C20.2074074,20.9481481 25.837037,22.5777778 26.9037037,22.9333333 C29.9851852,23.9111111 30.7851852,24.2962963 31.6740741,25.2444444 C32.728517,26.3182667 33.8901289,27.2813124 35.1407407,28.1185185 C36.4148148,29.037037 37.037037,30.0148148 37.037037,31.5851852 C37.037037,33.1259383 35.8518519,34.4296296 35.1111111,34.9037185 C35.1111111,34.9037185 35.3777778,34.1333481 35.0222222,33.8074074 C34.6666667,33.4814667 33.5111111,32.8592593 30.6074074,33.0666667 C27.7037037,33.2740741 23.8222222,34.6962963 21.1851852,36.0888889 C21.1851852,36.0888889 22.4592593,34.1037037 24.3259259,33.2148148 C24.3259259,33.2148148 22.7851852,33.2148148 14.1037037,37.0074074 C17.5511175,44.9558229 26.3367423,49.1393922 34.6803433,46.8056632 C43.0239444,44.4719342 48.3641416,36.3373322 47.1875145,27.7537713 C46.0108873,19.1702103 38.6786456,12.7727353 30.0148148,12.7703704 L30.0148148,12.7703704 Z" id="Shape" fill="#E03A3E"></path>
            <path d="M29.8666667,25.5999827 C29.1711034,25.6303144 28.4788648,25.4877947 27.8518519,25.1851679 C26.8444444,24.6518346 25.3037037,23.5259086 23.9407407,24.7703531 C23.9407407,24.7703531 25.0666667,24.6222049 24.9777778,24.9185012 C24.8888889,25.2444444 24.7703704,26.9629457 26.3407407,27.6147975 C27.8814815,28.2962963 29.6888889,27.7925778 29.8666667,25.5999827 Z" id="Shape" fill="#E03A3E"></path>
        </g>
    </g>
</svg>
