<?xml version="1.0" encoding="UTF-8"?>
<svg width="60px" height="60px" viewBox="0 0 60 60" version="1.1" xmlns="http://www.w3.org/2000/svg" xmlns:xlink="http://www.w3.org/1999/xlink">
    <title>NOP</title>
    <g id="Page-1" stroke="none" stroke-width="1" fill="none" fill-rule="evenodd">
        <g id="NOP" transform="translate(0.000000, 8.000000)" fill-rule="nonzero">
            <path d="M24.7741935,3.42580645 C24.8032258,3.45483871 24.8612903,3.45483871 24.8903226,3.48387097 C23.4967742,3.6 22.1032258,3.74516129 20.7967742,3.9483871 C21.9140638,3.0290839 23.4573544,2.8263158 24.7741935,3.42580645 L24.7741935,3.42580645 Z M39.3483871,3.9483871 C38.0129032,3.74516129 36.6483871,3.57096774 35.2548387,3.48387097 C35.283871,3.45483871 35.3129032,3.45483871 35.3709677,3.42580645 C36.685534,2.81135765 38.2371571,3.01522054 39.3483871,3.9483871 L39.3483871,3.9483871 Z M59.583871,17.0419355 L59.7870968,17.1 L59.7870968,13.7322581 C59.7751792,13.1974735 59.677148,12.6681051 59.4967742,12.1645161 C59.3231767,11.638186 59.0577933,11.1467353 58.7129032,10.7129032 C58.4099742,10.3132568 58.0589406,9.95247223 57.6677419,9.63870968 C57.3218073,9.35879682 56.9412565,9.1246117 56.5354839,8.94193548 C56.2741935,8.76774194 55.7516129,8.50645161 54.3580645,7.98387097 C53.1967742,7.51935484 51.2806452,6.79354839 48.8419355,6.06774194 C46.1047343,5.25776587 43.3225822,4.60827391 40.5096774,4.12258065 L40.5096774,4.12258065 C40.4806452,4.09354839 38.3322581,1.39354839 35.1096774,2.78709677 C34.9935484,2.84516129 34.8774194,2.90322581 34.7612903,2.96129032 C34.2484634,3.27898554 33.6213158,3.35339288 33.0483871,3.16451613 C32.5548387,3.0483871 31.9451613,2.72903226 32.2064516,1.65483871 C32.2852458,1.34857253 32.4840775,1.08695193 32.7580645,0.929032258 C32.9500627,0.813774364 33.180926,0.782292998 33.3967742,0.841935484 C33.8322581,0.958064516 34.0354839,1.21935484 33.9483871,1.56774194 C33.9355384,1.70878682 33.8463535,1.83141604 33.716129,1.88709677 C33.5663204,1.94450219 33.3968511,1.91060834 33.2806452,1.8 C33.1192465,1.69267527 32.9020112,1.7310109 32.7870968,1.88709677 C32.6944506,2.04167561 32.731842,2.24109614 32.8741935,2.3516129 C33.184551,2.60227749 33.6049286,2.66865291 33.9774194,2.52580645 C34.3104686,2.35394102 34.5536597,2.04730873 34.6451613,1.68387097 C34.6741935,1.42258065 34.7322581,0.522580645 33.6,0.203225806 C33.202735,0.0594194441 32.7607386,0.113321443 32.4096774,0.348387097 C31.9735006,0.600921958 31.6590136,1.02023795 31.5387097,1.50967742 L31.5387097,1.53870968 C31.4341625,1.39371286 31.317624,1.2577513 31.1903226,1.13225806 L30.0580645,0 L28.9548387,1.13225806 C28.8266163,1.25688924 28.7100061,1.39293453 28.6064516,1.53870968 L28.6064516,1.50967742 C28.475483,1.02536362 28.1637539,0.609724854 27.7354839,0.348387097 C27.3837989,0.115006157 26.942627,0.0612047149 26.5451613,0.203225806 C25.383871,0.522580645 25.4709677,1.42258065 25.5,1.68387097 C25.5703948,2.05733435 25.8201237,2.37220995 26.1677419,2.52580645 C26.5304968,2.67059604 26.9435257,2.60361838 27.2419355,2.3516129 C27.3195245,2.30594836 27.3755229,2.23103579 27.3973583,2.14369441 C27.4191936,2.05635303 27.4050362,1.96390148 27.3580645,1.88709677 C27.2431501,1.7310109 27.0259148,1.69267527 26.8645161,1.8 C26.7463423,1.90675868 26.5791768,1.94019177 26.4290323,1.88709677 C26.2988143,1.82475228 26.2030661,1.70772681 26.1677419,1.56774194 C26.1096774,1.21935484 26.283871,0.987096774 26.7193548,0.841935484 C26.944749,0.78234359 27.1845294,0.813619297 27.3870968,0.929032258 C27.652982,1.09598077 27.849047,1.35396103 27.9387097,1.65483871 C28.2,2.72903226 27.5612903,3.0483871 27.0967742,3.16451613 C26.2548387,3.39677419 25.8483871,3.19354839 25.3548387,2.96129032 C25.251816,2.89714904 25.1451882,2.83898842 25.0354839,2.78709677 C21.8129032,1.42258065 19.6645161,4.09354839 19.6354839,4.12258065 L19.6064516,4.1516129 C16.9017782,4.61538488 14.2263095,5.23578342 11.5935484,6.00967742 C8.97838068,6.77524175 6.41774673,7.71608074 3.92903226,8.82580645 L3.46451613,9.02903226 L3.46451613,9.08709677 C3.29032258,9.14516129 3.08709677,9.20322581 2.88387097,9.29032258 C2.15806452,9.60967742 1.46129032,9.95806452 0.764516129,10.3064516 L0.241935484,10.5677419 L0.241935484,12.4258065 C0.231847569,12.8099891 0.321894182,13.1901859 0.503225806,13.5290323 C0.55172704,13.5799367 0.591020407,13.6388768 0.619354839,13.7032258 L0.619354839,15.7354839 C0.396125336,16.145601 0.276525582,16.6040667 0.270967742,17.0709677 C0.257223448,17.4857152 0.379578881,17.8935667 0.619354839,18.2322581 L0.619354839,22.4709677 L0.677419355,22.5870968 C1.17096869,23.7983001 2.15068927,24.7464168 3.37741935,25.2 L3.31935484,25.2290323 C3.31935484,25.2290323 4.39354839,26.9419355 6.01935484,27.2903226 L5.7,27.4354839 C6.50578816,28.6052821 7.73381197,29.4170267 9.12580645,29.7 L8.77741935,29.8741935 C9.7933396,30.8589596 11.0935112,31.4988878 12.4935484,31.7032258 C14.9396209,39.3480006 22.046009,44.5354906 30.0725806,44.5354906 C38.0991523,44.5354906 45.2055404,39.3480006 47.6516129,31.7032258 C49.0416274,31.4939775 50.3310986,30.8543186 51.3387097,29.8741935 L51.0193548,29.7 C53.2548387,29.2935484 54.416129,27.4354839 54.416129,27.4354839 L54.0967742,27.2903226 C55.7516129,26.94195 56.7967742,25.2290323 56.7967742,25.2290323 L56.9129032,25.083871 C58.6806583,24.3533517 59.8446797,22.6415556 59.8741935,20.7290323 L59.8741935,18.5806452 C59.8675582,18.0547693 59.7693138,17.5340741 59.583871,17.0419355 L59.583871,17.0419355 Z" id="Shape" fill="#B4975A"></path>
            <path d="M58.0451613,15.5903226 L59.0322581,15.9967742 L59.0322581,13.7322581 C59.0282457,13.2868683 58.9497427,12.8452886 58.8,12.4258065 C58.6419795,11.9782386 58.4168258,11.5572991 58.1322581,11.1774194 C57.8527149,10.830163 57.5417185,10.509448 57.2032258,10.2193548 C56.8826273,9.97184974 56.5313169,9.76691867 56.1580645,9.60967742 C55.9548387,9.46451613 55.4612903,9.20321371 54.0967742,8.68064516 C52.9354839,8.21612903 51.0483871,7.51935484 48.6096774,6.79354839 C44.6322581,5.60322581 38.6516129,4.20967742 32.3806452,4.09354839 C32.2325245,3.66330951 31.8682859,3.34322105 31.4225806,3.2516129 C31.3607508,2.64271225 31.0826291,2.07616807 30.6387097,1.65483871 L30.0580645,1.07419355 L29.4774194,1.65483871 C29.0564028,2.08915253 28.7909864,2.65061034 28.7225806,3.2516129 C28.264817,3.33164438 27.8867195,3.65413927 27.7354839,4.09354839 C21.6096774,4.20967742 15.716129,5.57419355 11.7967742,6.73548387 C9.2154219,7.49439687 6.6845778,8.41558533 4.21935484,9.49354839 L4.21935484,9.95806452 C4.18800594,9.94243275 4.15874465,9.92292522 4.13225806,9.9 C4.00951045,9.86432156 3.88263429,9.84480215 3.75483871,9.84193548 C3.56483304,9.84128599 3.37684181,9.88086309 3.20322581,9.95806452 C2.50645161,10.2774194 1.80967742,10.6258065 1.11290323,10.9741935 L0.996774194,11.0322581 L0.996774194,12.4258065 C0.988796258,12.6789756 1.04895604,12.9296413 1.17096774,13.1516129 C1.22946825,13.2455195 1.29757655,13.3330873 1.37419355,13.4129032 L1.37419355,15.9096774 C1.15722387,16.2590694 1.03699248,16.6598407 1.02580645,17.0709677 C1.00546729,17.3988418 1.13334514,17.7185364 1.37419355,17.9419355 L1.37419355,22.3258065 C1.87378621,23.4931449 2.89692744,24.3547375 4.13225806,24.6483871 C4.18243255,24.6438917 4.23283795,24.6539778 4.27741935,24.6774339 L4.30645161,24.6774339 C4.65917564,24.7532554 5.02031349,24.7825368 5.38064516,24.7645306 C5.00322581,24.9387242 4.65483871,25.1129032 4.27741935,25.3161435 C4.27741935,25.3451758 5.38064516,27.1451758 8.02258065,26.8838855 C7.58709677,27.0871113 7.1516129,27.2903371 6.71612903,27.5225952 C6.71612903,27.5516274 7.96451613,29.3225952 10.7516129,29.2645306 C10.1129032,29.5838855 9.73548387,29.7871113 9.73548387,29.7871113 C10.6632115,30.6269804 11.8533019,31.1194316 13.1032258,31.1806597 C15.3636155,38.6622205 22.257012,43.7806781 30.0725806,43.7806781 C37.8881493,43.7806781 44.7815458,38.6622205 47.0419355,31.1806597 C48.2898984,31.1107598 49.47721,30.6194584 50.4096774,29.7871113 C50.4096774,29.7871113 50.0032258,29.5838855 49.3645161,29.2645306 C52.1516129,29.3225952 53.4290323,27.5516274 53.4290323,27.5225952 C52.9935484,27.2903371 52.5580645,27.0871113 52.1225806,26.8838855 C54.7645161,27.1451758 55.8677419,25.3451758 55.8677419,25.3161435 C55.4903226,25.1129177 55.1419355,24.9387242 54.7645161,24.7645306 C55.5352675,24.8097318 56.3023668,24.6280504 56.9709677,24.24195 C58.3645161,23.458079 59.1483871,22.0064661 59.1483871,20.7290468 L59.1483871,18.5806452 C59.1483871,17.1870968 58.0451613,15.5903226 58.0451613,15.5903226 Z" id="Shape" fill="#002B5C"></path>
            <path d="M41.8451613,32.6903371 C42.1935484,32.9225952 42.5129032,33.1838661 42.8612903,33.4451589 C42.8612903,33.4161435 38.9129032,34.5193524 36.0967742,33.2999976 C36.0061639,33.240156 35.908691,33.1914196 35.8064516,33.1548363 C35.0893479,35.7289447 32.7447093,37.5096882 30.0725806,37.5096882 C27.400452,37.5096882 25.0558134,35.7289447 24.3387097,33.1548363 C24.227124,33.1910241 24.119991,33.2397209 24.0193548,33.2999976 C21.2322581,34.5193524 17.283871,33.4161266 17.283871,33.4451589 C17.6322581,33.1838685 17.9516129,32.9225782 18.2709677,32.6903371 C17.1003014,32.8402554 15.9109943,32.7312307 14.7870968,32.3709677 C17.3322912,38.5709566 23.3705007,42.6193745 30.0725806,42.6193745 C36.7746606,42.6193745 42.8128701,38.5709566 45.3580645,32.3709677 C44.2244696,32.7326819 43.0254011,32.8416931 41.8451613,32.6903371 Z" id="Shape" fill="#E31837"></path>
            <path d="M28.4322581,5.80645161 C28.1348863,5.65964217 27.8985443,5.41302447 27.7645161,5.10967742 C17.8645161,5.34193548 7.96451613,8.91290323 7.99354839,9.05806452 C7.63351291,9.16118524 7.37037628,9.47008476 7.32580645,9.84193548 L7.32580645,10.1903226 C14.0602667,7.55736758 21.2034208,6.12284145 28.4322581,5.9516129 L28.4322581,5.80645161 Z" id="Shape" fill="#FFFFFF"></path>
            <path d="M52.7612903,9.29032258 C52.7903226,9.14516129 42.3967742,5.34193548 32.3806452,5.10967742 C32.2378214,5.4070328 32.0039147,5.65110939 31.7129032,5.80645161 L31.7129032,5.9516129 C39.1558469,6.17362101 46.503709,7.68641615 53.4290323,10.4225806 L53.4290323,10.0741935 C53.3680483,9.70975217 53.1114011,9.40847074 52.7612903,9.29032258 L52.7612903,9.29032258 Z" id="Shape" fill="#FFFFFF"></path>
            <path d="M31.1612903,4.03548387 C30.5225806,3.9483871 30.4064516,4.8483871 30.3774194,5.16775403 L30.1741935,5.16775403 C30.2032258,4.29678629 30.6096774,3.94839919 30.6096774,3.36775403 C30.6096774,2.78710887 30.0580645,2.23549597 30.0580645,2.23549597 C30.0580645,2.23549597 29.5354839,2.78710887 29.5354839,3.36775403 C29.5354839,3.94839919 29.9419355,4.29678629 29.9419355,5.16775403 L29.7387097,5.16775403 C29.7387097,4.84839919 29.6225806,3.94839919 28.983871,4.03548387 C28.2870968,4.09356048 28.3741935,5.08064516 28.983871,5.13872419 C28.983871,5.13872419 28.8677419,4.70324032 29.216129,4.70324032 C29.4483871,4.70324032 29.5354839,5.02259516 29.5354839,5.16775645 L29.2451613,5.16775645 L29.2451613,5.51612903 L29.9129032,5.51612903 C29.8744288,5.69342452 29.7567075,5.84325166 29.5935484,5.92258065 C29.6541736,6.03113626 29.7611215,6.10599974 29.883871,6.12580645 C29.8907595,6.27792352 29.9526615,6.42236151 30.0580645,6.53225806 C30.1634676,6.42236151 30.2253695,6.27792352 30.2322581,6.12580645 C30.3609279,6.10176695 30.4753405,6.02895894 30.5516129,5.92258065 C30.3884538,5.84325166 30.2707325,5.69342452 30.2322581,5.51612903 L30.9,5.51612903 L30.9,5.16774194 L30.6096774,5.16774194 C30.6096774,5.02258065 30.6677419,4.70322581 30.9290323,4.70322581 C31.2774194,4.70322581 31.1612903,5.13870968 31.1612903,5.13870968 C31.7709677,5.08064516 31.8580645,4.09354839 31.1612903,4.03548387 Z" id="Shape" fill="#E31837"></path>
            <path d="M26.8064516,14.0225806 C26.808552,14.1629099 26.7787715,14.3018853 26.7193548,14.4290323 C26.6502226,14.5231566 26.5724668,14.6106318 26.4870968,14.6903226 C26.3998248,14.7557512 26.3014802,14.8049235 26.1967742,14.8354839 C26.0994197,14.8911011 25.9895304,14.9210709 25.8774194,14.9225806 C25.7605364,14.9273563 25.6435126,14.9176043 25.5290323,14.8935484 C25.4260353,14.8727019 25.3276706,14.833356 25.2387097,14.7774194 C25.1400053,14.7118639 25.0599827,14.6218385 25.0064516,14.516129 C24.9437922,14.4005254 24.9136896,14.2700806 24.9193548,14.1387097 L24.9193548,8.76774194 C24.9136898,8.63636643 24.9437924,8.50591705 25.0064516,8.39030806 C25.0674125,8.28144274 25.1458813,8.18335681 25.2387097,8.09998548 C25.3315232,8.03556141 25.4285105,7.97736898 25.5290323,7.92579194 C25.6423777,7.892384 25.7593657,7.87288599 25.8774194,7.86772742 C25.984693,7.86296329 26.0921182,7.87272922 26.1967742,7.89675968 C26.2997711,7.91760658 26.3981357,7.95695241 26.4870968,8.01288871 C26.5857948,8.07845144 26.6658158,8.16847503 26.7193548,8.27417903 C26.7820158,8.3897821 26.8121186,8.52022733 26.8064516,8.65159839 L26.8064516,14.0225806 Z M27.9967742,10.7129032 L27.9967742,8.56451613 C28.004357,8.29284776 27.9445093,8.02353321 27.8225806,7.78064516 C27.7245604,7.56321952 27.5624986,7.38090001 27.3580645,7.25806452 C27.1683918,7.09851228 26.9363697,6.99763308 26.6903226,6.96774194 C26.4243414,6.9041406 26.14974,6.88452621 25.8774194,6.90967742 C25.5906188,6.91049899 25.3060006,6.95957109 25.0354839,7.05483871 C24.7917358,7.13884108 24.5654249,7.26675592 24.3677419,7.43225806 C24.1729678,7.60169964 24.0148923,7.80917373 23.9032258,8.04193548 C23.7844317,8.28592854 23.724757,8.55446466 23.7290323,8.82580645 L23.7290323,10.9741935 C23.5101532,11.0403898 23.3581484,11.2391653 23.3516129,11.4677419 C23.351501,11.6866052 23.5123751,11.8722291 23.7290323,11.9032258 L23.7290323,14.283871 C23.7214542,14.5555389 23.7813016,14.8248523 23.9032258,15.0677419 C24.0173961,15.274227 24.1760664,15.4527311 24.3677419,15.5903226 C24.5728197,15.7168236 24.7990146,15.8053346 25.0354839,15.8516129 C25.312819,15.9058305 25.5970083,15.9156301 25.8774194,15.8806452 C26.1545283,15.8773137 26.4291873,15.8282674 26.6903226,15.7354839 C26.9323119,15.6611093 27.1586282,15.5430312 27.3580645,15.3870968 C27.5519083,15.2282646 27.7101735,15.0304331 27.8225806,14.8064516 C27.9413756,14.5624589 28.0010503,14.2939225 27.9967742,14.0225806 L27.9967742,11.6129032 C28.2293348,11.5814518 28.4029236,11.3830646 28.4032258,11.1483871 C28.4109098,10.9160179 28.2291208,10.721244 27.9967742,10.7129032 L27.9967742,10.7129032 Z" id="Shape" fill="#FFFFFF"></path>
            <path d="M5.26451613,16.4903226 C5.26451613,16.4903226 5.26451613,16.5193548 5.23548387,16.4903226 L5.23548387,16.4612903 C5.17741935,16.3741935 3.78387097,11.6709677 3.69677419,11.4677419 C3.63870968,11.2645161 3.58064516,11.1483871 3.58064516,11.1193548 C3.56963151,11.0622139 3.53878398,11.0108013 3.49354839,10.9741935 C3.42460402,10.9714205 3.35573271,10.9812592 3.29032258,11.0032258 C2.85483871,11.2064516 2.4483871,11.4096774 2.01290323,11.6129032 L2.01290323,12.0193548 C2.01218064,12.1190834 2.03194359,12.2178982 2.07096774,12.3096774 C2.12903226,12.367754 2.15806452,12.4258065 2.21612903,12.4258065 C2.27780705,12.4621842 2.34776826,12.4821732 2.41935484,12.483871 L2.41935484,16.0548387 C2.20708595,16.1898052 2.06809047,16.4143363 2.04193548,16.6645161 C2.03199371,16.7610274 2.07276026,16.8558 2.14966218,16.9149553 C2.22656409,16.9741106 2.32862273,16.9892035 2.41935484,16.9548387 L2.41935484,22.0064516 C2.73870968,21.8322581 3.05806452,21.6870968 3.37741935,21.5129032 L3.37741935,15.2129032 C3.37591212,15.1812685 3.38626497,15.1502099 3.40645161,15.1258065 C3.40645161,15.1548387 3.40645161,15.1548387 3.43548387,15.1548387 C3.46319015,15.2743504 3.5020709,15.3909927 3.5516129,15.5032258 C3.60967742,15.7064516 5.00322581,20.2935484 5.00322581,20.3516129 C5.03079397,20.4432465 5.06981167,20.5310363 5.11935484,20.6129032 C5.17741935,20.7 5.23548387,20.7 5.32258065,20.6709677 C5.55483871,20.5548387 5.78709677,20.4677419 5.99032258,20.3806452 C6.08114534,20.3567271 6.15602119,20.2925478 6.19354839,20.2064516 C6.24314977,20.1383869 6.27326116,20.0580898 6.28064516,19.9741935 L6.28064516,15.2129032 C6.46565716,15.0873642 6.58325221,14.8842455 6.6,14.6612903 C6.60947479,14.5740302 6.57888684,14.4871784 6.51682196,14.4251135 C6.45475708,14.3630486 6.36790527,14.3324607 6.28064516,14.3419355 L6.28064516,10.8290323 C6.27305512,10.7787391 6.28332769,10.7273762 6.30967742,10.683871 C6.33870968,10.6258065 6.36774194,10.5967742 6.39677419,10.5387097 C6.46806533,10.4611952 6.52683558,10.3730398 6.57096774,10.2774194 C6.63033551,10.160595 6.66023611,10.0310257 6.65806452,9.9 L6.65806452,9.58064516 C6.19354839,9.75483871 5.72903226,9.95806452 5.26451613,10.1612903 L5.26451613,16.4903226 Z" id="Shape" fill="#FFFFFF"></path>
            <path d="M52.0645161,16.5483871 C52.0645161,16.5774194 52.0645161,16.5774194 52.0354839,16.5774194 C52.0324331,16.5554053 52.0222324,16.5350039 52.0064516,16.5193548 L51.8322581,15.8225806 C51.7451613,15.5032258 51.6290323,15.0967742 51.5129032,14.6612903 C51.3967742,14.1967742 51.2516129,13.7322581 51.1354839,13.2387097 C50.9903226,12.7451613 50.8741935,12.3096774 50.7580645,11.9032258 C50.6419355,11.4677419 50.5258065,11.1483871 50.4677419,10.8580645 C50.3806452,10.5677419 50.3516129,10.4225806 50.3516129,10.4225806 C50.3308317,10.3374244 50.2911401,10.2580413 50.2354839,10.1903226 C50.2064516,10.1322581 50.1193548,10.1032258 50.0322581,10.0741935 C49.5967742,9.92902419 49.1612903,9.7838629 48.7258065,9.63870968 L48.7258065,10.0451613 C48.7140454,10.1549818 48.7342058,10.265864 48.783871,10.3645161 C48.8171313,10.4539342 48.8559157,10.5411991 48.9,10.6258065 C48.9580645,10.683871 49.0451613,10.7419355 49.1032258,10.8 L49.1032258,13.5870968 C49.0043933,13.5718224 48.9039894,13.6024461 48.8305048,13.6702781 C48.7570202,13.73811 48.7184749,13.8357471 48.7258065,13.9354839 C48.7466737,14.1726397 48.8897382,14.3817339 49.1032258,14.4870968 L49.1032258,18.5806452 C49.4516129,18.6967742 49.8,18.783871 50.1483871,18.9 L50.1483871,13.2387097 C50.1483871,13.2677419 50.1483871,13.2677419 50.1774194,13.2967742 C50.2085506,13.4343096 50.2473203,13.5700038 50.2935484,13.7032258 C50.3516129,13.9935484 50.4677419,14.3129032 50.583871,14.7193548 C50.7,15.1258065 50.816129,15.5903226 50.9612903,16.0548387 C51.0774194,16.5483871 51.2225806,16.983871 51.3387097,17.4193548 C51.4548387,17.8258065 51.5419355,18.2032379 51.6290323,18.4935484 C51.6719506,18.67243 51.7302315,18.8472727 51.8032258,19.016129 C51.8243849,19.1466796 51.8634634,19.2736847 51.9193548,19.3935484 C51.9549537,19.4872121 52.0289169,19.5611754 52.1225806,19.5967742 C52.3548387,19.683871 52.5580645,19.7709677 52.7903226,19.8580645 C52.8774194,19.8870968 52.9645161,19.8870968 52.9935484,19.8290323 C53.0497996,19.7891139 53.0824612,19.7237907 53.0806452,19.6548387 L53.0806452,15.8806452 C53.1665828,15.8849204 53.2503197,15.8526493 53.3111619,15.791807 C53.3720041,15.7309648 53.4042752,15.6472279 53.4,15.5612903 C53.3772411,15.3322728 53.2618697,15.1225066 53.0806452,14.9806452 L53.0806452,12.2806452 C53.0806452,12.1935484 53.0806452,12.1645161 53.1096774,12.1354839 C53.1336897,12.1094906 53.1635449,12.0895871 53.1967742,12.0774194 C53.3633415,11.997814 53.4662091,11.826368 53.4580645,11.6419355 L53.4580645,11.3225806 C53.00344,11.1230696 52.5382268,10.9486147 52.0645161,10.8 L52.0645161,16.5483871 Z" id="Shape" fill="#FFFFFF"></path>
            <path d="M57.9,17.4484016 C57.7542009,17.132789 57.5792479,16.831481 57.3774194,16.5484016 C57.2000103,16.2939847 57.0060423,16.0515248 56.7967742,15.8225952 C56.8258065,15.7935629 56.8258065,15.7645306 56.8258065,15.7064661 C56.8049677,15.4238628 56.6405365,15.171735 56.3903226,15.0387242 C56.2957499,15.0095315 56.1945726,15.0095315 56.1,15.0387242 C56.0705143,14.9836286 56.0311503,14.9344236 55.983871,14.8935629 C55.7806452,14.6613048 55.6064516,14.458079 55.4612903,14.2548532 C55.3396335,14.0955945 55.2688106,13.9033609 55.2580645,13.7032403 L55.2580645,11.8451613 C55.2552216,11.772957 55.2755696,11.7017391 55.316129,11.6419355 C55.3741935,11.5838589 55.4612903,11.5838589 55.5193548,11.5548387 L55.7806452,11.5548387 C55.8677419,11.583871 55.9548387,11.6129032 56.0419355,11.6419355 C56.1348492,11.6790179 56.2226543,11.7277985 56.3032258,11.7870968 C56.3903226,11.8451613 56.4774194,11.9322581 56.5645161,11.9903226 C56.6411304,12.0701409 56.7092385,12.1577084 56.7677419,12.2516129 C56.8121428,12.3416475 56.8321632,12.4417494 56.8258065,12.5419355 L56.8258065,12.9774194 C56.8361403,13.1776247 56.9070067,13.3699765 57.0290323,13.5290323 C57.1379041,13.7165345 57.2994193,13.867955 57.4935484,13.9645161 C57.6729196,14.0297174 57.847535,14.1073243 58.016129,14.1967742 L58.016129,13.3258065 C58.0127774,13.0392317 57.9637757,12.7550222 57.8709677,12.483871 C57.7608452,12.2136071 57.6143303,11.9596478 57.4354839,11.7290323 C57.2552751,11.4952895 57.0509193,11.2812024 56.8258065,11.0903226 C56.5911672,10.9175482 56.3379891,10.771484 56.0709677,10.6548387 C55.8261361,10.5244998 55.5611654,10.4361762 55.2870968,10.3935484 C55.0820942,10.3665913 54.873648,10.3864433 54.6774194,10.4516129 C54.5038091,10.5288326 54.3608183,10.6616098 54.2709677,10.8290323 C54.1698798,11.0675896 54.1204094,11.3248357 54.1258065,11.583871 L54.1258065,13.1225806 C54.12033,13.4438533 54.1899179,13.7619695 54.3290323,14.0516129 C54.4756411,14.3393527 54.6507089,14.6116803 54.8516129,14.8645161 C55.0586359,15.1294742 55.2816308,15.3815553 55.5193548,15.6193548 C55.5193548,15.6774194 55.4903226,15.7354839 55.4903226,15.7935484 C55.5111649,16.0761505 55.6755951,16.3282767 55.9258065,16.4612903 C56.0360424,16.5277665 56.1764811,16.5160633 56.2741935,16.4322581 C56.457773,16.6504078 56.62286,16.8834718 56.7677419,17.1290323 C56.8888829,17.3631399 56.9581956,17.6205871 56.9709677,17.883871 L56.9709677,20.0903226 C56.9709677,20.2064516 56.9419355,20.2935484 56.883871,20.3225806 C56.8236893,20.3889614 56.7408265,20.4303928 56.6516129,20.4387097 C56.5570779,20.4642006 56.459001,20.4740083 56.3612903,20.4677419 C56.2741935,20.4387097 56.1580645,20.4096774 56.0709677,20.3806452 C55.9581875,20.3234025 55.8512338,20.255341 55.7516129,20.1774194 C55.6479515,20.109025 55.5507715,20.031281 55.4612903,19.9451613 C55.3833671,19.8455459 55.3153055,19.738596 55.2580645,19.6258185 C55.2029064,19.5388798 55.1727712,19.4384232 55.1709677,19.335479 L55.1709677,18.8129032 C55.1673578,18.647473 55.117034,18.4864368 55.0258065,18.3483871 C54.9031675,18.1945901 54.7432743,18.0746702 54.5612903,18 C54.3580645,17.9129032 54.183871,17.8548387 54.0096774,17.7677419 L54.0096774,18.6677419 C54.0085459,18.9574486 54.0678746,19.2442042 54.183871,19.5096774 C54.2829593,19.7764327 54.4306123,20.0225211 54.6193548,20.2354839 C54.8028816,20.4674125 55.0178551,20.6726145 55.2580645,20.8451613 C55.5189332,21.01704 55.7904466,21.1721905 56.0709677,21.3096774 C56.3188585,21.4266873 56.5832175,21.5050159 56.8548387,21.5419355 C57.0637468,21.6002645 57.2846403,21.6002645 57.4935484,21.5419355 C57.6864876,21.4879448 57.8522105,21.3636526 57.9580645,21.1935484 C58.0596705,20.9756368 58.1093591,20.7371315 58.1032258,20.4967742 L58.1032258,18.3774194 C58.1026395,18.0567834 58.0333414,17.7399969 57.9,17.4484016 Z" id="Shape" fill="#FFFFFF"></path>
            <path d="M18.2129032,12.3677565 C18.1548387,12.7741911 18.0967742,13.1806597 18.0677419,13.5871113 C18.0096774,13.9935629 17.9516129,14.34195 17.9225806,14.6613048 C17.8935484,14.9806597 17.8645161,15.24195 17.8354839,15.4161435 C17.8237983,15.5142948 17.8043831,15.6113705 17.7774194,15.7064661 C17.6903226,15.1548435 17.6032258,14.6612903 17.516129,14.2258065 C17.4580645,13.7903226 17.3709677,13.2967742 17.283871,12.7451613 C17.1967742,12.2225806 17.0806452,11.6709823 16.9935484,11.1483871 C16.9064516,10.6257919 16.8193548,10.1322581 16.7322581,9.69677419 C16.6451613,9.26129032 16.5580645,8.88387097 16.5,8.62258065 C16.5,8.56451613 16.4129032,8.50645161 16.2967742,8.47741935 C16.1628455,8.4483883 16.0242513,8.4483883 15.8903226,8.47741935 C15.7616302,8.51794034 15.6355807,8.5664209 15.5129032,8.62258065 C15.4040726,8.68939488 15.3219401,8.79206045 15.2806452,8.91290323 C15.1923041,9.28633376 15.1244608,9.66431802 15.0774194,10.0451613 C14.9903226,10.5387097 14.9032258,11.0612903 14.7870968,11.6129032 L14.5258065,13.3548387 C14.4387097,13.9354839 14.3516129,14.4870968 14.2645161,14.9516129 C14.2064516,15.4451613 14.1193548,15.9677419 14.0322581,16.5774194 C14.0032258,16.5774194 14.0032258,16.4903226 13.9741935,16.316129 C13.9451613,16.1419355 13.916129,15.8806452 13.8870968,15.5903226 C13.8290323,15.3 13.8,14.9516129 13.7419355,14.5741935 C13.7129032,14.1967597 13.6548387,13.8193548 13.5967742,13.4129032 C13.5096774,12.483871 13.1032258,9.14516129 13.1032258,9.14516129 C12.6387097,9.29032258 12.1451613,9.43548387 11.6806452,9.58064516 L11.6806452,9.92903226 C11.6737953,10.0331343 11.7047194,10.1362146 11.7677419,10.2193548 C11.8100116,10.2840479 11.8706805,10.3346054 11.9419355,10.3645161 C11.9709677,10.3935484 12.0290323,10.3935484 12.0580645,10.4225806 C12.0870968,10.4806452 12.0870968,10.5096774 12.116129,10.5677419 C12.2322581,11.5258065 12.3193548,12.3967887 12.4354839,13.1806452 C12.2594221,13.2972027 12.1511115,13.4921619 12.1451613,13.7032258 C12.1378297,13.8029625 12.176375,13.9005996 12.2498597,13.9684316 C12.3233443,14.0362636 12.4237482,14.0668873 12.5225806,14.0516129 C12.5224153,14.0593622 12.5254209,14.0668432 12.5309018,14.072324 C12.5363826,14.0778049 12.5438636,14.0808105 12.5516129,14.0806452 C12.5806452,14.5451613 12.6387097,14.9806452 12.6967742,15.3870968 C12.7548387,15.8225806 12.783871,16.2 12.8419355,16.5483871 C12.8709677,16.8677419 12.9290323,17.1580645 12.9580645,17.3612903 C12.9593621,17.4779659 12.9690646,17.5943964 12.9870968,17.7096774 C12.9859739,17.7707407 13.0197858,17.8270939 13.0741935,17.8548387 C13.1032258,17.9129153 13.1612903,17.9129153 13.2483871,17.9129153 C13.683871,17.7967863 14.1193548,17.651625 14.583871,17.5645282 C14.6677484,17.5440512 14.7405231,17.4920692 14.7870968,17.4193669 C14.8315871,17.3449754 14.8704068,17.2673361 14.9032258,17.1871089 C15.2516129,15.1838831 15.5709677,13.2096895 15.9193548,11.2064637 C16.2387097,13.035496 16.5580645,14.8935605 16.9064516,16.7225927 C16.9387834,16.7937853 16.9776601,16.8618196 17.0225806,16.9258185 C17.0869903,16.9517424 17.1567145,16.961703 17.2258065,16.9548508 C17.6903226,16.867754 18.1258065,16.7806573 18.5612903,16.6935605 C18.6377731,16.6726845 18.707701,16.6327258 18.7645161,16.5774315 C18.7935161,16.5128244 18.8130712,16.4443815 18.8225806,16.3742056 C18.8225806,16.3451734 18.8516129,16.2290444 18.8806452,15.9968008 C18.9096774,15.793575 18.9387097,15.5032524 18.9967742,15.1258331 C19.0258065,14.777446 19.083871,14.3709944 19.1129032,13.9355105 C19.1709677,13.4709831 19.2290323,13.0064669 19.2870968,12.5419621 L19.2870968,12.483871 C19.5224978,12.4176252 19.6872858,12.2057549 19.6935484,11.9612903 C19.6974724,11.7889139 19.573484,11.6401278 19.4032258,11.6129032 C19.4903226,10.7419355 19.6064516,9.84193548 19.7225806,8.82580645 C19.728608,8.76411814 19.748454,8.70457995 19.7806452,8.6516129 C19.8096774,8.62258065 19.8677419,8.59354839 19.8967742,8.53548387 C19.9687349,8.48101152 20.028142,8.41170326 20.0709677,8.33225806 C20.1302589,8.22585914 20.1603101,8.10565407 20.1580645,7.98387097 L20.1580645,7.63548387 C19.6645161,7.69356048 19.2,7.78064516 18.7064516,7.86774194 C18.7064516,7.86774194 18.3,11.3806452 18.2129032,12.3677565 Z" id="Shape" fill="#FFFFFF"></path>
            <path d="M46.4612903,14.516129 C46.4280293,14.545175 46.3784223,14.545175 46.3451613,14.516129 L45.2129032,14.2548387 C45.183871,14.2257919 45.1258065,14.1967621 45.0967742,14.1677419 C45.0733287,14.1231571 45.0632479,14.0727534 45.0677419,14.0225806 C45.0698739,13.9539735 45.0796109,13.8858147 45.0967742,13.8193548 C45.1338244,13.6661275 45.1628957,13.5110801 45.183871,13.3548387 C45.2129032,13.1806452 45.2419355,12.9774194 45.2709677,12.716129 C45.3290323,12.483871 45.3580645,12.2516129 45.416129,11.9903226 C45.5322581,11.3516129 45.6483871,10.683871 45.7645161,10.0451613 L45.7935484,10.0451613 C45.9096774,10.7709677 46.0258065,11.4677419 46.1419355,12.1935484 C46.1948225,12.452541 46.2335894,12.7142175 46.2580645,12.9774194 C46.316129,13.2387097 46.3451613,13.4709677 46.3741935,13.6741935 C46.4032258,13.8774194 46.4322581,14.0516129 46.4612903,14.1677419 C46.4766848,14.2345433 46.4863969,14.302528 46.4903226,14.3709677 C46.4979141,14.421261 46.4876414,14.4726243 46.4612903,14.516129 L46.4612903,14.516129 Z M47.6516129,13.5870968 C47.6307457,13.349941 47.4876812,13.1408467 47.2741935,13.0354839 C47.216129,12.716129 47.1580645,12.3967742 47.1,12.0774194 C47.0129032,11.6129032 46.9548387,11.2354839 46.8967742,10.8580645 C46.8387097,10.5096774 46.7806452,10.2193548 46.7516129,9.98709677 C46.7225806,9.75483871 46.6935484,9.63870968 46.6935484,9.58064516 C46.6734798,9.43185422 46.6132596,9.29134044 46.5193548,9.17419355 C46.4064954,9.03604454 46.2548006,8.93491465 46.083871,8.88387097 C45.5322581,8.76774194 45.0096774,8.62258065 44.4870968,8.50645161 L44.4870968,8.76774194 C44.4870968,9.11611452 44.5741935,9.3483871 44.7774194,9.46451613 C44.8354839,9.49354839 44.8354839,9.52258065 44.8354839,9.58064516 L44.8354839,9.75483871 C44.8085173,9.84993367 44.7891022,9.94700959 44.7774194,10.0451613 C44.7483871,10.2193548 44.6903226,10.4516129 44.6322581,10.7419355 C44.5741935,11.0322581 44.516129,11.3516129 44.4290323,11.7290323 C44.4,11.9032258 44.3709677,12.1064516 44.3419355,12.2806452 C44.2322349,12.2480203 44.1135649,12.2692735 44.0220056,12.337943 C43.9304463,12.4066124 43.8768157,12.5145847 43.8774194,12.6290323 C43.8768406,12.8342112 43.9881269,13.023398 44.1677419,13.1225806 C43.9354839,14.283871 43.4129032,17.0709556 43.4129032,17.0709556 C43.7903226,17.1290202 44.1677419,17.2161169 44.516129,17.3032137 C44.516129,17.3032137 44.8645161,15.4161169 44.8645161,15.3580524 C44.8935484,15.2128911 44.9516129,15.1548266 45.0677419,15.1838589 C45.5322581,15.2999879 45.9677419,15.4161169 46.4322581,15.532246 L46.6064516,15.6193427 C46.6575271,15.6866037 46.6878035,15.7673408 46.6935484,15.8516008 C46.6935484,15.8806331 46.9548387,17.9419234 46.9548387,17.9419234 C47.3612903,18.0580524 47.7387097,18.1741815 48.1451613,18.2903105 C48.1451613,18.2903105 47.6516129,15.3870847 47.4193548,13.9354718 C47.5707423,13.8906686 47.6684771,13.7440715 47.6516129,13.5870968 L47.6516129,13.5870968 Z" id="Shape" fill="#FFFFFF"></path>
            <path d="M31.916129,9.78387097 C31.9289653,10.0100415 31.8678195,10.2342429 31.7419355,10.4225806 C31.6141699,10.5947902 31.4027886,10.6837928 31.1903226,10.6548387 L30.4354839,10.6548387 C30.4064516,10.6548387 30.3483871,10.6258065 30.3193548,10.6258065 C30.2903226,10.5967742 30.2903226,10.5677419 30.2903226,10.5096774 L30.2903226,8.01290323 C30.2834683,7.96492798 30.2996022,7.91652546 30.3338703,7.88225737 C30.3681384,7.84798927 30.4165409,7.83185545 30.4645161,7.83870968 L31.1903226,7.83870968 C31.4053398,7.83286115 31.6102508,7.92992429 31.7419355,8.1 C31.8676982,8.29919274 31.9285606,8.53249852 31.916129,8.76774194 L31.916129,9.78387097 Z M33.2806452,14.8354839 C33.2369577,14.8137607 33.1976029,14.7842446 33.1645161,14.7483871 C33.1354839,14.7483871 33.1354839,14.6903226 33.1354839,14.6032258 L33.1354839,12.6 C33.1321491,12.3228914 33.0831029,12.048233 32.9903226,11.7870968 C32.906291,11.5703593 32.7659879,11.379948 32.583871,11.2354839 C32.4967742,11.1483871 32.4967742,11.0612903 32.5548387,11.0032258 C32.7285024,10.8742736 32.8680315,10.7048454 32.9612903,10.5096774 C33.0798707,10.2968788 33.1399731,10.0564692 33.1354839,9.81290323 L33.1354839,8.88387097 C33.1296129,8.61876038 33.0906003,8.35542548 33.0193548,8.1 C32.9450746,7.86680434 32.8268149,7.6499949 32.6709677,7.46129032 C32.5039155,7.27119758 32.2952869,7.12217719 32.0612903,7.02580645 C31.7801795,6.92862759 31.487186,6.87002888 31.1903226,6.8516129 C30.3483871,6.8516129 29.5354839,6.8516129 28.6935484,6.88064516 L28.6935484,7.2 C28.684101,7.33169207 28.7144454,7.46318433 28.7806452,7.57741935 C28.8330975,7.6588964 28.9023939,7.72819283 28.983871,7.78064516 C29.0129032,7.78064516 29.0419355,7.80967742 29.0709677,7.83870968 C29.0834877,7.88648459 29.0931819,7.93495568 29.1,7.98387097 L29.1,10.683871 C28.873284,10.7183093 28.7098796,10.9194224 28.7225806,11.1483871 C28.7301843,11.364296 28.8873638,11.5456569 29.1,11.583871 L29.1,15.6483871 L30.2903226,15.6483871 L30.2903226,11.7870968 C30.2903226,11.6709677 30.3483871,11.6129032 30.4354839,11.6129032 L31.1903226,11.6129032 C31.4053398,11.6070547 31.6102508,11.7041178 31.7419355,11.8741935 C31.8678195,12.0625313 31.9289653,12.2867327 31.916129,12.5129032 L31.916129,15.0967742 C31.9116229,15.2597517 31.9746613,15.4173476 32.0903226,15.5322581 C32.2219311,15.6395837 32.3851114,15.7007763 32.5548387,15.7064516 C32.8741935,15.7064516 33.2225806,15.7354839 33.5419355,15.7354839 L33.5419355,15.3000121 C33.5528699,15.1864915 33.5218902,15.0728931 33.4548387,14.9806403 C33.4042591,14.9239201 33.3455577,14.8750039 33.2806452,14.8354839 L33.2806452,14.8354839 Z" id="Shape" fill="#FFFFFF"></path>
            <path d="M37.0548387,12.5709677 C36.9240916,12.6366145 36.8443988,12.7732307 36.8516129,12.9193548 C36.8516129,12.9774194 36.8806452,14.9516129 36.8516129,14.9806452 C36.8225806,15.0387097 36.7645161,15.0387097 36.7064516,15.0387097 C36.3580645,15.0096645 36.0096774,14.9806323 35.6612903,14.9516129 C35.6032258,14.9516129 35.5741935,14.9225806 35.5451613,14.8645161 C35.5214975,14.8096661 35.5115336,14.7498824 35.516129,14.6903226 C35.4870968,12.5419355 35.4870968,10.3935484 35.4870968,8.21612903 C35.491752,8.1573383 35.5014653,8.09905814 35.516129,8.04193548 C35.5451613,8.01288871 35.5741935,7.98385887 35.6032258,7.98385887 C35.6847063,7.93141076 35.7540035,7.86211352 35.8064516,7.78063306 C35.8735011,7.68838575 35.9044809,7.57479335 35.8935484,7.46127823 L35.8935484,7.11290323 C35.2258065,7.05483871 34.5580645,6.99677419 33.8903226,6.96774194 L33.8903226,7.31614355 C33.8842989,7.43832235 33.9146064,7.55954719 33.9774194,7.66451613 C34.0376846,7.73934348 34.1058178,7.8074767 34.1806452,7.86774194 L34.2677419,7.95483871 C34.2967742,7.98387097 34.2967742,8.04193548 34.2967742,8.12903226 L34.2967742,10.8 C34.080117,10.8309967 33.919243,11.0166206 33.9193548,11.2354839 C33.9258859,11.4640621 34.0778925,11.6628399 34.2967742,11.7290323 L34.2967742,15.7935484 C35.3709677,15.8516129 36.4451613,15.9677419 37.4903226,16.083871 C37.5774194,16.083871 37.6645161,16.1129032 37.7225806,16.1129032 C37.7956174,16.1252718 37.8703284,16.1039258 37.9258065,16.0548387 C37.9832192,16.0031348 38.0150575,15.9288455 38.0129032,15.8516129 L38.0129032,12.6290323 C37.8387097,12.6 37.6935484,12.5709677 37.5193548,12.5419355 C37.3639254,12.5351855 37.2082181,12.5449172 37.0548387,12.5709677 L37.0548387,12.5709677 Z" id="Shape" fill="#FFFFFF"></path>
            <path d="M10.8387097,9.84193548 L10.7516129,9.84193548 C9.53225806,10.2484 8.31290323,10.6838839 7.09354839,11.1483871 L7.09354839,11.4967742 C7.09370419,11.6152985 7.11331995,11.7329931 7.1516129,11.8451613 C7.20251757,11.8936623 7.26145758,11.9329556 7.32580645,11.9612903 C7.37129179,11.9621419 7.41396301,11.9834775 7.44193548,12.0193548 C7.47096774,12.0193548 7.47096774,12.0774315 7.47096774,12.1645161 L7.47096774,14.8064516 C7.2658134,14.9439459 7.13688198,15.1695759 7.12258065,15.416129 C7.11502689,15.5082322 7.15046463,15.5986564 7.21858684,15.6611017 C7.28670906,15.7235471 7.3798677,15.751003 7.47096774,15.7354839 L7.47096774,19.8 C7.58709677,19.7709677 7.67419355,19.7129032 7.79032258,19.683871 C8.31290323,19.4806452 8.83548387,19.3064371 9.35806452,19.1032258 C9.59032258,19.0451613 9.82258065,18.9580645 10.0258065,18.9 C10.2,18.8419226 10.3741935,18.7838581 10.5483871,18.7258065 C10.6064516,18.6967742 10.6935484,18.6677419 10.7516129,18.6387097 L10.7806452,18.6387097 C10.8096774,18.6387097 10.8387097,18.6096629 10.8677419,18.6096629 C10.8967742,18.5806306 10.9548387,18.5515984 10.983871,18.4935339 C11.0420355,18.4304072 11.0732824,18.3470821 11.0709677,18.2612758 L11.0709677,15.7645161 C10.8967742,15.8225806 10.7225806,15.8806452 10.5774194,15.9387097 C10.407105,15.9802668 10.2483376,16.0596505 10.1129032,16.1709677 C9.9931503,16.2707763 9.9283966,16.4218682 9.93870968,16.5774194 C9.93870968,16.6064516 9.96774194,17.8548387 9.93870968,17.9129032 C9.91096396,17.9673102 9.85461132,18.0011218 9.79354839,18 C9.6483871,18.0580645 9.50322581,18.116129 9.35806452,18.1741935 C9.15483871,18.2322581 8.9516129,18.3193548 8.7483871,18.3774194 C8.66129032,18.4064516 8.60322581,18.3774194 8.60322581,18.2612903 L8.60322581,15.5322581 C8.59505724,15.4221765 8.66945382,15.322981 8.77741935,15.3 C9.24193548,15.1258065 9.70645161,14.9806452 10.1709677,14.8064516 C10.2744803,14.797049 10.3517006,14.7069586 10.3451613,14.6032258 L10.3451613,13.9354839 C10.3443107,13.8899983 10.3229749,13.8473266 10.2870968,13.8193548 L10.1709677,13.8193548 C9.70645161,13.9645161 9.24193548,14.1386976 8.77741935,14.283871 C8.66129032,14.3419355 8.60322581,14.3129032 8.60322581,14.1967742 L8.60322581,11.7290323 C8.61469743,11.6778527 8.6343011,11.6288435 8.66129032,11.583871 C8.69032258,11.5548387 8.7483871,11.5258065 8.77741935,11.4967742 C9.15483871,11.3806452 9.50322581,11.2354839 9.88064516,11.1193548 C9.90967742,11.1193548 9.90967742,11.1193548 9.93870968,11.1483871 C9.96774194,11.1774194 9.93870968,12.4258065 9.93870968,12.483871 C9.93870968,12.6580645 9.99677419,12.7451613 10.1129032,12.7741935 C10.2712062,12.7683741 10.4277609,12.7390201 10.5774194,12.6870968 C10.7445809,12.6482062 10.9093688,12.5997392 11.0709677,12.5419355 L11.0709677,10.016129 C11.0720843,9.9550675 11.0382742,9.89871742 10.983871,9.87096774 C10.9403651,9.84461957 10.8890028,9.83434711 10.8387097,9.84193548 L10.8387097,9.84193548 Z" id="Shape" fill="#FFFFFF"></path>
            <path d="M42.3967742,8.07096774 C42.3677419,8.07096774 42.3677419,8.04193548 42.3387097,8.04193548 L42.3096774,8.04193548 C41.0612903,7.80967742 39.783871,7.57741935 38.5064516,7.40322581 L38.5064516,7.7516129 C38.4970063,7.88330481 38.5273506,8.01479646 38.5935484,8.12903226 C38.6174615,8.21985758 38.6816425,8.29473531 38.7677419,8.33225806 L38.883871,8.4483871 C38.9160592,8.50135547 38.9359051,8.56089299 38.9419355,8.62258065 L38.9419355,11.2935484 C38.8333482,11.2909022 38.728421,11.3328743 38.6516154,11.4096799 C38.5748098,11.4864855 38.5328376,11.5914127 38.5354839,11.7 C38.5521939,11.9342237 38.7152624,12.1322355 38.9419355,12.1935484 L38.9419355,16.2580645 C39.0290323,16.2870968 39.1451613,16.2870968 39.2322581,16.316129 C39.783871,16.4032258 40.3354839,16.4903226 40.8870968,16.5774194 C41.1193548,16.6064516 41.3516129,16.6645161 41.583871,16.6935484 C41.7608639,16.7183637 41.9356068,16.7571955 42.1064516,16.8096774 C42.1645161,16.8096774 42.2516129,16.8387097 42.3096774,16.8387097 L42.4258065,16.8387097 C42.466728,16.8430217 42.5078574,16.8327393 42.5419355,16.8096774 C42.599351,16.7579755 42.6311898,16.6836849 42.6290323,16.6064516 L42.6290323,14.1096774 C42.4548387,14.0806452 42.2806452,14.0516129 42.1354839,14.0225806 C41.98203,13.9932945 41.8244217,13.9932945 41.6709677,14.0225806 C41.5258065,14.0516129 41.4677419,14.1387097 41.4677419,14.3419355 C41.4677419,14.3709677 41.4967742,15.6193548 41.4677419,15.6483871 C41.4387097,15.7064637 41.3806452,15.7064637 41.3225806,15.7064637 C41.1774194,15.6774185 41.0322581,15.6483863 40.8870968,15.6193669 C40.6714964,15.5973339 40.4579447,15.5585063 40.2483871,15.5032379 C40.1612903,15.5032379 40.1032258,15.4451734 40.1032258,15.3290444 L40.1032258,12.6 C40.1032258,12.483871 40.1612903,12.4258065 40.2774194,12.4548387 C40.7709677,12.5419355 41.2354839,12.6 41.7290323,12.716129 C41.8451613,12.716129 41.9032258,12.6870968 41.9032258,12.5709677 L41.9032258,11.9032258 C41.9021357,11.8493941 41.8814972,11.7977979 41.8451613,11.7580645 C41.7870968,11.7290323 41.7580645,11.7 41.7,11.7 C41.2354839,11.6129032 40.7709677,11.5258065 40.2774194,11.4387097 C40.229445,11.4455597 40.1810451,11.4294245 40.1467781,11.3951574 C40.112511,11.3608904 40.0963758,11.3124905 40.1032258,11.2645161 L40.1032258,8.79677419 C40.1104639,8.7531068 40.1306992,8.71263605 40.1612903,8.68064516 C40.1903226,8.6516129 40.2193548,8.6516129 40.2774194,8.6516129 C40.6548387,8.70967742 41.0322581,8.76774194 41.4096774,8.85483871 C41.4387097,8.85483871 41.4387097,8.88387097 41.4677419,8.88387097 C41.4967742,8.94193548 41.4677419,10.1903226 41.4677419,10.2193548 C41.4477427,10.3833472 41.5277716,10.5433983 41.6709677,10.6257895 C41.8220504,10.693416 41.9771878,10.7515925 42.1354839,10.7999831 C42.2806452,10.8290153 42.4548387,10.8580476 42.6290323,10.8870798 L42.6290323,8.36129032 C42.6204434,8.28650329 42.5901683,8.2158613 42.5419355,8.15806452 C42.4976545,8.12268076 42.4488333,8.09338802 42.3967742,8.07096774 Z" id="Shape" fill="#FFFFFF"></path>
            <path d="M20.1870968,35.7967742 L20.5935484,36.2032258 C20.7096774,36.2903226 20.8548387,36.4354839 21.0290323,36.2612903 C21.0931301,36.2146416 21.1265543,36.1366517 21.116129,36.0580645 C21.116129,35.9709677 21.0580645,35.9129032 20.9129032,35.7967742 L20.5354839,35.4193548 L20.1870968,35.7967742 Z M20.4193548,34.8677419 L21.2612903,35.6806452 C21.4607085,35.8031447 21.5732642,36.0282561 21.5516129,36.2612903 C21.4874565,36.5293519 21.2711357,36.7342874 21,36.783871 C20.7711047,36.7857627 20.5551787,36.6777997 20.4193548,36.4935484 L19.9548387,36.0290323 L19.4612903,36.5516129 L19.1129032,36.2322581 L20.4193548,34.8677419 Z" id="Shape" fill="#FFFFFF"></path>
            <polygon id="Shape" fill="#FFFFFF" points="22.6548387 36.8129032 24.1645161 37.7129032 23.9903226 38.0032258 22.8870968 37.3645161 22.683871 37.7129032 23.7290323 38.3516129 23.5548387 38.6419355 22.5096774 38.0032258 22.2774194 38.3806452 23.4096774 39.0774194 23.2354839 39.3677419 21.6967742 38.4387097"></polygon>
            <polygon id="Shape" fill="#FFFFFF" points="25.2967742 38.2064516 25.7322581 38.3516129 25.2387097 39.8032258 26.2258065 40.1516129 26.1387097 40.4709677 24.6870968 40.0064516"></polygon>
            <path d="M31.8580645,40.2677419 C31.82851,40.4337651 31.7472158,40.5861919 31.6258065,40.7032258 C31.3955554,40.9309797 31.0777403,41.0475076 30.7548387,41.0225685 C30.0870968,41.0516008 29.6225806,40.732246 29.5935484,40.064504 C29.5645161,39.3677298 30.116129,39.048375 30.6967742,39.0193427 C30.9290323,39.0193427 31.5387097,39.048375 31.8,39.5709556 L31.3064516,39.6580524 C31.1750377,39.4686371 30.9561871,39.3592117 30.7258065,39.3677298 C30.4885547,39.372737 30.2726274,39.5058586 30.1615838,39.7155793 C30.0505403,39.9253 30.0618032,40.178715 30.191014,40.3777577 C30.3202248,40.5768005 30.5471105,40.6902415 30.783871,40.6741815 C31.0393055,40.6895405 31.2748608,40.5364237 31.3645161,40.2967476 L31.8580645,40.2677419 Z" id="Shape" fill="#FFFFFF"></path>
            <path d="M33.9774194,39.1064516 C33.9774194,39.0774194 33.9483871,39.0774194 33.9193548,39.0483871 C33.923306,39.0164623 33.9126384,38.9844594 33.8903226,38.9612903 L33.8903226,39.1354839 L33.8032258,39.8032258 L34.4129032,39.6290323 L33.9774194,39.1064516 Z M33.5419355,38.6419355 L34.0354839,38.4967742 L35.4290323,40.0354839 L34.9354839,40.1806452 L34.6741935,39.8903226 L33.7451613,40.1806452 L33.6870968,40.5580645 L33.1935484,40.7032258 L33.5419355,38.6419355 Z" id="Shape" fill="#FFFFFF"></path>
            <path d="M35.8354839,37.8000121 L36.2419355,37.5677347 L37.5774194,37.9741984 C37.7516129,38.0322629 37.7806452,38.0612952 37.9548387,38.1193597 C37.8387097,37.9741984 37.8096774,37.9161339 37.7225806,37.8000169 L37.2290323,36.9580815 L37.6354839,36.7258234 L38.5935484,38.3516298 L38.1870968,38.5838879 L36.8516129,38.148404 C36.7231375,38.1189699 36.5969929,38.0801562 36.4741935,38.032275 C36.5612903,38.148404 36.5903226,38.1774363 36.6774194,38.2935653 L37.2,39.1935871 L36.8225806,39.4258452 L35.8354839,37.8000121 Z" id="Shape" fill="#FFFFFF"></path>
            <path d="M39.7258065,36.6677419 C39.9580645,36.7548387 40.1903226,36.6096774 40.3935484,36.4354839 C40.4516129,36.3483871 40.7129032,36.0870968 40.5387097,35.9129032 C40.4516129,35.8258065 40.3354839,35.883871 40.2483871,35.9419355 C40.1054316,36.0647147 39.9496993,36.1717807 39.783871,36.2612903 C39.6387097,36.3774194 39.2612903,36.6096774 38.9709677,36.3193548 C38.9086762,36.2447749 38.8684552,36.1542778 38.8548387,36.0580645 C38.8253998,35.7537478 38.9576142,35.4562656 39.2032258,35.2741935 C39.3599619,35.0992172 39.5603319,34.9689767 39.783871,34.8967742 C39.9273831,34.865829 40.0758428,34.865829 40.2193548,34.8967742 L39.9870968,35.3032258 C39.9104784,35.2874759 39.831457,35.2874759 39.7548387,35.3032258 C39.6365185,35.350212 39.52816,35.4191674 39.4354839,35.5064516 C39.2903226,35.6516129 39.1451613,35.8258065 39.2903226,35.9709677 C39.3774194,36.0580645 39.4645161,36 39.5806452,35.9129032 C39.6677419,35.883871 39.9870968,35.6516129 40.0451613,35.6225806 C40.2483871,35.4774194 40.5677419,35.3032258 40.8580645,35.5935484 C41.2645161,36.0290323 40.7709677,36.5516129 40.5967742,36.6967742 C40.3336914,37.0258566 39.8979128,37.1634709 39.4935484,37.0451613 L39.7258065,36.6677419 Z" id="Shape" fill="#FFFFFF"></path>
            <path d="M27.9096774,27.6387218 C27.9096774,27.6387218 21.1451613,25.3742056 24.0774194,18.2032379 C24.0774194,18.2032379 16.9354839,18.4935605 7.18064516,22.4419476 C7.18064516,22.4419476 6.48387097,22.7032379 6.07741935,22.8483992 C5.44870308,23.1371884 4.72317824,23.1265189 4.10322581,22.8193669 C4.10322581,22.8193669 13.0741935,18.1451613 24.5419355,17.0419355 C26.0806452,16.9258065 26.2548387,17.1290323 25.8774194,17.7096774 C25.5290323,18.1741935 21.4354839,23.4 27.9096774,27.6387218 Z" id="Shape" fill="#FFFFFF"></path>
            <path d="M21.9,20.2354839 C16.1225806,20.9903226 10.4612903,22.9935484 10.4612903,22.9935484 C11.4193548,24.7064516 14.0322581,23.9806452 14.0322581,23.9806452 C18.9387097,22.5870968 21.116129,22.1225806 21.8129032,21.9774194 C21.7860308,21.3953247 21.8151973,20.8119948 21.9,20.2354839 L21.9,20.2354839 Z" id="Shape" fill="#B4975A"></path>
            <path d="M21.9580645,23.0516129 C18.858268,23.6550882 15.8103022,24.4995883 12.8419355,25.5774194 C12.8419355,25.5774194 14.1483871,27.0580645 16.7032258,26.3322581 C18.8225806,25.7225806 21.5806452,24.8516129 22.4225806,24.5903226 C22.2030698,24.0992108 22.0469762,23.5821508 21.9580645,23.0516129 Z" id="Shape" fill="#B4975A"></path>
            <path d="M22.8290323,25.3741935 C21.9580645,25.6645161 17.6032258,27.0870968 15.7741935,27.783871 C15.7741935,27.783871 16.8193548,29.2064516 19.8677419,28.016129 C21.9870968,27.1741935 23.1774194,26.6806452 23.6709677,26.4483871 C23.3606608,26.1145962 23.0790201,25.7552615 22.8290323,25.3741935 L22.8290323,25.3741935 Z" id="Shape" fill="#B4975A"></path>
            <path d="M24.3677419,27.0870968 C23.583871,27.4064516 20.7677419,28.6548387 19.1129032,29.4387097 C19.1129032,29.4387097 21.1741935,30.4548387 23.7870968,28.8580645 L25.383871,27.783871 C25.0275006,27.5784805 24.6877533,27.3455109 24.3677419,27.0870968 Z" id="Shape" fill="#B4975A"></path>
            <path d="M26.1677419,28.1903226 C25.6451613,28.5096774 23.4967742,29.8741935 22.4516129,30.6580645 C22.4516129,30.6580645 24.2516129,31.383871 26.0806452,29.6709677 C26.6612903,29.1193548 26.9806452,28.8 27.1548387,28.5967742 C26.8179739,28.4811533 26.4883494,28.3454256 26.1677419,28.1903226 L26.1677419,28.1903226 Z" id="Shape" fill="#B4975A"></path>
            <path d="M32.2354839,27.6387218 C32.2354839,27.6387218 39,25.3742056 36.0677419,18.2032379 C36.0677419,18.2032379 43.1806452,18.4935605 52.9645161,22.4419476 C52.9645161,22.4419476 53.6612903,22.7032379 54.0677419,22.8483992 C54.686281,23.1374916 55.4032674,23.1267903 56.0129032,22.8193669 C56.0129032,22.8193669 47.0709677,18.1451613 35.5741935,17.0419355 C34.0645161,16.9258065 33.8612903,17.1290323 34.2677419,17.7096774 C34.5870968,18.1741935 38.7096774,23.4 32.2354839,27.6387218 Z" id="Shape" fill="#FFFFFF"></path>
            <path d="M38.2451613,20.2354839 C44.0225806,20.9903226 49.683871,22.9935484 49.683871,22.9935484 C48.6967742,24.7064516 46.1129032,23.9806452 46.1129032,23.9806452 C41.2064516,22.5870968 39,22.1225685 38.3032258,21.9774194 C38.3260094,21.396134 38.3066037,20.8139617 38.2451613,20.2354839 Z" id="Shape" fill="#B4975A"></path>
            <path d="M38.1870968,23.0516129 C41.2860065,23.6588488 44.3336841,24.503269 47.3032258,25.5774194 C47.3032258,25.5774194 45.9967742,27.0580645 43.4419355,26.3322581 C41.2935484,25.7225806 38.5354839,24.8516129 37.7225806,24.5903226 C37.9420914,24.0992108 38.098185,23.5821508 38.1870968,23.0516129 Z" id="Shape" fill="#B4975A"></path>
            <path d="M37.2870968,25.3741935 C38.1580645,25.6645161 42.5419355,27.0870968 44.3709677,27.783871 C44.3709677,27.783871 43.3258065,29.2064516 40.2774194,28.016129 C38.1290323,27.1741935 36.9677419,26.6806452 36.4451613,26.4483871 C36.7726614,26.1296568 37.0558411,25.7683586 37.2870968,25.3741935 L37.2870968,25.3741935 Z" id="Shape" fill="#B4975A"></path>
            <path d="M35.7774194,27.0870968 C36.5322581,27.4064516 39.3774194,28.6548387 41.0032258,29.4387097 C41.0032258,29.4387097 38.9419355,30.4548387 36.3580645,28.8580645 L34.7612903,27.783871 C35.117661,27.5784808 35.4574083,27.3455113 35.7774194,27.0870968 Z" id="Shape" fill="#B4975A"></path>
            <path d="M33.9774194,28.1903226 C34.4709677,28.5096774 36.6193548,29.8741935 37.6645161,30.6580645 C37.6645161,30.6580645 35.8935484,31.383871 34.0645161,29.6709677 C33.483871,29.1193548 33.1645161,28.8 32.9903226,28.5967742 C33.2806452,28.4806452 33.6290323,28.3645282 33.9774194,28.1903226 Z" id="Shape" fill="#B4975A"></path>
            <path d="M35.6032258,31.5580645 C35.6090972,33.7950019 34.2668918,35.8152127 32.202478,36.676676 C30.1380643,37.5381392 27.757993,37.0712043 26.1720879,35.4936023 C24.5861827,33.9160003 24.1067606,31.538413 24.9573752,29.4695056 C25.8079898,27.4005982 27.8211272,26.0478066 30.0580645,26.0419355 C31.5257456,26.0352386 32.9356672,26.6133198 33.9762056,27.6484103 C35.0167439,28.6835009 35.6022183,30.0903685 35.6032258,31.5580645 Z" id="Shape" fill="#FFFFFF"></path>
            <path d="M34.4419355,32.6903371 C34.4419355,35.1114822 32.4792096,37.0742081 30.0580645,37.0742081 C27.6369194,37.0742081 25.6741935,35.1114822 25.6741935,32.6903371 C25.6741935,30.269192 27.6369194,28.3064661 30.0580645,28.3064661 C31.2225588,28.3004978 32.3410846,28.7604517 33.1645173,29.5838843 C33.9879499,30.407317 34.4479039,31.5258428 34.4419355,32.6903371 Z" id="Shape" fill="#B4975A"></path>
            <path d="M32.9903226,35.7387097 C32.6875072,35.5326294 32.4706294,35.2228039 32.3806452,34.8677419 L32.3806452,34.7806452 C33.50092,34.3071057 34.4450039,33.4949905 35.0806452,32.4580645 C34.8493857,33.7866676 34.0968188,34.9677795 32.9903226,35.7387097 Z M25.0645161,32.4580645 C25.692855,33.5011815 26.6392111,34.3152513 27.7645161,34.7806452 L27.7645161,34.8677419 C27.6745335,35.2228047 27.4576553,35.5326307 27.1548387,35.7387097 C26.0541217,34.9622499 25.3032291,33.7837658 25.0645161,32.4580645 Z M26.2258065,28.2193548 C25.9935484,29.4677419 26.516129,30.6580645 27.0096774,31.7322581 C27.3516033,32.4438116 27.605103,33.1945607 27.7645161,33.9677419 C26.4115397,33.2987251 25.4233014,32.0660838 25.0645161,30.6 C25.2349026,29.7179282 25.6355457,28.8966099 26.2258065,28.2193548 L26.2258065,28.2193548 Z M31.6258065,34.2580645 C31.2390083,34.3799192 30.8397184,34.4578294 30.4354839,34.4903226 L30.4354839,26.4774194 C31.2231785,26.5405993 31.9868721,26.7786337 32.6709677,27.1741935 C33.6870968,28.6548387 33.1354839,29.9612903 32.4677419,31.4419355 C32.0612903,32.3419355 31.6548387,33.2709677 31.6258065,34.2580645 Z M30.4354839,35.216129 C30.848422,35.1957243 31.2576038,35.1275273 31.6548387,35.0129032 C31.7445816,35.4543586 31.9796801,35.853004 32.3225806,36.1451613 C31.7256636,36.4143017 31.0877359,36.5811444 30.4354839,36.6387097 L30.4354839,35.216129 Z M28.4903226,35.0129032 C28.8875577,35.1275268 29.2967393,35.1957237 29.7096774,35.216129 L29.7096774,36.6387097 C29.0574254,36.5811444 28.4194977,36.4143017 27.8225806,36.1451613 C28.1654826,35.8530052 28.4005815,35.4543593 28.4903226,35.0129032 L28.4903226,35.0129032 Z M27.4451613,27.1741935 C28.1396705,26.7784518 28.9128286,26.540557 29.7096774,26.4774194 L29.7096774,34.4903226 C29.305443,34.4578291 28.906153,34.3799188 28.5193548,34.2580645 C28.4903226,33.2709677 28.083871,32.3419355 27.6774194,31.4419355 C27.0096774,29.9612903 26.4290323,28.6548387 27.4451613,27.1741935 Z M35.0806452,30.6 C34.702047,32.0490916 33.7184711,33.2653414 32.3806452,33.9387097 C32.5447875,33.1761546 32.7981446,32.4355781 33.1354839,31.732275 C33.6290323,30.6580815 34.1516129,29.4677589 33.9193548,28.2193718 C34.509613,28.896622 34.9102559,29.7179342 35.0806452,30.6 Z M30.0580645,25.6064516 C26.7748531,25.6224313 24.1247324,28.2941359 24.1353845,31.577369 C24.1460367,34.860602 26.8134377,37.5150544 30.0966837,37.5097297 C33.3799297,37.5044051 36.0387068,34.8413148 36.0387097,31.5580645 C36.0365598,29.9752236 35.404839,28.4582547 34.2828806,27.3417427 C33.1609221,26.2252306 31.6408971,25.6008991 30.0580645,25.6064516 L30.0580645,25.6064516 Z" id="Shape" fill="#002B5C"></path>
            <path d="M31.8290323,17.8548387 C31.8290323,17.8548387 31.8,18.0580645 31.683871,18.0580645 C31.2740521,17.9152395 30.876059,17.7405108 30.4935484,17.5354839 C30.3519909,17.458218 30.2161585,17.3708972 30.0870968,17.2741935 C30.0870968,17.2741935 29.7677419,17.4483871 29.6225806,17.5354839 C29.2494662,17.739217 28.8612226,17.9139266 28.4612903,18.0580645 C28.3451613,18.0580645 28.2870968,17.8548387 28.2870968,17.8548387 C28.2870968,17.8548387 26.4290323,18.9871089 26.4290323,22.1225806 C26.4290323,24.4741935 27.6483871,25.5193548 27.6483871,25.5193548 L27.7935484,26.1870968 L32.3516129,26.1870968 L32.4967742,25.5193548 C32.4967742,25.5193548 33.716129,24.4741935 33.716129,22.1225806 C33.716129,18.9870968 31.8290323,17.8548387 31.8290323,17.8548387 Z" id="Shape" fill="#002B5C"></path>
            <path d="M32.7290323,21.3387097 C32.7359441,20.5199983 32.447314,19.7262656 31.916129,19.1032258 C31.916129,19.1032258 31.8870968,19.3935484 31.4516129,19.0741935 C30.6239563,18.4934934 29.521205,18.4934934 28.6935484,19.0741935 C28.2580645,19.3935484 28.2290323,19.1032258 28.2290323,19.1032258 C27.6978471,19.7262655 27.409217,20.5199983 27.416129,21.3387097 C27.416129,22.1516129 27.5903226,22.5290323 27.6774194,22.6451613 C28.083871,23.6612903 28.983871,24.3870968 30.0580645,24.3870968 C31.1298104,24.364367 32.0765729,23.6831598 32.4387097,22.6741935 C32.4677419,22.6451613 32.7290323,22.2677419 32.7290323,21.3387097 Z" id="Shape" fill="#FFFFFF"></path>
            <path d="M31.0741935,23.516129 L31.0741935,23.516129 C30.9088785,23.2379867 30.9704422,22.8809174 31.2193548,22.6741935 C31.2193548,22.6741935 32.2064516,22.8774194 32.2354839,21.5709677 C32.2290229,21.4264672 32.2697873,21.2837919 32.3516129,21.1645161 C32.3516129,21.1645161 32.0903226,20.9322581 31.5387097,21.3387097 C31.016129,21.7451613 30.6967742,22.9354839 30.4064516,22.6451613 C30.116129,22.383871 30.2322581,20.8451613 30.0580645,20.7870847 C29.9129032,20.8451613 30.0290323,22.3838589 29.7387097,22.6451613 C29.4193548,22.9354839 29.1290323,21.7451613 28.5774194,21.3387097 C28.0258065,20.9322581 27.7935484,21.1645161 27.7935484,21.1645161 C27.8575012,21.2914809 27.8969012,21.4293811 27.9096774,21.5709677 C27.9096774,22.8774194 28.8967742,22.6741935 28.8967742,22.6741935 C29.1469557,22.8781375 29.2196833,23.2296546 29.0709677,23.516129 L29.0709677,23.516129 C27.9096774,22.2677419 27.2129032,22.4419355 27.5612903,23.8354839 C27.8806452,25.2290323 29.1580645,31.1806452 29.3612903,32.5741935 C29.3322581,33.7935484 29.1870968,34.2580645 29.1290323,34.3451613 L29.0129032,34.6064516 L29.1580645,34.8677419 C29.331309,35.132947 29.4772165,35.4150348 29.5935484,35.7096774 L30.0580645,36.9290323 L30.5516129,35.7096774 C30.6679442,35.4150346 30.8138518,35.1329467 30.9870968,34.8677419 L31.1322581,34.6064516 L30.9870968,34.3451613 C30.9580645,34.2580645 30.8129032,33.8225806 30.783871,32.6322581 C30.9580645,31.383871 32.2645161,25.2580645 32.583871,23.8354839 C32.9322581,22.4419355 32.2354839,22.2677419 31.0741935,23.516129 Z" id="Shape" fill="#002B5C"></path>
            <path d="M29.2741935,29.7290323 C28.8387097,27.5225806 28.5193548,25.8677419 28.2580645,24.6774339 C28.0548387,23.7774339 28.6064516,24.1548532 28.8967742,24.7064661 L29.2741935,29.7290323 Z" id="Shape" fill="#E31837"></path>
            <path d="M30.8709677,29.7290323 C31.2774194,27.5225806 31.6258065,25.8677419 31.8870968,24.6774339 C32.0903226,23.7774339 31.5387097,24.1548532 31.2483871,24.7064661 L30.8709677,29.7290323 Z" id="Shape" fill="#E31837"></path>
            <path d="" id="Shape" fill="#E31837"></path>
            <path d="" id="Shape" fill="#E31837"></path>
            <path d="M30.3483871,30.5419476 C30.5225806,27.1161411 30.783871,24.7064492 30.783871,24.4161242 C30.7912414,24.2781542 30.7715152,24.1400765 30.7258065,24.0096895 L30.5225806,24.6483992 L30.4645161,23.5161411 C30.3518321,23.3596296 30.214576,23.2223735 30.0580645,23.1096895 C29.9084145,23.2302252 29.7721486,23.3664912 29.6516129,23.5161411 L29.5935484,24.6483992 L29.3903226,24.0096895 C29.3587704,24.1431432 29.3393366,24.2791741 29.3322581,24.4161242 C29.3322581,24.7064468 29.6225806,27.1161242 29.7967742,30.5419476 C29.9709677,33.967771 29.5645161,34.6064516 29.5645161,34.6064516 C29.7540217,34.9223845 29.9190215,35.2523842 30.0580645,35.5935484 C30.2118386,35.2541049 30.3863622,34.9244492 30.5806452,34.6064516 C30.5806452,34.6064516 30.1451613,33.9677419 30.3483871,30.5419476 Z" id="Shape" fill="#E31837"></path>
            <polygon id="Shape" fill="#FFFFFF" points="28.0548387 40.8483871 27.5903226 40.7903226 27.8806452 38.9032258 28.3451613 38.9903226"></polygon>
        </g>
    </g>
</svg>
