<svg width="60" height="60" viewBox="0 0 60 60" fill="none" xmlns="http://www.w3.org/2000/svg">
<path d="M30.4865 2.4148L28.6704 0H27.9372H27.722H27.4395V0.235426L27.722 0.43722V3.97534H28.6704V1.58744L30.4933 3.97534H31.435V0H30.4865V2.4148Z" fill="#FDB927"/>
<path d="M23.8542 4.57398L26.5717 4.08968L26.4305 3.2825L24.6883 3.59192L24.5538 2.8251L25.9731 2.57622L25.9125 2.22645L25.8318 1.76232L24.4125 2.0112L24.2847 1.2982L25.8722 1.02241L25.9462 0.168152L23.3767 0.625551L23.1614 0.659183L22.8789 0.712995L22.9193 0.941694L23.2354 1.0964L23.8542 4.57398Z" fill="#FDB927"/>
<path d="M19.3005 6.05382L20.6929 5.54261C21.9911 5.07848 22.5157 4.0157 22.1189 2.95965C21.722 1.9036 20.6458 1.3453 19.361 1.81615L18.1301 2.287L17.9552 2.32064L17.6323 2.43499L17.713 2.65696L18.1166 2.76458L19.3005 6.05382ZM19.166 2.75113L19.6704 2.56952C19.8112 2.50646 19.9637 2.47401 20.118 2.4743C20.2722 2.47459 20.4246 2.50762 20.5651 2.57121C20.7056 2.63479 20.8311 2.72748 20.9331 2.84314C21.0351 2.9588 21.1114 3.09481 21.157 3.24216C21.2201 3.38339 21.2526 3.53638 21.2523 3.69106C21.2521 3.84575 21.2191 3.99863 21.1556 4.13967C21.0921 4.2807 20.9994 4.4067 20.8837 4.50938C20.768 4.61206 20.6319 4.6891 20.4843 4.73543L19.9731 4.93723L19.166 2.75113Z" fill="#FDB927"/>
<path d="M15.7489 8.01792L18.2108 6.59864L17.9619 5.73093L16.1794 6.7668L14.6255 4.08295L13.9798 4.4529L13.7646 4.5807L13.5493 4.70851L13.6637 4.9103L13.9731 4.93721L15.7489 8.01792Z" fill="#FDB927"/>
<path d="M13.3341 7.13006C13.1546 6.91639 12.9328 6.74227 12.6825 6.6187C12.4323 6.49514 12.1592 6.42481 11.8804 6.41217C11.6017 6.39952 11.3233 6.44484 11.0629 6.54525C10.8026 6.64566 10.5659 6.79898 10.3678 6.99553C10.1367 7.16361 9.94307 7.37781 9.79906 7.62458C9.65506 7.87134 9.56382 8.14531 9.53114 8.42914C9.49845 8.71298 9.52502 9.00051 9.60916 9.27355C9.6933 9.54659 9.83319 9.7992 10.02 10.0154C10.2068 10.2316 10.4364 10.4067 10.6943 10.5296C10.9522 10.6525 11.2328 10.7205 11.5184 10.7294C11.804 10.7383 12.0883 10.6878 12.3534 10.5812C12.6184 10.4745 12.8585 10.3141 13.0583 10.1099C13.2809 9.93975 13.4656 9.72516 13.6006 9.47975C13.7357 9.23435 13.8182 8.96351 13.8429 8.68448C13.8676 8.40544 13.8339 8.12433 13.744 7.85903C13.6541 7.59373 13.5099 7.35005 13.3207 7.14351M10.8722 9.26907C10.7646 9.16343 10.6802 9.03647 10.6245 8.89633C10.5688 8.75619 10.5429 8.60595 10.5486 8.45524C10.5543 8.30453 10.5914 8.15667 10.6576 8.02114C10.7237 7.88561 10.8175 7.76538 10.9328 7.66817C11.0465 7.56368 11.181 7.4844 11.3275 7.4355C11.474 7.38661 11.6291 7.36921 11.7828 7.38445C11.9365 7.39969 12.0852 7.44723 12.2193 7.52394C12.3533 7.60066 12.4696 7.70482 12.5606 7.82961C12.6703 7.93825 12.7565 8.06835 12.8137 8.21179C12.8709 8.35522 12.8979 8.50891 12.8931 8.66326C12.8882 8.8176 12.8516 8.96929 12.7855 9.10884C12.7193 9.2484 12.6252 9.37282 12.5088 9.47435C12.3925 9.57587 12.2564 9.65231 12.1092 9.6989C11.962 9.74549 11.8067 9.76122 11.6531 9.74511C11.4995 9.729 11.3509 9.6814 11.2166 9.60528C11.0822 9.52916 10.965 9.42616 10.8722 9.3027" fill="#FDB927"/>
<path d="M9.30494 10.4933L8.53813 11.4955L8.32961 11.7578L8.00001 12.1816L8.62557 12.6726L9.21077 11.8789C9.31078 12.0635 9.35272 12.274 9.33112 12.4828C9.30952 12.6916 9.22537 12.8891 9.0897 13.0493C8.9959 13.172 8.87754 13.2737 8.74219 13.348C8.60683 13.4223 8.45746 13.4676 8.30362 13.4809C8.14979 13.4942 7.99487 13.4752 7.84877 13.4252C7.70267 13.3752 7.56862 13.2953 7.45517 13.1906C7.32188 13.1077 7.20792 12.9972 7.12101 12.8665C7.0341 12.7359 6.97625 12.5881 6.95138 12.4331C6.92651 12.2781 6.9352 12.1197 6.97685 11.9683C7.01851 11.817 7.09216 11.6764 7.19284 11.556C7.2564 11.4723 7.33108 11.3976 7.41481 11.3341C7.525 11.2498 7.65071 11.1881 7.78476 11.1524L8.10763 10.7354L8.53813 10.2107H8.48432C8.13574 10.159 7.77971 10.1995 7.45164 10.3282C7.12357 10.4568 6.8349 10.6691 6.61436 10.9439L6.52019 11.0314C6.33538 11.2403 6.19588 11.4853 6.11051 11.7508C6.02514 12.0163 5.99575 12.2967 6.02419 12.5742C6.05263 12.8517 6.13829 13.1202 6.27576 13.3629C6.41323 13.6056 6.59952 13.8172 6.82288 13.9843C7.03898 14.1621 7.28968 14.293 7.55908 14.3686C7.82847 14.4443 8.11066 14.4632 8.38773 14.4239C8.66479 14.3847 8.93067 14.2883 9.16847 14.1408C9.40627 13.9933 9.6108 13.798 9.76907 13.5672C9.81439 13.5371 9.85326 13.4982 9.88342 13.4529C10.1268 13.1375 10.2713 12.7571 10.2988 12.3597C10.3264 11.9623 10.2356 11.5657 10.0381 11.2197C9.99777 11.1592 9.95741 11.0919 9.91705 11.0381C9.7995 10.8733 9.65907 10.7261 9.50001 10.6009L9.33858 10.4933" fill="#FDB927"/>
<path d="M36.2242 3.00675L36.5673 3.32962C36.8632 3.60541 36.9978 3.73994 36.9372 3.94173C36.8767 4.14352 36.6883 4.19734 36.3924 4.10989C35.9948 3.96149 35.6601 3.68136 35.444 3.31617L35.1278 4.30496C35.4414 4.60494 35.8291 4.81618 36.2511 4.91707C36.4151 4.98615 36.5916 5.02024 36.7695 5.01717C36.9474 5.01409 37.1227 4.97391 37.2841 4.89919C37.4456 4.82448 37.5897 4.71688 37.7071 4.58328C37.8246 4.44968 37.9129 4.29303 37.9664 4.12334C38.1345 3.54487 37.8251 3.14801 37.4014 2.77805L36.9978 2.40137C36.7892 2.19958 36.7892 2.08523 36.7892 1.9507C36.7892 1.81617 37.0381 1.722 37.2803 1.78926C37.6508 1.92111 37.9771 2.15413 38.222 2.46191L38.4843 1.55384C38.1925 1.28948 37.8421 1.09814 37.4619 0.995541C37.3027 0.928293 37.1313 0.894748 36.9585 0.89702C36.7858 0.899292 36.6153 0.937331 36.458 1.00874C36.3006 1.08015 36.1598 1.18338 36.0443 1.31193C35.9288 1.44048 35.8412 1.59155 35.787 1.75563C35.7253 1.98268 35.7327 2.22295 35.8082 2.44579C35.8836 2.66863 36.0238 2.86392 36.2108 3.00675" fill="#FDB927"/>
<path d="M39.5135 6.10763L40.4283 6.53813L41.7602 3.68611L42.8902 4.21077L43.24 3.46413L40.0584 1.98431L39.7086 2.72422L40.8454 3.25561L39.5135 6.10763Z" fill="#FDB927"/>
<path d="M42.0763 6.84079L41.8341 7.20401L42.5068 7.66141L42.7893 7.33854L43.2265 7.1233L43.8386 7.53361L44.4507 7.94392L44.4036 8.42823L44.2153 8.81836L44.8879 9.28249L45.1301 8.92599L46.0718 5.26679L45.6009 4.97756L45.231 4.72868L45.1301 4.65469L44.8139 4.44617L44.6794 4.64123L44.7803 4.91029L42.0763 6.84079ZM45.0426 5.77128L44.6794 7.11657L44.296 6.86097L43.9126 6.60536L45.0426 5.77128Z" fill="#FDB927"/>
<path d="M47.3027 7.18386L48.2175 8.03812L46.0718 10.3453L46.8117 11.0314L48.9574 8.72422L49.8722 9.57848L50.4305 8.97982L47.861 6.58521L47.3027 7.18386Z" fill="#FDB927"/>
<path d="M50.1883 12.3834L51.0762 13.5202L51.7287 13.009L50.8408 11.8722L51.4125 11.4282L52.4013 12.6995L53.1883 12.3632L51.5605 10.2848L51.5672 10.278L51.2578 9.88116L51.0762 10.0224L51.0897 10.4126L48.3184 12.5785L50.0202 14.7578L50.6659 14.2534L49.5762 12.861L50.1883 12.3834Z" fill="#FDB927"/>
<path d="M53.2623 28.9238C53.2623 33.6375 51.8644 38.2454 49.2455 42.1647C46.6265 46.084 42.9041 49.1386 38.549 50.9421C34.1939 52.7457 29.4018 53.2173 24.7786 52.2972C20.1555 51.3771 15.9091 49.1066 12.5764 45.773C9.24377 42.4394 6.97454 38.1924 6.05575 33.569C5.13695 28.9456 5.60986 24.1536 7.41467 19.799C9.21947 15.4445 12.2751 11.7229 16.1951 9.10504C20.1151 6.48717 24.7234 5.09059 29.4372 5.09192C32.5665 5.09192 35.6652 5.7084 38.5562 6.90614C41.4473 8.10389 44.074 9.85943 46.2865 12.0725C48.4989 14.2856 50.2537 16.9128 51.4507 19.8042C52.6476 22.6956 53.2632 25.7944 53.2623 28.9238Z" fill="#1D428A"/>
<path d="M45.0224 13.3385C41.4169 9.73451 36.6733 7.49209 31.5999 6.99333C26.5264 6.49456 21.437 7.7703 17.1987 10.6032C12.9604 13.4361 9.83537 17.6509 8.35614 22.5295C6.87691 27.408 7.13495 32.6486 9.0863 37.3583C11.0376 42.0679 14.5616 45.9553 19.0577 48.3581C23.5538 50.7609 28.744 51.5305 33.7439 50.5358C38.7438 49.541 43.2441 46.8434 46.4782 42.9026C49.7122 38.9618 51.4798 34.0216 51.4798 28.9237C51.4872 26.028 50.9203 23.1596 49.8119 20.4844C48.7035 17.8093 47.0756 15.3805 45.0224 13.3385ZM14.6928 14.1793C18.1403 10.7234 22.6909 8.58642 27.5519 8.14074C32.4129 7.69507 37.2763 8.96893 41.2946 11.7404C45.313 14.5119 48.2317 18.6053 49.5422 23.3075C50.8527 28.0097 50.472 33.0227 48.4664 37.4731C45.9372 36.621 43.4507 35.6547 41.0067 34.574L40.0516 34.1435L39.0964 33.6995L38.6189 33.4708L38.1345 33.2287L37.1928 32.7645L36.2646 32.2735L35.8005 32.0314L35.3363 31.7757L34.4148 31.2645L33.5067 30.7399C31.0861 29.3338 28.7665 27.7605 26.565 26.0314C25.4686 25.1569 24.3991 24.2421 23.3834 23.2802C22.8789 22.7959 22.3879 22.2982 21.9103 21.7937C21.7893 21.6659 21.6682 21.5381 21.5538 21.4035L21.2108 21.0134C21.0964 20.8856 20.9821 20.7511 20.8745 20.6166C20.8341 19.0829 20.8072 18.1681 20.8072 18.1681L19.7646 17.9192V19.3183H18.8767V17.8183L17.7601 18.0874V18.6188L17.2354 18.9013C17.2354 19.3385 17.2354 19.9103 17.2354 20.5964C16.8117 21.3363 12.1906 29.3408 8.7332 31.769C8.60932 30.8256 8.54641 29.8752 8.54486 28.9237C8.53717 26.1843 9.07304 23.4705 10.1214 20.9396C11.1698 18.4087 12.7099 16.1109 14.6525 14.1793M42.0763 39.1479L39.9305 39.2219L38.1884 34.6883L38.5247 34.8565L39.4866 35.334L40.4484 35.7982L40.7242 35.926L42.0763 39.1479ZM41.5583 36.3094C42.426 36.7062 43.2937 37.0829 44.1749 37.4461L44.8946 39.0538L42.7422 39.1278L41.5583 36.3094ZM39.2713 39.2421L37.0785 39.3161L34.7713 32.8385L35.2085 33.0941L35.6727 33.3497L36.6076 33.8677L37.3341 34.2511L39.2713 39.2421ZM36.4328 39.3363L34.4686 39.4035L31.6099 30.8879L32.9552 31.7219L33.87 32.2802L33.991 32.3542L36.4328 39.3363ZM33.8229 39.4305L31.7646 39.4977L28.4014 28.6345C29.1816 29.213 29.9821 29.778 30.7893 30.3296L33.8229 39.4305ZM31.1323 39.5179L29.148 39.5852L25.1121 26.0112L25.9731 26.7444C26.4843 27.1681 26.9955 27.5784 27.5202 27.982L31.1323 39.5179ZM28.509 39.6053L26.3229 39.6793L21.5135 22.5067C21.9305 22.9708 22.3677 23.4215 22.8117 23.852C23.2556 24.2825 23.7534 24.7668 24.2377 25.1973L28.509 39.6053ZM25.6906 39.6995L23.7937 39.7668L21.1502 29.6771C21.0695 27.0807 20.9955 24.6726 20.9417 22.7421L25.6906 39.6995ZM23.1615 39.787L21.5202 39.8408C21.4193 37.4394 21.3251 34.9237 21.2444 32.482L23.1615 39.787ZM46.2736 41.2264C46.1323 41.4215 45.991 41.6098 45.8431 41.7982L21.6278 41.3206V41.0919L46.2736 41.2264ZM45.5337 39.0336L44.9821 37.7892C45.8969 38.1592 46.8251 38.5157 47.7534 38.852L47.6928 38.9596L45.5337 39.0336ZM19.7646 23.8116V25.0896H18.796V26.2802H19.7713V27.565H18.796V28.7556H19.7713V31.1435H18.796V32.334H19.7713V34.8094H18.796V36H19.7713V39.9013H18.8767V21.7937H19.7646V22.5941H18.796V23.8116H19.7646ZM10.4081 37.4798L13.0987 28.3251C14.4231 26.5457 15.6211 24.6757 16.6839 22.7287L11.8408 40.1233C11.2978 39.2792 10.8189 38.3955 10.4081 37.4798ZM10.0314 36.5919C9.54699 35.3676 9.18206 34.0994 8.94172 32.8049C10.0949 31.8574 11.1496 30.7959 12.0897 29.6367L10.0314 36.5919ZM17.2825 22.9708C17.2825 24.8071 17.2825 27.0067 17.2153 29.4013L14.4103 40.0829L12.4798 40.1435L17.2825 22.9708ZM17.1547 32.0784C17.0807 34.7219 16.9866 37.4596 16.852 39.9955L15.0561 40.056L17.1547 32.0784ZM13.435 42.3027L16.7108 42.417C16.6502 43.426 16.5762 44.3879 16.4955 45.2825C15.8648 44.7787 15.2629 44.2397 14.6928 43.6681C14.2489 43.2309 13.8319 42.7735 13.435 42.3228M29.4372 49.7757C26.8802 49.7915 24.3422 49.3354 21.9507 48.4305C21.8565 47.0044 21.7623 45.3027 21.6749 43.4394L19.7713 42.7668V47.4215C19.4686 47.26 19.1659 47.0919 18.87 46.917V42.491H19.7646H20.7399L22.4955 42.5515L44.4372 43.3318L44.1749 43.6009C42.2497 45.5548 39.9555 47.1068 37.4256 48.1668C34.8956 49.2269 32.1803 49.7737 29.4372 49.7757Z" fill="#FDB927"/>
<path d="M36.5269 54.3161L36.2847 53.0919L34.9596 53.3475L33.4596 53.6368L32.1412 53.8924L32.3834 55.1166L33.695 54.861L34.3744 58.3251L33.056 58.5807L33.2915 59.8116L34.6166 59.5493L36.1233 59.2601L37.435 59.0045L37.1995 57.7803L35.8811 58.0359L35.2085 54.5717L36.5269 54.3161Z" fill="#FDB927"/>
<path d="M44.1884 52.8565C44.4845 53.4342 44.6012 54.0872 44.5234 54.7317C44.4456 55.3762 44.1769 55.9827 43.7518 56.4733C43.3268 56.9639 42.7647 57.3163 42.1379 57.4851C41.5111 57.654 40.8481 57.6315 40.2341 57.4207C39.6202 57.21 39.0832 56.8204 38.6923 56.3022C38.3013 55.784 38.0742 55.1607 38.0401 54.5124C38.0061 53.8642 38.1666 53.2205 38.501 52.6642C38.8355 52.1078 39.3286 51.6641 39.9171 51.3901C40.2912 51.192 40.7019 51.0726 41.1239 51.0395C41.5459 51.0064 41.9702 51.0602 42.3706 51.1977C42.7709 51.3351 43.1388 51.5533 43.4515 51.8386C43.7642 52.1239 44.015 52.4704 44.1884 52.8565ZM42.7893 53.5292C42.6284 53.2377 42.3857 52.9996 42.0913 52.8442C41.7969 52.6888 41.4634 52.6228 41.132 52.6543C40.8005 52.6858 40.4855 52.8135 40.2256 53.0217C39.9658 53.2298 39.7724 53.5094 39.6692 53.8259C39.5661 54.1425 39.5577 54.4823 39.6451 54.8036C39.7325 55.1249 39.9119 55.4136 40.1611 55.6343C40.4104 55.855 40.7188 55.9981 41.0482 56.0459C41.3777 56.0938 41.714 56.0443 42.0158 55.9036C42.2308 55.8078 42.4233 55.668 42.5809 55.4931C42.7385 55.3182 42.8576 55.1122 42.9305 54.8884C43.0034 54.6645 43.0285 54.4279 43.0042 54.1938C42.9799 53.9596 42.9067 53.7332 42.7893 53.5292Z" fill="#FDB927"/>
<path d="M48.5404 47.9126C48.3646 47.7145 48.1497 47.5549 47.9091 47.444C47.6686 47.3331 47.4078 47.2732 47.1429 47.2682C46.8781 47.2631 46.6152 47.313 46.3706 47.4146C46.126 47.5163 45.9052 47.6675 45.722 47.8588L44.0538 49.2848L43.7915 49.5068L43.4821 49.7758L43.704 50.0381L44.2152 49.9978L47.7063 54.0807L48.8969 53.0987L47.4708 51.4305L47.8072 51.1413L50.3834 51.8139L51.7758 50.6233L48.796 49.9507C48.958 49.6289 49.0233 49.267 48.9839 48.9088C48.9445 48.5507 48.8021 48.2116 48.574 47.9328M47.2287 50.0583L46.6906 50.5225L45.8094 49.4866L46.3744 49.0023C46.4376 48.9284 46.516 48.8691 46.6042 48.8285C46.6925 48.7878 46.7885 48.7668 46.8856 48.7668C46.9828 48.7668 47.0788 48.7878 47.1671 48.8285C47.2553 48.8691 47.3337 48.9284 47.3969 49.0023C47.4638 49.0803 47.512 49.1726 47.5377 49.2721C47.5635 49.3716 47.566 49.4757 47.5452 49.5764C47.5245 49.6771 47.4809 49.7717 47.4178 49.8529C47.3548 49.9341 47.274 49.9998 47.1816 50.0449" fill="#FDB927"/>
<path d="M54.1771 47.6838C53.8004 48.2252 53.2908 48.6607 52.6973 48.9484L51.4327 48.0269C52.0781 47.9093 52.6628 47.5717 53.0874 47.0717C53.37 46.7018 53.3565 46.3991 53.148 46.204C52.9395 46.0089 52.6233 46.1367 52.0717 46.4058L51.3991 46.7085C51.0931 46.898 50.7374 46.9916 50.3778 46.9772C50.0181 46.9629 49.671 46.8411 49.3812 46.6278C48.574 46.0224 48.4327 44.8856 49.213 43.8497C49.5676 43.3685 50.0278 42.975 50.5583 42.6995L51.7085 43.5672C51.1346 43.7413 50.6246 44.0805 50.2421 44.5426C50.0135 44.8453 50 45.1614 50.2421 45.3161C50.4843 45.4708 50.5987 45.4439 50.9148 45.2758L51.6749 44.9125C52.4686 44.5291 53.2018 44.3004 53.935 44.8587C54.87 45.5314 54.8498 46.7623 54.13 47.7175" fill="#FDB927"/>
<path d="M30.6951 55.8229C30.6972 55.561 30.6459 55.3014 30.5442 55.0601C30.4425 54.8187 30.2926 54.6007 30.1037 54.4193C29.9147 54.238 29.6908 54.0971 29.4455 54.0053C29.2002 53.9135 28.9387 53.8728 28.6771 53.8857L26.4843 53.8049H26.148H25.731V54.148L26.1345 54.4641L25.9462 59.8453L27.4664 59.8991L27.5471 57.7063H27.9843L29.3902 59.9395L31.2197 60L29.491 57.4776C29.8326 57.3504 30.1293 57.1259 30.3445 56.8317C30.5597 56.5376 30.6839 56.1869 30.7018 55.8229M28.2601 56.4955H27.5538L27.6009 55.1502H28.3475C28.7713 55.1502 29.1076 55.3924 29.0875 55.8229C29.0673 56.2534 28.7242 56.4955 28.2601 56.4955Z" fill="#FDB927"/>
<path d="M23.9215 55.2915C23.9912 55.0359 24.0072 54.7686 23.9687 54.5065C23.9302 54.2443 23.8379 53.993 23.6977 53.7682C23.5575 53.5433 23.3724 53.3499 23.154 53.2C22.9355 53.0501 22.6885 52.9469 22.4283 52.8969L20.3296 52.2781L19.9731 52.1772L19.6032 52.0628L19.509 52.3991L19.8184 52.796L18.2915 57.9552L19.7511 58.3857L20.3767 56.2803L20.7937 56.4081L21.6211 58.944L23.3834 59.4619L22.3408 56.5897C22.7017 56.5494 23.043 56.4053 23.3236 56.1749C23.6042 55.9445 23.8119 55.6376 23.9215 55.2915ZM21.3991 55.2915L20.7265 55.0897L21.1166 53.7848L21.8296 54C21.9253 54.0142 22.0168 54.0489 22.0978 54.1016C22.1789 54.1544 22.2476 54.224 22.2993 54.3057C22.351 54.3874 22.3845 54.4793 22.3975 54.5752C22.4104 54.671 22.4026 54.7685 22.3745 54.861C22.3497 54.9601 22.3026 55.0523 22.2369 55.1305C22.1712 55.2087 22.0885 55.2709 21.9951 55.3124C21.9018 55.3539 21.8002 55.3736 21.6981 55.37C21.596 55.3663 21.496 55.3395 21.4059 55.2915" fill="#FDB927"/>
<path d="M16.7578 50.4485L16.2264 50.1323L16.0112 50.0045L15.574 49.7489L15.3991 50.0449L15.5471 50.3812L11.5986 53.6368L11.269 54.1951L12.352 54.8341L12.7556 54.3162L13.4282 53.9462L14.3901 54.5112L15.352 55.0763V55.8162L15.0964 56.4216L16.1794 57.0942L16.509 56.5359L17.5516 50.9126L16.7578 50.4485ZM14.9619 53.4955L14.3565 53.139L15.991 51.7399L15.5672 53.8453L14.9619 53.4955Z" fill="#FDB927"/>
<path d="M13.1525 48.1211L12.7758 47.7107L12.5202 47.9462L12.574 48.3699L9.32511 49.7825L11.4238 46.2309L10.7713 45.5179L7.07175 47.3273L9.05605 43.648L7.90583 42.3968L7.76457 42.2354L7.50897 42.4708L7.57623 43.0493L5 48.1412L6.03587 49.2646L8.51794 48.2421L7.27354 50.6166L8.30942 51.7466L14.2825 49.352L13.1525 48.1211Z" fill="#FDB927"/>
</svg>
