<?xml version="1.0" encoding="UTF-8"?>
<svg width="60px" height="60px" viewBox="0 0 60 60" version="1.1" xmlns="http://www.w3.org/2000/svg" xmlns:xlink="http://www.w3.org/1999/xlink">
    <title>GSW</title>
    <g id="Page-1" stroke="none" stroke-width="1" fill="none" fill-rule="evenodd">
        <g id="GSW" transform="translate(5.000000, 0.000000)" fill-rule="nonzero">
            <polygon id="Shape" fill="#1D428A" points="25.4531655 2.40280576 23.6432374 0 22.915036 0 22.6966187 0 22.4054676 0 22.4054676 0.228776978 22.6966187 0.436834532 22.6966187 3.96302158 23.6432374 3.96302158 23.6432374 1.58115108 25.4635252 3.96302158 26.3995683 3.96302158 26.3995683 0 25.4531655 0"></polygon>
            <polygon id="Shape" fill="#1D428A" points="18.8272662 4.56625899 21.5419424 4.08798561 21.4068345 3.27647482 19.6696403 3.57820144 19.5345324 2.81892086 20.9490647 2.56920863 20.8866906 2.21546763 20.8035971 1.75791367 19.3888489 2.0076259 19.2641007 1.28978417 20.845036 1.01935252 20.9179856 0.166402878 18.348777 0.624172662 18.1407194 0.655251799 17.8597122 0.707266187 17.9013669 0.936258993 18.2134532 1.09208633"></polygon>
            <path d="M14.3128058,6.04341367 L15.7066381,5.53372878 C16.9964547,5.06565108 17.4957388,4.00467194 17.1004727,2.91248849 C16.7052065,1.82030504 15.6442273,1.33142374 14.3440101,1.79950144 L13.1166,2.2467777 L12.9605741,2.29879209 L12.6485223,2.41321079 L12.7317367,2.63164748 L13.1270029,2.74606619 L14.3128058,6.04341367 Z M14.1775813,2.74606187 L14.6768655,2.56923237 C15.1865504,2.382 15.8730669,2.45481151 16.1643173,3.26614964 C16.4555655,4.06708489 15.9770849,4.56636691 15.4674,4.75359928 L14.9681158,4.93042878 L14.1775813,2.74606187 Z" id="Shape" fill="#1D428A"></path>
            <polygon id="Shape" fill="#1D428A" points="10.7346043 8.00935252 13.1894245 6.5842446 12.9500719 5.72093525 11.1610791 6.75064748 9.62158273 4.07741007 8.97669065 4.44151079 8.75827338 4.57683453 8.53985612 4.70158273 8.6542446 4.89928058 8.96633094 4.93035971"></polygon>
            <path d="M8.32139568,7.11479568 C7.58287122,6.26184604 6.33466187,6.11622734 5.35689928,6.9691705 C4.37913669,7.82211367 4.34793022,9.07032302 5.08645252,9.92326619 C5.82497482,10.7762094 7.07318633,10.9322353 8.05095108,10.0792921 C9.03911871,9.22634245 9.07032302,7.96773669 8.32139568,7.11479568 M5.86657554,9.2575554 C5.40890072,8.72706475 5.40890072,8.07175468 5.92898849,7.62448058 C6.43867338,7.17720432 7.10438417,7.26041871 7.56206115,7.79090935 C8.01973813,8.31099496 8.01973813,8.98710863 7.49965036,9.43438489 C6.97956259,9.88166115 6.3138518,9.77764101 5.86657554,9.2575554" id="Shape" fill="#1D428A"></path>
            <path d="M4.30632302,10.4745583 L3.52618705,11.4731266 L3.31815324,11.7331705 L2.98529784,12.1596453 L3.60940144,12.6485266 L4.23350719,11.8579942 C4.41830574,12.2361517 4.36546114,12.6873648 4.09828489,13.0125885 L4.09828489,13.0125885 C3.67181007,13.5534777 3.00610144,13.5846842 2.46521007,13.1582115 C1.91391799,12.7317367 1.7890964,12.0764309 2.21556906,11.5355374 C2.28036791,11.4551308 2.35359759,11.3819004 2.4340036,11.3171007 C2.54509364,11.2303504 2.6724101,11.1666914 2.80846403,11.1298683 L3.13091007,10.7137986 L3.53657914,10.1937129 L3.55738273,10.1729094 C3.53657914,10.1729094 3.51577554,10.1625065 3.49497194,10.1625065 C2.78797682,10.0668149 2.08225488,10.3467398 1.63307482,10.9010288 C1.59935055,10.9370371 1.56807486,10.9752629 1.53945755,11.0154496 C0.738522302,12.0348194 0.946558273,13.2726281 1.84110863,13.9695453 C2.73565899,14.6664626 3.98386835,14.5728453 4.7848036,13.5534755 C4.81600791,13.5222691 4.83681799,13.4806619 4.86801799,13.4494576 C5.36115821,12.8008458 5.41850418,11.9201664 5.01364101,11.2130806 C4.97932423,11.1484128 4.94111367,11.0858878 4.89922014,11.0258504 C4.77706269,10.8653302 4.63752428,10.7188148 4.48315036,10.588977 C4.41034101,10.5473698 4.35833094,10.5057647 4.30632302,10.4745583 L4.30632302,10.4745583" id="Shape" fill="#1D428A"></path>
            <path d="M31.1844367,2.99570288 L31.5276928,3.31814892 C31.818941,3.58859353 31.9645683,3.72381799 31.9021532,3.9318518 C31.860546,4.09828058 31.6525122,4.18149496 31.3612597,4.09828058 C30.9552411,3.95306039 30.610523,3.67435107 30.3834971,3.30774604 L30.0922489,4.30631439 C30.4090014,4.60229179 30.7954313,4.81339831 31.2156302,4.92001727 C31.9749561,5.13845396 32.7134719,4.86800288 32.9319194,4.12948489 C33.0983482,3.54698849 32.7862942,3.15172014 32.3598216,2.75645396 L31.9645576,2.37159065 C31.7773273,2.19476115 31.735718,2.08034029 31.7773273,1.94511583 C31.8189345,1.77868921 32.0165655,1.71627842 32.2662108,1.77868921 C32.6426978,1.90343998 32.9726594,2.13912652 33.2127712,2.45480288 L33.4728237,1.54985612 C33.1816253,1.28549756 32.8324878,1.09311516 32.453454,0.988161151 C31.6317173,0.748920863 30.9660065,1.11298273 30.7891748,1.74748921 C30.6331424,2.19476331 30.7683669,2.61083309 31.1844367,2.99569856" id="Shape" fill="#1D428A"></path>
            <polygon id="Shape" fill="#1D428A" points="34.471295 6.09539568 35.3868345 6.5218705 36.7076978 3.6718705 37.8416547 4.2023741 38.1848201 3.45345324 35.0123741 1.97633094 34.6689928 2.7252518 35.8027338 3.24539568"></polygon>
            <path d="M37.0302173,6.83395683 L36.790977,7.18761583 L37.4774935,7.64529281 L37.7687417,7.32284676 L38.2056173,7.10441007 L38.819318,7.51007914 L39.4330209,7.91574604 L39.3914137,8.4046295 L39.2041835,8.78949281 L39.8907,9.25757266 L40.1299403,8.90391151 L41.0348935,5.25289856 L40.5668137,4.93045252 L40.1923532,4.68080935 L40.0883353,4.60799784 L39.7762835,4.39996187 L39.6410612,4.59759712 L39.7450791,4.86804173 L37.0302173,6.83395683 Z M39.9947137,5.76257698 L39.6306475,7.1251964 L39.245782,6.86515252 L38.8609144,6.60510863 L39.9947137,5.76257698 Z" id="Shape" fill="#1D428A"></path>
            <polygon id="Shape" fill="#1D428A" points="42.2415108 7.16676259 43.1568345 8.03007194 41.0141007 10.3288489 41.7526619 11.0153957 43.8953957 8.71661871 44.8107194 9.55920863 45.372518 8.96633094 42.8030935 6.57388489"></polygon>
            <polygon id="Shape" fill="#1D428A" points="45.1331655 12.3571942 46.0174101 13.4911511 46.6623022 12.9917266 45.7780576 11.8579856 46.3502158 11.4107914 47.3382734 12.6796403 48.1184892 12.3468345 46.4958993 10.2664748 46.506259 10.2561151 46.1941727 9.86093525 46.0174101 10.0064029 46.0277698 10.3914388 43.2608633 12.5652518 44.9564029 14.7392806 45.601295 14.2294964 44.5195683 12.8356835"></polygon>
            <path d="M48.2016928,28.8856511 C48.2016928,42.0295843 37.5464296,52.6848475 24.4024964,52.6848475 C11.2585632,52.6848475 0.6033,42.0295843 0.6033,28.8856511 C0.6033,15.7417178 11.2585632,5.08645468 24.4024964,5.08645468 C37.5460416,5.08739145 48.200756,15.7421059 48.2016928,28.8856511" id="Shape" fill="#1D428A"></path>
            <path d="M39.9635115,13.3142353 C34.4047967,7.75132582 26.3000436,5.57747923 18.7035765,7.6119225 C11.1071095,9.64636577 5.17361798,15.5798564 3.13917365,23.1763232 C1.10472933,30.77279 3.27857479,38.8775434 8.84148345,44.436259 C14.4001982,49.9991684 22.5049514,52.173015 30.1014184,50.1385717 C37.6978855,48.1041285 43.631377,42.1706378 45.6658213,34.574171 C47.7002656,26.9777042 45.5264202,18.8729508 39.9635115,13.3142353 L39.9635115,13.3142353 Z M9.6840259,14.1567777 C16.7935196,7.06466078 27.9516631,6.05628915 36.2174307,11.7589296 C44.4831983,17.4615701 47.5020509,28.2508013 43.3960835,37.4150827 C40.8684604,36.5621331 38.3824403,35.6051806 35.9484324,34.5234 C35.6259863,34.3777748 35.303523,34.2425504 34.9914712,34.0969252 L34.0449108,33.6496511 L33.5664216,33.4208115 L33.0983439,33.1919719 L32.1621863,32.7238921 C31.8501324,32.5678662 31.5380806,32.401446 31.2364317,32.2350108 L30.7683518,31.9853676 C30.6123259,31.9021554 30.4667029,31.8189388 30.310677,31.7357266 L29.395323,31.2260417 L28.490359,30.6955532 C26.0684658,29.2843697 23.749967,27.702784 21.5523971,25.9627576 C20.4602137,25.0890108 19.3888338,24.1840576 18.3798647,23.2166978 C17.8701799,22.7382086 17.3812964,22.2389331 16.9028158,21.7292482 C16.7883971,21.6044266 16.6635755,21.479605 16.5491568,21.3443827 C16.4347381,21.2195633 16.3203194,21.0843388 16.2059007,20.9491165 C16.091482,20.8138942 15.9770612,20.6890727 15.8730432,20.5538504 C15.8730432,20.5434475 15.8626424,20.5434475 15.8626424,20.5330468 C15.8210353,19.0039899 15.8002295,18.088636 15.8002295,18.088636 L14.7600755,17.8389928 L14.7600755,19.2328252 L13.8759259,19.2328252 L13.8759259,17.7661835 L12.7629496,18.0366302 L12.7733504,18.5671187 L12.2532647,18.8479662 C12.2636655,19.2848396 12.2740662,19.8569353 12.2844691,20.5330489 C11.8579942,21.2715734 7.2500223,29.2393079 3.7966446,31.6941281 C3.66800852,30.7529846 3.60198569,29.8043403 3.59901151,28.8544511 C3.57512019,23.3376117 5.76747778,18.0422255 9.68403453,14.156782 L9.6840259,14.1567777 Z M37.0302216,39.0897669 L34.8874619,39.1625806 L33.1399683,34.6378209 L33.4832245,34.8042496 L34.4401878,35.2827388 C34.7626338,35.4387647 35.0850971,35.5843878 35.4075475,35.7404137 C35.5011626,35.7820209 35.5947777,35.8236281 35.6779942,35.8652374 L37.0302216,39.0897669 Z M36.5101338,36.2500921 C37.3734777,36.6453561 38.2472266,37.0198187 39.1209734,37.3838806 L39.8386921,38.9857511 L37.6855295,39.0585647 L36.5101338,36.2500921 Z M34.2217489,39.1833842 L32.0269813,39.2561978 L29.7489928,32.7863072 C29.8946158,32.8695201 30.0402403,32.9527338 30.1858662,33.0359482 L30.653946,33.2959921 C30.9659978,33.4728216 31.2780496,33.6392482 31.5901036,33.8160777 L32.3078223,34.2009453 L34.2217489,39.1833842 Z M31.3924683,39.2769993 L29.436941,39.3394101 L26.5868633,30.8307842 C27.0237367,31.1116317 27.4606079,31.392477 27.9078863,31.6629237 L28.8232381,32.2246165 L28.9480597,32.2974302 L31.3924683,39.2769993 Z M28.7816288,39.3706144 L26.7324842,39.4434281 L23.3519158,28.5944072 C24.1320475,29.1769058 24.9329827,29.7386007 25.7339158,30.2898906 L28.7816288,39.3706144 Z M26.087577,39.4642295 L24.111246,39.5266403 L20.0857727,25.9731626 C20.3666201,26.2228036 20.6578683,26.462046 20.9491165,26.7012842 C21.4588014,27.127759 21.9684863,27.5334237 22.4989727,27.9390928 L26.087577,39.4642295 Z M23.4767374,39.547446 L21.2923705,39.6202597 L16.486759,22.467777 C16.9028288,22.9358547 17.3397086,23.3831288 17.7869763,23.8304072 C18.2550561,24.2984849 18.7335367,24.745759 19.2120173,25.1930353 L23.4767374,39.547446 Z M20.657864,39.6410612 L18.7647453,39.7034719 L16.1227058,29.6345784 C16.0394914,27.0341417 15.9666799,24.641741 15.9146719,22.7070151 L20.657864,39.6410612 Z M18.130241,39.7242734 L16.4971662,39.7762878 C16.3931504,37.3838849 16.2995353,34.8666604 16.2163209,32.422254 L18.130241,39.7242734 Z M41.2221194,41.1701158 C41.0764942,41.357346 40.9412698,41.5549813 40.7852439,41.7422115 L16.5803806,41.2637223 L16.5699777,41.0348827 L41.2221194,41.1701158 Z M40.5043964,38.9753504 L39.9531043,37.727141 C40.8684561,38.1016014 41.7942151,38.4552626 42.7199698,38.7881201 C42.699164,38.8193245 42.6783626,38.8609338 42.657559,38.8921489 L40.5043964,38.9753504 Z M14.749677,23.7471863 L14.749677,25.0266 L13.7823129,25.0266 L13.7823129,26.2123986 L14.749677,26.2123986 L14.749677,27.491823 L13.7823129,27.491823 L13.7823129,28.6776216 L14.749677,28.6776216 L14.749677,31.0804273 L13.7823129,31.0804273 L13.7823129,32.2662259 L14.749677,32.2662259 L14.749677,34.741841 L13.7823129,34.741841 L13.7823129,35.9276396 L14.749677,35.9276396 L14.749677,39.8178777 L13.8551245,39.849082 L13.8551245,21.7396403 L14.7392806,21.7396403 L14.7392806,22.5405755 L13.7719101,22.5405755 L13.7719101,23.7263741 L14.749677,23.7263741 L14.749677,23.7471863 Z M5.40890719,37.4254835 L8.12376475,28.2823489 C9.44604502,26.5066773 10.6417313,24.6401571 11.701964,22.6966187 L6.83395683,40.0675295 C6.29418734,39.2233431 5.81786416,38.3402319 5.40891799,37.4254835 L5.40890719,37.4254835 Z M5.02404388,36.5309353 C4.54272659,35.3100881 4.18045039,34.0456066 3.94226115,32.7551029 C5.09305065,31.8093865 6.14548939,30.749978 7.08358921,29.5929712 L5.02404388,36.5309353 Z M12.2740597,22.9358504 C12.2740597,24.7769612 12.2428554,26.992541 12.2012482,29.3537309 L9.40317842,40.0155194 L7.46845252,40.0779324 L12.2740597,22.9358504 Z M12.1388396,32.026977 C12.0660259,34.6690209 11.9724108,37.3942791 11.8371885,39.9323007 L10.0480878,39.9947115 L12.1388396,32.026977 Z M8.42541367,42.2414935 L11.701964,42.3559122 C11.6395532,43.3648835 11.5667417,44.3218424 11.4835273,45.2163928 C10.8508195,44.7129191 10.2465861,44.1746658 9.67362302,43.6041237 C9.23674964,43.1672482 8.82067338,42.7095712 8.42541367,42.2414935 L8.42541367,42.2414935 Z M24.4024964,49.6995432 C21.8497015,49.7056821 19.317735,49.240195 16.9340439,48.3265122 C16.8404288,46.9014712 16.7468115,45.1955849 16.6531964,43.3336727 L14.749677,42.6887633 L14.749677,47.3383468 C14.4480259,47.1823209 14.1463748,47.0159007 13.8551245,46.8390626 L13.8551245,42.4287237 L14.749677,42.4599281 L14.749677,42.4911324 L15.7170388,42.4911324 L17.4749331,42.5535432 L39.3914115,43.3336727 C39.3081993,43.4272878 39.2145799,43.5105043 39.1313676,43.6041194 C35.2316427,47.5196859 29.9287337,49.7142517 24.4024964,49.6995432 L24.4024964,49.6995432 Z" id="Shape" fill="#FDB927"></path>
            <polygon id="Shape" fill="#1D428A" points="31.4861871 54.2346043 31.2468345 53.0071942 29.9257554 53.2672662 28.4279137 53.5586331 27.1070504 53.818705 27.3461871 55.0355396 28.6569065 54.7860432 29.3328777 58.2392806 28.0223741 58.4993525 28.2511511 59.7164029 29.5825899 59.4666906 31.0804317 59.1755396 32.3909353 58.9154676 32.1517986 57.6880576 30.8410791 57.9481295 30.1651079 54.4946763"></polygon>
            <path d="M39.1313719,52.7784647 C39.8594935,54.3387259 39.2873978,56.1590331 37.5086978,56.9807719 C35.7299978,57.8129115 33.9721036,57.0743914 33.243982,55.5141281 C32.5158604,53.9538647 33.0879561,52.1439604 34.866654,51.3118209 C36.645354,50.4900799 38.4032482,51.2182036 39.1313719,52.7784647 M37.7271345,53.4337727 C37.2798604,52.4768115 36.3541036,52.0711468 35.417946,52.5080158 C34.4713856,52.9448892 34.200941,53.9122511 34.6482173,54.8692122 C35.0954914,55.8157705 36.0108475,56.2422453 36.9574058,55.8053698 C37.8935633,55.3684964 38.1744086,54.3803288 37.7271345,53.4337727" id="Shape" fill="#1D428A"></path>
            <path d="M43.4793,47.8376309 C42.7303791,46.9638863 41.5549835,47.0262971 40.6708273,47.7856165 L39.0065482,49.2106576 L38.7465043,49.4290942 L38.4344525,49.6995367 L38.6632921,49.9595806 L39.172977,49.9179712 L42.6575633,54.0058576 L43.8121576,53.0176899 L42.3871165,51.3534108 L42.7199741,51.0725633 L45.2892086,51.759082 L46.6830453,50.5732813 L43.708146,49.8763619 C44.0391686,49.2108694 43.9496306,48.4131754 43.4793065,47.8376309 M42.1270791,49.9699921 L41.5861878,50.4276734 L40.7020381,49.3979007 L41.2637331,48.9194115 C41.5861791,48.6489647 41.9918547,48.586554 42.2831029,48.9298122 C42.5847561,49.2626633 42.4703396,49.6683302 42.1270791,49.9699835" id="Shape" fill="#1D428A"></path>
            <path d="M49.106646,47.6087957 C48.7326146,48.1500848 48.2233789,48.5840104 47.629595,48.8674079 L46.3709871,47.9208475 C47.0159838,47.8017001 47.6001352,47.4637019 48.0248719,46.9638863 C48.3057194,46.5894259 48.2849158,46.2565683 48.0872806,46.1005424 C47.8272367,45.9029094 47.5567942,46.0277288 47.0159007,46.2981755 L46.3709914,46.5998245 C45.5908597,46.9742849 44.9251468,46.9430806 44.3634561,46.5166122 C43.5625209,45.9133122 43.4168957,44.7795194 44.1970273,43.739346 C44.5515071,43.2569051 45.0147971,42.8648914 45.5492568,42.5951547 L46.6934504,43.4584986 C46.1235304,43.6370426 45.6153046,43.972255 45.2268065,44.4258583 C44.9979669,44.7275094 44.9875662,45.0395612 45.1956022,45.1955871 C45.3620266,45.3204108 45.5492633,45.3204108 45.9029201,45.153982 L46.662246,44.7899201 C47.4527763,44.4050547 48.1913029,44.1762173 48.9194266,44.7275094 C49.8555777,45.4556353 49.8243734,46.6622374 49.1066504,47.6088043" id="Shape" fill="#1D428A"></path>
            <path d="M25.6611086,55.7429633 C25.7027158,54.5883712 24.787364,53.8498424 23.6223669,53.8082396 L21.4275971,53.7354259 L21.0947482,53.725036 L20.6786784,53.7146374 L20.6682755,54.0682986 L21.0739446,54.3803504 L20.8867144,59.7476504 L22.4053683,59.7996647 L22.478182,57.6048993 L22.9150576,57.6152978 L24.3504971,59.8620734 L26.181205,59.9244799 L24.4545151,57.4072576 C25.1479816,57.1367251 25.6196203,56.4861887 25.6611173,55.7429784 M23.2271007,56.3982734 L22.5197827,56.3774676 L22.5717971,55.0252424 L23.3103216,55.046046 C23.7367964,55.0564446 24.0696475,55.2852842 24.0592424,55.7429655 C24.0384345,56.1902374 23.684782,56.4086719 23.2270986,56.3982734" id="Shape" fill="#1D428A"></path>
            <path d="M18.8999741,55.2020698 C19.2224201,54.0994878 18.5255137,53.1425266 17.4125245,52.8200676 L15.3113719,52.1959619 L14.9889259,52.1023446 L14.5936576,51.9879281 L14.4896417,52.3207856 L14.8016935,52.7264568 L13.2726367,57.8753201 L14.728882,58.301795 L15.3529856,56.2006424 L15.7794604,56.325464 L16.6011971,58.8530871 L18.3590935,59.3731748 L17.318918,56.5022957 C18.0575429,56.4217061 18.6782755,55.9112352 18.8999849,55.2020763 M16.3827604,55.2332806 L15.7066468,55.0356453 L16.0915122,53.7354259 L16.7988302,53.9434619 C17.2044971,54.0682835 17.4749439,54.3699367 17.3501245,54.8068058 C17.2149,55.2332806 16.819636,55.3581022 16.3827604,55.2332806" id="Shape" fill="#1D428A"></path>
            <path d="M11.7435712,50.3756568 L11.2130935,50.063605 L11.005036,49.938777 L10.5681626,49.6787331 L10.3913353,49.9803863 L10.5369583,50.3132439 L6.59470576,53.5585964 L6.26185036,54.1202914 L7.34363094,54.7547957 L7.74929784,54.2347101 L8.39420719,53.8602496 L9.35116619,54.4219446 L10.3081273,54.9836417 L10.2873237,55.722164 L10.0376827,56.325464 L11.1194633,56.9599683 L11.4523187,56.3982712 L12.4924942,50.7813281 L11.7435712,50.3756568 Z M9.95447266,53.4129691 L9.3511705,53.0593058 L10.9842432,51.6654691 L10.5577683,53.7666237 L9.95447266,53.4129691 Z" id="Shape" fill="#1D428A"></path>
            <polygon id="Shape" fill="#1D428A" points="8.14446043 48.0457554 8.14446043 48.0457554 7.77 47.64 7.51014388 47.8791367 7.56215827 48.3056115 4.31676259 49.71 6.41784173 46.1628777 5.76258993 45.4452518 2.07 47.2551799 4.04633094 43.5833094 2.91258993 42.3351799 2.91258993 42.3351799 2.76690647 42.1791367 2.50683453 42.4079137 2.57956835 42.9904317 0 48.0664748 1.04007194 49.2002158 3.51582734 48.1705036 2.27805755 50.5420144 3.30776978 51.6759712 9.26805755 49.2835252"></polygon>
        </g>
    </g>
</svg>
