<?xml version="1.0" encoding="UTF-8"?>
<svg width="60px" height="60px" viewBox="0 0 60 60" version="1.1" xmlns="http://www.w3.org/2000/svg" xmlns:xlink="http://www.w3.org/1999/xlink">
    <title>IND</title>
    <g id="Page-1" stroke="none" stroke-width="1" fill="none" fill-rule="evenodd">
        <g id="IND" fill-rule="nonzero">
            <path d="M59.9272727,29.8418636 C59.9305635,41.9165416 52.6590511,52.8039461 41.5041327,57.4262459 C30.3492143,62.0485456 17.5082246,59.4952238 8.97013722,50.9571371 C0.432049877,42.4190504 -2.12127286,29.5780609 2.50102601,18.4231421 C7.12332488,7.26822334 18.0107288,-0.00328988765 30.0854068,6.54375558e-15 C46.5663425,0.0006539056 59.9266176,13.3609279 59.9272727,29.8418636 Z" id="Shape" fill="#BEC0C2"></path>
            <path d="M58.2187659,29.8418636 C58.2118716,45.3701559 45.6199422,57.9537021 30.0916488,57.950255 C14.5633553,57.9468078 1.97701414,45.3576722 1.97701414,29.8293784 C1.97701414,14.3010846 14.5633553,1.71194899 30.0916488,1.70850183 C45.6199422,1.70505467 58.2118716,14.2886009 58.2187659,29.8168932 C58.2187705,29.8252159 58.2187705,29.8335394 58.2187659,29.8418636 Z" id="Shape" fill="#002D62"></path>
            <path d="M30.0854068,3.02648636 C19.2381202,3.01989916 9.45526454,9.54907796 5.29962295,19.5687742 C1.14398137,29.5884705 3.43417065,41.1249116 11.1020327,48.7974316 C18.7698947,56.4699516 30.3049429,58.7671463 40.3271609,54.6175903 C50.349379,50.4680342 56.8844976,40.6891454 56.8844977,29.8418568 C56.888343,15.0369012 44.890362,3.03163183 30.0854068,3.02648636 L30.0854068,3.02648636 Z" id="Shape" fill="#FDBB30"></path>
            <path d="M48.4396182,29.8418636 C48.4396182,40.1905136 40.2062568,48.5865909 30.0854068,48.5865909 C19.9320159,48.5865909 11.7311955,40.1905182 11.7311955,29.8418636 C11.7311955,19.4932091 19.9320159,11.1134091 30.0854068,11.1134091 C40.2225273,11.1134091 48.4396182,19.4932114 48.4396182,29.8418636 Z" id="Shape" fill="#002D62"></path>
            <path d="M47.268075,29.8418636 C47.268075,39.5233864 39.5879455,47.3662295 30.0854091,47.3662295 C20.5991477,47.3662295 12.9027432,39.5233841 12.9027432,29.8418636 C12.9027432,20.1603432 20.5828727,12.3175 30.0854068,12.3175 C39.5879409,12.3175 47.268075,20.1603409 47.268075,29.8418636 Z" id="Shape" fill="#FFFFFF"></path>
            <polygon id="Shape" fill="#002D62" points="11.2429545 24.6025 11.0640909 25.2859091 5.58068182 23.9352273 5.75954545 23.2356818"></polygon>
            <polygon id="Shape" fill="#002D62" points="12.0077273 16.1738636 14.3672727 17.98 13.9604545 18.5168182 9.48568182 15.0836364 9.71363636 14.7745455 12.9515909 15.6206818 10.5109091 13.7493182 10.9177273 13.2125 15.3922727 16.6295455 15.1806818 16.9547727"></polygon>
            <path d="M17.7841818,7.50113636 L18.8906409,6.93163409 C19.3625136,6.68756136 19.9482864,6.70383409 20.2574432,7.28960682 C20.9571159,8.68895227 21.2825455,9.29099773 21.9984886,10.6577886 C22.1137429,10.8892462 22.1265176,11.1584615 22.0336978,11.3997925 C21.9408779,11.6411235 21.7509934,11.8323928 21.5103432,11.9269636 L20.3550682,12.5127364 L17.7841818,7.50113636 Z M20.7293182,11.6340909 L21.0222045,11.4713773 C21.2629335,11.3761088 21.3808533,11.1037296 21.2855864,10.863 C21.2798591,10.8485288 21.2734197,10.8343682 21.2662682,10.8205182 C20.6804955,9.68151591 20.2574364,8.86794318 19.6716659,7.71266818 C19.5661942,7.49159539 19.3014786,7.39788085 19.0804045,7.50335 C19.0712288,7.50772879 19.0622136,7.51241818 19.0533591,7.51741818 L18.7116568,7.69640455 L20.7293182,11.6340909 Z" id="Shape" fill="#002D62"></path>
            <polygon id="Shape" fill="#002D62" points="29.3695455 9.90931818 28.6697727 9.95818182 28.3443182 4.31204545 29.0929545 4.26318182"></polygon>
            <path d="M37.602825,11.4062864 L37.8468955,10.3160977 L36.9031523,9.958125 L36.33365,10.9181409 L35.6665182,10.6577977 L38.6767455,5.76008636 L39.3764182,6.02042955 L38.3025,11.6666386 L37.602825,11.4062864 Z M38.3838636,7.54994773 L38.3513227,7.53367727 L37.1960455,9.43744773 L37.9608068,9.71406364 L38.3838636,7.54994773 Z" id="Shape" fill="#002D62"></path>
            <polygon id="Shape" fill="#002D62" points="45.9988636 13.6029545 43.8186364 15.6531818 43.3465909 15.165 47.4634091 11.2925 47.7075 11.5527273 46.3568182 14.6443182 48.6186364 12.5127273 49.0740909 13.0009091 44.9575 16.8734091 44.6972727 16.5968182"></polygon>
            <path d="M48.8138636,24.1143182 L49.806425,23.6099023 L49.4809955,22.6498864 L48.3745364,22.8288727 L48.1467364,22.1454636 L53.8580182,21.3807045 L54.1020886,22.0803773 L49.0579341,24.8302545 L48.8138636,24.1143182 Z M52.3122273,22.3081818 L52.2796864,22.2593682 L50.0830364,22.568525 L50.3433818,23.3332841 L52.3122273,22.3081818 Z" id="Shape" fill="#002D62"></path>
            <path d="M7.61451591,41.6224023 L7.27281591,40.9715455 L12.2681545,38.3843795 L13.098,39.9627136 C13.2607136,40.2881432 13.1793636,40.5322159 12.9352864,40.6623864 C12.0403568,41.1179864 11.5847545,41.3620591 10.6898318,41.8339341 C10.5751025,41.9001868 10.4371874,41.9131206 10.3121404,41.8693543 C10.1870934,41.8255879 10.0873454,41.7294724 10.0389727,41.6061341 L9.53454545,40.6298455 L7.61451591,41.6224023 Z M10.0715068,40.3369477 L10.4782932,41.1017091 L12.4796841,40.0440659 L12.0728977,39.2793182 L10.0715068,40.3369477 Z" id="Shape" fill="#002D62"></path>
            <path d="M15.0668477,50.6042523 L15.6200773,49.6279636 L14.8065045,48.9933773 L13.9766591,49.7255909 L13.4234295,49.2862727 L17.7516386,45.5112932 L18.3374114,45.9831682 L15.6526205,51.0598545 L15.0668477,50.6042523 Z M17.0031523,47.1547068 L16.9706091,47.1058955 L15.3109091,48.5703205 L15.9454955,49.0747364 L17.0031523,47.1547068 Z" id="Shape" fill="#002D62"></path>
            <path d="M25.0900682,53.1263182 L25.8060114,53.3053045 L25.4480386,54.7534636 C25.4233469,54.8700641 25.353347,54.97208 25.2534382,55.0370691 C25.1535294,55.1020582 25.0318958,55.1246967 24.9152955,55.1000045 C24.9084288,55.0985515 24.9016,55.0969379 24.8948091,55.0951636 C24.3903932,54.9812636 24.0486932,54.8836341 23.5280068,54.7534636 C23.4093298,54.7268498 23.3060858,54.6541816 23.2409876,54.5514452 C23.1758894,54.4487088 23.1542695,54.3243201 23.1808841,54.2056432 C23.1825144,54.1983705 23.1843212,54.1911424 23.1863045,54.1839591 C23.6256341,52.3940955 23.8697136,51.4015409 24.3090318,49.6116864 C24.3604468,49.3688834 24.5989551,49.2137309 24.8417591,49.2651409 C24.8486288,49.266597 24.8554606,49.2682121 24.8622545,49.2699864 C25.3666705,49.3838864 25.7246432,49.4977864 26.2453295,49.6116864 C26.4913619,49.6771679 26.6377278,49.9296991 26.5722477,50.1757318 L26.5707591,50.1811864 L26.2941455,51.3201886 L25.5782023,51.1574614 L25.8222727,50.1486364 L24.9761568,49.9533795 L23.9347932,54.2490455 L24.7809091,54.4443023 L25.0900682,53.1263182 Z" id="Shape" fill="#002D62"></path>
            <polygon id="Shape" fill="#002D62" points="35.4875 55.0627273 33.6652273 55.4043182 32.6888636 49.8395455 34.4786364 49.5140909 34.5763636 50.1161364 33.4861364 50.295 33.8115909 52.1175 34.8365909 51.9384091 34.9343182 52.5404545 33.9254545 52.7195455 34.2834091 54.6559091 35.3572727 54.4768182"></polygon>
            <path d="M43.80225,51.5154545 L43.1839341,51.9059705 L40.011,47.2360591 L41.5567886,46.1784159 C41.6571289,46.0916043 41.791807,46.0557382 41.9220329,46.0811478 C42.0522587,46.1065574 42.163575,46.1904218 42.2239205,46.3085864 C42.6632386,46.9431727 42.9561364,47.3662295 43.3954682,48.0170909 C43.4776727,48.119156 43.5106325,48.2523027 43.4855348,48.38093 C43.4604371,48.5095573 43.3798415,48.620547 43.2652977,48.6842227 L43.1839341,48.7493091 L45.2504091,50.5228977 L44.5832773,50.9784977 L42.2564591,48.9282932 L42.2401886,48.6679477 L42.7283341,48.3425182 L41.7032318,46.8455432 L40.9384705,47.366225 L43.80225,51.5154545 Z" id="Shape" fill="#002D62"></path>
            <path d="M49.5460773,42.9892068 L50.6688045,43.70515 L50.9942341,43.1844682 L49.9040455,42.4847955 L47.805025,42.5986955 C47.6746681,42.6146082 47.5427629,42.5859311 47.4307795,42.5173318 C47.0239932,42.2569864 46.8450068,42.1268159 46.3894159,41.866475 C46.2905587,41.8036352 46.2207135,41.7040981 46.1952456,41.5897609 C46.1697777,41.4754237 46.1907733,41.3556524 46.2536136,41.2567955 L46.2592455,41.2481591 C46.470775,40.8739136 46.6660318,40.5973023 46.8938318,40.2393273 C46.9544873,40.1307047 47.0594342,40.0538771 47.1813069,40.0288778 C47.3031797,40.0038785 47.4298977,40.0331855 47.5284182,40.1091568 L48.5209795,40.7437432 L48.1304636,41.3457886 L47.2680773,40.7925614 L46.9426477,41.3295182 L47.7887614,41.8502 L49.7901523,41.7200295 C49.9664621,41.697315 50.145126,41.7376583 50.2945682,41.8339295 C50.81525,42.1756295 50.9942409,42.2732477 51.5474705,42.6149614 C51.7606216,42.7426789 51.8328643,43.0171798 51.7101977,43.2332773 C51.4823977,43.6075227 51.3034114,43.8841341 51.0593409,44.2421091 C50.9977388,44.3496783 50.8928723,44.4255798 50.7714412,44.4504885 C50.6500101,44.4753973 50.5237306,44.4469099 50.4247545,44.3722795 L49.188125,43.5749773 L49.5460773,42.9892068 Z" id="Shape" fill="#002D62"></path>
            <path d="M24.601925,19.2003182 L19.9482886,40.2881409 L29.1579364,40.2881409 C29.1579364,40.2881409 30.1830386,36.0901045 30.2643955,35.7158682 L34.2509091,35.7158682 C37.2448591,35.7321386 39.6855773,34.7233068 41.3289955,32.7870045 C44.3392227,29.5164409 43.8185273,24.7489023 41.5567955,22.0152955 C39.9444557,20.060486 37.5331555,18.9415923 34.9993909,18.9725227 L24.6507386,18.9725227 L24.601925,19.2003182 Z" id="Shape" fill="#BEC0C2"></path>
            <path d="M29.5972727,34.8860159 L28.4908136,39.4582886 L20.9896591,39.4582886 L25.3178682,19.8349045 L34.9831182,19.8349045 C37.2734401,19.8003411 39.4543246,20.8128978 40.9059318,22.5847909 C43.0537636,25.1719545 43.2652932,29.4838818 40.6944023,32.2663114 C39.1160682,34.1049864 36.7892523,34.9348295 34.2509023,34.9022886 L29.5972727,34.8860159 Z" id="Shape" fill="#002D62"></path>
            <path d="M24.3090386,24.3258364 L28.5396182,24.3258364 C29.0277636,24.3258364 29.54845,24.7163523 29.3369205,25.3509386 C29.1901236,25.7565482 29.0864986,26.1765042 29.0277636,26.6038432 C28.9952205,26.913 29.3531932,27.124525 29.5484455,27.124525 L38.1885955,27.124525 C38.3513227,27.124525 38.4326659,27.0757114 38.4326659,26.9943523 C38.4361721,26.8087294 38.4198086,26.6232641 38.3838545,26.4411227 C38.3513136,26.2621364 38.3350432,26.2133227 38.172325,26.2133227 C37.0984068,26.2133227 36.6590795,25.7251773 35.5200773,25.0092318 C34.39735,24.2770159 32.7376568,23.8539568 31.3057591,23.8539568 L24.374125,23.8539568 L24.3090386,24.3258364 Z" id="Shape" fill="#FDBB30"></path>
            <path d="M29.54845,29.9069409 C29.3970702,29.5643897 29.2719617,29.2108216 29.1742068,28.8492955 C29.0765773,28.4099659 28.6860614,28.0519932 28.0189318,28.0519932 L23.4791932,28.0519932 L23.6093659,27.5475773 L38.3350477,27.5638477 C38.4652182,27.5638477 38.4489477,27.6289341 38.4326773,27.7916477 C38.4326773,27.9543614 38.3838659,28.2472477 38.3675909,28.4262341 C38.3513205,28.6214909 38.2048636,28.5726773 38.0747045,28.5726773 C37.6098068,28.5604239 37.1515366,28.6848926 36.7567159,28.93065 C36.1546705,29.4025227 34.8366818,30.2161045 34.1207386,30.4276227 C33.3234295,30.6554364 30.4108386,31.5666386 29.54845,29.9069409 Z" id="Shape" fill="#FDBB30"></path>
            <path d="M22.6818932,31.7618864 L30.3620227,31.7618864 C30.6704025,31.7506304 30.9737738,31.842214 31.2244114,32.0222295 C31.9382981,32.567676 32.7503106,32.97092 33.6163159,33.2100455 C34.0068318,33.3402182 34.7065023,33.1775023 35.3248182,32.8358023 C36.8543364,31.9571432 37.8468955,30.313725 38.1885955,29.2398091 C38.2699591,28.9631955 38.1072318,28.9794659 37.9119795,28.9957364 C37.2611227,29.04455 36.5777205,29.6303227 35.6827886,30.2160955 C34.7715864,30.769325 32.9654523,31.3225545 31.2244068,31.3225545 L22.7957932,31.3225545 L22.6818932,31.7618864 Z" id="Shape" fill="#FDBB30"></path>
            <path d="M33.9742886,21.4620591 C34.2068126,21.4175337 34.4465743,21.4286855 34.6739614,21.4946023 C36.1546659,22.080375 37.5214614,23.5936205 38.1072409,25.2044955 C38.2211409,25.529925 38.2536818,25.7089114 38.1072409,25.7251773 C37.4401091,25.8065409 37.1472273,25.4648341 36.3336523,24.9441477 C35.5644063,24.4178119 34.7194371,24.0117867 33.8278477,23.7400568 C32.8352864,23.4309 31.0454273,23.3658136 30.8338977,23.3658136 C30.6060977,23.3658136 30.6223682,23.2681841 30.7199977,23.1705568 C31.6003924,22.2760846 32.7380849,21.6787978 33.9742886,21.4620591 L33.9742886,21.4620591 Z" id="Shape" fill="#FDBB30"></path>
            <path d="M40.9710182,26.9943568 C40.9657545,27.0729508 40.9031712,27.1355351 40.8245773,27.1408 L39.1323432,27.1408 C38.9208136,27.1408 38.9208136,27.0431705 38.9208136,26.913 C38.8861133,26.7416631 38.8697506,26.5671191 38.8720023,26.3923182 C38.8720023,26.2621455 38.8069159,26.0994318 39.0021727,26.018075 C39.4661526,25.7808463 39.8507239,25.4132411 40.1086318,24.9604295 C40.1574432,24.8302568 40.2713591,24.6187273 40.3852477,24.7977159 C40.8083023,25.4322977 40.9384727,26.2133273 40.9710182,26.9943568 Z" id="Shape" fill="#FDBB30"></path>
            <path d="M40.3689727,30.0208477 C40.3527023,30.0859341 40.2225318,30.1347477 40.2062455,30.0208477 C39.9656274,29.4473066 39.5266839,28.9794846 38.9696159,28.7028591 C38.8557159,28.6377727 38.8557159,28.5564159 38.8557159,28.4262455 C38.8719864,28.3123455 38.9208023,27.9218295 38.9370795,27.7753864 C38.9370795,27.6452136 39.0021659,27.5475864 39.0998068,27.5475864 L40.8571227,27.5475864 C40.9059341,27.5475864 40.9872932,27.6126727 40.9872932,27.6452159 C40.9616943,28.4734058 40.7503859,29.2852678 40.3689727,30.0208477 Z" id="Shape" fill="#FDBB30"></path>
            <path d="M35.8129545,33.3076841 C35.6827841,33.3402273 35.4061682,33.2914136 35.829225,33.0473409 C37.0983977,32.2988523 38.2536727,30.5740773 38.5465614,29.5652477 C38.6767318,29.1747318 38.6767318,29.1584614 38.8394477,29.207275 C39.1436004,29.3442941 39.4030028,29.5642223 39.5879341,29.8418614 C39.8157341,30.1672909 39.9296341,30.8181477 39.7831909,30.9808636 C38.8211532,32.2527824 37.392785,33.0899004 35.8129545,33.3076841 L35.8129545,33.3076841 Z" id="Shape" fill="#FDBB30"></path>
            <path d="M39.0509841,25.4485682 C38.7580977,25.6112818 38.6930091,25.5624682 38.6279273,25.3509386 C38.0747,23.4146341 36.4312773,21.966475 35.76415,21.5271455 C35.65025,21.4620591 35.6665205,21.3969727 35.76415,21.4132455 C37.3587545,21.6410455 38.9370841,22.5034318 39.7181159,23.69125 C40.1899864,24.3746523 39.3438636,25.2858523 39.0509841,25.4485682 Z" id="Shape" fill="#FDBB30"></path>
        </g>
    </g>
</svg>
