<?xml version="1.0" encoding="UTF-8"?>
<svg width="60px" height="60px" viewBox="0 0 60 60" version="1.1" xmlns="http://www.w3.org/2000/svg" xmlns:xlink="http://www.w3.org/1999/xlink">
    <title>CLE</title>
    <g id="Page-1" stroke="none" stroke-width="1" fill="none" fill-rule="evenodd">
        <g id="CLE" transform="translate(9.000000, 0.000000)" fill-rule="nonzero">
            <g id="g10" transform="translate(20.821646, 30.008597) scale(-1, 1) rotate(-180.000000) translate(-20.821646, -30.008597) translate(0.023244, 0.028558)">
                <g id="g1282" transform="translate(0.014071, 0.007073)">
                    <g id="g20" transform="translate(0.021006, 0.041444)" fill="#6E253C">
                        <path d="M20.7330213,59.8802392 C18.4255861,59.1186417 4.08072236,53.9581654 0.579706188,50.6731409 C0.17050182,43.205093 0.00265982839,38.0218377 0.0795902496,32.3839563 C1.85280918,8.83185788 20.7671217,0 20.7671217,0 C20.7671217,0 38.953937,8.92290585 41.3637416,31.3382345 C41.3636734,36.8851361 41.6576867,42.5247907 40.8522361,50.7413417 C37.1353646,54.1854784 22.972324,59.0050193 20.7330213,59.8802392" id="path22"></path>
                    </g>
                    <g id="g1205" transform="translate(0.818409, 0.818409)">
                        <g id="g24" transform="translate(0.033664, 0.049969)" fill="#FFB81C">
                            <path d="M19.9146126,58.3116225 C17.6806295,57.5694621 3.86043401,52.6082002 0.470721425,49.4066534 C0.0745433957,42.1283399 -0.0197100104,37.0768484 0.0547651846,31.5821203 C1.77158211,8.62848331 19.9498724,0.0210058242 19.9498724,0.0210058242 C19.9498724,0.0210058242 37.4194888,8.71714425 39.752704,30.5629969 C39.7526358,35.9689276 40.1053699,41.4653606 39.325631,49.4731491 C35.7270196,52.8297162 22.0826455,57.4585678 19.9146126,58.3116225" id="path26"></path>
                        </g>
                        <path d="M19.9482765,57.6795838 C17.7142934,56.9374235 5.13603315,52.3514019 1.04999113,49.1838191 C0.653813099,41.9055056 0.559559693,37.126817 0.634034888,31.632089 C2.10110075,10.1465408 19.9835362,0.752981732 19.9835362,0.752981732 C19.9835362,0.752981732 37.156275,10.1464726 39.1725613,30.6129655 C39.1724931,36.0188962 39.593428,41.1136952 38.8136891,49.1214837 C35.2150776,52.4780507 22.1163094,56.8265291 19.9482765,57.6795838" id="path30" fill="#000000"></path>
                        <g id="g32" transform="translate(21.146181, 24.900609)" fill="#FFB81C">
                            <path d="M0,7.63848154 C0,7.63848154 5.939124,9.82090484 9.15594774,6.17216589 L9.15594774,4.52395889 L1.14236219,0 L3.30207465,4.31935671 C3.30207465,4.31935671 2.8473804,4.75134012 0,3.13723349 L0,7.63848154 Z" id="path34"></path>
                        </g>
                        <g id="g36" transform="translate(21.112081, 28.003742)" fill="#6E253C">
                            <path d="M8.38868955,3.06903276 L3.42708658,0.034100364 C3.42708658,0.034100364 6.17216589,4.80815133 0.034100364,2.14361708 L0.034100364,3.98974259 C0.034100364,3.98974259 5.09800442,5.91641316 8.38868955,3.06903276" id="path38"></path>
                        </g>
                        <g id="g40" transform="translate(21.095031, 28.753950)" fill="#041E42">
                            <path d="M3.68283931,1.09121165 C3.68283931,1.09121165 4.02384295,3.01788222 0.051150546,0.988910557 L0.051150546,0.017050182 C0.051150546,0.017050182 2.52342694,1.39811492 3.68283931,1.09121165" id="path42"></path>
                        </g>
                        <g id="g44" transform="translate(14.786463, 4.099325)" fill="#041E42">
                            <path d="M6.47906916,11.3213209 L6.45635832,46.5584546 C6.45635832,46.5584546 6.66096051,49.9230011 5.10366508,52.0940349 C5.10366508,52.0940349 3.77054545,49.9230011 3.77054545,46.580688 C3.77054545,45.2648914 3.66012847,23.3814602 3.5218174,10.7092193 C3.25931279,10.493364 0.886609464,9.25258817 0.68200728,6.49618755 C0.536603328,4.53739444 0.636517395,4.60354914 0.0568112065,2.98944251 C2.37563596,3.27363495 3.51233749,5.63794958 3.51233749,5.63794958 L3.53504834,2.33028248 C3.53504834,2.33028248 2.72802912,0.932167551 2.68253924,0.0455580863 C3.4100364,-0.159044098 7.37706815,0.306971477 6.70645039,2.50071609 C6.70645039,2.50071609 9.03680107,3.99744927 8.26388222,6.97557046 C8.76747639,6.88765973 9.38898963,6.80875148 9.38898963,6.80875148 C9.38898963,6.80875148 10.3665107,10.5256912 6.47906916,11.3213209" id="path46"></path>
                        </g>
                        <g id="g48" transform="translate(14.778539, 4.057764)" fill="#FFB81C">
                            <path d="M8.93429537,7.50208008 C8.78623159,7.52554113 8.58333443,7.53372522 8.41371922,7.56639337 L7.40202962,7.71984501 L7.77863404,6.80329542 C8.43602085,4.27011578 6.49912018,3.04877715 6.47947837,3.03670562 L5.80497317,2.42010283 L6.23259173,2.17860406 C6.35487564,2.07909919 6.2572122,1.89318401 6.12715341,1.63129321 C5.67286836,1.00923437 4.30346594,0.678324441 3.39046279,0.629901924 C3.5689441,1.1901027 3.89596659,1.82259626 4.04546258,2.08210003 L4.12389342,2.21836508 L4.10022777,5.68350767 C4.10022777,5.68350767 4.09995497,6.7167487 4.09995497,7.06627743 C3.60549969,7.03217707 3.00055923,5.93694158 3.00055923,5.93694158 C2.99223874,5.9203006 2.25676209,4.48181084 0.905705668,3.83049389 C1.11944675,4.53350699 1.15579774,4.95730632 1.24220806,6.13942954 L1.26832894,6.49475533 C1.42894165,8.65828703 3.1291858,9.78496305 3.68795437,10.1551566 C3.78288978,10.2180377 3.84556625,10.2596401 3.89814901,10.3028112 L4.10670684,10.4744042 L4.10970767,10.7444791 C4.24760954,23.3838472 4.35843573,45.1529058 4.35843573,46.6222905 C4.35843573,48.491195 4.80139945,49.9828132 5.15952148,50.8834038 C6.014554,48.9754884 5.88701864,46.6622561 5.88538183,46.6351804 L5.88429061,46.6174482 L5.90734246,10.8852454 L6.37567686,10.79372 C7.44022202,10.5855032 8.18579238,10.1367424 8.59185952,9.45971378 C9.00972538,8.76297514 8.99854046,8.0099027 8.93429537,7.50208008 M9.08917923,9.75802377 C8.59513315,10.5818204 7.71964041,11.1217655 6.48698045,11.3628551 L6.46426961,46.6001253 C6.46706584,46.6480704 6.60019366,49.0869284 5.68882733,51.1205377 L5.12767174,52.3726349 L4.62059932,51.0976905 C4.23642462,50.1316271 3.77845673,48.5709899 3.77845673,46.6222905 C3.77845673,45.1533832 3.66769875,23.3890305 3.52972868,10.7508218 C3.49999316,10.7263377 3.44447777,10.6895775 3.36761555,10.6386316 C2.75026256,10.2295636 0.871605304,8.98469571 0.689918565,6.53731259 L0.663729485,6.18171399 C0.577591966,5.00320541 0.544173609,4.63519428 0.350824545,3.99922249 L0.0342367655,2.93829197 C0.0342367655,2.93829197 0.887632475,3.18749743 1.15757096,3.30807631 C2.93999698,4.10411521 3.428587,5.50147993 3.5125421,5.66434327 C3.51513372,5.66891272 3.51772535,5.67348216 3.52031698,5.67811981 L3.54289142,2.37154392 C3.37150299,2.07405234 3.03015835,1.40957265 2.83783229,0.805996204 L2.58303437,0.0745433957 L3.42115312,0.0507413417 C4.29821448,0.0973224389 5.95474197,0.409749974 6.59548781,1.28919836 C6.60271708,1.29922387 6.64943458,1.37915512 6.65775507,1.3957961 C6.77847036,1.63743128 7.08128159,2.11033513 6.80452304,2.48571193 L6.90968856,2.58187496 C7.26685577,2.83251264 9.03448224,4.27318482 8.33999423,6.94904038 L8.33010512,6.98716459 L8.3278545,6.99241604 C8.44365934,6.97154662 8.56062358,6.9599525 8.6647661,6.94965419 C8.73289862,6.94297052 8.79721191,6.93655965 8.8435884,6.92926217 L9.43454771,6.83569077 L9.50970492,7.42930991 C9.62257712,8.32123903 9.48112881,9.10472899 9.08917923,9.75802377" id="path50"></path>
                        </g>
                        <g id="g52" transform="translate(19.253611, 14.107844)" fill="#FFB81C">
                            <path d="M0.204602184,37.7150026 L0,0.08525091 C0,0.08525091 0.477405096,-0.136401456 0.528555642,0.238702548 L0.647906916,35.788332 C0.647906916,35.788332 0.477405096,37.6127015 0.204602184,37.7150026" id="path54"></path>
                        </g>
                        <g id="g56" transform="translate(16.269829, 8.702936)" fill="#FFB81C">
                            <path d="M2.72802912,5.25145606 C2.72802912,5.25145606 0.687667941,4.31935671 0.278463573,2.08012221 C0.222470775,1.65666388 0.301242616,1.28265109 0.051150546,0 L1.64247813,2.08012221 C1.64247813,2.08012221 3.10879379,4.14885489 6.97352444,3.34183567 C6.97352444,3.34183567 7.39977899,4.77405096 5.05258274,5.62656006 C6.83712299,4.48419787 6.58709912,3.79652993 6.58709912,3.76242956 C6.58709912,3.76242956 4.05391948,4.48003762 2.00789763,2.91142088 L1.85846984,2.85304106 C1.85846984,2.85304106 3.15428367,4.35345707 5.47310842,4.4216578 C5.47310842,4.4216578 5.05224173,5.05394675 4.14319423,5.24006654 C4.10909386,4.78544048 2.9041916,4.51263757 2.72802912,5.25145606" id="path58"></path>
                        </g>
                        <g id="g60" transform="translate(20.199896, 6.929717)" fill="#FFB81C">
                            <path d="M0.34100364,4.63764951 C0.34100364,4.63764951 1.17932699,2.85304106 0.0653362975,0.0113895216 C1.38392917,0.579706188 2.50071609,3.90449168 0.34100364,4.63764951" id="path62"></path>
                        </g>
                        <g id="g64" transform="translate(21.140521, 7.850427)" fill="#FFB81C">
                            <path d="M0,3.95564223 L0.443304732,3.95564223 C0.443304732,3.95564223 2.0893293,2.53774909 0.51150546,0.0113895216 C1.69362868,2.75073996 0,3.95564223 0,3.95564223" id="path66"></path>
                        </g>
                        <g id="g68" transform="translate(19.151310, 6.179509)" fill="#FFB81C">
                            <path d="M0.545605824,5.38785751 L0.0454898856,5.20603437 L0.034100364,0.147790978 C0.034100364,0.147790978 0.238702548,-0.0568112065 0.545605824,0.147790978 L0.545605824,5.38785751 Z" id="path70"></path>
                        </g>
                        <g id="g72" transform="translate(23.669608, 26.111172)" fill="#041E42">
                            <path d="M6.0698648,4.70585023 L6.0698648,3.61034194 L0.017050182,0.034100364 C0.017050182,0.034100364 0.733157826,1.14236219 0.801358554,1.53451638 C1.7050182,2.06307202 6.0698648,4.70585023 6.0698648,4.70585023" id="path74"></path>
                        </g>
                        <path d="M18.4920477,31.6752259 C18.4920477,31.6752259 14.7637185,30.3567012 10.421651,27.0375764 L8.55745225,24.1731458 L10.7398755,24.7187517 C4.35178615,17.2621615 11.3082604,8.46426755 27.2331304,20.2629935 C27.2331304,20.2629935 27.5059333,22.1726139 27.8582583,23.5366284 C20.3789572,20.1947246 15.0138106,18.3987948 14.1831939,19.4728199 C13.8543982,20.103813 15.0501616,22.3487764 18.4693369,26.1054771 L18.4920477,31.6752259 Z" id="path78" fill="#FFB81C"></path>
                        <g id="g80" transform="translate(9.194004, 16.284606)" fill="#6E253C">
                            <path d="M1.63681747,10.2983099 L4.75134012,11.0257389 C-6.45635832,0.318224597 4.1496051,-4.79819402 17.6298882,6.126676 C2.27333487,-0.93209935 -0.738818487,2.45522621 9.25258817,12.2306412 L9.27529901,14.7881685 C9.27529901,14.7881685 4.53534841,12.8672268 1.63681747,10.2983099" id="path82"></path>
                        </g>
                        <g id="g84" transform="translate(9.910111, 25.127929)" fill="#041E42">
                            <polygon id="path86" points="0.886609464 1.15941238 2.95534215 1.58000627 1.92100991 0.409204368 0.034100364 0.0113895216"></polygon>
                        </g>
                        <g id="g88" transform="translate(13.058734, 19.308149)" fill="#041E42">
                            <path d="M5.38785751,8.72969319 C5.38785751,8.72969319 -1.79592977,2.09144353 0.454694254,0.0227108424 C0.454694254,0.0227108424 -0.136401456,2.15964425 5.38785751,7.52479093 L5.38785751,8.72969319 Z" id="path90"></path>
                        </g>
                        <g id="g92" transform="translate(9.296305, 15.079704)" fill="#041E42">
                            <path d="M17.80039,7.02467499 C16.8114795,5.72886115 5.08095424,-2.65982839 0.00716107644,2.48932657 C-0.068200728,2.01192148 3.68283931,-4.43304732 17.4593864,5.55835933 L17.80039,7.02467499 Z" id="path94"></path>
                        </g>
                        <g id="g96" transform="translate(1.669213, 31.652481)" fill="#020202">
                            <polygon id="path98" points="16.7773791 17.4593864 0.0227108424 17.4593864 0.0227108424 0.0227108424 15.2773041 2.79622985 20.96088 3.05259639 36.7147025 0.0227108424 36.7147025 17.4593864"></polygon>
                        </g>
                        <g id="g100" transform="translate(11.170058, 44.381547)" fill="#FFFFFF">
                            <polygon id="path102" points="1.15941238 2.25062403 1.77928879 2.88052595 1.77928879 3.27056591 1.23934363 3.84488424 0.599416199 3.84488424 0.0195736089 3.28052322 0.0195736089 0.560950988 0.569476079 0.0109803172 1.21936082 0.0109803172 1.77928879 0.580933801 1.77928879 1.55074815 1.15941238 0.95078635 1.15941238 0.755868669 1.07941292 0.650839548 0.729406786 0.650839548 0.654454186 0.730839002 0.654454186 3.09556284 0.709423973 3.1755623 1.08943843 3.1755623 1.15443372 3.110567"></polygon>
                        </g>
                        <g id="g104" transform="translate(13.149680, 44.343081)" fill="#FFFFFF">
                            <polygon id="path106" points="0 3.8874415 0.841733385 3.8874415 0.751640224 3.69702507 0.751640224 0.710719787 1.77376453 0.710719787 1.64350114 0.0594028341 0.0802040562 0.0594028341 0.0901613625 3.69702507"></polygon>
                        </g>
                        <g id="g108" transform="translate(19.560549, 35.408786)" fill="#FFFFFF">
                            <polygon id="path110" points="0 7.63848154 1.66573458 7.63848154 1.48738968 7.26167252 1.48738968 1.35207943 3.51001867 1.35207943 3.25221992 0.0630856734 0.158703094 0.0630856734 0.178481305 7.26167252"></polygon>
                        </g>
                        <g id="g112" transform="translate(20.856328, 44.343081)" fill="#FFFFFF">
                            <polygon id="path114" points="0 3.8874415 0.841801586 3.8874415 0.751640224 3.69702507 0.751640224 0.710719787 1.77376453 0.710719787 1.64350114 0.0594028341 0.0802040562 0.0594028341 0.0901613625 3.69702507"></polygon>
                        </g>
                        <g id="g116" transform="translate(15.025166, 44.343081)" fill="#FFFFFF">
                            <polygon id="path118" points="0 3.8874415 0.068950936 3.65112598 0.068950936 0.0667685127 1.5361532 0.0667685127 1.5361532 0.6182396 0.709014769 0.6182396 0.709014769 1.82941633 1.36872041 1.82941633 1.36872041 2.40052923 0.718835673 2.40052923 0.718835673 3.25726677 1.5361532 3.25726677 1.5361532 3.8874415"></polygon>
                        </g>
                        <g id="g120" transform="translate(25.732680, 35.067782)" fill="#FFFFFF">
                            <polygon id="path122" points="0 7.97948518 0.143767135 7.49696503 0.143767135 0.178344904 3.20468401 0.0419434477 3.20468401 1.37253965 1.47913739 1.44074038 1.47913739 3.77729732 2.85549628 3.77729732 2.85549628 4.94346157 1.49966581 4.94346157 1.49966581 6.69274204 3.20468401 6.69274204 3.20468401 7.97948518"></polygon>
                        </g>
                        <g id="g124" transform="translate(19.185410, 44.343081)" fill="#FFFFFF">
                            <polygon id="path126" points="0 3.8874415 0.068950936 3.65112598 0.068950936 0.0667685127 1.536085 0.0667685127 1.536085 0.6182396 0.709014769 0.6182396 0.709014769 1.82941633 1.36872041 1.82941633 1.36872041 2.40052923 0.718835673 2.40052923 0.718835673 3.25726677 1.536085 3.25726677 1.536085 3.8874415"></polygon>
                        </g>
                        <g id="g128" transform="translate(16.798385, 44.407183)" fill="#FFFFFF">
                            <polygon id="path130" points="0 3.81924077 0.67355039 3.81924077 1.0584071 0.730566199 1.47702317 3.81924077 2.13127275 3.81924077 1.5174662 0.023324649 0.822705382 0.023324649 0.466629381 0.485179979"></polygon>
                        </g>
                        <g id="g132" transform="translate(10.728520, 35.200085)" fill="#FFFFFF">
                            <polygon id="path134" points="0 7.84308372 1.38358817 7.84308372 2.17403461 1.4987792 3.03384119 7.84308372 4.37773653 7.84308372 3.1851786 0.0460354914 1.68980944 0.0460354914 0.890360505 0.994707618"></polygon>
                        </g>
                        <g id="g136" transform="translate(22.680902, 44.356701)" fill="#FFFFFF">
                            <path d="M0.886609464,1.43221529 L1.13076807,3.19615892 L1.37499488,1.43221529 L0.886609464,1.43221529 Z M1.65400406,3.87380135 L0.537899142,3.87380135 L0.587685673,3.65460421 L0.0395564223,0.0669049142 L0.697352444,0.0669049142 L0.796925507,0.814316693 L1.44476422,0.814316693 L1.54440549,0.0669049142 L2.22204792,0.0669049142 L1.65400406,3.87380135 Z" id="path138"></path>
                        </g>
                        <g id="g140" transform="translate(14.721495, 35.324299)" fill="#FFFFFF">
                            <path d="M1.77321893,2.86443058 L2.25908092,6.37444925 L2.7450793,2.86443058 L1.77321893,2.86443058 Z M3.30023323,7.72298224 L1.07927652,7.72298224 L1.17844038,7.28677039 L0.0195054082,0.0111849194 L1.39654631,0.0793856474 L1.59466942,1.63490785 L2.88386778,1.63490785 L3.0820591,0.147586375 L4.4305921,0.147586375 L3.30023323,7.72298224 Z" id="path142"></path>
                        </g>
                        <g id="g144" transform="translate(24.999522, 44.338983)" fill="#FFFFFF">
                            <polygon id="path146" points="0 3.8874415 0.069973947 3.69306942 0.069973947 0.0634948778 0.699944072 0.0634948778 0.699944072 2.09321674 1.29990588 0.0634948778 1.89973128 0.0634948778 1.89973128 3.8874415 1.23988924 3.8874415 1.23988924 1.97543409 0.649884737 3.8874415"></polygon>
                        </g>
                        <g id="g148" transform="translate(27.122741, 44.387773)" fill="#FFFFFF">
                            <path d="M1.2276131,0.750208008 L1.13799735,0.670549558 L0.669731149,0.670549558 L0.669731149,3.21075387 L1.12797184,3.21075387 L1.2276131,3.08124069 L1.2276131,0.750208008 Z M1.32725437,3.84277002 L0.0421480499,3.84277002 L0.0421480499,0.0329409516 L1.34716898,0.0329409516 L1.8551962,0.550993682 L1.8551962,3.2505831 L1.32725437,3.84277002 Z" id="path150"></path>
                        </g>
                        <g id="g152" transform="translate(2.350258, 33.015800)" fill="#FFFFFF">
                            <polygon id="path154" points="2.45522621 6.47906916 3.80225879 7.9723923 3.80225879 8.84849886 2.63609454 10.0631538 1.18860229 10.0631538 0.00463764951 8.76884041 0.00463764951 1.1427032 1.14836386 0.0220970359 2.61604353 0.286511258 3.80225879 1.68032954 3.80225879 4.12948588 2.43510699 2.59626531 2.43510699 1.83957824 2.27422148 1.6205857 1.53035614 1.56084186 1.32936859 1.75998799 1.34948781 8.39053097 1.53035614 8.62950632 2.27422148 8.62950632 2.45522621 8.49010403"></polygon>
                        </g>
                        <g id="g156" transform="translate(6.559853, 34.668099)" fill="#FFFFFF">
                            <path d="M1.77321893,3.20543422 L2.26576459,6.91978227 L2.71848102,3.24533164 L1.77321893,3.20543422 Z M3.29088973,8.41085478 L1.04101591,8.41085478 L1.16084459,7.95820655 L0.0425572543,0.0369647946 L1.41373289,0.210058242 L1.58689454,1.84755772 L2.90480541,1.94071992 L3.091198,0.343186063 L4.40917707,0.476245684 L3.29088973,8.41085478 Z" id="path158"></path>
                        </g>
                        <g id="g160" transform="translate(23.537272, 35.307283)" fill="#FFFFFF">
                            <polygon id="path162" points="0 7.774883 0.132786817 7.33676152 0.132786817 0.0987546542 1.47381773 0.0474677067 1.47381773 7.32339418 1.58000627 7.774883"></polygon>
                        </g>
                        <g id="g164" transform="translate(29.354112, 34.641630)" fill="#FFFFFF">
                            <path d="M2.65982839,5.66066043 L1.48895829,4.8623027 L1.48895829,7.05768414 L2.47364041,7.05768414 L2.65982839,6.83146233 L2.65982839,5.66066043 Z M4.00365554,7.17744462 L2.8194863,8.40151129 L0.0386698128,8.40151129 L0.145131149,7.90923843 L0.145131149,0.404975923 L1.48895829,0.298582787 L1.48895829,3.47850993 L1.83487239,3.73139823 L2.65982839,2.44076765 L2.65982839,0.165523167 L4.00365554,0.0457626885 L4.00365554,2.85317746 L2.89934935,4.37002985 L4.00365554,5.08852452 L4.00365554,7.17744462 Z" id="path166"></path>
                        </g>
                        <g id="g168" transform="translate(33.905978, 33.049068)" fill="#FFFFFF">
                            <polygon id="path170" points="2.72802912 10.025507 1.180691 10.025507 0.0300765211 8.80880603 0.0300765211 6.25632559 2.54293235 3.95523302 2.5296332 1.72015876 2.37099831 1.5086001 1.57741464 1.64077312 1.37915512 1.86563092 1.37915512 3.10879379 0.0300765211 4.08740603 0.0300765211 1.65400406 1.19399015 0.305061857 2.72802912 0.021824233 3.91390338 1.13827015 3.91390338 4.56358352 1.35262504 6.93089899 1.35262504 8.43847608 1.53785822 8.59724737 2.38422925 8.58401643 2.5296332 8.39878326 2.5296332 7.32762262 3.91390338 6.33571123 3.91390338 8.72948859"></polygon>
                        </g>
                    </g>
                </g>
            </g>
        </g>
    </g>
</svg>
