<?xml version="1.0" encoding="UTF-8"?>
<svg width="60px" height="60px" viewBox="0 0 60 60" version="1.1" xmlns="http://www.w3.org/2000/svg" xmlns:xlink="http://www.w3.org/1999/xlink">
    <title>CHI</title>
    <g id="Page-1" stroke="none" stroke-width="1" fill="none" fill-rule="evenodd">
        <g id="CHI">
            <path d="M54.1643154,23.0362979 C53.9551867,19.4213602 52.3419087,16.1649286 51.3858921,14.2230199 L51.26639,14.0138913 L50.8481328,13.1773768 L50.9377593,14.1035178 C51.0273859,15.3881651 51.3261411,19.8097419 50.0116183,22.349161 C48.3684647,25.7250946 43.5585062,25.3964639 41.9751037,25.3068373 L41.8854772,25.3068373 C39.2863071,25.1275842 30.8315353,24.828829 28.2323651,24.828829 C24.826556,24.8587046 21.0622407,25.1275842 18.0149378,25.3665884 C16.5211618,25.4860905 15.2365145,25.575717 14.3701245,25.6055925 C14.2804979,25.6055925 14.1908714,25.635468 14.0414938,25.635468 C9.79917012,26.0238647 7.11037344,24.769078 6.06473029,21.9010432 C5.4373444,20.1383876 5.4373444,16.6429369 5.4373444,14.9699228 L5.4373444,13.7749021 L5.10871369,14.3724124 C3.58330534,17.0865263 2.63724976,20.0874553 2.33029046,23.1856905 C2.03153527,28.5632838 4.83983402,30.5051925 6.96099585,31.4612091 C9.20165975,32.5068523 11.4721992,32.6562299 12.2190871,32.7159809 L12.2489627,32.7159809 C12.4170544,32.7408058 12.5870035,32.7508028 12.7568465,32.7458564 C13.0072742,32.7371771 13.2578717,32.7572249 13.5037344,32.8056075 C13.0854772,32.895234 12.5477178,32.9848606 12.0995851,33.0446116 C11.5917012,33.1641137 11.1136929,33.2238647 10.8746888,33.2836158 C10.366805,33.4031178 8.21576763,33.8811261 7.08049793,34.2993834 C6.12448133,34.6280141 5.04896266,35.1358979 5.01908714,35.1358979 L4.83983402,35.2255245 L4.98921162,35.4047776 C4.98921162,35.4047776 5.34771784,35.8827859 5.70622407,36.2711676 C7.17117494,37.5887122 9.12318198,38.2285367 11.0838174,38.0338232 C13.0854772,37.7948191 14.1908714,37.2869353 14.6091286,37.0778066 C14.8247204,37.8390185 15.0840729,38.5871509 15.3858921,39.3184705 C16.2821577,41.5591344 18.373444,45.8910846 19.1502075,47.3848606 C19.7775934,48.6097568 20.4049793,49.685288 20.8232365,50.4023029 L20.9726141,50.6711826 C20.8457465,51.0602936 20.5936254,51.3964552 20.2556017,51.6271992 C20.1958506,51.6869502 20.1659751,51.7467012 20.1062241,51.7765768 L20.0763485,51.8363402 L20.0763485,51.9259668 C20.046473,52.3143485 19.9568465,56.1085394 22.4962656,58.8570871 L22.5261411,58.8869627 L22.5560166,58.8869627 C23.8406639,59.3948465 25.4838174,59.9027303 28.1726141,59.9027303 C30.8912863,59.9027303 33.1917012,59.2454689 33.9983402,58.8570871 L34.0282158,58.8271967 L34.0580913,58.7973386 C35.8207469,56.7060523 36.6572614,53.5093593 36.6572614,52.3741021 L36.6572614,52.314351 L36.5975104,52.2546 L36.4780083,52.1350979 C36.0600866,51.7653017 35.76771,51.2745267 35.6414938,50.7309485 C35.8804979,50.3724274 36.2987552,49.4761768 36.6572614,48.7591643 C36.7830598,48.439587 36.9328653,48.1299891 37.1053942,47.8330232 C37.8522822,46.3392473 40.033195,41.6189154 40.9294606,39.408127 C41.4672199,37.9741021 41.7659751,37.2869651 41.9153527,36.98821 C42.3037344,37.1973386 43.3493776,37.6753469 45.3211618,37.8844755 C47.8605809,38.1234797 50.2804979,36.4504631 50.9676349,35.494434 C51.0871369,35.3450564 51.26639,35.1359278 51.2962656,35.1060523 L51.4456432,34.9267992 L51.2365145,34.8371726 C51.206639,34.8371726 51.146888,34.8072971 50.7286307,34.6579195 L49.3244813,34.2097867 L47.920332,33.7317784 C47.5319502,33.6122763 45.7991701,33.2238946 44.5742739,32.9550149 L43.6182573,32.7458863 L43.9170124,32.6861353 C46.8448133,32.0587021 54.6124481,30.7142963 54.1643154,23.0362979 Z" id="Shape" fill="#000000" fill-rule="nonzero"></path>
            <path d="M5.13858921,15.2686581 C5.04896266,17.2703178 5.07883817,19.4512307 5.52697095,21.3632639 C5.12110265,20.9321519 4.69226325,20.5232585 4.24232365,20.1383676 C3.82406639,20.5865004 3.46556017,21.0645087 3.0473029,21.482766 C3.47731482,19.3308949 4.18008268,17.2426704 5.13858921,15.2686581 L5.13858921,15.2686581 Z" id="Shape" fill="#CE1141" fill-rule="nonzero"></path>
            <path d="M5.13858921,15.2686581 C5.04896266,17.2703178 5.07883817,19.4512307 5.52697095,21.3632639 C5.12110265,20.9321519 4.69226325,20.5232585 4.24232365,20.1383676 C3.82406639,20.5865004 3.46556017,21.0645087 3.0473029,21.482766 C3.47731482,19.3308949 4.18008268,17.2426704 5.13858921,15.2686581 L5.13858921,15.2686581 Z" id="Shape" stroke="#CE1141" stroke-width="0.24"></path>
            <path d="M53.3875519,20.5864979 L53.5070539,21.1242573 L52.4614108,20.3773693 C51.9834025,20.5864979 51.5352697,20.8852531 51.0871369,21.0943817 C51.4129219,19.1305005 51.5131575,17.1358161 51.3858921,15.1491685 C52.3120332,16.8520581 52.819917,18.7043402 53.3875519,20.5864979 Z" id="Shape" fill="#CE1141" fill-rule="nonzero"></path>
            <path d="M53.3875519,20.5864979 L53.5070539,21.1242573 L52.4614108,20.3773693 C51.9834025,20.5864979 51.5352697,20.8852531 51.0871369,21.0943817 C51.4129219,19.1305005 51.5131575,17.1358161 51.3858921,15.1491685 C52.3120332,16.8520581 52.819917,18.7043402 53.3875519,20.5864979 Z" id="Shape" stroke="#CE1141" stroke-width="0.24"></path>
            <path d="M28.2921162,39.5275817 C29.3676349,41.2006108 31.3692946,41.6786191 33.2215768,41.2006108 C33.9030936,41.0482171 34.5647362,40.8176447 35.193361,40.5134739 C34.5503085,42.3356548 34.2367046,44.2577436 34.2672199,46.1898224 C34.2727385,47.8653702 34.5450273,49.5293511 35.0738589,51.1192656 C34.8049793,51.0595145 34.5659751,50.8503859 34.2672199,50.7308988 C30.5925311,48.8786017 25.4240664,48.9383676 21.8091286,50.8504008 C21.9883817,50.282766 22.1676349,49.6255046 22.3170124,49.0279942 C22.8547718,46.249571 22.46639,43.3516456 21.5103734,40.8122266 C23.4522822,41.6188656 26.2904564,41.7981187 27.8738589,40.0055876 C27.9981246,39.833604 28.1381493,39.6735766 28.2921162,39.5275817 Z" id="Shape" fill="#CE1141" fill-rule="nonzero"></path>
            <path d="M28.2921162,39.5275817 C29.3676349,41.2006108 31.3692946,41.6786191 33.2215768,41.2006108 C33.9030936,41.0482171 34.5647362,40.8176447 35.193361,40.5134739 C34.5503085,42.3356548 34.2367046,44.2577436 34.2672199,46.1898224 C34.2727385,47.8653702 34.5450273,49.5293511 35.0738589,51.1192656 C34.8049793,51.0595145 34.5659751,50.8503859 34.2672199,50.7308988 C30.5925311,48.8786017 25.4240664,48.9383676 21.8091286,50.8504008 C21.9883817,50.282766 22.1676349,49.6255046 22.3170124,49.0279942 C22.8547718,46.249571 22.46639,43.3516456 21.5103734,40.8122266 C23.4522822,41.6188656 26.2904564,41.7981187 27.8738589,40.0055876 C27.9981246,39.833604 28.1381493,39.6735766 28.2921162,39.5275817 Z" id="Shape" stroke="#CE1141" stroke-width="0.24"></path>
            <path d="M20.1062241,40.9018606 C20.0165975,41.6786241 19.7477178,42.5748896 18.9112033,42.8736448 C18.2240664,43.0528979 17.626556,42.6645162 17.1784232,42.1865079 C16.970358,41.9591835 16.826067,41.680908 16.760166,41.3798689 C17.8058091,42.0669934 19.180083,41.5292465 20.0763485,40.8719851 L20.1062241,40.9018606 Z" id="Shape" fill="#CE1141" fill-rule="nonzero"></path>
            <path d="M20.1062241,40.9018606 C20.0165975,41.6786241 19.7477178,42.5748896 18.9112033,42.8736448 C18.2240664,43.0528979 17.626556,42.6645162 17.1784232,42.1865079 C16.970358,41.9591835 16.826067,41.680908 16.760166,41.3798689 C17.8058091,42.0669934 19.180083,41.5292465 20.0763485,40.8719851 L20.1062241,40.9018606 Z" id="Shape" stroke="#CE1141" stroke-width="0.24"></path>
            <path d="M39.7941909,40.9914822 C39.5551867,41.7084946 38.9278008,42.4255071 38.2107884,42.5748846 C37.6610052,42.6600543 37.1153079,42.3990686 36.8365145,41.9176232 C36.6485837,41.6537418 36.5350764,41.3441764 36.5078838,41.0213577 C37.4340249,41.7682456 38.8979253,41.5889851 39.7941909,40.9914822 Z" id="Shape" fill="#CE1141" fill-rule="nonzero"></path>
            <path d="M39.7941909,40.9914822 C39.5551867,41.7084946 38.9278008,42.4255071 38.2107884,42.5748846 C37.6610052,42.6600543 37.1153079,42.3990686 36.8365145,41.9176232 C36.6485837,41.6537418 36.5350764,41.3441764 36.5078838,41.0213577 C37.4340249,41.7682456 38.8979253,41.5889851 39.7941909,40.9914822 Z" id="Shape" stroke="#CE1141" stroke-width="0.24"></path>
            <path d="M37.7626556,43.02301 C38.1573376,43.062059 38.5557341,43.0109825 38.9278008,42.8736324 C37.8821577,45.4728174 36.6273859,47.9823461 35.3427386,50.4918896 C34.8946058,49.2371178 35.0141079,47.8927195 35.0738589,46.4885701 C35.2732998,44.8537844 35.6335511,43.242665 36.1493776,41.6786241 C36.5078838,42.276122 37.0755187,42.9034979 37.7626556,43.02301 Z" id="Shape" fill="#CE1141" fill-rule="nonzero"></path>
            <path d="M37.7626556,43.02301 C38.1573376,43.062059 38.5557341,43.0109825 38.9278008,42.8736324 C37.8821577,45.4728174 36.6273859,47.9823461 35.3427386,50.4918896 C34.8946058,49.2371178 35.0141079,47.8927195 35.0738589,46.4885701 C35.2732998,44.8537844 35.6335511,43.242665 36.1493776,41.6786241 C36.5078838,42.276122 37.0755187,42.9034979 37.7626556,43.02301 Z" id="Shape" stroke="#CE1141" stroke-width="0.24"></path>
            <path d="M21.4207469,50.4620166 L21.4207469,50.4918921 C19.8373444,48.1018506 18.6423237,45.5624315 17.5070539,43.0230124 C18.0149378,43.2918921 18.8813278,43.4711452 19.4190871,43.112639 C19.9014965,42.7352486 20.2476349,42.2107964 20.4049793,41.6188631 C21.6896266,44.1881552 21.9883817,47.5342133 21.4207469,50.4620166 Z" id="Shape" fill="#CE1141" fill-rule="nonzero"></path>
            <path d="M21.4207469,50.4620166 L21.4207469,50.4918921 C19.8373444,48.1018506 18.6423237,45.5624315 17.5070539,43.0230124 C18.0149378,43.2918921 18.8813278,43.4711452 19.4190871,43.112639 C19.9014965,42.7352486 20.2476349,42.2107964 20.4049793,41.6188631 C21.6896266,44.1881552 21.9883817,47.5342133 21.4207469,50.4620166 Z" id="Shape" stroke="#CE1141" stroke-width="0.24"></path>
            <path d="M36.1493776,52.4935444 C35.9409034,54.6799088 35.0765659,56.7522359 33.6697095,58.4387726 C30.413278,59.7234199 26.0215768,59.842922 22.7651452,58.4686481 C21.1518672,56.735868 20.5543568,54.4952041 20.4647303,52.1051627 C23.9302905,49.5956191 29.3377593,49.0279842 33.3112033,50.8205154 C34.2970954,51.2985286 35.2829876,51.776532 36.1493776,52.4935444 Z" id="Shape" fill="#CE1141" fill-rule="nonzero"></path>
            <path d="M36.1493776,52.4935444 C35.9409034,54.6799088 35.0765659,56.7522359 33.6697095,58.4387726 C30.413278,59.7234199 26.0215768,59.842922 22.7651452,58.4686481 C21.1518672,56.735868 20.5543568,54.4952041 20.4647303,52.1051627 C23.9302905,49.5956191 29.3377593,49.0279842 33.3112033,50.8205154 C34.2970954,51.2985286 35.2829876,51.776532 36.1493776,52.4935444 Z" id="Shape" stroke="#CE1141" stroke-width="0.24"></path>
            <path d="M49.5634855,34.5084846 C46.6158335,33.4582107 43.5199071,32.883397 40.3917012,32.8055801 C40.1228216,29.4893975 39.7344398,27.4279867 39.0771784,25.545829 C37.553527,25.4562025 30.8016598,25.1873378 28.1726141,25.1873378 C25.573444,25.1873378 18.9112033,25.6055776 17.4174274,25.6952216 C16.566471,28.0363739 16.0143908,30.4755645 15.7742739,32.9549726 C12.45138,33.2115534 9.17675004,33.9046499 6.03485477,35.0163834 C5.61659751,35.165761 5.4373444,35.3151386 5.4373444,35.2852631 C6.57971478,36.7370123 8.31085473,37.6025823 10.1576763,37.645429 C11.0539419,37.6753046 12.7568465,37.4960515 13.8323651,37.0180432 C14.1311203,36.8985411 14.7286307,36.6296614 14.7286307,36.6296614 C14.8452897,36.8302236 14.9452133,37.0400631 15.0273859,37.2570473 C15.3261411,38.0935618 15.7145228,39.3184581 15.9834025,39.8263295 C16.3717842,40.6329685 16.9991701,41.2304788 18.0149378,41.2603544 C18.6857123,41.2227756 19.3071002,40.8957293 19.7178423,40.3640888 C17.0887967,40.2147112 15.9834025,38.8105618 15.8041494,36.6894 C15.1767635,36.5997734 14.9975104,36.5400224 14.9377593,36.1815162 C14.8595741,35.8007837 14.9584838,35.4051449 15.206639,35.1059975 C15.5053942,34.6877402 16.013278,34.2993585 17.2680498,34.6877402 C17.9822094,34.9655381 18.6401357,35.3704159 19.2099585,35.882761 C19.7477178,36.3906448 21.3311203,38.0337983 22.2871369,38.5715577 C23.3029046,39.169068 25.2448133,39.7367029 26.4995851,38.4819311 C27.2978994,37.7272679 27.8232699,36.7290639 27.993361,35.6437568 C26.0133585,35.5899828 24.0381988,35.4203984 22.0780083,35.135873 C21.540249,35.0462465 21.7792531,34.5383627 22.1975104,34.6578647 C22.1975104,34.6578647 25.633195,35.1059975 28.0829876,35.135873 C28.0829876,34.8371178 28.0829876,34.3591095 28.1128631,33.7914747 C26.0478925,33.74794 23.9897841,33.5381328 21.9585062,33.1640888 C21.5103734,33.0445867 21.6,32.5367029 22.0182573,32.656205 C24.0348364,32.986177 26.0705959,33.1857613 28.1128631,33.2537154 C28.1128631,32.8354581 28.1427386,32.2080722 28.1427386,31.6404373 C26.1206029,31.6104171 24.1034674,31.4306723 22.1078838,31.102678 C21.6,31.0130515 21.7195021,30.5649187 22.1078838,30.6246697 C24.1088532,30.8979152 26.1237038,31.0575073 28.1427386,31.102678 L28.1427386,29.7582797 C28.1427386,29.2503959 28.5908714,29.2205203 28.5908714,29.7284041 L28.5908714,31.0728025 C30.4932348,31.0265091 32.3900071,30.8468149 34.2672199,30.5350432 C34.8647303,30.4155411 34.8049793,30.9234249 34.5360996,30.9533004 C32.5744566,31.3315289 30.5870742,31.5612264 28.5908714,31.6404373 L28.5908714,33.2537154 C30.413278,33.1939643 32.5643154,33.1342133 34.386722,32.715956 C35.0738589,32.5665784 35.13361,33.1043228 34.5659751,33.1939643 C32.6002541,33.5290488 30.6138346,33.728689 28.6207469,33.7914747 C28.6207469,34.2396075 28.6207469,34.8072423 28.6506224,35.135873 C30.7204754,35.0725434 32.7851378,34.8930075 34.8348548,34.5981137 C35.3128631,34.5084871 35.4024896,35.0163834 34.8946058,35.1059975 C34.386722,35.1657485 30.9510373,35.6138813 28.740249,35.6736324 C28.9792531,36.4205203 29.0091286,37.4960266 30.0846473,38.4221801 C31.1004149,39.3184456 32.8630705,39.2288191 34.0879668,38.5118066 C35.0439834,37.9441718 36.5676349,36.3010183 37.1053942,35.7931344 C37.553527,35.4047527 38.6290456,34.4188606 40.0630705,34.4487361 C41.4672199,34.4786116 41.4970954,35.1956241 41.586722,35.4047527 C41.646473,35.6437568 41.7062241,36.0321386 41.3775934,36.2412672 C41.1385892,36.3906448 40.8995851,36.3308938 40.6605809,36.4503959 C40.4813278,37.6155411 40.1228216,38.9300639 39.1966805,39.6172008 C38.2107884,40.3640888 36.6871369,40.4537154 36.6871369,40.4537154 C36.6871369,40.4537154 36.8962656,40.6927195 36.9560166,40.7524705 C37.354571,41.0366134 37.8437227,41.1642182 38.3302905,41.1109768 C38.9644534,41.0030649 39.549233,40.7002326 40.0033195,40.2445867 C40.4813278,39.6172008 40.9294606,38.3325411 41.2580913,37.496039 C41.3775934,37.1972838 41.6763485,36.629649 41.7659751,36.3906448 C42.0647303,36.5101469 42.1842324,36.5997734 42.7219917,36.8089021 C43.8196952,37.221474 44.9851349,37.4241591 46.1576763,37.4064124 C47.6215768,37.3765369 49.2946058,36.4802714 50.2804979,35.5541303 C50.4298755,35.4047527 50.7883817,34.9864954 50.7883817,34.9864954 C50.7883817,34.9864954 49.8323651,34.5981087 49.5634855,34.5084846 Z" id="Shape" fill="#CE1141" fill-rule="nonzero"></path>
            <path d="M49.5634855,34.5084846 C46.6158335,33.4582107 43.5199071,32.883397 40.3917012,32.8055801 C40.1228216,29.4893975 39.7344398,27.4279867 39.0771784,25.545829 C37.553527,25.4562025 30.8016598,25.1873378 28.1726141,25.1873378 C25.573444,25.1873378 18.9112033,25.6055776 17.4174274,25.6952216 C16.566471,28.0363739 16.0143908,30.4755645 15.7742739,32.9549726 C12.45138,33.2115534 9.17675004,33.9046499 6.03485477,35.0163834 C5.61659751,35.165761 5.4373444,35.3151386 5.4373444,35.2852631 C6.57971478,36.7370123 8.31085473,37.6025823 10.1576763,37.645429 C11.0539419,37.6753046 12.7568465,37.4960515 13.8323651,37.0180432 C14.1311203,36.8985411 14.7286307,36.6296614 14.7286307,36.6296614 C14.8452897,36.8302236 14.9452133,37.0400631 15.0273859,37.2570473 C15.3261411,38.0935618 15.7145228,39.3184581 15.9834025,39.8263295 C16.3717842,40.6329685 16.9991701,41.2304788 18.0149378,41.2603544 C18.6857123,41.2227756 19.3071002,40.8957293 19.7178423,40.3640888 C17.0887967,40.2147112 15.9834025,38.8105618 15.8041494,36.6894 C15.1767635,36.5997734 14.9975104,36.5400224 14.9377593,36.1815162 C14.8595741,35.8007837 14.9584838,35.4051449 15.206639,35.1059975 C15.5053942,34.6877402 16.013278,34.2993585 17.2680498,34.6877402 C17.9822094,34.9655381 18.6401357,35.3704159 19.2099585,35.882761 C19.7477178,36.3906448 21.3311203,38.0337983 22.2871369,38.5715577 C23.3029046,39.169068 25.2448133,39.7367029 26.4995851,38.4819311 C27.2978994,37.7272679 27.8232699,36.7290639 27.993361,35.6437568 C26.0133585,35.5899828 24.0381988,35.4203984 22.0780083,35.135873 C21.540249,35.0462465 21.7792531,34.5383627 22.1975104,34.6578647 C22.1975104,34.6578647 25.633195,35.1059975 28.0829876,35.135873 C28.0829876,34.8371178 28.0829876,34.3591095 28.1128631,33.7914747 C26.0478925,33.74794 23.9897841,33.5381328 21.9585062,33.1640888 C21.5103734,33.0445867 21.6,32.5367029 22.0182573,32.656205 C24.0348364,32.986177 26.0705959,33.1857613 28.1128631,33.2537154 C28.1128631,32.8354581 28.1427386,32.2080722 28.1427386,31.6404373 C26.1206029,31.6104171 24.1034674,31.4306723 22.1078838,31.102678 C21.6,31.0130515 21.7195021,30.5649187 22.1078838,30.6246697 C24.1088532,30.8979152 26.1237038,31.0575073 28.1427386,31.102678 L28.1427386,29.7582797 C28.1427386,29.2503959 28.5908714,29.2205203 28.5908714,29.7284041 L28.5908714,31.0728025 C30.4932348,31.0265091 32.3900071,30.8468149 34.2672199,30.5350432 C34.8647303,30.4155411 34.8049793,30.9234249 34.5360996,30.9533004 C32.5744566,31.3315289 30.5870742,31.5612264 28.5908714,31.6404373 L28.5908714,33.2537154 C30.413278,33.1939643 32.5643154,33.1342133 34.386722,32.715956 C35.0738589,32.5665784 35.13361,33.1043228 34.5659751,33.1939643 C32.6002541,33.5290488 30.6138346,33.728689 28.6207469,33.7914747 C28.6207469,34.2396075 28.6207469,34.8072423 28.6506224,35.135873 C30.7204754,35.0725434 32.7851378,34.8930075 34.8348548,34.5981137 C35.3128631,34.5084871 35.4024896,35.0163834 34.8946058,35.1059975 C34.386722,35.1657485 30.9510373,35.6138813 28.740249,35.6736324 C28.9792531,36.4205203 29.0091286,37.4960266 30.0846473,38.4221801 C31.1004149,39.3184456 32.8630705,39.2288191 34.0879668,38.5118066 C35.0439834,37.9441718 36.5676349,36.3010183 37.1053942,35.7931344 C37.553527,35.4047527 38.6290456,34.4188606 40.0630705,34.4487361 C41.4672199,34.4786116 41.4970954,35.1956241 41.586722,35.4047527 C41.646473,35.6437568 41.7062241,36.0321386 41.3775934,36.2412672 C41.1385892,36.3906448 40.8995851,36.3308938 40.6605809,36.4503959 C40.4813278,37.6155411 40.1228216,38.9300639 39.1966805,39.6172008 C38.2107884,40.3640888 36.6871369,40.4537154 36.6871369,40.4537154 C36.6871369,40.4537154 36.8962656,40.6927195 36.9560166,40.7524705 C37.354571,41.0366134 37.8437227,41.1642182 38.3302905,41.1109768 C38.9644534,41.0030649 39.549233,40.7002326 40.0033195,40.2445867 C40.4813278,39.6172008 40.9294606,38.3325411 41.2580913,37.496039 C41.3775934,37.1972838 41.6763485,36.629649 41.7659751,36.3906448 C42.0647303,36.5101469 42.1842324,36.5997734 42.7219917,36.8089021 C43.8196952,37.221474 44.9851349,37.4241591 46.1576763,37.4064124 C47.6215768,37.3765369 49.2946058,36.4802714 50.2804979,35.5541303 C50.4298755,35.4047527 50.7883817,34.9864954 50.7883817,34.9864954 C50.7883817,34.9864954 49.8323651,34.5981087 49.5634855,34.5084846 Z" id="Shape" stroke="#CE1141" stroke-width="0.24"></path>
            <path d="M33.8190871,52.852068 C34.0879668,53.359932 33.8788382,53.9275743 33.580083,54.3757195 C33.037349,55.051521 32.1474858,55.3442391 31.3095436,55.1226075 C30.7934228,54.9584224 30.3500583,54.6206209 30.0547718,54.1665909 C29.9352697,54.5848481 30.2340249,54.8836033 30.2041494,55.2719851 C30.1787492,55.3107899 30.1375808,55.3364737 30.0915602,55.3422263 C30.0455396,55.3479789 29.9993158,55.3332191 29.9651452,55.3018606 C29.4871369,54.6744747 29.3078838,53.7184581 29.7261411,53.0313212 C30.2340249,52.0753046 31.219917,51.6869228 32.2655602,51.7765494 C32.9256617,51.8658311 33.5031637,52.2656402 33.8190871,52.852068 L33.8190871,52.852068 Z" id="Shape" fill="#000000" fill-rule="nonzero"></path>
            <path d="M33.8190871,52.852068 C34.0879668,53.359932 33.8788382,53.9275743 33.580083,54.3757195 C33.037349,55.051521 32.1474858,55.3442391 31.3095436,55.1226075 C30.7934228,54.9584224 30.3500583,54.6206209 30.0547718,54.1665909 C29.9352697,54.5848481 30.2340249,54.8836033 30.2041494,55.2719851 C30.1787492,55.3107899 30.1375808,55.3364737 30.0915602,55.3422263 C30.0455396,55.3479789 29.9993158,55.3332191 29.9651452,55.3018606 C29.4871369,54.6744747 29.3078838,53.7184581 29.7261411,53.0313212 C30.2340249,52.0753046 31.219917,51.6869228 32.2655602,51.7765494 C32.9256617,51.8658311 33.5031637,52.2656402 33.8190871,52.852068 L33.8190871,52.852068 Z" id="Shape" stroke="#CE1141" stroke-width="0.24"></path>
            <path d="M26.6190871,53.1806838 C27.0373444,53.8678207 26.8282158,54.7640863 26.439834,55.4213477 C26.380083,55.5109743 26.2904564,55.6006008 26.1709544,55.5109743 C25.9917012,55.3018456 26.2307054,55.1226075 26.2605809,54.9134639 C26.315063,54.7394769 26.3253308,54.5546558 26.2904564,54.3757046 C25.7743459,55.1330057 24.8630739,55.5185439 23.960166,55.3615967 C23.284278,55.1991943 22.728136,54.7209122 22.46639,54.0769494 C22.3411722,53.6622983 22.4068594,53.2134357 22.6456432,52.8520531 C23.273029,52.0155386 24.4082988,51.8362855 25.3344398,52.1350556 C25.876279,52.314475 26.3334069,52.6865505 26.6190871,53.1806838 L26.6190871,53.1806838 Z" id="Shape" fill="#000000" fill-rule="nonzero"></path>
            <path d="M26.6190871,53.1806838 C27.0373444,53.8678207 26.8282158,54.7640863 26.439834,55.4213477 C26.380083,55.5109743 26.2904564,55.6006008 26.1709544,55.5109743 C25.9917012,55.3018456 26.2307054,55.1226075 26.2605809,54.9134639 C26.315063,54.7394769 26.3253308,54.5546558 26.2904564,54.3757046 C25.7743459,55.1330057 24.8630739,55.5185439 23.960166,55.3615967 C23.284278,55.1991943 22.728136,54.7209122 22.46639,54.0769494 C22.3411722,53.6622983 22.4068594,53.2134357 22.6456432,52.8520531 C23.273029,52.0155386 24.4082988,51.8362855 25.3344398,52.1350556 C25.876279,52.314475 26.3334069,52.6865505 26.6190871,53.1806838 L26.6190871,53.1806838 Z" id="Shape" stroke="#CE1141" stroke-width="0.24"></path>
            <path d="M33.7593361,57.6918871 C33.6995851,57.8412647 33.6697095,57.8412647 33.5502075,57.9906423 C33.2215768,57.9010158 32.8630705,57.7815137 32.5045643,57.6620116 C29.5170124,56.4968664 25.7228216,56.8254971 22.9145228,57.9906423 C22.8224671,57.9273535 22.7582841,57.831079 22.7352697,57.7217627 C25.9917012,56.2578598 30.473029,56.0786141 33.7593361,57.6918871 Z" id="Shape" fill="#000000" fill-rule="nonzero"></path>
            <path d="M33.7593361,57.6918871 C33.6995851,57.8412647 33.6697095,57.8412647 33.5502075,57.9906423 C33.2215768,57.9010158 32.8630705,57.7815137 32.5045643,57.6620116 C29.5170124,56.4968664 25.7228216,56.8254971 22.9145228,57.9906423 C22.8224671,57.9273535 22.7582841,57.831079 22.7352697,57.7217627 C25.9917012,56.2578598 30.473029,56.0786141 33.7593361,57.6918871 Z" id="Shape" stroke="#CE1141" stroke-width="0.24"></path>
            <path d="M34.2970954,41.8279942 C33.8190871,44.1881602 32.3253112,46.9068324 29.8157676,47.5939693 C27.8439834,48.1018531 25.633195,47.6835959 24.2887967,46.0404423 C23.361332,44.8550091 22.8098708,43.4191291 22.7053942,41.9176207 C22.7971546,41.8693697 22.9008894,41.8486228 23.0041494,41.8578697 C23.213278,44.0985336 24.3784232,46.5483261 26.6190871,47.2354631 C28.6512309,47.8809072 30.8718474,47.2312588 32.2356846,45.5923095 C33.1020052,44.4432621 33.703888,43.1170798 33.9983402,41.7084921 C34.1106273,41.7026116 34.2198397,41.7462966 34.2970954,41.8279942 L34.2970954,41.8279942 Z" id="Shape" fill="#000000" fill-rule="nonzero"></path>
            <path d="M34.2970954,41.8279942 C33.8190871,44.1881602 32.3253112,46.9068324 29.8157676,47.5939693 C27.8439834,48.1018531 25.633195,47.6835959 24.2887967,46.0404423 C23.361332,44.8550091 22.8098708,43.4191291 22.7053942,41.9176207 C22.7971546,41.8693697 22.9008894,41.8486228 23.0041494,41.8578697 C23.213278,44.0985336 24.3784232,46.5483261 26.6190871,47.2354631 C28.6512309,47.8809072 30.8718474,47.2312588 32.2356846,45.5923095 C33.1020052,44.4432621 33.703888,43.1170798 33.9983402,41.7084921 C34.1106273,41.7026116 34.2198397,41.7462966 34.2970954,41.8279942 L34.2970954,41.8279942 Z" id="Shape" stroke="#CE1141" stroke-width="0.24"></path>
            <path d="M4.92946058,0.599783402 C4.45265408,0.201421265 3.84773645,-0.0108305354 3.22655602,0.00227302905 C2.53941909,0.0321410788 0,0.898526141 0,4.66284149 C0,8.45704481 2.30041494,9.68192863 3.6746888,9.68192863 C5.04896266,9.68192863 6.45311203,8.63628548 6.90124481,6.78400332 C6.96099585,6.51512365 6.93112033,6.48524813 6.66224066,6.36574606 L5.7659751,6.00723983 C5.55684647,5.9474888 5.52697095,5.9474888 5.40746888,6.30599502 C5.31784232,6.57487469 4.92946058,7.65039336 4.0033195,7.65039336 C3.07717842,7.65039336 2.68879668,6.30599502 2.68879668,4.87197012 C2.68879668,3.46782075 2.92780083,2.12342241 4.06307054,2.12342241 C5.19834025,2.12342241 5.4373444,3.31844315 5.52697095,3.76657593 C5.55684647,3.97570456 5.58672199,3.97570456 5.79585062,3.97570456 L6.63236515,3.97570456 C6.81161826,3.97570456 6.81161826,3.97570456 6.81161826,3.58732282 L6.81161826,0.48026888 C6.81161826,0.301015768 6.78174274,0.301015768 6.42323651,0.301015768 L5.67634855,0.301015768 C5.52697095,0.301015768 5.52697095,0.330891286 5.4373444,0.540019917 C5.34771784,0.65953195 5.16846473,0.838777593 4.92946058,0.599783402 Z" id="Shape" fill="#000000" fill-rule="nonzero"></path>
            <path d="M39.0174274,2.12343485 L40.7502075,7.59065477 C40.839834,7.82965892 40.839834,7.85953444 40.9892116,7.85953444 L41.2282158,7.85953444 C41.526971,7.85953444 41.526971,7.85953444 41.526971,8.09853859 L41.526971,9.14418174 C41.526971,9.50268797 41.4970954,9.50268797 41.3178423,9.50268797 L37.8821577,9.50268797 C37.5834025,9.50268797 37.5834025,9.47281245 37.5834025,9.26368382 L37.5834025,8.18816515 C37.5834025,7.85953444 37.613278,7.85953444 37.8522822,7.85953444 L38.1809129,7.85953444 C38.360166,7.85953444 38.360166,7.7997834 38.3004149,7.59065477 L38.0315353,6.75414025 C37.9419087,6.60476266 37.9120332,6.60476266 37.7029046,6.60476266 L35.6116183,6.60476266 L36.059751,5.34999087 L37.3443983,5.34999087 C37.553527,5.34999087 37.5834025,5.32011535 37.5236515,5.17073776 L36.746888,2.75082075 C36.7170124,2.60144315 36.6572614,2.60144315 36.6273859,2.72094523 L35.8506224,5.17073776 C35.7908714,5.34999087 35.7908714,5.34999087 36.0896266,5.34999087 L35.6414938,6.60476266 C35.4024896,6.60476266 35.4024896,6.60476266 35.3427386,6.75414025 L35.0738589,7.59065477 C35.0141079,7.82965892 35.0141079,7.85953444 35.1634855,7.85953444 L35.4921162,7.85953444 C35.7609959,7.85953444 35.7609959,7.88940996 35.7609959,8.18816515 L35.7609959,9.26368382 C35.7609959,9.47281245 35.7311203,9.50268797 35.4622407,9.50268797 L33.1020747,9.50268797 C32.8929461,9.50268797 32.8929461,9.47281245 32.8929461,9.14418174 L32.8929461,8.09853859 C32.8929461,7.88940996 32.9228216,7.85953444 33.1618257,7.85953444 L33.4008299,7.85953444 C33.4564013,7.86815741 33.5131013,7.8539944 33.5580904,7.82025253 C33.6030796,7.78651066 33.6325521,7.73604432 33.639834,7.68028133 L35.4024896,2.15331037 C35.4622407,2.00393278 35.4622407,1.97405726 35.193361,1.97405726 L34.8647303,1.97405726 C34.5958506,1.97405726 34.5958506,1.94418174 34.5958506,1.73505311 L34.5958506,0.629658921 C34.5958506,0.301028216 34.5958506,0.301028216 34.9842324,0.301028216 L39.5551867,0.301028216 C39.8240664,0.301028216 39.8240664,0.330903734 39.8240664,0.629658921 L39.8240664,1.67530207 C39.8240664,1.91430622 39.8240664,1.91430622 39.4954357,1.91430622 L39.1369295,1.91430622 C38.9576763,1.88442324 38.9576763,1.94417178 39.0174274,2.12343485 Z" id="Shape" fill="#000000" fill-rule="nonzero"></path>
            <path d="M47.2929461,6.27612946 L47.8904564,6.27612946 C48.1593361,6.27612946 48.1593361,6.30600498 48.1593361,6.45538257 C48.1593361,6.99314191 47.7709544,7.65040332 46.7850622,7.65040332 C45.8589212,7.65040332 45.4705394,6.30600498 45.4705394,4.87198008 C45.4705394,3.46783071 45.7095436,2.12343237 46.8448133,2.12343237 C47.5315736,2.10316796 48.1402103,2.56275072 48.3087137,3.22882656 C48.3385892,3.43795519 48.3385892,3.43795519 48.5775934,3.43795519 L49.4141079,3.43795519 C49.593361,3.43795519 49.593361,3.43795519 49.593361,3.01969793 L49.593361,0.480278838 C49.593361,0.301025726 49.5634855,0.301025726 49.2049793,0.301025726 L48.4580913,0.301025726 C48.3087137,0.301025726 48.3087137,0.301025726 48.1892116,0.540029876 C48.1593361,0.65953195 47.9502075,0.838785062 47.7112033,0.599793361 C47.2318665,0.205905332 46.6286592,-0.00574637685 46.0082988,0.00228298755 C45.3211618,0.0321585062 42.7817427,0.898548548 42.7817427,4.6628639 C42.7817427,8.45706722 45.0522822,9.68195104 46.4564315,9.68195104 C48.5477178,9.68195104 50.1609959,8.09854855 50.1609959,5.11099668 C50.1609959,4.81224149 50.1311203,4.78236598 49.7128631,4.78236598 L47.233195,4.78236598 C46.9941909,4.78236598 46.9643154,4.81224149 46.9643154,5.08112116 L46.9643154,6.06701328 C46.9643154,6.27612946 46.9941909,6.27612946 47.2929461,6.27612946 Z" id="Shape" fill="#000000" fill-rule="nonzero"></path>
            <path d="M55.3294606,0.241277178 C53.0589212,0.241277178 51.2365145,2.39231452 51.2365145,4.99148465 C51.2365145,7.62053029 53.0589212,9.7118166 55.3294606,9.7118166 C57.5701245,9.7118166 59.3925311,7.62053029 59.3925311,4.99148465 C59.3925311,2.39231452 57.5701245,0.241277178 55.3294606,0.241277178 L55.2995851,1.94418174 C56.1360996,1.94418174 56.8232365,3.3184556 56.8232365,4.99148465 C56.8232365,6.66451369 56.1659751,8.03878755 55.2995851,8.03878755 C54.4630705,8.03878755 53.7759336,6.66451369 53.7759336,4.99148465 C53.7759336,3.3184556 54.4630705,1.94418174 55.2995851,1.94418174 L55.3294606,0.241277178 Z" id="Shape" fill="#000000" fill-rule="nonzero"></path>
            <path d="M9.47053942,7.65039336 L9.47053942,2.18317344 C9.47053942,1.97404481 9.4406639,1.94416929 9.23153527,1.94416929 L8.9626556,1.94416929 C8.69377593,1.94416929 8.69377593,1.91429378 8.69377593,1.73504066 L8.69377593,0.540019917 C8.69377593,0.330891286 8.72365145,0.301015768 9.02240664,0.301015768 L12.2489627,0.301015768 C12.4879668,0.301015768 12.5178423,0.301015768 12.5178423,0.540019917 L12.5178423,1.64541411 C12.5178423,1.88441826 12.4879668,1.88441826 12.2489627,1.88441826 L12.0697095,1.88441826 C11.920332,1.88441826 11.8904564,1.88441826 11.920332,2.09354689 L11.920332,3.67694938 C11.920332,4.06533112 11.920332,4.09520664 12.2489627,4.09520664 L13.9817427,4.09520664 C14.3103734,4.09520664 14.3103734,4.06533112 14.3103734,3.67694938 L14.3103734,2.09354689 C14.3103734,1.88441826 14.2804979,1.88441826 14.1609959,1.88441826 L13.9817427,1.88441826 C13.7128631,1.88441826 13.6829876,1.88441826 13.6829876,1.64541411 L13.6829876,0.540019917 C13.6829876,0.301015768 13.7427386,0.301015768 13.9817427,0.301015768 L17.1784232,0.301015768 C17.5369295,0.301015768 17.5369295,0.301015768 17.5369295,0.540019917 L17.5369295,1.73504066 C17.5369295,1.94416929 17.5070539,1.94416929 17.2381743,1.94416929 L16.9692946,1.94416929 C16.760166,1.94416929 16.760166,1.97404481 16.760166,2.18317344 L16.760166,7.65039336 C16.760166,7.85952199 16.7900415,7.85952199 17.0290456,7.85952199 L17.2979253,7.85952199 C17.5369295,7.85952199 17.5369295,7.85952199 17.5369295,8.1881527 L17.5369295,9.26367137 C17.5369295,9.44292448 17.5369295,9.50267552 17.2381743,9.50267552 L13.8323651,9.50267552 C13.6232365,9.50267552 13.6232365,9.50267552 13.6232365,9.14416929 L13.6232365,8.09852614 C13.593361,7.85952199 13.6232365,7.85952199 13.8921162,7.85952199 L14.0713693,7.85952199 C14.2804979,7.85952199 14.2804979,7.82964647 14.2804979,7.62051784 L14.2804979,5.91761328 C14.2804979,5.52923154 14.2506224,5.49935602 13.9817427,5.49935602 L12.2489627,5.49935602 C11.980083,5.49935602 11.9502075,5.52923154 11.9502075,5.91761328 L11.9502075,7.62051784 C11.9502075,7.85952199 11.9502075,7.85952199 12.1593361,7.85952199 L12.3385892,7.85952199 C12.6074689,7.85952199 12.6074689,7.85952199 12.6074689,8.09852614 L12.6074689,9.14416929 C12.6074689,9.50267552 12.6074689,9.50267552 12.3983402,9.50267552 L8.9626556,9.50267552 C8.69377593,9.50267552 8.69377593,9.50267552 8.69377593,9.26367137 L8.69377593,8.1881527 C8.69377593,7.85952199 8.72365145,7.85952199 8.90290456,7.85952199 L9.20165975,7.85952199 C9.47053942,7.85952697 9.47053942,7.85952697 9.47053942,7.65039336 Z" id="Shape" fill="#000000" fill-rule="nonzero"></path>
            <path d="M19.926971,2.12343485 C19.926971,1.91430622 19.926971,1.91430622 19.7775934,1.91430622 L19.4788382,1.91430622 C19.180083,1.91430622 19.180083,1.88443071 19.180083,1.67530207 L19.180083,0.540032365 C19.180083,0.301028216 19.2099585,0.301028216 19.4489627,0.301028216 L22.6456432,0.301028216 C23.0041494,0.301028216 23.0041494,0.301028216 23.0041494,0.540032365 L23.0041494,1.73505311 C23.0041494,1.94418174 22.9742739,1.94418174 22.7053942,1.94418174 L22.5560166,1.94418174 C22.346888,1.94418174 22.346888,1.97405726 22.346888,2.18318589 L22.346888,7.65040581 C22.346888,7.85953444 22.3767635,7.85953444 22.6157676,7.85953444 L22.8547718,7.85953444 C23.0639004,7.85953444 23.0639004,7.85953444 23.0639004,8.18816515 L23.0639004,9.26368382 C23.0639004,9.44293693 23.0639004,9.50268797 22.7950207,9.50268797 L19.3892116,9.50268797 C19.180083,9.50268797 19.180083,9.50268797 19.180083,9.14418174 L19.180083,8.09853859 C19.1502075,7.85953444 19.180083,7.85953444 19.4489627,7.85953444 L19.7178423,7.85953444 C19.926971,7.85953444 19.926971,7.85953444 19.926971,7.62053029 L19.926971,2.12343485 Z" id="Shape" fill="#000000" fill-rule="nonzero"></path>
            <path d="M29.2780083,0.599783402 C28.7986715,0.205895373 28.1954642,-0.00575633536 27.5751037,0.00227302905 C26.8879668,0.0321485477 24.3485477,0.898538589 24.3485477,4.66285394 C24.3485477,8.45705726 26.6190871,9.68194108 28.0232365,9.68194108 C29.3975104,9.68194108 30.8016598,8.63629793 31.2497925,6.78401577 C31.3095436,6.5151361 31.279668,6.48526058 31.0107884,6.36575851 L30.1145228,6.00725228 C29.9053942,5.94750124 29.8755187,5.94750124 29.7560166,6.30600747 C29.66639,6.57488714 29.2780083,7.65040581 28.3518672,7.65040581 C27.4257261,7.65040581 27.0373444,6.30600747 27.0373444,4.87198257 C27.0373444,3.4678332 27.2763485,2.12343485 28.4116183,2.12343485 C29.546888,2.12343485 29.7858921,3.3184556 29.8755187,3.76658838 C29.9053942,3.97571701 29.9352697,3.97571701 30.1443983,3.97571701 L30.9809129,3.97571701 C31.160166,3.97571701 31.160166,3.97571701 31.160166,3.58733527 L31.160166,0.480281328 C31.160166,0.301028216 31.1302905,0.301028216 30.7717842,0.301028216 L30.0248963,0.301028216 C29.8755187,0.301028216 29.8755187,0.330903734 29.7858921,0.540032365 C29.6962656,0.65953195 29.5170124,0.838777593 29.2780083,0.599783402 Z" id="Shape" fill="#000000" fill-rule="nonzero"></path>
            <path d="M8.93278008,13.8346307 L8.93278008,19.2719751 C8.93278008,19.4512282 8.90290456,19.4512282 8.72365145,19.4512282 L8.42489627,19.4512282 C8.18589212,19.4512282 8.1560166,19.5109793 8.1560166,19.7499834 L8.1560166,20.8852531 C8.1560166,21.0943817 8.21576763,21.0943817 8.45477178,21.0943817 L13.4439834,21.0943817 L11.7410788,19.3616017 C11.4124481,19.3616017 11.3825726,19.3616017 11.3825726,19.0030954 L11.3825726,17.4495685 C11.3825726,17.1508133 11.4124481,17.1209378 11.7410788,17.1209378 L11.7410788,15.7167884 C11.3825726,15.7167884 11.3825726,15.6869129 11.3825726,15.3881577 L11.3825726,13.8047552 C11.3825726,13.4761245 11.4124481,13.4761245 11.7112033,13.4761245 C12.039834,13.4761245 13.3543568,13.506 13.3543568,14.6412697 C13.3543568,15.7765394 12.1593361,15.7167884 11.7410788,15.7167884 L11.7410788,17.1508133 C12.0995851,17.1508133 13.3543568,17.1806888 13.3543568,18.3159585 C13.3543568,19.4512282 12.1593361,19.4213527 11.7410788,19.4213527 L13.4439834,21.1541328 C14.6987552,21.1541328 15.6248963,20.0188631 15.6248963,18.7342158 C15.6248963,17.4495685 14.8182573,16.9416846 14.1609959,16.4636763 C14.6390041,16.1051701 15.4456432,15.5674108 15.4456432,14.2827635 C15.4456432,12.8487386 14.0414938,11.952473 13.1751037,11.952473 L8.57427386,11.952473 C8.18589212,11.952473 8.1560166,11.952473 8.1560166,12.2512282 L8.1560166,13.4163734 C8.1560166,13.5956266 8.18589212,13.6255021 8.45477178,13.6255021 L8.75352697,13.6255021 C8.93278008,13.5657485 8.93278008,13.5956216 8.93278008,13.8346307 Z" id="Shape" fill="#000000" fill-rule="nonzero"></path>
            <path d="M24.1991701,13.7450091 L24.1991701,18.4354656 C24.1991701,19.6304863 23.5717842,21.3931419 21.2116183,21.3931419 C18.8215768,21.3931419 17.6863071,19.6304863 17.6863071,18.4354656 L17.6863071,13.7450091 C17.6863071,13.5358805 17.6564315,13.5358805 17.4771784,13.5358805 L17.2082988,13.5358805 C16.9394191,13.5358805 16.9394191,13.5358805 16.9394191,13.2968763 L16.9394191,12.2512332 C16.9394191,11.892727 16.9692946,11.892727 17.2680498,11.892727 L20.4647303,11.892727 C20.7037344,11.892727 20.7634855,11.892727 20.7634855,12.1914822 L20.7634855,13.2371253 C20.7634855,13.4761295 20.73361,13.4761295 20.4049793,13.4761295 L20.1360996,13.4761295 C19.986722,13.4761295 19.9568465,13.506005 19.9568465,13.6852581 L19.9568465,18.2562124 C19.9769282,19.0136221 20.603429,19.6134634 21.3609959,19.6006108 C21.7274333,19.6260852 22.0872844,19.4937085 22.3498586,19.2368424 C22.6124327,18.9799764 22.7526854,18.6231212 22.7352697,18.2562124 L22.7352697,13.7450091 C22.7352697,13.4761295 22.7053942,13.4761295 22.4962656,13.4761295 L22.2572614,13.4761295 C21.9883817,13.4761295 21.9585062,13.4761295 21.9585062,13.2371253 L21.9585062,12.1914822 C21.9585062,11.9226025 21.9585062,11.892727 22.2273859,11.892727 L24.5875519,11.892727 C25.0058091,11.892727 25.0058091,11.892727 25.0058091,12.1914822 L25.0058091,13.2968763 C25.0058091,13.5358805 25.0058091,13.5358805 24.7070539,13.5358805 L24.4082988,13.5358805 C24.1991701,13.5657485 24.1991701,13.5657485 24.1991701,13.7450091 Z" id="Shape" fill="#000000" fill-rule="nonzero"></path>
            <path d="M35.3427386,19.4512282 L35.0141079,19.4512282 C34.8049793,19.4512282 34.7751037,19.5109793 34.7751037,19.8097344 L34.7751037,20.8852531 C34.7751037,21.0943817 34.8049793,21.0943817 35.0439834,21.0943817 L40.9294606,21.0943817 C41.1983402,21.0943817 41.2282158,21.0943817 41.2282158,20.7657635 L41.2282158,18.1068249 C41.2282158,17.8678207 41.1983402,17.8678207 40.9294606,17.8678207 L40.0929461,17.8678207 C39.8240664,17.8678207 39.7941909,17.8678207 39.7941909,18.1964515 L39.7941909,19.1225925 C39.7941909,19.4810988 39.7643154,19.5109743 39.5253112,19.5109743 L38.2107884,19.5109743 C37.8224066,19.5109743 37.7925311,19.4512232 37.7925311,19.2122191 L37.7925311,13.8943768 C37.7925311,13.5358705 37.7925311,13.5358705 38.0016598,13.5358705 L38.3302905,13.5358705 C38.5991701,13.5358705 38.5991701,13.505995 38.5991701,13.2968664 L38.5991701,12.2512232 C38.5991701,11.952468 38.5991701,11.9225925 38.3004149,11.9225925 L35.1634855,11.9225925 C34.7452282,11.9225925 34.7452282,11.952468 34.7452282,12.2512232 L34.7452282,13.3267419 C34.7452282,13.5657461 34.7751037,13.5956216 35.0439834,13.5956216 L35.3128631,13.5956216 C35.5219917,13.5956216 35.5219917,13.5956216 35.5219917,13.9242523 L35.5219917,19.2122191 C35.5518672,19.4512282 35.5219917,19.4512282 35.3427386,19.4512282 Z" id="Shape" fill="#000000" fill-rule="nonzero"></path>
            <path d="M48.9958506,18.5549701 C48.9958506,20.4968788 47.1435685,21.3333934 46.366805,21.3333934 C45.7506167,21.3174006 45.1549894,21.1084086 44.6639004,20.735883 C44.4248963,20.4968788 44.1560166,20.7657585 44.06639,20.8852606 C43.946888,21.0943892 43.9170124,21.1242647 43.8273859,21.1242647 L43.4390041,21.1242647 C43.0506224,21.1242647 43.0804979,21.1242647 43.0804979,20.9151361 L43.0804979,18.375717 C43.0804979,17.9574598 43.0804979,17.9574598 43.2298755,17.9574598 L43.8273859,17.9574598 C44.0365145,17.9574598 44.0365145,17.9873353 44.0962656,18.1665884 C44.3247734,18.9020275 44.9992908,19.4079156 45.7692946,19.4213602 C46.2174274,19.4213602 46.5759336,19.3018581 46.5759336,18.9134763 C46.5759336,18.0470863 46.0680498,17.8379577 45.1717842,17.3599369 C44.2755187,16.9118041 42.9311203,16.3740448 42.9311203,14.4022606 C42.9258853,12.9507697 44.0518662,11.746232 45.5004149,11.6537129 C46.0901753,11.6652179 46.6587206,11.8757903 47.1136929,12.2512232 C47.2081782,12.3262979 47.3322084,12.3531518 47.4492852,12.3238826 C47.5663619,12.2946134 47.6631633,12.2125516 47.7112033,12.1018456 C47.8605809,11.8628415 47.8605809,11.8628415 47.980083,11.8628415 L48.3684647,11.8628415 C48.726971,11.8628415 48.7568465,11.8628415 48.7568465,12.0719701 L48.7568465,14.6113892 C48.7568465,14.999771 48.7568465,15.0296465 48.5775934,15.0296465 L48.0099585,15.0296465 C47.7709544,15.0296465 47.7709544,14.999771 47.7112033,14.8205178 C47.4394955,14.0781266 46.7389793,13.579454 45.9485477,13.5657461 C45.7859619,13.5508298 45.6251606,13.6089726 45.5097123,13.724421 C45.3942639,13.8398693 45.3361211,14.0006706 45.3510373,14.1632564 C45.3510373,14.7010158 45.9485477,15.1790241 46.9643154,15.6869079 C47.980083,16.1649187 48.9958506,16.9118066 48.9958506,18.5549701 Z" id="Shape" fill="#000000" fill-rule="nonzero"></path>
            <path d="M27.1568465,19.4512282 L26.8282158,19.4512282 C26.6190871,19.4512282 26.5892116,19.5109793 26.5892116,19.8097344 L26.5892116,20.8852531 C26.5892116,21.0943817 26.6190871,21.0943817 26.8879668,21.0943817 L32.773444,21.0943817 C33.0124481,21.0943817 33.0423237,21.0943817 33.0423237,20.7657635 L33.0423237,18.1068249 C33.0423237,17.8678207 33.0124481,17.8678207 32.773444,17.8678207 L31.9070539,17.8678207 C31.6381743,17.8678207 31.6082988,17.8678207 31.6082988,18.1964515 L31.6082988,19.1225925 C31.6082988,19.4810988 31.5784232,19.5109743 31.3394191,19.5109743 L30.0248963,19.5109743 C29.6365145,19.5109743 29.6365145,19.4512232 29.6365145,19.2122191 L29.6365145,13.8943768 C29.6365145,13.5358705 29.6365145,13.5358705 29.8157676,13.5358705 L30.1443983,13.5358705 C30.413278,13.5358705 30.413278,13.505995 30.413278,13.2968664 L30.413278,12.2512232 C30.413278,11.952468 30.413278,11.9225925 30.1145228,11.9225925 L26.9775934,11.9225925 C26.5892116,11.9225925 26.5892116,11.952468 26.5892116,12.2512232 L26.5892116,13.3267419 C26.5892116,13.5657461 26.5892116,13.5956216 26.8580913,13.5956216 L27.126971,13.5956216 C27.3360996,13.5956216 27.3360996,13.5956216 27.3360996,13.9242523 L27.3360996,19.2122191 C27.3659751,19.4512282 27.3360996,19.4512282 27.1568465,19.4512282 Z" id="Shape" fill="#000000" fill-rule="nonzero"></path>
            <path d="M6.03485477,22.8869104 C7.31950207,25.3665784 9.9186722,26.1732174 12.5775934,26.0238398 C14.0414938,26.0238398 15.4755187,25.8744622 16.9394191,25.7848357 L16.9394191,25.8744622 C16.197674,27.9551122 15.6769637,30.1080487 15.3858921,32.2976988 C11.5618257,32.4470763 7.64813278,32.1184456 4.83983402,29.5790266 C2.89792531,27.6371178 2.41991701,24.9483212 2.83817427,22.2894 C3.28630705,21.7516407 3.79419087,21.3035079 4.24232365,20.7657485 C4.86970954,21.452883 5.88547718,21.9906498 6.03485477,22.8869104 Z" id="Shape" fill="#FFFFFF" fill-rule="nonzero"></path>
            <path d="M53.626556,21.7815162 C53.7161826,22.1698979 53.7161826,22.5284041 53.7759336,22.9466614 C53.9551867,25.8744622 52.6705394,28.5931344 50.1609959,30.0869104 C47.4124481,31.7599394 44.2456432,32.2976988 40.8697095,32.4172008 C40.8099585,32.1184456 40.780083,31.7001884 40.720332,31.3715577 C40.4847653,29.4316377 40.0951531,27.5135469 39.5551867,25.6354581 C43.1701245,25.5757071 47.5618257,26.5317237 49.9518672,23.2155411 C50.2506224,22.7375328 50.5792531,22.349151 50.8481328,21.8412672 C51.3858921,21.6022631 51.8937759,21.2437568 52.4315353,20.9748772 C52.879668,21.1839983 53.1784232,21.542522 53.626556,21.7815162 Z" id="Shape" fill="#FFFFFF" fill-rule="nonzero"></path>
            <path d="M39.9136929,36.6894 C39.9435685,37.8246697 39.5551867,38.9898149 38.5394191,39.5275743 C38.0598889,39.772963 37.5237151,39.8863801 36.9858921,39.8561925 C36.9709549,39.7471623 36.9709549,39.6366045 36.9858921,39.5275743 C37.7925311,39.5275743 38.5991701,39.2288191 39.0473029,38.5715577 C39.325281,38.0471998 39.4689831,37.4621271 39.4655602,36.8686531 C39.5982906,36.7736269 39.7520425,36.7121262 39.9136929,36.6894 L39.9136929,36.6894 Z" id="Shape" fill="#FFFFFF" fill-rule="nonzero"></path>
            <path d="M19.5385892,39.7367004 C19.3725649,39.7837599 19.1967297,39.7837599 19.0307054,39.7367004 C18.2960537,39.7377598 17.5943608,39.4318687 17.0951189,38.8929144 C16.595877,38.3539601 16.3444827,37.6309502 16.4016598,36.8985261 C16.56566,36.8386494 16.7455433,36.8386494 16.9095436,36.8985261 C16.9095436,37.9441693 17.3278008,39.3184432 19.4788382,39.3184432 C19.6282158,39.5574548 19.4788382,39.5873303 19.5385892,39.7367004 Z" id="Shape" fill="#FFFFFF" fill-rule="nonzero"></path>
        </g>
    </g>
</svg>
