<?xml version="1.0" encoding="UTF-8"?>
<svg width="60px" height="60px" viewBox="0 0 60 60" version="1.1" xmlns="http://www.w3.org/2000/svg" xmlns:xlink="http://www.w3.org/1999/xlink">
    <!-- Generator: Sketch 43.2 (39069) - http://www.bohemiancoding.com/sketch -->
    <title>TOR</title>
    <desc>Created with Sketch.</desc>
    <defs></defs>
    <g id="Page-1" stroke="none" stroke-width="1" fill="none" fill-rule="evenodd">
        <g id="TOR" fill-rule="nonzero">
            <path d="M59.861157,29.9603306 C59.8447375,46.4866618 46.4370893,59.8721266 29.9107536,59.8611802 C13.3844178,59.8502338 -0.0054865606,46.4470194 -1.33381299e-05,29.9206809 C0.00545988434,13.3943424 13.4042391,-5.715426e-08 29.9305785,0 C46.4671778,0.0125992466 59.8649876,13.4237269 59.861157,29.9603306 L59.861157,29.9603306 Z" id="Shape" fill="#CD1141"></path>
            <path d="M29.9305785,58.3140496 C14.3195648,58.3120618 1.64022797,45.7040079 1.55022886,30.0932535 C1.46022975,14.4824991 13.9933527,1.72909028 29.6033058,1.54710744 L29.9305785,1.54710744 C41.3537837,1.54537858 51.6646344,8.39245213 56.0945852,18.9217045 C60.5245359,29.4509569 58.2100344,41.6098689 50.2214876,49.7752066 C44.9621139,55.1734189 37.7644952,58.2474018 30.2280992,58.3140496 L29.9305785,58.3140496 Z" id="Shape" fill="#000000"></path>
            <path d="M29.8413223,5.59337355 L29.5438017,5.89089421 L29.5438017,9.52066116 L29.8413223,9.81818182 L30.8231405,9.81818182 L31.1206612,9.52066116 L31.1206612,5.89090909 L30.8231405,5.59338843 L29.8413223,5.59337355 Z M32.7272727,10.4727273 L31.7157025,11.4545455 L28.9487603,11.4545455 L27.9669421,10.4727273 L27.9669421,4.96859504 L28.9487603,3.98677686 L31.7157025,3.98677686 L32.6975207,4.96859504 L32.6975207,10.4727273 L32.7272727,10.4727273 Z" id="Shape" fill="#FFFFFF"></path>
            <path d="M51.8578512,18.6842975 L51.4710744,18.5652893 L48.2280992,20.1421488 L48.0793388,20.5289256 L48.4958678,21.4214876 L48.8826446,21.5702479 L52.1553719,19.9933884 L52.3041322,19.6066116 L51.8578512,18.6842975 Z M48.7338843,23.385124 L47.4247934,22.9090909 L46.2347107,20.4396694 L46.7107438,19.1008264 L51.6495868,16.7504132 L52.9586777,17.1966942 L54.1487603,19.6958678 L53.7024793,21.0347107 L48.7338843,23.385124 Z" id="Shape" fill="#FFFFFF"></path>
            <path d="M12.5553719,13.2991736 L12.5553719,13.7157025 L15.1735537,16.2446281 L15.5900826,16.2446281 L16.3041322,15.5305785 L16.3041322,15.0842975 L13.7157025,12.5553719 L13.2694215,12.5553719 L12.5553719,13.2991736 Z M18.0297521,14.6082645 L18.0595041,16.0066116 L16.1256198,18 L14.7272727,18 L10.8,14.1917355 L10.7702479,12.7933884 L12.7041322,10.8 L14.1322314,10.7702479 L18.0297521,14.6082645 Z" id="Shape" fill="#FFFFFF"></path>
            <polygon id="Shape" fill="#FFFFFF" points="42.8727273 7.14049587 39.9867769 14.0132231 38.7669421 13.507438 38.4694215 8.62809917 36.7735537 12.6446281 35.4644628 12.1090909 38.3801653 5.23636364 39.9867769 5.92066116 40.0165289 10.2049587 41.5338843 6.57520661"></polygon>
            <path d="M20.6479339,9.40165289 L21.8082645,8.8661157 C21.8706885,8.74250153 21.9205259,8.61292426 21.9570248,8.47933884 L21.5702479,7.55702479 L21.153719,7.40826446 L19.9933884,7.94380165 L20.6479339,9.40165289 Z M23.6826446,8.71735537 L23.3553719,9.87768595 L25.4380165,11.9008264 L23.9801653,12.5553719 L22.046281,10.6809917 L21.3619835,11.0082645 L22.3438017,13.2694215 L21.0049587,13.8347107 L18.0297521,6.99173554 L21.2429752,5.59338843 L22.6115702,6.15867769 L23.6826446,8.71735537 Z" id="Shape" fill="#FFFFFF"></path>
            <polygon id="Shape" fill="#FFFFFF" points="48.7338843 13.8347107 47.7520661 12.8826446 43.646281 17.0479339 42.5454545 15.9768595 46.6512397 11.7818182 45.6694215 10.8297521 46.8 9.66942149 49.8644628 12.7041322"></polygon>
            <polygon id="Shape" fill="#FFFFFF" points="8.92561983 18.0892562 8.36033058 19.338843 13.7157025 21.7190083 13.0909091 23.1471074 7.73553719 20.7669421 7.17024793 22.0165289 5.68264463 21.3322314 7.4677686 17.4347107"></polygon>
            <polygon id="Shape" fill="#FFFFFF" points="49.8347107 37.1305785 49.0909091 38.5289256 48.5553719 38.261157 48.4066116 38.5289256 47.9603306 39.4214876 48.0793388 39.8082645 48.8231405 40.2247934 48.7338843 40.1652893 49.1206612 40.046281 50.0132231 38.3801653 51.3818182 37.9636364 53.6429752 39.1239669 54.0297521 40.4628099 52.7504132 42.9322314 51.4115702 43.3487603 50.2809917 42.753719 51.0247934 41.3553719 51.5900826 41.6528926 52.214876 40.492562 52.0661157 40.0760331 51.4710744 39.7785124 51.0545455 39.8975207 50.2214876 41.5338843 48.8231405 41.9504132 46.5619835 40.7900826 46.1157025 39.4214876 47.3950413 36.9520661 48.7636364 36.5652893"></polygon>
            <path d="M10.5917355,39.2727273 L11.1867769,40.4033058 C11.3205932,40.4659771 11.4600633,40.5157879 11.6033058,40.5520661 L12.4958678,40.0760331 L12.614876,39.6595041 L12.0198347,38.5289256 L10.5917355,39.2727273 Z M11.4842975,42.277686 L10.2942149,42.0396694 L8.41983471,44.2413223 L7.67603306,42.8429752 L9.40165289,40.7900826 L9.0446281,40.1057851 L6.84297521,41.2363636 L6.18842975,39.9570248 L12.7933884,36.5057851 L14.4297521,39.6 L13.9834711,40.968595 L11.4842975,42.277686 Z" id="Shape" fill="#FFFFFF"></path>
            <path d="M21.8082645,49.9834711 L22.8495868,50.4297521 L23.2363636,50.2512397 L23.6528926,49.2991736 L23.5041322,48.9123967 L22.4330579,48.4661157 L21.8082645,49.9834711 Z M21.2429752,51.292562 L20.1719008,53.8809769 L18.8628099,53.3454397 L21.7190083,46.4429603 L24.8727273,47.7520512 L25.4082645,49.0908942 L24.3669421,51.6198198 L23.3256198,52.155357 L21.2429752,51.292562 Z" id="Shape" fill="#FFFFFF"></path>
            <polygon id="Shape" fill="#FFFFFF" points="32.5785124 50.0132231 31.2099174 50.0429752 31.2694215 55.8743802 29.692562 55.9041322 29.6330579 50.0429752 28.2942149 50.0727273 28.2644628 48.4363636 32.5487603 48.4066116"></polygon>
            <path d="M36.8330579,48.9421488 L36.6545455,49.3289256 L37.9338843,52.7206612 L38.3206612,52.8694215 L39.2727273,52.5123818 L39.4512397,52.1256198 L38.1719008,48.7338719 L37.785124,48.5851116 L36.8330579,48.9421488 Z M41.2363636,52.4528926 L40.7008264,53.7322314 L38.1123967,54.7140496 L36.8330579,54.1487603 L34.8694215,49.0016529 L35.4347107,47.722314 L38.0231405,46.7404959 L39.3024793,47.3057851 L41.2363636,52.4528926 Z" id="Shape" fill="#FFFFFF"></path>
            <path d="M44.0033058,46.7702479 L44.985124,45.907438 L45.014876,45.520676 L44.3603306,44.7173702 L43.9735537,44.6876182 L42.9917355,45.520676 L44.0033058,46.7702479 Z M46.7107438,45.2231405 L46.7404959,46.4429752 L49.3289256,47.8115702 L48.1090909,48.8231405 L45.7289256,47.6033058 L45.1636364,48.1090909 L46.7404959,49.9834711 L45.6694215,50.9355372 L40.8198347,45.2231405 L43.4677686,42.9917355 L44.9256198,43.1107438 L46.7107438,45.2231405 Z" id="Shape" fill="#FFFFFF"></path>
            <path d="M15.1140496,47.8115702 L16.1553719,45.7586777 L14.1619835,46.9487603 L15.1140496,47.8115702 Z M15.0842975,51.3520661 L13.9239669,50.2809744 L14.4595041,49.1801653 L12.8528926,47.692562 L11.7818182,48.3471074 L10.6214876,47.2462661 L17.3752066,43.2 L18.5355372,44.271062 L15.0842975,51.3520661 Z" id="Shape" fill="#FFFFFF"></path>
            <path d="M35.7322314,44.9553595 L35.7917355,45.0148636 C35.8717064,45.0109084 35.9512682,45.0009632 36.0297521,44.9851116 L36.2082645,44.9256074 L36.6842975,44.717343 L37.8446281,44.1818058 L38.0528926,44.0627975 L38.1719008,44.0032934 L38.2909091,43.9140372 L38.4991736,43.7950289 L38.7371901,43.6462686 L39.0644628,43.4380041 L39.6,43.0512273 L39.8975207,42.8429628 L40.2842975,42.5751942 L40.6413223,42.3074256 L40.7900826,42.1884174 L41.0578512,41.9504008 L41.2958678,41.7123843 L41.6826446,41.295843 L42.1289256,40.849562 L42.6644628,40.2247686 L42.9619835,39.8379917 L43.0512397,39.7189835 L43.3785124,39.3322066 L43.9735537,38.4396446 L44.1520661,38.171876 L44.568595,37.3685702 L44.7768595,36.9520413 L45.1636364,36.1487355 L45.3719008,35.6429504 L45.6099174,34.8991488 C45.6099174,34.8991488 45.877686,33.9173306 46.0264463,33.4115455 C46.0561983,33.3817785 46.0561983,33.3222893 45.9966942,33.2627851 C45.9158746,33.1403299 45.8461751,33.0108881 45.7884298,32.8760083 C45.7552965,32.8030506 45.7154558,32.7333294 45.6694215,32.6677438 C45.6099174,32.6082273 45.5206612,32.4892314 45.461157,32.4297273 C45.431405,32.3702107 45.3719008,32.3404711 45.3123967,32.2809669 C45.1933884,32.1917107 45.0743802,32.0429504 44.985124,31.9834463 C44.9256198,31.9536942 44.8958678,31.9239421 44.8363636,31.8941901 C44.5257176,31.6304393 44.173949,31.4193781 43.7950413,31.2693967 C43.6415234,31.1969486 43.4823096,31.1372434 43.3190083,31.0908843 C43.1844359,31.0375574 43.0449116,30.9976933 42.9024793,30.971876 C42.843687,30.9369062 42.7682398,30.9494807 42.7239669,31.0016281 C42.6942149,31.0313802 42.6942149,31.0908843 42.6942149,31.1801405 C42.6596638,31.3867402 42.6397794,31.5955263 42.6347107,31.8049339 C42.6001592,32.0115335 42.5802748,32.2203197 42.5752066,32.4297273 C42.5454545,32.6379917 42.5454545,32.8165041 42.5157025,33.0247686 C42.4905727,33.2748112 42.4508353,33.5231694 42.3966942,33.7685702 C42.307438,34.2446033 42.2181818,34.7206364 42.1289256,35.1669174 C42.1167208,35.2992732 42.0866974,35.4293745 42.0396694,35.5536942 C41.9570684,35.7471798 41.8874919,35.94597 41.831405,36.1487355 C41.7340371,36.5840924 41.6047623,37.0116934 41.4446281,37.4280744 C41.3449854,37.7848632 41.1946956,38.1255201 40.9983471,38.4396446 C40.9983471,38.4693967 40.9983471,38.4693967 40.968595,38.5289008 C40.8793388,38.7371653 40.7900826,38.9454298 40.7008264,39.1834463 C40.6413223,39.3024545 40.5520661,39.4214628 40.492562,39.5702231 C40.4112146,39.7486889 40.3115032,39.9181981 40.1950413,40.0760083 C40.046281,40.3437769 39.8677686,40.5817934 39.7190083,40.849562 C39.6274796,41.028893 39.517816,41.1983731 39.3917355,41.3553471 C39.3619835,41.4148636 39.3322314,41.4446033 39.3024793,41.5041074 C39.2205623,41.6545008 39.120655,41.7943711 39.0049587,41.9206364 C38.7966942,42.188405 38.5884298,42.4561736 38.3801653,42.6941901 C38.231405,42.8429504 38.0826446,42.9917107 37.9338843,43.1404711 L37.5471074,43.5272331 C37.5173554,43.5867372 37.4876033,43.5867372 37.4578512,43.6164893 C37.3654755,43.6694246 37.2845638,43.7402223 37.2198347,43.8247537 C37.0616208,43.9963083 36.8815701,44.1463505 36.6842975,44.2710347 C36.5977965,44.3318177 36.5180086,44.4016322 36.446281,44.4792992 C36.2323984,44.6715011 35.9919045,44.8318395 35.7322314,44.9553595 L35.7322314,44.9553595 Z" id="Shape" fill="#A0A0A3"></path>
            <path d="M46.2347107,32.3999826 L46.2644628,32.3702306 L46.2644628,32.2512223 L46.3834711,31.2396521 L46.4429752,30.287586 L46.4429752,29.1867595 L46.353719,28.1156851 C46.353719,28.1156851 46.2049587,27.1338669 46.1157025,26.6280818 C46.0859504,26.4495694 45.9669421,26.3900653 45.8181818,26.3008091 C45.7586777,26.271057 45.7289256,26.241305 45.6694215,26.241305 C45.5559467,26.214924 45.4460639,26.1749666 45.3421488,26.1222967 C45.1041322,26.0925446 44.8661157,25.9735364 44.6280992,25.9437843 C44.3305785,25.8842802 44.0330579,25.8842802 43.7355372,25.824776 C43.4975207,25.824776 43.2595041,25.795024 43.0214876,25.795024 L42.5157025,25.795024 C42.3966942,25.795024 42.307438,25.795024 42.2479339,25.8842802 C42.1884298,25.9437843 42.2479339,26.0627926 42.2479339,26.1818008 C42.277686,26.4198174 42.3371901,26.5388256 42.3669421,26.7470901 C42.5018887,27.434663 42.591339,28.1303879 42.6347107,28.8297347 C42.6347107,29.1570074 42.6644628,29.4545281 42.6644628,29.7818008 L42.6644628,30.0198174 C42.6714496,30.0699455 42.6813842,30.1196183 42.6942149,30.1685777 C42.7395965,30.2048348 42.7896276,30.2348535 42.8429752,30.2578339 C42.9037554,30.2573121 42.9641621,30.2673799 43.0214876,30.287586 C43.1031276,30.2967032 43.1831784,30.3167159 43.2595041,30.3470901 C43.5272727,30.4363463 43.8247934,30.5256025 44.122314,30.6446107 C44.3065803,30.721863 44.4854897,30.8113177 44.6578512,30.9123793 C44.6732897,30.9293596 44.6945081,30.9399688 44.7173554,30.9421314 C44.8363636,31.0313876 44.9553719,31.1206438 45.0446281,31.1801479 C45.3100406,31.3664185 45.5500742,31.5864493 45.7586777,31.8346934 C45.7820745,31.8878456 45.8245338,31.9303048 45.877686,31.9537017 C45.9669421,32.0429579 46.0859504,32.2809744 46.1752066,32.3702306 C46.2049587,32.3702331 46.2049587,32.3999826 46.2347107,32.3999826 Z" id="Shape" fill="#A0A0A3"></path>
            <path d="M39.0347107,20.9157025 L39.3024793,20.9157025 C39.3619835,20.9157025 39.4214876,20.9157025 39.4214876,20.8264463 C39.4512397,20.7669421 39.4214876,20.7371901 39.3917355,20.677686 C39.3619835,20.6181818 39.1834711,20.3206612 39.1834711,20.3206612 L39.0049587,20.0231405 L38.231405,18.9520661 L38.0826446,18.7438017 L37.9338843,18.5355372 L37.6958678,18.2677686 L37.0710744,17.6132231 L36.8330579,17.3454545 L35.8809917,16.4528926 L35.107438,15.8578512 L34.8099174,15.7090909 L33.9173554,15.1735537 L33.2628099,14.8165289 L33.1438017,14.7570248 L32.6082645,14.5785124 L31.8347107,14.2809917 L31.7752066,14.2512397 L31.5371901,14.1917355 L31.2396694,14.132219 L30.7933884,14.0429628 L30.5553719,14.0429628 L30.138843,13.9537066 L29.6628099,13.9239545 L29.4842975,13.8942025 L29.1867769,13.8942025 L28.6512397,13.9239545 L28.1454545,13.9834587 L27.7586777,13.9834587 L27.4016529,14.0132107 L27.0743802,14.0727149 L26.7768595,14.1619711 L26.3305785,14.2512273 L26.2413223,14.2512273 L25.8247934,14.3999876 L25.5867769,14.4892438 L25.4380165,14.5785 L25.0809917,14.6677562 L24.9322314,14.7570124 L24.7239669,14.8760207 L24.1884298,15.1140372 L23.5041322,15.3818182 L23.2958678,15.4710744 L22.8198347,15.738843 L22.4033058,16.0066116 L22.0165289,16.214876 L21.8677686,16.2743802 L21.4512397,16.5123967 L21.3619835,16.5421488 L20.8859504,16.8991736 L20.4991736,17.1669421 L20.4099174,17.2264463 L19.9636364,17.5834562 L19.814876,17.7024645 C19.7282585,17.7741744 19.6485695,17.8538634 19.5768595,17.940481 L19.7256198,17.9107289 L20.0528926,17.7917207 L20.1123967,17.7917207 L20.5586777,17.6132083 L20.6181818,17.6132083 L21.0942149,17.4049438 L21.3619835,17.3454397 L21.6,17.2561835 L21.9570248,17.1074231 L22.8495868,16.7801504 L22.9090909,16.7801504 L23.3553719,16.6313901 L23.7123967,16.4826298 L23.7719008,16.5123818 L24.4561983,16.5421339 L24.9024793,16.571886 L24.9322314,16.571886 L25.7950413,16.6611421 L27.014876,16.7206463 L27.014876,16.7503983 L27.461157,17.1074231 L27.4909091,17.1074231 L27.9371901,17.5537041 L27.9669421,17.5239372 L28.5917355,17.5537041 L28.6214876,17.5239372 L30.138843,17.6131934 L30.138843,17.6429455 L30.8231405,18.0594744 L30.8528926,18.0594744 L32.0429752,18.6247636 L32.0429752,18.6842678 L32.7272727,18.4165289 L33.738843,18.7438017 L33.9173554,19.0413223 L34.2743802,19.0413223 L34.631405,19.4280992 L34.661157,19.4280992 L34.9586777,19.7553595 L34.9586777,19.785124 L34.9884298,19.785124 L35.7619835,19.9636364 L36.0595041,20.4099174 L36.7735537,20.677686 C37.165025,20.7812108 37.562461,20.860698 37.9636364,20.9157025 C38.3192557,20.9605029 38.6790914,20.9605029 39.0347107,20.9157025 L39.0347107,20.9157025 Z" id="Shape" fill="#A0A0A3"></path>
            <path d="M45.8181818,25.5272727 C45.7884298,25.4380165 45.6991736,25.2 45.6991736,25.2 L45.6694215,25.0512397 L45.6099174,24.9024793 L45.4909091,24.5157025 L45.3719008,24.1884149 L44.985124,23.355357 L44.8066116,22.9388281 L44.6280992,22.4628099 L44.3603306,22.0760331 L44.122314,21.6297521 L43.9735537,21.3619835 L43.8842975,21.2727273 L42.8132231,19.785124 L42.6347107,19.6066116 C42.6325417,19.5746899 42.6071283,19.5492764 42.5752066,19.5471074 C42.5752066,19.5471074 42.2479339,20.0826446 42.0991736,20.261157 C41.9504132,20.4099174 41.6528926,20.677686 41.6528926,20.677686 C41.6528926,20.677686 41.414876,20.8561983 41.385124,20.8859504 C41.3083749,20.9395652 41.2289321,20.9892169 41.1471074,21.0347107 L40.9090909,21.1834711 C40.8421034,21.2186091 40.7724695,21.2484522 40.7008264,21.2727273 C40.6413223,21.3024793 40.6115702,21.3024793 40.6115702,21.3322314 C40.5818182,21.3619835 40.5818182,21.3619835 40.5818182,21.4214876 C40.5818182,21.4809917 40.6115702,21.4809917 40.6115702,21.5107438 C40.6983343,21.7343561 40.7976662,21.9528863 40.9090909,22.1652893 C41.0780511,22.4685989 41.2175327,22.7874138 41.3256198,23.1173554 C41.3704139,23.2144015 41.4101368,23.3137088 41.4446281,23.414876 C41.5338843,23.7123967 41.6528926,23.9801653 41.7123967,24.2479339 C41.7421488,24.3966942 41.8016529,24.4859504 41.831405,24.6347107 C41.861157,24.753719 41.8909091,24.9024793 41.9206612,24.9917207 C41.9504132,25.080962 41.9801653,25.140481 42.0991736,25.1107289 L42.3371901,25.1107289 C42.6347107,25.1107289 42.9024793,25.0809769 43.2,25.0809769 C43.2892562,25.0809769 43.8842975,25.140481 43.8842975,25.140481 C43.8842975,25.140481 44.0628099,25.1702331 44.1818182,25.1999851 C44.4198347,25.2297372 44.6280992,25.2892413 44.8661157,25.3189934 C45.0488407,25.3650226 45.2278554,25.4246941 45.4016529,25.4975058 L45.6694215,25.586762 C45.7005542,25.5919192 45.7306772,25.6019602 45.7586777,25.616514 C45.8181818,25.5867769 45.8181818,25.5570248 45.8181818,25.5272727 Z" id="Shape" fill="#A0A0A3"></path>
            <path d="M41.9801653,19.0413223 C41.9571926,18.9879708 41.9271733,18.9379386 41.8909091,18.892562 L41.831405,18.8033058 L41.6826446,18.5950413 L41.5933884,18.446281 L41.385124,18.2677686 C41.3584356,18.2436838 41.3283646,18.2236365 41.2958678,18.2082645 C40.938843,17.9404959 40.2545455,17.3752066 40.2545455,17.3752066 L40.0760331,17.2264463 L39.7190083,16.8991736 L37.9338843,15.8280992 L36.5057851,15.1735537 L35.7322314,14.8760331 L35.4644628,14.7867769 L34.5421488,14.4595041 L33.8876033,14.2809917 L33.2628099,14.1619835 L33.1735537,14.1619835 L33.1140496,14.2214876 C33.1140496,14.2214876 33.1735537,14.2809917 33.2033058,14.2809917 C33.4115702,14.3404959 33.6198347,14.4297521 33.7983471,14.4892562 C33.9471074,14.5487603 34.0661157,14.6082645 34.214876,14.6677686 C34.306302,14.67629 34.3912198,14.7187489 34.4528926,14.7867769 C34.7504132,14.9355372 35.0479339,15.1140496 35.3752066,15.292562 C35.5560613,15.4046127 35.72547,15.5341605 35.8809917,15.6793388 L36.2380165,15.9471074 C36.30454,15.9876072 36.3646971,16.0377381 36.4165289,16.0958678 C36.446281,16.1256198 36.4760331,16.1553719 36.5057851,16.1553719 C36.6842975,16.3041322 36.892562,16.4528926 37.0413223,16.6016529 C37.1943206,16.7942763 37.3635339,16.9734433 37.5471074,17.1371901 C37.7256198,17.3157025 37.8743802,17.4644504 38.0231405,17.6429752 C38.1434619,17.79898 38.2725979,17.9479831 38.4099174,18.0892562 C38.677686,18.3570248 38.8561983,18.6545455 39.1239669,18.922314 C39.153719,18.9520661 39.153719,18.9818182 39.1834711,19.0413223 C39.3247776,19.2904679 39.4838679,19.5290984 39.6595041,19.755357 C39.7951508,19.9115699 39.9147597,20.0810158 40.0165289,20.2611421 C40.0643995,20.3761875 40.1242324,20.4858813 40.1950413,20.5884149 C40.2545455,20.6181669 40.3140496,20.6776711 40.3438017,20.6776711 C40.3889213,20.6714182 40.4307358,20.650511 40.4628099,20.6181669 L40.5818182,20.5884149 C40.6539444,20.5536781 40.7235377,20.5139106 40.7900826,20.4694066 C40.8684654,20.4480221 40.9401292,20.4070714 40.9983471,20.3503983 C41.1060467,20.2823471 41.205835,20.2025166 41.2958678,20.1123818 C41.385124,20.0231256 41.5933884,19.7851091 41.5933884,19.7851091 L41.7421488,19.6065967 L41.9801653,19.1900678 C41.9504132,19.1900826 42.0099174,19.1008264 41.9801653,19.0413223 Z" id="Shape" fill="#A0A0A3"></path>
            <path d="M41.2363636,25.0512397 C41.1471074,24.753719 41.0876033,24.4561983 40.968595,24.1586777 C40.8924445,23.9159502 40.8030543,23.6775766 40.7008264,23.4446281 C40.6413223,23.2958678 40.6115702,23.1471074 40.5520661,22.9983471 C40.522314,22.9090909 40.492562,22.8495868 40.4628099,22.7603306 C40.3308021,22.3966142 40.1612937,22.0476264 39.9570248,21.7190083 C39.9548638,21.6961605 39.9442543,21.6749416 39.9272727,21.6595041 C39.8975207,21.6297521 39.8975207,21.6 39.8677686,21.5702479 C39.8082645,21.540481 39.7785124,21.5702479 39.6892562,21.5702479 C39.5404959,21.5702479 39.3322314,21.6 39.2727273,21.6 C39.1834711,21.6 38.8859504,21.6297521 38.6479339,21.6297521 L38.2909091,21.6297521 L37.5173554,21.5107438 C37.2198347,21.4809917 36.5950413,21.3322314 36.5950413,21.3322314 L36.0892562,21.153719 L35.4942149,20.9454545 L35.4644628,20.9752066 L34.5421488,20.8859504 L34.5123967,20.9157025 L34.0066116,20.5289256 L33.9471074,20.5289256 L33.6198347,20.231405 L33.6198347,20.1719008 L33.2628099,20.1123967 L33.2033058,20.1421488 L32.9057851,20.0231405 L32.8760331,19.9933884 L32.2214876,20.0528926 L31.5966942,19.814876 L29.4842975,19.9338843 L29.4545455,19.9041322 L29.0380165,19.9338843 L29.0082645,19.9933884 L27.9669421,20.0528926 L27.9371901,20.0231405 L26.4495868,20.8859504 L26.4198347,20.9454545 L26.3603306,21.0049587 L26.3305785,20.9752066 L25.5867769,20.9157025 L24.1884298,20.9157025 L23.8016529,20.8859504 L23.6826446,20.8264463 L22.3140496,21.8975083 L22.3140496,21.9272603 L21.8380165,22.3140496 L21.3024793,22.046281 L21.2727273,22.0760331 L21.0644628,22.0165289 C21.0644628,22.0165289 20.0528926,22.2545455 20.0826446,22.2545455 L19.1305785,22.1057851 L19.0710744,22.0760331 L18.922314,22.2545455 L18.5355372,22.4330579 L18.5355372,22.4628099 L17.7917355,23.0578512 L16.7206612,23.8016529 L15.5305785,24.6942149 L14.9950413,25.0809917 L14.9652893,25.3190083 L14.7570248,25.8247934 L14.6677686,26.2710744 L14.5190083,27.1933884 L14.4297521,27.5801653 L14.3702479,28.0561983 L14.2512397,29.0380165 L14.1917355,31.1801653 L14.2512397,31.2991736 L14.2809917,31.8942149 C14.2809917,31.8942149 14.2809917,32.0132231 14.3107438,32.0132231 L16.9586777,29.3057851 L17.7917355,28.9487603 L18.5355372,28.9190083 L18.9818182,28.4132231 L19.0115702,28.3239669 L19.0710744,28.3239669 L20.261157,28.2049587 L20.3206612,28.1752066 L20.8264463,28.1752066 L20.9752066,27.9966942 L21.5107438,27.6694215 L22.1057851,27.2826446 L23.6826446,27.2826446 L23.7123967,27.3123967 L24.3371901,27.3719008 L24.8429752,27.2826446 L25.7355372,26.3900826 L26.4495868,25.7057851 L27.5206612,25.5867769 L27.5504132,25.5272727 L27.6099174,25.5867769 L28.1454545,25.8247934 L28.2049587,25.7950413 L28.6809917,25.7355248 L28.7107438,25.7355248 L29.1570248,25.6462686 L29.1867769,25.6462686 L29.692562,26.0628099 L29.722314,26.0330579 L30.7338843,26.0033058 L30.8231405,25.9437893 L31.6561983,25.9735413 L31.6859504,26.0033083 L31.8347107,25.9735413 L31.8347107,25.9437893 L32.1619835,25.7950289 L32.2214876,25.7950289 L32.5785124,25.6165165 L32.6082645,25.5867645 L33.0247934,25.4380041 L33.0545455,25.3785 L34.214876,24.932219 L34.4231405,24.8727149 L34.4528926,24.8429628 L34.5123967,24.9024669 L34.8396694,25.0512273 L34.9586777,25.0512273 L35.3157025,25.2594917 L35.3454545,25.2297248 L35.4347107,25.1702207 L35.4644628,25.1702207 L35.6429752,25.0809645 L35.6429752,25.0512124 L35.9107438,24.9916959 L36.5950413,25.1702083 L36.7438017,25.1404562 L36.8628099,25.1999603 L37.368595,25.2892165 L37.8446281,25.4677289 L38.1123967,25.4379769 L38.231405,25.497481 L38.2909091,25.4677289 C38.2909091,25.4677289 39.2429752,25.3487207 39.7190083,25.3189686 C40.046281,25.2892165 40.3438017,25.2594645 40.6413223,25.2297124 C40.8198347,25.1999603 40.9983471,25.1999603 41.1768595,25.1702083 C41.2363636,25.2 41.2958678,25.1404959 41.2363636,25.0512397 Z" id="Shape" fill="#A0A0A3"></path>
            <path d="M41.9504132,29.9305785 C41.9504132,29.8413223 41.9206612,29.8115702 41.9206612,29.7520661 C41.8959289,29.5746858 41.8859773,29.3955572 41.8909091,29.2165289 C41.8909091,29.1570248 41.861157,29.0677686 41.861157,29.0082645 C41.8357432,28.7811073 41.8258029,28.5524851 41.831405,28.3239793 C41.8016529,28.0264587 41.7421488,27.7586901 41.7123967,27.4611694 C41.6871741,27.2406065 41.6474182,27.0219492 41.5933884,26.806624 C41.5681991,26.576242 41.5284501,26.3476857 41.4743802,26.1223264 C41.414876,25.8843099 41.385124,25.8843099 41.1471074,25.8843099 C41.1173554,25.8843099 41.0876033,25.8843099 41.0876033,25.914062 C40.9904495,25.9386533 40.8901822,25.94868 40.7900826,25.943814 C40.3140496,26.0033182 39.8677686,26.0330702 39.4214876,26.0925744 L38.0826446,26.5686074 L36.1487603,26.5090909 L35.9404959,26.4198347 L35.9404959,26.4793388 L35.3454545,26.8958802 L35.2859504,26.8958802 L34.8396694,27.3124091 L34.8099174,27.3719132 L33.6495868,27.5206736 L32.6082645,28.3537314 L32.4892562,28.3537314 L31.9239669,28.6809917 L31.7157025,28.7107438 L31.477686,28.8892562 L31.4181818,28.8595041 L30.3471074,28.7702479 L30.168595,28.9785124 L30.168595,29.0082645 L29.246281,30.0495868 L29.2165289,30.1090909 L29.1867769,30.1090909 L27.9966942,31.4479339 L27.6694215,31.4479339 L27.6396694,31.477686 L26.6578512,31.6561983 L26.568595,31.6561983 L26.568595,31.7157025 L24.9322314,32.6082645 L24.2181818,32.5190083 L24.0694215,32.5785124 L23.3553719,32.5190083 L22.6413223,33.292562 L22.1950413,33.3818182 L21.9570248,33.3818182 L21.7190083,33.4710744 L21.5702479,33.4710744 L21.5702479,33.5008264 L20.677686,34.1851116 L20.5586777,34.2148636 L19.1900826,35.285938 L19.1900826,35.3454421 L18.3272727,37.4280868 L18.3867769,37.517343 L16.9586777,37.6363512 L16.5123967,38.0528926 L16.4528926,38.2016529 L17.107438,39.0644628 L17.553719,39.7785124 L17.9702479,40.3140496 L18.6247934,40.9983471 L18.6247934,41.0578512 C18.6545455,41.0578512 18.7438017,41.0578512 18.7438017,41.0876033 L19.1305785,41.2066116 L19.6066116,41.3553719 C19.6064421,41.3633134 19.6095223,41.3709798 19.615139,41.3765965 C19.6207558,41.3822133 19.6284222,41.3852934 19.6363636,41.385124 L19.6661157,41.385124 L20.4694215,41.7123967 L20.5289256,41.7123967 L20.5586777,41.7421488 L20.6479339,41.7421488 L20.8264463,41.8909091 L21.153719,41.7123967 L21.1834711,41.7123967 L21.3322314,41.5933884 L22.5520661,41.8909091 L23.4446281,41.4446281 L25.4082645,41.2661157 L26.2115702,39.9570248 L26.568595,39.6 L26.6280992,39.6 L26.8958678,39.3322314 L26.8958678,39.3024793 L27.4016529,38.8264463 L27.6396694,38.5884298 L27.6991736,38.5586777 L27.9669421,38.2909091 L28.2049587,38.0528926 L28.2644628,38.0231405 L28.2049587,37.8446281 L28.4132231,36.9818182 L28.8595041,36.8628099 L28.8892562,36.8330579 L29.0082645,36.8033058 L29.0082645,36.7438017 L29.6033058,35.7619835 L29.6628099,35.7619835 L29.9008264,35.2561983 L30.3173554,35.0479339 L30.3768595,34.9586777 L30.4363636,34.9884446 L30.6743802,34.8694364 L30.7041322,34.8694364 L31.1206612,34.6611719 L31.1801653,34.6016678 L32.6082645,33.9471223 L32.7272727,33.9471223 L32.7272727,33.8578661 L32.7867769,33.828114 L32.9355372,33.3223289 L33.4115702,33.1140645 L33.9173554,33.0843124 L34.3933884,32.7272876 L35.107438,32.7868041 L35.1669421,32.8165562 L35.1966942,32.7868041 L36.1785124,32.3702628 L36.1785124,32.2215025 L36.3867769,31.7752215 L36.8628099,31.6562132 L36.892562,31.6264612 L37.5173554,31.4777008 L37.785124,31.1801802 L37.814876,31.1801802 L37.9636364,31.0314198 L38.4099174,31.090924 L38.4099174,31.120676 L38.677686,31.1504281 L38.8264463,31.1801802 C38.8264463,31.1801802 39.4512397,30.8826595 39.7487603,30.7636512 C39.8622351,30.7372703 39.9721179,30.6973129 40.0760331,30.644643 C40.2247934,30.5851388 40.3735537,30.5553868 40.522314,30.4958826 C40.6045365,30.49021 40.6851119,30.4700662 40.7603306,30.4363785 L41.0578512,30.3768744 L41.385124,30.3173702 L41.6231405,30.2876182 L41.7719008,30.2876182 C41.827785,30.2903673 41.8820951,30.2686388 41.9206612,30.2281017 C41.9801653,30.1983496 41.9504132,30.1388455 41.9801653,30.1090934 C41.9599609,30.0517666 41.9498932,29.9913594 41.9504132,29.9305785 Z" id="Shape" fill="#A0A0A3"></path>
            <path d="M41.9504132,31.1801529 C41.9544265,31.1151906 41.9330971,31.0512024 41.8909091,31.0016405 C41.8581299,30.9702817 41.8166541,30.9495395 41.7719008,30.942124 C41.7421488,30.942124 41.5636364,30.971876 41.5636364,30.971876 L41.2958678,31.001643 C41.2363636,31.001643 41.2363636,31.031395 41.2066116,31.031395 C41.0343658,31.053528 40.8648697,31.0934095 40.7008264,31.1504033 C40.5155477,31.1872641 40.3356288,31.2472371 40.1652893,31.3289157 C39.9592735,31.400046 39.7601147,31.4896674 39.5702479,31.5966843 C39.5107438,31.6264364 38.8859504,31.923957 38.6181818,32.0727174 L38.231405,32.4594793 L38.231405,32.5190083 L37.9338843,32.5190083 L37.9338843,32.5487603 L37.1900826,32.7867769 L37.1900826,32.8760331 L37.1008264,32.9355372 L37.1008264,32.9950413 L36.7438017,33.6198347 L36.6842975,33.6198347 L36.6842975,33.6793388 C36.6842975,33.6793388 36.6247934,33.768595 36.5355372,33.9173554 L34.9884298,34.8991736 L34.9586777,34.8991736 L34.6909091,35.107438 L34.5421488,35.7619835 L34.3933884,35.9107438 L33.768595,38.1719008 L33.8578512,38.4396694 L32.9652893,38.8561983 L32.8165289,38.8561983 L32.6380165,39.6297521 L32.6082645,39.6595041 L32.3702479,40.3735537 L32.4,40.4033058 L32.3107438,40.9983471 L32.2809917,41.0578512 L32.3107438,41.1173554 L31.4181818,42.4859504 L31.3586777,42.4859504 L31.1504132,42.8429603 L31.1504132,42.9024645 L30.4066116,43.9438041 L29.6330579,44.4198174 L29.6628099,44.4793339 L29.6330579,44.8066066 L29.692562,44.9256149 L29.6033058,44.9553669 L29.0380165,45.2826397 L28.9785124,45.2826397 L28.1454545,45.7586727 L28.0561983,45.9074331 L28.353719,45.9669496 L28.8892562,45.9967017 L29.2760331,46.0264537 L30.5256198,46.0264537 L31.6859504,45.8776934 L32.3702479,45.7289331 L32.9057851,45.5801727 L33.4710744,45.4314124 L34.185124,45.1338744 L34.2446281,45.1041223 L34.4528926,44.985114 C34.7411571,44.8345928 35.0194199,44.6656475 35.2859504,44.4793289 C35.7422021,44.1579864 36.179309,43.8102877 36.5950413,43.4380066 C36.7318547,43.3067023 36.8609941,43.1676292 36.9818182,43.0214777 C37.1180757,42.9000986 37.2472159,42.7709583 37.368595,42.6347008 C37.3983471,42.6049488 37.4280992,42.6049488 37.4280992,42.5454446 C37.4899798,42.4598114 37.5597025,42.3801283 37.6363636,42.3074281 C37.6944923,42.2555953 37.7446231,42.1954384 37.785124,42.1289157 C37.8866907,42.0032277 37.9959936,41.8839932 38.1123967,41.7719058 C38.2242196,41.6956394 38.3160586,41.5935961 38.3801653,41.4743851 C38.5261038,41.2876304 38.6555174,41.0885325 38.7669421,40.8793438 C38.9624359,40.6232934 39.1413151,40.3549747 39.3024793,40.076038 C39.4512397,39.7785174 39.6,39.4809967 39.7785124,39.183476 C39.9272727,38.9454595 40.046281,38.6776909 40.1652893,38.4396744 C40.3438017,37.9933934 40.5520661,37.5471124 40.7008264,37.1305835 C40.8899786,36.668126 41.0392816,36.1903562 41.1471074,35.7024843 C41.2184074,35.328571 41.3178642,34.9605809 41.4446281,34.6016579 C41.4426146,34.5504138 41.4528123,34.4994253 41.4743802,34.4528975 C41.5338843,34.1553769 41.5636364,33.8578562 41.6231405,33.5603355 C41.6528926,33.2925669 41.6826446,33.0247983 41.7421488,32.7272777 C41.7863712,32.5414192 41.8162115,32.3524304 41.831405,32.1619884 C41.831405,31.8942198 41.861157,31.6264512 41.861157,31.3586826 L41.861157,31.2694264 C41.898912,31.2489206 41.9299148,31.2179119 41.9504132,31.1801529 Z" id="Shape" fill="#A0A0A3"></path>
        </g>
    </g>
</svg>