<?xml version="1.0" encoding="UTF-8"?>
<svg width="60px" height="60px" viewBox="0 0 60 60" version="1.1" xmlns="http://www.w3.org/2000/svg" xmlns:xlink="http://www.w3.org/1999/xlink">
    <title>TOR</title>
    <g id="Page-1" stroke="none" stroke-width="1" fill="none" fill-rule="evenodd">
        <g id="TOR" fill-rule="nonzero">
            <path d="M59.9626376,29.9813188 C59.9626376,46.539544 46.539544,59.9626376 29.9813188,59.9626376 C13.4230937,59.9626376 0,46.539544 0,29.9813188 C0,13.4230937 13.4230937,0 29.9813188,0 C46.5370423,0.00603810587 59.9565995,13.4255954 59.9626376,29.9813188" id="Path" fill="#FFFFFF"></path>
            <path d="M29.9813188,58.4036119 C18.5457505,58.390373 8.23061429,51.5283685 3.79919931,40.9863118 C-0.632215673,30.4442551 1.68230523,18.2733006 9.6739703,10.0937109 C14.9357075,4.68847069 22.1384527,1.60877576 29.681505,1.53904158 L30.0013069,1.53904158 C41.4368771,1.55227668 51.7520165,8.4142809 56.1834322,18.9563393 C60.6148479,29.4983976 58.3003245,41.6693542 50.3086554,49.8489426 C45.0469202,55.2541794 37.8441792,58.3338734 30.3011307,58.4036119 C30.181204,58.4036119 30.0812673,58.4036119 29.9813287,58.4036119" id="Path" fill="#000000"></path>
            <path d="M32.7795762,10.4734752 L31.8001861,11.4728515 L29.0219188,11.4728515 L28.0225426,10.4734752 L28.0225426,4.97689901 L29.0219188,3.97752277 L31.780198,3.97752277 L32.7795762,4.97689901 L32.7795762,10.4734752 Z M29.9013703,5.59651287 L29.6015564,5.89632673 L29.6015564,9.51407129 L29.9013703,9.81388515 L30.9207366,9.81388515 L31.2205386,9.51407129 L31.2205386,5.89632673 L30.9207366,5.59651287 L29.9013703,5.59651287 Z" id="Shape" fill="#FFFFFF"></path>
            <path d="M48.8095901,23.4054178 L47.4904099,22.945703 L46.2911584,20.4472594 L46.7508693,19.1280812 L51.7077782,16.7495644 L53.0269564,17.2092792 L54.2262099,19.7077228 L53.766499,21.026903 L48.8095901,23.4054178 Z M51.9676198,18.7083446 L51.5678693,18.5684317 L48.309901,20.1274614 L48.1699861,20.5272119 L48.6097149,21.4466396 L49.0094653,21.5865525 L52.2874218,20.0275228 L52.4273366,19.6277723 L51.9676198,18.7083446 Z" id="Shape" fill="#FFFFFF"></path>
            <path d="M18.0887287,14.6108911 L18.1087188,16.0100218 L16.1699267,17.9887881 L14.770798,18.0087762 L10.8332495,14.1911525 L10.8132614,12.7920238 L12.7320733,10.8132554 L14.131202,10.7932693 L18.0887287,14.6108911 Z M12.5921545,13.2917149 L12.5921545,13.7114515 L15.1905347,16.2298871 L15.6102752,16.2298871 L16.3098396,15.5103347 L16.3098396,15.090598 L13.7114574,12.5721663 L13.2917188,12.5721663 L12.5921545,13.2917149 Z" id="Shape" fill="#FFFFFF"></path>
            <polygon id="Path" fill="#FFFFFF" points="42.9532673 7.15544554 40.0550495 14.0312871 38.8558416 13.5114851 38.5360396 8.63465347 36.8370297 12.6520792 35.5178218 12.1124752 38.4360396 5.23683168 40.0550495 5.91623762 40.0750495 10.1936634 41.6140594 6.57584158"></polygon>
            <path d="M23.7452059,8.7145703 L23.4054178,9.87384752 L25.4841208,11.9325663 L24.0250297,12.5721703 L22.0862376,10.7133287 L21.3866733,11.0331307 L22.3660634,13.2917248 L21.026897,13.8713624 L18.0887287,6.99564356 L21.2867366,5.59651485 L22.6458911,6.13617822 L23.7452059,8.7145703 Z M20.6871109,9.39414653 L21.8663743,8.87447129 C21.9281054,8.75160061 21.9815256,8.62472773 22.0262752,8.49470693 L21.6265248,7.55530099 L21.2267723,7.3954 L20.0475089,7.91507525 L20.6871109,9.39414653 Z" id="Shape" fill="#FFFFFF"></path>
            <polygon id="Path" fill="#FFFFFF" points="48.809505 13.8512871 47.830099 12.8918812 43.7126733 17.0693069 42.6134653 15.970099 46.7308911 11.7926733 45.7514851 10.8332673 46.8708911 9.69386139 49.9289109 12.6920792"></polygon>
            <polygon id="Path" fill="#FFFFFF" points="8.95445545 18.1087129 8.39485149 19.3479208 13.7514851 21.7465347 13.1118812 23.1855446 7.75524752 20.7871287 7.19544554 22.0263366 5.71643564 21.3667327 7.47524752 17.4491089"></polygon>
            <path d="M49.9089109,37.1768317 L49.1693683,38.5759604 L48.6496911,38.2961347 L48.5097762,38.5759604 L48.0500653,39.4554099 L48.1699921,39.8551624 L48.9095327,40.2349228 L48.809596,40.1749604 L49.2093465,40.0550337 L50.088798,38.3760812 L51.4679366,37.9563406 L53.7065505,39.1356059 L54.1262891,40.4747703 L52.8470812,42.9332356 C52.8470812,42.9332356 51.4879287,43.3529762 51.4879287,43.3329861 L50.3686257,42.7333604 L51.1081683,41.3342317 L51.6678158,41.6340455 L52.2674436,40.4747683 L52.1475168,40.0750158 L51.5478891,39.7552139 L51.1481386,39.8751406 L50.2886772,41.5141188 L48.8895485,41.9338594 L48.8895485,41.9338594 L46.6509347,40.7545941 L46.2112059,39.3754554 L47.4904139,36.9169861 L48.8495644,36.5172356 L49.9089109,37.1768317 Z" id="Path" fill="#FFFFFF"></path>
            <path d="M11.5128257,42.3336198 L10.3335604,42.0737842 L8.43474851,44.292398 L7.6952099,42.8932693 L9.41413861,40.8345505 L9.0543604,40.1549762 L6.85573069,41.2942653 L6.17615446,40.0150574 L12.8120198,36.5772 L14.4310099,39.6752693 L13.9712871,41.0544218 L11.5128257,42.3336198 Z M10.6133861,39.3354911 L11.2130139,40.4747802 L11.6127644,40.5947069 L12.512204,40.1150079 L12.6321287,39.7152554 L12.032503,38.5759663 L10.6133861,39.3354911 Z" id="Shape" fill="#FFFFFF"></path>
            <path d="M21.2867327,51.3679921 L20.2074059,53.9463861 L18.9082158,53.4067188 L21.7864218,46.4910277 L24.9444535,47.8102059 L25.4641307,49.1693564 L24.4247802,51.6877881 L23.3854277,52.2474376 L21.2867327,51.3679921 Z M21.8463842,50.0288257 L22.9057248,50.4685525 L23.2854871,50.3086554 L23.6852376,49.3692376 L23.5253366,48.9894772 L22.465996,48.5497485 L21.8463842,50.0288257 Z" id="Shape" fill="#FFFFFF"></path>
            <polygon id="Path" fill="#FFFFFF" points="32.619604 50.0687129 31.2605941 50.0887129 31.320396 55.9651485 29.7613861 55.9851485 29.7015842 50.1087129 28.3423762 50.1287129 28.3223762 48.509703 32.619604 48.469703"></polygon>
            <path d="M41.3142574,52.5272673 L40.7546059,53.8064752 L38.1562376,54.7858594 L36.8770297,54.2062218 L34.9382376,49.0694198 L35.5178752,47.7902119 L38.0962673,46.8108238 L39.3754752,47.3904614 L41.3142574,52.5272673 Z M36.8970099,48.9894772 L36.7171228,49.3692376 L37.9963307,52.7671208 L38.3760931,52.9470079 L39.315499,52.5872337 L39.4953842,52.2074733 L38.2161762,48.8295782 L37.8364139,48.6496911 L36.8970099,48.9894772 Z" id="Shape" fill="#FFFFFF"></path>
            <path d="M46.7908455,45.2917802 L46.8108455,46.4910337 L49.4092257,47.8501842 L48.2099723,48.8695505 L45.8114673,47.6503089 L45.2318297,48.149996 L46.8308396,50.0288257 L45.7315248,50.9682317 L40.8945386,45.2717822 L43.5528713,43.013202 L45.0119604,43.1531168 L46.7908455,45.2917802 Z M44.0725386,46.8108356 L45.0519267,45.9713564 L45.091905,45.5516158 L44.4323188,44.772103 L44.0125782,44.7321248 L43.0331901,45.571604 L44.0725386,46.8108356 Z" id="Shape" fill="#FFFFFF"></path>
            <path d="M15.1105842,51.4279525 L13.9513069,50.3486277 L14.4909683,49.2493129 L12.8919584,47.7702356 L11.8326178,48.4098396 L10.6533525,47.3305129 L17.4091426,43.2730436 L18.5884059,44.3523683 L15.1105842,51.4279525 Z M15.1505604,47.8701723 L16.1699267,45.7914693 L14.1911584,46.9707327 L15.1505604,47.8701723 Z" id="Shape" fill="#FFFFFF"></path>
            <path d="M35.7976812,45.0119564 C35.8176858,45.0519327 35.8376739,45.0719168 35.8576594,45.0719168 C35.9451301,45.0649379 36.031974,45.0515763 36.117497,45.0319386 L36.277398,44.9519901 L36.757099,44.772103 L37.9363624,44.2124535 L38.1362376,44.1125168 L38.2361762,44.0725386 L38.356103,43.9925901 L38.5559782,43.8726634 L38.7958277,43.7327485 L39.1156297,43.5328733 L39.6752812,43.1331208 L39.9551069,42.9132574 L40.3348673,42.6334337 L40.6946455,42.373598 L40.8545465,42.2536713 L41.094396,42.0338059 L41.3342495,41.7939545 L41.734,41.3742139 L42.1937109,40.9344891 L42.7133881,40.3348614 L42.9932119,39.955101 L43.0931505,39.8151881 L43.4129525,39.4354257 L44.0125782,38.5559743 L44.1724772,38.2761505 L44.5722277,37.4766495 L44.7920911,37.0369228 L45.1918416,36.2374218 L45.4117069,35.7577208 L45.6515604,35.0181822 C45.6515604,35.0181822 45.9313842,34.0387941 46.071299,33.5191168 C46.0960421,33.4664238 46.0882635,33.4041968 46.0513109,33.3592158 C45.9713624,33.2392891 45.911396,33.0993782 45.8314455,32.9594653 C45.7914693,32.899501 45.7315089,32.8195525 45.6915307,32.7595901 C45.6515525,32.6996277 45.5516158,32.579703 45.5116436,32.5197406 L45.3717287,32.3798277 C45.251802,32.259901 45.1318772,32.1399782 45.0319386,32.0600257 C44.9778852,32.0385535 44.9298664,32.0042546 44.8920238,31.9600871 C44.5742988,31.7087835 44.2248381,31.5004516 43.8526693,31.3404733 C43.692771,31.2805089 43.5328706,31.2205465 43.3729683,31.1605861 C43.2354668,31.1178549 43.0952343,31.084466 42.9532297,31.0606475 C42.8936346,31.0372682 42.8263471,31.0447492 42.7733426,31.0806475 C42.7133822,31.1206218 42.7133822,31.2005743 42.7133822,31.2805228 C42.6933941,31.480398 42.6933941,31.7002614 42.673404,31.9201267 C42.6534139,32.1399921 42.6334277,32.3398673 42.6134436,32.5597307 C42.5934554,32.7596059 42.5934554,32.9394931 42.5734673,33.1393683 C42.5530535,33.3952477 42.5129594,33.6491744 42.4535406,33.898895 C42.3735921,34.3586099 42.2736535,34.838301 42.1737149,35.2980238 C42.1592833,35.4288414 42.1256077,35.55681 42.0737782,35.6777861 C41.9928603,35.8776553 41.9325847,36.0852723 41.8938911,36.2974 C41.8001874,36.7351687 41.6663723,37.1633791 41.4941406,37.5766079 C41.3851981,37.9250542 41.2377104,38.2602546 41.0544158,38.5759861 C41.0390463,38.5919339 41.0316971,38.6139675 41.0344158,38.6359485 C40.9344792,38.8558139 40.8545287,39.0756733 40.7545921,39.2755525 C40.6800296,39.4046839 40.6132845,39.5381741 40.5547168,39.675303 C40.4734301,39.8483008 40.3799187,40.0152861 40.2748931,40.1749901 C40.1149921,40.4348297 39.935105,40.6746792 39.7951921,40.9345188 C39.6936355,41.115121 39.5801198,41.2887325 39.455404,41.4541921 C39.4173316,41.493305 39.3898214,41.5414502 39.3754554,41.5941089 C39.2870276,41.7418959 39.186761,41.8822688 39.0756416,42.0138475 C38.8757663,42.2736832 38.655903,42.5335248 38.4360376,42.7933604 C38.2961248,42.9532594 38.1562139,43.0931743 38.016297,43.2530713 C37.8963723,43.3929881 37.7564594,43.532897 37.6165465,43.6728119 C37.5873481,43.7042319 37.5536732,43.7311715 37.5166099,43.7527604 C37.4318486,43.8133909 37.3516802,43.8801977 37.2767584,43.9526356 C37.1157839,44.1267789 36.9346177,44.2811054 36.737097,44.4123465 C36.6571465,44.4723069 36.5572099,44.5322733 36.4772574,44.5922337 C36.2682514,44.7587063 36.0401102,44.8996199 35.7976812,45.0119802" id="Path" fill="#BD1B21"></path>
            <path d="M46.3111465,32.4397881 C46.3220107,32.4290145 46.3290337,32.4149693 46.3311347,32.3998139 C46.334344,32.359338 46.3410354,32.319214 46.3511347,32.2798871 L46.4710594,31.2605208 L46.5310198,30.3011149 L46.5310198,29.2217901 L46.4110931,28.1424634 C46.4110931,28.1424634 46.2711782,27.1630752 46.1712416,26.6833723 C46.1376522,26.5318872 46.0336491,26.4055978 45.8914158,26.3435842 C45.8394084,26.3203085 45.7860068,26.3002826 45.7315188,26.2836218 C45.6315802,26.2436455 45.5116535,26.2036713 45.4117168,26.163695 C45.1718634,26.1037307 44.9320158,26.0237822 44.6921644,25.9838079 C44.3923505,25.9438337 44.1125267,25.9038594 43.8127129,25.8838693 C43.5728594,25.8638812 43.3330139,25.843895 43.0931604,25.843895 L42.5934653,25.843895 C42.4935287,25.843895 42.373602,25.843895 42.3336297,25.9038594 C42.3029743,26.0014425 42.3029743,26.1060783 42.3336297,26.2036614 C42.3736079,26.4435129 42.4135782,26.5634376 42.4535564,26.783299 C42.5892636,27.4691766 42.6760938,28.1638253 42.7133921,28.862004 C42.7333802,29.1818059 42.7533703,29.5016079 42.7533703,29.8014099 L42.7533703,30.0412594 C42.7547234,30.0968579 42.7683758,30.1514664 42.7933465,30.2011604 C42.8208306,30.2398857 42.8658027,30.2623713 42.9132733,30.2611228 C42.9732337,30.2811228 43.0332,30.2811228 43.0931604,30.301097 C43.1531208,30.3210713 43.2730475,30.3410733 43.3330139,30.3610614 C43.6128376,30.460998 43.9126515,30.5609366 44.1724931,30.6608752 C44.3648471,30.742058 44.551782,30.8355254 44.7321406,30.940699 C44.7521406,30.9606871 44.7721188,30.9606871 44.792101,30.9806733 C44.8920396,31.0606218 45.0119663,31.1405743 45.111903,31.2205228 C45.3827991,31.3880008 45.625626,31.5971015 45.8314574,31.8401386 C45.8714337,31.8801129 45.9114059,31.9400752 45.9513822,31.9800515 C46.0313327,32.0400139 46.1512594,32.2998535 46.251196,32.3997901 C46.2911624,32.4197782 46.2911624,32.4397881 46.3111505,32.4397881" id="Path" fill="#BD1B21"></path>
            <path d="M39.0956436,20.9469485 C39.1827492,20.9510408 39.2700263,20.944327 39.3554812,20.9269604 C39.4154455,20.9269604 39.4554198,20.9269604 39.4953941,20.866996 C39.5071812,20.8165838 39.4920604,20.763661 39.4554198,20.7270851 C39.4354317,20.6871109 39.2555446,20.3473228 39.2555446,20.3473228 L39.0756574,20.067497 L38.3161307,18.9681822 L38.1562297,18.788297 L38.0163168,18.5884198 L37.7764673,18.308596 L37.1568515,17.6290218 L36.8970139,17.3691822 L35.9376079,16.4897307 L35.158095,15.890099 L34.8782713,15.7501861 L33.9588416,15.1905347 L33.3192376,14.8507465 L33.1993109,14.7907842 L32.6796337,14.5909089 L31.9001248,14.3110891 L31.8401604,14.291101 L31.6003109,14.2311386 L31.5403485,14.2111505 L31.3204832,14.1511881 L30.8607703,14.0712376 L30.640905,14.0712376 L30.2211663,13.9912871 L29.7214772,13.9513129 L29.5415901,13.9313248 L29.2417822,13.9313248 L28.722103,13.9513129 L28.2224158,14.0112752 L27.8226634,14.0112752 L27.4828772,14.0512495 L27.123101,14.1312 L26.8432752,14.2111505 L26.4035505,14.291101 L26.3036119,14.291101 L25.8838733,14.4310139 L25.6440238,14.4909762 L25.5041109,14.5709267 L25.1443347,14.6708653 L24.9644475,14.770802 L24.7445842,14.8507525 L24.2049208,15.0706158 L23.5253465,15.3304554 L23.3054832,15.4303921 L22.8257822,15.6902297 L22.4060436,15.9700535 L22.0262812,16.1699287 L21.8863683,16.2498792 L21.4666297,16.4697426 L21.4066653,16.5097168 L20.9269663,16.8894792 L20.5272158,17.1493188 L20.4472653,17.2092812 L20.0075406,17.5690574 L19.8476396,17.7089703 C19.8476396,17.7089703 19.6077901,17.9088455 19.6077901,17.9488198 L19.7676911,17.8888574 C19.7676911,17.8888574 20.067503,17.7689307 20.0874931,17.7689307 L20.1474554,17.7689307 L20.5871822,17.5890436 L20.6471446,17.5890436 L21.1268436,17.3891683 L21.3866832,17.3092198 L21.6465228,17.2092812 L22.006299,17.0893545 L22.8857485,16.7495663 L22.965699,16.7495663 L23.4054238,16.5896653 L23.7652,16.4497545 L23.8051743,16.4897287 L24.4847505,16.5097168 L24.9244752,16.5496911 L24.9444634,16.5496911 L25.8239149,16.6096554 L25.8239149,16.6096554 L27.0431564,16.6696178 L27.0431564,16.6896178 L27.4828812,17.0693782 L27.5228554,17.0693782 L27.9625743,17.4891089 L28.0025485,17.4691208 L28.6021782,17.4891089 L28.6221663,17.4691208 L30.1412218,17.5490693 L30.1412218,17.5890436 L30.820798,17.9887941 L30.8407861,17.9887941 L32.0400396,18.5684317 L32.0400396,18.628396 L32.7196139,18.3685564 L33.7189921,18.7083446 L33.8788931,18.9881683 L34.2386693,19.0081564 L34.5984455,19.4079089 L34.6384198,19.4079089 L34.9182436,19.7277109 L34.9182436,19.747699 L34.9582178,19.747699 L35.7377307,19.9275861 L36.0375446,20.3673109 L36.757097,20.6271505 C37.1455978,20.7281989 37.5392556,20.8082646 37.9363624,20.867 C38.3156646,20.9578669 38.7074584,20.9848865 39.0956436,20.9469485" id="Path" fill="#BD1B21"></path>
            <path d="M45.8914059,25.5640693 C45.864691,25.4424083 45.8313288,25.3223028 45.7914693,25.2042931 L45.7514911,25.0843663 L45.7115149,24.9244653 L45.5915881,24.544703 L45.4716614,24.2049168 L45.091899,23.3654396 L44.932,22.9656891 L44.7121366,22.4859901 L44.452301,22.0662495 L44.3923406,21.9463228 L44.2124535,21.6065347 L44.0525564,21.346697 L43.992596,21.2667485 L42.8932812,19.7876713 C42.8932812,19.7876713 42.7933426,19.6677446 42.7333822,19.6077842 C42.7133941,19.5678106 42.6934073,19.5478198 42.6734218,19.5478198 L42.6734218,19.5478198 C42.6734218,19.5478198 42.3336317,20.0874832 42.1937228,20.2473842 C42.0538139,20.4072851 41.7739842,20.6671248 41.7739842,20.6671248 C41.7739842,20.6671248 41.5341307,20.867 41.4941584,20.8869881 C41.4243435,20.938871 41.3508636,20.9856309 41.274295,21.026901 L41.0344455,21.1668139 C41.0344455,21.1668139 40.8545584,21.2467624 40.8145802,21.2667505 C40.774602,21.2867386 40.7546178,21.2867386 40.7346317,21.3067248 C40.7146436,21.3267109 40.7146436,21.346699 40.7146436,21.3866733 C40.7146436,21.4266475 40.7346317,21.4466376 40.7546178,21.4866119 C40.8545545,21.7064752 40.9544931,21.9063525 41.0544198,22.1262158 C41.2081107,22.4371126 41.3416373,22.7575767 41.4541723,23.0856218 C41.502844,23.1887557 41.542954,23.2957166 41.574097,23.4054238 C41.6740356,23.6852475 41.7539842,23.9650752 41.8339327,24.244899 C41.8739109,24.3648257 41.9138832,24.4847505 41.9538594,24.6246614 C41.9938376,24.7445881 42.0138198,24.884501 42.053798,25.0044238 C42.0696213,25.0787513 42.1379099,25.1299695 42.213695,25.1243505 L42.4535485,25.1243505 C42.7533624,25.1243505 43.0331861,25.1043624 43.333,25.1043624 C43.4129485,25.1043624 43.9925861,25.1643248 43.9925861,25.1643248 C43.9925861,25.1643248 44.1924614,25.1843129 44.2924,25.204299 C44.5122634,25.2442733 44.7321267,25.3042376 44.9519861,25.3442119 C45.1382585,25.3829818 45.3193713,25.4433523 45.4916515,25.524099 C45.5752128,25.5598066 45.6623061,25.5866042 45.7514871,25.6040475 C45.7786882,25.6082691 45.8054483,25.6149594 45.8314356,25.6240356 C45.8714079,25.6040541 45.8914059,25.5840673 45.8914059,25.5640752" id="Path" fill="#BD1B21"></path>
            <path d="M42.0737842,19.0681188 C42.0554692,19.0110434 42.028506,18.9571158 41.9938356,18.9082178 L41.9338752,18.8082812 L41.7739762,18.6283941 L41.6740396,18.4684931 L41.4741644,18.2686178 L41.414204,18.2086554 C41.0744158,17.9288297 40.3748515,17.3691782 40.3748515,17.3691782 L40.1749762,17.2092772 L39.8152,16.8894752 L38.0163208,15.8101485 L36.597204,15.1305723 L35.8376772,14.8307584 L35.5578515,14.7308218 L34.6184455,14.4110198 L33.9588554,14.2511188 L33.3192515,14.1112079 L33.2193129,14.1112079 L33.1593505,14.1711703 L33.1793386,14.1911584 C33.2092909,14.2116996 33.2434212,14.2253514 33.2792772,14.2311327 L33.878903,14.4709822 C34.0017733,14.5327126 34.1286455,14.5861328 34.2586653,14.6308832 C34.3494988,14.6519695 34.4369523,14.6856055 34.518505,14.7308218 L35.4179446,15.2704851 C35.5973369,15.3792386 35.764817,15.5065235 35.9176317,15.6502475 C36.0305344,15.760795 36.1583634,15.8549851 36.2973941,15.9300733 C36.3573584,15.9700475 36.4173208,16.0300099 36.4772812,16.0699842 C36.5172554,16.0899842 36.5372455,16.1299485 36.5772198,16.1499327 C36.759376,16.2856158 36.9329354,16.4324737 37.096897,16.5896594 C37.2599851,16.7727346 37.4334991,16.9462486 37.6165743,17.1093366 C37.7915222,17.2680409 37.9520507,17.4419479 38.0962733,17.6290139 C38.2120249,17.7846081 38.3389476,17.9315713 38.4760356,18.0687386 C38.7358752,18.3285782 38.9357505,18.6283921 39.1756,18.9082158 C39.1951083,18.952517 39.2221594,18.993095 39.2555485,19.0281426 C39.4154495,19.2679921 39.5553624,19.5278297 39.7352495,19.747695 C39.8598589,19.9062526 39.97339,20.0732114 40.0750356,20.2473842 C40.1343969,20.3583566 40.2011741,20.4651997 40.2749129,20.5671861 C40.3055569,20.6152304 40.3578741,20.6451256 40.4148238,20.6471347 C40.4506798,20.6413533 40.4848101,20.6277016 40.5147624,20.6071604 L40.6346891,20.547196 C40.6346891,20.547196 40.7945901,20.4672475 40.8545525,20.4472594 C40.931843,20.4151031 41.0055369,20.3749064 41.0744178,20.3273327 C41.1143921,20.2873584 41.2942812,20.1674317 41.3742198,20.0874832 C41.4762627,19.9888845 41.5698654,19.8819097 41.6540455,19.7676812 L41.7939604,19.5877941 L42.0338139,19.1880436 C42.0533595,19.1504192 42.0668468,19.1099468 42.0737842,19.0681188" id="Path" fill="#BD1B21"></path>
            <path d="M41.3142574,25.0643822 C41.2143208,24.7645683 41.1343703,24.4847446 41.0344337,24.1849307 C40.959911,23.9408845 40.8731888,23.7007317 40.7745941,23.4653782 C40.7146317,23.3254653 40.6746574,23.1655644 40.6146931,23.0256515 C40.594705,22.945703 40.5547307,22.8857406 40.5347446,22.8057881 C40.3884592,22.4499486 40.2216148,22.1029126 40.0350554,21.7664356 C40.0350554,21.7464475 40.0150673,21.7264614 39.9950812,21.7064733 C39.9793632,21.6707664 39.9508396,21.6422428 39.9151327,21.6265248 C39.8751584,21.6065347 39.8351842,21.6265248 39.7552317,21.6265248 C39.5953307,21.6465129 39.4154436,21.666499 39.3354911,21.666499 C39.2555386,21.666499 38.9557307,21.6864871 38.7158772,21.7064733 L38.6559129,21.6864851 L38.3561109,21.6864851 L37.576598,21.5865465 C37.2967723,21.5465723 36.6371921,21.3866713 36.6371921,21.3866713 L36.1574911,21.2267703 L35.5778535,21.026895 L35.5378792,21.0468832 L34.6184515,20.9669347 L34.5984515,20.9869228 L34.0787743,20.5871723 L34.0188119,20.5871723 L33.6990099,20.2873584 L33.6790218,20.227396 L33.3192436,20.1674317 L33.2792693,20.1874218 L32.9794673,20.0874832 L32.9394931,20.0475089 L32.2599168,20.0874832 L31.640301,19.8476337 L29.5216198,19.9675604 L29.4816455,19.9475723 L29.081895,19.9675604 L29.0419208,20.0075347 L28.0025683,20.0874832 L27.9825802,20.067495 L26.503503,20.9269604 L26.4835149,20.9869228 L26.4235505,21.0468871 L26.3835762,21.026897 L25.6440376,20.9469485 L25.6040634,20.9669366 L24.2848832,20.9669366 L24.264895,20.9469485 L23.8851327,20.9269604 L23.7652059,20.866996 L22.3860673,21.9463228 L22.3860673,21.9663109 L21.9063683,22.3460733 L21.366705,22.0862356 L21.3267307,22.1062238 L21.1268535,22.0462614 C21.1268535,22.0462614 20.1274772,22.306099 20.1474653,22.306099 L19.2080594,22.1661881 L19.148097,22.1062238 L18.9682099,22.2861109 L18.5884475,22.465998 L18.5884475,22.5059723 L17.8489089,23.0656238 L16.7895446,23.8251485 L15.590297,24.704602 L15.0506297,25.1043564 L15.0306416,25.3242218 L14.8107782,25.843899 L14.7108416,26.2836238 L14.5709287,27.1830634 L14.4909782,27.5828139 L14.451004,28.0625149 L14.3310792,29.041903 L14.2711149,31.2005584 L14.3310792,31.3204851 L14.3710535,31.9201109 C14.3710535,31.9201109 14.3710535,32.0200495 14.4110277,32.0200495 L14.4110277,32.0200495 L17.0493842,29.3017406 L17.9088475,28.9619545 L18.628402,28.9219802 L19.0681267,28.4222911 L19.108101,28.3223525 L19.1680653,28.3423426 L20.3473287,28.2024297 L20.4072911,28.1624554 L20.8470178,28.1624554 L20.9069802,28.1824436 L21.0468931,28.0025564 L21.5865564,27.6827545 L22.1462079,27.283004 L23.7452178,27.3029921 L23.7652059,27.3429683 L24.3848218,27.4029307 L24.8645208,27.3029921 L25.7639604,26.3835644 L25.7839485,26.3835644 L26.503503,25.7039901 L27.5628436,25.5640772 L27.6028178,25.5440891 L27.6427921,25.5840634 L28.2024436,25.843901 L28.2424178,25.8039267 L28.7421069,25.7439644 L28.762095,25.7239644 L29.2218099,25.6440158 L29.2617842,25.6240277 L29.7614733,26.0437663 L29.7814614,26.0037921 L30.8208139,25.983804 L30.9007624,25.9238396 L31.7202535,25.9638158 L31.7602277,25.983804 L31.8801545,25.9438297 L31.9001426,25.9038554 L32.2399307,25.7639426 L32.279905,25.7639426 L32.6596673,25.5840554 L32.6996416,25.5440812 L33.0993921,25.3841802 L33.1193802,25.3442059 L34.2386851,24.9044812 L34.2386851,24.8844812 L34.4385604,24.8245188 L34.4785347,24.7845446 L34.538499,24.8445069 L34.858301,25.0044079 L34.9582376,25.0044079 L35.3180139,25.2042832 L35.338004,25.1643089 L35.4579287,25.1043465 L35.4779188,25.1043465 L35.657804,25.024398 L35.657804,25.0044079 L35.9176436,24.9444455 L36.5972198,25.1243327 L36.7371307,25.0843564 L36.8570574,25.1643069 L37.3567465,25.2442554 L37.8364455,25.4241426 L38.1162713,25.4041525 L38.2162079,25.4641168 L38.2961564,25.4241426 C38.2961564,25.4241426 39.2555624,25.3042158 39.7352594,25.2642416 C40.0550614,25.2442416 40.3548752,25.2042772 40.6746653,25.1842911 C40.8545525,25.164303 41.0344436,25.1443168 41.1943446,25.1243287 C41.3142574,25.2242673 41.3542297,25.1842911 41.3142574,25.0643663" id="Path" fill="#BD1B21"></path>
            <path d="M42.0138238,29.9613307 C42.0138238,29.9013663 41.9938356,29.8613921 41.9938356,29.7814436 C41.9768284,29.5954062 41.9701515,29.4085689 41.9738356,29.2217921 C41.9738356,29.1618277 41.9538475,29.1018653 41.9538475,29.041905 C41.9338594,28.8220416 41.9338594,28.5821901 41.9138693,28.3623287 C41.8938812,28.0625267 41.8339208,27.7826911 41.7939446,27.5028653 C41.753967,27.283 41.7139914,27.0631366 41.6740178,26.8432752 C41.6340396,26.6034257 41.5940673,26.4035485 41.534103,26.163699 C41.4741386,25.9238495 41.4341644,25.9038614 41.1943109,25.9238495 C41.1723318,25.9211282 41.1502987,25.9284729 41.1343485,25.9438376 C41.0544,25.9638376 40.9144832,25.9638376 40.8345347,25.9838119 C40.3748198,26.0437762 39.935095,26.0637624 39.455396,26.1237248 L38.1162297,26.5834396 L36.1774396,26.5234752 L35.9575743,26.4635129 L35.9575743,26.5034871 L35.3779366,26.9232277 L35.2979881,26.9232277 L34.8382733,27.3429663 L34.8182851,27.4029307 L33.6590079,27.5628317 L32.5996673,28.3823208 L32.4797406,28.3823208 L31.9200891,28.7221089 L31.7002238,28.742097 L31.4803604,28.9219842 L31.420396,28.8820099 L30.3410693,28.8020614 L30.1611842,29.0219248 L30.1611842,29.061899 L29.2217782,30.0812653 L29.2017881,30.1412297 L29.1618139,30.1412297 L27.9625604,31.5003822 L27.6427584,31.5003822 L27.6227703,31.5403564 L26.6433822,31.7002574 L26.5634337,31.7002574 L26.5434337,31.7402337 L24.9244416,32.6396713 L24.2048891,32.5597228 L24.0449881,32.6196871 L23.3254356,32.5797129 L22.6058832,33.3592257 L22.1861426,33.4391743 L21.9462931,33.4191861 L21.6864535,33.5191228 L21.5265525,33.4991347 L21.5265525,33.5391089 L20.647103,34.2186832 L20.5671525,34.2386832 L19.1880139,35.3180099 L19.208002,35.3779723 L18.3485366,37.4566752 L18.3885129,37.5366257 L16.969396,37.6565505 L16.5096812,38.056303 L16.4697069,38.216204 L17.1093109,39.0956535 L17.5690257,39.8152059 L17.9687762,40.3348851 L18.6283663,41.0544376 C18.6282751,41.0760759 18.6352982,41.0971444 18.6483545,41.1144 C18.6683426,41.1144 18.728303,41.1144 18.728303,41.1344 L19.1280554,41.2743149 L19.6077545,41.4342119 C19.607641,41.4395472 19.6097104,41.4446977 19.6134837,41.4484714 C19.617257,41.452245 19.6224072,41.4543149 19.6277426,41.454202 L19.6677228,41.454202 L20.4672257,41.774004 L20.5271881,41.774004 L20.5671624,41.8339624 L20.6471129,41.8339624 L20.826998,41.9538891 L21.1667861,41.774004 L21.1867762,41.774004 L21.3466772,41.6740653 L22.5659188,41.9738792 L23.4653564,41.5141663 L25.4441228,41.3142911 L26.2636139,40.015101 L26.6233901,39.6553248 L26.6633663,39.6553248 L26.9431921,39.3954871 L26.9431921,39.3555109 L27.4428792,38.895798 L27.6827307,38.6559485 L27.7426931,38.6159723 L28.0225168,38.3361485 L28.2423822,38.1162851 L28.3023446,38.0962851 L28.2423822,37.8964099 L28.4622455,37.0569347 L28.9019703,36.9170218 L28.9219703,36.8970337 L29.0618812,36.8770337 L29.0618812,36.7970851 L29.6615089,35.8376792 L29.7214713,35.8176792 L29.9613208,35.3379802 L30.3610733,35.1181168 L30.4210356,35.0581525 L30.5009842,35.0781406 L30.7408356,34.9382297 L30.7608238,34.9382297 L31.2005485,34.7383545 L31.2405228,34.6783901 L32.699604,34.0188119 L32.7795525,34.0188119 L32.7995406,33.9388634 L32.859505,33.8988891 L32.9994158,33.3992 L33.4591307,33.1993248 L33.9987941,33.1393624 L34.4784931,32.7995743 L35.1580693,32.8195624 L35.2180317,32.8795267 L35.2580059,32.8395525 L36.2174119,32.4198119 L36.2174119,32.2998851 L36.4572614,31.8601604 L36.9369604,31.7402337 L36.9569505,31.7002594 L37.5965545,31.5603465 L37.836404,31.2605446 L37.8763782,31.2605446 C37.9252169,31.2090414 37.9787487,31.1622013 38.0362792,31.1206317 L38.4760059,31.1805941 L38.4959941,31.2005842 L38.7358436,31.2405584 L38.8957446,31.2605465 C38.8957446,31.2605465 39.5553347,30.9607327 39.8151743,30.8408079 C39.935099,30.8008317 40.0350376,30.7608574 40.1549604,30.7208812 C40.3148614,30.6609168 40.4547743,30.6209426 40.6146752,30.5609802 C40.6946238,30.5409802 40.7745762,30.5210059 40.8345386,30.5010158 L41.1343525,30.4410535 L41.4941267,30.3810891 L41.7139901,30.361101 C41.7601642,30.3515175 41.8068944,30.3448417 41.853905,30.3411129 C41.9039979,30.3468502 41.9543203,30.3324731 41.9938218,30.3011386 C42.033798,30.2611644 42.033798,30.2211881 42.0537802,30.1812119 C42.0271651,30.1109706 42.0136247,30.0364529 42.0138277,29.9613386" id="Path" fill="#BD1B21"></path>
            <path d="M41.9938356,31.2405347 C42.002131,31.1777344 41.9879717,31.1140226 41.9538574,31.0606475 C41.9210958,31.0286671 41.8791721,31.0077056 41.8339307,31.0006851 C41.7939545,31.0006851 41.6340554,31.0206733 41.6340554,31.0206733 L41.3542317,31.0606475 C41.3196882,31.0575566 41.2849867,31.0645012 41.2542931,31.0806475 C41.0943921,31.1206218 40.914505,31.160596 40.754604,31.2005743 C40.5709186,31.2484746 40.3906316,31.3085696 40.2149426,31.3804594 C40.0350554,31.4604099 39.8151901,31.5203723 39.635305,31.6203109 C39.5753406,31.6602851 38.9357406,31.960097 38.6559149,32.1000099 L38.2961386,32.4797723 L38.2761505,32.5597208 L38.2361762,32.5397327 L38.0163109,32.5597208 L37.9963228,32.5797089 L37.2567842,32.8195604 L37.2567842,32.8995089 L37.1768356,32.9794614 L37.1768356,33.0194356 L36.8370475,33.6190614 L36.7970733,33.6190614 L36.7970733,33.6790257 C36.746182,33.7564172 36.6994773,33.836482 36.6571604,33.9188752 L35.0981327,34.9182515 L35.0581564,34.9182515 L34.8183069,35.1181267 L34.6584059,35.7777168 L34.498505,35.9176297 L33.8988792,38.1762218 L33.9788277,38.4360614 L33.0793881,38.8757861 L32.9394772,38.8757861 L32.7595901,39.655299 L32.7395901,39.675299 L32.5197267,40.3948515 L32.5397149,40.4348257 L32.4397782,41.0544416 L32.399804,41.0944158 L32.4197921,41.1543782 L31.5603267,42.5335208 L31.5003644,42.5535109 L31.280499,42.893301 L31.280499,42.9532614 L30.5409604,43.9926158 L29.7614475,44.4523267 L29.8014218,44.5122871 L29.7614475,44.8320891 L29.8214119,44.9520158 L29.7014851,44.9919921 L29.1418317,45.3317842 L29.0818693,45.3117842 L28.2423941,45.8114733 L28.1424554,45.9713723 C28.2475989,45.9945099 28.3546538,46.0078921 28.4622574,46.0113485 L29.0019208,46.0513267 L29.361697,46.0713149 L30.6209168,46.0713149 L31.7801941,45.9314 L32.4797584,45.8114733 L32.9994356,45.6715584 L33.5590871,45.5116614 L34.2786396,45.2318356 L34.338604,45.1918594 L34.5384792,45.0719327 C34.8286179,44.9233395 35.1090098,44.7564394 35.3779564,44.5722436 C35.8176812,44.2324535 36.277396,43.8926673 36.6971347,43.512905 C36.8370475,43.3729901 36.9769584,43.2530693 37.1168752,43.1131545 C37.2567861,42.9932277 37.3767129,42.8533188 37.5166257,42.713404 C37.5366139,42.6934158 37.5765881,42.6734257 37.5765881,42.6334554 C37.6251477,42.5343369 37.6931163,42.4459785 37.7764634,42.3736198 C37.8352407,42.3187594 37.8887729,42.2585362 37.9363644,42.1937327 C38.0335905,42.0596171 38.1478066,41.938683 38.2761525,41.8339584 C38.3684048,41.7390547 38.4551594,41.6389576 38.5359921,41.5341564 C38.675903,41.3342812 38.7958297,41.1344059 38.9357426,40.9345307 C39.1156297,40.6746911 39.2955188,40.4148515 39.4554198,40.1350277 C39.6153208,39.8352139 39.7752218,39.535402 39.9351188,39.2555762 C40.0750317,39.0157267 40.2149446,38.7558891 40.3348713,38.4960495 C40.5147564,38.0563248 40.7146337,37.6365842 40.8745347,37.1768713 C41.0539458,36.7078243 41.2008684,36.2269876 41.3142614,35.7377683 C41.4142,35.3779921 41.4741604,34.9982297 41.5940871,34.6584416 C41.6140752,34.6184673 41.6140752,34.558503 41.6340634,34.5185287 C41.6940238,34.2187267 41.734002,33.918903 41.7739802,33.6390792 C41.8139584,33.3592554 41.8539287,33.0794257 41.893905,32.799602 C41.913905,32.5997267 41.9538653,32.4198396 41.9738554,32.2199644 C41.9938436,31.9601267 42.0138317,31.680301 42.0138317,31.4204634 L42.0138317,31.3405129 C42.0029978,31.3081644 41.9962783,31.2745811 41.9938317,31.2405545" id="Path" fill="#BD1B21"></path>
        </g>
    </g>
</svg>
