<?xml version="1.0" encoding="UTF-8"?>
<svg width="60px" height="60px" viewBox="0 0 60 60" version="1.1" xmlns="http://www.w3.org/2000/svg" xmlns:xlink="http://www.w3.org/1999/xlink">
    <!-- Generator: Sketch 43.2 (39069) - http://www.bohemiancoding.com/sketch -->
    <title>Slice</title>
    <desc>Created with Sketch.</desc>
    <defs></defs>
    <g id="Page-1" stroke="none" stroke-width="1" fill="none" fill-rule="evenodd">
        <g id="DAL" transform="translate(1.000000, 0.000000)" fill-rule="nonzero">
            <path d="M55.6186047,30.7535 C55.9534884,29.9441977 57.2093023,26.8465233 57.2093023,26.8465233 L51.9069767,29.7767558 C51.8790698,29.8046628 50.3162791,30.6418721 48.0837209,31.6186163 C49.3157766,28.552998 50.3504478,25.4116991 51.1813953,22.2139651 C53.0511628,15.097686 54.055814,7.25582558 54.0837209,6.92094186 L54.5023256,3.76745349 C54.5023256,3.76745349 44.5116279,6.53023256 43.5627907,6.78139535 C40.0186047,2.51162791 34.5488372,0 28.827907,0 C23.0511628,0 17.5813953,2.53953488 14.0372093,6.8372093 C13.0604651,6.55813953 3.06976744,3.76744186 3.06976744,3.76744186 L3.48837209,6.92093023 C3.48837209,7.03255814 4.54883721,15.0697674 6.50232558,22.2976744 C7.37287004,25.3864104 8.41637705,28.4237612 9.62790698,31.3953488 C7.25581395,30.3627907 5.24651163,29.4418605 5.19069767,29.4139535 L0.279069767,27.0697674 C0.279069767,27.0697674 1.45116279,30.027907 1.78604651,30.8372093 C1.70232558,30.8372093 0,30.1674419 0,30.1674419 L1.64651163,34.5767442 L1.64651163,34.5488372 C1.75813953,34.8837209 2.45581395,36.7534884 7.75813953,51.0139535 L8.51162791,52.9674419 C8.51162791,52.9674419 9.68372093,52.5767442 10.0465116,52.4651163 C10.3255814,53.2465116 11.1069767,55.3116279 11.1069767,55.3116279 L13.255814,54.2232558 C14.8744186,53.3860465 18.3906977,51.9627907 21.2093023,51.5162791 C24.5860465,56.1209302 27.2093023,58.5209302 27.3488372,58.6046512 L28.8,59.9162791 L30.2232558,58.6046512 C30.3627907,58.4930233 33.0139535,56.0093023 36.3069767,51.544186 C38.8416371,51.9166098 41.2893867,52.7388268 43.5348837,53.972093 L45.627907,55.1162791 L46.5488372,52.9395349 C46.6089876,52.7480936 46.6836217,52.5615082 46.772093,52.3813953 C46.9395349,52.4093023 47.944186,52.7720767 47.944186,52.7720767 L48.7255814,50.8185884 C48.8651163,50.4278907 52.2697674,42.5302163 55.5348837,34.8837047 L57.7116279,29.8046349 C57.7395349,29.8046512 55.6186047,30.7535 55.6186047,30.7535 Z" id="Shape" fill="#FFFFFF"></path>
            <path d="M52.3255814,30.5581395 C50.4266281,31.5577707 48.469654,32.4430685 46.4651163,33.2093023 C48.0449208,29.5751667 49.3417976,25.8244871 50.344186,21.9906977 C52.2139535,14.8744186 53.2186047,6.89302326 53.2465116,6.80930233 L53.4697674,4.93953488 L51.655814,5.44186047 C51.655814,5.44186047 29.3023256,11.6093023 28.6604651,11.8046512 C28.0186047,11.6372093 4.10232558,4.96744186 4.10232558,4.96744186 L4.35348837,6.8372093 C4.35348837,6.92093023 5.38604651,14.8744186 7.33953488,22.0744186 C8.53953488,26.427907 9.90697674,29.8046512 11.2465116,32.9860465 C8.0372093,31.7302326 4.85581395,30.2232558 4.82790698,30.1953488 L1.9255814,28.827907 L3.09767442,31.7860465 C5.94418605,38.9023256 7.39534884,42.8093023 9.2372093,47.7767442 L11.5813953,54.1116279 L12.8372093,53.4697674 C14.7348837,52.5209302 18.6139535,50.9860465 21.627907,50.5953488 C25.0604651,55.3953488 27.7953488,57.8511628 27.9348837,57.9628023 L28.772093,58.7441977 L29.6093023,57.9628023 C29.7488372,57.8511744 32.5116279,55.2279186 35.8883721,50.5953488 C39.4046512,50.9581395 42.4186047,52.381407 43.9534884,53.2186047 L45.2093023,53.8883721 L45.7395349,52.6046512 C47.1348837,49.227907 54.027907,32.2604651 54.1116279,32.0930233 L55.4511628,28.8 L52.3255814,30.5581395 Z" id="Shape" fill="#000000"></path>
            <path d="M54.8372093,31.3674581 C54.7813953,31.3953488 49.255814,33.7395512 44.7348837,34.8558302 C46.4930233,30.8093186 48.027907,27.1534907 49.4790698,21.7674581 C51.3488372,14.706993 52.3255814,6.78141163 52.3534884,6.6976907 L52.4093023,6.13955116 L51.8790698,6.27908605 C51.8790698,6.27908605 28.827907,12.6418767 28.6325581,12.6976907 C28.4651163,12.6418767 5.13488372,6.13955116 5.13488372,6.13955116 L5.19069767,6.6976907 C5.21860465,6.78141163 6.25116279,14.706993 8.17674419,21.8232721 C9.46046512,26.5116442 10.9395349,30.0558302 12.3906977,33.4604814 C12.3906977,33.4604814 12.6418605,34.0744349 12.8651163,34.6046488 C8.95813953,33.6279047 3.65581395,31.7581372 3.6,31.7302302 L2.84651163,31.4790674 L3.1255814,32.2046488 C5.44186047,38.372093 6.64186047,41.6651163 7.89767442,45.1813953 L10.4372093,52.2139535 L10.772093,52.1023256 C14.4343558,51.0194177 18.1761297,50.2262736 21.9627907,49.7302326 C25.3395349,54.5860465 28.4651163,57.3209302 28.4930233,57.3488372 L28.744186,57.544186 L28.9953488,57.3488372 C31.3865855,55.0270802 33.5542616,52.4856669 35.4697674,49.7581395 C38.455814,49.9534884 44.0651163,51.2372093 46.1860465,52.0465116 L46.5209302,52.1860465 L46.6604651,51.8511628 C48.055814,48.5023256 55.255814,32.0093023 55.3116279,31.8697674 L55.6744186,31.0046512 L54.8372093,31.3674581 Z" id="Shape" fill="#FFFFFF"></path>
            <path d="M43.4790698,35.9162791 L43.7860465,35.2465116 C45.7395349,30.7535 47.2744186,27.2093163 48.7534884,21.572093 C50.3162791,15.627907 51.2930233,9.06977907 51.544186,7.17209302 C50.5116279,7.45116279 28.744186,13.4511628 28.744186,13.4511628 L28.6325581,13.4790698 C28.6325581,13.4790698 7.06046512,7.47906977 6,7.2 C6.27906977,9.1255814 7.25581395,15.6837209 8.90232558,21.6837209 C10.1581395,26.3162791 11.6372093,29.8046512 13.0604651,33.2092884 L14.0930233,35.6930233 L22.3255814,48.9767442 L22.4651163,49.172093 C25.2837209,53.3023256 27.9348837,55.8697674 28.744186,56.5953488 C29.5255814,55.8697674 32.0930233,53.3023256 34.9953488,49.2278953 L35.1069767,49.0604535 L43.4790698,35.9162791 Z" id="Shape" fill="#C4CED4"></path>
            <path d="M13.1162791,27.8511628 C12.8930233,27.544186 11.944186,26.0372093 11.944186,23.5255814 L11.944186,23.3023256 C11.2815241,21.5063281 10.9414123,19.6073702 10.9395349,17.6930233 C10.9395349,13.0325581 12.9488372,8.81860465 16.1860465,5.74883721 C23.3126969,-0.874415551 34.343117,-0.874415551 41.4697674,5.74883721 C44.8163595,8.82068304 46.7283024,13.1503739 46.744186,17.6930233 C46.7478223,19.3819483 46.474426,21.0600355 45.9348837,22.6604651 C45.9497666,25.7428181 45.0568281,28.7613387 43.3674419,31.3395349 C43.2661715,31.4362426 43.1537532,31.5205562 43.0325581,31.5906977 L43.0046512,31.5906977 C42.9767442,31.6186047 42.9767442,31.6186047 42.9767442,31.6744186 C42.9767442,31.6744186 42.9209302,31.8697674 42.8651163,32.0372093 L42.9209302,32.0093023 L42.8372093,32.1209302 C39.6167647,36.4674984 34.5164981,39.0176318 29.1069767,38.9860465 C21.655814,39.0139535 15.3488372,34.3255814 13.1162791,27.8511628 Z" id="Shape" fill="#000000"></path>
            <path d="M52.9953488,32.8465233 C52.8837209,32.8744302 41.6093023,37.7302442 28.6604651,37.6744186 C17.2744186,37.6186047 4.35348837,32.7627907 4.24186047,32.7069767 L1.53488372,31.6744186 L2.51162791,34.2697674 C2.51162791,34.3534884 2.51162791,34.3534884 8.62325581,50.7348674 L9.06976744,51.9069767 L10.2697674,51.544186 C16.2156582,49.6899318 22.4043327,48.7305932 28.6325581,48.6976744 C36.5302326,48.6976744 43.4232558,50.3162791 46.2697674,51.2930233 L47.4697674,51.6837326 L47.944186,50.5116395 C48.1395349,50.0651279 52.1302326,40.7441977 54.7813953,34.5488488 L56.0930233,31.5069884 L52.9953488,32.8465233 Z" id="Shape" fill="#007DC5"></path>
            <path d="M53.1069767,34.4093023 L51.9627907,34.827907 C51.9627907,34.827907 49.4232558,35.7767442 49.3953488,35.7767442 C48.754899,35.9662426 48.1576581,36.2790831 47.6372093,36.6976744 C47.360675,36.9446986 47.1168399,37.2260469 46.9116279,37.5348837 C46.9429541,37.4642358 46.9618365,37.388706 46.9674419,37.3116279 L47.3302326,36.3627907 L46.3534884,36.6418605 L44.0372093,37.255814 C43.8139535,37.3116279 42.2232558,37.6186047 41.7488372,37.7302326 L41.2186047,37.8139535 L38.5116279,38.2883721 C38.372093,38.2883721 37.3395349,38.4837209 36.7813953,39.0139535 C36.6701027,39.1466856 36.5675606,39.2865156 36.4744186,39.4325581 L36.6418605,38.5116279 L35.944186,38.5953488 L33.7674419,38.7906977 L33.6837209,39.3488372 C33.62579,39.2769115 33.5602978,39.2114193 33.4883721,39.1534884 C33.0697674,38.8465116 32.372093,38.8465116 32.1767442,38.8744186 L28.9674419,38.9581395 L26.372093,38.9302326 C25.8232186,38.9514082 25.2953658,39.1469092 24.8651163,39.4883721 C24.7813953,39.572093 24.7255814,39.6837209 24.6418605,39.7674419 L24.6418605,39.2651163 L24.6139535,38.8186047 C24.6139535,38.8186047 21.9906977,38.5674419 21.9069767,38.5674419 L18.7255814,38.1767442 L18.8651163,38.8744186 L18.8930233,39.0697674 C18.1674419,38.2325581 17.0511628,37.9534884 16.9953488,37.9255814 C16.9674419,37.9255814 13.7302326,37.2 13.7302326,37.2 L13.9534884,38.0372093 L14.0930233,38.6511628 C14.0123864,38.4860563 13.9190842,38.3274426 13.8139535,38.1767442 C13.3658542,37.5437374 12.7319026,37.0658353 12,36.8093023 C11.1906977,36.5302326 9.57209302,36.1395349 9.51627907,36.1395349 L8.59534884,35.9162791 C7.75813953,35.5535023 5.88837209,34.9674419 5.2744186,34.744186 L4.24186047,34.4093023 L4.63255814,35.4418605 L9.99069767,49.8976744 C9.99069767,49.8976744 12.1116279,49.3116279 12.2232558,49.2837209 C12.2232558,49.2837209 14.427907,48.7534884 14.5953488,48.7255814 C14.6790698,48.6976744 16.9116279,48.3069767 16.9116279,48.3069767 L16.9116279,48.2790698 C17.5255814,48.1953488 18.7534884,48 18.8651163,48 C18.9767442,47.972093 20.0372093,47.8046512 20.6511628,47.7488372 L22.8837209,47.5255814 C23.1069767,47.4976744 23.8325581,47.4418605 24.2232558,47.1069767 C24.3622579,47.0145357 24.4770906,46.8901384 24.5581395,46.7442 L24.5860465,47.3581535 L27.2372093,47.2744326 C27.3488372,47.2465116 28.0465116,47.1907116 28.4930233,46.7442 C28.5555993,46.685191 28.6117283,46.6197001 28.6604651,46.5488302 L28.6325581,47.2465047 C28.6325581,47.2465047 30.6697674,47.3023302 30.7813953,47.3023302 L33.1813953,47.3581442 L34.9116279,47.4976791 L37.1162791,47.7488419 C37.6554769,47.791328 38.1960025,47.6851573 38.6790698,47.4418767 C38.7348837,47.3860512 38.7906977,47.3581558 38.8465116,47.3023419 L38.6790698,47.9441907 L40.9116279,48.3349 L40.9116279,48.306993 C40.9953488,48.3349 42.5581395,48.6139698 42.9209302,48.6697837 L43.144186,48.7535047 C43.2,48.7535047 44.3162791,49.0325744 45.1534884,48.9209465 C46.1860465,48.8093186 47.2465116,47.9721093 47.7209302,46.8837372 L49.9534884,41.7767605 C49.9813953,41.6651163 53.1069767,34.4093023 53.1069767,34.4093023 Z" id="Shape" fill="#FFFFFF"></path>
            <polygon id="Shape" fill="#000000" points="33.2651163 46.855814 34.6604651 46.9674419 36 39.1255814 34.2139535 39.2930233"></polygon>
            <path d="M39.0697674,39.7116279 L38.4,42.5023256 L40.1302326,42.4744186 L41.3023256,38.372093 L38.5953488,38.8186047 C38.5953488,38.8186047 37.6186047,38.9860465 37.172093,39.4325581 C36.5581395,40.0465116 36.4186047,41.1627907 36.4186047,41.1627907 L35.3302326,47.0232558 L37.0604651,47.2186047 C37.5006185,47.2598371 37.9437972,47.1827626 38.344186,46.9953488 C38.7627907,46.8 39.0139535,46.3255814 39.1534884,45.9069767 C39.2930233,45.4883721 39.7116279,43.8139535 39.7116279,43.8139535 L38.1209302,43.8139535 L37.7581395,45.4883721 C37.7108762,45.7194398 37.6158189,45.9380717 37.4790698,46.1302326 C37.2962223,46.3346157 37.0261679,46.4384827 36.7534884,46.4093023 L37.8976744,41.1906977 C37.9985243,40.8100252 38.1486294,40.4441441 38.344186,40.1023256 C38.5041141,39.8574444 38.7772916,39.7103488 39.0697674,39.7116279 Z" id="Shape" fill="#000000"></path>
            <path d="M42.0837209,42.6418605 L43.5627907,37.8976744 L42.027907,38.2325581 L39.3488372,47.4976744 L40.5488372,47.6651163 L41.8046512,43.7302326 L42.1674419,43.7023256 C42.1674419,43.7023256 42.4186047,43.7860465 42.4186047,44.0093186 C42.4078988,44.1815617 42.3702313,44.3510581 42.3069767,44.5116233 L41.2465116,47.7767395 L42.6418605,48.0558093 L43.8139535,44.6511628 C43.9127195,44.3833561 43.9600594,44.0993163 43.9534884,43.8139535 C43.9267127,43.5429934 43.8306026,43.2834962 43.6744186,43.0604651 C43.6744186,43.0604651 43.9534884,43.0604651 44.344186,42.6697674 C44.7348837,42.3069767 44.7348837,42.000014 44.8186047,41.7209302 C44.9302326,41.4418605 46.4930233,37.172107 46.4930233,37.172107 L44.455814,37.6744186 L43.2837209,41.4976744 C43.2295509,41.735204 43.1351678,41.9617234 43.0046512,42.1674419 C42.8093023,42.4465116 42.6697674,42.5581395 42.5581395,42.5581395 C42.4048694,42.6087969 42.2450723,42.6369964 42.0837209,42.6418605 L42.0837209,42.6418605 Z" id="Shape" fill="#000000"></path>
            <path d="M49.0883721,37.9534884 L47.7767442,41.4697674 L49.5627907,41.3860465 L52.1302326,35.3581395 L49.5627907,36.2790698 C48.9880874,36.4639431 48.4498575,36.747222 47.972093,37.1162791 C47.439769,37.6566183 46.997002,38.2783762 46.6604651,38.9581395 C46.5209302,39.2930233 45.9348837,40.6046512 45.8511628,41.0232558 C45.7395349,41.4418605 44.8744186,43.7581279 44.8744186,43.7581279 L46.9116279,43.7581279 L46.0465116,46.0744186 C45.964732,46.4181166 45.8127066,46.7411705 45.6,47.0232558 C45.3965703,47.2741654 45.1090075,47.4427368 44.7906977,47.4976744 L45.9348837,44.5395349 L44.6790698,44.5395349 L43.3116279,48.2232558 C43.8936042,48.378682 44.4958602,48.4445538 45.0976744,48.4186047 C45.9069767,48.3348837 46.827907,47.6930233 47.2465116,46.6883721 C47.6930233,45.7116279 49.144186,42.3348837 49.144186,42.3348837 L46.7162791,42.4744186 L47.4697674,40.3255814 C47.4697674,40.3255814 47.972093,39.0697674 48.3348837,38.6511628 C48.5426528,38.3757317 48.797796,38.1394879 49.0883721,37.9534884 L49.0883721,37.9534884 Z" id="Shape" fill="#000000"></path>
            <path d="M5.10697674,35.2465116 L10.3255814,49.255814 L11.8604651,48.8093209 L7.98139535,37.4790698 C7.98139535,37.4790698 8.56744186,37.5348837 9.06976744,38.427907 C9.44382246,39.0968288 9.73436645,39.8091302 9.93488372,40.5488372 C10.0744186,41.1069767 12.5302326,48.6697674 12.5302326,48.6697674 L14.0930233,48.3069767 L11.1069767,38.344186 C11.1069767,38.344186 11.4697674,38.344186 11.8604651,39.0139395 C12.0897594,39.4021712 12.2768701,39.8138149 12.4186047,40.2418465 L14.7069767,48.1953349 L16.2139535,47.8883581 L14.2883721,40.5209163 C14.2883721,40.5209163 13.8418605,39.2092884 13.3674419,38.5395209 C12.9962832,37.9751559 12.445707,37.552392 11.8046512,37.3395209 C11.0511628,37.0883581 9.37674419,36.6418465 9.37674419,36.6418465 L9.62790698,37.3953349 C9.30932313,37.0475304 8.94285751,36.7468407 8.53953488,36.5023116 C8.12093023,36.2511791 5.10697674,35.2465116 5.10697674,35.2465116 Z" id="Shape" fill="#000000"></path>
            <path d="M17.3302326,42.9209302 L16.4930233,39.2930233 C16.7788103,39.3648576 17.0454789,39.4981919 17.2744186,39.6837209 C17.5813953,39.9627907 17.6651163,40.744186 17.6651163,40.744186 L18.0837209,42.9209302 L17.3302326,42.9209302 Z M19.0604651,47.3860465 L20.372093,47.2186047 L19.255814,41.3860465 C19.255814,41.3860465 19.0046512,40.1023256 18.6697674,39.572093 C18.0837209,38.7069767 16.855814,38.372093 16.855814,38.372093 L14.455814,37.8976744 L16.9395349,47.7209302 L18.4186047,47.4976744 L17.4976744,43.8139535 L18.3627907,43.8139535 L19.0604651,47.3860465 Z" id="Shape" fill="#000000"></path>
            <path d="M19.3953488,38.7906977 L21.0697674,47.1627907 L22.827907,46.9674419 C22.827907,46.9674419 23.6651163,46.9395349 23.8883721,46.744186 C24.172235,46.5202493 24.3452532,46.1843904 24.3627907,45.8232558 L24.1674419,39.2930233 L22.4372093,39.1255814 L23.0511628,45.2930233 C23.0511628,45.2930233 23.1069767,45.8511628 22.827907,46.1302326 C22.7045698,46.2765204 22.5153462,46.3501074 22.3255814,46.3255814 L21.4325581,39.0139535 L19.3953488,38.7906977 Z" id="Shape" fill="#000000"></path>
            <path d="M25.0883721,46.8000116 L27.1813953,46.7162907 C27.5292876,46.6824892 27.859412,46.5465515 28.1302326,46.3255814 C28.3518082,46.0629449 28.496654,45.7442842 28.5488372,45.4046512 L28.5767442,44.2325581 L27.1534884,44.2325581 L27.1813953,45.4046512 C27.1996396,45.6053285 27.1396495,45.8052954 27.0139535,45.9627907 C26.8744186,46.1023256 26.4,46.1023256 26.4,46.1023256 L26.4,43.7302326 L28.5767442,43.7302326 L28.6325581,43.0325581 L26.372093,43.0325581 L26.372093,40.9674419 C26.3557219,40.8007022 26.4175634,40.6357915 26.5395349,40.5209302 C26.7305968,40.4008119 26.9577086,40.3514397 27.1813953,40.3813953 L27.1813953,42.5023256 L28.6883721,42.5023256 L28.8837209,39.4604651 L26.372093,39.4046512 C25.9657771,39.4259333 25.5759361,39.5721236 25.255814,39.8232558 C24.7255814,40.2976744 24.8093023,41.3860465 24.8093023,41.3860465 L25.0883721,46.8000116 Z" id="Shape" fill="#000000"></path>
            <path d="M31.7581395,40.5767442 L31.6465116,42.4186047 C31.6451766,42.5477865 31.6064007,42.673808 31.5348837,42.7813953 C31.4791984,42.8585887 31.4013254,42.9169935 31.3116279,42.9488372 L30.8093023,42.9209302 L30.9488372,40.2139535 L31.3116279,40.1860465 C31.4199446,40.1832861 31.5266871,40.2123977 31.6186047,40.2697674 C31.7581395,40.3255814 31.7581395,40.5767442 31.7581395,40.5767442 Z M33.1534884,39.6837209 C32.8744186,39.4046512 32.2046512,39.4325581 32.2046512,39.4325581 L29.4697674,39.5162791 L29.1906977,46.7162791 L30.5581395,46.744186 L30.7255814,43.7860465 C30.7255814,43.7860465 31.172093,43.6465116 31.3953488,43.9534884 C31.4793497,44.0761447 31.5187503,44.2238968 31.5069767,44.372093 L31.3395349,46.744186 L32.6790698,46.827907 L32.9302326,44.427907 C32.976332,44.1853782 32.9570683,43.9349506 32.8744186,43.7023256 C32.7858287,43.5327769 32.6362352,43.4031342 32.455814,43.3395488 C32.455814,43.3395488 32.6511628,43.3395488 32.9302326,43.0325558 C33.120149,42.8046885 33.2282285,42.5197516 33.2372093,42.2232535 L33.4046512,40.5488349 C33.3767442,40.5488372 33.4604651,39.9906977 33.1534884,39.6837209 Z" id="Shape" fill="#000000"></path>
            <path d="M31.9813953,49.9813953 L33.6837209,49.5627907 L31.9534884,49.3953488 C31.8697674,49.3953488 30.2511628,49.255814 29.4418605,49.255814 C29.3302326,48.9209442 28.6325581,46.8279209 28.6325581,46.8279209 L28.3534884,47.6372233 C28.3255814,47.6930372 27.9627907,48.6976884 27.7674419,49.2558279 C26.8186047,49.2558279 25.5627907,49.3674558 25.5348837,49.3674558 L23.6930233,49.5628047 L25.4790698,49.9535023 C26.0372093,50.0651302 27.1534884,50.4558279 27.2372093,50.9302465 C27.0976744,51.488386 26.7348837,52.4651302 26.7348837,52.4651302 L26.372093,53.3581535 C26.372093,53.3581535 28.3255814,51.9907116 28.6046512,51.8232698 C28.8837209,51.9907116 30.7813953,53.3302465 30.7813953,53.3302465 C30.7813953,53.3302465 30,51.0697814 29.944186,50.8744326 C30.1395349,50.5953488 31.1162791,50.1767442 31.9813953,49.9813953 Z" id="Shape" fill="#000000"></path>
            <path d="M29.4697674,50.8465116 C29.6093023,50.372093 30.4186047,50.0093023 31.0604651,49.7860465 C30.4186047,49.7302326 29.6093023,49.6744186 29.1906977,49.6744186 L29.1069767,49.6744186 C29.1069767,49.6744186 28.772093,48.7534884 28.6046512,48.2790698 C28.4651163,48.6976744 28.2418605,49.311614 28.1581395,49.5906977 L28.1302326,49.7023256 L28.0186047,49.7023256 C27.572093,49.7023256 26.9302326,49.7302326 26.455814,49.7581395 C27.0139535,50.0093023 27.6837209,50.372093 27.7674419,50.9023256 L27.7674419,50.9860465 C27.6837209,51.2930116 27.5162791,51.8232558 27.3767442,52.1860465 C27.8232558,51.8511628 28.6325581,51.2930233 28.6325581,51.2930233 C28.6325581,51.2930233 29.4976744,51.8790698 29.944186,52.1860465 C29.7488372,51.7116279 29.4697674,50.9302326 29.4697674,50.9302326 L29.4697674,50.8465116 Z" id="Shape" fill="#FFFFFF"></path>
            <path d="M11.8604651,17.7209302 C11.8604651,8.90232558 19.4790698,1.73023256 28.827907,1.73023256 C38.1767442,1.73023256 45.7953488,8.90232558 45.7953488,17.7209302 C45.7953488,26.5116279 38.2046512,33.6837209 28.827907,33.6837209 C19.4790698,33.6837209 11.8604651,26.5116279 11.8604651,17.7209302 Z" id="Shape" fill="#FFFFFF"></path>
            <path d="M18.5860465,8.23255814 L19.2837209,7.64651163 C19.7581395,7.28372093 19.8976744,6.78139535 19.6465116,6.4744186 C19.3116279,6.05581395 18.7813953,6.19534884 18.2232558,6.61395349 L17.6651163,7.08837209 L18.5860465,8.23255814 Z M18.5302326,6.97674419 L18.5581395,6.94883721 C18.7813953,6.78139535 18.9488372,6.75348837 19.0883721,6.92093023 C19.2,7.06046512 19.1162791,7.25581395 18.9209302,7.39534884 L18.8930233,7.45117442 L18.5302326,6.97674419 Z" id="Shape" fill="#000000"></path>
            <path d="M22.8,5.35813953 L23.3023256,5.13488372 L23.4418605,5.2744186 L24.1674419,4.96744186 L22.9395349,3.90697674 L22.1860465,4.18604651 L22.1023256,5.80465116 L22.827907,5.5255814 L22.8,5.35813953 Z M22.772093,4.96744186 L22.744186,4.52093023 L22.744186,4.49302326 C22.7821762,4.55541979 22.829198,4.61184589 22.8837209,4.66046512 L23.0511628,4.85581395 L22.772093,4.96744186 Z" id="Shape" fill="#000000"></path>
            <polygon id="Shape" fill="#000000" points="26.344186 3.01395349 27.0697674 2.93023256 27.1813953 3.90697674 27.7953488 3.85116279 27.8511628 4.3255814 26.5116279 4.46511628"></polygon>
            <polygon id="Shape" fill="#000000" points="30.5023256 2.93023256 31.255814 3.04186047 31.0883721 4.01860465 31.7023256 4.10232558 31.6186047 4.57674419 30.3069767 4.38139535"></polygon>
            <path d="M34.6883721,5.30232558 L35.1906977,5.5255814 L35.1627907,5.72093023 L35.8883721,6.05581395 L35.8046512,4.40930233 L35.0511628,4.10232558 L33.8232558,5.1627907 L34.5488372,5.49767442 L34.6883721,5.30232558 Z M34.9395349,5.05116279 L35.2465116,4.68837209 L35.2465116,4.71627907 C35.2465116,4.8 35.2186047,4.82790698 35.2186047,4.91162791 L35.1906977,5.1627907 L34.9395349,5.05116279 Z" id="Shape" fill="#000000"></path>
            <path d="M38.3162791,6.97674419 L38.344186,7.03256977 C38.4009744,7.1782691 38.4863757,7.3111155 38.5953488,7.42326744 C38.6511628,7.4790814 38.7627907,7.53489535 38.7906977,7.4790814 C38.8186047,7.42326744 38.7627907,7.33954651 38.7348837,7.31163953 L38.6232558,7.20001163 C38.427907,6.97675581 38.3162791,6.7535 38.455814,6.55815116 C38.6790698,6.30698837 39.1534884,6.41861628 39.4883721,6.69768605 C39.650563,6.84487049 39.7914527,7.01393813 39.9069767,7.20001163 L39.5162791,7.36745349 C39.4567849,7.23169187 39.3600203,7.11557917 39.2372093,7.03258372 C39.2093023,6.97674419 39.0976744,6.92093023 39.0697674,6.97674419 C39.0418605,7.03255814 39.0976744,7.08837209 39.1534884,7.14418605 L39.2372093,7.25581395 C39.4604651,7.47906977 39.544186,7.73023256 39.3767442,7.9255814 C39.1534884,8.17674419 38.7069767,8.0372093 38.372093,7.75813953 C38.1620411,7.60377183 37.9901935,7.40328295 37.8697674,7.17209302 L38.3162791,6.97674419 Z" id="Shape" fill="#000000"></path>
            <path d="M43.0604651,13.6186047 C42.9488372,13.5348837 42.7255814,13.3953488 42.7255814,13.3953488 C42.6799917,13.3675877 42.6417146,13.3293106 42.6139535,13.2837209 C42.5920889,13.1495813 42.5546255,13.0184558 42.5023256,12.8930116 C41.0282246,11.0002348 39.1623503,9.44851284 37.0325581,8.34417442 C36.8014573,8.2441973 36.5570345,8.17839116 36.3069767,8.14882558 C36.2552384,8.14774434 36.2056533,8.12791029 36.1674419,8.09301163 C35.9856584,7.90945989 35.7668452,7.76675563 35.5255814,7.67440698 C33.4787277,6.8409995 31.2890836,6.41444546 29.0790698,6.41859302 C28.3977496,6.42244136 27.7173426,6.46904458 27.0418605,6.55812791 L27.9348837,5.35812791 C24.4186047,5.2465 21.8790698,8.0092907 21.8790698,8.0092907 C21.0375208,8.39468684 20.2259574,8.84244982 19.4511628,9.34883721 C18.3943882,9.7012481 17.5338849,10.4807629 17.0790698,11.4976744 C16.6046512,11.8604651 15.6837209,13.0883721 15.6837209,13.0883721 C15.467929,13.2315439 15.2627454,13.3900949 15.0697674,13.5627907 C14.2574277,14.4390507 13.6980254,15.5192757 13.4511628,16.6883721 C13.4297119,16.7106432 13.4194578,16.7414056 13.4232558,16.772093 C13.3953488,16.855814 13.3953488,16.9674419 13.3674419,17.0790581 C13.3395349,17.302314 13.2837209,17.4976628 13.255814,17.7209186 L13.2837209,17.6930116 C13.2851697,17.7234202 13.2752182,17.753275 13.255814,17.7767326 C13.1315468,18.123501 13.0290223,18.4776804 12.9488372,18.8372093 C12.9209302,18.9767442 12.4186047,20.427907 12.4186047,20.427907 L12.4186047,20.427907 C11.1627907,24.8372093 12.8372093,27.4883721 13.1162791,27.9069767 C15.3488372,34.3813953 21.655814,39.0139535 29.0511628,39.0139535 C34.4620944,39.0515996 39.5649533,36.5001702 42.7813953,32.1488372 C42.8417568,32.0165283 42.87949,31.875029 42.8930233,31.7302326 C42.8989249,31.6736296 42.9295776,31.6225417 42.9767442,31.5906977 C43.2,31.4790698 43.2837209,31.3953488 43.2837209,31.3674419 C44.9731001,28.7892424 45.866038,25.770724 45.8511628,22.6883721 C45.8911234,19.4478368 44.91522,16.2761505 43.0604651,13.6186047 L43.0604651,13.6186047 Z" id="Shape" fill="#000000"></path>
            <path d="M22.0465116,10.4372093 C22.0744186,10.3813953 22.1302326,10.3534884 22.1581395,10.3255814 L22.2418605,10.2418605 L22.2697674,10.2418605 C22.2705265,9.73327103 22.3361728,9.22685665 22.4651163,8.73488372 C24,6.61395349 26.5116279,6.05581395 26.5116279,6.05581395 C26.8186047,5.94418605 26.6232558,6.08372093 26.6232558,6.08372093 C25.0325581,7.86976744 25.2,9.32093023 25.2,9.32093023 L26.7348837,14.8186047 C26.7348837,14.8186047 25.5069767,14.372093 24.5581395,12.4744186 C24.1116279,16.3255814 27.7674419,19.4511628 27.7674419,19.4511628 C27.9069767,19.5906977 27.655814,19.4232558 27.655814,19.4232558 C26.7627907,18.9767442 25.7023256,18 25.4232558,17.7488372 C25.4790698,18.055814 27.2651163,26.9302326 27.2930233,26.9860465 C27.3029548,27.0443865 27.3217785,27.1008574 27.3488372,27.1534884 L27.9348837,25.6465116 L28.4651163,30.1395349 C26.1209302,32.2883721 23.6651163,31.4511628 23.5255814,31.3953488 C23.5560789,31.4402562 23.5840299,31.4868412 23.6093023,31.5348837 C23.6093023,31.5348837 25.6186047,35.4418605 33.7953488,35.0511628 C33.7953488,35.0511628 33.9906977,35.0511628 33.9627907,35.0790698 C33.9413599,35.0810967 33.9214568,35.0910483 33.9069767,35.1069767 C33.7799663,35.1482321 33.649042,35.1762873 33.5162791,35.1906977 C23.6651163,37.8139535 18.5581395,29.4418605 18.3348837,29.0790698 C18.0205432,28.6314204 17.7495522,28.15485 17.5255814,27.655814 C17.5255814,27.627893 17.5255814,27.572093 17.5534884,27.627893 C17.5534884,27.627893 18.5860465,28.6883721 21.572093,28.9674279 L21.6,28.9674279 C19.3116279,26.4558 18.3348837,24.6139395 18.1953488,24.3348698 C18.1953488,24.3348698 17.9162791,23.9162651 17.5813953,22.7441721 C17.5813953,22.7441721 17.6093023,22.6883465 17.6093023,22.7441721 C17.7209302,22.9674279 18.5023256,24.0836953 19.4232558,24.3348698 C18.6418605,23.0790558 18.1395349,21.0976605 18.0837209,20.8185907 C19.144186,22.2976605 21.0418605,22.4092884 21.0418605,22.4092884 C21.0420187,22.4018396 21.0391294,22.394649 21.0338611,22.3893807 C21.0285928,22.3841125 21.0214023,22.3812231 21.0139535,22.3813814 L21.0139535,22.4092884 C17.9162791,19.3116279 18.5860465,15.9627907 19.8418605,13.5348837 C20.4251117,12.402382 21.1675305,11.3592365 22.0465116,10.4372093 L22.0465116,10.4372093 Z" id="Shape" fill="#FFFFFF"></path>
            <polygon id="Shape" fill="#C4CED4" points="31.3116279 30.8372093 29.2744186 32.9581395 31.7860465 31.0325581 30.4744186 26.5674419 31.0604651 21.2093023 30.055814 26.3162791"></polygon>
            <path d="M30.8093023,19.9534884 C30.8512779,19.9465256 30.8901796,19.9270707 30.9209302,19.8976628 C31.1341794,19.7864398 31.3237487,19.6347844 31.4790698,19.4511512 C32.0327387,18.8765654 32.3254426,18.099386 32.2883721,17.302314 C32.2800703,16.7333174 32.1859887,16.1688278 32.0093023,15.6278953 C31.9813953,16.3813953 31.7581395,19.144186 30.8093023,19.9534884 Z" id="Shape" fill="#C4CED4"></path>
            <path d="M31.7581395,10.827907 C32.455814,9.76744186 33.627907,9.68372093 34.1302326,9.68372093 C33.7521712,9.5576445 33.3566548,9.49172512 32.9581395,9.48837209 C32.5495718,9.47973766 32.142873,9.54594444 31.7581395,9.68372093 C31.5348837,9.76744186 31.3953488,9.82325581 31.3395349,9.85116279 C31.4992638,10.1677139 31.6390707,10.4939301 31.7581395,10.827907 Z" id="Shape" fill="#C4CED4"></path>
            <path d="M29.972093,13.6744186 L30,13.6465116 L29.972093,13.6744186 Z M30.8372093,13.0883721 C30.8446583,13.0882132 30.8518492,13.0911023 30.8571177,13.0963707 C30.8623861,13.1016391 30.8652752,13.1088301 30.8651163,13.1162791 L30.8651163,13.4232558 C30.8651163,15.7116279 30.2790698,18.2232558 30.027907,19.1162791 C30.7718029,17.428331 31.152138,15.6027226 31.144186,13.7581395 C31.1460616,13.084811 31.0900414,12.412568 30.9767442,11.7488372 C30.9500202,11.5516362 30.9127575,11.3560074 30.8651163,11.1627907 C30.6418605,12.8930233 29.972093,13.6744186 29.972093,13.6744186 L29.944186,13.7023395 C29.9162791,13.7023395 29.9162791,13.7023395 29.8883721,13.6744186 C29.259608,12.5530743 28.4376731,11.5516364 27.4604651,10.7162791 C27.0685743,10.3699097 26.6377812,10.0702276 26.1767442,9.82325581 C28.2418605,14.2883721 28.855814,17.7209302 29.0232558,18.8651163 L29.0232558,18.4744186 C28.9851567,17.086524 28.826419,15.7045726 28.5488372,14.344186 C28.3255814,13.144186 28.0744186,12.2790698 28.0744186,12.2790698 L28.0744186,12.2232558 L28.1302326,12.2232558 C29.0511628,12.9488372 29.7209302,14.9860465 29.8046512,15.3767581 C30.0595031,14.9945417 30.2657426,14.5820626 30.4186047,14.1488512 C30.5860465,13.6186186 30.7534884,13.116293 30.7534884,13.116293 L30.8372093,13.0883721 Z" id="Shape" fill="#C4CED4"></path>
            <path d="M13.4511628,22.381407 C13.4511628,24.5023372 13.8139535,26.7069884 15.655814,29.5535 C17.4139535,33.209314 20.5953488,35.1628023 22.1023256,35.9162907 C22.6046512,36.1395465 22.9116279,36.2790814 22.9116279,36.2790814 C24.967427,37.2654062 27.2175181,37.7802576 29.4976744,37.7860581 C32.5902577,37.7598245 35.6074534,36.8284714 38.1767442,35.1069884 C38.6232558,34.8000116 38.8744186,34.6046628 38.8744186,34.6046628 L38.8744186,34.6046628 L39.0697674,34.409314 C39.0697674,34.4372209 39.0139535,34.4651279 38.9860465,34.4651279 L38.8186047,34.5767558 C35.5534884,36.4744186 32.5674419,37.0604651 30.1116279,37.0604651 C26.2604651,37.0604651 23.8046512,35.6372093 23.8046512,35.6372093 C15.655814,31.3953488 15.544186,24.027907 15.544186,24.027907 C15.5440271,24.020458 15.5469162,24.013267 15.5521847,24.0079986 C15.5574531,24.0027302 15.564644,23.9998411 15.572093,24 L15.627907,24 C16.6604651,26.0372093 17.944186,26.7069767 18.5023256,26.9302326 C18.5643233,26.9649177 18.6298005,26.9929794 18.6976744,27.0139535 C16.3255814,24.055814 15.655814,21.544186 15.655814,19.6744186 C15.655814,17.1627907 16.855814,15.7674419 16.855814,15.7674419 L16.8837209,15.7395349 C16.8911716,15.7393785 16.8983632,15.7422704 16.9036315,15.7475413 C16.9088997,15.7528122 16.911788,15.7600052 16.9116279,15.7674558 C16.7658865,16.5310045 16.691149,17.3064065 16.6883721,18.0837349 C16.6771445,18.9236073 16.7899893,19.7605351 17.0232558,20.5674419 C17.095064,20.7858677 17.1789134,21.0001493 17.2744186,21.2093023 C17.1973328,20.6358245 17.1600344,20.0576987 17.1627907,19.4790698 C17.1587778,15.8720479 18.5836224,12.4102774 21.1255814,9.85116279 C20.5953488,10.0744186 19.9813953,10.6325581 19.4790698,11.1627907 C18.9209302,11.7209302 18.4744186,12.2790698 18.4744186,12.2790698 L18.4465116,12.2790698 C18.4186047,12.2790698 18.4186047,12.2790698 18.4186047,12.2511488 C18.4637507,11.806781 18.6067054,11.3779168 18.8372093,10.9953349 C18.406244,11.4323409 18.0565935,11.9426417 17.8046512,12.5023116 C17.634867,12.8430986 17.4948124,13.1979036 17.3860465,13.5627767 L17.3860465,13.5906837 C16.6745293,14.4152698 16.0826721,15.3359413 15.627907,16.3255814 C15.4256505,16.7486504 15.2576695,17.1872673 15.1255814,17.6372093 C15.0976744,17.7488372 15.0697674,17.8046512 15.0697674,17.8325581 C15.0697674,17.8325581 15.0697674,17.8604651 15.0139535,17.8604651 C14.9581395,17.8604651 14.9860465,17.8325581 14.9860465,17.8046512 L14.9860465,17.7767442 C14.9874764,17.7199002 14.9968701,17.6635374 15.0139535,17.6093023 C15.0139535,16.5488372 15.4604651,15.4046512 15.627907,14.9581395 C14.4,16.2697674 14.0930233,18.0837209 14.0930233,19.5069767 C14.090375,20.3152223 14.1840588,21.1209035 14.372093,21.9069767 C14.4053869,22.8157991 14.5080107,23.7207539 14.6790698,24.6139535 C14.8744186,25.4511628 15.0139535,26.0651163 15.0139535,26.0651163 C15.0531338,26.1543783 15.0812495,26.2480974 15.0976744,26.344186 L15.0976744,26.372093 L15.0697674,26.372093 C15.0139535,26.372093 15.0139535,26.344186 14.9860465,26.3162791 C14.9581395,26.3162791 14.9581395,26.2883721 14.9302326,26.2325581 L14.8744186,26.1209302 C13.9813953,24.7813953 13.5627907,22.6046512 13.4790698,22.0744186 C13.4559711,22.1750221 13.4465837,22.2782874 13.4511628,22.381407 L13.4511628,22.381407 Z" id="Shape" fill="#C4CED4"></path>
            <path d="M40.8837209,13.0046512 C40.8837209,13.0046512 36.9209302,7.70232558 29.4697674,7.70232558 L29.3023256,7.70232558 C29.2586037,7.70314616 29.2175872,7.72365441 29.1906977,7.75813953 C29.1906977,7.81395349 29.2465116,7.84186047 29.3023256,7.86976744 C29.9033677,8.34274463 30.4634885,8.86552407 30.9767442,9.43255814 L30.9767442,9.46047907 L31.0046512,9.43255814 C31.1575004,9.36275623 31.3162684,9.30672046 31.4790698,9.26511628 C31.898173,9.15523486 32.3295243,9.09897166 32.7627907,9.09767442 C33.6015701,9.09820612 34.4267939,9.30930988 35.1627907,9.71162791 C34.772093,9.90697674 32.9302326,10.827907 32.5116279,11.9162791 L32.5395349,11.944186 C32.5395349,11.944186 34.4093023,13.6186047 38.2604651,13.6186047 C38.932856,13.6248768 39.6046977,13.5782211 40.2697674,13.4790698 C40.3834818,13.4764874 40.496246,13.4576933 40.6046512,13.4232558 C40.772093,13.3674419 40.9674419,13.3116279 40.9674419,13.1162791 C40.9346516,13.0829957 40.9064917,13.0454492 40.8837209,13.0046512 Z" id="Shape" fill="#007DC5"></path>
            <path d="M32.8744186,20.427907 C32.8465116,20.4 32.8186047,20.4 32.8186047,20.427907 C32.7906977,20.427907 32.7906977,20.455814 32.8186047,20.455814 C32.8598751,20.498926 32.8972314,20.5456214 32.9302326,20.5953488 C33.1534884,20.9023256 33.572093,21.627907 33.572093,22.9116279 C33.5452919,24.1151848 33.2497084,25.2975188 32.7069767,26.372093 C32.7012856,25.9591771 32.6545439,25.5478507 32.5674419,25.144186 C32.427907,24.4185907 32.1767442,23.6651163 31.5906977,23.4976744 L31.5348837,23.4976744 L31.2,26.6511628 L32.455814,31.3395349 L29.972093,33.3488372 C29.944186,33.3488372 29.944186,33.3488372 29.944186,33.3767442 C29.9440278,33.384193 29.9469171,33.3913835 29.9521854,33.3966518 C29.9574537,33.4019201 29.9646442,33.4048094 29.972093,33.4046512 C30.8281581,33.6275298 31.7109545,33.7308358 32.5953488,33.7116279 C33.6550972,33.7063053 34.7116067,33.5941096 35.7488372,33.3767442 C35.9288222,33.3238903 36.0735118,33.1895356 36.1395349,33.0139535 C36.3323334,31.9928246 36.4257929,30.9554248 36.4186047,29.9162791 C36.4465116,27.1534884 35.8604651,23.2186047 32.8744186,20.427907 Z" id="Shape" fill="#007DC5"></path>
            <path d="M36.9767442,33.0139535 C36.9209302,32.9860465 36.9209302,32.9302326 36.9209302,32.8465116 L36.9209302,32.7069767 C37.0090906,32.3675525 37.0743537,32.0225901 37.1162791,31.6744186 C37.2534474,30.8162391 37.3187903,29.9481129 37.3116279,29.0790698 C37.3116279,26.2604651 36.6418605,22.3255814 33.4883721,19.2837209 C33.4733296,19.2685518 33.4537189,19.2587465 33.4325581,19.255814 L33.3488372,19.172093 C33.3517697,19.1509322 33.3615751,19.1313216 33.3767442,19.1162791 L33.4325581,19.1162791 C33.4804285,19.1165526 33.5277998,19.1260268 33.572093,19.144186 C34.111245,19.3234525 34.5993851,19.6297365 34.9953488,20.0372093 C34.9674419,19.8976744 34.9116279,19.5906977 34.827907,19.2 C34.625212,18.5283655 34.2934336,17.9027262 33.8511628,17.3581395 L33.7674419,17.2744186 C33.7395349,17.2186047 33.7116279,17.2186047 33.7116279,17.1627907 L33.7116279,17.1069767 L33.7674419,17.1069767 C33.7953488,17.1069767 33.8232558,17.1348977 33.9069767,17.1906977 C34.1023256,17.2744186 42.027907,21.0976744 42.3069767,28.8 L42.3069767,28.9395349 C42.3217418,29.2267733 42.2212925,29.5080313 42.027907,29.7209302 C41.944186,29.8046512 40.0744186,32.1488512 37.2837209,33.0139535 C37.2335189,33.0464058 37.1759121,33.0656081 37.1162791,33.0697674 C37.0883721,33.0697674 37.0046512,33.0697674 36.9767442,33.0139535 Z" id="Shape" fill="#007DC5"></path>
            <path d="M42.9209302,27.3767442 C42.7534884,21.0139535 36.7255814,16.6883721 33.7116279,14.9023256 C33.1747477,14.566398 32.6152727,14.2680114 32.0372093,14.0093023 L31.8976744,13.9534884 L32.0930233,13.9534884 C32.820329,13.956587 33.511345,14.271609 33.9906977,14.8186047 C33.9817084,14.5436955 33.9347522,14.2713494 33.8511628,14.0093023 L33.7953488,13.9255814 L33.8790698,13.9534884 C34.744186,14.2883721 35.8325581,14.4 36.9209302,14.4 C37.8737753,14.3911939 38.824875,14.3165979 39.7674419,14.1767442 C40.5209302,14.0930233 41.0232558,13.9813953 41.0232558,13.9813953 L41.1348837,13.9813953 C41.5813953,13.9813953 41.7209302,14.2325581 41.7209302,14.2604651 C42.7534884,15.4046512 44.0093023,18.027907 44.2325581,21.1813953 C44.2604651,21.572093 44.2604651,21.9627907 44.2604651,22.3255814 C44.2604651,24.6976744 43.7581395,26.5395488 43.3953488,27.2930233 C43.255814,27.572093 43.144186,27.7116279 43.0325581,27.7116279 C42.9488372,27.6837209 42.9209302,27.572093 42.9209302,27.3767442 Z" id="Shape" fill="#007DC5"></path>
            <path d="M25.5348837,6.80930233 L25.5627907,6.78139535 C25.4790698,6.80930233 23.8325581,7.31162791 23.3581395,9.76744186 C23.3581395,9.76744186 23.3581395,9.82326744 23.3860465,9.76744186 C23.5255814,9.54418605 24.027907,8.7627907 24.5023256,8.98604651 L24.5023256,8.93023256 C24.5302326,8.73488372 24.6976744,7.86976744 25.5348837,6.80930233 Z" id="Shape" fill="#000000"></path>
            <path d="M24.3069767,29.1627907 C23.944186,28.4651163 21.6837209,23.5255814 21.6837209,23.5255814 C20.9860465,23.7767442 20.1209302,23.1906977 20.1209302,23.1906977 C21.2372093,26.1209302 23.8604651,28.6883721 24.2790698,29.1627907 C24.3348837,29.2465116 24.3348837,29.2186047 24.3348837,29.2186047 C24.3069767,29.2186047 24.3069767,29.1627907 24.3069767,29.1627907 Z" id="Shape" fill="#000000"></path>
            <path d="M22.0465116,13.144186 C20.0093023,17.7767442 24.5860465,19.7023256 24.6697674,19.7302326 L24.4186047,18.6418605 L24.2790698,18.055814 C24.1727149,17.9975395 24.0604533,17.9507638 23.944186,17.9162791 C23.9162791,17.9162791 23.8883721,17.8883581 23.8604651,17.8604651 C23.8087203,17.8594156 23.7591244,17.8395772 23.7209302,17.8046512 C21.7116279,16.744186 21.9069767,14.2046512 22.0465116,13.3674419 L22.0465116,13.2837209 C22.0654623,13.2299499 22.0749056,13.1732897 22.0744186,13.1162791 L22.0744186,13.1162791 C22.0744186,13.0604651 22.0744186,13.1162791 22.0465116,13.144186 Z" id="Shape" fill="#000000"></path>
            <path d="M25.0604651,26.2046512 L24.7255814,20.372093 L26.7069767,26.8744186 C26.7069767,26.8744186 26.0651163,25.3395349 25.0604651,26.2046512 Z" id="Shape" fill="#C4CED4"></path>
            <path d="M26.7069767,14.8186047 L25.2,9.32093023 L25.2,9.43255814 L25.6186047,12.9209302 C25.6376862,12.9649399 25.6471986,13.0125018 25.6465116,13.0604651 C25.6465116,13.255814 25.5348837,13.5069767 24.5860465,12.5302326 C24.5581395,12.4744186 24.5302326,12.4744186 24.5302326,12.4744186 C25.4790698,14.4 26.7069767,14.8186047 26.7069767,14.8186047 Z" id="Shape" fill="#C4CED4"></path>
            <path d="M23.1069767,15.8232558 C22.9798227,15.572346 22.912935,15.2952401 22.9116279,15.0139535 C22.9222729,14.5036244 23.1570502,14.0238622 23.5534884,13.7023256 L23.5813953,13.6744186 C23.5451469,13.2100086 23.5451469,12.7434798 23.5813953,12.2790698 C23.0790698,13.0046512 22.0186047,14.7627907 23.3023256,16.1302326 C23.2744186,16.1023256 23.2465116,16.0744186 23.2465116,16.0465116 C23.1962221,15.9745219 23.1496496,15.9000059 23.1069767,15.8232558 L23.1069767,15.8232558 Z" id="Shape" fill="#C4CED4"></path>
            <path d="M24.4465116,16.5209302 C23.9728943,15.6485583 23.6787407,14.6901869 23.5813953,13.7023256 L23.5813953,13.6744186 C23.1798985,14.0040572 22.944895,14.4944994 22.9395349,15.0139535 C22.9497041,15.2821464 23.0063594,15.5465376 23.1069767,15.7953488 C23.1652901,15.8719466 23.2122829,15.9565336 23.2465116,16.0465116 C23.2744186,16.0465116 23.3023256,16.1023372 23.3023256,16.1302326 L23.3860465,16.2139535 C23.6971171,16.5266185 24.1171955,16.7066521 24.5581395,16.7162791 C24.5093057,16.6585311 24.4714711,16.5923207 24.4465116,16.5209302 L24.4465116,16.5209302 Z" id="Shape" fill="#000000"></path>
            <path d="M26.2604651,26.9581395 C26.2604651,26.9581395 25.2837209,26.7069767 25.3674419,28.7162791 C25.3732362,28.6569819 25.392313,28.5997515 25.4232558,28.5488372 C25.7023256,27.8790837 25.9813953,27.627907 26.2325581,27.6 C26.427907,27.6 26.5953488,27.7953488 26.7069767,28.0465116 C26.8301388,28.3461455 26.9327028,28.6538375 27.0139535,28.9674419 C27.0936777,29.2317047 27.1497129,29.5025416 27.1813953,29.7767442 C27.2070069,29.9522518 27.2163489,30.1297503 27.2093023,30.3069767 L27.2093023,30.3348837 C27.2372093,30.1116279 27.655814,27.3488372 26.2604651,26.9581395 Z" id="Shape" fill="#C4CED4"></path>
            <path d="M27.2093023,30.3348837 L27.2093023,30.3348837 C27.1813953,30.0837209 27.1813953,29.9162791 27.1534884,29.7767442 C27.1255814,29.5534884 27.0697674,29.2744186 27.0139535,28.9953488 C26.9362372,28.6681043 26.8239795,28.3500408 26.6790698,28.0465116 C26.5674419,27.7953488 26.4,27.627907 26.2046512,27.627907 C25.9534884,27.627907 25.7023256,27.9069767 25.3953488,28.5488372 C25.3898365,28.6170021 25.3708662,28.683398 25.3395349,28.744186 L25.8418605,29.7767442 C25.8418605,29.7767442 26.1209302,26.9581395 27.2093023,30.3348837 Z" id="Shape" fill="#000000"></path>
        </g>
    </g>
</svg>