<?xml version="1.0" encoding="UTF-8"?>
<svg width="60px" height="60px" viewBox="0 0 60 60" version="1.1" xmlns="http://www.w3.org/2000/svg" xmlns:xlink="http://www.w3.org/1999/xlink">
    <!-- Generator: Sketch 43.2 (39069) - http://www.bohemiancoding.com/sketch -->
    <title>Slice</title>
    <desc>Created with Sketch.</desc>
    <defs></defs>
    <g id="Page-1" stroke="none" stroke-width="1" fill="none" fill-rule="evenodd">
        <g id="MIA" transform="translate(8.000000, 0.000000)">
            <path d="M5.56245487,16.976296 C5.69241877,15.4947076 10.9949458,13.5452491 19.6245487,13.2333357 C18.5414203,14.0434402 17.8220884,15.2485547 17.6231047,16.5864043 L17.5451264,17.210231 C17.495907,17.6160118 17.4088863,18.016307 17.2851986,18.4058989 C16.9472924,19.2636606 16.0115523,19.9914585 15.0238267,20.5113141 C11.566787,20.0954296 8.65559567,19.341639 6.96606498,18.4318917 C6.03032491,17.9640195 5.51046931,17.4181668 5.56245487,16.976296 Z M38.5732852,16.5344188 C38.9111913,16.8983285 38.8851986,17.1322527 38.8851986,17.210244 C38.8592058,17.6261285 38.3393502,18.1459733 37.4555957,18.5878614 C35.6101083,19.5495942 32.4389892,20.2773921 28.6960289,20.6672838 C28.8722096,20.5613475 29.0544744,20.4658754 29.2418773,20.3813632 L29.2938628,20.3553704 C30.3855596,19.9134931 31.6072202,19.4196303 31.6592058,17.6261285 C31.6851986,17.3402079 31.6851986,16.4824462 31.8411552,16.1705329 C32.0490975,15.7546484 32.5689531,15.1568144 33.0108303,14.974865 L32.2570397,14.8449011 L32.1530686,14.8449011 C32.3834773,14.6741163 32.5704659,14.4515108 32.698917,14.1950816 C35.766065,14.8448816 37.8194946,15.7026477 38.5732852,16.5344101 L38.5732852,16.5344188 Z M42.3162455,14.2990505 C40.7306859,12.5055487 37.1436823,11.0759458 32.5689531,10.2181841 C32.5689531,9.69832852 32.9068592,9.4643935 33.4787004,9.04850903 C33.8143918,8.81714992 34.1355727,8.5654135 34.4404332,8.29471841 C35.9220217,6.86511552 34.1805054,4.73370758 34.1285199,4.62973646 L33.166787,3.46006137 L33.400722,4.9676426 C33.5566787,5.98136101 33.1927798,6.34525993 32.0490975,7.12504332 C31.9223767,7.22251769 31.800907,7.32663461 31.6851986,7.43695668 C31.7678567,6.63674242 31.7151335,5.82832108 31.5292419,5.04562094 C31.3212996,4.10988087 30.8534296,3.71998917 30.8534296,3.71998917 L30.7234657,5.0976065 C30.7234657,5.12359928 30.6194946,6.18930325 29.1898917,7.48894224 C29.3106448,7.34803856 29.4234549,7.2005176 29.5277978,7.04706498 C30.2296029,6.00735379 30.0216606,4.86367148 29.7877256,3.51204693 L29.7357401,3.22612635 C29.5018051,1.84850903 29.865704,0.964767509 30.099639,0.808797834 C30.333574,0.522877256 30.801444,0.0550072202 30.801444,0.0550072202 C30.801444,0.0550072202 30.567509,-0.0489638989 29.865704,0.0290144404 C28.9819495,0.158978339 27.4743682,0.704826715 27.500361,1.92647653 C27.5506939,2.43511323 27.6732242,2.93398688 27.8642599,3.40806498 C28.0202166,3.9019278 28.1761733,4.36979783 28.0202166,4.57774007 C27.9162455,4.75968953 27.6043321,4.91564621 27.0844765,5.01961733 C24.9530686,5.40950903 23.3415162,6.37124188 22.5357401,7.77485199 C22.2584379,8.24007487 22.0648912,8.75033416 21.9638989,9.28243321 C16.7393502,9.30842599 11.7747292,9.95824549 7.95379061,11.1279206 C3.63898917,12.4535523 1.27364621,14.2730469 1.09169675,16.3784621 C0.987725632,17.4961516 1.50758123,19.0817112 4.26281588,20.6152852 L4.2368231,20.6152852 L5.0166065,21.0051769 L5.43249097,21.1871264 C6.8633882,21.815269 8.35198343,22.3027622 9.87725632,22.642722 C9.29084671,22.972455 8.74180765,23.3646257 8.23971119,23.8123971 C4.31431221,27.0439879 2.95781639,32.4590999 4.89621579,37.1595833 C6.8346152,41.8600666 11.6138676,44.7449005 16.6761329,44.2701313 C21.7383982,43.7953621 25.8979135,40.0721978 26.9285199,35.0932635 C27.8642599,32.3120361 27.7602888,29.3228664 27.7083032,28.1791841 C27.6043321,25.6059119 28.8779783,24.176296 29.6837545,23.5524693 C33.3227437,23.0845993 36.5718412,22.2788231 38.9631769,21.2131191 L39.3530686,21.0311697 L40.1848375,20.641278 L40.1588448,20.6152852 C42.1083032,19.5235884 43.2,18.275935 43.3039711,16.9243105 C43.4079422,15.9885704 43.0700361,15.1048116 42.3162455,14.2990419 L42.3162455,14.2990505 Z" id="Shape" fill="#000000" fill-rule="nonzero"></path>
            <polygon id="Shape" fill="#000000" fill-rule="nonzero" points="11.5407942 52.2225271 13.0223827 46.2181949 10.5790614 46.2181949 9.09747292 52.2225271"></polygon>
            <path d="M16.8693141,47.6737625 L17.0252708,50.1430765 L15.7516245,50.1430765 L17.0252708,52.2224989 L19.2606498,52.2224989 L18.9227437,46.2181668 L15.2577617,46.2181668 C15.2577617,46.2181668 12.2425993,52.2224989 12.2685921,52.2224989 L14.6079422,52.2224989 L16.8693141,47.6737625 Z" id="Shape" fill="#000000" fill-rule="nonzero"></path>
            <polygon id="Shape" fill="#000000" fill-rule="nonzero" points="11.2288809 57.7849819 10.7090253 59.8384116 12.9963899 59.8384116 14.4779783 53.8080866 12.1906137 53.8080866 11.6447653 56.1474368 9.92924188 56.1474368 10.4750903 53.8080866 8.18772563 53.8080866 6.70613718 59.8384116 8.99350181 59.8384116 9.48736462 57.7849819"></polygon>
            <polygon id="Shape" fill="#000000" fill-rule="nonzero" points="16.6873646 58.4607942 16.8433213 57.6550181 19.6765343 57.6550181 20.0404332 56.3293863 17.2072202 56.3293863 17.3891697 55.4456318 20.2223827 55.4456318 20.6642599 53.8080866 15.5176895 53.8080866 14.0101083 59.8384116 19.1566787 59.8384116 19.5205776 58.4607942"></polygon>
            <polygon id="Shape" fill="#000000" fill-rule="nonzero" points="31.399278 52.2225271 32.8808664 46.2181949 30.4375451 46.2181949 28.9559567 52.2225271"></polygon>
            <path d="M35.4281588,50.8708765 C35.766065,51.3127538 36.1299639,52.1965083 34.6223827,52.8723206 C32.8548736,53.6780968 34.6223827,55.7055336 32.2310469,55.7055336 L31.2433213,55.7055336 L30.2296029,59.8383856 L27.7862816,59.8383856 L28.7740072,55.7055336 L27.1104693,55.7055336 L27.6303249,53.8080606 L31.8931408,53.8080606 C34.3884477,53.8080606 32.6209386,52.0665444 33.9205776,51.8326094 C34.8043321,51.6766592 35.3501805,51.520696 35.4281588,50.8708765 Z" id="Shape" fill="#000000" fill-rule="nonzero"></path>
            <polygon id="Shape" fill="#000000" fill-rule="nonzero" points="4.8866426 49.3113357 4.4967509 46.2181949 1.48158845 46.2181949 0 52.2225271 2.23537906 52.2225271 3.04115523 49.0774007 3.06714801 49.0774007 3.50902527 52.2225271 4.80866426 52.2225271 6.62815884 49.0774007 6.65415162 49.0774007 5.92635379 52.2225271 8.03176895 52.2225271 9.5133574 46.2181949 6.62815884 46.2181949"></polygon>
            <polygon id="Shape" fill="#000000" fill-rule="nonzero" points="24.7711191 49.3113357 24.3812274 46.2181949 21.366065 46.2181949 19.8844765 52.2225271 22.1198556 52.2225271 22.9256318 49.0774007 22.9516245 49.0774007 23.3935018 52.2225271 24.6931408 52.2225271 26.5126354 49.0774007 26.5386282 49.0774007 25.8108303 52.2225271 27.9162455 52.2225271 29.4238267 46.2181949 26.5126354 46.2181949 24.7971119 49.3113357"></polygon>
            <path d="M24.4072202,55.2896534 L24.5631769,57.7589675 L23.2895307,57.7589675 L24.5631769,59.8383899 L26.798556,59.8383899 L26.4606498,53.808065 L22.7956679,53.808065 C22.7956679,53.808065 19.7805054,59.8383899 19.8064982,59.8383899 L22.1458484,59.8383899 L24.4072202,55.2896534 Z" id="Shape" fill="#000000" fill-rule="nonzero"></path>
            <path d="M4.47075812,33.5596874 C4.82365797,35.399492 5.86476633,37.0355195 7.38194946,38.1344166 C7.90207407,38.5048585 8.47054805,38.8022141 9.07148014,39.0181711 C8.70758123,38.3943444 8.26570397,37.7445249 7.82382671,37.0947054 C6.99205776,35.8730448 6.13429603,34.5993986 5.58844765,33.247774 C5.03172376,31.8725454 4.86969381,30.3692736 5.12057762,28.9069971 C4.66941807,30.1392038 4.44059689,31.4417207 4.44476534,32.7539177 C4.44476534,33.0398274 4.47075812,33.2997574 4.47075812,33.5596874 Z" id="Shape" fill="#98002E" fill-rule="nonzero"></path>
            <path d="M6.34223827,32.9618513 C6.86209386,34.2354975 7.69386282,35.4571581 8.49963899,36.6268332 C9.10943071,37.5068844 9.67335887,38.4178453 10.1891697,39.3560751 C10.7045669,39.461328 11.2251408,39.539414 11.7487365,39.5900101 C11.164539,38.740848 10.6845601,37.8245246 10.3191336,36.8607682 C8.70758123,32.8578801 8.91552347,27.919252 10.9169675,25.0600462 C11.9163286,23.660768 13.2351607,22.5201564 14.7638989,21.7329704 C16.1155235,21.0051726 16.9732852,20.7712375 17.8570397,20.2513819 C18.7927798,19.7055336 19.2866426,18.7697935 18.6628159,16.6643783 C18.5201728,16.1843061 18.4673028,15.682041 18.5068592,15.1827899 C18.258737,15.6333815 18.0998773,16.1276116 18.0389892,16.6383856 C17.9641743,17.2894957 17.8337337,17.9330023 17.6490975,18.5618513 C16.8173285,20.7452448 12.7884477,21.9409126 12.2685921,22.1228621 C10.8949044,22.5214128 9.61989217,23.2031902 8.52563177,24.1243061 C6.03509893,26.3320487 5.16637945,29.8482943 6.34223827,32.9618513 L6.34223827,32.9618513 Z" id="Shape" fill="#98002E" fill-rule="nonzero"></path>
            <path d="M23.1855596,13.2333292 C23.2115523,13.3633004 23.2375451,13.4932643 23.2635379,13.6232209 C23.367509,14.4030043 23.133574,15.026831 22.2238267,15.1567949 C21.2620939,15.3127516 20.9241877,14.4809827 20.8462094,13.8051704 C20.8462094,13.5452426 20.8722022,13.3632931 20.8722022,13.2333292 L20.4043321,13.2333292 C19.9971315,13.4710379 19.6215948,13.7592405 19.2866426,14.091091 C19.1046931,14.5069755 18.8707581,15.0788166 19.234657,16.4044484 C19.8584838,18.7697913 19.5725632,20.1993942 17.701083,21.0051704 C15.2837545,22.0448816 13.7241877,22.6687083 11.6707581,25.2679863 C10.6830325,26.4896469 10.1371841,28.5690693 10.0592058,30.6224989 C10.0017559,32.6479112 10.3554474,34.6639527 11.098917,36.5488527 C11.5294333,37.6388939 12.097189,38.6695888 12.7884477,39.6160007 C13.4440737,39.5805689 14.0959006,39.4936586 14.7379061,39.3560729 C14.0127298,38.5111624 13.5837109,37.4523073 13.5162455,36.3409105 C13.2823105,32.4939791 15.3357401,30.8824267 18.5068592,28.3611271 L19.9364621,27.1654592 C25.6028881,22.3567949 23.9393502,17.4701523 24.5631769,13.2853148 C24.1053173,13.2420454 23.645378,13.2246892 23.1855596,13.2333292 L23.1855596,13.2333292 Z" id="Shape" fill="#98002E" fill-rule="nonzero"></path>
            <path d="M25.4469314,13.3113162 C25.288733,14.170371 25.1845574,15.0385004 25.1350181,15.9105942 C24.901083,19.5495834 25.0310469,23.6824224 20.4043321,27.7633018 L19.0267148,28.8809913 C15.933574,31.3503054 14.166065,32.9098722 14.2960289,36.2629408 C14.3216549,37.340341 14.7808602,38.3618385 15.5696751,39.0961538 C16.4551828,38.8351287 17.3093881,38.4777629 18.1169675,38.0304671 C22.1198556,35.7430895 24.6411552,32.3380484 25.6028881,27.9712484 C26.200722,25.2160137 26.200722,22.9806347 26.1747292,21.1611531 C26.1747292,20.2514058 26.3046931,18.4838968 26.3046931,18.4838968 C26.434657,17.3662072 26.5906137,15.7546549 27.9162455,13.7012253 C27.968231,13.6232469 27.9942238,13.5712614 28.0462094,13.493283 C27.2404332,13.415283 26.3566787,13.3632996 25.4469314,13.3113162 Z" id="Shape" fill="#98002E" fill-rule="nonzero"></path>
            <path d="M26.798556,25.0080671 C26.6685921,25.6838794 26.6425993,26.4116773 26.5646209,27.1394751 C26.5126354,27.3994029 26.4606498,27.6853235 26.434657,27.9452513 C26.4298286,28.0254909 26.4122813,28.1044536 26.3826715,28.1791863 C25.3949458,32.7799083 22.7696751,36.3409191 18.532852,38.7322549 C17.8362662,39.1336785 17.1056386,39.4728933 16.3494585,39.7459581 C17.5971119,40.5517343 19.0267148,40.8116621 20.0144404,40.6557206 C23.8093863,40.1098722 25.6548736,37.6405581 26.5386282,34.9892946 C27.4483755,32.2860455 27.3444043,29.4008469 27.2924188,28.2051791 C27.1624549,24.202291 30.2296029,22.7207025 30.2296029,22.7207025 C27.8642599,22.5907321 27.0584838,23.6304412 26.798556,25.0080671 Z" id="Shape" fill="#98002E" fill-rule="nonzero"></path>
            <path d="M24.2772563,39.745969 C23.1480565,40.6739011 21.7773437,41.2600612 20.3263538,41.4354996 C18.609438,41.6726792 16.8705426,41.1933081 15.5176895,40.1098679 C15.465704,40.0838751 15.465704,40.0578823 15.4137184,40.0318895 C14.7654551,40.2032859 14.1050523,40.3249391 13.4382671,40.3957884 C14.9458484,42.0333336 16.9732852,42.9690736 19.6505415,43.1250303 L19.6765343,43.1250303 C21.5010112,42.4209694 23.1063797,41.2460908 24.3292419,39.7199762 C24.3032491,39.7199783 24.3032491,39.745969 24.2772563,39.745969 Z" id="Shape" fill="#98002E" fill-rule="nonzero"></path>
            <path d="M10.1891697,42.5012101 C10.189493,41.6339306 9.98463636,40.778877 9.59133574,40.0059032 C8.63999905,39.732334 7.73050387,39.3300573 6.88808664,38.8102354 C6.40355661,38.4616754 5.9589867,38.0606907 5.56245487,37.6145675 C6.56036027,39.6840144 8.17729986,41.3917933 10.1891697,42.5012101 L10.1891697,42.5012101 Z" id="Shape" fill="#98002E" fill-rule="nonzero"></path>
            <path d="M17.9090253,43.6448859 C16.4916277,43.3649751 15.1522519,42.7795525 13.9841155,41.9293625 C13.4004713,41.4881929 12.8685739,40.9824543 12.398556,40.4217812 C11.7872702,40.42694 11.1772209,40.3659351 10.5790614,40.2398318 C10.9289289,41.0861377 11.0629109,42.0061474 10.9689531,42.9170881 C12.4207081,43.5797922 13.9998536,43.9169139 15.5956679,43.9048159 C16.3727271,43.9055336 17.1478413,43.8271512 17.9090253,43.6708809 C17.9350181,43.6448859 17.9090253,43.6448859 17.9090253,43.6448859 Z" id="Shape" fill="#98002E" fill-rule="nonzero"></path>
            <path d="M30.8794224,16.2485004 C30.6194946,17.1062621 29.7617329,17.002291 29.5018051,16.5344101 C29.1119134,15.8066123 29.26787,15.2347711 29.6837545,14.8448794 C30.0736462,14.4549877 30.7494585,14.2470455 31.399278,13.9351321 L31.4252708,13.9351321 C30.6714801,13.8051682 29.865704,13.7011971 29.033935,13.597226 C29.0079422,13.6232188 29.0079422,13.6232188 28.9819495,13.6232188 C28.9190845,13.7148295 28.8495839,13.8017052 28.7740072,13.8831466 C27.8121895,15.2664612 27.2378334,16.8818377 27.1104693,18.5618469 L27.0844765,18.9257458 C27.0011733,19.6764682 26.9751052,20.4324403 27.0064982,21.1871177 L27.0064982,21.5510166 C26.9805054,21.86293 26.9805054,22.1748433 26.9805054,22.4607639 L26.9805054,22.4607639 C27.0064982,22.3308 27.0064982,22.3048072 27.0064982,22.3567928 C27.3703971,21.1351321 28.0722022,20.4073343 29.0599278,19.9914498 C30.1516245,19.5755653 31.1913357,19.1856736 31.2433213,17.6261069 C31.2693141,16.9762874 31.3212996,16.3264679 31.4512635,16.0145545 C31.6020656,15.6734352 31.8692412,15.3970466 32.2050542,15.2347711 C31.6851986,15.2087783 31.1133574,15.4167249 30.8794224,16.2485004 Z" id="Shape" fill="#98002E" fill-rule="nonzero"></path>
            <path d="M32.1530686,10.1142022 C32.2310469,9.07449097 33.2187726,8.89254152 34.1805054,8.008787 C35.4021661,6.83911191 33.7906137,4.91564621 33.7906137,4.91564621 C33.998556,6.2152852 33.400722,6.70914801 32.3090253,7.48893141 C31.9543013,7.71525367 31.7167527,8.08582945 31.6592058,8.50264982 C31.644582,9.01695348 31.5924581,9.5295051 31.5032491,10.0362238 C31.7212035,10.0493826 31.9381889,10.0754208 32.1530686,10.1142022 Z" id="Shape" fill="#F9A01B" fill-rule="nonzero"></path>
            <path d="M32.1530686,10.1142022 C32.2310469,9.07449097 33.2187726,8.89254152 34.1805054,8.008787 C35.4021661,6.83911191 33.7906137,4.91564621 33.7906137,4.91564621 C33.998556,6.2152852 33.400722,6.70914801 32.3090253,7.48893141 C31.9543013,7.71525367 31.7167527,8.08582945 31.6592058,8.50264982 C31.644582,9.01695348 31.5924581,9.5295051 31.5032491,10.0362238 C31.7212035,10.0493826 31.9381889,10.0754208 32.1530686,10.1142022 Z" id="Shape" stroke="#F9A01B" stroke-width="0.12"></path>
            <path d="M28.8,8.32069386 C28.519825,8.53178218 28.2508666,8.75736021 27.9942238,8.99650614 C27.8122744,9.1784556 27.6303249,9.33441227 27.4743682,9.51636173 C28.5400722,9.59434007 29.5797834,9.72430397 30.5935018,9.85426787 C31.2173285,8.68459278 31.5292419,7.38495379 31.1393502,5.12358195 C31.1393502,5.12357978 31.0613718,6.65715812 28.8,8.32069386 Z" id="Shape" fill="#F9A01B" fill-rule="nonzero"></path>
            <path d="M28.8,8.32069386 C28.519825,8.53178218 28.2508666,8.75736021 27.9942238,8.99650614 C27.8122744,9.1784556 27.6303249,9.33441227 27.4743682,9.51636173 C28.5400722,9.59434007 29.5797834,9.72430397 30.5935018,9.85426787 C31.2173285,8.68459278 31.5292419,7.38495379 31.1393502,5.12358195 C31.1393502,5.12357978 31.0613718,6.65715812 28.8,8.32069386 Z" id="Shape" stroke="#F9A01B" stroke-width="0.12"></path>
            <path d="M22.8216606,9.28242888 C24.0433213,9.30842166 25.2389892,9.33441444 26.434657,9.43838556 C26.4627311,9.39018482 26.4977656,9.34639163 26.5386282,9.30842166 C27.3184116,8.47665271 28.5400722,7.74885487 29.1898917,6.8131148 C29.8397112,5.87737473 29.5797834,4.70769964 29.3198556,3.30408953 C28.9039711,0.886761011 29.9436823,0.444883755 29.9436823,0.444883755 C29.9436823,0.444883755 27.8902527,0.730804332 27.9422383,1.90047942 C27.9942238,3.48603899 29.631769,4.96762744 27.1624549,5.43549747 C24.4592058,5.92936029 22.7696751,7.38495596 22.4057762,9.30842166 C22.543377,9.28760802 22.682539,9.27891039 22.8216606,9.28242888 Z" id="Shape" fill="#F9A01B" fill-rule="nonzero"></path>
            <path d="M22.8216606,9.28242888 C24.0433213,9.30842166 25.2389892,9.33441444 26.434657,9.43838556 C26.4627311,9.39018482 26.4977656,9.34639163 26.5386282,9.30842166 C27.3184116,8.47665271 28.5400722,7.74885487 29.1898917,6.8131148 C29.8397112,5.87737473 29.5797834,4.70769964 29.3198556,3.30408953 C28.9039711,0.886761011 29.9436823,0.444883755 29.9436823,0.444883755 C29.9436823,0.444883755 27.8902527,0.730804332 27.9422383,1.90047942 C27.9942238,3.48603899 29.631769,4.96762744 27.1624549,5.43549747 C24.4592058,5.92936029 22.7696751,7.38495596 22.4057762,9.30842166 C22.543377,9.28760802 22.682539,9.27891039 22.8216606,9.28242888 Z" id="Shape" stroke="#F9A01B" stroke-width="0.12"></path>
            <path d="M22.8216606,9.9062556 C11.4888087,9.80228448 2.0534296,12.7134758 1.74151625,16.4304433 C1.61155235,17.9120318 2.93718412,19.2896491 5.30252708,20.4333314 C7.05710306,21.2302331 8.89728527,21.8232776 10.7870036,22.2008404 C11.2288809,22.018891 11.6447653,21.8629343 12.1386282,21.7069776 C12.7594463,21.5223177 13.3672874,21.2965481 13.9581227,21.0311653 C10.7870036,20.5892881 8.23971119,19.8614903 6.65415162,19.0037285 C5.48447653,18.3799018 4.86064982,17.6780968 4.93862816,16.9243061 C5.1465704,14.4289993 13.0743682,12.5055336 22.6137184,12.5835119 C32.1790614,12.687483 39.7429603,14.7928982 39.5090253,17.2622123 C39.4570397,17.9640173 38.8072202,18.587844 37.7415162,19.1596852 C35.7400722,20.2253892 32.2310469,21.0051726 27.9422383,21.3950534 C27.7955138,21.61023 27.6651823,21.836138 27.5523466,22.0708657 C29.5018051,21.3430679 31.7631769,22.4347755 31.7631769,22.4347755 C31.8527758,22.4719131 31.9396352,22.5153428 32.0231047,22.5647394 C34.8563177,22.0448838 37.299639,21.3170859 39.1191336,20.4593242 C41.2765343,19.4455949 42.6021661,18.1719466 42.7061372,16.846317 C43.0180505,13.1293625 34.1285199,10.0362152 22.8216606,9.9062556 Z" id="Shape" fill="#FFFFFF" fill-rule="nonzero"></path>
        </g>
    </g>
</svg>