<?xml version="1.0" encoding="UTF-8"?>
<svg width="60px" height="60px" viewBox="0 0 60 60" version="1.1" xmlns="http://www.w3.org/2000/svg" xmlns:xlink="http://www.w3.org/1999/xlink">
    <!-- Generator: Sketch 43.2 (39069) - http://www.bohemiancoding.com/sketch -->
    <title>Slice</title>
    <desc>Created with Sketch.</desc>
    <defs></defs>
    <g id="Page-1" stroke="none" stroke-width="1" fill="none" fill-rule="evenodd">
        <g id="LAL" transform="translate(0.000000, 11.000000)" fill-rule="nonzero">
            <path d="M13.0391753,8.3381567 C13.0391753,8.3381567 18.1360825,0 28.5773196,0 C39.0185567,0 43.8927835,8.11546392 43.8927835,8.11546392 L58.0453608,8.11546392 L57.4762887,11.5793814 C57.4762887,11.5793814 57.0804124,12.9649485 56.4371134,13.1134021 L57.4020619,13.1134021 C57.4020619,13.1134021 57.7237113,14.3505155 55.7938144,18.556701 L59.9257732,18.556701 C59.9257732,18.556701 60.0742268,25.9298969 51.1670103,29.3938268 C51.1670103,29.3938268 46.5649485,30.8536206 44.214433,28.3546515 C44.214433,28.3546515 39.5134021,37.0886722 28.5773196,37.0886722 C17.6412371,37.0886722 12.7175258,28.1072289 12.7175258,28.1072289 L0,28.1072289 L2.02886598,24.4701155 L0.643298969,24.4701155 L2.27628866,21.476301 L5.02268041,21.476301 L5.49278351,20.3381567 L4.20618557,20.3381567 L7.37319588,14.4989691 L9.15463918,14.4989691 L9.87216495,12.7175258 L8.33814433,12.7175258 L10.6886598,8.33814433 L13.0391753,8.3381567 Z" id="Shape" fill="#FFFFFF"></path>
            <path d="M28.7257732,35.1340206 C37.657732,35.1340206 44.9072165,27.785567 44.9072165,18.7051546 C44.9072165,9.64948454 37.657732,2.30103093 28.7257732,2.30103093 C19.7938144,2.30103093 12.5443299,9.64948454 12.5443299,18.7051546 C12.5443299,27.785567 19.7938144,35.1340206 28.7257732,35.1340206 Z" id="Shape" fill="#FDB927"></path>
            <path d="M30.5072165,18.6309278 L29.814433,18.6309278 C29.7613398,18.6345354 29.7190715,18.6768038 29.7154639,18.7298969 C29.7154639,18.7793814 29.7649485,18.8041237 29.814433,18.8041237 L30.5319588,18.8041237 C30.7793814,18.8041237 31.0020619,18.828866 30.9278351,18.9278351 L29.0721649,22.4907216 C29.00874,22.6579021 28.8461819,22.7663852 28.6674621,22.7608002 C28.4887423,22.7552153 28.3332748,22.6367936 28.2804124,22.4659794 L27.3649485,17.7154639 L30.5814433,15.2164948 C30.9030928,14.9195876 31.5216495,14.4742268 31.843299,14.4742268 L32.5608247,14.4742268 C32.9814433,14.4742268 33.1298969,14.6721649 33.0309278,14.9443299 L32.9072165,15.1670103 C32.8329897,15.3154639 32.5608247,15.3402062 32.3628866,15.3402062 L31.942268,15.3402062 C31.9218249,15.337285 31.9011994,15.3441598 31.8865971,15.3587621 C31.8719948,15.3733644 31.86512,15.3939898 31.8680412,15.414433 C31.8680412,15.4639175 31.8927835,15.5134021 31.942268,15.5134021 L32.3628866,15.5134021 C32.5360825,15.5134021 32.7340206,15.5134021 32.6597938,15.6371134 L31.1752577,18.5072165 C31.1010309,18.6061959 30.7793814,18.6309278 30.5072165,18.6309278 Z M36.0989691,20.3876289 C34.5896907,22.243299 33.7484536,22.8618557 32.214433,22.8618557 C31.6948454,22.8618557 31.4226804,22.7381443 31.5463918,22.4907216 L33.3773196,18.8288763 L34.0701031,18.8288763 C34.8371134,18.8288763 34.7381443,19.4721753 34.5402062,20.3628845 C34.4907216,20.4865959 34.5896907,20.4865959 34.6886598,20.3876268 L36.4206186,17.3443278 C36.4948454,17.1463897 36.2721649,17.1216474 36.1731959,17.270101 C35.3072165,18.4329876 34.3917526,18.3587608 33.9958763,18.3587608 L33.6989691,18.3587608 L35.628866,14.6474206 L36.4206186,14.6474206 C37.4103093,14.6969052 37.8556701,15.5381423 37.5835052,17.5670082 L37.9793814,17.5670082 L39.414433,14.7463918 C39.5381443,14.4989691 39.2907216,14.2762887 39.0185567,14.2762887 L29.3195876,14.3010309 C28.7505155,14.3010309 28.7257732,14.7216495 29.2701031,14.7216495 C29.7154639,14.7216495 29.6907216,15.3402062 29.2948454,15.6371134 L25.1628866,18.9278351 L26.0041237,22.7876289 C26.0473429,23.0595794 26.3005334,23.24672 26.5731959,23.2082474 L34.5896907,23.2082474 C34.8220388,23.2301359 35.0484099,23.1263823 35.1835052,22.9360825 L36.6185567,20.4371134 C36.8164948,20.0659938 36.371134,20.090734 36.0989691,20.3876289 Z" id="Shape" fill="#552583"></path>
            <path d="M18.3587629,19.3484536 L15.8103093,19.3484536 L19.0268041,15.0927835 L18.3587629,19.3484536 Z M17.7649485,21.9958763 C17.6907216,22.4164948 17.2453608,22.7134021 16.7010309,22.8618557 L16.1319588,23.0103093 L16.6020619,22.1690722 C16.7257732,21.9216495 16.4536082,21.7979381 16.156701,22.1443299 C14.1773196,24.4453608 13.5340206,25.5587629 10.4659794,25.5587629 L9.64948454,25.5587629 C9.40206186,25.5587629 9.12989691,25.4597938 9.30309278,25.2371134 L10.3917526,23.2082474 L14.4989691,23.2082474 C15.043299,23.2082474 14.9195876,22.7876289 14.5731959,22.7876289 C14.321177,22.7467825 14.0972862,22.6034924 13.9546392,22.3917526 C13.8500465,22.205034 13.8596184,21.9753085 13.9793814,21.7979381 L15.5381443,19.6948454 L18.1608247,19.6948454 L17.7649485,21.9958763 Z M23.8515464,22.7876289 C23.6743542,22.770719 23.5215173,22.6560913 23.4556701,22.4907216 C23.3755097,22.2482113 23.3842806,21.9850874 23.4804124,21.7484536 L27.2164948,15.1175258 C27.2659794,14.9938144 27.4391753,14.7216495 27.6123711,14.7216495 C27.9340206,14.7216495 28.0824742,14.3010309 27.5381443,14.3010309 L24.5195876,14.3010309 C23.9752577,14.3010309 23.9752577,14.7216495 24.4948454,14.7216495 C24.5814456,14.7156437 24.6649548,14.7550249 24.7154111,14.8256636 C24.7658674,14.8963023 24.7760357,14.98807 24.742268,15.0680412 L23.9257732,16.5773196 C23.8020619,16.7257732 23.5793814,16.7505155 23.3319588,16.7505155 L22.6391753,16.7505155 C22.5896907,16.7505155 22.5402062,16.7752577 22.5402062,16.8247423 C22.5438138,16.8778354 22.5860821,16.9201038 22.6391753,16.9237113 L23.3319588,16.9237113 C23.5298969,16.9237113 23.6783505,16.9732062 23.5793814,17.1958763 L20.8082474,22.243299 C20.6103093,22.5154784 20.214433,22.5649608 20.2391753,22.0453608 L21.2041237,14.6721649 C21.2536082,14.4494845 21.2041237,14.2762887 20.956701,14.2762887 L19.4721649,14.2762887 C19.3171936,14.2776068 19.1751217,14.36285 19.1010309,14.4989691 L18.556701,15.142268 C18.5072165,15.2164948 18.3340206,15.2164948 18.185567,15.2164948 L16.9484536,15.2164948 C16.8953605,15.2201024 16.8530921,15.2623708 16.8494845,15.3154639 C16.8494845,15.3649485 16.8989691,15.3896907 16.9484536,15.3896907 L17.9628866,15.3896907 C18.1360825,15.3896907 18.3340206,15.4391753 18.2597938,15.5381443 L16.8494845,17.3195876 C16.7677982,17.3700099 16.6732945,17.3957836 16.5773196,17.3938144 L16.1814433,17.3938144 C16.1319588,17.3938144 16.0824742,17.4185567 16.0824742,17.4680412 C16.0860861,17.5211324 16.1283522,17.5633984 16.1814433,17.5670103 L16.5030928,17.5670103 C16.6020619,17.5670103 16.6020619,17.6164948 16.5773196,17.6659794 L15.2412371,19.3484536 C15.1337773,19.4017166 15.0146945,19.4272343 14.8948454,19.4226804 L13.7072165,19.4226804 C13.657732,19.4226804 13.6329897,19.4721649 13.6329897,19.5216495 C13.6300685,19.5420926 13.6369433,19.562718 13.6515456,19.5773204 C13.6661479,19.5919227 13.6867733,19.5987974 13.7072165,19.5958763 L14.7216495,19.5958763 C14.8948454,19.5958763 14.9938144,19.6206186 14.9195876,19.7443299 L13.014433,22.1195876 C12.6680412,22.5896907 10.9360825,22.8123711 10.5896907,22.8123711 L17.0474227,10.7628866 C17.1527227,10.5573446 17.3609581,10.4248312 17.5917526,10.4164948 L18.9525773,10.4164948 C19.5958763,10.4164948 19.5958763,9.97113402 19.0268041,9.97113402 L12.1484536,9.97113402 C11.5793814,9.97113402 11.5546392,10.4164948 12.2226804,10.4164948 L13.4845361,10.4164948 C13.8556701,10.4164948 13.9546392,10.614433 13.8556701,10.8123711 L13.6824742,11.1340206 C13.6329897,11.2329897 13.5340206,11.2824742 13.1876289,11.2824742 L10.9360825,11.2824742 C10.8865979,11.2824742 10.8618557,11.3319588 10.8618557,11.3814433 C10.8589363,11.4018861 10.8658116,11.4225104 10.8804135,11.4371122 C10.8950154,11.4517141 10.9156397,11.4585895 10.9360825,11.4556701 L13.1876289,11.4556701 C13.3113402,11.4556701 13.4845361,11.5051546 13.385567,11.7278247 L13.0639175,12.2968969 C13.014433,12.395866 12.8659794,12.4206082 12.7175258,12.4206082 L11.6783505,12.4206082 C11.628866,12.4206082 11.6041237,12.4700928 11.6041237,12.5195773 C11.6041237,12.5690619 11.628866,12.6185464 11.6783505,12.6185464 L12.6927835,12.6185464 C12.8412371,12.6185464 12.8659794,12.7175155 12.7670103,12.8412268 L12.0494845,14.1773093 C11.9752577,14.3010206 11.8762887,14.3257629 11.628866,14.3257629 L11.2329897,14.3257629 C11.1835052,14.3257629 11.1340206,14.3505052 11.1340206,14.3999897 C11.1376334,14.4530804 11.179899,14.495346 11.2329897,14.4989588 L11.628866,14.4989588 C11.7773196,14.4989588 11.8268041,14.5731856 11.7525773,14.7216392 L11.1587629,15.8350412 C11.0597938,15.9834948 10.9360825,16.0577216 10.5402062,16.0577216 L8.28865979,16.0577216 C8.26821703,16.0548023 8.24759272,16.0616776 8.23299085,16.0762795 C8.21838897,16.0908814 8.21151363,16.1115057 8.21443299,16.1319485 C8.21443299,16.181433 8.23917526,16.2309175 8.28865979,16.2309175 L10.5402062,16.2309175 C10.7876289,16.2309175 10.8865979,16.3546289 10.7876289,16.5278247 L9.62474227,18.7051546 C9.55051546,18.8041237 9.37731959,18.828866 9.0556701,18.828866 L6.80412371,18.828866 C6.75463918,18.828866 6.70515464,18.8536082 6.70515464,18.9030928 C6.70876219,18.9561859 6.75103062,18.9984543 6.80412371,19.0020619 L9.03092784,19.0020619 C9.30309278,19.0020619 9.47628866,19.0020619 9.40206186,19.1505155 L8.73402062,20.4123711 C8.61030928,20.6103093 8.26391753,20.6103093 8.11546392,20.6103093 L7.39793814,20.6103093 C7.37749538,20.6073899 7.35687107,20.6142653 7.3422692,20.6288672 C7.32766732,20.6434691 7.32079198,20.6640934 7.32371134,20.6845361 C7.32371134,20.7340206 7.34845361,20.7835052 7.39793814,20.7835052 L8.11546392,20.7835052 C8.3628866,20.7835052 8.48659794,20.8329897 8.4371134,20.956701 L7.54639175,22.6391753 C7.44742268,22.7876289 7.10103093,22.7876289 6.82886598,22.7876289 L3.36494845,22.7876289 C3.31185536,22.7912365 3.26958693,22.8335047 3.26597938,22.8865979 C3.26597938,22.9360928 3.31546392,22.9608247 3.36494845,22.9608247 L6.82886598,22.9608247 C7.07628866,22.9608247 7.34845361,23.0103093 7.24948454,23.1835052 L6.68041237,24.2474227 C6.63092784,24.3463918 6.43298969,24.3463918 6.13608247,24.3463918 L5.44329897,24.3463918 C5.39020825,24.3500045 5.3479427,24.3922701 5.3443299,24.4453608 C5.3443299,24.4948454 5.39381443,24.5195876 5.44329897,24.5195876 L6.13608247,24.5195876 C6.30927835,24.5195876 6.53195876,24.5443299 6.45773196,24.6927835 L6.08659794,25.3608247 C6.00260478,25.5588629 5.80683575,25.6861177 5.59175258,25.6824866 L3.83505155,25.6824866 C3.19175258,25.6824866 3.21649485,26.1278474 3.78556701,26.1278474 L14.028866,26.1278474 C14.3257732,26.1278474 14.3505155,26.0783629 14.4742268,25.8556825 L16.0082474,23.2082598 L23.7773196,23.2082598 C24.3216495,23.2082598 24.1979381,22.7876289 23.8515464,22.7876289 L23.8515464,22.7876289 Z" id="Shape" fill="#552583"></path>
            <path d="M43.6948454,17.9134021 C43.4226804,18.1608247 42.9773196,18.4082474 42.8783505,18.3340206 C42.6656214,18.1520465 42.4332569,17.9943705 42.185567,17.8639175 L43.8680412,14.7958763 C43.9390163,14.6900843 44.0631384,14.6327972 44.1896907,14.6474227 C44.857732,14.6474227 45.0556701,15.3402062 44.7587629,16.2309278 C44.5360825,16.8494845 44.1896907,17.5175258 43.6948454,17.9134021 Z M57.2041237,20.6598082 C57.1546392,20.4618701 57.0804124,20.5855814 56.956701,20.8330041 C56.9072165,20.9319732 56.7835052,20.9319732 56.6350515,20.9319732 L56.2391753,20.9319732 C56.1941237,20.9341852 56.1549441,20.9635699 56.1402062,21.0062 C56.1375882,21.033166 56.1471709,21.0598893 56.1663285,21.0790468 C56.185486,21.0982043 56.2122093,21.107787 56.2391753,21.1051691 L56.6350515,21.1051691 C56.7835052,21.1051691 56.7835052,21.2041381 56.7092784,21.3525918 C56.4612734,21.8991369 56.1363301,22.4073779 55.7443299,22.8618598 C55.6592262,22.9464097 55.5425072,22.9913014 55.4226804,22.9855711 L55.0020619,23.0103134 C54.9525773,23.0103134 54.9030928,23.0350557 54.9030928,23.0845402 C54.9067021,23.1376326 54.9489695,23.1799 55.0020619,23.1835093 L55.3979381,23.1835093 C55.6206186,23.1835093 55.3979381,23.3072206 55.3731959,23.3567052 C54.8785282,24.0329089 54.2960996,24.6402986 53.6412371,25.1628907 C53.453808,25.1991862 53.2620369,25.2075241 53.0721649,25.187633 L52.6515464,25.187633 C52.6020619,25.187633 52.5773196,25.2371175 52.5773196,25.2866021 C52.5743984,25.3070452 52.5812732,25.3276707 52.5958755,25.342273 C52.6104777,25.3568753 52.6311033,25.3637501 52.6515464,25.3608289 L53.0721649,25.3855711 C53.3690722,25.3855711 53.1463918,25.558767 53.0969072,25.5835093 C51.9835052,26.5237155 50.3010309,26.8206227 49.5587629,26.7216536 C47.0845361,26.4247464 46.5649485,24.544334 46.3917526,23.7773237 C46.3077371,23.560386 46.2415388,23.3369627 46.1938144,23.1092722 C46.1195876,22.7133959 47.2329897,22.6144268 47.5298969,22.8123649 C48,23.1340268 49.0886598,23.4556639 49.9546392,23.4556639 C50.7463918,23.4556639 52.3546392,22.8865918 52.8247423,21.525767 C53.3195876,20.1154577 52.1072165,18.5814371 51.5628866,18.0371072 C50.8948454,17.369066 50.2515464,16.2804062 50.5237113,15.4886536 C50.7216495,14.8948515 51.0680412,14.6226742 51.785567,14.6226742 C52.7505155,14.6226742 53.4185567,15.2164887 53.4185567,16.082468 C53.4185567,16.1566948 53.3938144,16.2556639 53.3195876,16.2556639 L52.9979381,16.2556639 C52.9448449,16.2592715 52.9025767,16.3015399 52.8989691,16.354633 C52.8989691,16.4041175 52.9484536,16.4288598 52.9979381,16.4288598 L53.2948454,16.4288598 C53.3381159,16.4259463 53.3798068,16.4456581 53.405014,16.4809484 C53.4302214,16.5162387 53.4353464,16.5620691 53.4185567,16.6020557 C53.3690722,16.8989629 53.3443299,17.096901 53.2701031,17.3938082 C53.2453608,17.5670041 53.4927835,17.6659732 53.5670103,17.5422619 L55.0515464,14.8948392 C55.1752577,14.696901 54.9278351,14.6474165 54.7546392,14.696901 C54.3340206,14.8453546 53.6907216,14.9443237 53.443299,14.7711278 C52.9254658,14.3519162 52.2786138,14.1246439 51.6123711,14.1278289 C50.3010309,14.1278289 49.3608247,14.4494784 48.7670103,15.5381381 C48.7175258,15.6123649 48.5938144,15.6123649 48.4948454,15.6123649 L48.2226804,15.6123649 C48.1731959,15.6123649 48.1484536,15.6618495 48.1484536,15.711334 C48.1484536,15.7608186 48.1731959,15.8103031 48.2226804,15.8103031 L48.4453608,15.7855608 C48.5443299,15.7855608 48.5938144,15.8350454 48.5443299,15.9340144 C48.5195876,16.0329835 48.4701031,16.1319526 48.4453608,16.2309216 C48.304612,16.8069854 48.3478753,17.4126699 48.5690722,17.9628804 C48.5938144,17.9876351 48.5443299,18.0123753 48.4453608,18.0123753 L48.0494845,18.0123753 C47.9963913,18.0159828 47.9541231,18.0582512 47.9505155,18.1113443 C47.9505155,18.1608289 48,18.1855711 48.0494845,18.1855711 L48.4453608,18.1855711 C48.643299,18.1855711 48.6680412,18.2103134 48.742268,18.3092825 C48.9649485,18.6061897 49.1876289,18.8288701 49.4350515,19.1752619 C49.5340206,19.2742309 49.1628866,19.2989732 48.9649485,19.2989732 L47.3814433,19.2989732 C47.3267841,19.2989732 47.2824742,19.3432832 47.2824742,19.3979423 C47.2824742,19.4526014 47.3267841,19.4969113 47.3814433,19.4969113 L48.9896907,19.4969113 C49.2618557,19.4969113 49.7072165,19.4721691 49.756701,19.5463959 C50.1525773,19.9917567 50.6226804,20.6845402 50.6969072,21.2783546 C50.7216495,21.4515505 50.6474227,21.5257773 50.4494845,21.5257773 L50.2268041,21.5257773 C50.2063612,21.5228571 50.1857363,21.5297322 50.1711342,21.5443342 C50.1565322,21.5589363 50.1496571,21.5795612 50.1525773,21.6000041 C50.1525773,21.6494887 50.1773196,21.6989732 50.2268041,21.6989732 L50.4247423,21.6989732 C50.5979381,21.6989732 50.6721649,21.7237155 50.6474227,21.8474268 C50.4247423,22.5154784 50.1278351,23.0103134 48.8412371,22.9855711 C47.4804124,22.9855711 47.2082474,21.6742309 47.6041237,20.2886639 C47.6783505,20.016499 47.6041237,19.8927876 47.4804124,20.115468 L46.5402062,21.6000041 C46.4754233,21.6664757 46.3855377,21.7024299 46.2927835,21.6989732 L46.1690722,21.6989732 C46.114413,21.6989732 46.0701031,21.7432831 46.0701031,21.7979423 C46.0701031,21.8526014 46.114413,21.8969113 46.1690722,21.8969113 C46.2680412,21.8969113 46.3175258,21.9463959 46.2680412,22.0206227 L45.9216495,22.5402103 C45.3892744,21.3122229 44.7167724,20.149872 43.9175258,19.0762887 L43.9175258,19.0515464 C45.1793814,18.9773196 47.0103093,17.814433 47.3072165,16.7752577 C47.8268041,14.9443299 46.0701031,14.2762887 45.1051546,14.2762887 L40.8989691,14.2762887 C40.3298969,14.2762887 40.3051546,14.7216495 40.8247423,14.7216495 C41.1216495,14.7216495 41.3690722,14.9690722 41.2453608,15.2164948 L40.3051546,16.8989691 C40.2309278,17.0474227 39.9587629,17.0474227 39.5628866,17.0474227 L39.1670103,17.0474227 C39.1175258,17.0474227 39.0680412,17.0721649 39.0680412,17.1216495 C39.0716489,17.1747426 39.1139171,17.217011 39.1670103,17.2206186 L39.5628866,17.2206186 C39.8350515,17.2206186 40.1319588,17.2206186 40.0329897,17.4185567 L38.9195876,19.4226804 C38.8701031,19.5216495 38.7216495,19.5216495 38.3505155,19.5216495 L37.9546392,19.5216495 C37.901546,19.525257 37.8592777,19.5675255 37.8556701,19.6206186 C37.8556701,19.6701031 37.9051546,19.6948454 37.9546392,19.6948454 L38.3505155,19.6948454 C38.6474227,19.6948454 38.7463918,19.7443299 38.6721649,19.8927835 L37.1876289,22.5649485 C37.014433,22.7628866 36.8164948,22.7876289 36.4453608,22.7876289 C35.9010309,22.7876289 35.9257732,23.2082474 36.4701031,23.2082474 L40.0824742,23.2082474 C40.6515464,23.2082474 40.5030928,22.7876289 40.1814433,22.7876289 C39.9835052,22.7876289 39.785567,22.4164948 39.9092784,22.2185567 L41.7402062,18.7051546 L41.9381443,18.7051546 C42.7546392,18.7051546 42.9525773,20.0659794 43.1010309,21.5257732 C43.1257732,21.6247423 42.9278351,21.6494845 42.5072165,21.6494845 L41.4927835,21.6494845 C41.443299,21.6494845 41.3938144,21.6742268 41.3938144,21.7237113 C41.397421,21.7768047 41.4396901,21.8190738 41.4927835,21.8226804 L42.5072165,21.8226804 C42.7793814,21.8226804 43.1505155,21.8226804 43.1505155,21.9216495 C43.1980155,22.4952441 43.2806447,23.0653862 43.3979381,23.628866 C43.4474227,23.8020619 43.1505155,23.7773196 42.8536082,23.7773196 L41.542268,23.7773196 C41.4891748,23.7809272 41.4469066,23.8231955 41.443299,23.8762887 C41.443299,23.9257732 41.4927835,23.9505155 41.542268,23.9505155 L42.8536082,23.9505155 C43.2494845,23.9505155 43.4721649,23.9505155 43.4969072,24.0494845 C44.0412371,26.1030928 46.4659794,27.7360825 48.7917526,27.6371134 C50.8206186,27.5628866 52.5030928,26.4742268 53.3690722,25.756701 C54.5319588,24.8412371 56.2391753,22.8865979 56.9319588,21.4762887 C57.0556701,21.228866 57.2536082,20.8824742 57.2041237,20.6598082 Z" id="Shape" fill="#552583"></path>
            <path d="M23.356701,11.5793814 C23.0390998,11.9555096 22.5612122,12.1576928 22.0701031,12.1237113 L21.9216495,12.1237113 L22.8123711,10.3670103 C22.8596635,10.2742761 22.9557142,10.2166457 23.0597938,10.2185567 C23.1835052,10.2185567 23.1587629,9.99587629 23.0103093,9.99587629 L21.6247423,9.99587629 C21.5010309,9.99587629 21.4515464,10.2185567 21.5752577,10.2185567 C21.6989691,10.2185567 21.6989691,10.342268 21.6494845,10.4659794 L20.857732,12.0247423 C20.7928482,12.0944317 20.7049909,12.1383603 20.6103093,12.1484536 C20.4865979,12.1979381 20.4123711,12.3958763 20.5608247,12.3958763 L22.7876289,12.3958763 C22.9608247,12.3958763 23.0103093,12.3463814 23.0350515,12.2721649 L23.5051546,11.5793814 C23.5546392,11.5051546 23.4309278,11.4804227 23.356701,11.5793814 Z" id="Shape" fill="#552583"></path>
            <path d="M30.0865979,10.0453608 C29.9973616,10.1074333 29.878927,10.1074333 29.7896907,10.0453608 C29.5798715,9.89446668 29.3303953,9.80844039 29.0721649,9.79793814 C28.5525773,9.79793814 28.1814433,9.89690722 27.9340206,10.3917526 C27.7608247,10.8123711 27.9587629,11.1835052 28.4041237,11.3814433 C28.6268041,11.4804124 28.8742268,11.6041237 28.7752577,11.8515464 C28.7010309,12.0247423 28.5030928,12.0494845 28.3051546,12.0494845 C28.057732,12.0247299 27.6865979,11.8515464 27.6371134,11.5051546 C27.6123711,11.3814433 27.4886598,11.4061856 27.4391753,11.4804124 L27.1175258,12.0989691 C27.0680412,12.1979381 27.1917526,12.2721649 27.2659794,12.2226804 C27.3817707,12.102338 27.5627779,12.0721701 27.7113402,12.1484536 C27.9532262,12.3164113 28.2345627,12.4187155 28.5278351,12.4453608 C28.9969773,12.4853331 29.4480171,12.2550148 29.6907216,11.8515464 C29.9628866,11.4309278 29.7896907,11.0103093 29.3195876,10.7876289 C29.0474227,10.6639175 28.8247423,10.4412371 28.9484536,10.218567 C29.0226804,10.0701134 29.2453608,10.0948557 29.3690722,10.1195979 C29.6054175,10.1559123 29.8039297,10.3166126 29.8886598,10.5402165 C29.8991953,10.5764249 29.9299505,10.6031139 29.9672819,10.6084438 C30.0046134,10.6137738 30.0416085,10.5967578 30.0618557,10.5649443 L30.2103093,10.169068 C30.2597938,10.0948454 30.1360825,10.0206186 30.0865979,10.0453608 Z" id="Shape" fill="#552583"></path>
            <path d="M45.6,10.6886598 L45.7979381,10.3175258 C45.8969072,10.1690722 45.7484536,9.99587629 45.5257732,9.99587629 L42.9030928,9.99587629 C42.7298969,9.99587629 42.7793814,10.1938144 42.8536082,10.1938144 C43.0268041,10.1938144 43.0762887,10.3917526 42.9773196,10.5649485 L42.185567,12 C42.0618557,12.1484536 41.9876289,12.1979381 41.8391753,12.1979381 C41.6907216,12.1979381 41.6412371,12.3958763 41.8391753,12.3958763 L44.4865979,12.3958763 C44.585567,12.3958763 44.6350515,12.3711216 44.6597938,12.2969072 L45.0309278,11.8268041 C45.1298969,11.7278351 44.9319588,11.7278351 44.8824742,11.7773196 C44.5273944,12.1035001 44.0514167,12.2651529 43.571134,12.2226804 L43.2742268,12.2226804 L43.6206186,11.4061856 L43.6948454,11.4061856 C43.942268,11.4061856 44.214433,11.4061856 44.2639175,11.5793814 C44.2882647,11.6089669 44.3245709,11.6261084 44.3628866,11.6261084 C44.4012023,11.6261084 44.4375085,11.6089669 44.4618557,11.5793814 L44.7587629,10.9608247 C44.8082474,10.8618557 44.6845361,10.8618557 44.6350515,10.9113402 C44.5113402,11.1340206 43.9670103,11.0845361 43.843299,11.0845361 L43.7690722,11.0845361 L44.214433,10.1938247 L44.7092784,10.1938247 C45.0089971,10.1933882 45.276541,10.3816599 45.3773196,10.6639278 C45.4020619,10.7134021 45.5752577,10.7628866 45.6,10.6886598 Z" id="Shape" fill="#552583"></path>
            <path d="M32.7092784,11.1340206 L33.5752577,10.4412371 L33.5752577,11.1340206 L32.7092784,11.1340206 Z M38.9195876,9.99587629 L38.0041237,9.99587629 C37.8061856,9.99587629 37.8556701,10.1938144 37.9546392,10.1938144 C38.0595167,10.1959902 38.1553421,10.2537203 38.2062862,10.3454195 C38.2572301,10.4371188 38.2556216,10.5489788 38.2020619,10.6391753 L37.8309278,11.3319588 L36.9896907,10.0948454 C36.9019852,10.0144027 36.7870472,9.97019579 36.6680412,9.97113402 L35.7525773,9.97113402 C35.5793814,9.97113402 35.6041237,10.1690722 35.7030928,10.1690722 C35.8762887,10.1690722 35.8268041,10.3175258 35.7773196,10.4164948 L35.0597938,11.8268041 C35.0308936,11.886059 34.9685744,11.9214877 34.9028753,11.9160127 C34.8371761,11.9105378 34.7815804,11.8652829 34.7628866,11.8020619 L34.1938144,9.97113402 C34.1690722,9.89690722 33.8474227,9.89690722 33.7484536,9.97113402 L32.3381443,11.1340206 L31.6206186,11.1340206 C31.4721649,11.1340206 31.3979381,11.2082474 31.3979381,11.2824742 C31.3979381,11.356701 31.4721649,11.4309278 31.6206186,11.4309278 L31.9917526,11.4309278 L31.6206186,11.7525773 C31.3979381,11.9010309 31.1752577,12.1237113 31.0515464,12.1237113 L30.9525773,12.1237113 C30.8041237,12.1237113 30.7298969,12.1484536 30.7298969,12.2474227 C30.7298969,12.371134 30.8041237,12.3958763 30.9278351,12.3958763 L32.0659794,12.3958763 C32.2886598,12.3958763 32.2391753,12.1237216 32.1402062,12.1237216 C32.0515513,12.1250269 31.9712713,12.0715323 31.9383423,11.9892095 C31.9054132,11.9068867 31.926654,11.8127836 31.9917526,11.7525876 L32.3381443,11.4309505 L33.0309278,11.4309505 C33.4268041,11.4309505 33.7237113,11.9010536 33.4762887,12.0495072 L33.2783505,12.1484763 C33.2041237,12.1979608 33.1546392,12.395899 33.2783505,12.395899 L35.5051546,12.395899 C35.6783505,12.395899 35.6536082,12.1732186 35.5793814,12.1732186 C35.3319588,12.1732186 35.4556701,11.8515691 35.5051546,11.7773423 L36.0742268,10.6639402 L36.8907216,12.2474454 C36.9649485,12.3464144 37.014433,12.395899 37.0886598,12.395899 L37.4103093,12.395899 C37.4904965,12.4024572 37.5637023,12.3501673 37.5835052,12.2721876 L38.5237113,10.5649711 C38.6721649,10.2680763 38.7958763,10.1938515 38.9938144,10.1938515 C39.0680412,10.1938268 39.1175258,9.99587629 38.9195876,9.99587629 L38.9195876,9.99587629 Z" id="Shape" fill="#552583"></path>
            <path d="M25.9546392,11.3814433 C25.7072165,11.8762887 25.2865979,12.1731959 25.0391753,12.0494948 C24.7670103,11.9257835 24.742268,11.4061959 25.014433,10.9113505 C25.2618557,10.4165052 25.657732,10.1195979 25.9298969,10.2433093 C26.2020619,10.3917526 26.2020619,10.8865979 25.9546392,11.3814433 Z M25.7319588,9.87216495 C24.9649485,9.87216495 24.1484536,10.2680412 24,11.0845361 C23.9195505,11.4468762 24.011254,11.8260524 24.2483909,12.1115845 C24.4855276,12.3971166 24.8414198,12.556882 25.2123711,12.5443299 C26.0536082,12.5443299 26.8206186,12 26.9690722,11.2082474 C27.1175258,10.4164948 26.5484536,9.87216495 25.7319588,9.87216495 Z" id="Shape" fill="#552583"></path>
            <path d="M41.5670103,11.0845361 L40.5773196,11.0845361 C40.3793814,11.0845361 40.428866,11.2824742 40.5030928,11.2824742 C40.5504946,11.2770016 40.5977998,11.2934816 40.6315406,11.3272224 C40.6652812,11.3609631 40.6817612,11.4082683 40.6762887,11.4556701 C40.6762887,11.8515464 40.5030928,12 40.1319588,12 C39.7608247,12 39.6123711,11.5546392 39.8845361,10.985567 C40.0846709,10.5503232 40.518892,10.2704919 40.9979381,10.2680412 C41.3195876,10.2680412 41.5917526,10.342268 41.6164948,10.6391753 C41.6412371,10.7134021 41.7402062,10.7134021 41.7896907,10.6391753 L42.0123711,10.2185567 C42.0371134,10.1690619 42.0123711,10.1195876 41.9381443,10.1195876 C41.8639175,10.0948454 41.7402062,10.1938144 41.6412371,10.1195876 C41.3515548,9.93691559 41.0185551,9.83445414 40.6762887,9.82268041 C39.9269705,9.77554381 39.2197969,10.1727235 38.8701031,10.8371134 C38.4,11.628866 39.0680412,12.4701031 39.6865979,12.4701031 C40.0329897,12.4701031 40.4536082,12.2226804 40.6762887,12.1237113 L40.9237113,12.2969072 C40.9750006,12.3534785 41.0456188,12.3887876 41.1216495,12.3958763 L41.2206186,12.3958763 C41.3195876,12.3958763 41.3443299,12.2721649 41.3690722,12.1979381 L41.7649485,11.257732 C41.814433,11.1587753 41.7896907,11.0845361 41.5670103,11.0845361 Z" id="Shape" fill="#552583"></path>
            <path d="M55.3484536,10.0453608 C55.2592177,10.1074345 55.1407823,10.1074345 55.0515464,10.0453608 C54.8417268,9.89446722 54.5922507,9.80844099 54.3340206,9.79793814 C53.814433,9.79793814 53.443299,9.89690722 53.1958763,10.3917526 C53.0226804,10.8123711 53.2206186,11.1835052 53.6907216,11.3814433 C53.8886598,11.4804124 54.1360825,11.6041237 54.0371134,11.8515464 C53.9628866,12.0247423 53.7649485,12.0494845 53.5670103,12.0494845 C53.3195876,12.0247299 52.9484536,11.8515464 52.8989691,11.5051546 C52.8742268,11.3814433 52.7505155,11.4061856 52.7010309,11.4804124 L52.3793814,12.0989691 C52.3298969,12.1979381 52.4536082,12.2721649 52.5278351,12.2226804 C52.6436282,12.1023418 52.824633,12.0721744 52.9731959,12.1484536 C53.2150814,12.3164123 53.4964181,12.4187166 53.7896907,12.4453608 C54.3092784,12.4453608 54.6804124,12.2969072 54.9525773,11.8515464 C55.2247423,11.4309278 55.0762887,11.0103093 54.5814433,10.7876289 C54.3092784,10.6639175 54.1113402,10.4412371 54.2103093,10.218567 C54.2845361,10.0701134 54.5072165,10.0948557 54.6309278,10.1195979 C54.8672742,10.1559102 55.0657872,10.3166113 55.1505155,10.5402165 C55.1610524,10.5764236 55.1918074,10.6031111 55.2291379,10.6084409 C55.2664687,10.6137707 55.3034631,10.5967561 55.3237113,10.5649443 L55.4721649,10.169068 C55.5216495,10.0948454 55.3979381,10.0206186 55.3484536,10.0453608 Z" id="Shape" fill="#552583"></path>
            <path d="M48.371134,11.5793814 C48.0247423,12 47.5793814,12.1237113 47.0597938,12.1237113 L46.9360825,12.1237113 L47.8268041,10.3670103 C47.8636899,10.2651554 47.9669969,10.2031713 48.0742268,10.2185567 C48.1731959,10.2185567 48.1731959,9.99587629 48.0247423,9.99587629 L46.614433,9.99587629 C46.4907216,9.99587629 46.4659794,10.2185567 46.5649485,10.2185567 C46.6886598,10.2185567 46.7134021,10.342268 46.6639175,10.4659794 L45.8474227,12.0247423 C45.7925179,12.0938536 45.712428,12.1383481 45.6247423,12.1484536 C45.5010309,12.1979381 45.4268041,12.3958763 45.5505155,12.3958763 L47.7773196,12.3958763 C47.9505155,12.3958763 48,12.3463814 48.0494845,12.2721649 L48.4948454,11.5793814 C48.5690722,11.5051546 48.4206186,11.4804227 48.371134,11.5793814 Z" id="Shape" fill="#552583"></path>
            <path d="M51.7360825,10.1938268 C52.031007,10.2079475 52.2912612,10.3910895 52.4041237,10.6639299 C52.428866,10.7134144 52.5773196,10.762899 52.6268041,10.6886722 L52.8247423,10.3175381 C52.8989691,10.1690845 52.7752577,9.99588866 52.5525773,9.99588866 L49.9298969,9.99588866 C49.7319588,9.99588866 49.8061856,10.1938268 49.8804124,10.1938268 C50.0536082,10.1938268 50.1030928,10.3917649 49.9793814,10.5649464 L49.2123711,11.9999979 C49.1344336,12.1291655 48.9919227,12.2051713 48.8412371,12.1979361 C48.7175258,12.1979361 48.6680412,12.3958742 48.8412371,12.3958742 L51.4886598,12.3958742 C51.6123711,12.3958742 51.6618557,12.371132 51.6865979,12.2969052 L52.057732,11.8268021 C52.1319588,11.727833 51.9587629,11.727833 51.8845361,11.7773072 C51.5405909,12.1053857 51.071106,12.2678997 50.5979381,12.222668 L50.2762887,12.222668 L50.6474227,11.4061732 L50.7216495,11.4061732 C50.9443299,11.4061732 51.2164948,11.4061732 51.2907216,11.5793691 C51.3098449,11.6085797 51.342406,11.6261811 51.3773196,11.6261811 C51.4122332,11.6261811 51.4447942,11.6085797 51.4639175,11.5793691 L51.785567,10.9608124 C51.8350515,10.8618433 51.6865979,10.8618433 51.6618557,10.9113278 C51.5381443,11.1340082 50.9938144,11.0845237 50.8453608,11.0845237 L50.771134,11.0845237 L51.2412371,10.1938124 L51.7360825,10.1938268 Z" id="Shape" fill="#552583"></path>
            <path d="M31.5463918,3.95876289 C30.3092784,3.88453608 29.2948454,3.83505155 28.428866,3.93402062 C28.6721367,3.33459858 29.0741707,2.81280977 29.5917526,2.42474227 C30.3898266,2.46404992 31.1838165,2.56329866 31.9670103,2.72164948 C34.1690722,3.14226804 37.5835052,4.50309278 39.0680412,6.45773196 C37.0886598,5.14639175 33.8474227,4.13195876 31.5463918,3.95876289 Z M27.8597938,4.00825773 C26.9924408,4.10674379 26.1327456,4.26380353 25.2865979,4.47836082 C25.1628866,4.15671134 24.8412371,3.16702062 24.7175258,2.84537113 C26.0770511,2.46718369 27.4913586,2.32491608 28.8989691,2.42475258 C28.5525773,2.69690722 27.9835052,3.71135258 27.8597938,4.00825979 L27.8597938,4.00825773 Z M21.6494845,5.83917526 C21.5010309,5.59175258 20.7835052,4.92371134 20.3876289,4.8 C21.3030928,4.10721649 23.4061856,3.14226804 24.2226804,2.96907216 C24.3463918,3.21649485 24.7175258,4.20618557 24.8412371,4.60206186 C24.1237113,4.75051546 22.243299,5.44329897 21.6494845,5.83917526 Z M41.443299,8.09072165 C41.2453608,7.84329897 40.9731959,7.34845361 38.9938144,5.61649485 C36.0494845,3.06804124 32.1649485,1.90515464 28.5278351,1.90515464 C25.8556701,1.90515464 23.5051546,2.49896907 20.8824742,3.93402062 C17.5670103,5.76494845 16.2061856,7.86804124 15.8597938,8.28865979 C15.6123711,8.61030928 15.5876289,8.78350515 15.7360825,8.88247423 C15.8597938,8.95670103 16.0824742,8.70927835 16.2804124,8.4371134 C17.2701031,7.1257732 18.5814433,5.83917526 19.942268,5.07216495 C20.3628866,5.14639175 20.956701,5.74020619 21.1793814,6.0371134 C20.1879112,6.65392744 19.2298637,7.32290887 18.3092784,8.04123711 C17.8391753,8.41237113 17.6907216,8.61030928 17.814433,8.75876289 C17.9134021,8.88247423 18.2845361,8.65979381 18.5814433,8.41237113 C19.4832259,7.69536507 20.4339936,7.04222899 21.4268041,6.45773196 C21.971134,7.07628866 21.7979381,8.21443299 21.6,8.4371134 C21.5010309,8.58556701 21.5010309,8.70927835 21.6,8.78350515 C21.7237113,8.85773196 21.8226804,8.68453608 21.971134,8.46185567 C22.342268,7.94226804 22.1938144,6.70515464 21.8969072,6.25979381 C22.8371134,5.66597938 24.1731959,5.27010309 24.9896907,5.09690722 C25.0639175,5.22061856 26.0536082,8.11546392 26.2515464,8.63505155 C26.3505155,8.93195876 26.4494845,9.27835052 26.6721649,9.20412371 C26.7958763,9.17938144 26.7216495,8.85773196 26.5979381,8.53608247 C26.4494845,8.14020619 25.7072165,5.71546392 25.4597938,4.99793814 C25.7319588,4.84948454 27.3649485,4.52783505 27.785567,4.52783505 C27.5876289,5.59175258 28.3298969,6.0371134 29.171134,6.5814433 C29.6164948,6.87835052 32.4865979,8.51134021 33.0804124,8.88247423 C33.4268041,9.10515464 33.6989691,9.22886598 33.7731959,9.12989691 C33.8474227,9.03092784 33.6247423,8.78350515 33.3030928,8.61030928 C33.0556701,8.46185567 30.3835052,6.90309278 29.2701031,6.21030928 C28.4783505,5.69072165 28.057732,5.17113402 28.2309278,4.45360825 C28.5030928,4.37938144 29.2948454,4.37938144 30.1360825,4.37938144 C35.8268041,4.42886598 40.3793814,7.67010309 40.8742268,8.21443299 C41.1463918,8.46185567 41.4927835,8.68453608 41.6412371,8.58556701 C41.7154639,8.51134021 41.5670103,8.21443299 41.443299,8.09073196 L41.443299,8.09072165 Z" id="Shape" fill="#000000"></path>
            <path d="M42.6804124,27.5134144 C42.9030928,27.1422804 43.0515464,26.9196 42.8783505,26.8206309 C42.7298969,26.7216619 42.556701,27.0927959 42.3587629,27.4391876 C41.6907216,28.577332 40.9731959,29.5422804 39.3402062,31.0268165 C37.9815889,32.245781 36.4142245,33.2096682 34.7134021,33.8721773 C34.0948454,32.1402186 31.7443299,24.7670227 31.6701031,24.5443423 C31.5958763,24.2226804 31.4969072,24.148466 31.3979381,24.1732082 C31.2742268,24.2226928 31.3484536,24.3958887 31.4226804,24.6680536 C31.4721649,24.9402186 34.2680412,33.6989814 34.3670103,33.9958887 C33.8226804,34.2680536 31.5463918,34.9113526 29.9876289,34.9608474 C28.5773196,35.010332 26.9195876,34.9608474 26.0783505,34.7629093 C25.1134021,33.971134 22.8865979,30.828866 22.0453608,29.171134 C21.0556701,27.1917526 20.3876289,25.385567 20.214433,24.6185567 C20.1402062,24.2474227 20.0412371,23.9752577 19.843299,24.0247423 C19.6453608,24.0494845 19.7690722,24.3463918 19.8927835,24.742268 C20.3479127,26.2981394 20.9528037,27.8062239 21.6989691,29.2453608 C22.8123711,31.3979381 24.7670103,33.9463918 25.3360825,34.6391753 C23.151467,34.1629623 21.0933996,33.2267138 19.2989691,31.8927938 C17.5175258,30.5567113 15.9835052,28.8742371 15.2164948,27.6371237 C15.0927835,27.4144433 14.9443299,27.1175361 14.7463918,27.2412474 C14.6474227,27.3154742 14.771134,27.538167 14.8948454,27.7855773 C16.0082474,29.789701 18.7298969,32.6350619 22.243299,34.1938247 C26.3010309,36.0000103 30.7298969,35.9010412 34.7134021,34.3670206 C38.1773196,33.0309278 41.1958763,30.2597938 42.6804124,27.5134144 Z" id="Shape" fill="#000000"></path>
        </g>
    </g>
</svg>