<?xml version="1.0" encoding="UTF-8"?>
<svg width="60px" height="60px" viewBox="0 0 60 60" version="1.1" xmlns="http://www.w3.org/2000/svg" xmlns:xlink="http://www.w3.org/1999/xlink">
    <title>NYK</title>
    <g id="Page-1" stroke="none" stroke-width="1" fill="none" fill-rule="evenodd">
        <g id="NYK" transform="translate(0.000000, 6.000000)" fill-rule="nonzero">
            <g id="Group" transform="translate(29.945020, 24.485259) scale(-1, 1) rotate(-180.000000) translate(-29.945020, -24.485259) translate(0.064542, 0.222311)">
                <g id="Shape" transform="translate(0.030030, 0.035976)">
                    <path d="M29.6264713,0.194505179 L25.6974335,5.29683502 C20.6987489,6.94635349 17.2195182,11.4640696 16.8977435,16.7194964 L14.1738364,19.358726 C11.8563815,18.3602084 9.82141088,17.3027553 9.82141088,17.3027553 L2.51204563,24.6392173 L5.59295324,31.3930979 L0.0834937936,38.5480114 L8.8486353,38.5480114 L10.5455732,42.2433392 L14.8851278,43.9944708 L15.3667736,45.3039241 L18.8839399,43.6970833 L19.720554,46.6201518 L20.294329,46.8111844 C23.0764942,47.7378954 26.2827246,48.2371542 29.564826,48.2554446 C29.6589875,48.2615412 30.7022149,48.243251 30.7266019,48.243251 C30.8492149,48.243251 31.3613448,48.2154767 31.3613448,48.2154767 C34.1380908,48.0813476 36.7461588,47.6193469 39.1144202,46.8416682 L39.6963244,46.6499584 L40.4665513,43.8623737 L41.7326498,44.8188913 L48.842176,42.291436 L50.5574044,38.5466565 L59.3665781,38.5466565 L53.7981832,31.3626141 L56.8323488,24.7056045 L49.4084995,17.0615937 C49.4084995,17.0615937 46.7143989,18.7497251 44.8487833,19.4901455 L42.5828123,16.9017225 C42.3274248,11.5209729 38.665968,6.80138555 33.5202834,5.21689941 L29.6264713,0.194505179 L29.6264713,0.194505179 Z" fill="#FFFFFF"></path>
                    <path d="M29.5663164,2.05899729 L29.538797,4.49136979 L29.97912,4.94122022 L30.1251882,4.95180479 L30.1325964,5.99969272 L30.8608504,6.02086077 L30.8407391,4.97508637 L30.97728,4.96767702 L31.3890215,4.55699231 L31.3011681,2.11085463 C31.0999743,2.09391912 30.6512782,2.07910042 30.6512782,2.07910042 L30.6766788,4.24684543 L30.2501154,4.25002118 L30.2437637,2.06959485 C30.2437637,2.06959485 29.8020858,2.0590103 29.5663434,2.0590103 L29.5663164,2.05899729 Z M28.26865,2.11615531 C28.0227464,2.13105856 27.8762123,2.12695176 27.5944272,2.15743567 L27.3541542,5.1889187 L26.8831358,5.23125747 L27.1583364,2.18709314 L26.4978246,2.25165943 L26.1231244,5.31804314 L25.6436355,5.37096647 L26.0045759,2.31092341 L25.33458,2.40300922 L24.8243959,5.86842059 L25.2128558,6.23888279 L26.0988131,6.15632423 L26.4809216,5.83137384 L26.7825849,6.09387692 L27.5965733,6.04518936 L28.0707674,5.57311412 L28.2686988,2.11615693 L28.26865,2.11615531 Z M32.2442402,2.1754323 C32.1128206,2.31769055 31.9447336,2.4308631 31.8356689,2.57447621 C31.8979917,3.59266605 31.9496436,4.61399913 32.0261921,5.62606507 L32.456988,6.09496459 L33.6509278,6.17540961 L34.0203332,5.61125396 C33.9200751,4.68519329 33.7560961,3.73414935 33.6720959,2.74175569 L33.2390888,2.27281825 L32.2440939,2.1754323 L32.2442402,2.1754323 Z M34.2309784,2.39982642 L34.7580982,6.2886526 L35.5519265,6.38708989 L35.3825713,5.24501344 L35.8599414,5.29793676 L36.0769272,6.46965714 L36.8729233,6.60726018 L36.6323034,5.20136915 L36.3537483,4.86899963 L36.5114517,4.64989481 L36.2383159,3.23473667 L35.7473216,2.66738361 L34.230442,2.39955871 L34.2309784,2.39982642 Z M24.8473523,2.47390911 L23.285492,2.79142957 C23.1296853,3.68833407 22.5022315,6.59452141 22.5022315,6.59452141 C23.0624852,6.49697289 23.6495649,6.41335213 24.2328507,6.34154559 C24.2748509,6.10038396 24.3577508,5.56039866 24.3577508,5.56039866 L23.5236567,5.68212295 L23.6771331,4.88087021 L24.4900375,4.76444062 C24.5442311,4.46908536 24.5591343,4.36264366 24.608586,4.05103574 C24.2552436,4.09775064 24.0736948,4.12658165 23.7761718,4.18012495 L23.9232968,3.34288763 L24.7330037,3.19046805 L24.8473198,2.47386575 L24.8473523,2.47390911 Z M36.7797048,2.90149682 C36.7797048,2.90149682 37.3019092,5.44659204 37.5904955,6.73845969 L38.4181948,6.90040651 L38.1408751,5.70115576 L38.6499973,5.8154718 L38.9685961,7.0200335 L39.7857275,7.20314836 L39.289303,5.48526463 L38.9622337,5.12538642 L39.1389971,4.8713538 L38.7621834,3.46042278 C38.3882474,3.34729357 38.0371269,3.24873164 38.0371269,3.24873164 L38.3906536,4.70518531 L38.2541127,4.89359487 L37.9704416,4.83643686 C37.9704416,4.83627427 37.6794218,3.66520421 37.5314732,3.09617114 C37.1992664,2.98913875 36.7798076,2.90139926 36.7798076,2.90139926 L36.7797048,2.90149682 Z M32.5595928,2.90890617 L32.9671018,2.95442014 L33.1904393,5.30848285 L32.7712841,5.27567024 L32.5595928,2.90892623 L32.5595928,2.90890617 Z M22.6692562,2.92266647 C22.4064172,2.98160203 21.8838822,3.12059784 21.8838822,3.12059784 L21.6838319,3.89432024 C21.6838319,3.89432024 21.4615947,3.47423294 21.3694655,3.2655658 C21.11882,3.34075945 20.9074648,3.40502767 20.6243031,3.50054394 C20.2801736,4.73550828 19.9283486,5.97090616 19.5848694,7.20516599 L20.4102383,7.01657217 L21.0741102,4.73680892 L21.3364074,5.30524586 L20.948923,6.88975909 L21.7938016,6.72338466 L22.6690286,2.9226231 L22.6692562,2.92266647 Z M35.0915192,3.28359601 L35.492552,3.35767871 L35.6811457,4.32194588 L35.2324226,4.27008257 L35.0915192,3.28359601 L35.0915192,3.28359601 Z M2.39000159,11.7806146 L29.6266339,47.1338261 L57.0453569,11.7816984 L2.39108546,11.7806146 L2.39000159,11.7806146 Z" fill="#006BB6" transform="translate(29.717679, 24.596412) scale(-1, 1) rotate(-180.000000) translate(-29.717679, -24.596412) "></path>
                    <polygon fill="#BEC0C2" points="54.955217 36.3890727 29.6298583 3.73538118 4.47182261 36.3897502"></polygon>
                    <path d="M51.3039215,34.1129405 L51.2951151,34.1346179 L51.2761473,34.1468116 L49.6550804,35.2361034 L50.258662,36.3890727 L50.2769522,36.4242987 L50.2606941,36.4608794 L48.0299491,41.3491444 L48.0150459,41.3789508 L47.9838846,41.3904669 L41.9717792,43.5317926 L41.9304567,43.5466958 L41.8945532,43.519599 L40.2999057,42.3029522 L40.2836476,42.2900811 L40.2755187,42.2697586 L40.0018408,41.6004674 C40.0018408,41.6004674 37.5096115,42.2264037 33.8488322,42.5922108 C33.4755736,42.6294688 32.4797656,42.7114367 30.8891828,42.8367593 L30.7347308,42.8489529 L30.5741823,42.8611465 L30.5369242,42.8638561 L30.5105049,42.8374367 L29.3223096,41.6539836 L29.3236645,42.8692755 C29.3236645,42.8692755 25.9534984,42.6789206 23.7464629,42.3788233 C21.540105,42.0780485 19.3689729,41.5320478 19.3689729,41.5320478 L18.9699723,42.3869522 L18.9571013,42.414049 L18.9306819,42.4262426 L16.0936456,43.7248575 L16.01371,43.7607607 L15.9839035,43.6787928 L15.6533224,42.7805335 L15.5788062,42.9607274 L15.5476448,43.0345661 L15.4731286,43.0040823 L11.4133486,41.3769186 L11.3835421,41.3640476 L11.3693163,41.3342412 L3.88043467,24.8810565 L10.0293789,18.7233057 L10.3159277,18.8858866 C10.5008635,18.9915642 10.7630251,19.1473708 11.0597352,19.3207904 C11.8035427,19.7597588 12.8223829,20.3592758 13.3087707,20.5943406 L13.4083515,20.6417601 C14.0376749,20.9459218 14.3540302,21.0996962 17.3428087,22.3786658 L17.5927768,22.4721498 C17.5954865,22.4728272 17.9280998,22.6022145 18.5438749,22.806118 C20.1852643,23.3521188 24.4489477,24.6209271 28.5812118,24.6209271 L28.6279537,24.6209271 C28.7932444,24.6209271 28.9571799,24.6182173 29.1224706,24.6134754 C31.9290229,24.5362494 35.2097696,23.9394421 37.466934,23.4537318 C39.639421,22.984957 41.2740363,22.5351499 41.7387466,22.4044077 L42.0510373,22.3082141 C44.1063306,21.5142775 46.6202374,20.2021143 48.9478537,18.7111122 L49.2438863,18.5207571 L55.4680243,24.9305082 L51.3039215,34.1129405 L51.3039215,34.1129405 Z" fill="#006BB6"></path>
                    <path d="M29.4871936,19.6073068 L29.505186,22.0280276 L30.5012106,22.0640176 L30.523441,20.6837602 L29.4872046,19.6073122 L29.4871936,19.6073068 Z M30.9499881,20.8573369 C30.9296653,21.2624343 30.929454,21.8323345 30.9023572,22.1317543 C31.6008048,22.2137221 32.34846,22.4428582 33.0055578,22.6271165 C33.6003327,22.7707296 34.2400343,23.0259924 34.7636531,23.2590142 L35.0515568,21.1748899 C33.6707032,21.0047219 32.363553,20.9012121 30.9501832,20.8573153 L30.9499881,20.8573369 Z M27.9629981,20.8605344 C27.0206792,20.8923731 26.0847012,20.951352 25.1559308,21.0394167 C25.2365438,21.5678045 25.357336,22.3575682 25.4406586,22.9076335 C25.4406586,22.9076335 26.2994108,22.4046896 28.0180532,22.2143345 L27.9630143,20.8605777 L27.9629981,20.8605344 Z M23.4549555,21.2299398 C22.5384328,21.351198 21.6300935,21.5018401 20.7304793,21.6766145 C21.0752863,22.7977722 21.5146611,24.3025667 21.8587906,25.4352134 C22.6587969,24.8397338 23.1400363,24.2279962 23.9820968,23.7152161 C23.8222257,22.9578602 23.6101064,21.9778227 23.4549772,21.2299506 L23.4549555,21.2299398 Z M35.9503798,21.2839221 L35.4603067,23.6781964 C36.2406949,24.1300358 36.8488016,24.6407295 37.5465445,25.3188 L37.6830853,25.423589 L38.7828366,21.7867089 C37.835803,21.5909344 36.9163539,21.4200998 35.9503525,21.2839383 L35.9503798,21.2839221 Z M18.6783293,22.1222433 C17.6493007,22.3708565 16.7542388,22.6325521 15.7516567,22.9489128 C16.3857222,24.4561459 17.0951709,26.009227 17.8484623,27.4548419 C18.5326568,27.2028414 19.487115,26.8585495 20.3792504,26.6207477 L18.6782751,22.1222433 L18.6783293,22.1222433 Z M40.7145414,22.2302078 L38.9289155,26.8387796 L41.5486353,27.4547984 L43.7534488,23.0960052 C42.7373182,22.7647466 41.7564679,22.4909875 40.7145954,22.2301536 L40.7145414,22.2302078 Z M14.072955,23.5014277 C12.9633405,23.8977185 11.9536591,24.3077747 10.8806253,24.7853288 L13.8962296,29.0742665 C14.0472943,28.9442018 15.534828,28.3020075 16.5529637,27.8718185 C15.7793497,26.4709131 14.8486283,24.9266659 14.072955,23.5013735 L14.072955,23.5014277 Z M45.3518897,23.6517283 L42.93648,27.9946428 C45.0235848,28.8048376 47.9420199,30.4400759 49.1031727,31.2198139 C49.6383347,30.707684 52.5421917,27.6596721 52.9411652,27.2410263 C50.526839,25.8245133 47.9904691,24.6204935 45.3518897,23.6517825 L45.3518897,23.6517283 Z M8.23684346,26.0460027 C7.57568123,26.3887774 6.92329836,26.7485147 6.27974907,27.1224507 L10.1865675,31.0419505 C10.6600843,30.7574338 11.161836,30.4672812 11.7139607,30.1475389 L8.23689765,26.0459484 L8.23684346,26.0460027 Z" fill="#BEC0C2" transform="translate(29.610457, 25.413560) scale(-1, 1) rotate(-180.000000) translate(-29.610457, -25.413560) "></path>
                    <path d="M29.7348586,29.2422884 C23.2573655,29.241611 18.007358,23.9909261 18.007358,17.513433 C18.007358,11.0372948 23.2573655,5.78728733 29.7348586,5.78728733 C36.2116743,5.78728733 41.4623591,11.0372948 41.4623591,17.513433 C41.4623591,23.9909261 36.2116743,29.241611 29.7348586,29.2422884" fill="#006BB6"></path>
                    <path d="M16.4763881,6.63487185 L14.8315032,11.3132992 L12.1948749,13.5837411 L14.5976035,7.51784861 L12.0149521,8.54877394 L4.89553549,24.1684607 L6.0090519,25.2851202 C6.66956381,24.8996683 7.33961378,24.5298237 8.01909347,24.176915 L10.2884515,18.4112551 L12.2805008,16.6308861 L12.756814,17.1855037 L10.7890977,22.844944 C11.8648411,22.3707497 12.9601485,21.9366046 14.0724727,21.5430505 L15.4992824,16.8762748 L14.2682742,14.8440139 L16.8170546,12.4211794 L18.3073793,7.45693496 L16.4762309,6.63449252 L16.4763881,6.63487185 Z M42.0671601,6.66027241 L41.0912412,7.41388898 L42.8588747,13.1562455 L48.5470377,17.1752448 L50.0045751,20.8089816 L47.638915,19.7420175 L46.8270944,17.4800839 L43.9258386,16.625884 L45.4775649,21.7361803 C45.9558237,21.9123096 46.4303971,22.0944923 46.9012315,22.2855411 C48.1923944,22.8078322 49.4574363,23.386593 50.6937012,24.0193036 C51.5506109,24.4575945 52.3924547,24.9221152 53.2202622,25.4112127 L54.4565816,24.1431902 L50.6291567,15.7052427 L44.64889,11.7126899 L43.6084267,8.79132834 L45.459681,9.44967251 L46.2090703,11.2755099 L49.0245918,12.1783757 L47.3818747,8.54783639 L42.0673226,6.66059758 L42.0671601,6.66027241 Z M30.8750924,7.26783714 L29.5826828,8.55813318 L29.5784558,17.5309718 L30.93541,18.9196834 C32.3349602,18.9630383 33.7204745,19.067697 35.0888637,19.2329876 L34.8083682,16.6725556 L32.2733529,16.522255 L31.8658441,9.34593507 L34.014513,9.45072387 L33.7625993,7.4745533 L30.8751086,7.26815146 L30.8750924,7.26783714 Z M28.3305392,7.27314813 L26.1469155,7.38746416 L25.1212468,19.1046679 C26.0486082,19.0166033 26.9835024,18.9565676 27.9251166,18.9247288 L28.330512,7.27309936 L28.3305392,7.27314813 Z M24.864044,7.54199727 L22.83601,7.83730919 L22.171271,11.6848398 L21.4176545,8.06383855 L19.034002,8.66083551 L15.716756,20.9963885 C16.6732735,20.6976462 17.6405755,20.4290355 18.6201253,20.1919384 L20.4428195,11.897604 L21.3584209,16.3516697 L20.7667348,19.7271196 C21.6521503,19.5570872 22.5455322,19.4113171 23.4478561,19.2920912 L23.4531669,19.2910073 L24.864098,7.54182927 L24.864044,7.54199727 Z M34.479077,7.55998958 C34.479077,7.55998958 35.5144461,15.4597944 36.0021887,19.3514386 C36.9363784,19.4835356 37.8613011,19.6453957 38.7785283,19.8330411 L38.0630099,16.0246925 L38.7764147,15.0615091 L39.8189916,15.9188523 L40.7779477,20.2882134 C41.7845945,20.5408911 42.7791559,20.8268059 43.7607108,21.1445268 L41.9712373,14.7361306 L40.1263236,13.2278136 L41.1763253,11.8264207 L40.3031032,8.57371926 L38.0771543,8.07941378 L38.9524898,11.3532507 L37.5658917,13.2066185 L36.540223,7.82112698 L34.4783182,7.55968609 L34.479077,7.55998958 Z M29.4280685,20.8775311 C28.4135637,20.8999185 27.4345559,21.0222877 26.5098502,21.3591336 C26.9061409,21.614521 27.2416807,21.7036425 27.8276223,22.0545462 C28.6865912,21.6555456 29.5534183,21.1975282 30.4536827,20.8838555 C30.1080304,20.8733582 29.7661824,20.8700415 29.4280143,20.877504 L29.4280685,20.8775311 Z M31.5672535,21.0373589 C30.4996391,21.3103593 28.4299303,22.2958975 28.4299303,22.2958975 C31.9464461,23.2801621 36.0907413,23.0794289 38.8546162,25.8629219 C37.2220331,23.2467247 34.4413582,21.5271609 31.5671993,21.0373589 L31.5672535,21.0373589 Z M25.8281486,21.5856359 C24.8025342,22.0042816 23.705601,22.5501198 22.9523096,23.2410885 C24.1168222,23.3765726 24.6156203,23.4490999 25.5667183,23.7078744 C26.1351012,23.2025189 26.6851124,22.7597028 27.3693067,22.3498364 L25.8281486,21.5855979 L25.8281486,21.5856359 Z M27.8784017,22.5276836 C27.2226588,22.9293939 26.5833366,23.4030191 26.0366857,23.8941758 C32.0440489,25.7774045 37.4959276,31.6519935 38.794407,37.7233052 C39.7373761,36.362395 40.3059213,34.7832469 40.5355939,33.107309 C40.6819167,30.5324073 40.6568522,28.1892916 38.2154565,25.9532085 C35.3140382,23.39321 31.2705433,23.7209188 27.8785642,22.5280088 L27.8784017,22.5276836 Z M22.3647423,23.7173962 C21.2971278,24.6590104 20.2895058,26.0997481 19.8085374,27.3130349 C20.8158884,26.2887754 22.0700915,25.4660078 23.6613789,25.8216264 L23.6740819,25.8258534 C24.127276,25.1863686 24.5602018,24.6379292 25.1400736,24.0804395 C24.0629754,23.744439 23.3483782,23.7600629 22.3647639,23.7173855 L22.3647423,23.7173962 Z M25.635436,24.2688706 C25.09079,24.801323 24.6063533,25.3744205 24.1768688,25.9793298 L24.1789824,25.9952085 C26.1936304,26.8697852 26.7223975,29.0254452 27.4824631,31.883346 C28.473556,35.6078028 29.3973406,39.3869953 32.2032155,42.2966511 C33.7816049,41.9206829 35.4267067,41.2249179 36.919741,39.8822709 C37.3803868,39.4216251 38.0681039,38.7784009 38.3539755,38.31575 C37.373721,32.194038 31.6442625,25.963939 25.6352735,24.2687623 L25.635436,24.2688706 Z M22.9998374,26.259836 C21.4220442,26.2298073 20.228538,27.4008828 19.2867069,28.7154577 C18.0612807,33.0306249 19.689474,37.4753152 22.4208327,39.7687894 C20.3072813,35.3723317 20.6657179,30.3553566 23.3205552,26.281622 C23.2119133,26.2686264 23.1050272,26.2613967 22.9998374,26.2593916 L22.9998374,26.259836 Z M23.8498102,26.4291911 C21.0236126,30.4273258 20.7568716,36.5801991 23.5830746,40.7048759 C25.8652767,42.1491362 28.727296,43.0150961 31.6156537,42.4291002 C27.9101646,38.1450943 27.5931318,33.4356682 26.1626912,29.1825524 C25.9757233,28.6270679 25.2264421,26.8250754 23.849924,26.429462 L23.8498102,26.4291911 Z" fill="#F58426" transform="translate(29.676059, 24.624448) scale(-1, 1) rotate(-180.000000) translate(-29.676059, -24.624448) "></path>
                </g>
            </g>
        </g>
    </g>
</svg>
