<?xml version="1.0" encoding="UTF-8"?>
<svg width="60px" height="60px" viewBox="0 0 60 60" version="1.1" xmlns="http://www.w3.org/2000/svg" xmlns:xlink="http://www.w3.org/1999/xlink">
    <!-- Generator: Sketch 43.2 (39069) - http://www.bohemiancoding.com/sketch -->
    <title>Slice</title>
    <desc>Created with Sketch.</desc>
    <defs></defs>
    <g id="Page-1" stroke="none" stroke-width="1" fill="none" fill-rule="evenodd">
        <g id="POR" transform="translate(0.000000, 4.000000)" fill-rule="nonzero">
            <path d="M39.7888506,6.95985056 C39.4101907,6.38350604 38.9681799,5.85137827 38.471081,5.37341487 C38.2613293,5.16007947 38.0391841,4.95929404 37.8058015,4.77210335 L42.5907011,0 L28.6837918,0 L23.3103792,5.37341487 L23.2975851,5.38620892 C22.813155,5.87580647 22.3722362,6.40661949 21.9798156,6.97264461 C21.594201,7.54988166 21.2643435,8.16247538 20.9946959,8.80215613 C19.8688358,11.4687164 19.8688358,14.4771795 20.9946959,17.1437398 C21.2616754,17.7806479 21.5916936,18.3892537 21.9798223,18.9604684 C22.3584812,19.5368143 22.8004921,20.0689429 23.2975918,20.5469063 C23.5038386,20.7677994 23.7262104,20.9730653 23.9628714,21.1610097 L19.1907636,25.9331197 L33.0976706,25.9331197 L38.4838662,20.5341167 C39.4614954,19.5645422 40.2395375,18.4126932 40.7739658,17.1437487 C41.8998202,14.4771865 41.8998202,11.468725 40.7739658,8.80216283 C40.51462,8.15357141 40.184234,7.53570041 39.7888506,6.95985056 L39.7888506,6.95985056 Z" id="Shape" fill="#000000"></path>
            <path d="M37.8569777,6.00031227 C37.6522751,5.78281784 37.4219888,5.57811524 37.2044922,5.38621338 L31.3705004,11.2457933 C31.6690294,11.3311186 31.9416284,11.4894023 32.1637182,11.7063725 C32.8545879,12.4144267 32.8545879,13.5442944 32.1637182,14.2523487 L21.3401286,25.0759316 L22.6195138,25.0759316 L32.7906178,14.8920335 C33.8403689,13.8420346 33.8517679,12.1434617 32.8162037,11.0794684 L33.4431033,10.452571 C34.1132532,11.1248211 34.4889043,12.0357541 34.4874172,12.9849742 C34.4859302,13.9341943 34.1074268,14.8439459 33.435174,15.5140929 L33.4303093,15.5189309 L23.8861026,25.0759316 L25.1526937,25.0759316 L34.0700007,16.1586245 C35.8135338,14.4047096 35.8192414,11.5738085 34.0827948,9.81287732 L34.7096944,9.18597993 C36.808255,11.2880801 36.805387,14.693388 34.7032885,16.7919502 L34.6969026,16.798316 L26.419287,25.0759316 L27.6858736,25.0759316 L35.3365918,17.4252045 C37.7901454,14.9761297 37.7958713,11.0024128 35.3493859,8.54627732 L35.9890885,7.90657472 C38.7838555,10.7201394 38.7724072,15.2654341 35.9635026,18.0648848 L28.9524758,25.0759093 L30.231861,25.0759093 L36.6031963,18.6917822 C39.75809,15.5472235 39.7664705,10.440509 36.6219145,7.28561264 L36.6159903,7.27967509 L37.2556929,6.63997249 C38.935671,8.32616411 39.8768249,10.6107783 39.8720264,12.9910189 C39.8672279,15.3712595 38.9168701,17.6520604 37.2301071,19.3314647 L31.4984387,25.0759316 L32.7650297,25.0759316 L37.869774,19.9711874 C41.7107956,16.1041785 41.7050766,9.86027842 37.8569777,6.00031227 Z" id="Shape" fill="#FFFFFF"></path>
            <path d="M23.9500729,19.9455993 C24.1551124,20.1591444 24.3730139,20.359956 24.6025584,20.5469108 L30.4365524,14.712919 C30.1355438,14.6335059 29.8615189,14.4743943 29.6433346,14.2523398 C28.9402849,13.5501501 28.9395859,12.4109791 29.6417732,11.7079271 L29.6433346,11.7063658 L40.4669219,0.869982156 L39.2003309,0.869982156 L29.0036431,11.0666743 C27.9510176,12.1175042 27.9452999,13.8213686 28.9908491,14.8792394 L28.3511465,15.506139 C26.9591164,14.1116915 26.9610757,11.8528053 28.3555227,10.4607747 C28.3625636,10.4537457 28.3696335,10.4467465 28.3767323,10.439777 L37.933742,0.869982156 L36.6671554,0.869982156 L27.7370498,9.80007435 C25.9871237,11.55134 25.9814055,14.387514 27.7242558,16.1458216 L27.0845532,16.7727212 C24.9963136,14.6628574 25.0020274,11.2632176 27.0973472,9.16038513 L35.4005442,0.869975465 L34.1339777,0.869975465 L26.4704587,8.53349219 C24.0169051,10.982567 24.0111792,14.9562839 26.4576647,17.4124193 L25.8179621,18.0521219 C23.0260473,15.2394557 23.0317653,10.6994366 25.8307561,7.8938119 L32.8545881,0.869982156 L31.587997,0.869982156 L25.2038677,7.26690335 C22.049511,10.4129024 22.0380624,15.5189 25.1782796,18.6790126 L24.5513799,19.3187152 C21.0502524,15.81173 21.0550009,10.1305322 24.5619859,6.62940446 L24.5641717,6.62722305 L30.3214126,0.869982156 L29.054826,0.869982156 L23.9244914,6.00031673 C20.0806725,9.85819175 20.0920668,16.1016482 23.9499413,19.9454677 L23.9500729,19.9455993 Z" id="Shape" fill="#CF0A2C"></path>
            <polygon id="Shape" fill="#000000" points="13.4591822 47.7082528 12.7811152 47.7082528 12.7811152 47.0174721 14.9047584 47.0174721 14.9047584 47.7082528 14.2139777 47.7082528 14.2139777 51.060223 13.4591822 51.060223"></polygon>
            <path d="M15.8771576,47.0173695 L17.5531428,47.0173695 L18.0521019,47.5163286 L18.0521019,48.923652 L17.6299048,49.320261 L18.07769,51.0474312 L17.322861,51.0474312 L16.9006639,49.3970253 L16.6191993,49.3970253 L16.6191993,51.060223 L15.8643658,51.060223 L15.8643658,47.0173695 L15.8771576,47.0173695 Z M17.1309546,48.8340981 L17.284481,48.6549903 L17.284481,47.7722164 L17.1309546,47.5931086 L16.6319955,47.5931086 L16.6319955,48.8341138 L17.1309546,48.8340981 Z" id="Shape" fill="#000000"></path>
            <path d="M19.5745784,47.0173695 L20.662055,47.0173695 L21.2761606,51.060223 L20.5341167,51.060223 L20.4317643,50.1262706 L19.779281,50.1262706 L19.6641368,51.060223 L18.947681,51.060223 L19.5745784,47.0173695 Z M19.8432491,49.4993755 L20.3294141,49.4993755 L20.0863316,47.4907428 L19.8432491,49.4993755 Z" id="Shape" fill="#000000"></path>
            <polygon id="Shape" fill="#000000" points="22.1333086 50.4845353 22.5811896 50.4845353 22.5811896 47.5931599 22.1333086 47.5931599 22.1333086 47.0174721 23.7836431 47.0174721 23.7836431 47.5931599 23.3486989 47.5931599 23.3486989 50.4845353 23.7836431 50.4845353 23.7836431 51.060223 22.1333086 51.060223"></polygon>
            <polygon id="Shape" fill="#000000" points="24.8328625 47.0174721 25.6003717 47.0174721 25.6003717 50.3948699 26.4577695 50.3948699 26.4577695 51.060223 24.8328625 51.060223"></polygon>
            <path d="M29.0548149,47.0173695 L30.7052208,47.0173695 L31.1913859,47.5163286 L31.1913859,48.5910089 L30.794777,48.9876178 L31.1913859,49.3842268 L31.1913859,50.5612528 L30.7052208,51.0474178 L29.0548149,51.0474178 L29.0548149,47.0173695 Z M30.2446416,48.7061554 L30.436548,48.5142491 L30.436548,47.7977933 L30.2702275,47.6442669 L29.8096528,47.6442669 L29.8096528,48.7189472 L30.2446416,48.7189472 L30.2446416,48.7061554 Z M30.2702275,50.4589115 L30.436548,50.3053851 L30.436548,49.4737874 L30.2446416,49.2946796 L29.7968565,49.2946796 L29.7968565,50.4461242 L30.2702297,50.4461242 L30.2702275,50.4589115 Z" id="Shape" fill="#000000"></path>
            <polygon id="Shape" fill="#000000" points="32.3172491 47.0174721 33.0593309 47.0174721 33.0593309 50.3948699 33.9421561 50.3948699 33.9421561 51.060223 32.3172491 51.060223"></polygon>
            <path d="M35.3749717,47.0173695 L36.4752424,47.0173695 L37.0893502,51.060223 L36.3473086,51.060223 L36.2321643,50.1262706 L35.5924617,50.1262706 L35.4773175,51.060223 L34.7608617,51.060223 L35.3749717,47.0173695 Z M35.6692305,49.4993755 L36.1553955,49.4993755 L35.899519,47.4907428 L35.6692305,49.4993755 Z" id="Shape" fill="#000000"></path>
            <polygon id="Shape" fill="#000000" points="37.9465428 50.5101859 38.9828253 47.7082528 37.9721933 47.7082528 37.9721933 47.0174721 39.8016357 47.0174721 39.8016357 47.5547955 38.7780669 50.3694424 39.8016357 50.3694424 39.8016357 51.060223 37.9465428 51.060223"></polygon>
            <polygon id="Shape" fill="#000000" points="40.850632 47.0174721 42.6289963 47.0174721 42.6289963 47.6826022 41.6183643 47.6826022 41.6183643 48.6678067 42.5395539 48.6678067 42.5395539 49.3331599 41.6183643 49.3331599 41.6183643 50.3948699 42.6419331 50.3948699 42.6419331 51.060223 40.850632 51.060223"></polygon>
            <path d="M43.7421457,47.0173695 L45.4181309,47.0173695 L45.91709,47.5163286 L45.91709,48.923652 L45.520481,49.320261 L45.9554699,51.0602253 L45.2006342,51.0602253 L44.7912312,49.4098193 L44.4969814,49.4098193 L44.4969814,51.060223 L43.7421457,51.060223 L43.7421457,47.0173695 Z M44.9959428,48.8340981 L45.1494691,48.6549903 L45.1494691,47.7722164 L44.9959428,47.5931086 L44.4969836,47.5931086 L44.4969836,48.8341138 L44.9959428,48.8340981 Z" id="Shape" fill="#000000"></path>
            <polygon id="Shape" fill="#000000" points="46.9150929 50.5739777 46.9150929 49.8448327 47.6569517 49.8448327 47.6569517 50.2670632 47.8362825 50.446171 48.1048327 50.446171 48.25829 50.2670632 48.25829 49.4993309 48.1304833 49.3715242 47.3373234 49.3715242 46.9278067 48.9363569 46.9278067 47.5164312 47.414052 47.0174721 48.5270632 47.0174721 49.0133086 47.5164312 49.0133086 48.2328625 48.25829 48.2328625 48.25829 47.810632 48.1048327 47.6442379 47.8489963 47.6442379 47.6698885 47.810632 47.6698885 48.5654275 47.810632 48.6805204 48.6037918 48.6805204 49.0133086 49.1027509 49.0133086 50.5739777 48.5270632 51.060223 47.4011152 51.060223"></polygon>
            <path d="M8.16247138,31.5240268 C8.16247138,29.1827554 6.8958803,28.4023294 4.4266684,28.4023294 L0,28.4023294 L1.93187063,30.3342 L1.93187063,44.4458097 L4.32431822,44.4458097 L4.32431822,37.4091948 L4.45226766,37.4091948 C6.87030335,37.4091948 8.12408922,36.6671532 8.18807063,34.4410238 L8.18807063,31.5240268 L8.16247138,31.5240268 Z M4.32431822,30.3342 L4.86165948,30.3342 C5.4117948,30.3342 5.77002156,30.5133078 5.77002156,31.1274178 L5.77002156,34.6073442 C5.77002156,35.1958595 5.60370112,35.4901182 4.75930706,35.4901182 L4.34990632,35.4901182 L4.34990632,30.3342 L4.32431822,30.3342 Z" id="Shape" fill="#000000"></path>
            <path d="M11.5784275,31.3065346 C11.5784275,30.5005227 11.8343041,30.3214104 12.3204714,30.3214104 C12.7938446,30.3214104 13.0369271,30.5005182 13.0369271,31.3065346 L13.0369271,41.5288149 C13.0369271,42.3476253 12.7810506,42.513939 12.3204714,42.513939 C11.8343063,42.513939 11.5784275,42.3476186 11.5784275,41.5288149 L11.5784275,31.3065346 Z M12.2948833,44.4330112 C13.7789688,44.4330112 15.4165807,43.8316996 15.4165807,41.7463026 L15.4165807,31.1018297 C15.4165807,29.0036409 13.7661747,28.4023271 12.2948833,28.4023271 C10.8363859,28.4023271 9.18597993,29.0036387 9.18597993,31.1018297 L9.18597993,41.7463071 C9.18597993,43.8317041 10.8363836,44.4330112 12.2948833,44.4330112 Z" id="Shape" fill="#000000"></path>
            <path d="M40.837945,31.2297703 L40.9786885,31.2297703 L41.4392677,37.396403 L40.3006059,37.396403 L40.837945,31.2297703 Z M40.070313,39.3154773 L41.6439569,39.3154773 L42.15571,44.4330112 L44.5609517,44.4330112 L42.744223,28.4023249 L39.1491524,28.4023249 L37.3324238,44.4330112 L39.4945829,44.4330112 L40.070313,39.3154773 Z" id="Shape" fill="#000000"></path>
            <path d="M57.5083271,41.3241123 C57.5083271,42.3604126 57.2140684,42.513939 56.5999628,42.513939 L56.0242372,42.513939 L56.0242372,30.3342 L56.5999628,30.3342 C57.2012743,30.3342 57.5083271,30.5005204 57.5083271,31.5240268 L57.5083271,41.3241123 Z M59.8879829,41.5288149 L59.8879829,32.0357822 C59.8879829,29.2083435 58.8900647,28.4023249 56.5231963,28.4023249 L53.6317851,28.4023249 L53.6317851,44.4330112 L57.0221532,44.4330112 C58.9028431,44.4330112 59.887974,43.0512736 59.887974,41.5288059 L59.8879829,41.5288149 Z" id="Shape" fill="#000000"></path>
            <path d="M18.8197428,30.3214126 L19.3954639,30.3214126 C19.9328052,30.3214126 20.3038283,30.5005204 20.3038283,31.1146305 L20.3038283,34.4282364 C20.3038283,35.0167517 20.1247204,35.4645368 19.2803197,35.4645368 L18.8197405,35.4645368 L18.8197428,30.3214126 Z M18.8581249,37.3836134 C19.9711896,37.3324372 20.3294164,37.716252 20.3294164,38.6757903 L20.3294164,44.4330112 L22.6451041,44.4330112 C22.6451041,44.4330112 22.6962781,42.7058409 22.6451041,38.0744721 C22.63231,36.6287688 21.723948,36.4112721 21.723948,36.4112721 C22.7730424,35.963487 22.6451041,35.4389398 22.6451041,34.249113 L22.63231,31.1402097 C22.63231,29.0676067 21.5064513,28.4023271 19.5873747,28.4023271 L16.4272862,28.4023271 L16.4272862,44.4330112 L18.8453309,44.4330112 L18.8453309,37.3836089 L18.8581249,37.3836134 Z" id="Shape" fill="#000000"></path>
            <polygon id="Shape" fill="#000000" points="36.3216357 42.5139033 33.276803 42.5139033 33.276803 28.4023048 30.8714498 28.4023048 30.8714498 44.4330112 36.3216357 44.4330112"></polygon>
            <polygon id="Shape" fill="#000000" points="25.4085502 30.3341264 25.4085502 44.4330112 27.8009665 44.4330112 27.8009665 30.3341264 29.8608178 30.3341264 29.8608178 28.4023048 22.0055019 28.4023048 23.9500372 30.3341264"></polygon>
            <polygon id="Shape" fill="#000000" points="47.7466171 35.5411896 50.446171 44.4330112 52.6211152 44.4330112 52.6211152 28.4023048 50.4588848 28.4023048 50.4588848 37.3965056 47.7466171 28.4023048 45.5843866 28.4023048 45.5843866 44.4330112 47.7466171 44.4330112"></polygon>
        </g>
    </g>
</svg>