<?xml version="1.0" encoding="UTF-8"?>
<svg width="60px" height="60px" viewBox="0 0 60 60" version="1.1" xmlns="http://www.w3.org/2000/svg" xmlns:xlink="http://www.w3.org/1999/xlink">
    <title>BKN</title>
    <g id="Page-1" stroke="none" stroke-width="1" fill="none" fill-rule="evenodd">
        <g id="BKN" transform="translate(7.000000, 0.000000)" fill-rule="nonzero">
            <path d="M6.62907252,52.2961649 C6.62907252,52.6259496 6.6015916,53.2305344 5.9145687,53.4503634 C5.68978905,53.5058079 5.4590615,53.5334952 5.2275458,53.5328061 L4.67792748,53.5328061 L4.67792748,49.9328244 L5.50235496,49.9328244 C5.94204962,49.9603053 6.40922519,49.9603053 6.54662977,50.3725191 C6.58678455,50.5535988 6.61433156,50.7372456 6.62907252,50.9221374 L6.62907252,52.2961832 L6.62907252,52.2961649 Z M4.7054084,54.4946382 L5.28250763,54.4946382 C6.02449237,54.5221191 6.65655344,54.6045618 6.90388168,55.2366229 C6.95835923,55.4615781 6.98603245,55.6921883 6.98632443,55.9236458 L6.98632443,57.4076153 C6.98632443,58.1221191 6.9313626,58.4518763 6.65655344,58.6717374 C6.49166794,58.809142 6.29930153,58.8641038 5.77716412,58.8915847 L4.7054084,58.8915847 L4.7054084,54.4946382 Z M7.48098092,54.2473099 C7.31925975,54.1116439 7.1325417,54.0089529 6.9313626,53.9450313 C7.24708756,53.7759987 7.48389945,53.489851 7.59090458,53.1480847 C7.65215777,52.905685 7.67989685,52.6560333 7.67334733,52.4061 L7.67334733,50.8122069 C7.64586641,50.3725122 7.6183855,49.8778557 7.2886145,49.5206038 C6.93691918,49.1592128 6.44544155,48.9686399 5.94204962,48.9984664 L3.79853817,48.9984664 C3.70109396,49.0084005 3.6285667,49.0930157 3.63365267,49.1908328 L3.63365267,59.7160237 C3.63365267,59.8259473 3.6886145,59.9083901 3.79853817,59.9083901 L5.99701145,59.9083901 C6.5356022,59.9311453 7.06376147,59.7550923 7.48098092,59.4137336 C7.9756374,58.946558 8.05808015,58.396926 8.05808015,57.7923412 L8.05808015,55.978626 C8.05808015,55.3740458 8.05808015,54.7145038 7.48098092,54.2473145 L7.48098092,54.2473099 Z" id="Shape" fill="#000000"></path>
            <path d="M11.9878489,51.1694656 L11.9878489,52.8183206 C11.9878489,53.0381679 11.9878489,53.5053435 11.4657115,53.670229 C11.2840219,53.7496822 11.0867877,53.7872506 10.8886122,53.7801527 L9.70693282,53.7801527 L9.70693282,49.9328244 L10.9160931,49.9328244 C11.1528374,49.9224633 11.3885679,49.9696094 11.603116,50.070229 C11.9603679,50.2625954 11.9603679,50.729771 11.9878489,51.1694656 Z M11.6855588,54.6320611 C11.7680015,54.6045802 11.8229634,54.5770878 11.9054061,54.5496183 C12.4506262,54.3552347 12.862947,53.9016818 13.0046427,53.340458 C13.0643391,53.1071198 13.0920734,52.8667559 13.0870855,52.6259542 L13.0870855,50.8946427 C13.0596046,50.5923641 13.0596046,49.8778626 12.4550244,49.3831924 C11.9603679,48.9984595 11.4107496,48.9984595 10.8611313,48.9709786 L8.8000626,48.9709786 C8.71716704,48.9796623 8.65625092,49.0527616 8.66265802,49.1358641 L8.66265802,59.6885359 C8.65625092,59.7716384 8.71716704,59.8447377 8.8000626,59.8534214 L9.54204733,59.8534214 C9.58632017,59.8552758 9.62934557,59.8385003 9.66067865,59.8071672 C9.69201173,59.7758341 9.70878727,59.7328087 9.70693282,59.6885359 L9.70693282,54.7145038 L10.5863221,54.7145038 L12.4550244,59.7435115 C12.4809644,59.811531 12.5471457,59.8556519 12.6199099,59.8534351 L13.3893756,59.8534351 C13.4778303,59.8474248 13.5482508,59.7770043 13.5542611,59.6885496 C13.5542611,59.6335878 13.5542611,59.6061069 13.5267802,59.578626 L11.6855588,54.6320611 Z" id="Shape" fill="#000000"></path>
            <path d="M14.7634214,51.3068702 C14.7634214,50.7022901 14.9283069,50.2900763 15.3130397,50.0427481 C15.5224804,49.896803 15.7722856,49.8199398 16.0275435,49.8229008 C16.2495956,49.8168824 16.4687893,49.8740633 16.6596046,49.9877863 C16.8307864,50.0866568 16.9729478,50.2288182 17.0718183,50.4 C17.2641847,50.7847168 17.3191466,51.2793893 17.3191466,52.1038031 L17.3191466,57.2427344 C17.2916656,57.7923527 17.2641847,58.3969328 16.7695282,58.7541847 C16.5691083,58.9203231 16.3152657,59.0081918 16.0550244,59.001513 C15.5580538,59.0308063 15.096206,58.7449006 14.900826,58.2870092 C14.8036442,57.9104635 14.7665459,57.5209314 14.7909023,57.1328107 L14.7634214,51.3068702 Z M17.511513,49.2732824 C17.0813127,48.9864198 16.5717512,48.8422043 16.0550244,48.8610687 L16.0000626,48.8610687 C14.9832687,48.8610687 14.1588412,49.3832061 13.8840321,50.2351145 C13.7780085,50.5929468 13.7134628,50.9617792 13.6916656,51.3343511 L13.6916656,57.4351145 C13.7191466,58.0122137 13.7466275,58.6717557 14.2138031,59.2763359 C14.7359405,59.9083969 15.6153298,59.9908397 15.9725817,59.9908397 C17.2641847,59.9908397 17.7863221,59.3038168 17.9512076,59.0015267 C18.2534977,58.5343511 18.2809786,58.0671756 18.3084595,57.5175573 L18.3084595,51.719084 C18.3359405,50.8671756 18.3359405,49.8778626 17.511513,49.2732824 Z" id="Shape" fill="#000000"></path>
            <path d="M20.0122901,51.3068702 C20.0122901,50.7022901 20.1771756,50.2900763 20.5344275,50.0427481 C20.7481981,49.9090725 20.9969421,49.8421029 21.2489313,49.8503817 C21.4809508,49.83105 21.7128474,49.8890241 21.9084733,50.0152672 C22.0796532,50.1141401 22.2218141,50.256301 22.320687,50.4274809 C22.5130534,50.7847328 22.5405344,51.3068702 22.5405344,52.1312977 L22.5405344,57.2427481 C22.5405344,57.8198473 22.5130534,58.4244275 22.0183969,58.7816794 C21.8149306,58.9394929 21.560882,59.0176617 21.3038931,59.0015267 C20.8072606,59.0327664 20.3407719,58.761552 20.1222137,58.3145038 C20.0250323,57.9379581 19.987934,57.5484261 20.0122901,57.1603053 L20.0122901,51.3068702 Z M22.7329008,49.2732824 C22.3129459,48.9865059 21.8120664,48.8420214 21.3038931,48.8610687 L21.2489313,48.8610687 C20.2046565,48.8610687 19.4077099,49.3832061 19.1054198,50.2351145 C19.0065189,50.5935767 18.9511583,50.9626474 18.9405344,51.3343511 L18.9405344,57.4351145 C18.9680153,58.0396947 18.9680153,58.6992366 19.4351908,59.3038168 C19.9848092,59.9358779 20.8367176,59.9908397 21.2214504,59.9908397 C22.4855725,59.9908397 23.0351908,59.3038168 23.2000763,59.0015267 C23.5023664,58.5343511 23.5298473,58.0671756 23.5573282,57.5450382 L23.5573282,51.719084 C23.5573168,50.8671756 23.5573168,49.8778626 22.7329008,49.2732824 Z" id="Shape" fill="#000000"></path>
            <path d="M26.4428107,53.2854962 L28.641284,49.1358779 C28.6687601,49.094197 28.6687601,49.0401541 28.641284,48.9984733 C28.615025,48.9469697 28.5616809,48.9149632 28.5038794,48.9160305 L27.6794519,48.9160305 C27.6216507,48.9149643 27.5683071,48.9469705 27.5420473,48.9984733 L25.2061695,53.5328244 L25.2061695,49.0534351 C25.2080232,49.0091625 25.1912474,48.9661375 25.1599145,48.9348046 C25.1285816,48.9034716 25.0855566,48.8866959 25.041284,48.8885496 L24.2992992,48.8885496 C24.2108436,48.894558 24.1404221,48.9649795 24.1344137,49.0534351 L24.1344137,59.6061069 C24.1325586,59.6503799 24.1493339,59.6934057 24.1806671,59.724739 C24.2120004,59.7560722 24.2550262,59.7728475 24.2992992,59.7709924 L25.0138031,59.7709924 C25.111992,59.7771798 25.1972669,59.704087 25.2061695,59.6061069 L25.2061695,55.648855 L25.7832687,54.5496183 L27.5695282,59.6610687 C27.6046326,59.7211437 27.6654582,59.7616941 27.7344137,59.7709924 L28.5313603,59.7709924 C28.6288063,59.7610616 28.7013353,59.6764443 28.6962458,59.578626 C28.6962458,59.551145 28.6687649,59.5236641 28.6687649,59.4961832 L26.4428107,53.2854962 Z" id="Shape" fill="#000000"></path>
            <path d="M32.7634351,58.8641221 L30.180229,58.8641221 L30.180229,49.1358779 C30.1742197,49.0474227 30.1037987,48.9770017 30.0153435,48.9709924 L29.2733588,48.9709924 C29.1849041,48.9770027 29.1144836,49.0474231 29.1084733,49.1358779 L29.1084733,59.6885496 C29.1144836,59.7770043 29.1849041,59.8474248 29.2733588,59.8534351 L32.7634351,59.8534351 C32.8518903,59.8474258 32.9223113,59.7770048 32.9283206,59.6885496 L32.9283206,59.0290076 C32.9223113,58.9405525 32.8518903,58.8701315 32.7634351,58.8641221 L32.7634351,58.8641221 Z" id="Shape" fill="#000000"></path>
            <path d="M36.6931947,48.9709924 L35.8962481,48.9709924 C35.8246831,48.9727579 35.7605173,49.0155351 35.7313626,49.080916 L34.2199122,53.5877863 L32.7084618,49.080916 C32.6887111,49.0082053 32.6182904,48.9612582 32.5435763,48.9709924 L31.7741107,48.9709924 C31.7163108,48.9699311 31.6629696,49.0019358 31.6367061,49.0534351 C31.6145171,49.0956389 31.6049752,49.1433481 31.6092252,49.1908397 L33.6702939,55.0442611 L33.6702939,59.6885359 C33.6802258,59.7859812 33.7648424,59.8585097 33.8626603,59.8534214 L34.5771641,59.8534214 C34.6214368,59.8552751 34.6644618,59.8384993 34.6957947,59.8071664 C34.7271276,59.7758335 34.7439034,59.7328085 34.7420496,59.6885359 L34.7420496,55.0442611 L36.8855611,49.1908397 C36.9130372,49.1491589 36.9130372,49.095116 36.8855611,49.0534351 C36.8308505,49.0077831 36.7639844,48.9791262 36.6931947,48.9709924 Z" id="Shape" fill="#000000"></path>
            <path d="M41.5573145,48.9709924 L40.8153298,48.9709924 C40.7722748,48.9717978 40.7318834,48.9919935 40.7054061,49.0259542 C40.67645,49.0562359 40.657296,49.094544 40.6504443,49.1358779 L40.7054061,56.8305344 C40.7054061,57.0503817 40.732887,57.2427481 40.732887,57.4625954 L40.732887,57.8198473 L38.5344137,49.1083969 C38.5296384,49.0345789 38.4708272,48.9757677 38.3970092,48.9709924 L37.2977725,48.9709924 C37.2093174,48.9770017 37.1388963,49.0474227 37.132887,49.1358779 L37.132887,59.6885496 C37.1310333,59.7328223 37.1478091,59.7758472 37.179142,59.8071802 C37.2104749,59.8385131 37.2534999,59.8552889 37.2977725,59.8534351 L38.0122763,59.8534351 C38.0672382,59.8534351 38.0947191,59.8534351 38.1222,59.8259542 C38.1496809,59.7709924 38.1771618,59.7435115 38.1771618,59.6885496 L38.1222,52.2137405 L38.1222,51.1969466 L40.2382305,59.7435 C40.2579813,59.8162107 40.328402,59.8631579 40.403116,59.8534237 L41.5023527,59.8534237 C41.6005417,59.8596111 41.6858165,59.7865183 41.6947191,59.6885382 L41.6947191,49.1358779 C41.7030026,49.0949805 41.6922795,49.0525337 41.665566,49.0204775 C41.6388525,48.9884213 41.5990352,48.9702195 41.5573145,48.9709924 L41.5573145,48.9709924 Z" id="Shape" fill="#000000"></path>
            <path d="M45.3222137,6.26564885 L45.3222137,4.94656489 L44.8000763,4.67175573 C44.4153435,4.47938931 35.429084,0 22.9527481,0 L22.3756489,0 C9.89931298,0 0.913053435,4.47938931 0.555801527,4.67175573 L0.00618320611,4.94656489 L0.00618320611,6.23816794 C-0.076259542,11.5419847 0.555801527,25.0351145 8.80007634,35.5053435 C15.4779389,44.0244275 21.7710687,45.9755725 22.4580916,46.1679389 L22.7329008,46.2503817 L23.0077099,46.1954198 C23.2825191,46.1129771 29.6855725,44.2442748 36.5558015,35.5328244 C44.772584,25.0625954 45.4321374,11.5694656 45.3222137,6.26564885 Z" id="Shape" fill="#000000"></path>
            <path d="M22.7329008,44.848855 C22.2107634,44.7114504 16.2748855,42.870229 9.84435115,34.7083969 C1.40769847,23.9633588 1.38022901,9.92061069 1.43519084,6.59541985 L1.43519084,5.88091603 C1.4425259,5.88107187 1.44960669,5.87822664 1.45479453,5.8730388 C1.45998237,5.86785096 1.4628276,5.86077017 1.46267176,5.85343511 L1.46267176,5.8259542 L1.65503817,5.74351145 C2.12221374,5.55114504 3.11152672,5.11146183 4.56801527,4.58931298 C10.2926861,2.50348674 16.3377868,1.43396893 22.4306107,1.42900763 L23.0077099,1.42900763 C29.0730835,1.44078207 35.089938,2.51023843 40.7878626,4.58931298 C42.2443511,5.11145038 43.261145,5.55114504 43.7008397,5.74351145 L43.8932061,5.8259542 L43.8932061,5.85343511 L43.920687,5.88091603 L43.920687,6.59541985 C44.0031298,9.92061069 43.9756489,23.9633588 35.5115267,34.7083969 C29.0809786,42.870229 23.2275573,44.7114344 22.7329008,44.848855 Z M35.9237405,35.0656489 C44.0031298,24.8152672 44.6351908,11.5969466 44.5252672,6.40305344 L44.5252672,5.44122137 L44.3603817,5.35877863 C44.0031298,5.16641221 35.1817557,0.796946565 22.9527481,0.796946565 L22.3481679,0.796946565 C10.1191603,0.796946565 1.32526718,5.16641221 0.940534351,5.35877863 L0.775648855,5.44122137 L0.775648855,6.3480916 C0.665725191,11.5694656 1.29778626,24.7877863 9.37717557,35.0381679 C15.8901527,43.3374046 21.9359542,45.2610687 22.6229771,45.4259542 L22.7054198,45.4534489 L22.7878626,45.4259542 C23.0901527,45.3709924 29.2183855,43.5572519 35.9237405,35.0656489 Z" id="Shape" fill="#FFFFFF"></path>
            <path d="M38.2870855,12.5038168 C35.2916656,9.39847328 34.9618947,8.90381679 34.9618947,7.61221374 C34.9618947,6.3480916 35.511513,6.18320611 36.0611313,6.18320611 C36.4058899,6.1926755 36.7478415,6.24812711 37.0779252,6.3480916 C39.2489176,6.98015267 39.2489176,8.16183206 39.2489176,9.04122137 L39.2489176,10.3053435 C39.2489602,10.3988575 39.3022833,10.4841745 39.3863221,10.5251908 C39.9359405,10.6900763 40.1832687,10.8 40.732887,10.9923664 C40.8024951,11.0404456 40.8971029,11.0286196 40.9527344,10.9648855 C41.0234107,10.9273313 41.0661855,10.8524754 41.062658,10.7725191 L41.062658,9.72824427 C41.062658,8.40916031 41.062658,6.18320611 37.1878489,5.05648855 C34.4672382,4.2870229 33.0657115,5.11146183 33.0657115,7.47480916 C33.0657115,9.4259542 34.2748718,10.5801527 36.2809786,12.5312977 L36.6657115,12.9160305 C39.0290702,15.2519084 39.4962458,15.9938931 39.4962458,17.4503817 C39.4962458,18 39.4138031,18.3572519 39.2489176,18.5770992 C39.0840321,18.8244275 38.8367038,18.906884 38.4244901,18.906884 C38.023602,18.8976555 37.6259266,18.8329177 37.2428107,18.7145176 C36.1985359,18.4122275 35.4565511,18.0000137 34.9893756,17.5053573 C34.4397573,16.9007771 34.4397573,16.3786397 34.4397573,15.3343649 L34.4397573,14.2351282 C34.4397573,14.1252046 34.3847954,14.0152809 34.2748718,14.0152809 C33.6702916,13.8778763 33.3954824,13.8229145 32.8458641,13.7130023 C32.7765192,13.6913119 32.7009164,13.7129127 32.6534977,13.7679641 C32.6098497,13.8238814 32.5814447,13.8901598 32.571055,13.9603305 L32.571055,15.9389313 C32.571055,17.7801527 34.1099863,19.2091603 36.9680015,20.0335878 C37.6521885,20.2550645 38.3650565,20.3754188 39.0840321,20.3908397 C41.3099863,20.3908397 41.3099863,18.5496183 41.3099863,17.7801527 C41.3374695,15.7465534 40.2931901,14.5648855 38.2870855,12.5038168 Z M32.241284,4.06717557 C29.3752648,3.5464546 26.4701204,3.27064976 23.5573145,3.24274809 C23.4880032,3.22660714 23.41527,3.24738808 23.3649481,3.29770995 C23.3146262,3.34803182 23.2938453,3.42076507 23.3099863,3.49007634 L23.3099863,4.36946565 C23.3188717,4.50220677 23.4245734,4.60790843 23.5573145,4.61679389 C24.9038794,4.61679389 25.6183832,4.67175573 26.9099863,4.75419847 L26.9099863,17.7801527 C26.90594,17.9079038 27.0024891,18.0165215 27.1298336,18.0274809 C27.7069328,18.0824427 27.981742,18.0824427 28.5588412,18.1648855 L28.5863221,18.1648855 C28.6441208,18.1659424 28.6974598,18.133939 28.7237267,18.0824427 C28.7819726,18.0491625 28.8144928,17.9841221 28.8061695,17.9175573 L28.8061695,4.94656489 C30.0977725,5.08396947 30.8397573,5.19389313 32.1863221,5.44122137 C32.2551934,5.4491077 32.3243793,5.42934028 32.3786885,5.38625954 C32.4330384,5.33732195 32.4631764,5.26699996 32.4611313,5.19389313 L32.4611313,4.31450382 C32.436454,4.19912685 32.3529684,4.1052022 32.2412817,4.06716412 L32.241284,4.06717557 Z M22.100826,3.27022901 C19.6506415,3.29769266 17.2064325,3.5182228 14.7909023,3.92977099 C14.7323409,3.92892832 14.6759309,3.95182005 14.6345175,3.9932335 C14.593104,4.03464695 14.5702123,4.09105692 14.571055,4.14961832 L14.571055,18.2748092 C14.581385,18.3367929 14.6101087,18.3942404 14.6534977,18.4396947 C14.7036343,18.470166 14.7599911,18.4889516 14.8183832,18.4946565 L14.8458641,18.4946565 C17.2361161,18.1057884 19.6518915,17.8945233 22.0733588,17.8625954 C22.2002958,17.8508272 22.2964013,17.7427085 22.2932061,17.6152672 L22.2932061,16.7358779 C22.289046,16.6720578 22.2593233,16.6126125 22.2107634,16.5709924 C22.1774809,16.5127488 22.1124422,16.4802295 22.0458779,16.4885496 C20.1705589,16.5124555 18.2984175,16.650113 16.439771,16.9007634 L16.439771,11.3221374 C17.9612011,11.1086827 19.4933506,10.9802352 21.029084,10.9373931 C21.0889027,10.9428696 21.1480607,10.9214728 21.1905358,10.8789977 C21.233011,10.8365225 21.2544078,10.7773646 21.2489313,10.7175458 L21.2489313,9.83816794 C21.2432257,9.77977601 21.2244402,9.72341932 21.1939695,9.67328244 C21.1501075,9.6310354 21.0895217,9.61084013 21.029084,9.61832061 C19.4938694,9.65216209 17.9617286,9.77143054 16.439771,9.97557252 L16.439771,5.02900763 C18.3062987,4.76574103 20.1883896,4.62802707 22.0733588,4.61679389 C22.1359465,4.62321419 22.1983555,4.60307073 22.2453796,4.5612715 C22.2924037,4.51947228 22.3197252,4.45985537 22.320687,4.39694656 L22.320687,3.51755725 C22.3290033,3.45099356 22.296485,3.38595692 22.2382443,3.35267176 C22.2119756,3.30117179 22.158631,3.26916773 22.1008282,3.27022901 L22.100826,3.27022901 Z M12.7298336,4.2870229 C12.1802153,4.39694656 11.9054061,4.4519084 11.3557878,4.58931298 C11.2434448,4.5998576 11.1589599,4.69641178 11.1634214,4.80916031 L11.273345,15.0595305 C11.273345,15.7465534 11.300826,16.3786145 11.3283069,16.9557137 C9.95426107,13.3831947 8.49777252,9.70075191 7.01380305,5.99082824 C6.96709245,5.88496684 6.85170938,5.8272753 6.73899389,5.85342366 C5.91456641,6.12823282 5.50235267,6.2656374 4.70540611,6.5954084 C4.60966359,6.62670089 4.5437535,6.71458101 4.54052061,6.81525573 L4.54052061,20.940458 C4.54228559,21.0120232 4.58506295,21.0761892 4.65044427,21.1053435 C4.67792519,21.1603053 4.73288702,21.1603053 4.78784885,21.1603053 C4.81806779,21.1640461 4.8483609,21.1539484 4.8702916,21.1328244 C5.36494809,20.940458 5.63975725,20.8580153 6.13441374,20.6656489 C6.23660438,20.6438868 6.30702108,20.5499979 6.29929924,20.4458015 C6.27181832,17.1206107 6.27181832,13.7679389 6.2443374,10.4427481 C6.2443374,9.56335878 6.2443374,9.06870229 6.21685649,8.43664122 C7.64586412,12.1465649 9.07487176,15.7465649 10.4214366,19.1816794 C10.4366188,19.2384242 10.4753853,19.2859452 10.5279246,19.3122148 C10.5804639,19.3384845 10.6417407,19.3409852 10.6962458,19.319084 C11.5481542,19.1267176 11.9878489,19.0167939 12.8397573,18.8519084 C12.9475209,18.8328402 13.0275291,18.7414022 13.0321237,18.6320611 L13.0321237,4.50687023 C13.0289055,4.43486627 12.9996023,4.36649211 12.9496809,4.31450382 C12.882283,4.27858563 12.8040014,4.26880033 12.7298359,4.2870229 L12.7298336,4.2870229 Z" id="Shape" fill="#FFFFFF"></path>
            <path d="M30.5924267,36.2473282 C30.4550221,36.3572519 30.3176176,36.4396947 30.1527321,36.5496183 C29.7679992,36.8244275 29.3557855,37.0442748 28.9710527,37.2916031 C28.7849691,37.4205491 28.5923457,37.5397921 28.3939534,37.648855 C26.9924267,38.5282443 25.2886099,39.4900763 23.5023504,40.0396947 C23.0152787,40.1883309 22.519733,40.3076289 22.0183809,40.3969466 C21.6013997,40.4732477 21.1781516,40.5100519 20.7542588,40.5068702 L20.671816,40.5068702 C20.1559431,40.5032609 19.6412372,40.4573051 19.1328847,40.3694656 C21.0867842,41.0487608 23.19447,41.1536682 25.2061672,40.6717557 C26.3688432,40.3826979 27.47443,39.8995843 28.4763962,39.2427481 C29.4561993,38.4462894 30.2056577,37.4027398 30.6473885,36.2198473 C30.6199099,36.2198473 30.5924267,36.2198473 30.5924267,36.2473282 Z M21.0290679,39.9847328 C22.1808383,39.8484375 23.2982395,39.5039054 24.3267779,38.9679389 C24.5003364,38.8929009 24.6660315,38.800848 24.8214344,38.6931298 C24.9588389,38.6381679 25.0962435,38.5557252 25.2336481,38.5007634 C26.1954802,38.0061069 27.212274,37.4565023 28.4489153,36.7694794 C28.9160908,36.5496321 29.3283046,36.3023038 29.7679992,36.0549756 L30.2626557,35.7801664 C30.4550221,35.6702427 30.6473885,35.5878 30.812274,35.4778763 C30.839755,35.4503954 30.839755,35.4503954 30.8672359,35.4503954 C31.0349219,34.8297505 31.1453083,34.1950289 31.1970069,33.5542122 C29.9603656,34.1587924 28.1191443,34.7084107 25.4260145,35.258029 C21.9909,35.9450519 18.6107473,35.6427618 15.5878466,34.3511588 C13.5542588,33.4992504 12.5924267,32.317571 12.2076939,31.6855099 C12.2610351,32.1482889 12.3436434,32.6072235 12.4550221,33.0595557 C13.1134369,35.5898062 14.6781284,37.7901586 16.8519687,39.2427756 L16.8519687,39.2152947 L17.1267779,39.3801802 C17.4148551,39.5396349 17.7187927,39.6685781 18.0336481,39.764913 C18.6791012,39.9389069 19.3438345,40.031231 20.012274,40.0397221 C20.3420473,40.0396947 20.6718183,40.0122137 21.0290702,39.9847328 L21.0290679,39.9847328 Z M31.801587,35.5328244 C31.7741061,35.5053435 31.7741061,35.5053435 31.7466252,35.5053435 C31.6586005,35.5117848 31.5735815,35.5401244 31.4992969,35.5877863 C31.471816,35.6152672 31.4443351,35.6427481 31.4168542,35.6427481 C31.3893733,35.670229 31.3618924,35.670229 31.3344115,35.6977099 C31.078545,36.3881142 30.7369378,37.0436308 30.3176176,37.648855 C30.9075738,37.0394765 31.4156627,36.355866 31.8290679,35.6152672 L31.801587,35.6152672 L31.801587,35.5328244 Z M32.2138008,32.9221374 C32.1588389,32.9770992 32.131358,32.9770992 32.1038771,33.0320611 C32.0448381,33.0621835 31.9895042,33.0990727 31.9389916,33.1419847 C31.8798448,33.8041044 31.7508842,34.4581186 31.5542588,35.0931298 C31.8840298,34.9832061 32.0214344,35.1206107 32.0489153,35.2030534 C32.0489153,35.2305344 32.0489153,35.2305344 32.0763962,35.2305344 C32.6294107,34.1580907 32.9832338,32.994199 33.120671,31.7954198 C32.9259817,32.2461774 32.6125379,32.6356036 32.2138008,32.922126 L32.2138008,32.9221374 Z M31.9389916,32.3725191 C31.9664725,32.3450542 31.9939534,32.3450542 32.0214344,32.3175573 C32.5883746,31.8735059 32.9938667,31.2556189 33.1756328,30.5587947 C33.1760239,29.7052981 33.0651665,28.855391 32.8458618,28.0305504 C32.8450564,27.9874954 32.8248607,27.9471041 32.7909,27.9206267 C32.6880908,28.7482481 32.2875949,29.5101673 31.6641824,30.0641382 C31.8502801,30.8193789 31.9425798,31.5946781 31.9389939,32.3725008 L31.9389916,32.3725191 Z M16.1924267,33.6366412 C18.6931901,34.4610687 20.0672359,34.7084084 21.8809763,34.7084084 C22.5405183,34.7084084 23.309984,34.6809275 24.2443351,34.5984847 C26.909984,34.3786374 29.7130374,33.4992481 31.2244878,32.7572634 C31.2193843,32.0192153 31.1457862,31.283234 31.0046405,30.5587901 C30.5310281,30.8366349 29.9866686,30.9703316 29.4382282,30.9435069 C28.8061672,30.9435069 28.0641824,30.8335832 26.8275412,30.5312931 C25.3710527,30.1740412 23.309984,28.9374 21.4687626,27.8656443 C20.4794496,27.2610641 19.5176176,26.7114458 18.7481519,26.326713 C15.7527321,24.8427435 14.0489153,25.0625908 13.6092206,25.1450336 C12.5230174,26.9563542 12.0149292,29.0558129 12.1527321,31.1633542 C12.3725954,31.4381679 13.3893756,32.7022901 16.192429,33.6366275 L16.1924267,33.6366412 Z M17.731358,25.0900878 C19.0092784,25.6567423 20.2567744,26.2896631 21.4687626,26.986271 C23.6947168,28.1679504 25.9756328,29.4045916 27.542045,29.7893244 C28.9160908,30.1465763 30.0428084,30.0916145 30.839755,29.7068817 L30.839755,29.6519198 C30.812274,29.596958 30.812274,29.5419962 30.7847931,29.4870344 C30.1252511,26.6565 26.580213,20.445813 20.4244878,20.445813 C20.1771595,20.445813 19.9298313,20.4732939 19.6550221,20.4732939 C17.3578764,21.125217 15.3574592,22.5526992 13.9939534,24.5129885 C14.2889232,24.4276766 14.5938212,24.3814799 14.9008237,24.375584 C15.6977748,24.4030534 16.6321237,24.6503817 17.7313603,25.0900763 L17.731358,25.0900878 Z M31.471816,29.267187 C31.60991,29.0970636 31.7296576,28.9128365 31.8290679,28.7175687 C32.5710527,27.2885611 31.9389916,25.6946679 31.6367015,25.1450496 C29.5330095,21.7023107 25.6500545,19.7608331 21.6336481,20.1435229 C25.8382305,20.3633588 29.9054038,24.1282443 31.4718183,29.2671756 L31.471816,29.267187 Z" id="Shape" fill="#FFFFFF"></path>
            <path d="M26.8000763,32.6473282 C26.8000763,31.8778626 26.8000763,30.751145 25.8932061,29.8717557 C26.0031604,29.7022156 26.0865655,29.516871 26.1405344,29.3221374 C26.2681866,28.904035 26.3239404,28.4672971 26.3054198,28.0305344 L26.3054198,25.8870229 C26.2779389,25.0900763 26.1680153,24.2656489 25.5084733,23.551145 C24.931374,22.8916031 24.0519847,22.5343511 23.0077099,22.5343511 L20.1496947,22.5343511 C19.8306608,22.5409274 19.5260829,22.6686536 19.2977863,22.8916031 C19.0832083,23.1120183 18.9646417,23.4084347 18.9680153,23.7160305 L18.9954962,37.5664122 C18.9864297,37.9856329 19.2080193,38.3760528 19.5725954,38.5832061 C19.7616449,38.7040997 19.9803114,38.7706503 20.2046565,38.7755725 L23.1176336,38.7755725 C24.070502,38.8094114 25.0016255,38.4859685 25.7283206,37.8687023 L25.7558015,37.8687023 C26.7176336,37.0167939 26.8000763,36 26.8275573,35.0381679 L26.8275573,35.010687 L26.8000763,32.6473282 Z" id="Shape" fill="#FFFFFF"></path>
            <path d="M22.9527366,29.2396947 C22.7328893,29.3221374 22.5954847,29.3221374 22.0733473,29.3496183 L21.523729,29.3496183 C21.4412863,29.3496183 21.4138053,29.3221374 21.4138053,29.2396947 L21.4138053,24.7877863 C21.4108984,24.7578356 21.4215421,24.728155 21.4428199,24.7068772 C21.4640977,24.6855993 21.4937784,24.6749557 21.523729,24.6778626 L22.4031183,24.6778626 C22.788638,24.6515995 23.1748687,24.7175413 23.5298359,24.870229 C23.6491831,24.9469084 23.7369691,25.0639564 23.7771641,25.2 C23.8469344,25.4412751 23.8839077,25.6908444 23.8870878,25.9419847 L23.8870878,27.810687 C23.8596183,28.2229008 23.8321237,28.9648855 22.9527366,29.2396947 Z M23.9695305,36.4122023 C23.7496832,36.5770878 23.474874,36.6595305 22.8153321,36.6870115 L21.5786908,36.6870115 C21.4957953,36.6783278 21.4348792,36.6052285 21.4412863,36.522126 L21.4412863,30.9984733 C21.4412863,30.9709924 21.4412863,30.9160305 21.523729,30.9160305 L22.1008282,30.9160305 C22.7054084,30.9435115 23.3374695,30.9710038 23.7496832,31.2458153 C23.9851943,31.3901768 24.1608045,31.6145635 24.2443397,31.8778649 C24.3230768,32.1641838 24.3600993,32.4603637 24.3542634,32.7572542 L24.3542634,34.790842 C24.381742,35.6976962 24.3267824,36.1374046 23.9695305,36.4122 L23.9695305,36.4122023 Z M26.0580802,32.7572405 C26.0580802,31.9602939 26.0580802,31.0259427 25.2611336,30.3664008 C25.0800703,30.215664 24.8759353,30.0950387 24.6565534,30.0091489 C25.025007,29.759389 25.2966162,29.3907765 25.4260191,28.964874 C25.5278479,28.6264726 25.5742491,28.2738236 25.5634237,27.9205992 L25.5634237,25.722126 C25.5359427,25.1175458 25.4809809,24.403042 24.9588435,23.8534237 C24.5466298,23.3862481 23.8596069,23.1389198 23.0351794,23.1389198 L20.0397595,23.1389198 C19.9455441,23.1392301 19.8557957,23.1791183 19.7924313,23.2488435 C19.7369225,23.3191353 19.7077566,23.4066331 19.7099885,23.4961718 L19.7099885,37.9236527 C19.7190727,38.0433945 19.7791176,38.1534768 19.874874,38.2259427 C19.9332565,38.2603761 19.9994792,38.2792969 20.0672405,38.2809046 L23.0901412,38.2809046 C23.8677784,38.3114596 24.6298759,38.0574271 25.2336527,37.5664008 C25.9481565,36.9068588 26.0305992,36.1373931 26.0580802,35.2580038 L26.0580802,32.7572405 Z" id="Shape" fill="#000000"></path>
        </g>
    </g>
</svg>
