<?xml version="1.0" encoding="UTF-8"?>
<svg width="60px" height="60px" viewBox="0 0 60 60" version="1.1" xmlns="http://www.w3.org/2000/svg" xmlns:xlink="http://www.w3.org/1999/xlink">
    <title>MEM</title>
    <g id="Page-1" stroke="none" stroke-width="1" fill="none" fill-rule="evenodd">
        <g id="MEM" transform="translate(5.000000, 0.000000)" fill-rule="nonzero">
            <path d="M9.98636364,56.7509273 C9.98396623,56.0567624 9.4218285,55.494626 8.72766364,55.4922303 L6.37671212,55.4922303 L6.37671212,59.9132818 L7.40655758,59.9132818 L7.40655758,58.5297545 L8.36358485,58.5297545 C8.66765545,58.5402427 8.91011389,58.7872774 8.91491515,59.0914909 L8.91491515,59.9028818 L9.94475758,59.9028818 L9.94475758,59.0914909 C9.9447099,58.745817 9.83144438,58.4096723 9.62228182,58.1344606 C9.85705024,57.8960575 9.98794187,57.5744405 9.9863697,57.2398515 L9.9863697,56.7509273 L9.98636364,56.7509273 Z M8.72766364,56.5220788 C8.85359629,56.523183 8.95541394,56.6250007 8.95651818,56.7509333 L8.95651818,57.2502515 C8.95719964,57.3194311 8.93001895,57.3859756 8.88109896,57.4348951 C8.83217898,57.4838145 8.76563408,57.5109944 8.69645455,57.5103121 L7.40655758,57.5103121 L7.40655758,56.5324788 L8.72767273,56.5324788 L8.72766364,56.5220788 Z" id="Shape" fill="#12173F"></path>
            <polygon id="Shape" fill="#12173F" points="33.1630303 59.9133333 29.5015152 59.9133333 29.5015152 55.4921212 30.5312121 55.4921212 30.5312121 58.8833333 33.1630303 58.8833333"></polygon>
            <polygon id="Shape" fill="#12173F" points="43.3575758 56.5221212 43.3575758 55.4921212 39.6957576 55.4921212 39.6957576 59.9133333 43.3575758 59.9133333 43.3575758 58.8833333 40.7257576 58.8833333 40.7257576 58.1657576 42.9933333 58.1657576 42.9933333 57.1357576 40.7257576 57.1357576 40.7257576 56.5221212"></polygon>
            <polygon id="Shape" fill="#12173F" points="20.2015152 59.9133333 16.2278788 59.9133333 18.5060606 56.5221212 16.4775758 56.5221212 16.4775758 55.4921212 20.4409091 55.4921212 18.1627273 58.8833333 20.2015152 58.8833333"></polygon>
            <polygon id="Shape" fill="#12173F" points="26.5887879 59.9133333 22.6148485 59.9133333 24.8930303 56.5221212 22.8645455 56.5221212 22.8645455 55.4921212 26.8278788 55.4921212 24.549697 58.8833333 26.5887879 58.8833333"></polygon>
            <rect id="Rectangle-path" fill="#12173F" x="35.7324848" y="55.4922303" width="1.02984242" height="4.42104848"></rect>
            <rect id="Rectangle-path" fill="#12173F" x="12.7222212" y="55.4922303" width="1.02984242" height="4.42104848"></rect>
            <rect id="Rectangle-path" fill="#12173F" x="12.7222212" y="55.4922303" width="1.02984242" height="4.42104848"></rect>
            <path d="M30.2191758,45.8075303 L26.4534788,45.8075303 L26.4534788,53.9006545 L28.3155212,53.9006545 L28.3155212,51.3000485 L30.2191576,51.3000485 C31.4703804,51.2971228 32.4839696,50.283535 32.486897,49.0323121 L32.486897,48.0752727 C32.4839746,46.8240539 31.4703945,45.8104643 30.2191758,45.8075303 L30.2191758,45.8075303 Z M30.6248727,49.032297 C30.6245989,49.2562425 30.4431243,49.4377184 30.2191788,49.4379939 L28.3155273,49.4379939 L28.3155273,47.6695727 L30.2191788,47.6695727 C30.443125,47.6698466 30.6246006,47.8513235 30.6248727,48.0752697 L30.6248727,49.032297 Z" id="Shape" fill="#12173F"></path>
            <path d="M27.4625182,53.9006545 L27.3064818,53.9006545 L27.3064818,46.6605364 L30.2191758,46.6605364 C31.0001752,46.6613514 31.633097,47.2942733 31.6339121,48.0752727 L31.6339121,49.0323 C31.633097,49.813299 31.0001747,50.4462199 30.2191758,50.4470333 L27.4625091,50.4470333 L27.4625182,53.9006545 Z M27.4625182,50.290997 L30.2191848,50.290997 C30.5532001,50.2916098 30.8737112,50.1591939 31.1098957,49.9230087 C31.3460803,49.6868236 31.4784955,49.3663122 31.4778818,49.032297 L31.4778818,48.0752697 C31.4784955,47.7412545 31.3460803,47.420743 31.1098957,47.1845579 C30.8737112,46.9483728 30.5532001,46.8159569 30.2191848,46.8165697 L27.4625182,46.8165697 L27.4625182,50.290997 Z" id="Shape" fill="#5D76A9"></path>
            <polygon id="Shape" fill="#12173F" points="15.8221212 47.669697 15.8221212 45.8075758 9.68484848 45.8075758 9.68484848 53.9006061 15.8118182 53.9006061 15.8118182 52.0490909 11.5466667 52.0490909 11.5466667 50.790303 15.1563636 50.790303 15.1563636 48.9281818 11.5466667 48.9281818 11.5466667 47.669697"></polygon>
            <polygon id="Shape" fill="#5D76A9" points="15.8221212 46.8166667 15.8221212 46.6606061 10.5375758 46.6606061 10.5375758 53.0475758 15.8118182 53.0475758 15.8118182 52.9021212 10.6936364 52.9021212 10.6936364 49.9372727 15.1563636 49.9372727 15.1563636 49.7812121 10.6936364 49.7812121 10.6936364 46.8166667"></polygon>
            <path d="M23.1975061,45.8179333 L16.7791818,45.8179333 L16.7791818,53.9006606 L18.6412273,53.9006606 L18.6412273,47.6799788 L20.1911939,47.6799788 L20.1911939,53.9110606 L22.0532364,53.9110606 L22.0532364,47.6799818 L23.1975061,47.6799818 C23.4214528,47.6802556 23.6029292,47.8617321 23.603203,48.0856788 L23.603203,53.9006606 L25.4652455,53.9006606 L25.4652455,48.0856818 C25.4623231,46.8344549 24.4487329,45.8208607 23.1975061,45.8179333" id="Shape" fill="#12173F"></path>
            <path d="M23.1975061,46.6709394 L17.6321848,46.6709394 L17.6321848,53.9006545 L17.7882212,53.9006545 L17.7882212,46.8269697 L21.0441939,46.8269697 L21.0441939,53.9110485 L21.2002303,53.9110485 L21.2002303,46.8269697 L23.197503,46.8269697 C23.5315188,46.8263561 23.8520307,46.9587717 24.0882159,47.1949568 C24.3244011,47.431142 24.4568167,47.751654 24.456203,48.0856697 L24.456203,53.9006515 L24.6122394,53.9006515 L24.6122394,48.0856758 C24.611426,47.3046756 23.9785032,46.6717528 23.197503,46.6709394" id="Shape" fill="#5D76A9"></path>
            <path d="M6.41832424,45.8179333 L0,45.8179333 L0,53.9006606 L1.86204242,53.9006606 L1.86204242,47.6799788 L3.41200909,47.6799788 L3.41200909,53.9110606 L5.27405152,53.9110606 L5.27405152,47.6799818 L6.41832424,47.6799818 C6.64227048,47.6802556 6.82374602,47.8617325 6.82401818,48.0856788 L6.82401818,53.9006606 L8.68606061,53.9006606 L8.68606061,48.0856818 C8.68313992,46.8344554 7.66955062,45.8208607 6.41832424,45.8179333" id="Shape" fill="#12173F"></path>
            <path d="M6.41832424,46.6709394 L0.85300303,46.6709394 L0.85300303,53.9006545 L1.00903939,53.9006545 L1.00903939,46.8269697 L4.26501212,46.8269697 L4.26501212,53.9110485 L4.42104848,53.9110485 L4.42104848,46.8269697 L6.41832121,46.8269697 C6.7523367,46.8263569 7.07284816,46.9587727 7.30903317,47.1949577 C7.54521819,47.4311427 7.67763404,47.7516542 7.67702121,48.0856697 L7.67702121,53.9006515 L7.83305758,53.9006515 L7.83305758,48.0856758 C7.83224416,47.3046756 7.19932136,46.6717528 6.41832121,46.6709394" id="Shape" fill="#5D76A9"></path>
            <rect id="Rectangle-path" fill="#12173F" x="40.5904394" y="45.8075303" width="1.86204242" height="8.09312424"></rect>
            <rect id="Rectangle-path" fill="#5D76A9" x="41.4434424" y="45.8075303" width="1" height="8.09312424"></rect>
            <polygon id="Shape" fill="#12173F" points="37.5321212 45.8075758 37.5321212 48.9281818 35.2124242 48.9281818 35.2124242 45.8075758 33.3606061 45.8075758 33.3606061 53.9006061 35.2124242 53.9006061 35.2124242 50.790303 37.5321212 50.790303 37.5321212 53.9006061 39.3836364 53.9006061 39.3836364 45.8075758"></polygon>
            <polygon id="Shape" fill="#5D76A9" points="38.3748485 45.8075758 38.3748485 49.7812121 34.3593939 49.7812121 34.3593939 45.8075758 34.2136364 45.8075758 34.2136364 53.9006061 34.3593939 53.9006061 34.3593939 49.9372727 38.3748485 49.9372727 38.3748485 53.9006061 38.5306061 53.9006061 38.5306061 45.8075758"></polygon>
            <path d="M3.60965758,59.9132818 L1.2587,59.9132818 C0.564535136,59.9108861 0.00239740828,59.3487497 8.8817842e-16,58.6545848 L8.8817842e-16,56.7509485 C0.00239741805,56.0567841 0.564535626,55.4946486 1.2587,55.4922545 L2.35095758,55.4922545 C3.04512195,55.4946486 3.60726016,56.0567841 3.60965758,56.7509485 L3.60965758,56.959 L2.57981212,56.959 L2.57981212,56.7509485 C2.5787095,56.6250152 2.4768909,56.5231966 2.35095758,56.5220939 L1.2587,56.5220939 C1.13276667,56.5231966 1.03094807,56.6250152 1.02984545,56.7509485 L1.02984545,58.6545848 C1.03094807,58.7805182 1.13276667,58.8823368 1.2587,58.8834394 L2.57981212,58.8834394 L2.57981212,58.4777424 L1.96606061,58.4777424 L1.96606061,57.4478939 L3.60965152,57.4478939 L3.60965758,59.9132818 Z" id="Shape" fill="#12173F"></path>
            <path d="M3.60965758,59.9132818 L1.2587,59.9132818 C0.564535136,59.9108861 0.00239740828,59.3487497 8.8817842e-16,58.6545848 L8.8817842e-16,56.7509485 C0.00239741805,56.0567841 0.564535626,55.4946486 1.2587,55.4922545 L2.35095758,55.4922545 C3.04512195,55.4946486 3.60726016,56.0567841 3.60965758,56.7509485 L3.60965758,56.959 L2.57981212,56.959 L2.57981212,56.7509485 C2.5787095,56.6250152 2.4768909,56.5231966 2.35095758,56.5220939 L1.2587,56.5220939 C1.13276667,56.5231966 1.03094807,56.6250152 1.02984545,56.7509485 L1.02984545,58.6545848 C1.03094807,58.7805182 1.13276667,58.8823368 1.2587,58.8834394 L2.57981212,58.8834394 L2.57981212,58.4777424 L1.96606061,58.4777424 L1.96606061,57.4478939 L3.60965152,57.4478939 L3.60965758,59.9132818 Z" id="Shape" fill="#12173F"></path>
            <path d="M48.3818909,59.9132818 L47.2792303,59.9132818 C46.5850678,59.9108828 46.0229338,59.3487474 46.0205364,58.6545848 L46.0205364,58.4985485 L47.0503818,58.4985485 L47.0503818,58.6545848 C47.0514845,58.7805193 47.1533049,58.8823384 47.2792394,58.8834394 L48.381897,58.8834394 C48.5078303,58.8823368 48.6096489,58.7805182 48.6107515,58.6545848 L48.6107515,58.4673424 L46.696697,57.9576182 C46.3008598,57.8338351 46.0312566,57.467343 46.0309394,57.052603 L46.0309394,56.7821394 C46.0308783,56.4400155 46.1667594,56.1118866 46.4086775,55.8699685 C46.6505957,55.6280503 46.9787246,55.4921692 47.3208485,55.4922303 L48.3923,55.4922303 C49.0864637,55.4946277 49.6485996,56.0567636 49.650997,56.7509273 L49.650997,56.9589788 L48.6211485,56.9589788 L48.6211485,56.7509273 C48.6200459,56.6249939 48.5182273,56.5231753 48.3922939,56.5220727 L47.3208394,56.5220727 C47.2516599,56.5213896 47.1851148,56.5485694 47.1361951,56.5974891 C47.0872754,56.6464087 47.0600957,56.7129538 47.0607788,56.7821333 L47.0607788,56.9901848 L48.9748364,57.4999061 C49.3706728,57.6236919 49.6402751,57.9901842 49.6405939,58.4049242 L49.6405939,58.6545848 C49.6412035,58.9885996 49.5087861,59.3091093 49.2726011,59.5452932 C49.036416,59.7814772 48.7159057,59.913893 48.3818909,59.9132818" id="Shape" fill="#12173F"></path>
            <path d="M47.3832515,53.8902485 L43.5655424,53.8902485 L43.5655424,51.3208364 L45.4275758,51.3208364 L45.4275758,52.0386091 L47.3832394,52.0386091 C47.4967351,52.0398693 47.60595,51.9953397 47.6862085,51.9150812 C47.766467,51.8348227 47.8109966,51.7256078 47.8097364,51.6121121 L47.8097364,51.2376242 L44.7722152,50.301403 C44.0559408,50.0860425 43.5655617,49.4265681 43.5655273,48.6786182 L43.5655273,48.0960788 C43.565544,46.832157 44.5901509,45.8075501 45.8540727,45.8075333 L49.6717818,45.8075333 L49.6717818,48.4809697 L47.8097364,48.4809697 L47.8097364,47.6695788 L45.8540727,47.6695788 C45.7405763,47.6683194 45.6313609,47.7128501 45.5511024,47.7931097 C45.4708439,47.8733694 45.4263148,47.9825854 45.4275758,48.0960818 L45.4275758,48.5641909 L48.4546909,49.4900121 C49.1799901,49.7073374 49.675474,50.3764504 49.6717818,51.1336 L49.6717818,51.6017121 C49.6680955,52.8641081 48.6456354,53.8865655 47.3832394,53.8902485" id="Shape" fill="#12173F"></path>
            <path d="M47.3832515,53.0372515 L44.4185455,53.0372515 L44.4185455,51.3104424 L44.5745818,51.3104424 L44.5745818,52.8812121 L47.3832515,52.8812121 C47.722671,52.8814551 48.0482585,52.7467287 48.2882641,52.5067225 C48.5282697,52.2667164 48.6629953,51.9411286 48.6627515,51.6017091 L48.6627515,51.133597 C48.660492,50.8181591 48.4543234,50.5404636 48.1530303,50.4470364 L45.0218879,49.4796091 C44.663428,49.3723922 44.4180295,49.0423687 44.4185545,48.6682182 L44.4185545,48.0856788 C44.4201384,47.2935092 45.0619244,46.6517232 45.8540939,46.6501394 L48.8187879,46.6501394 L48.8187879,48.4705697 L48.6523485,48.4705697 L48.6523485,46.8061758 L45.8436818,46.8061758 C45.5042621,46.8059327 45.1786742,46.9406591 44.9386682,47.1806651 C44.6986621,47.4206712 44.5639358,47.746259 44.5641788,48.0856788 L44.5641788,48.6682182 C44.5626225,48.9736347 44.7612135,49.2440552 45.053097,49.3339758 L48.1842394,50.3014061 C48.5491917,50.4141845 48.7980535,50.7516225 48.7979879,51.133603 L48.7979879,51.6017152 C48.8054701,51.981076 48.6595012,52.347395 48.3931648,52.617646 C48.1268284,52.887897 47.7626782,53.0391951 47.3832485,53.0372485" id="Shape" fill="#5D76A9"></path>
            <path d="M44.4809636,9.95021818 C45.0086764,8.99390504 45.2910344,7.9216653 45.3027636,6.82947576 C45.2539255,4.56994483 44.0992314,2.47827817 42.2132273,1.23294545 C39.6958273,-0.473057576 35.9301364,-0.712315152 33.2567,2.48124242 C30.4112021,2.1161483 27.5195891,2.47760109 24.8515152,3.53189394 C22.183678,2.47664199 19.2918102,2.11515839 16.4463061,2.48124242 C13.7728727,-0.712315152 9.99677576,-0.473057576 7.48977879,1.23294848 C5.60033907,2.4751024 4.44456221,4.56873145 4.40024545,6.82947576 C4.41701867,7.92097842 4.6990595,8.99201764 5.22204242,9.95021818 C3.20396061,12.8525061 1.8100303,16.3061242 1.8100303,19.8117576 C1.8100303,24.0351636 3.62006061,26.2196818 4.29622121,27.155903 L4.83715152,26.6149727 C6.75121212,31.4833333 10.0175758,34.1047515 13.9705182,36.4869182 C13.9705182,36.4869182 14.0537394,36.008403 14.1369606,35.5715 C18.3915697,39.2539758 20.4200515,38.3489606 24.841103,43.3525485 C29.2517485,38.3697636 31.3322424,39.2227667 35.5452424,35.5715 C35.6284606,35.998003 35.7116848,36.4869182 35.7116848,36.4869182 C37.4697,35.4258636 42.4316848,32.7628333 44.8450515,26.6149727 L45.3859818,27.155903 C45.8020788,26.5837667 47.8721727,24.2744182 47.8721727,19.8117576 C47.8929727,16.3061273 46.4990394,12.8629091 44.4809606,9.95021818" id="Shape" fill="#707271"></path>
            <path d="M43.2638758,10.0126333 C47.3208455,3.78155152 38.1146515,-2.69918485 33.662397,3.57350303 C30.6823741,3.08592883 27.6250591,3.46132591 24.8515152,4.65536061 C22.0779631,3.46132036 19.0206378,3.08592316 16.0406061,3.57350303 C11.5779485,-2.69918485 2.38216667,3.78155152 6.4391303,10.0126333 C1.82043333,16.3581394 2.27814242,22.6204273 4.42105152,25.5643242 L5.30526061,24.6801152 C5.30526061,24.6801152 6.56396061,30.7967636 13.2215424,34.8225212 L13.4608,33.5014061 C17.5593727,37.8808485 21.3042636,37.7768242 24.841103,41.7817727 C28.3779424,37.7872273 32.1228303,37.8808485 36.2214061,33.5014061 L36.4606636,34.8225212 C43.1182394,30.8071667 44.3769424,24.6801152 44.3769424,24.6801152 L45.2611515,25.5643242 C47.4352667,22.6100242 47.8929697,16.3685394 43.2638788,10.0126333" id="Shape" fill="#12173F"></path>
            <path d="M24.8931121,33.3037636 C24.8931121,33.3037636 21.6995515,33.3557758 21.2210394,33.6470455 C21.2210394,33.6470455 20.6697121,34.5936697 24.8931121,34.5832667 C28.9084667,34.5624606 28.3155364,33.8342879 28.3467333,33.7198636 C27.2196579,33.4255288 26.057844,33.2855508 24.8931121,33.3037636" id="Shape" fill="#5D76A9"></path>
            <path d="M22.1260606,29.5900818 C22.1260606,29.5900818 22.6253758,28.1441394 23.155903,28.6018455 C23.8944788,29.2363909 24.8515061,30.526303 24.8515061,30.6615424 L24.8515061,32.3779515 L23.6864273,32.4403758 C22.7342738,32.5653185 21.7896956,32.7424273 20.8569545,32.970903 C17.8818394,25.6059364 19.5358333,20.0406061 20.3264212,18.0433333 C17.3825212,18.6778788 16.903997,15.1410455 16.903997,15.1410455 C17.348134,15.1218925 17.7884829,15.2301754 18.1730879,15.4531182 C19.0422062,15.9008593 19.8645899,16.4340148 20.6280727,17.044697 L20.6280727,17.044697 C20.8465242,17.2111364 21.0441697,17.3775758 21.2314061,17.5336121 C23.2390818,19.2188121 24.8618697,18.8755303 24.8618697,18.8755303 L24.8618697,26.0844485 C24.8515152,26.0948485 19.0053121,25.6371424 22.1260606,29.5900818" id="Shape" fill="#5D76A9"></path>
            <path d="M27.6081576,29.5900818 C31.3322394,25.8139848 25.257197,26.0324242 24.8723091,26.0948485 C25.4964545,26.1260606 30.1983697,26.1572727 27.6081576,29.5900788" id="Shape" fill="#5D76A9"></path>
            <path d="M30.0735394,18.1681818 C33.4231364,27.1871212 29.1789273,32.991703 29.1477212,33.0229091 C31.7795394,26.1156697 30.0943455,20.3839061 28.9396727,18.2513939 C28.5072359,18.2882893 28.0727655,18.2952412 27.6393697,18.2722 C28.154642,17.9526011 28.6449612,17.5944246 29.1061182,17.2007455 C29.1477273,17.1591364 29.1893364,17.1279273 29.2413485,17.0759152 C29.9769045,16.3994277 30.8254297,15.8572175 31.7483455,15.4739364 L31.7483455,15.4739364 C32.159966,15.3142469 32.5897112,15.2059363 33.0278485,15.1514576 C33.0278485,15.1514576 32.7157727,18.1265636 30.0735455,18.1681758" id="Shape" fill="#5D76A9"></path>
            <path d="M35.3787879,6.49659697 C35.3787879,6.49659697 36.7415152,3.08458788 40.9337061,3.90638182 C40.9337061,3.90638182 37.0847939,1.37858182 34.4113576,5.94526667 C34.4113576,5.94526667 30.5728455,4.14563939 24.8514879,6.62142727 C24.8514879,6.62142727 19.4734091,4.72817576 15.3852394,5.7996303 C15.3852394,5.7996303 13.0030727,1.65944848 9.64307576,3.36545152 C6.28307879,5.07145455 8.04110909,9.00359091 8.62363636,10.0334364 C8.62363636,10.0334364 3.05831515,15.7027818 5.14921212,22.7036455 L6.27267879,21.3097061 C6.27267879,21.3097061 7.87465758,28.9451212 11.9940364,31.3480909 L12.243697,29.4756485 C12.243697,29.4756485 16.5503303,34.6664879 21.6059303,36.8718182 C22.0844455,37.1006758 24.7682818,38.4321909 24.851503,39.0875455 L24.851503,35.4570758 C24.851503,35.4570758 21.3458697,35.7483455 20.4096455,34.1255606 C19.7751,33.0229 15.7389364,25.8243909 17.7362121,18.2826 C17.7362121,18.2826 15.7909515,17.9913303 15.4268636,14.7145515 C14.4065372,14.2669839 13.2926906,14.0742027 12.1812939,14.1528182 C12.1812939,14.1528182 15.3956545,13.1437788 18.4123727,14.3088545 C21.4290909,15.4739303 22.2404818,18.4490394 24.2793667,17.1383273 L24.8411,8.76433939 L25.4548485,17.1383273 C27.4937333,18.4490394 28.3051242,15.4843364 31.3218394,14.3088545 C34.3385576,13.1437788 37.5633212,14.1528182 37.5633212,14.1528182 C36.5364303,13.5049427 35.3964741,13.0567254 34.2033212,12.8317061 C32.4765121,12.4884242 29.9383091,13.5910848 29.9383091,13.5910848 C29.9383091,13.5910848 30.2919939,11.2193212 31.4466667,9.95022121 C32.4453061,8.85795758 34.6922364,8.6187 35.3787879,6.49659697 Z M9.35181818,9.37808182 C9.22698788,8.23380909 10.6729303,7.11034242 10.6729303,7.11034242 C10.0799909,6.49659697 9.03974242,7.02712121 9.03974242,7.02712121 C9.9759697,5.18588485 12.0876697,6.09090909 12.0876697,6.09090909 C11.2866788,5.11307576 9.60147879,5.17549091 9.60147879,5.17549091 C11.6923879,3.095 14.2201758,6.26775152 14.2201758,6.26775152 C11.9732424,6.77746364 9.35181818,9.37808182 9.35181818,9.37808182 L9.35181818,9.37808182 Z" id="Shape" fill="#5D76A9"></path>
            <path d="M20.6281,17.055103 C20.3056212,16.9510788 19.7750939,17.2839576 19.4734242,17.866497 C18.4747848,17.5752273 18.1315061,16.4933727 18.1731212,15.4635273 L18.1731212,15.4635273 C19.0422394,15.9112673 19.8646232,16.4444218 20.6281061,17.055103" id="Shape" fill="#FFBB22"></path>
            <path d="M30.4480303,17.866497 C30.1359545,17.2527515 29.5638212,16.9198727 29.2413424,17.0759091 C29.9768984,16.3994216 30.8254236,15.8572114 31.7483394,15.4739303 L31.7483394,15.4739303 C31.7899485,16.5037727 31.4466667,17.5856303 30.4480364,17.866497" id="Shape" fill="#FFBB22"></path>
        </g>
    </g>
</svg>
