<?xml version="1.0" encoding="UTF-8"?>
<svg width="60px" height="60px" viewBox="0 0 60 60" version="1.1" xmlns="http://www.w3.org/2000/svg" xmlns:xlink="http://www.w3.org/1999/xlink">
    <title>DEN</title>
    <g id="Page-1" stroke="none" stroke-width="1" fill="none" fill-rule="evenodd">
        <g id="DEN" fill-rule="nonzero">
            <path d="M29.9595142,59.8873988 C17.8511052,59.8899574 6.93366442,52.597659 2.29879494,41.4114372 C-2.33607454,30.2252154 0.224567413,17.3484439 8.78650567,8.78650567 C17.3484439,0.224567413 30.2252154,-2.33607454 41.4114372,2.29879494 C52.597659,6.93366442 59.8899574,17.8511052 59.8873988,29.9595142 C59.8664873,46.4795588 46.4795588,59.8664873 29.9595142,59.8873988" id="Shape" fill="#FFC52F"></path>
            <path d="M29.9595142,1.54984818 C45.6497394,1.54984818 58.3691802,14.2692889 58.3691802,29.9595142 C58.3691802,45.6497394 45.6497394,58.3691802 29.9595142,58.3691802 C14.2692889,58.3691802 1.54984818,45.6497394 1.54984818,29.9595142 C1.58117141,14.2822817 14.2822817,1.58117141 29.9595142,1.54984818" id="Shape" fill="#8A2433"></path>
            <path d="M56.9078947,30.041751 C56.9078947,44.9738425 44.8030429,57.0786943 29.8709514,57.0786943 C14.9388599,57.0786943 2.83400809,44.9738425 2.83400809,30.041751 C2.83400809,15.1096595 14.9388599,3.00480769 29.8709514,3.00480769 C37.042109,3.00312925 43.9200366,5.85111716 48.990811,10.9218915 C54.0615852,15.9926658 56.9095732,22.8705934 56.9078947,30.041751" id="Shape" fill="#0A233F"></path>
            <path d="M29.8646255,49.9430668 C40.7187407,49.9430663 49.5180655,41.1446846 49.5192296,30.2905694 C49.5203938,19.4364544 40.7229563,10.6361855 29.8688414,10.6338567 C19.0147265,10.631528 10.2135137,19.428021 10.2100202,30.2821356 C10.2135093,41.1366527 19.0101101,49.9360847 29.8646255,49.9430668" id="Shape" fill="#8A2433"></path>
            <path d="M11.5194838,30.2821356 C11.5194838,20.1503936 19.7328835,11.9369939 29.8646255,11.9369939 C39.9963676,11.9369939 48.2097672,20.1503936 48.2097672,30.2821356 C48.2097672,40.4138777 39.9963676,48.6272773 29.8646255,48.6272773 C19.7328835,48.6272773 11.5194838,40.4138777 11.5194838,30.2821356" id="Shape" fill="#0A233F"></path>
            <path d="M45.9956984,34.4319332 C45.9956984,31.2689777 44.3256578,26.9673583 42.8327429,24.0890688 L40.6060223,25.354251 L40.3846154,25.0063259 L39.8216093,25.3605769 L17.6809211,39.277581 L16.6751012,40.5111336 L16.6751012,40.4731781 C15.7934484,40.0773572 15.2210776,39.2064654 15.2074898,38.2401316 L15.2074898,38.2021762 L16.7320344,37.790992 L28.1186741,30.3896761 L20.457996,25.5883097 L19.5027834,24.993674 L19.2750506,25.3415992 L17.0546558,24.076417 C15.5364372,26.9547065 13.8474191,31.2753036 13.8917004,34.4192814 C12.7214069,30.7818826 13.92333,25.8097166 15.5617409,22.5961538 L15.1505567,22.3620952 L16.472672,20.3125 L16.8585527,20.5908401 C19.0789474,17.7694838 23.0642712,14.6191801 26.847166,14.1447368 C23.9878542,15.4478744 20.7932693,18.7689778 18.819585,21.3309716 L20.9008097,22.8302125 L20.6540992,23.2097672 L21.1854757,23.5576924 L29.9405364,29.2510122 L38.5754048,23.6399292 L39.207996,23.2097672 L38.9612855,22.8302125 L41.0172065,21.3309716 C39.056174,18.7689778 35.8489373,15.4478744 32.9959514,14.1447368 C36.7914979,14.6191801 40.76417,17.7758098 43.0035425,20.6034919 L43.3767713,20.3378036 L44.6925607,22.3810729 L44.3066802,22.6088057 C45.951417,25.8223685 47.1723178,30.7945344 46.0020242,34.4319332 L45.9956984,34.4319332 Z M43.1300608,37.790992 L32.6353745,31.0222672 L30.8008603,32.1103238 L42.1811741,39.2459514 L43.180668,40.5111336 L43.180668,40.4731781 C43.6309519,40.3119132 44.0037389,39.9865718 44.2244434,39.5622469 C44.5041797,39.1828637 44.6408525,38.7168319 44.6103239,38.2464575 L44.6103239,38.2085021 L43.1300608,37.790992 Z" id="Shape" fill="#FFC52F"></path>
            <polygon id="Shape" fill="#FFC52F" points="31.7244433 15.9729251 30.9400303 17.0040486 29.8456477 14.3977733 29.8456477 26.417004 33.5083502 21.729504 37.1963563 22.6783907"></polygon>
            <polygon id="Shape" fill="#FFFFFF" points="31.7244433 18.7879555 31.7244433 15.9729251 30.9400303 17.0040486"></polygon>
            <polygon id="Shape" fill="#FFFFFF" points="29.8519736 14.3977733 23.2034413 22.5012652 26.138664 21.7548077 29.8519736 26.417004"></polygon>
            <path d="M25.784413,44.9392712 C26.7371867,44.0189134 27.97599,43.4519656 29.2952935,43.3324898 L29.2952935,41.4979757 L24.2345647,41.4979757 C24.3448794,42.7879258 24.8915492,44.001756 25.784413,44.9392712" id="Shape" fill="#FFC52F"></path>
            <path d="M29.2952935,46.6535932 L29.2952935,44.4774798 C28.3065436,44.5953482 27.3795902,45.0201097 26.6447369,45.6920546 C27.4377116,46.2217741 28.347124,46.5516803 29.2952935,46.6535932" id="Shape" fill="#FFC52F"></path>
            <path d="M30.4213057,35.3744939 L30.4213057,37.5442813 C31.4038758,37.4332554 32.3255813,37.0122841 33.0528846,36.3423583 C32.2700951,35.8053983 31.3654686,35.4726871 30.4213057,35.3744939" id="Shape" fill="#FFFFFF"></path>
            <path d="M33.9195344,37.0824899 C32.9674886,37.9964731 31.7349676,38.562586 30.4213057,38.6892713 L30.4213057,40.3656377 L35.4820344,40.3656377 C35.3340545,39.1298887 34.7852208,37.9766713 33.9195344,37.0824899" id="Shape" fill="#FFFFFF"></path>
            <path d="M29.2952935,37.5442813 L29.2952935,35.3744939 C28.3494239,35.4737516 27.4430021,35.8063236 26.6573887,36.3423583 C27.3871236,37.0123879 28.3108499,37.4332704 29.2952935,37.5442813" id="Shape" fill="#FFFFFF"></path>
            <path d="M30.4213057,41.4979757 L30.4213057,43.3388158 C31.7360113,43.4568685 32.9706106,44.0217034 33.9195344,44.9392712 C34.8317102,44.0097013 35.3890912,42.7897309 35.4946862,41.4916498 L30.4213057,41.4979757 Z" id="Shape" fill="#FFC52F"></path>
            <path d="M24.2345647,40.3593118 L29.2952935,40.3593118 L29.2952935,38.6892713 C27.9782112,38.561491 26.7420197,37.9957384 25.784413,37.0824899 C24.9245898,37.9767392 24.3803794,39.1273556 24.2345647,40.3593118" id="Shape" fill="#FFFFFF"></path>
            <path d="M30.4213057,46.6535932 C31.3640633,46.5536734 32.2677876,46.2234665 33.0528846,45.6920546 C32.3267623,45.018261 31.4051401,44.5928969 30.4213057,44.4774798 L30.4213057,46.6535932 Z" id="Shape" fill="#FFC52F"></path>
            <polygon id="Shape" fill="#FFC52F" points="51.6700405 27.5999494 52.3848684 28.8271762 50.6136133 30.4845648 52.916245 29.6242409 53.6437247 30.8704453 53.7575911 29.472419 55.2947874 29.3775304 54.0359311 28.6057692 55.5857794 26.1829453 53.0301113 28.2325405"></polygon>
            <polygon id="Shape" fill="#FFC52F" points="8.08451417 27.5746458 7.36968624 28.8081984 9.1409413 30.4592611 6.84463562 29.6052631 6.11715587 30.8514676 5.99696357 29.4534413 4.4597672 29.3522267 5.72494939 28.5867914 4.17510121 26.1576418 6.72444332 28.2135628"></polygon>
            <path d="M11.9939271,18.8638664 L8.42611336,16.333502 L9.21685223,15.2074898 C9.35539632,15.0253764 9.50994179,14.8560115 9.67864373,14.701417 C9.77918302,14.6122974 9.88711157,14.5318801 10.0012652,14.4610324 L10.0645243,14.3914474 C10.0764722,14.3754979 10.0870529,14.3585688 10.0961538,14.3408401 L10.1341093,14.2649292 L13.3097166,16.472672 C13.2866756,16.6905454 13.2312402,16.9037586 13.1452429,17.1052632 C13.0643212,17.3051857 12.9625439,17.4960181 12.8415992,17.6745952 L11.9939271,18.8638664 Z M9.75455466,15.625 C9.68553372,15.726101 9.68553372,15.8591723 9.75455466,15.9602732 C9.76631141,15.9832433 9.78372871,16.0028377 9.80516195,16.0172065 L11.9939271,17.5733806 C12.1081597,17.5964694 12.2251495,17.5491756 12.2912449,17.4531882 C12.3880685,17.3329802 12.3741881,17.1580865 12.2596154,17.0546558 L10.1467611,15.5301113 C10.0163493,15.4528268 9.84845118,15.4886084 9.76088057,15.6123481 L9.75455466,15.625 Z" id="Shape" fill="#FFFFFF"></path>
            <polygon id="Shape" fill="#FFFFFF" points="17.2950404 13.1072874 15.2644231 10.0202429 15.055668 10.159413 14.6824393 9.59640689 16.9597672 8.097166 17.332996 8.66017206 16.2133097 9.39397774 16.833249 10.3302126 17.687247 9.76720648 17.9023279 10.3618421 17.1685223 10.8489372 17.8770242 11.9180162 18.9903846 11.1842105 19.3636134 11.7472166"></polygon>
            <polygon id="Shape" fill="#FFFFFF" points="25.7970648 9.41928138 24.9114372 7.94534413 24.8292004 7.97697368 25.1581477 9.55212551 24.1206984 9.76088057 23.3742409 6.1361336 23.146508 6.18041498 23.013664 5.52252024 24.1080466 5.30111336 25.1391701 6.76239878 25.2214069 6.72444332 24.8924596 5.13663967 25.923583 4.9215587 26.8092106 9.2042004"></polygon>
            <path d="M32.7682187,9.17257085 L32.8694332,4.7444332 L33.8436235,4.90890689 L33.7044534,7.61639676 L33.7993421,7.61639676 L34.5964069,5.01644737 L35.5705972,5.17459514 C35.1847166,6.34488866 34.23583,9.0270749 34.1156376,9.36867409 L32.7682187,9.17257085 Z" id="Shape" fill="#FFFFFF"></path>
            <path d="M48.2667004,16.694079 L48.0263158,16.3841093 L46.7611336,17.3519737 L46.1285425,16.542257 L49.5951418,13.8663967 L50.430162,14.9544534 C50.5651306,15.1354223 50.6836842,15.328072 50.7844129,15.5301113 C50.8421471,15.6507203 50.8907814,15.7754777 50.929909,15.9033401 L50.9805162,15.979251 L51.0184716,16.0172065 L51.0817308,16.0867915 L49.2345648,17.5037956 C49.126006,17.454428 49.0222416,17.3951341 48.9245952,17.32667 L48.8866397,17.32667 L47.9124494,18.8259109 L47.2798583,18.0541498 L48.2667004,16.694079 Z M49.8987854,15.340334 C49.8375686,15.2407868 49.7237124,15.1863338 49.6077935,15.2011639 L49.5445344,15.2011639 L48.7348178,15.840081 C48.686892,15.886548 48.6598415,15.9504527 48.6598415,16.0172065 C48.6598415,16.0839602 48.686892,16.1478649 48.7348178,16.194332 C48.8423582,16.333502 49.0005061,16.3777834 49.0953947,16.3081984 L49.9304149,15.6756073 C50.0224292,15.5706133 50.0224292,15.4136984 49.9304149,15.3087044 L49.8987854,15.340334 Z" id="Shape" fill="#FFFFFF"></path>
            <polygon id="Shape" fill="#FFFFFF" points="40.0177126 11.5511134 41.9344636 8.38183199 41.7193826 8.25531377 42.0673076 7.67965588 44.4015689 9.09033401 44.0536438 9.6659919 42.9086538 8.97646762 42.3456478 9.90637652 43.2249494 10.437753 42.7378542 10.9501518 41.9850708 10.4946862 41.3398279 11.5574393 42.4848178 12.2532895 42.1305668 12.8352733"></polygon>
            <path d="M22.5012652,54.7254554 C22.2672889,54.6518576 22.0423536,54.5521222 21.8307186,54.4281377 C21.6303085,54.3212414 21.4486873,54.1823545 21.2930162,54.0169535 L22.4190283,50.284666 C22.6406324,50.2325996 22.8690181,50.2155241 23.0959008,50.2340587 C23.3404652,50.2514815 23.5823351,50.2960364 23.8170546,50.3669028 C24.036679,50.440981 24.2485474,50.5363218 24.4496458,50.6515688 L24.7279859,50.8350203 C24.7745155,50.8677682 24.8256914,50.8933561 24.8798077,50.9109312 L24.9367409,50.9109312 L25.0253036,50.9109312 L25.0253036,51.0121458 L24.6963563,52.1191801 L23.7031883,51.8155364 L23.8423583,51.3410932 C23.8738926,51.209421 23.8037869,51.0746026 23.6778846,51.0247975 L23.6209514,51.0247975 C23.5505356,50.9957278 23.471406,50.9960947 23.4012629,51.0258163 C23.3311196,51.055538 23.2758161,51.1121342 23.2477226,51.1829454 L22.4316802,53.8588057 C22.409755,53.9158121 22.409755,53.9789248 22.4316802,54.0359311 C22.4800038,54.1133792 22.5538297,54.1715452 22.6404353,54.2004048 C22.7871408,54.2572586 22.9524676,54.1872049 23.013664,54.042257 L23.3615891,52.909919 L23.0389676,52.7454454 L23.367915,52.2077429 L24.5508604,52.5683198 L23.8929656,54.8076923 C23.6710885,54.8580565 23.4426407,54.8730018 23.2160932,54.8519737 C22.9737512,54.837375 22.7338958,54.7949227 22.5012652,54.7254554" id="Shape" fill="#FFFFFF"></path>
            <path d="M31.2436741,55.7249494 C31.0007368,55.7392442 30.7569743,55.7286458 30.5161943,55.6933199 C30.295516,55.658044 30.0819336,55.5875618 29.8836032,55.4845648 L29.6685223,51.5941296 C29.8631606,51.4681477 30.0767329,51.3741758 30.3011134,51.3157895 C30.7698209,51.1809343 31.2631471,51.1549697 31.7434211,51.2398786 C31.8524333,51.2584595 31.9601824,51.2838122 32.0660425,51.3157895 C32.1201349,51.3284603 32.1764237,51.3284603 32.2305162,51.3157895 L32.2874494,51.3157895 L32.3760121,51.3157895 L32.3760121,51.4170041 L32.4392712,52.5303643 L31.395496,52.5872976 L31.395496,52.0938766 C31.3771337,51.9598211 31.2650262,51.8583905 31.1298077,51.853492 L31.0222672,51.853492 C30.8662552,51.84977 30.7350826,51.969779 30.7249494,52.125506 L30.8704453,54.9215587 C30.8765773,54.9828656 30.9060155,55.0394776 30.9526822,55.0797065 C31.0205056,55.1391949 31.109441,55.1688401 31.1993927,55.1619433 C31.3554047,55.1656652 31.4865773,55.0456562 31.4967106,54.8899291 L31.4397773,53.7069838 L31.0792004,53.6563765 L31.2057186,53.0237855 L32.4392712,52.9542004 L32.5721154,55.3200911 C32.3757594,55.4428572 32.1626942,55.5366059 31.9395242,55.5984312 C31.7036524,55.6619994 31.4621093,55.7022566 31.2183704,55.7186234" id="Shape" fill="#FFFFFF"></path>
            <path d="M14.625506,50.7211538 C14.4328142,50.5740079 14.2586395,50.4040814 14.1067813,50.215081 C13.9597858,50.0402323 13.8403276,49.8439796 13.7525304,49.6330972 L15.8780364,46.9003037 L15.6945851,46.7548076 L16.1057693,46.2234312 L17.1052632,47.0078441 L14.8595647,49.9051114 C14.7759226,50.0379077 14.8155382,50.213348 14.9481275,50.2973178 C15.0601274,50.4025609 15.23466,50.4025609 15.34666,50.2973178 L17.5923583,47.4063766 L18.4210526,48.0389676 L15.8906882,51.3094636 C15.6711707,51.2728266 15.4581031,51.204645 15.2580972,51.1070344 C15.0342194,51.0035921 14.8221329,50.8763401 14.625506,50.7274798" id="Shape" fill="#FFFFFF"></path>
            <polygon id="Shape" fill="#FFFFFF" points="46.0716094 49.8924595 43.6614372 47.0774292 43.0225202 47.6277834 42.5860324 47.1153846 44.6925607 45.3251519 45.1290486 45.8312246 44.4838057 46.381579 46.8876518 49.1902834"></polygon>
            <path d="M51.4865891,43.8322368 C51.3568832,44.0330856 51.2063357,44.2196797 51.0374494,44.388917 C50.878821,44.5475178 50.6976305,44.6818118 50.499747,44.7874494 L49.6014676,44.2181174 L50.1518219,43.3388158 L50.6262652,43.6361336 C50.6897915,43.6687858 50.765168,43.6687858 50.8286944,43.6361336 C50.9012014,43.6096319 50.961802,43.5580092 50.999494,43.4906376 C51.0794497,43.3633453 51.0492912,43.1961032 50.929909,43.1047571 L49.9240891,42.472166 L49.3674089,43.4210526 C49.2604229,43.6633711 48.9794066,43.7757776 48.7348178,43.674089 L48.6462551,43.6171559 L47.229251,42.7315284 C47.2428829,42.5153737 47.287625,42.3023159 47.3620951,42.0989372 C47.502241,41.6269985 47.7564334,41.1968267 48.1022267,40.8464069 C48.1911442,40.7575228 48.286273,40.6750778 48.3868927,40.5996964 C48.4157428,40.5734101 48.441239,40.5436645 48.4628036,40.5111336 L48.4628036,40.4605264 L48.5070851,40.3782895 L49.5382085,41.0108806 L48.9878543,41.896508 L48.5640182,41.6308199 L48.5007592,41.6308199 C48.3764952,41.6156248 48.2549624,41.675151 48.1907894,41.7826417 C48.1068491,41.9112553 48.137313,42.0829607 48.2603744,42.1748482 L48.9752024,42.6239879 L49.6267712,41.7763158 C49.7492404,41.5254296 50.0466292,41.4142562 50.3036437,41.5232794 L50.4807692,41.6371458 L50.5187246,41.6371458 L51.8977733,42.5227733 C51.8863536,42.7386382 51.8437388,42.9517123 51.7712551,43.1553643 C51.6911464,43.3768315 51.5872133,43.5889397 51.4612854,43.7879555" id="Shape" fill="#FFFFFF"></path>
            <polygon id="Shape" fill="#FFFFFF" points="37.2912449 50.7274798 37.0571862 50.8223684 36.8041498 50.2024291 39.3155364 49.152328 39.5748988 49.7722672 38.3413462 50.284666 38.7588563 51.2904858 39.707743 50.8982794 39.8342611 51.5878037 39.0245446 51.923077 39.5053138 53.0743927 40.7325404 52.5619939 40.9919028 53.1945851 38.7145748 54.1434716"></polygon>
            <polygon id="Shape" fill="#FFFFFF" points="8.82464575 44.5597166 9.84944332 43.180668 9.79251012 43.1174089 8.45774292 44.0156882 7.8694332 43.1427126 10.9438259 41.0741396 10.8109818 40.8780365 11.3676619 40.5111336 11.9939271 41.4347166 11.0260628 42.9402834 11.0956478 43.0035425 12.4430668 42.0989372 13.0313765 42.971913 9.40030364 45.4137145"></polygon>
        </g>
    </g>
</svg>
