<?xml version="1.0" encoding="UTF-8"?>
<svg width="60px" height="60px" viewBox="0 0 60 60" version="1.1" xmlns="http://www.w3.org/2000/svg" xmlns:xlink="http://www.w3.org/1999/xlink">
    <title>SAS</title>
    <g id="Page-1" stroke="none" stroke-width="1" fill="none" fill-rule="evenodd">
        <g id="SAS" transform="translate(0.000000, 16.000000)" fill-rule="nonzero">
            <path d="M22.8151648,17.2953606 L24.1221513,17.2953606 L23.728786,18.2851181 L22.8151648,17.2953606 Z M21.2543876,21.7365777 L19.1733606,24.8200492 L22.5867528,23.703401 L23.9698741,27.0279699 L25.0103922,23.4496181 L28.8552109,24.4393756 L26.3681347,21.5589295 L29.3501036,19.0845373 L26.6853746,19.2494969 L28.4491725,17.2699834 L31.887942,17.2699834 L35.8215917,10.3036104 L35.8215917,5.71013005 L33.0299658,5.71013005 L31.6976005,8.08300881 L31.4438176,9.87218394 L29.4389223,13.4378534 L27.5989896,13.4378534 L29.4008549,10.2528668 L29.4008549,5.72282487 L26.5077202,5.72282487 L25.2134223,8.08301503 L24.9850166,9.88488031 L21.8380959,15.5061917 L22.3202845,16.7497321 L21.7112036,16.0898876 L21.9649865,19.477901 L18.2978098,19.6428606 L21.2543876,21.7365777 Z" id="Shape" fill="#FFFFFF"></path>
            <path d="M6.35728446,13.4378534 C5.22794611,13.7297036 4.07323057,14.0469342 2.95658083,14.3514746 C2.8296886,14.389542 2.71549275,14.4402979 2.6012829,14.4656782 L2.6012829,11.6232948 C2.77893109,11.5725373 2.93120207,11.5217813 3.10885026,11.4837093 C4.03516166,11.2045477 4.9614715,10.9634503 5.8877829,10.7223622 C6.04005233,10.6716047 6.21770207,10.6462275 6.36997306,10.5954699 L6.36997306,12.1435508 C7.2455285,11.9151497 8.10839378,11.7121244 8.97125907,11.521786 L8.97125907,9.63109585 C8.66671865,9.18697306 8.37486684,8.73016321 8.05763627,8.24797461 C7.84191917,8.29873212 7.61351503,8.36217824 7.39779171,8.4129342 L7.35972435,8.4129342 C5.50710933,8.85705389 3.66717668,9.35193264 1.83993264,9.91025907 C1.77106967,9.92740203 1.70327655,9.94858744 1.6369057,9.97370518 C1.40501136,10.0340183 1.17631432,10.1060158 0.951690155,10.1894223 C0.634459585,10.8365689 0.329919171,11.4837171 0.0380673575,12.1054881 L0.0380673575,15.9249342 C0.494878756,16.2421632 0.951688601,16.5593938 1.4211886,16.889313 C1.80186218,16.7751093 2.16985026,16.6482249 2.55052694,16.5467036 C3.71793264,16.1914057 4.88533834,15.8868591 6.04005389,15.5823249 C6.16694611,15.5569461 6.29383834,15.5188788 6.42072746,15.4935016 L6.42072746,18.4500839 C6.26845803,18.4881513 6.09080829,18.5262187 5.93853731,18.5769762 C4.97415855,18.8180642 4.00977979,19.0718534 3.05809119,19.3637067 C2.89313161,19.4017741 2.72817202,19.4525301 2.56321244,19.5032922 L2.56321244,17.9552098 C1.71303731,18.2089927 0.850172021,18.4754689 3.55271368e-15,18.7419404 L3.55271368e-15,20.6453192 C0.304540415,21.0767518 0.596392228,21.5081845 0.900932642,21.9396171 C1.11664819,21.876171 1.34505389,21.8000316 1.57345959,21.7365902 C1.64784474,21.7095829 1.72420782,21.6883709 1.80186528,21.673144 C3.65448653,21.1021306 5.51979793,20.5945632 7.41048808,20.150442 C7.65157617,20.0869959 7.86729948,20.0362383 8.10839378,19.9854824 C8.4256228,19.3764016 8.71747461,18.7546306 9.03470518,18.1582383 L9.03470518,14.2245855 C8.57789378,13.8692876 8.10839378,13.4886124 7.65158394,13.1333145 C7.18208238,13.2348187 6.76333834,13.3490285 6.35728446,13.4378534 Z" id="Shape" fill="#000000"></path>
            <path d="M59.9056725,16.6989746 C59.4488611,16.0898938 58.9920497,15.4681228 58.5352383,14.859042 C58.1291813,14.7321497 57.710442,14.6052591 57.304385,14.4783684 C56.1750482,14.1484492 55.0457098,13.8312202 53.9036813,13.5520585 C53.7767876,13.5266798 53.6625933,13.4886124 53.5356933,13.4632352 L53.5356933,10.5954746 C53.7006528,10.6462321 53.8656124,10.6716093 54.0305705,10.7223668 C54.9568819,10.9634549 55.8958834,11.2045554 56.8221948,11.483714 C56.9744658,11.5217813 57.152114,11.5725373 57.3043834,11.6232995 L57.3043834,13.1586917 C58.1672456,13.4124762 59.0174254,13.6789508 59.8675959,13.9454223 L59.8675959,12.0547306 C59.575744,11.4329611 59.2712021,10.8111902 58.9793503,10.1894192 C58.7509477,10.1259731 58.5352275,10.0498337 58.3068249,9.98639223 C58.2941363,9.98639223 58.2941363,9.98639223 58.2814477,9.97370207 C56.4542005,9.4026886 54.6142725,8.89512124 52.7616482,8.4636886 C52.6955974,8.44082821 52.6276576,8.42384312 52.5586197,8.41293109 C52.3175316,8.34948497 52.0891197,8.29872746 51.8480254,8.2352829 C51.5307964,8.7047829 51.2135658,9.1869715 50.9090254,9.65647461 L50.9090254,13.4759207 C51.3785254,14.0469342 51.8353368,14.6179415 52.3048383,15.1889611 C52.6855119,15.2904746 53.0788725,15.3792995 53.4468591,15.4681228 C54.6142622,15.7726637 55.7816674,16.0898933 56.9490746,16.4198114 C57.0759684,16.4451902 57.190172,16.4959461 57.304371,16.5213249 L57.304371,19.4779057 C57.1521,19.4398383 56.9744518,19.3890824 56.8221824,19.3383202 C55.8578052,19.0591585 54.8934264,18.8053756 53.9417378,18.5515896 C53.7767782,18.5135223 53.6118187,18.4754549 53.4468606,18.4246974 L53.4468606,16.8766321 C52.5839953,16.6482264 51.7211301,16.4451995 50.8582648,16.2548611 L50.8582648,18.1582383 C51.1501166,18.7546306 51.4546585,19.3637114 51.7718876,19.9601036 C51.9876047,19.998171 52.228699,20.0616171 52.444413,20.1123746 C52.5205477,20.1250632 52.5839984,20.150442 52.6601301,20.1631306 C54.5508202,20.619942 56.4288218,21.1148192 58.2814383,21.6985228 C58.5225358,21.7619689 58.7382497,21.8381083 58.9539637,21.9015497 C59.2584979,21.4701171 59.8548964,20.5691845 59.8548964,20.5691845 C59.9056725,20.6199358 59.9056725,18.0059611 59.9056725,16.6989746 Z" id="Shape" fill="#000000"></path>
            <path d="M18.2089881,8.93318549 L18.2089881,12.2450689 C17.9932725,12.2831363 17.8156228,12.2958264 17.5999073,12.3212036 C16.4705705,12.4734746 15.3412306,12.6384326 14.2245824,12.8160824 L14.2245824,8.8951228 C15.3539207,8.70478446 16.4705705,8.55251503 17.5999073,8.4129342 C17.8156228,8.37486684 17.9932725,8.36217668 18.2089881,8.33679948 L18.2089881,8.93318549 Z M19.1352979,6.36997306 C19.0464746,6.38266166 18.9957124,6.38266166 18.9068922,6.39535181 C16.4578788,6.67451347 14.0215554,7.05519637 11.5979176,7.512 L11.5979176,19.2495 C12.4607829,19.0718518 13.3490254,18.9195808 14.2245808,18.78 L14.2245808,14.6813891 C15.785358,14.440301 17.3588114,14.2118891 18.9068922,14.0215446 C18.9957155,14.008856 19.0464777,14.008856 19.1352979,13.9961658 C19.3637036,13.9580984 19.6047979,13.9454098 19.8332036,13.9200311 C20.1631228,13.2982617 20.5057306,12.7018679 20.8483399,12.092787 L20.8483399,7.87998653 C20.5184207,7.34704041 20.1884953,6.78871554 19.8332036,6.25576943 C19.6047979,6.30652694 19.3637036,6.33189793 19.1352995,6.36996528 L19.1352979,6.36997306 Z" id="Shape" fill="#000000"></path>
            <path d="M45.0339389,12.2323834 C43.8919181,12.0547352 42.7371948,11.8897756 41.5951694,11.7628834 L41.5951694,8.29873057 C42.7625751,8.43831606 43.9046021,8.60327098 45.0720078,8.79360933 C45.2623446,8.81898808 45.4653731,8.85705544 45.6557098,8.88243264 L45.6557098,12.3465777 C45.4526813,12.2958264 45.2369642,12.2704477 45.0339389,12.2323834 Z M47.3433715,13.5520601 C47.6606005,13.4251679 47.9651425,13.3236544 48.2823715,13.1967622 L48.2823715,9.1362171 C47.7240466,8.48906736 47.1784119,7.84191917 46.6200917,7.19476632 C44.0822534,6.76333368 41.5317264,6.40803731 38.9685109,6.17963161 L38.9685109,17.9171332 C39.8440648,17.9932679 40.7323073,18.0820927 41.6078611,18.1962948 L41.6078611,13.602813 C42.2803865,13.6789477 42.9656036,13.7804611 43.6381337,13.869286 C43.8538508,13.8946648 44.0949451,13.9327321 44.3106591,13.9581093 C44.7674705,14.0215554 45.2115917,14.1103803 45.6684016,14.1611363 L45.6684016,18.7546244 C45.7191591,18.7546244 45.7572249,18.7800031 45.807987,18.7800031 C46.6454751,18.9195886 47.4575829,19.0591648 48.2950679,19.2114358 L48.2950679,14.2245839 C47.9651425,14.0088668 47.6606005,13.7931513 47.3433715,13.5520554 L47.3433715,13.5520601 Z" id="Shape" fill="#000000"></path>
            <path d="M11.0649746,3.2865 C10.684301,3.34994611 10.3290016,3.42608549 9.96101503,3.50221554 C9.91717113,3.50902147 9.87447289,3.52183084 9.8341228,3.5402829 L9.8341228,2.6012829 C9.88488031,2.5885943 9.94832642,2.5885943 9.98639378,2.57590415 C10.2909342,2.51245803 10.5954746,2.46170207 10.900015,2.39825596 C10.9507725,2.38556736 11.0142187,2.38556736 11.0649746,2.3728772 L11.0649746,2.86775596 C11.3441363,2.8296886 11.6232995,2.76624249 11.9151497,2.71548497 L11.9151497,2.1064057 C11.8136363,1.94144611 11.7248114,1.80186528 11.6106093,1.6495943 C11.539576,1.66429582 11.467398,1.67278744 11.3948922,1.67497306 L11.3822021,1.67497306 C10.7731212,1.78917513 10.176729,1.90337876 9.58033679,2.03027098 C9.55945559,2.03574273 9.53827019,2.0399796 9.51689067,2.04295959 C9.44075596,2.05564819 9.36461969,2.06833834 9.30117358,2.08102694 C9.21235026,2.29674249 9.09814663,2.47439223 8.99663316,2.69010777 L8.99663316,3.93364819 C9.16159275,4.04785181 9.30117358,4.16205389 9.45344456,4.28894611 L9.83411813,4.2128114 C10.2147917,4.13667668 10.5954653,4.07322591 10.9634565,3.9844057 C11.014214,3.9844057 11.0522798,3.9717171 11.0903487,3.9717171 L11.0903487,4.9234057 C11.0522813,4.9360943 10.9888352,4.9360943 10.9380777,4.94878446 C10.6208487,5.01223057 10.3036181,5.07567668 9.98638912,5.12643264 C9.94832176,5.13912124 9.88487565,5.13912124 9.83411813,5.1518114 L9.83411813,4.65693264 C9.55495648,4.72037876 9.26310466,4.75844611 8.99663161,4.82189223 L8.99663161,5.44366321 C9.09814508,5.59593264 9.18696995,5.73551503 9.30117202,5.88778446 C9.37730674,5.87509585 9.44075751,5.8624057 9.51688912,5.8497171 C9.55495648,5.8497171 9.56764663,5.8370285 9.59302383,5.8370285 C10.2147948,5.71013627 10.811187,5.59594041 11.4202679,5.48173057 C11.4964026,5.46904197 11.5852275,5.45635181 11.6486736,5.44366321 C11.7374969,5.25332487 11.8517005,5.06298964 11.9405254,4.85996114 L11.9405254,3.57835492 C11.7882544,3.45146269 11.6486736,3.32457047 11.483714,3.21036839 C11.3441363,3.23574404 11.2045554,3.24843264 11.0649746,3.2865 Z" id="Shape" fill="#000000"></path>
            <path d="M14.1103803,3.5149057 C14.2753399,2.89313575 14.4276104,2.25867617 14.5671917,1.61152694 C14.7321513,2.19522902 14.8717321,2.79162124 15.0240031,3.37532487 C14.7321513,3.42608238 14.4149223,3.47683834 14.1103803,3.5149057 Z M13.9834896,1.24354041 C13.6408803,2.56321554 13.2982725,3.88289223 12.9302876,5.20256736 C13.1967606,5.1518114 13.4632337,5.10105389 13.7423953,5.07567513 C13.8185301,4.77113472 13.8819808,4.4792829 13.9581109,4.20012124 C14.3641648,4.13667513 14.7702187,4.07322902 15.2016513,4.0097829 C15.277786,4.27625596 15.3412368,4.55541762 15.4173668,4.82189067 C15.6965285,4.77113472 16.0010705,4.74575596 16.2802321,4.69499845 C15.9376228,3.47683679 15.5950166,2.25867358 15.2270285,1.05320052 C14.808286,1.11664663 14.4022321,1.18009275 13.9834896,1.24353264 L13.9834896,1.24354041 Z" id="Shape" fill="#000000"></path>
            <path d="M19.5032876,3.04539793 C19.0718549,2.24597876 18.6150451,1.45924974 18.1709223,0.65983057 C17.879072,0.68521399 17.5745301,0.723276684 17.2699896,0.761344041 L17.2699896,4.56810155 C17.5237725,4.5427228 17.777557,4.50465544 18.0313368,4.47927668 L18.0313368,1.92874974 C18.475458,2.72816891 18.9068907,3.5402829 19.3510119,4.33969585 C19.6555523,4.3016285 19.9474041,4.27624974 20.2646332,4.23818238 L20.2646332,0.43142487 C20.0108503,0.469492228 19.7570658,0.482182383 19.503286,0.520249741 L19.5032876,3.04539793 Z" id="Shape" fill="#000000"></path>
            <path d="M24.1855959,2.46170984 C24.3378668,1.85262902 24.4901363,1.21816943 24.6550959,0.609088601 C24.8073668,1.20548083 24.9469461,1.81456166 25.1119073,2.42364249 C24.7946782,2.43632487 24.4901394,2.44901347 24.1855959,2.46170984 Z M24.0587036,0.164965803 C23.7034057,1.45926839 23.3481093,2.7535601 23.0055,4.03516943 C23.2719731,4.02248083 23.5384446,4.00979067 23.8176078,3.98441347 C23.8937425,3.70525181 23.9571933,3.4134 24.0333233,3.12154819 C24.4520674,3.09616943 24.8708098,3.08348083 25.2768637,3.05810207 C25.365687,3.34995389 25.4291347,3.62911554 25.5052694,3.9082772 C25.7971197,3.8955886 26.0889731,3.88289845 26.3808233,3.88289845 C26.038214,2.62666788 25.670229,1.38312746 25.3276197,0.126898446 C24.8835016,0.126898446 24.4647575,0.139582383 24.0587036,0.164959585 L24.0587036,0.164965803 Z" id="Shape" fill="#000000"></path>
            <path d="M29.8449762,2.52514197 C29.4008565,1.67497306 28.9440435,0.85017513 28.4999223,0.012688601 C28.2080705,0.012688601 27.9035285,0.0253772021 27.6116798,0.0253772021 L27.6116798,3.83213627 C27.8654627,3.83213627 28.106557,3.81944767 28.3603399,3.81944767 L28.3603399,1.2562228 C28.8044627,2.10639793 29.2485824,2.93119585 29.6800166,3.78137254 L30.5936394,3.78137254 L30.5936394,0 L29.8449793,0 L29.8449762,2.52514197 Z" id="Shape" fill="#000000"></path>
            <path d="M31.8371782,0.697905699 C32.1924746,0.697905699 32.5350839,0.723289119 32.8776964,0.735973057 L32.8776964,3.84481865 C33.1568674,3.87019741 33.4487098,3.87019741 33.7278731,3.88288601 L33.7278731,0.76134715 C34.0704808,0.786725907 34.4257788,0.799414508 34.7683912,0.812104663 L34.7683912,0.139585492 C33.7913145,0.0888248705 32.8142487,0.063446114 31.8371782,0.0380673575 L31.8371782,0.697905699 Z" id="Shape" fill="#000000"></path>
            <path d="M42.5341663,3.29919016 C42.0900435,2.39825751 41.6586124,1.51001347 41.201801,0.609088601 C40.8972606,0.571021244 40.6054073,0.545642487 40.3008684,0.520263731 L40.3008684,4.32701969 C40.5546513,4.35239845 40.8084342,4.36508705 41.0622155,4.4031544 L41.0622155,1.85262124 C41.4936466,2.75355389 41.9377694,3.64179793 42.3818922,4.55541917 C42.673744,4.59348653 42.978286,4.63155389 43.2701347,4.6696228 L43.2701347,0.862865285 C43.0290466,0.824797927 42.7752575,0.799419171 42.5214746,0.761351813 L42.5214746,3.29919016 L42.5341663,3.29919016 Z" id="Shape" fill="#000000"></path>
            <path d="M44.5136813,1.61151917 C44.742087,1.64958653 44.9451124,1.67496528 45.1608295,1.71303264 L45.1608295,4.33969585 C44.9451124,4.3016285 44.742087,4.27624974 44.5136813,4.23818238 L44.5136813,4.82188601 C45.2242756,4.92339948 45.9348731,5.02491295 46.6454658,5.15180518 L46.6454658,4.56810933 C46.4170601,4.54273057 46.2140347,4.50466321 45.9983176,4.46659585 L45.9983176,1.83993264 C46.2140347,1.8653114 46.4170601,1.90337876 46.6454658,1.94144611 L46.6454658,1.35774404 C45.9348715,1.25623057 45.2242741,1.1420285 44.5136813,1.02782487 L44.5136813,1.61151917 Z" id="Shape" fill="#000000"></path>
            <path d="M38.2071544,1.19278446 L38.2071544,3.5022171 C38.1310197,3.5022171 38.0675689,3.4895285 37.9914373,3.4895285 C37.6868969,3.45146114 37.3950435,3.43877254 37.0905047,3.42608238 C37.0143699,3.42608238 36.9509192,3.41339378 36.8747876,3.41339378 L36.8747876,0.875553886 C36.9509223,0.875553886 37.0143731,0.888242487 37.0905047,0.888242487 C37.3950451,0.913621244 37.6868984,0.938998446 37.9914373,0.951688601 C38.067572,0.951688601 38.1310228,0.964377202 38.2071544,0.964377202 L38.2071544,1.19278446 Z M38.7274135,0.367986528 C38.6512788,0.367986528 38.5751425,0.355297927 38.4990078,0.355297927 C37.8772368,0.304541969 37.280843,0.266473057 36.6717606,0.215712435 L36.5956259,0.215712435 C36.5068026,0.215712435 36.4306663,0.203017617 36.3545378,0.203017617 C36.2403358,0.367977202 36.1388207,0.558315544 36.0246187,0.735963731 L36.0246187,3.41339223 C36.1388207,3.59104041 36.2403358,3.80675751 36.3545378,3.9844057 C36.4306725,3.9844057 36.5068088,4.00978446 36.5956259,4.00978446 L36.6717606,4.00978446 C37.280843,4.04785181 37.8772337,4.08591917 38.4990047,4.14936995 C38.5751394,4.14936995 38.6512756,4.16205855 38.7274104,4.16205855 C38.8416109,3.98441036 38.9558161,3.80676062 39.0573295,3.62911244 L39.0573295,0.951688601 C38.9558176,0.761350259 38.8416155,0.571015026 38.7274104,0.367986528 L38.7274135,0.367986528 Z" id="Shape" fill="#000000"></path>
            <path d="M50.058858,2.82968394 L50.058858,5.13911658 C49.9827233,5.12642798 49.9192725,5.10104922 49.8304523,5.08836062 C49.5386005,5.02491451 49.2340585,4.98684715 48.9422098,4.92340104 C48.8675383,4.90046273 48.7911629,4.88349073 48.7138041,4.87264508 L48.7138041,2.33480674 C48.7884757,2.35774504 48.864851,2.37471705 48.9422098,2.38556269 C49.2340617,2.44900881 49.5386036,2.49976477 49.8304523,2.5632171 C49.9192756,2.5759057 49.9827233,2.58859585 50.058858,2.60128446 L50.058858,2.82968394 Z M50.8836544,2.70279171 C50.7821425,2.49976477 50.6679373,2.27135907 50.579114,2.06833212 C50.4902907,2.05564352 50.4141544,2.04295337 50.3380259,2.03026477 C49.7416321,1.90337254 49.1452415,1.78917668 48.523472,1.67496684 C48.4980948,1.67496684 48.4727145,1.66227824 48.4473373,1.66227824 C48.3699785,1.65143264 48.2936032,1.63446063 48.2189316,1.61152228 C48.1041366,1.77488269 47.9982397,1.94431809 47.9017026,2.11908964 L47.9017026,4.79651347 C48.0159047,4.99954041 48.1174197,5.20256736 48.2189316,5.4055943 C48.2950663,5.4182829 48.3712026,5.44366166 48.4473373,5.45635026 C48.4730329,5.45838523 48.4985053,5.46263046 48.523472,5.46903886 C49.1325544,5.58324249 49.7416337,5.68475596 50.3380259,5.81164663 C50.4166705,5.83589008 50.4973703,5.8528797 50.579114,5.86240259 C50.6806259,5.6847544 50.7948311,5.53248342 50.8836544,5.35483523 L50.8836544,2.70279171 Z" id="Shape" fill="#000000"></path>
            <polygon id="Shape" fill="#000000" points="25.4037824 10.0498446 22.3075648 15.556943 22.8278238 16.8385492 24.7439378 16.8385492 23.868342 19.059171 22.231399 17.2826425 22.4218135 19.8966839 19.5666839 20.0235233 21.8381347 21.6096373 20.2265285 24.0079275 22.8278238 23.1704145 23.8936788 25.7463731 24.718601 22.9293264 27.611658 23.6653368 25.7336269 21.5081347 28.0304145 19.6047668 25.6576166 19.7570984 28.2334197 16.8385492 31.621399 16.8385492 35.364715 10.2021762 35.364715 6.16694301 33.258342 6.16694301 32.0401554 8.31139896 31.8371503 10.0498446 29.6673575 13.92 26.8249741 13.92 28.9440933 10.1766839 28.9440933 6.17968912 26.7488083 6.17968912 25.5814508 8.31139896"></polygon>
            <polygon id="Shape" fill="#C4CED4" points="34.5780311 6.76336788 33.588342 6.76336788 32.8269948 8.09564767 33.8547668 8.09564767"></polygon>
            <polygon id="Shape" fill="#C4CED4" points="28.17 6.76336788 27.1167358 6.76336788 26.3681347 8.09564767 27.4848187 8.09564767"></polygon>
            <polygon id="Shape" fill="#C4CED4" points="26.1778756 15.2650259 23.9698446 20.3026943 22.9801554 19.2368394 23.081658 20.5818653 21.5970466 20.645285 22.7771503 21.4827979 21.952228 22.7263212 23.2974093 22.282228 23.8557513 23.6145078 24.2743523 22.1553886 25.784456 22.5486528 24.8073575 21.4193782 26.0002073 20.4295337 24.3251813 20.5437824 24.2109326 20.5437824 27.6878238 15.2905181 30.7078756 15.2905181 33.3853368 10.5066839 32.3448187 10.5066839 30.0987047 14.4530052 24.6931088 14.4530052 26.9518135 10.5066839 25.8987047 10.5066839 23.1704145 15.2905181 26.1778756 15.2905181"></polygon>
            <polygon id="Shape" fill="#C4CED4" points="27.2056477 8.64139896 26.2285492 8.64139896 26.1017098 9.79601036 27.1041451 9.79601036"></polygon>
            <polygon id="Shape" fill="#C4CED4" points="33.6390155 8.64139896 32.6746632 8.64139896 32.5478238 9.79601036 33.537513 9.79601036"></polygon>
            <path d="M23.5003819,21.8000301 C23.7398224,21.8058685 23.9386612,21.6164985 23.9445031,21.377058 C23.9446762,21.3700114 23.9446762,21.3629617 23.9445031,21.3559088 C23.945238,21.2388554 23.8994435,21.1263042 23.8171938,21.0430153 C23.7349441,20.9597264 23.6229768,20.9125224 23.5059233,20.9117876 C23.5040756,20.9117762 23.5022285,20.9117762 23.5003819,20.9117876 C23.2601114,20.918752 23.0689472,21.1155374 23.0689472,21.3559088 C23.0689472,21.5962802 23.2601114,21.7930657 23.5003819,21.8000301 L23.5003819,21.8000301 Z" id="Shape" fill="#000000"></path>
        </g>
    </g>
</svg>
