<?xml version="1.0" encoding="UTF-8"?>
<svg width="60px" height="60px" viewBox="0 0 60 60" version="1.1" xmlns="http://www.w3.org/2000/svg" xmlns:xlink="http://www.w3.org/1999/xlink">
    <title>ORL</title>
    <g id="Page-1" stroke="none" stroke-width="1" fill="none" fill-rule="evenodd">
        <g id="ORL" transform="translate(0.000000, 8.000000)">
            <path d="M24.1658182,30.432 C27.36,29.9345455 30.5803636,30.0916233 33.3818182,31.2698182 L33.7221818,30.5105455 C29.1927273,29.0705455 23.4589091,29.1229091 19.2436364,31.45308 L20.448,28.6516255 C15.0807273,30.0916255 11.52,33.1287164 7.88072727,36.2181709 C10.5250909,29.9868982 16.2589091,24.8814436 22.7258182,22.9963527 L22.4116364,24.0436255 C28.0930909,22.1847164 34.3243636,21.8181709 39.3512727,22.6559891 L38.1730909,21.1112618 L41.0792727,21.8705345 L42.9381818,19.0690909 L43.6712727,22.5250909 L46.5250909,23.4414545 C46.5250909,23.4414545 44.4567273,24.3054545 44.5352727,24.3578182 C55.3221818,28.7825455 51.8661818,43.5490909 41.6290909,43.6014545 C36.4450909,43.6538182 32.4130909,38.9672618 32.5963636,34.0712618 C29.9258182,32.3432727 27.3076364,31.5054545 24.1658182,30.432 Z" id="Shape" fill="#C2CCD2" fill-rule="nonzero"></path>
            <path d="M22.1236364,10.7694545 L22.1236364,10.7432727 C22.1616354,10.3486027 22.3489446,9.98334977 22.6472727,9.72218182 C22.9435515,9.52762836 23.2879028,9.41888585 23.6421818,9.408 C23.6421818,9.408 23.9563636,9.38181818 24.2443636,9.38181818 L25.1869091,9.30327273 L25.1869091,15.9796364 L24.3752727,16.032 C23.8778182,16.0581818 23.5898182,16.0843745 23.04,16.1105455 L22.1236364,16.1890909 L22.1236364,10.7694545 Z M17.5941818,10.5861818 C17.5621834,9.50049562 17.9249715,8.44003822 18.6152727,7.60145455 C19.3705408,6.82522614 20.3880771,6.35846632 21.4690909,6.29236364 C23.6683636,6.10909091 25.8938182,5.97818182 28.0930909,5.92581818 L29.7163636,5.89963636 L29.7163636,24.6196364 L29.6901818,26.2167164 L28.0669091,26.1905345 C27.7789091,26.1905345 25.6058182,26.26908 25.2130909,26.26908 L25.1607273,26.26908 L23.4327273,26.4523527 L23.4327273,26.4 L22.3330909,26.4523636 C22.176,26.4523636 19.5578182,26.7141818 19.4530909,26.7403636 L17.5941818,27.0545455 L17.5941818,10.5861818 Z" id="Shape" fill="#C2CCD2" fill-rule="nonzero"></path>
            <path d="M57.7570909,30.5629091 C57.7570909,30.5629091 55.584,29.8821818 55.2698182,29.8036364 C55.2436364,29.8036364 55.2436364,29.8036364 55.2436364,29.7774698 C54.2487273,29.4894545 53.3585455,29.2538335 52.7301818,29.0705498 L51.5781818,28.7825498 C49.3844692,28.408107 47.8195557,26.4491504 47.9389091,24.2269135 L47.9389091,12.0523636 C47.9389091,10.8741818 48.3054545,9.77454545 49.1694545,9.09381818 C49.7309297,8.66222968 50.4253653,8.44001031 51.1330909,8.46545455 C51.5204255,8.47166092 51.9062397,8.51550344 52.2850909,8.59636364 C52.4421818,8.64872727 52.8610909,8.75345455 53.5418182,8.93672727 C54.1963636,9.12 55.0341818,9.38181818 55.872,9.61745455 C57.5476364,10.0887273 59.1970909,10.56 59.1970909,10.56 L59.8254545,10.7432727 L59.8254545,19.0167273 L54.5367273,17.3672727 L54.4581818,16.8436364 C54.4581818,16.8436364 54.3010909,15.8749091 54.144,14.9847273 L54.144,24.2530909 L54.1701818,24.3054545 C54.1701818,24.3054545 54.144,24.3316495 54.3272727,24.384 C54.3272727,24.384 54.6676364,24.4625455 54.8770909,24.5149091 C55.0341818,23.9127382 55.1912727,23.2581927 55.1912727,23.2581927 L55.4007273,22.3418138 L59.8254545,23.6509047 L59.8516364,31.13892 L57.7570909,30.5629091 Z" id="Shape" fill="#C2CCD2" fill-rule="nonzero"></path>
            <path d="M0.0261818182,13.1258182 C0.043945287,12.285489 0.39197127,11.4859699 0.994909091,10.9003636 C1.4513403,10.4348446 2.00591036,10.0770575 2.61818182,9.85309091 C5.05309091,9.06763636 8.50909091,8.544 8.66618182,8.51781818 L9.58254545,8.38690909 C9.98217267,8.15634813 10.4148593,7.98857168 10.8654545,7.88945455 C12.0436364,7.65381818 15.6829091,6.97309091 15.84,6.94692 L17.7250909,6.58036364 L17.7250909,25.6145455 L17.6989091,27.0283636 L16.2850909,27.1854545 C16.1803636,27.1854545 13.536,27.6567273 13.4050909,27.6829091 L11.4414545,28.128 L11.4414545,25.0385455 L5.96945455,26.3476364 L5.96945455,29.4632727 L4.76509091,29.7512727 C4.73890909,29.7512727 4.34618182,29.8821818 3.92727273,30.0130909 C3.48218182,30.144 2.98472727,30.3010909 2.61818182,30.4058182 C2.46460055,30.4420229 2.31537346,30.4946913 2.17309091,30.5629091 L0,31.3483636 L0,13.1258182 L0.0261818182,13.1258182 Z" id="Shape" fill="#C2CCD2" fill-rule="nonzero"></path>
            <path d="M46.08,27.6305455 L46.0276364,27.6305455 C46.0014545,27.6305455 45.9752727,27.6043636 45.9490909,27.6043636 C45.8336245,27.5878262 45.719764,27.5615507 45.6087273,27.5258182 C45.2916397,27.4926963 44.9768717,27.440235 44.6661818,27.3687273 C44.0116364,27.264 43.3047273,27.1330909 43.2523636,27.1330909 L42.5978182,27.0807273 L41.8385455,27.0021818 L41.8385455,6.76363636 L43.5665455,6.89454545 C43.7498182,6.92072727 44.1163636,6.97309091 44.6661818,7.07781818 C45.1898182,7.15636364 45.8181818,7.26109091 46.2370909,7.33963636 C46.4488503,7.35893337 46.6588831,7.39393883 46.8654545,7.44436364 L48.0698182,7.75854545 L48.0698182,28.0494545 L46.08,27.6305455 Z" id="Shape" fill="#C2CCD2" fill-rule="nonzero"></path>
            <path d="M39.9272727,26.7141818 C39.744,26.688 38.6443636,26.5832727 37.5185455,26.4785455 C36.4189091,26.4 35.2407273,26.3214545 34.4552727,26.2690909 L33.6436364,26.2429091 C32.4654545,26.1905455 31.4443636,25.824 30.7112727,25.0909091 C29.9781818,24.3316364 29.6378182,23.3105455 29.6378182,22.1323636 L29.6378182,9.46036364 C29.6378182,8.46545455 29.9258182,7.52290909 30.6327273,6.86836364 C31.4967273,6.05672727 32.544,5.97818182 33.1985455,5.97818182 L33.9054545,5.97818182 C34.1149091,5.97818182 34.4029091,6.00436364 34.8218182,6.03054545 L35.2930909,6.03054545 L35.2669091,6.05672727 C35.7381818,6.08290909 36.288,6.13527273 37.0472727,6.18763636 C39.5083636,6.37090909 40.1629091,6.44945455 40.5294545,6.528 C40.6471252,6.54734716 40.7616251,6.58257789 40.8698182,6.63272727 L41.7861818,7.07781818 L41.7861818,13.6756364 L36.5498182,12.9949091 L36.4189091,12.3927273 C36.4189091,12.3927273 36.288,11.7381818 36.1570909,11.136 L35.9214545,11.136 L35.9476364,13.5185455 L35.9476364,14.0421818 L36.3141818,14.0421818 C36.5421838,14.0397494 36.7699615,14.0572708 36.9949091,14.0945455 C37.3090909,14.1207404 37.7018182,14.14692 38.0945455,14.1730909 C38.9061818,14.2516364 39.7963636,14.3563636 40.2414545,14.4087273 C40.3468827,14.4032864 40.452563,14.4120931 40.5556364,14.4349091 L41.8123636,14.7229091 L41.7861818,27.0807273 L39.9272727,26.7141818 Z" id="Shape" fill="#C2CCD2" fill-rule="nonzero"></path>
            <path d="M23.3541818,14.88 C23.5623513,14.849562 23.7722093,14.8320739 23.9825455,14.8276364 L23.9825455,10.5861818 C23.9045464,10.5992725 23.8258793,10.6080133 23.7469091,10.6123636 C23.5636364,10.6123636 23.4589091,10.6385455 23.4327273,10.6909091 C23.3803636,10.7170909 23.3803636,10.7170909 23.3541818,10.8218182 L23.3541818,14.88 Z M18.1178182,10.5861818 C18.0916364,8.46545455 19.4007273,6.97309091 21.5476364,6.816 C23.7207273,6.63272727 25.9461818,6.50181818 28.1454545,6.44945455 L29.2189091,6.42327273 L29.2189091,25.6930909 L28.1192727,25.6669091 C27.8312727,25.6669091 25.344,25.7454545 25.1607273,25.7978182 L23.9825455,25.9025455 L23.9825455,18.8072727 C23.7722093,18.8117102 23.5623513,18.8291984 23.3541818,18.8596364 L23.3541818,24.9076364 L23.328,25.9287382 L22.3330909,25.95492 C22.1236364,25.95492 19.584,26.2167382 19.4007273,26.2690887 L18.144,26.4523615 L18.1178182,10.5861818 Z" id="Shape" fill="#000000" fill-rule="nonzero"></path>
            <path d="M57.9403636,30.0654545 C57.9403636,30.0654545 56.0290909,29.4632727 55.5054545,29.3323636 C55.4530909,29.3061818 55.4269091,29.3061818 55.4007273,29.28 C54.3272727,28.9658182 53.3585455,28.704 52.704,28.5469091 L51.6829091,28.2850909 C49.6145455,27.8138182 48.4363636,26.3214545 48.4625455,24.2269091 L48.4625455,12.0785455 C48.4625455,10.9527273 48.7767273,10.0887273 49.4836364,9.51272727 C49.9511632,9.1619866 50.5225548,8.97766673 51.1069091,8.98909091 C51.4596503,8.99552443 51.8107105,9.03940695 52.1541818,9.12 C52.4945455,9.19854545 59.04,11.0836364 59.04,11.0836364 L59.3018182,11.136 L59.3018182,18.3098182 L54.9818182,16.9745455 L54.9556364,16.7650909 C54.9556364,16.7650909 54.6152727,14.6705455 54.4843636,13.7803527 C54.2225455,13.7018073 54.0130909,13.6494436 53.8821818,13.6232618 L53.7512727,13.5708982 L53.6203636,13.5185345 L53.6203636,24.25308 C53.6177714,24.3547011 53.6450835,24.4548456 53.6989091,24.54108 C53.7971871,24.7193099 53.9700912,24.8441851 54.1701818,24.8814436 C54.1701818,24.8814436 54.7461818,25.0385345 55.2698182,25.1694436 C55.4269091,24.4625345 55.6625455,23.38908 55.6625455,23.38908 L55.7672727,23.0225236 L59.3018182,24.0959782 L59.3018182,30.4843418 L57.9403636,30.0654545 Z" id="Shape" fill="#000000" fill-rule="nonzero"></path>
            <path d="M0.549818182,13.1258182 C0.602181818,11.5810909 1.91127273,10.6385455 2.77527273,10.3505455 C5.15781818,9.59127273 8.58763636,9.06763636 8.77090909,9.04145455 L9.792,8.85818182 C10.168309,8.64316731 10.5740646,8.48439339 10.9963636,8.38690909 C12.1745455,8.15127273 15.7876364,7.47054545 15.9709091,7.41818182 L17.2276364,7.20872727 L17.2276364,25.5883636 L17.2014545,26.5309091 L16.2589091,26.6618182 C16.0494545,26.6618182 13.5098182,27.1069091 13.3265455,27.1592727 L11.9912727,27.4472727 L11.9912727,12.576 L11.9650909,12.576 C11.5985455,12.6807273 11.52,12.7592727 11.4414545,13.1781818 L11.4414545,24.4887273 L6.25745455,25.7192727 L6.25745455,13.8589091 C6.23485091,13.876011 6.20725316,13.8852103 6.17890909,13.8850909 C5.98783281,13.919995 5.80811846,14.0008664 5.65527273,14.1207273 C5.53754232,14.2031568 5.47667879,14.3451717 5.49818182,14.4872727 L5.49818182,28.1803636 L5.472,29.0181818 L4.66036364,29.2014545 C4.47709091,29.2538182 2.19927273,29.9607273 2.04218182,30.0130909 L0.576,30.5629091 L0.576,13.1258182 L0.549818182,13.1258182 Z" id="Shape" fill="#000000" fill-rule="nonzero"></path>
            <path d="M46.1847273,27.1069091 C46.0014545,27.0545455 43.4618182,26.6356364 43.2785455,26.6094545 L42.624,26.5570909 L42.3098182,26.5309091 L42.3098182,7.33963636 L43.488,7.44436364 C43.776,7.47054545 46.4203636,7.91563636 46.7083636,7.99418182 L47.52,8.20363636 L47.52,27.3949091 L46.1847273,27.1069091 Z" id="Shape" fill="#000000" fill-rule="nonzero"></path>
            <path d="M35.424,21.504 C35.4342654,21.5839721 35.4517924,21.6628433 35.4763636,21.7396364 C35.5025455,21.7658182 35.5549091,21.8181818 35.8167273,21.8443636 C35.9045303,21.8465582 35.9920466,21.8553098 36.0785455,21.8705455 L36.0785455,18.2574545 C35.9220141,18.2405697 35.7647111,18.2318307 35.6072727,18.2312727 L35.424,18.2050909 L35.424,21.504 Z M40.0058182,26.1905455 C39.5083636,26.0858182 36.0785455,25.824 34.5076364,25.7454545 L33.6698182,25.6930909 C32.5963636,25.6669091 31.7061818,25.3265455 31.104,24.6981818 C30.5018182,24.096 30.1876364,23.1796364 30.1876364,22.1323636 L30.1876364,9.46036364 C30.1876364,8.544 30.4494545,7.78472727 30.9992727,7.23490909 C31.7061818,6.58036364 32.6225455,6.50181818 33.2247273,6.50181818 L33.9054545,6.50181818 C34.3505455,6.50181818 35.1883636,6.58036364 36.9949091,6.71127273 C39.4821818,6.89454545 40.1367273,6.97309091 40.4509091,7.02545455 C40.5222846,7.04727917 40.5922372,7.07351138 40.6603636,7.104 L41.2887273,7.41818182 L41.2887273,13.0996364 L36.9949091,12.5236364 L36.9425455,12.288 C36.9425455,12.288 36.7330909,11.2669091 36.6021818,10.6385455 L36.3665455,10.6385455 C36.3403636,10.6385455 35.6858182,10.5861818 35.6858182,10.5861818 L35.5810909,10.5861818 C35.5273012,10.5797185 35.4727859,10.5888044 35.424,10.6123636 L35.424,14.6181818 L36.3141818,14.592 L36.3403636,14.592 C36.5498182,14.592 37.4923636,14.6705455 38.4349091,14.7490909 C39.4036364,14.8276364 40.2676364,14.9323636 40.4770909,14.9585455 L41.3149091,15.1418182 L41.2887273,26.4523636 L40.0058182,26.1905455 Z" id="Shape" fill="#000000" fill-rule="nonzero"></path>
            <path d="M24.5585455,9.984 L24.5585455,15.3774545 C24.1134545,15.4036495 23.2494545,15.456 22.752,15.4821818 L22.752,10.7694545 C22.8043636,10.4552727 22.9090909,10.0887273 23.6945455,10.0363636 C23.6945455,10.0363636 24.1658182,9.984 24.5585455,9.984 Z M28.1454545,7.20872727 L28.1454545,7.02545455 C25.9461818,7.07781818 23.7730909,7.18254545 21.6,7.36581818 C19.7410909,7.54909091 18.6938182,8.67490909 18.72,10.56 L18.72,25.7454545 L19.2698182,25.6407273 C19.4530909,25.6145324 22.1236364,25.3527273 22.2807273,25.3265455 L22.7258182,25.3265455 L22.7258182,18.2574545 C23.1709091,18.2312727 24.0349091,18.1527273 24.5323636,18.1265455 L24.5323636,25.2218182 L25.0821818,25.1694436 C25.2130909,25.1432618 27.7003636,25.0385345 28.0669091,25.0385345 L28.0930909,25.0385345 L28.4072727,25.0647164 L28.5905455,25.0647164 L28.5905455,7.02545455 L28.0930909,7.02545455 L28.1454545,7.20872727 Z" id="Shape" fill="#FFFFFF" fill-rule="nonzero"></path>
            <path d="M58.7258182,24.5149091 L56.2123636,23.7818182 L56.1861818,23.9650909 C56.1861818,23.9650909 55.872,25.3265455 55.7410909,25.9287273 C54.7461818,25.640712 54.3010909,25.5098182 54.0654545,25.4574545 C53.7015236,25.3796738 53.3875815,25.1513522 53.2014545,24.8290909 C53.1119623,24.649198 53.0585929,24.4535101 53.0443636,24.2530909 L53.0443636,13.44 C53.0511294,13.3031613 53.0868229,13.1693108 53.1490909,13.0472727 C53.2014545,12.9687273 53.28,12.9425455 53.4370909,12.9425455 C53.5519571,12.9490931 53.665932,12.9666277 53.7774545,12.9949091 L53.8298182,12.9949091 C53.856,12.9949091 54.2749091,13.1258182 55.008,13.3352727 C55.1127273,13.9636364 55.5054545,16.3985455 55.5054545,16.3985455 L55.5054545,16.5294545 L58.6996364,17.4981818 L58.6996364,11.6072727 L58.5687273,11.5549091 C58.5687273,11.5549091 52.3374545,9.77454545 51.9970909,9.72218182 C51.6979789,9.64201618 51.3903212,9.59806508 51.0807273,9.59127273 C50.6294975,9.57657355 50.1865701,9.71498836 49.824,9.984 C49.2741818,10.4029091 49.0123636,11.136 49.0123636,12.0785455 L49.0123636,24.2269091 C48.9861818,26.0596364 49.9549091,27.264 51.7614545,27.7090909 L51.8661818,27.7090909 C52.0756364,27.7614545 53.8036364,28.2327273 55.5316364,28.704 L58.0712727,29.4894545 L58.6734545,29.6727273 L58.7258182,24.5149091 Z" id="Shape" fill="#FFFFFF" fill-rule="nonzero"></path>
            <path d="M11.1010909,8.98909091 C10.4567606,9.12250947 9.86533607,9.44096885 9.39927273,9.90545455 L9.39927273,9.51272727 L8.84945455,9.59127273 C8.69236364,9.61745455 5.26254545,10.1672727 2.95854545,10.9003636 C2.22545455,11.1621818 1.17818182,11.9738182 1.152,13.1258182 L1.152,29.7512727 L1.80654545,29.4894545 C1.93745455,29.4370909 4.34618182,28.704 4.50327273,28.6516364 L4.73890909,28.5992727 L4.86981818,28.5730909 L4.86981818,14.4872727 C4.86981818,13.7803527 5.52436364,13.4661818 5.96945455,13.3090909 C6.24582138,13.2422675 6.52547027,13.1898334 6.80727273,13.152 L6.80727273,24.9861818 L10.8130909,24.0436364 L10.8130909,13.1258182 C10.9178182,12.4712727 11.2058182,12.157104 11.808,12 L11.808,12 C11.9127273,11.9738182 12.2530909,11.9214545 12.5672727,11.8690909 L12.5672727,26.7403636 L13.1694545,26.5832727 C13.3003636,26.5570909 15.9970909,26.0858182 16.1803636,26.0858182 L16.4421818,26.0596364 L16.6254545,26.0596364 L16.6254545,7.91563636 L16.0494545,8.02036364 C16.0494545,8.02036364 12.2792727,8.72727273 11.1010909,8.98909091 Z" id="Shape" fill="#FFFFFF" fill-rule="nonzero"></path>
            <path d="M43.4356364,8.02036364 L43.0952727,7.99418182 L42.912,7.968 L42.912,25.9810909 L43.0690909,26.0072727 L43.3570909,26.0334545 C43.488,26.0596364 46.1847273,26.4785455 46.3418182,26.5309091 L46.944,26.6618182 L46.944,8.62254545 L46.5774545,8.51781818 C46.3418182,8.46545455 43.6712727,8.02036364 43.4356364,8.02036364 Z" id="Shape" fill="#FFFFFF" fill-rule="nonzero"></path>
            <path d="M36.3403636,15.1418182 L36.3141818,15.1418182 L36.0261818,15.1679847 L35.8690909,15.1679847 L35.8690909,17.6814545 L36.0261818,17.6814545 C36.0261818,17.6814545 36.3927273,17.7076364 36.6545455,17.7338182 L36.6545455,22.5250909 C36.2618182,22.4727273 35.7643636,22.4465455 35.7643636,22.4465455 C35.440275,22.4536247 35.1346992,22.2959082 34.9527273,22.0276364 C34.8688445,21.8656912 34.8240135,21.686367 34.8218182,21.504 L34.8218182,10.6123636 C34.8123896,10.4532935 34.8586793,10.2959086 34.9527273,10.1672727 C35.1185114,10.0237845 35.3372973,9.95719748 35.5549091,9.984 L35.7643636,9.984 C35.8429091,9.984 36.288,10.0101818 37.0734545,10.0887273 C37.1781818,10.56 37.4661818,11.8690909 37.4661818,11.8690909 L37.4923636,11.9738182 L40.7127273,12.3927273 L40.7127273,7.75854545 L40.4247273,7.62763636 C40.2938182,7.57527273 40.1629091,7.52290909 36.9425455,7.28727273 C35.0312727,7.13018182 34.2196364,7.07781818 33.8530909,7.07781818 L33.1985455,7.07781818 C32.6749091,7.07781818 31.9418182,7.15636364 31.4181818,7.65381818 C30.9730909,8.07272727 30.7636364,8.67490909 30.7636364,9.46036364 L30.7636364,22.1323636 C30.7636364,23.9650909 31.8109091,25.0647273 33.6698182,25.1170909 L33.7745455,25.1170909 C34.2458182,25.1170909 39.4036364,25.4836364 40.1105455,25.6145455 L40.6865455,25.7192727 L40.7127273,15.5869091 L40.32,15.5083636 C40.0581818,15.456 36.7069091,15.1418182 36.3403636,15.1418182 Z" id="Shape" fill="#FFFFFF" fill-rule="nonzero"></path>
            <path d="M58.2283636,24.8814545 L56.5527273,24.384 L56.0552727,26.5570909 C54.9818182,26.2167142 53.8821818,25.9287273 53.8821818,25.9287273 C53.3881534,25.8112256 52.9685089,25.4869548 52.7301818,25.0385455 C52.5986035,24.7972255 52.5267792,24.5278845 52.5207273,24.2530909 L52.5207273,13.44 C52.5180351,13.1968274 52.5912529,12.9588696 52.7301818,12.7592727 C52.8872727,12.5498182 53.2276364,12.3141818 53.8821818,12.5236364 C54.4042375,12.6459695 54.9197998,12.7945214 55.4269091,12.9687273 L55.9243636,16.1367273 L58.2021818,16.8436364 L58.2021818,11.9738182 C58.2021818,11.9738182 52.1803636,10.2458182 51.9185455,10.1672727 C50.3214545,9.77454545 49.5098182,10.4290909 49.5098182,12.0785455 L49.5098182,24.2269091 C49.5098182,25.8763636 50.3214545,26.8450909 51.9185455,27.2378182 C51.9185455,27.2116364 53.9345455,27.7614545 55.6625455,28.2589091 L58.2283636,29.0181818 L58.2283636,24.8814545 Z M8.928,11.8952727 L8.928,10.0887273 C8.928,10.0887273 5.41963636,10.6385455 3.11563636,11.3978182 C2.51345455,11.5810909 1.64945455,12.2618182 1.64945455,13.152 L1.64945455,29.0705455 C1.83272727,28.992 4.21527273,28.2589091 4.39854545,28.2065455 L4.39854545,14.5134545 C4.39854545,13.5447273 5.184,13.0734545 5.86472727,12.864 C6.23127273,12.7592727 7.33090909,12.6021818 7.33090909,12.6021818 L7.33090909,24.384 L10.368,23.6509091 L10.368,13.0996364 C10.4727273,12.2618182 10.9178182,11.712 11.7294545,11.5287273 C12.5149091,11.3978182 13.0909091,11.3192727 13.0909091,11.3192727 L13.0909091,26.112 C13.248,26.0596364 15.9709091,25.6145455 16.1541818,25.5883636 L16.1541818,8.49163636 C16.1541818,8.49163636 12.384,9.19854545 11.2058182,9.43418182 C10.0208593,9.72208605 9.12352689,10.6916176 8.928,11.8952727 Z M43.3832727,25.5621818 C43.5927273,25.5621818 46.2370909,26.0072727 46.4203636,26.0596364 L46.4203636,9.01527273 C46.2370909,8.96290909 43.5665455,8.51781818 43.3832727,8.51781818 L43.3832727,25.5621818 Z M19.1912727,10.5861818 L19.1912727,25.1694545 C19.4007273,25.1432727 22.0712727,24.8814545 22.2807273,24.8814545 L22.2807273,17.8123636 C23.1970909,17.7338182 24.1134545,17.6814545 25.0298182,17.6290909 L25.0298182,24.6981818 C25.2392727,24.672 27.9621818,24.5672727 28.1454545,24.5672727 L28.1454545,7.49672727 C25.9723636,7.54909091 23.7992727,7.68 21.6261818,7.86327273 C20.0290909,8.02036364 19.1912727,8.96290909 19.1912727,10.5861818 Z M22.2807273,10.7694545 C22.3069091,10.4290909 22.4901818,9.64363636 23.6421818,9.56509091 C24.1134545,9.51271636 24.5585455,9.48654545 25.0298182,9.46036364 L25.0298182,15.8487273 C24.1134545,15.9010909 23.1709091,15.9796364 22.2545455,16.032 L22.2545455,10.7694545 L22.2807273,10.7694545 Z M36.3403636,17.2363636 C36.5236364,17.2363636 37.152,17.2887273 37.152,17.2887273 L37.152,23.0225455 C36.6807273,22.9963505 36.2094545,22.944 35.7381818,22.9178182 C35.0574545,22.8654545 34.7170909,22.5512727 34.56,22.2632727 C34.4312998,22.0314401 34.3679559,21.7690154 34.3767273,21.504 L34.3767273,13.5185455 C34.3767273,12 34.3505455,10.8741818 34.3505455,10.7694545 L34.3505455,10.6123636 C34.3487219,10.3368282 34.4410971,10.0689401 34.6123636,9.85309091 C34.848,9.59127273 35.2407273,9.46036364 35.7643636,9.51272727 C35.7643636,9.48654545 36.5498182,9.56510182 37.4923636,9.64363636 L37.9112727,11.5549091 L40.2414545,11.8690909 L40.2414545,8.09890909 C40.0581818,8.02036364 33.7483636,7.52290909 33.7483636,7.60145455 L33.6436364,7.60145455 C33.12,7.57527273 32.3083636,7.54908 31.7847273,8.02036364 C31.4443636,8.33454545 31.2872727,8.832 31.2872727,9.48654545 L31.2872727,22.1323636 C31.2872727,23.7556364 32.0989091,24.5672727 33.7483636,24.6458182 C33.7483636,24.5934545 39.4298182,24.9861818 40.2414545,25.1432727 C40.2414545,24.96 40.2676364,16.1890909 40.2676364,16.0058182 C40.0581818,15.9796364 36.576,15.6392727 36.3927273,15.6392727 L36.3927273,17.2363636 L36.3403636,17.2363636 Z" id="Shape" fill="#0B77BD" fill-rule="nonzero"></path>
            <path d="M8.928,11.8952727 L8.928,10.0887273 C8.928,10.0887273 5.41963636,10.6385455 3.11563636,11.3978182 C2.51345455,11.5810909 1.64945455,12.2618182 1.64945455,13.152 L1.64945455,29.0705455 C1.83272727,28.992 4.21527273,28.2589091 4.39854545,28.2065455 L4.39854545,14.5134545 C4.39854545,13.5709091 5.184,13.0734545 5.86472727,12.864 C6.23127273,12.7592727 7.33090909,12.6021818 7.33090909,12.6021818 L7.33090909,24.384 L10.368,23.6509091 L10.368,13.0996364 C10.411628,12.3272634 10.9711238,11.6816912 11.7294545,11.5287273 C12.5149091,11.3978182 13.0909091,11.3192727 13.0909091,11.3192727 L13.0909091,26.112 C13.248,26.0596364 15.9709091,25.6145455 16.1541818,25.5883636 L16.1541818,8.49163636 C16.1541818,8.49163636 12.384,9.19854545 11.2058182,9.43418182 C10.0208593,9.72208605 9.12352689,10.6916176 8.928,11.8952727 Z M43.3832727,25.5621818 C43.5927273,25.5621818 46.2370909,26.0072727 46.4203636,26.0596364 L46.4203636,8.98909091 C46.2370909,8.93672727 43.5665455,8.51781818 43.3832727,8.49163636 L43.3832727,25.5621818 Z M36.3403636,17.2363636 C36.5236364,17.2363636 37.152,17.2887273 37.152,17.2887273 L37.152,23.0225455 C36.6807273,22.9963505 36.2094545,22.944 35.7381818,22.9178182 C35.0574545,22.8654545 34.7170909,22.5512727 34.56,22.2632727 C34.4267238,22.0321227 34.3546317,21.7707887 34.3505455,21.504 L34.3505455,13.5185455 C34.3505455,12 34.3243636,10.8741818 34.3243636,10.7694545 L34.3243636,10.6123636 C34.3225394,10.3368281 34.4149147,10.0689398 34.5861818,9.85309091 C34.8218182,9.59127273 35.2145455,9.46036364 35.7381818,9.51272727 C35.7381818,9.48654545 36.5236364,9.56510182 37.4661818,9.64363636 L37.8850909,11.5549091 L40.2152727,11.8690909 L40.2152727,8.09890909 C40.0058182,8.02036364 33.7221818,7.52290909 33.7221818,7.60145455 L33.5912727,7.60145455 C33.12,7.57527273 32.2821818,7.54908 31.7585455,8.02036364 C31.4181818,8.33454545 31.2610909,8.832 31.2610909,9.48654545 L31.2610909,22.1323636 C31.2610909,23.7294545 32.0727273,24.5672727 33.7221818,24.6458182 C33.7221818,24.5934545 39.4036364,24.9861818 40.2152727,25.1432727 L40.2152727,16.0058182 C40.032,15.9796364 36.5498182,15.6392727 36.3403636,15.6392727 L36.3403636,17.2363636 Z" id="Shape" fill="#0B77BD" fill-rule="nonzero"></path>
            <path d="M19.5316364,5.06181818 C19.5297538,5.09557081 19.5097049,5.12564407 19.4792727,5.14036364 C19.4530909,5.19272727 19.3745455,5.21890909 19.2698182,5.24509091 C19.1356221,5.25069924 19.0031213,5.27719941 18.8770909,5.32363636 L18.8247273,5.32363636 C18.7723636,5.32363636 18.7723636,5.29744145 18.7723636,5.29744145 C18.7725121,5.29045314 18.7698014,5.28370708 18.7648588,5.27876448 C18.7599162,5.27382189 18.7531701,5.27111116 18.7461818,5.27125964 L18.7461818,2.28654545 C18.7461818,2.28654545 18.7461818,2.26036364 18.7985455,2.208 C18.8549951,2.15107342 18.928589,2.11427647 19.008,2.10327273 C19.1127273,2.10327273 19.2436364,2.05090909 19.3483636,2.05090909 C19.3745455,2.05090909 19.4007273,2.02471418 19.4269091,2.02471418 C19.45544,2.02335541 19.4834505,2.0326969 19.5054545,2.05090909 C19.512443,2.05075999 19.5191895,2.05347052 19.5241322,2.05841325 C19.5290749,2.06335599 19.5317855,2.07010242 19.5316364,2.07709091 L19.5316364,5.06181818 Z M20.5789091,1.39636364 C20.5040478,1.28972484 20.3919559,1.21499687 20.2647273,1.18690909 C20.1750122,1.14440158 20.0756632,1.12633814 19.9767273,1.13454545 C19.8444191,1.13909539 19.7128781,1.15663419 19.584,1.18690909 C19.2698182,1.23927273 18.9294545,1.31781818 18.6152727,1.344 C18.3925938,1.38133113 18.1792274,1.46134352 17.9869091,1.57963636 C17.8722566,1.65497098 17.7742437,1.75298387 17.6989091,1.86763636 C17.6159521,2.0205336 17.571049,2.19116525 17.568,2.36509091 L17.568,5.53309091 C17.5585705,5.69216117 17.6048603,5.84954636 17.6989091,5.97818182 C17.7737726,6.0848183 17.8858636,6.15954561 18.0130909,6.18763636 L18.2487273,6.18763636 C18.4058182,6.18763636 18.5367273,6.16145455 18.6676364,6.16145455 C19.008,6.08290909 19.3221818,6.03054545 19.6625455,5.97818182 C19.8780958,5.92819105 20.0884743,5.8580649 20.2909091,5.76872727 C20.3996106,5.68632966 20.4965115,5.58942876 20.5789091,5.48072727 C20.670199,5.34093943 20.7159324,5.1762991 20.7098182,5.00945455 L20.7098182,1.84145455 C20.727056,1.68159024 20.6799528,1.52143925 20.5789091,1.39636364 L20.5789091,1.39636364 Z" id="Shape" fill="#000000" fill-rule="nonzero"></path>
            <path d="M35.5025455,0.768 C35.4333789,0.655130122 35.333477,0.564310252 35.2145455,0.506181818 C35.0081669,0.413171794 34.7861119,0.359878586 34.56,0.349090909 C33.9054545,0.296727273 33.2509091,0.270545455 32.6225455,0.270545455 L32.4130909,0.270545455 L32.4130909,5.06181818 L32.5963636,5.06181818 C32.8843636,5.088 33.1723636,5.088 33.4603636,5.11418182 L33.6436364,5.11418182 L33.6436364,1.08218182 C33.7745455,1.08218182 33.9054545,1.10836364 34.0363636,1.10836364 C34.5076364,1.16072727 34.4290909,1.31781818 34.4552727,1.344 L34.4552727,5.14036364 L34.6123636,5.14036364 C34.9003636,5.16654545 35.1621818,5.19272727 35.4501818,5.21890909 L35.6334545,5.24509091 L35.6334545,1.21309091 C35.6556489,1.05282046 35.6079763,0.890733642 35.5025455,0.768 L35.5025455,0.768 Z" id="Shape" fill="#000000" fill-rule="nonzero"></path>
            <path d="M38.2778182,4.66909091 C38.2173352,4.68164372 38.1561239,4.69038818 38.0945455,4.69527273 C38.0491902,4.70211569 38.0028709,4.69285182 37.9636364,4.66909091 C37.8139236,4.66613303 37.6648554,4.64859195 37.5185455,4.61671636 L37.5185455,1.44872727 C37.6494545,1.44872727 37.7803636,1.47490909 37.9112727,1.47490909 C38.0216662,1.48969747 38.1282668,1.525231 38.2254545,1.57963636 C38.304,1.632 38.3301818,1.65818182 38.3301818,1.78909091 L38.3301818,4.53818182 C38.304,4.64290909 38.304,4.64290909 38.2778182,4.66909091 Z M39.4036364,1.21309091 C39.3189708,1.09727136 39.2121854,0.99938469 39.0894545,0.925090909 C38.8963138,0.817843711 38.6816033,0.755219829 38.4610909,0.741818182 C38.1992727,0.689443636 36.864,0.532363636 36.5236364,0.506181818 L36.3141818,0.48 L36.3141818,5.32363636 L36.4712727,5.32363636 C37.1258182,5.40218182 37.7803636,5.48072727 38.4087273,5.55927273 C38.5032817,5.57983398 38.6000152,5.58862793 38.6967273,5.58545455 C38.8121529,5.58500175 38.9268668,5.56735345 39.0370909,5.53309091 C39.1673648,5.49525935 39.2849751,5.42288379 39.3774545,5.32363636 C39.4794946,5.18771425 39.5346243,5.02232538 39.5345455,4.85236364 L39.5345455,1.68436364 C39.5314465,1.51873264 39.4864072,1.35659083 39.4036364,1.21309091 L39.4036364,1.21309091 Z" id="Shape" fill="#000000" fill-rule="nonzero"></path>
            <path d="M23.328,2.54836364 C23.3282369,2.60505149 23.3098386,2.66024643 23.2756364,2.70545455 C23.1677594,2.76240044 23.053506,2.80634404 22.9352727,2.83636364 C22.8114338,2.83906414 22.6883688,2.85664486 22.5687273,2.88872727 L22.5687273,1.52727273 C22.7096774,1.52274473 22.8499086,1.50521582 22.9876364,1.47490909 L23.1709091,1.47490909 C23.2756364,1.47490909 23.328,1.47490909 23.328,1.50109091 C23.3541818,1.52727273 23.328,1.50109091 23.3541818,1.55345455 L23.3541818,2.36509091 C23.3358587,2.42442211 23.3270226,2.48627522 23.328,2.54836364 L23.328,2.54836364 Z M24.5585455,5.14036364 L24.5585455,3.54327273 C24.5629648,3.36397538 24.4736772,3.19532111 24.3229091,3.09818182 C24.2967273,3.09818182 24.2967273,3.072 24.2443636,3.072 C24.4179839,2.96523635 24.526226,2.7782727 24.5323636,2.57454545 L24.5323636,1.344 C24.5324467,1.17403756 24.4773166,1.00864738 24.3752727,0.872727273 C24.2928834,0.774129996 24.183792,0.701402408 24.0610909,0.663272727 C23.9328878,0.629457828 23.8009478,0.611865826 23.6683636,0.610909091 C23.5803116,0.607854046 23.4922489,0.61666032 23.4065455,0.637090909 C22.7781818,0.715636364 22.1236364,0.794181818 21.4952727,0.872727273 L21.3381818,0.898909091 L21.3381818,5.71636364 L21.5476364,5.69018182 C21.8249085,5.64079679 22.1045576,5.60584064 22.3854545,5.58545455 L22.5425455,5.55927273 L22.5425455,3.67418182 C22.6833669,3.66807056 22.8234617,3.65055871 22.9614545,3.62181818 L23.1185455,3.62181818 C23.1841523,3.61443007 23.2500219,3.63325389 23.3018182,3.67419273 C23.328,3.67419273 23.328,3.70037455 23.328,3.77892 L23.328,5.45454545 L23.5636364,5.42836364 C23.8254545,5.40218182 24.1134545,5.376 24.3752727,5.34981818 L24.5585455,5.32363636 L24.5585455,5.14036364 Z" id="Shape" fill="#000000" fill-rule="nonzero"></path>
            <path d="M27.9098182,4.06690909 L27.9098182,3.43854545 L27.7265455,3.43854545 L26.9934545,3.49090909 L26.7054545,4.35490909 L26.3912727,4.35490909 L26.3912727,0.349090909 L26.1818182,0.349090909 C25.92,0.375272727 25.6058182,0.401465455 25.344,0.427636364 L25.1607273,0.427636364 L25.1607273,5.27127273 L25.3701818,5.24509091 C26.1556364,5.19272727 26.9672727,5.14036364 27.7527273,5.11418182 L27.9098182,5.11418182 L27.9098182,4.06690909 L27.9098182,4.06690909 Z" id="Shape" fill="#000000" fill-rule="nonzero"></path>
            <path d="M30.528,2.44363636 L29.7163636,2.44363636 L29.7163636,1.18690909 C29.7163636,1.16072727 29.7163636,1.13454545 29.7687273,1.08218182 C29.8821908,1.02511102 30.0083867,0.998069047 30.1352727,1.00363636 L30.528,1.00363636 L30.528,2.44363636 Z M31.5752727,0.218181818 L29.6116364,0.218181818 C29.3885945,0.208067549 29.1658423,0.243707888 28.9570909,0.322909091 C28.837671,0.37967262 28.7308397,0.45979611 28.6429091,0.558545455 C28.5368223,0.70235142 28.4815602,0.87734831 28.4858182,1.056 L28.4858182,5.06181818 L28.6952727,5.06181818 C28.9570909,5.06181818 29.2450909,5.03563636 29.5330909,5.03563636 L29.7163636,5.03563636 L29.7163636,3.22909091 L30.528,3.22909091 L30.528,5.00945455 L30.7112727,5.00945455 C30.9730909,5.00945455 31.2872727,5.00945455 31.5490909,5.03563636 L31.7585455,5.03563636 L31.7585455,0.218181818 L31.5752727,0.218181818 Z" id="Shape" fill="#000000" fill-rule="nonzero"></path>
            <path d="M42.048,5.27127273 L42.048,5.27127273 L42.048,5.29745455 C42.0259963,5.3156673 41.9979856,5.32500887 41.9694545,5.32364945 C41.9406618,5.32721313 41.9117991,5.31758741 41.8909091,5.29745455 C41.7623544,5.2654509 41.6306308,5.24788775 41.4981818,5.24509091 C41.3934545,5.21890909 41.3149091,5.16654545 41.3149091,5.11418182 C41.2999653,5.10059688 41.2906289,5.08192419 41.2887273,5.06181818 L41.2887273,2.05090909 L41.472,2.05090909 C41.5767273,2.07709091 41.7076364,2.10327273 41.8123636,2.12945455 C41.8883509,2.13463477 41.9611613,2.16193865 42.0218182,2.208 C42.0521575,2.23364714 42.0627007,2.27582012 42.048,2.31272727 L42.048,5.27127273 Z M43.1214545,1.89381818 C43.0535583,1.77331759 42.9539551,1.67371445 42.8334545,1.60581818 C42.64266,1.47918449 42.4293548,1.39030732 42.2050909,1.344 C41.8909091,1.29163636 41.5505455,1.21309091 41.2363636,1.16072727 C41.1153497,1.13988814 40.9925654,1.13111784 40.8698182,1.13454545 C40.7730521,1.12900829 40.6759994,1.13783126 40.5818182,1.16072727 C40.4536773,1.1893793 40.3359113,1.25279178 40.2414545,1.344 C40.1389694,1.48961359 40.0840922,1.66339149 40.0843636,1.84145455 L40.0843636,5.00945455 C40.0782488,5.17629916 40.1239823,5.34093967 40.2152727,5.48072727 C40.2906086,5.59537875 40.3886212,5.69339141 40.5032727,5.76872727 C40.7025863,5.86592016 40.9138698,5.93634799 41.1316364,5.97818182 C41.472,6.03054545 41.7861818,6.08290909 42.1003636,6.16145455 C42.2383575,6.19018887 42.3784518,6.20770065 42.5192727,6.21381818 C42.5987228,6.21808221 42.6783328,6.20923665 42.7549091,6.18763636 C42.886874,6.16996321 43.0078768,6.10480787 43.0952727,6.00436364 C43.1929753,5.86755694 43.2393275,5.70068878 43.2261818,5.53309091 L43.2261818,2.36509091 C43.2292163,2.20191002 43.1933153,2.0403557 43.1214545,1.89381818 L43.1214545,1.89381818 Z" id="Shape" fill="#000000" fill-rule="nonzero"></path>
            <polygon id="Shape" fill="#FFFFFF" fill-rule="nonzero" points="23.1185455 28.1018182 23.7207273 27.8138182 24.2443636 28.2589091 24.1396364 27.6043636 24.7156364 27.264 24.0610909 27.1330909 23.904 26.4785455 23.5898182 27.0807273 22.9352727 27.0021818 23.4065455 27.4996364"></polygon>
            <path d="M43.4618182,24.3578182 C44.064,24.096 45.1636364,23.6247273 45.1636364,23.6247273 L45.2421818,23.5985455 L45.1636364,23.5723636 C45.1636364,23.5723636 43.3832727,22.9701818 43.0167273,22.8654545 C42.9381818,22.4465455 42.6763636,20.5090909 42.6763636,20.5090909 L42.6501818,20.4305455 L41.9956364,21.4778182 C41.9956364,21.4778182 41.6290909,22.08 41.4196364,22.3941818 C41.0007273,22.2632727 39.168,21.8181818 39.168,21.8181818 L39.0632727,21.7658182 L39.1418182,21.8705455 C39.1418182,21.8705455 39.8749091,22.8130909 40.32,23.4152727 C38.2117068,22.9687815 36.0603143,22.7580329 33.9054545,22.7869091 C33.0938182,22.7869091 32.256,22.8130909 31.3658182,22.8654545 C28.0345532,23.0586779 24.7470498,23.719704 21.6,24.8290909 L21.9665455,23.7294545 L21.888,23.7556364 C16.9658182,25.3003636 11.5723636,29.9345455 9.18981818,34.4901818 L9.24218182,34.5163636 C12.5934545,31.3745455 17.1752727,28.8349091 21.2596364,27.9185455 L20.1861818,30.4058182 L20.2647273,30.3796364 C22.1498182,29.4632727 24.6632727,29.0705455 27.1767273,29.0705455 C29.7687273,29.0705455 32.3607273,29.4894545 34.3767273,30.2225455 L33.6174545,31.8981818 C31.7847273,31.0603636 29.1403636,30.5105455 26.9149091,30.5105455 C26.5221818,30.5105455 26.1556364,30.5105455 25.7890909,30.5367273 L25.7890909,30.6152727 C28.4072727,31.3483636 31.0778182,32.1861818 33.2247273,33.888 C33.2029502,34.0704181 33.1942007,34.2541562 33.1985455,34.4378182 C33.1985455,38.9149091 37.0734545,42.9992727 41.6552727,42.9992727 L41.76,42.9992727 C46.7607273,42.9469091 50.5047273,38.3389091 50.5047273,33.5214545 C50.4785455,30.0130909 48.4625455,26.3738182 43.4618182,24.3578182 Z" id="Shape" fill="#000000" fill-rule="nonzero"></path>
            <path d="M40.7127273,32.6050909 C38.88,32.6050909 36.9949091,31.9243636 35.136,31.2436364 C34.6523702,32.2575326 34.40188,33.3668465 34.4029091,34.4901818 C34.3949514,35.0902227 34.4653646,35.6887348 34.6123636,36.2705455 L35.0836364,36.2705455 C38.7701548,36.2610229 42.3898913,35.2861313 45.5825455,33.4429091 C45.2033188,32.7889769 44.7835915,32.159386 44.3258182,31.5578182 C43.2486921,32.2503304 41.9932312,32.6142321 40.7127273,32.6050909 Z" id="Shape" fill="#C2CCD2" fill-rule="nonzero"></path>
            <path d="M34.9527273,36.9512727 L34.8218182,36.9512727 C35.9476364,39.8836364 38.5396364,41.7949091 41.6814545,41.8472727 C42.7025455,39.36 43.8021818,36.6632727 46.368,35.3803636 C46.2370909,34.9614545 46.08,34.5163636 45.8967273,34.0712727 C42.5673638,35.9816053 38.7911452,36.975347 34.9527273,36.9512727 Z" id="Shape" fill="#C2CCD2" fill-rule="nonzero"></path>
            <path d="M42.7287273,27.84 C42.1237696,27.578412 41.4914861,27.3852142 40.8436364,27.264 C40.5294545,27.3163636 40.0843636,27.3425455 39.744,27.3949091 C41.6552727,28.1541818 43.0690909,29.0705455 44.4567273,30.6676364 C45.1850338,30.1203316 45.7988201,29.4353817 46.2632727,28.6516364 C44.9803636,27.3949091 42.5454545,25.8501818 36.4450909,25.3789091 C39.0109091,25.9810909 41.3672727,26.8189091 42.7549091,27.7876364 L42.7287273,27.84 Z" id="Shape" fill="#C2CCD2" fill-rule="nonzero"></path>
            <path d="M25.6843636,26.976 L26.8887273,26.976 C31.2087273,26.976 37.8589091,27.4734545 40.4509091,30.5367273 L40.3985455,30.5890909 C39.5083636,30.1178182 37.728,29.28 36.6021818,29.28 L36.5236364,29.28 C36.1316972,29.6991868 35.780991,30.1551048 35.4763636,30.6414545 C37.2043636,31.296 38.9585455,31.9243636 40.6865455,31.9243636 C41.831271,31.9417015 42.9572982,31.6329521 43.9330909,31.0341818 C40.9221818,27.7614545 35.8690909,26.3214545 31.0778182,26.3214545 C29.2608922,26.3327806 27.451256,26.5523966 25.6843636,26.976 L25.6843636,26.976 Z" id="Shape" fill="#C2CCD2" fill-rule="nonzero"></path>
            <path d="M46.1061818,33.1025455 C46.9356592,32.5649128 47.6849018,31.9126309 48.3316364,31.1650909 C47.9078882,30.3762469 47.3496923,29.6674267 46.6821818,29.0705455 C46.2110367,29.8871032 45.5891101,30.606761 44.8494545,31.1912727 C45.3310403,31.7848691 45.752045,32.425147 46.1061818,33.1025455 L46.1061818,33.1025455 Z" id="Shape" fill="#C2CCD2" fill-rule="nonzero"></path>
            <path d="M42.4145455,41.8210909 C43.9149544,41.6726527 45.3370082,41.0801303 46.4989091,40.1192727 C46.6776158,39.4444982 46.7656625,38.7489294 46.7607273,38.0509091 C46.7646794,37.3919154 46.7032883,36.7341531 46.5774545,36.0872727 C44.2734545,37.1869091 43.3309091,39.5956364 42.4145455,41.8210909 Z" id="Shape" fill="#C2CCD2" fill-rule="nonzero"></path>
            <path d="M47.4152727,38.496 L47.4152727,39.1767273 C48.2745039,38.0723199 48.8336802,36.7645688 49.0385455,35.3803636 C48.3896965,35.4455404 47.7492501,35.577139 47.1272727,35.7730909 C47.3265327,36.6668178 47.4231577,37.5803636 47.4152727,38.496 Z" id="Shape" fill="#C2CCD2" fill-rule="nonzero"></path>
            <path d="M46.4465455,33.7309091 C46.6298182,34.1759825 46.8130909,34.6472727 46.9963636,35.1185455 C47.6866073,34.9097493 48.3978515,34.7780374 49.1170909,34.7258182 L49.1170909,34.5687273 C49.1309505,33.6567002 48.971011,32.7503761 48.6458182,31.8981818 C47.9802844,32.5858817 47.2429859,33.2002972 46.4465455,33.7309091 Z" id="Shape" fill="#C2CCD2" fill-rule="nonzero"></path>
            <path d="M49.1170909,34.7258182 C48.3892703,34.7780129 47.6693479,34.909706 46.9701818,35.1185455 C46.8141827,34.6456533 46.6305951,34.182313 46.4203636,33.7309091 C47.2240252,33.1992265 47.9698977,32.5849786 48.6458182,31.8981818 C48.9438109,32.7576676 49.1028977,33.6591592 49.1170909,34.5687273 L49.1170909,34.7258182 Z" id="Shape" fill="#C2CCD2" fill-rule="nonzero"></path>
            <path d="M46.6821818,29.0443636 C47.3438071,29.6567431 47.9009609,30.3730837 48.3316364,31.1650909 C47.6772477,31.8974309 46.9289522,32.5400847 46.1061818,33.0763636 C45.7359319,32.4228198 45.3249386,31.793213 44.8756364,31.1912727 C45.6071706,30.5953057 46.2200172,29.8669953 46.6821818,29.0443636 L46.6821818,29.0443636 Z" id="Shape" fill="#C2CCD2" fill-rule="nonzero"></path>
            <path d="M36.4712727,25.3527273 C42.5454545,25.824 44.9803636,27.3949091 46.2894545,28.6254545 C45.8241669,29.4085871 45.2105153,30.0933867 44.4829091,30.6414545 C43.2010809,29.1902187 41.5829123,28.0754803 39.7701818,27.3949091 C40.1241269,27.3188345 40.4827346,27.2663553 40.8436364,27.2378182 C41.4929284,27.3867212 42.1314623,27.5791561 42.7549091,27.8138182 L42.7810909,27.7614545 C41.3934545,26.7927273 39.0370909,25.9549091 36.4712727,25.3527273 Z" id="Shape" fill="#C2CCD2" fill-rule="nonzero"></path>
            <path d="M35.0836364,36.2705455 L34.6123636,36.2705455 C34.4653267,35.6798441 34.3949302,35.0726742 34.4029091,34.464 C34.4019795,33.3490741 34.6525623,32.2482998 35.136,31.2436364 C36.9949091,31.9243636 38.8538182,32.6050909 40.7127273,32.6050909 C41.9914506,32.601593 43.2434375,32.2386982 44.3258182,31.5578182 C44.8067832,32.1331574 45.2278673,32.756011 45.5825455,33.4167273 C42.391946,35.2679723 38.7723602,36.2518497 35.0836364,36.2705455 Z" id="Shape" fill="#C2CCD2" fill-rule="nonzero"></path>
            <path d="M41.6814545,41.8472727 C38.5396364,41.7949091 35.9476364,39.8836364 34.8218182,36.9512727 L34.9527273,36.9512727 C38.7907243,36.9720171 42.5660911,35.9784995 45.8967273,34.0712727 C46.0810125,34.4973624 46.2384119,34.934583 46.368,35.3803636 C43.8021818,36.6632727 42.6763636,39.36 41.6814545,41.8472727 Z" id="Shape" fill="#C2CCD2" fill-rule="nonzero"></path>
            <path d="M47.4152727,39.1767273 L47.4152727,38.496 C47.4231577,37.5803636 47.3265327,36.6668178 47.1272727,35.7730909 C47.7485847,35.5745857 48.3893012,35.4429317 49.0385455,35.3803636 C48.8437764,36.7674026 48.2835277,38.0776616 47.4152727,39.1767273 Z" id="Shape" fill="#C2CCD2" fill-rule="nonzero"></path>
            <path d="M43.9330909,31.0341818 C42.9667582,31.6325515 41.8491922,31.9414722 40.7127273,31.9243636 C38.9585455,31.9243636 37.2043636,31.296 35.5025455,30.6414545 C35.7981195,30.1557098 36.1400822,29.6997596 36.5236364,29.28 L36.6283636,29.28 C37.728,29.28 39.5345455,30.0916364 40.4247273,30.5890909 L40.4770909,30.5367273 C37.8850909,27.4734545 31.2349091,26.976 26.9149091,26.976 L25.6843636,26.976 C27.4589229,26.5485526 29.2787136,26.3375624 31.104,26.3476364 C35.8690909,26.3476364 40.9483636,27.7614545 43.9330909,31.0341818 Z" id="Shape" fill="#C2CCD2" fill-rule="nonzero"></path>
            <path d="M46.4989091,40.1192727 C45.3370075,41.0801292 43.9149541,41.6726514 42.4145455,41.8210909 C43.3309091,39.5956364 44.2734545,37.1869091 46.5512727,36.0872727 C46.6856409,36.7333148 46.7558004,37.39106 46.7607273,38.0509091 C46.7656634,38.7489294 46.6776167,39.4444984 46.4989091,40.1192727 L46.4989091,40.1192727 Z" id="Shape" fill="#C2CCD2" fill-rule="nonzero"></path>
            <polygon id="Shape" fill="#C2CCD2" fill-rule="nonzero" points="40.4770909 25.0123636 41.8123636 24.5672727 42.8072727 25.6930909 42.7025455 24.2007273 43.9854545 23.6509091 42.5716364 23.1796364 42.3621818 21.7134545 41.6290909 22.9178182 40.2152727 22.5512727 41.1578182 23.7556364"></polygon>
            <polygon id="Shape" fill="#FFFFFF" fill-rule="nonzero" points="33.4603636 26.0858182 34.3767273 25.6145455 35.136 26.3214545 34.9789091 25.3003636 35.8690909 24.7767273 34.848 24.6196364 34.6385455 23.5985455 34.1672727 24.5149091 33.1461818 24.4101818 33.8530909 25.1432727"></polygon>
            <polygon id="Shape" fill="#FFFFFF" fill-rule="nonzero" points="23.1185455 28.1018182 23.7207273 27.8138182 24.2181818 28.2589091 24.1396364 27.6043636 24.7156364 27.264 24.0349091 27.1330909 23.904 26.4785455 23.5898182 27.0807273 22.9352727 27.0021818 23.3803636 27.4996364"></polygon>
            <path d="M45.9752727,37.2392727 L45.9752727,37.1345455 L45.1374545,38.5483636 L45.3730909,37.2916364 L45.3207273,37.2654545 C44.064,38.784 43.5927273,39.8574545 43.2,41.1927273 L43.2,41.2712727 L43.2523636,41.2450909 C44.1301085,40.9568093 44.9531959,40.5231396 45.6872727,39.9621818 C45.8967273,39.5170909 45.9752727,38.6007273 45.9752727,37.4749091 L45.9752727,37.2392727 Z" id="Shape" fill="#0B77BD" fill-rule="nonzero"></path>
            <path d="M43.1476364,33.9403636 C41.6893715,34.2232474 40.2082996,34.3722309 38.7229091,34.3854545 C38.5131088,34.3903591 38.3032116,34.3816185 38.0945455,34.359288 L41.2101818,33.4167273 L41.2101818,33.3643636 C39.1418182,33.2596364 37.5447273,33.2334545 35.5287273,32.2909091 L35.5025455,32.2647273 L35.4763636,32.2909091 C35.161423,32.9346377 35.0001039,33.6426492 35.0050909,34.3592727 C34.9998384,34.7937855 35.0616565,35.2265075 35.1883636,35.6421687 L35.424,35.6421687 C36.3141818,35.6421687 40.032,35.5636233 43.1476364,33.9927142 L43.1476364,33.9403636 Z" id="Shape" fill="#0B77BD" fill-rule="nonzero"></path>
            <path d="M43.8283636,36.48 C42.2574545,37.6581818 41.0530909,38.6007273 38.7490909,39.0196364 C40.896,37.92 42.336,37.1345455 43.6974545,35.7469091 L43.6450909,35.6945345 C41.2363636,37.1083527 38.0945455,37.7105455 35.8952727,37.78908 L35.8167273,37.78908 L35.8690909,37.8414436 C37.6756364,40.7214436 39.9796364,40.9832618 40.7389091,40.9832618 L41.0007273,40.9832618 L41.0007273,40.9570909 C41.9956364,39.4123636 42.624,37.92 43.8807273,36.5061818 L43.8283636,36.48 Z" id="Shape" fill="#0B77BD" fill-rule="nonzero"></path>
            <path d="M42.2050909,26.8712727 C42.1026474,26.79776 41.987132,26.7444453 41.8647273,26.7141818 C43.7236364,27.264 44.9803636,27.9709091 45.6872727,28.5207273 C45.5795926,28.6804616 45.4568495,28.8295068 45.3207273,28.9658182 C44.4301676,28.0693715 43.3713756,27.3575786 42.2050909,26.8712727 L42.2050909,26.8712727 Z M47.9389091,37.3178182 L47.9389091,37.1869091 C48.0514242,36.6971275 48.1128436,36.1969979 48.1221818,35.6945455 C48.2552548,35.6409352 48.3976358,35.6142387 48.5410909,35.616 C48.3956068,36.2013325 48.1939437,36.7712497 47.9389091,37.3178182 L47.9389091,37.3178182 Z M48.7243636,34.0450909 C48.4951838,34.0631775 48.2676547,34.098182 48.0436364,34.1498182 C47.9929311,33.7864516 47.91415,33.4275595 47.808,33.0763636 C48.0673833,32.8952551 48.3046391,32.684361 48.5149091,32.448 C48.6649372,32.9667403 48.7355558,33.5052069 48.7243636,34.0450909 Z M47.9127273,30.9818182 C47.6770909,31.1912727 47.4938182,31.4007273 47.2843636,31.5839891 C47.0742153,31.0940439 46.8108132,30.6287003 46.4989091,30.1963527 C46.656,29.9868982 46.8130909,29.8036255 46.944,29.5941818 C47.3246022,30.013652 47.6501388,30.4799612 47.9127273,30.9818182 Z" id="Shape" fill="#FFFFFF"></path>
        </g>
    </g>
</svg>
