<?xml version="1.0" encoding="UTF-8"?>
<svg width="60px" height="60px" viewBox="0 0 60 60" version="1.1" xmlns="http://www.w3.org/2000/svg" xmlns:xlink="http://www.w3.org/1999/xlink">
    <title>MIN</title>
    <g id="Page-1" stroke="none" stroke-width="1" fill="none" fill-rule="evenodd">
        <g id="MIN" fill-rule="nonzero">
            <g id="Group" transform="translate(29.992222, 29.876667) scale(-1, 1) rotate(-180.000000) translate(-29.992222, -29.876667) translate(0.131111, 0.015556)">
                <g>
                    <ellipse id="Oval" fill="#9EA2A2" transform="translate(29.791667, 29.797222) scale(-1, 1) rotate(-180.000000) translate(-29.791667, -29.797222) " cx="29.7916667" cy="29.7972222" rx="29.7055556" ry="29.7138889"></ellipse>
                    <ellipse id="Oval" fill="#0C2340" transform="translate(29.941667, 29.838889) scale(-1, 1) rotate(-180.000000) translate(-29.941667, -29.838889) " cx="29.9416667" cy="29.8388889" rx="28.6583333" ry="28.6638889"></ellipse>
                    <path d="M30.0138889,48.7916667 C28.5594167,48.8001944 27.1241667,48.6400444 25.7330556,48.3255278 C25.6050194,47.9118611 25.4315,47.1053889 25.7222222,46.3719722 C25.8974611,45.9299722 26.2371667,45.5715833 26.7157222,45.2929722 C28.0283889,45.8274167 29.4535,46.3738611 30.8282222,46.8337778 C32.5642222,47.4674722 34.1065556,47.8163889 35.3051667,48.0013056 C35.2729667,48.01025 35.2425,48.0218611 35.2105472,48.0308194 C34.3577972,48.2789333 33.5025472,48.4645972 32.6476028,48.5907083 C31.7662139,48.7203278 30.8866028,48.7865444 30.0139361,48.7916639 L30.0138889,48.7916667 Z M24.4097222,47.97525 C21.6963056,47.1522778 19.1919444,45.7321389 17.0941667,43.8194167 C17.1859167,43.8194167 17.2890056,43.8163889 17.3858333,43.8142222 C19.1838056,43.9207222 21.7427778,43.8472306 23.2052778,43.7881944 C23.8225,44.0655833 24.5736944,44.3957222 25.4071111,44.7491389 C25.0442778,45.0860833 24.7682778,45.4802222 24.5893889,45.9357778 C24.3061944,46.6587778 24.3172444,47.3931389 24.4097028,47.9752778 L24.4097222,47.97525 Z M37.9097222,47.0190833 L37.9088889,46.9969444 C37.8566056,46.9983333 33.865,47.0898417 28.9244444,44.694 C28.8374139,44.6434722 28.7520694,44.5889583 28.6679333,44.5316722 C30.2156278,44.0785611 31.4940444,43.9858667 32.4123778,43.9231722 C32.6285222,43.9081722 32.8206833,43.8950722 32.9874611,43.8793333 L33.1246139,43.8676111 C33.7210306,43.8170222 34.5553083,43.7221556 35.5378083,43.5464444 C36.2683083,44.4415556 37.1508361,44.9991667 37.7448361,45.1310833 C38.4455861,44.8686944 38.8033361,44.4594722 39.0581972,43.8758611 C40.0288361,43.46875 40.6788639,42.7522222 41.1068083,41.8958333 C43.3528361,40.9176944 45.6106972,39.4696944 47.3365306,37.325 C45.5281417,41.5066667 42.2345861,45.0155556 37.9098639,47.0188889 L37.9097222,47.0190833 Z M27.6175,43.60325 C27.2089167,43.1515833 26.8728333,42.6746667 26.6201111,42.2738333 C27.1330278,41.7400833 28.1130556,40.71425 28.5988333,40.1679444 C29.4375556,39.66325 30.2786111,39.1162222 31.1127222,38.5316667 C32.4408611,40.0270833 33.6208056,41.2403056 34.7846667,42.4583333 C34.2194722,42.5389444 33.6338333,42.6061472 33.0233889,42.6584194 L32.8719139,42.6710028 C32.714825,42.686725 32.5326917,42.6984194 32.3293861,42.7126694 C31.2834694,42.7833583 29.6213028,42.9124694 27.6177194,43.6033083 L27.6175,43.60325 Z M17.0525,42.5989167 C16.5641944,42.59975 16.1499722,42.5816111 15.8359167,42.5598528 C14.2615833,40.8274917 12.9923056,38.7784639 12.1306389,36.4765194 C14.0605278,38.4795194 16.9636944,40.609575 20.1884167,39.9790194 C20.4433056,40.4316583 20.7014444,40.8847972 20.93625,41.2962972 C19.9290556,41.9566306 19.3,42.4351306 17.5645833,42.5909917 C17.3862528,42.5960194 17.2151944,42.5985194 17.0524444,42.5987972 L17.0525,42.5989167 Z M41.6227778,40.3996944 C42.1988611,37.8184167 41.5450889,34.8858056 41.5450889,34.8858056 C41.5450889,34.8858056 42.9486444,34.0734167 43.28945,32.52425 C43.2908389,32.5234167 43.4766722,32.4445389 43.6240889,32.2165278 C44.0162,31.7355556 44.5165333,30.6258333 43.7122,28.4440278 C43.7122,28.4440278 43.2348944,29.4624167 42.2247833,28.3659028 C42.1376417,28.2443889 42.0536639,28.1242722 41.970875,28.0056528 C43.8947083,25.3580694 45.3603194,22.5950972 46.1064306,19.897875 C46.9623194,21.3008194 47.6525139,22.8367639 48.1342083,24.4906528 C48.8042083,26.7925694 49.013875,29.1184306 48.8260417,31.3734306 C48.3375694,33.6252639 46.7469583,37.7734306 41.6229861,40.3995417 L41.6227778,40.3996944 Z M23.9855556,39.9582778 C23.4661111,39.7099278 22.8967222,39.4208056 22.3479722,39.10325 C23.8932222,38.0895278 25.0432778,36.3753333 25.91825,34.3618611 C27.1469167,34.7883611 27.9950833,34.7971944 27.9950833,34.7971944 C28.82025,35.84675 29.5821389,36.7673333 30.2971667,37.5991389 C29.4712778,38.1766667 28.6401111,38.7168333 27.8110556,39.2132778 C26.9016667,39.5405556 24.7302222,39.8559167 23.9855,39.9580556 L23.9855556,39.9582778 Z M18.8775,38.8779722 C15.4966667,38.7652694 12.5088889,35.2374167 11.3027778,33.6026944 C10.4596944,29.4999167 11.01925,25.3876944 12.6838611,21.8046389 C13.57825,22.6431111 14.4385833,23.5107778 15.2572222,24.3753889 C15.1930722,27.0985 15.5584722,29.724 16.3553056,32.2331667 C17.0238611,34.3366111 17.9235556,36.1142778 18.8813611,37.5959444 C19.0268361,37.8830278 19.2699167,38.3328611 19.5584444,38.85375 C19.329975,38.8781667 19.1028333,38.8855694 18.8774444,38.8780556 L18.8775,38.8779722 Z M21.2043333,38.3705833 C20.9150833,38.1609667 20.6535278,37.9461111 20.4335,37.7299444 C18.2233056,34.6207778 16.6496111,30.5605 16.4973889,25.7138333 C18.8581389,28.313 20.801,30.7213333 22.1262778,31.9968889 C23.0446389,32.8794167 23.97275,33.4833889 24.8129167,33.8970556 C23.9340278,35.9237778 22.7734167,37.5795556 21.2043056,38.3706667 L21.2043333,38.3705833 Z M41.2368333,26.8930833 C39.9987222,24.8813889 39.3902778,22.9889167 39.3210278,19.6686389 C39.2830333,17.8498611 40.17925,16.4486389 40.8448889,14.2861389 C42.49375,15.4475278 43.9643333,16.8733611 45.1837778,18.5266944 C44.6357778,21.2423056 43.2085,24.1136389 41.2368333,26.8930833 Z" id="Shape" fill="#236192"></path>
                    <path d="M37.6916667,44.3027778 C37.3266667,44.3132778 36.85775,43.9865 36.2828056,42.9390556 C37.5097778,44.2531667 38.5896667,43.4065 38.5896667,43.4065 C38.4584056,43.7184444 38.1609722,44.2892778 37.6916667,44.3027778 Z M26.1955556,44.0432278 L23.5623056,42.7216167 C23.5623056,42.7216167 21.6775833,42.8770417 20.68675,42.9060778 C21.5903333,42.3232167 22.3746944,41.6534667 22.3746944,41.6534667 L21.2093333,39.7203 L23.6945833,41.0718556 C23.6945833,41.0718556 25.263,40.8077278 26.69125,40.5163 C25.8750278,41.4489389 24.8822222,42.1386889 24.8822222,42.1386889 L26.1955833,44.0431889 L26.1955556,44.0432278 Z M27.2554444,32.6690611 C25.8203056,31.9518389 23.6618333,29.80045 23.6618333,29.80045 C24.7024167,30.50845 26.8648889,30.8277833 26.8648889,30.8277833 C26.9096667,31.7148944 27.2555,32.6689222 27.2555,32.6689222 L27.2554444,32.6690611 Z" id="Shape" fill="#78BE20"></path>
                    <path d="M29.8777778,51.1944444 C19.2608333,51.1944444 10.1611111,43.2511111 8.70888889,32.7191667 C8.10594444,28.3458333 8.84731667,23.9936111 10.8069722,20.1405556 C11.0521722,20.3446056 11.2963056,20.5535833 11.5378889,20.7651111 C9.73991667,24.3998333 9.06672222,28.4862222 9.63336111,32.5920556 C11.0213056,42.6656667 19.7244722,50.2612222 29.8778056,50.2612222 C30.8133611,50.2612222 31.7615556,50.196225 32.6964167,50.0672111 C38.10225,49.3219333 42.8991944,46.5102667 46.2033611,42.1488778 C49.5078056,37.7883222 50.9175278,32.4091556 50.1719722,27.0036 C49.3497222,21.0386 45.9625278,15.9433222 41.2291944,12.7783222 C41.2930944,12.4607389 41.3497667,12.1266833 41.3967278,11.7757111 C46.5283944,15.0646 50.2161722,20.4943222 51.09645,26.8759889 C51.8753944,32.5284889 50.4011167,38.1529333 46.9461722,42.7123778 C43.4911722,47.2721 38.4761722,50.2121 32.8236722,50.9909889 C31.8469778,51.1258139 30.8556444,51.1945472 29.8775611,51.1945472 L29.8777778,51.1944444 Z M39.2236111,42.3263889 C39.2662111,42.1930278 39.2182222,41.7241667 39.1802056,41.3550278 C39.1802056,41.3550278 39.1767611,41.3606667 39.1745667,41.3628333 C38.3179556,41.2071944 36.4295667,41.420725 35.8170667,41.7421667 C33.4950667,39.2516667 30.9637333,35.7868889 29.0584556,32.6041111 C28.2325667,30.9216111 27.4224556,28.9468889 27.2203444,27.3427222 C27.2203444,27.3427222 26.9572194,28.0683889 26.8952611,29.0358611 C25.84065,28.62875 22.2574833,26.86775 21.4902611,21.46725 C21.4902611,21.46725 23.7684278,23.8171389 26.2863722,24.7333611 C26.2863722,24.7333611 24.6912889,20.5564167 27.7355944,13.1544722 C27.7355944,13.1544722 28.9677056,17.6936389 31.5447611,18.8383611 C33.1055111,11.0875278 37.6808722,10.9608611 39.0153167,5.68697222 C39.0153167,5.68697222 40.4131222,8.41888889 38.7305944,13.0619722 C38.7305944,13.0619722 39.3112611,12.9006167 39.80265,12.3206389 C39.80265,12.3206389 39.7263056,13.6785278 38.4567333,16.6089722 C37.6294,18.1779722 37.3699278,20.29425 37.3699278,20.29425 C36.6268167,19.6211111 36.4372056,17.34675 36.4372056,17.34675 C34.1657611,23.50925 40.6127611,29.6156389 41.78915,30.51675 C42.3637889,30.9573056 42.7175389,30.9640556 42.9315111,30.85875 C43.1527528,31.3171944 43.1328528,31.6113056 42.8668417,31.80275 C42.8668417,31.80275 42.7543889,31.8793361 42.7296889,31.8921583 C42.0454111,32.2574361 40.8192167,31.1933806 40.0187444,30.752825 C39.2187444,30.3122972 38.0526889,29.3731583 37.4831611,30.6664556 C36.9138556,31.9597333 38.2233833,33.9828444 38.6767444,35.2553444 C39.6776333,38.0700667 39.7142444,39.7264556 39.5026889,40.6228444 C40.4278,39.5786222 40.7184111,37.5764556 40.7184111,37.5764556 C40.7184111,37.5764556 41.0622167,41.3359 39.22405,42.3259 L39.2236111,42.3263889 Z M19.1813889,20.8594444 C19.1813889,20.8594444 14.8836111,17.71 10.4886111,17.4580556 C10.4886111,17.4580556 14.8380556,16.4333056 16.6769444,17.1846222 C16.5002444,17.3000806 16.3026944,17.4669278 16.1066389,17.7167333 C16.1066389,17.7167333 17.8830556,18.8603722 19.1716389,20.8364556 C19.1741389,20.8437333 19.1783056,20.8519556 19.1811944,20.8594556 L19.1813889,20.8594444 Z" id="Shape" fill="#9EA2A2"></path>
                    <path d="M32.1472222,56.5027778 L32.0426222,55.7145833 L33.0460944,55.5813361 L32.6732611,52.7682806 L33.4818444,52.6606417 L33.8546778,55.4745306 L34.85815,55.3412861 L34.9623167,56.1290361 L32.1473167,56.5027306 L32.1472222,56.5027778 Z M25.1783333,56.1811667 L25.0620167,56.1616389 L24.0472667,52.2680278 L24.9313778,52.4208056 L25.4365722,54.3313889 L26.5476833,52.6994444 L27.4383222,52.8530917 L25.1783222,56.1811472 L25.1783333,56.1811667 Z M37.2652778,55.5275278 L36.2322778,52.0439167 L37.0139722,51.8121472 L38.0469722,55.294925 L37.2652778,55.5275639 L37.2652778,55.5275278 Z M21.5152778,55.3356861 L18.8833333,54.270575 L19.1810833,53.5340194 L20.1190278,53.9133528 L21.1841389,51.2831306 L21.9402222,51.5882417 L20.8755556,54.2197417 L21.8135,54.599075 L21.5153333,55.3356306 L21.5152778,55.3356861 Z M40.7930556,54.3461028 L39.0942778,51.0930472 L39.8130278,50.7171861 L40.5955833,52.216325 L40.96625,50.8278806 L41.0599972,50.7784028 L42.4093861,51.2697083 L41.6263861,49.7705694 L42.3516361,49.3916528 L44.0499972,52.6449861 L43.9401889,52.7022778 L41.5473833,51.8285833 L40.9028556,54.2725833 L40.8980778,54.2903889 L40.7930417,54.3459444 L40.7930556,54.3461028 Z M16.3738889,52.6612139 C15.343,52.6612139 14.5075556,51.8257972 14.5075556,50.7948806 C14.5075556,49.7639639 15.3429722,48.9289917 16.3738889,48.9289917 C17.4048056,48.9289917 18.2406389,49.7639639 18.2406389,50.7948806 C18.2406389,51.8257972 17.4048056,52.6612139 16.3738889,52.6612139 Z M16.3738889,51.8131306 C16.9366667,51.8131306 17.3921111,51.3576861 17.3921111,50.7949083 C17.3921111,50.2328528 16.9366667,49.7762417 16.3738889,49.7762417 C15.8111111,49.7762417 15.3556667,50.2328528 15.3556667,50.7949083 C15.3556667,51.3576861 15.8111111,51.8131306 16.3738889,51.8131306 Z M46.4822222,50.8426306 L45.9501111,50.2302139 L45.5872778,49.8126861 L45.5581972,49.7792667 L45.0555861,49.2007111 L44.6241694,48.7033222 L44.0916139,48.09135 L44.7040306,47.5592389 L45.2352806,47.0978778 C45.4678944,46.8957667 45.7406139,46.7839056 46.0247806,46.7749611 C46.3610028,46.7645444 46.681725,46.9053417 46.9036972,47.1616833 C47.0983083,47.3853472 47.1913083,47.6681556 47.171925,47.9581278 C47.37695,48.0133167 47.5653694,48.1300694 47.7144528,48.3014333 C47.9432028,48.5645472 48.0365917,48.8885167 47.9770389,49.2111556 C47.9286278,49.4735444 47.7838833,49.7113778 47.5469278,49.9168778 L47.0946778,50.3105444 L46.4822611,50.8426556 L46.4822222,50.8426306 Z M46.5620806,49.6985472 L47.0151917,49.3048806 C47.2054417,49.1395528 47.2339222,48.9851028 47.1019972,48.8331028 C46.9400639,48.6467167 46.737525,48.753975 46.5959139,48.8769389 L46.1701361,49.2467167 L46.5620528,49.69855 L46.5620806,49.6985472 Z M12.0259694,49.2562694 L11.9543528,49.2548806 C11.5481861,49.2427694 11.1651306,49.043575 10.816325,48.6632972 C10.5963,48.4227 10.4619639,48.1385194 10.4365472,47.862075 C10.4060472,47.5384361 10.5255556,47.2437139 10.7811583,47.0096306 C11.1769083,46.6472694 11.6421306,46.6228806 12.2034639,46.9358472 L12.594075,47.1519917 C12.796675,47.2660028 12.9277417,47.3092444 13.0359083,47.2092833 C13.1656583,47.0916444 13.1343417,46.9247 12.9443278,46.7136167 C12.9429389,46.7113944 12.9411333,46.7089778 12.9386889,46.7075333 C12.68695,46.4330444 12.4021611,46.4123944 12.2099667,46.4206444 L12.1405222,46.4236722 L12.0519806,45.5178667 L12.1288028,45.51395 C12.4306361,45.4977278 13.0217472,45.5629139 13.5823583,46.1762833 C13.5876917,46.1823389 13.5926639,46.1878667 13.5979972,46.1932 C13.8826639,46.5100333 14.034525,46.8236444 14.0502472,47.1254778 C14.0667194,47.4394222 13.9363278,47.7242 13.663525,47.9740056 C13.2588028,48.3443389 12.8182194,48.3518944 12.1913028,48.0009222 L11.7538028,47.7565667 C11.5928278,47.6655528 11.4996167,47.6618861 11.4100528,47.7444 C11.3050028,47.8407361 11.32445,47.9888528 11.4617,48.1410944 C11.4625333,48.1419278 11.4625333,48.1424833 11.4630889,48.1433167 C11.6204278,48.3146917 11.7932278,48.4028528 12.0086722,48.4197917 L12.0811528,48.4249861 L12.0260333,49.2561528 L12.0259694,49.2562694 Z M45.6704139,48.6681583 L46.1704139,48.2336861 C46.3761639,48.0555361 46.424575,47.8431583 46.2941111,47.693325 C46.1636417,47.544225 45.9532778,47.5502972 45.7698056,47.709825 L45.2385556,48.172075 L45.6704167,48.6681583 L45.6704139,48.6681583 Z M50.3809694,47.0761583 L47.5320806,44.8209361 L49.0646361,42.8842972 L49.7004972,43.3877694 L48.6744417,44.6846583 L49.1514417,45.061825 L50.0351083,43.9454917 L50.6713861,44.4485194 L49.787275,45.564825 L50.2568861,45.9367972 L51.2829417,44.6399083 L51.914025,45.1394639 L50.381025,47.0761028 L50.3809694,47.0761583 Z M8.36985833,45.8543806 L7.00008056,43.8001306 L10.0225806,41.7845194 L11.3928028,43.8387694 L10.7183306,44.2892972 L9.80035833,42.9129917 L9.294275,43.2497972 L10.0846361,44.4351306 L9.40971944,44.8852139 L8.619775,43.700325 L8.12108056,44.0323528 L9.03860833,45.4086583 L8.369775,45.8544083 L8.36985833,45.8543806 Z M53.3726361,42.7693806 L50.1143028,41.1634917 L50.4741083,40.4317139 L51.9823583,41.1747694 L50.9519694,39.4625194 L51.3816639,38.5914361 C51.3816639,38.5914361 52.1270528,39.846325 52.1798306,39.9291028 C52.4915806,39.5994361 53.0033861,39.5549361 53.4567472,39.7776278 C54.1364417,40.1131278 54.3506639,40.7863222 53.9728028,41.5519333 L53.3725528,42.7693778 L53.3726361,42.7693806 Z M53.0158583,41.6838806 L53.2458944,41.2164361 C53.4107361,40.8816583 53.3331639,40.6497139 53.0371278,40.5037694 C52.7374611,40.3561083 52.5014333,40.4337667 52.3366,40.7685278 L52.1061306,41.2359722 L53.0158528,41.6838889 L53.0158583,41.6838806 Z M5.56585833,41.1634917 L5.25508056,40.4026306 L7.01030278,39.6856306 L4.451275,38.5185194 L4.40179444,38.3961222 L7.79318333,37.0098444 L8.10046111,37.7615667 L6.33701667,38.4816222 L8.90776667,39.6535111 L8.95724444,39.7767722 L5.56585556,41.1634944 L5.56585833,41.1634917 Z M55.4158583,38.3148806 L52.1666917,36.1569083 L52.1970722,36.0310389 L54.3845722,35.5227889 L52.6675722,34.0809556 L52.6979528,33.9542194 L56.5735083,33.5158583 L56.3712528,34.3522194 L54.506225,34.5722722 L56.0405028,35.8587167 L56.0109861,35.9819806 L54.0557083,36.4416194 L55.6177639,37.4758972 L55.4159417,38.3148694 L55.4158583,38.3148806 Z M3.59641389,35.3526583 L3.47011111,34.5414639 L5.34294444,34.2489361 L3.12158333,32.5232417 L3.10161111,32.3917306 L6.72133333,31.8253139 L6.84720278,32.6282583 L4.96570278,32.9225361 L7.196175,34.6547306 L7.21700833,34.7862417 L3.59645278,35.3526583 L3.59641389,35.3526583 Z M41.6658583,33.6677694 C41.8447472,33.3910944 41.8509833,33.0090194 41.8299194,32.7645472 C42.0700306,32.8236111 42.2495028,32.8325222 42.3828639,32.8235778 C42.3434111,32.9337 42.2686972,33.0988056 42.1345972,33.2619389 C41.9438639,33.493825 41.6658472,33.6677444 41.6658472,33.6677444 L41.6658583,33.6677694 Z M39.770025,33.3018806 C39.9697139,32.7107694 39.9273806,32.1124639 39.8789667,31.7806028 C40.15855,31.9730278 40.4125222,32.1317694 40.6441611,32.2614917 C40.6018,32.3619556 40.5369444,32.5060417 40.4384333,32.680325 C40.2537444,33.0121861 39.7700167,33.3018528 39.7700167,33.3018528 L39.770025,33.3018806 Z M54.8980806,31.5262694 C53.8671639,31.5262694 53.0317472,30.6904361 53.0317472,29.6595194 C53.0317472,28.6286306 53.8671639,27.794075 54.8980806,27.794075 C55.9289694,27.794075 56.7648306,28.6286306 56.7648306,29.6595194 C56.7648306,30.6904361 55.9289694,31.5262694 54.8980806,31.5262694 Z M54.8980806,30.6777417 C55.4608583,30.6777417 55.9167472,30.2222972 55.9167472,29.6595194 C55.9167472,29.0974917 55.4608583,28.6412972 54.8980806,28.6412972 C54.3353028,28.6412972 53.8798583,29.0974917 53.8798583,29.6595194 C53.8798583,30.2222972 54.3353028,30.6777417 54.8980806,30.6777417 Z M6.67585833,29.6078528 L3.04391389,29.5210444 L3.06344167,28.7055167 L6.69483056,28.7923194 L6.67574722,29.607875 L6.67585833,29.6078528 Z M6.83775,26.6161861 L3.24747222,25.8575194 L3.2735,25.7359917 L5.46925,24.4451861 L3.99311111,22.3931028 L3.98225,22.3783528 L4.007,22.2620333 L7.59727778,23.0202833 L7.42974444,23.8141167 L5.77566111,23.4647278 L6.61202222,24.6331444 L6.58943889,24.7373111 L5.35202222,25.4664778 L7.00696667,25.8158667 L6.83769722,26.6162 L6.83775,26.6161861 Z M52.8210833,25.880075 L52.27075,23.5211306 L53.0758611,23.3331972 L53.4413056,24.8978639 L56.1739444,24.2602806 L56.3597083,25.054975 L52.8210972,25.8800583 L52.8210833,25.880075 Z M55.4504167,21.3384083 L51.4309722,21.1565528 L51.3871333,21.0467417 L54.1718556,18.142575 L54.5051889,18.9754639 L53.1427722,20.407325 L55.1141333,20.4989028 L55.4504944,21.3383194 L55.4504167,21.3384083 Z M50.05125,18.267575 L48.7309444,16.180325 L49.4158333,15.7471583 L50.3003889,17.1447139 L50.8142778,16.8200472 L50.0534167,15.6160472 L50.7383056,15.1824639 L51.5004722,16.3860194 L52.0065556,16.0661306 L51.1224444,14.6681306 L51.8012778,14.2384361 L53.1215833,16.3256583 L50.0513056,18.2674917 L50.05125,18.267575 Z M48.2114167,14.3989639 C48.1465389,14.3989639 47.5641667,14.3942139 47.1667222,14.2010472 C46.9580722,14.0998722 46.7764722,13.9708222 46.6280833,13.8217139 C46.4380722,13.6309722 46.3039167,13.4067139 46.2405,13.168075 C46.13545,12.7686861 46.251,12.3506028 46.5417222,12.0756306 C46.8210556,11.8125194 47.21325,11.7288528 47.5920556,11.8525417 C47.7171917,11.8934528 47.8633917,11.965225 48.0325833,12.0487222 C48.23155,12.146275 48.5319167,12.3007056 48.6706111,12.3087056 C49.0051389,12.3283167 48.997,11.84665 48.5690472,11.6372611 C48.4102639,11.5605222 48.1381583,11.4811333 47.996575,11.4632167 L48.0990056,10.6454944 C48.1549194,10.6522722 48.6496444,10.7189833 49.0013389,10.9358556 C49.6028389,11.3071611 49.7202,11.7811056 49.7357,12.0309111 C49.7514222,12.2664361 49.6530556,12.6141333 49.3988944,12.8586056 C49.1841944,13.0650667 48.8947278,13.1605222 48.5846722,13.1285722 C48.2997833,13.0987944 47.9646722,12.9335306 47.6688667,12.7882944 C47.5391278,12.7248833 47.4057222,12.6591972 47.3355333,12.63595 C47.2440361,12.6061722 47.1667833,12.6191167 47.1072361,12.6750111 C47.051325,12.727775 47.0039417,12.8295694 47.0373583,12.9571222 C47.0881806,13.1471361 47.2706556,13.3353167 47.5264972,13.4597333 C47.697875,13.5432333 48.037025,13.57475 48.2100806,13.57475 L48.2114694,14.3989722 L48.2114167,14.3989639 Z" id="Shape" fill="#FFFFFF"></path>
                </g>
            </g>
        </g>
    </g>
</svg>
