<?xml version="1.0" encoding="UTF-8"?>
<svg width="60px" height="60px" viewBox="0 0 60 60" version="1.1" xmlns="http://www.w3.org/2000/svg" xmlns:xlink="http://www.w3.org/1999/xlink">
    <title>UTA</title>
    <g id="Page-1" stroke="none" stroke-width="1" fill="none" fill-rule="evenodd">
        <g id="UTA" transform="translate(0.000000, 17.000000)" fill-rule="nonzero">
            <path d="M50.6382979,22.8 L56.8425532,8.60425532 L28.093617,8.60425532 L26.893617,11.3361702 L26.0510638,8.60425532 L20.306383,8.60425532 C20.306383,8.60425532 16.5021277,17.2595745 15.4042553,19.7617021 C15.5155297,19.2497976 15.5754013,18.7280595 15.5829787,18.2042553 L15.5829787,18 C15.9914894,17.0297872 19.3617021,9.31914894 20.0510638,7.76170213 L35.8297872,7.76170213 L39.2255319,0 L20.4851064,0 L14.3319149,14.093617 C12.350913,10.9986124 8.45194214,9.74523228 5.03852821,11.1061245 C1.62511428,12.4670168 -0.342003396,16.0591447 0.349807488,19.6681363 C1.04161837,23.2771279 4.19764075,25.8871964 7.87234043,25.8893617 C10.3550173,25.8917833 12.6855417,24.693228 14.1276596,22.6723404 L12.8255319,25.6851064 L15.9659574,25.6851064 L17.8297872,21.4468085 L21.3531915,21.4468085 L22.6297872,25.6851064 L55.7446809,25.6851064 L56.9957447,22.8 L50.6382979,22.8 Z M19.0553191,18.5361702 L19.8978723,16.6212766 L20.4595745,18.5361702 L19.0553191,18.5361702 Z M30.0595745,21.8553191 L26.9191489,11.4638298 L34.6297872,11.4638298 C32.3319149,16.6468085 30.9276596,19.8638298 30.0595745,21.8553191 Z M41.9574468,22.8 L38.3319149,22.8 L43.2595745,11.4893617 L46.9106383,11.4893617 C44.2553191,17.5404255 42.7744681,20.9106383 41.9574468,22.8 Z" id="Shape" fill="#FFFFFF"></path>
            <path d="M0.672340426,18.5617021 C0.761967415,20.3861826 1.53704051,22.1095804 2.84255319,23.387234 C4.25894116,22.172599 5.10925192,20.4257649 5.19148936,18.5617021 L0.672340426,18.5617021 Z" id="Shape" fill="#0D2240"></path>
            <path d="M5.82978723,18.5617021 C5.73495948,20.5795324 4.83339615,22.4746553 3.32765957,23.8212766 C4.53299654,24.7952622 6.01791097,25.358814 7.56595745,25.4297872 L7.56595745,18.5617021 L5.82978723,18.5617021 Z" id="Shape" fill="#FFA400"></path>
            <path d="M0.672340426,17.9234043 L5.19148936,17.9234043 C5.12124579,16.0345601 4.27068078,14.2594679 2.84255319,13.0212766 C1.52087035,14.3190454 0.744599162,16.072505 0.672340426,17.9234043 L0.672340426,17.9234043 Z" id="Shape" fill="#0D2240"></path>
            <path d="M3.32765957,12.612766 C4.85833104,13.9622099 5.76374108,15.8838965 5.82978723,17.9234043 L7.54042553,17.9234043 L7.54042553,10.9787234 C6.00110296,11.0752111 4.52943515,11.6460399 3.32765957,12.612766 L3.32765957,12.612766 Z" id="Shape" fill="#FFA400"></path>
            <path d="M15.0723404,18.5617021 L10.5531915,18.5617021 C10.6354221,20.4257667 11.4857341,22.1726033 12.9021277,23.387234 C14.1979399,22.1028321 14.9712281,20.383403 15.0723404,18.5617021 Z" id="Shape" fill="#0D2240"></path>
            <path d="M9.91489362,18.5617021 L8.1787234,18.5617021 L8.1787234,25.4042553 C9.73157783,25.3569485 11.223789,24.7906274 12.4170213,23.7957447 C10.8979227,22.4699724 9.99273432,20.576466 9.91489362,18.5617021 Z" id="Shape" fill="#2B5134"></path>
            <path d="M12.4170213,12.612766 C11.2080049,11.6415505 9.72680602,11.0704858 8.1787234,10.9787234 L8.1787234,17.9234043 L9.91489362,17.9234043 C9.98093852,15.8838962 10.8863488,13.9622091 12.4170213,12.612766 L12.4170213,12.612766 Z" id="Shape" fill="#2B5134"></path>
            <path d="M20.7659574,0.459574468 L14.3829787,15.1148936 C13.996101,14.3409195 13.487505,13.6340573 12.8765957,13.0212766 C11.453013,14.2629297 10.6034487,16.0359334 10.5276596,17.9234043 L15.0723404,17.9234043 L19.693617,7.30212766 L33.2255319,7.30212766 L36.212766,0.459574468 L20.7659574,0.459574468 Z" id="Shape" fill="#0D2240"></path>
            <polygon id="Shape" fill="#2B5134" points="35.4978723 7.30212766 38.4851064 0.459574468 37.2085106 0.459574468 34.2212766 7.30212766"></polygon>
            <path d="M22.9617021,25.2255319 L28.3489362,25.2255319 L23.4978723,9.06382979 L20.587234,9.06382979 L13.4893617,25.2255319 L15.6340426,25.2255319 C15.6340426,25.2255319 16.4255319,23.412766 17.4978723,20.987234 L21.6851064,20.987234 L22.9617021,25.2255319 Z M18.3659574,18.9957447 C18.9021277,17.7957447 19.4382979,16.5191489 19.9744681,15.3191489 L21.0978723,18.9957447 L18.3659574,18.9957447 Z" id="Shape" fill="#0D2240"></path>
            <polygon id="Shape" fill="#2B5134" points="28.8340426 23.5914894 29.5744681 21.8808511 25.693617 9.06382979 24.4170213 9.06382979"></polygon>
            <path d="M47.6510638,23.2340426 L53.8808511,9.06382979 L44.8170213,9.06382979 L43.9489362,11.0297872 L47.6255319,11.0297872 C45.7361702,15.3191489 41.3957447,25.2 41.3957447,25.2 L55.4382979,25.2 L56.306383,23.2340426 L47.6510638,23.2340426 Z" id="Shape" fill="#0D2240"></path>
            <polygon id="Shape" fill="#2B5134" points="38.0255319 22.3404255 43.8212766 9.06382979 42.5446809 9.06382979 36.7489362 22.3404255"></polygon>
            <polygon id="Shape" fill="#2B5134" points="50.3319149 22.3404255 56.1276596 9.06382979 54.8510638 9.06382979 49.0553191 22.3404255"></polygon>
            <path d="M41.5744681,9.06382979 L28.3744681,9.06382979 L27.506383,11.0297872 L35.3191489,11.0297872 C33.4297872,15.3191489 29.0893617,25.2 29.0893617,25.2 L40.4765957,25.2 L41.3191489,23.2340426 L35.3702128,23.2340426 L41.5744681,9.06382979 Z" id="Shape" fill="#0D2240"></path>
            <path d="M40.8851064,6.25531915 L39.2255319,6.25531915 L41.7787234,0.459574468 L40.5276596,0.459574468 L37.8723404,6.43404255 C37.6680851,6.89361702 37.8723404,7.27659574 38.3574468,7.27659574 L40.8085106,7.27659574 C41.3368687,7.231095 41.8023593,6.91107019 42.0340426,6.43404255 L44.6893617,0.459574468 L43.4638298,0.459574468 L40.8851064,6.25531915 Z" id="Shape" fill="#0D2240"></path>
            <polygon id="Shape" fill="#0D2240" points="50.1021277 0.459574468 45.787234 0.459574468 45.3276596 1.50638298 47.012766 1.50638298 44.4595745 7.30212766 45.6851064 7.30212766 48.2382979 1.50638298 49.6425532 1.50638298"></polygon>
            <path d="M51.8382979,2.17021277 L51.0978723,5.15744681 L49.9234043,5.15744681 L51.8382979,2.17021277 Z M53.2170213,0.459574468 L51.9914894,0.459574468 L47.3702128,7.30212766 L48.5191489,7.30212766 L49.2085106,6.25531915 L50.8425532,6.25531915 L50.612766,7.30212766 L51.8382979,7.30212766 L53.2170213,0.459574468 Z" id="Shape" fill="#0D2240"></path>
            <polygon id="Shape" fill="#0D2240" points="58.7319149 0.459574468 57.4553191 3.34468085 55.7957447 3.34468085 57.0723404 0.459574468 55.8212766 0.459574468 52.8085106 7.30212766 54.0340426 7.30212766 55.3106383 4.39148936 56.9957447 4.39148936 55.7191489 7.30212766 56.9446809 7.30212766 59.9574468 0.459574468"></polygon>
        </g>
    </g>
</svg>
