<?xml version="1.0" encoding="UTF-8"?>
<svg width="60px" height="60px" viewBox="0 0 60 60" version="1.1" xmlns="http://www.w3.org/2000/svg" xmlns:xlink="http://www.w3.org/1999/xlink">
    <title>UTA</title>
    <g id="Page-1" stroke="none" stroke-width="1" fill="none" fill-rule="evenodd">
        <g id="logo" transform="translate(0.000000, 1.000000)" fill="#000000" fill-rule="nonzero">
            <g id="Group" transform="translate(30.019956, 29.334812) scale(-1, 1) rotate(-180.000000) translate(-30.019956, -29.334812) translate(0.053215, 0.033259)">
                <path d="M26.9534368,47.0953437 C24.0133038,40.7827051 21.5853659,35.6208426 21.5587583,35.6208426 C21.5321508,35.6208426 21.3725055,35.8203991 21.2062084,36.0731707 C21.0399113,36.3192905 20.7871397,36.6585366 20.6407982,36.8381375 L20.3813747,37.1507761 L19.9490022,36.7915743 C18.0997783,35.2217295 16.9157428,32.9933481 16.616408,30.518847 L16.5698448,30.1662971 L19.8957871,30.1662971 L23.2150776,30.1662971 L26.075388,36.3059867 C27.6452328,39.6784922 29.3015521,43.2372506 29.7538803,44.2150776 L30.578714,45.9911308 L42.3059867,46.0110865 L54.0332594,46.0310421 L56.5277162,51.3858093 C57.8980044,54.3325942 59.2150776,57.1529933 59.4478936,57.6585366 L59.8736142,58.5698448 L46.0842572,58.5698448 L32.3015521,58.5698448 L26.9534368,47.0953437 Z" id="Path"></path>
                <path d="M10.3237251,41.0687361 C8.57427938,40.8691796 6.67184035,40.1840355 5.23503326,39.2261641 C4.65631929,38.8403548 3.70509978,38.0886918 3.75166297,38.0554324 C6.02660754,36.2527716 7.56984479,33.4855876 7.84922395,30.6984479 L7.89578714,30.1995565 L9.44567627,30.1796009 L10.9889135,30.1662971 L10.9756098,35.6274945 C10.962306,39.2062084 10.9356984,41.1019956 10.8891353,41.1086475 C10.8558758,41.1152993 10.5964523,41.0953437 10.3237251,41.0687361 Z" id="Path"></path>
                <path d="M12.2527716,35.654102 L12.2527716,30.1662971 L13.7760532,30.1662971 L15.2926829,30.1662971 L15.3392461,30.6518847 C15.5920177,33.2261641 16.9889135,35.9467849 18.9046563,37.5964523 C19.1973392,37.8425721 19.4368071,38.0687361 19.4368071,38.0886918 C19.4368071,38.1552106 18.5986696,38.8137472 18.0266075,39.1995565 C16.6430155,40.1308204 14.6274945,40.8824834 13.0842572,41.0421286 C12.864745,41.0620843 12.5853659,41.0953437 12.4722838,41.1152993 L12.2527716,41.1485588 L12.2527716,35.654102 Z" id="Path"></path>
                <path d="M2.32815965,36.4855876 C1.03769401,34.7494457 0.332594235,32.9201774 0.0399113082,30.518847 L0,30.1662971 L3.29933481,30.1662971 L6.59866962,30.1662971 L6.59866962,30.3192905 C6.59866962,30.7050998 6.36585366,31.7960089 6.13303769,32.5011086 C5.71396896,33.7649667 5.12195122,34.8093126 4.28381375,35.7738359 C3.85809313,36.2594235 2.95343681,37.0842572 2.84035477,37.0842572 C2.80709534,37.0842572 2.57427938,36.8181818 2.32815965,36.4855876 Z" id="Path"></path>
                <path d="M0.0532150776,28.8425721 C0,28.7627494 0.133037694,27.6984479 0.279379157,27.0332594 C0.645232816,25.3569845 1.53658537,23.4878049 2.58758315,22.2039911 C2.76718404,21.9844789 2.84700665,21.9312639 2.93348115,21.9778271 C3.21286031,22.1308204 4.25720621,23.195122 4.70288248,23.7937916 C5.29490022,24.578714 5.98669623,25.9290466 6.23281596,26.8070953 C6.41906874,27.4456763 6.59866962,28.3968958 6.59866962,28.7095344 L6.59866962,28.902439 L3.345898,28.902439 C1.54988914,28.902439 0.0731707317,28.8758315 0.0532150776,28.8425721 Z" id="Path"></path>
                <path d="M7.90243902,28.7560976 C7.88248337,28.6696231 7.84922395,28.3968958 7.82926829,28.1374723 C7.76940133,27.5055432 7.46341463,26.3281596 7.16407982,25.5698448 C6.58536585,24.113082 5.88026608,23.0554324 4.67627494,21.8514412 L3.77161863,20.9467849 L4.17073171,20.6075388 C5.85365854,19.1773836 8.2616408,18.172949 10.5099778,17.9534368 L10.9889135,17.9068736 L10.9756098,23.3880266 L10.9556541,28.8691796 L9.44567627,28.8891353 L7.92904656,28.902439 L7.90243902,28.7560976 Z" id="Path"></path>
                <path d="M12.2527716,23.4079823 L12.2527716,17.9068736 L12.7383592,17.9534368 C14.9667406,18.1662971 17.594235,19.2771619 19.1042129,20.6407982 L19.4700665,20.9733925 L19.27051,21.1263858 C18.8913525,21.4190687 18.1529933,22.1507761 17.7738359,22.616408 C16.4767184,24.1995565 15.6784922,26.0088692 15.3858093,28.0509978 L15.2727273,28.8691796 L13.7627494,28.8891353 L12.2527716,28.902439 L12.2527716,23.4079823 Z" id="Path"></path>
                <path d="M16.616408,28.8425721 C16.5631929,28.7627494 16.6829268,27.9379157 16.8425721,27.2527716 C17.3015521,25.3303769 18.5254989,23.3880266 20.0620843,22.1507761 L20.3813747,21.8913525 L20.5742794,22.1175166 C20.9334812,22.5365854 21.7050998,23.7272727 21.9778271,24.2727273 C22.6363636,25.5898004 23.1086475,27.2594235 23.1751663,28.5365854 L23.195122,28.8691796 L19.9223947,28.8891353 C17.9667406,28.8957871 16.6363636,28.8758315 16.616408,28.8425721 Z" id="Path"></path>
                <path d="M0.89135255,6.53880266 L0.911308204,1.79600887 L1.09756098,1.41685144 C1.4368071,0.718403548 2.03547672,0.259423503 2.81374723,0.0931263858 C3.00665188,0.0532150776 3.64523282,0.0332594235 4.35698448,0.0465631929 C5.52771619,0.066518847 5.58093126,0.0731707317 5.98669623,0.259423503 C6.57871397,0.532150776 7.08425721,1.08425721 7.26385809,1.66962306 C7.3902439,2.09534368 7.39689579,2.27494457 7.39689579,6.69179601 L7.39689579,11.2749446 L6.43237251,11.2749446 L5.46784922,11.2749446 L5.46784922,6.61862528 L5.46784922,1.96230599 L4.13747228,1.96230599 L2.80709534,1.96230599 L2.80709534,6.61862528 L2.80709534,11.2749446 L1.84257206,11.2749446 L0.871396896,11.2749446 L0.89135255,6.53880266 Z" id="Path"></path>
                <polygon id="Path" points="8.2616408 10.2771619 8.2616408 9.27937916 9.32594235 9.27937916 10.3902439 9.27937916 10.3902439 4.72283814 10.3902439 0.166297118 11.3547672 0.166297118 12.3192905 0.166297118 12.3192905 4.72283814 12.3192905 9.27937916 13.383592 9.27937916 14.4545455 9.27937916 14.4345898 10.2638581 14.4146341 11.2416851 11.3414634 11.2616408 8.2616408 11.2749446"></polygon>
                <path d="M16.4767184,11.195122 C16.4634146,11.1485588 15.8447894,8.70066519 15.113082,5.75388027 C14.3813747,2.80709534 13.7627494,0.345898004 13.7427938,0.279379157 C13.7095344,0.172949002 13.7760532,0.166297118 14.6873614,0.179600887 L15.6718404,0.199556541 L15.9179601,1.26385809 C16.0576497,1.84922395 16.1906874,2.39467849 16.210643,2.48115299 C16.2439024,2.62749446 16.2505543,2.62749446 17.6274945,2.62749446 L19.0110865,2.62749446 L19.3037694,1.39689579 L19.5898004,0.166297118 L20.5676275,0.166297118 L21.5521064,0.166297118 L20.2217295,5.47450111 C19.4966741,8.38802661 18.8713969,10.8891353 18.8314856,11.0288248 L18.7649667,11.2749446 L17.6341463,11.2749446 C16.789357,11.2749446 16.4966741,11.2549889 16.4767184,11.195122 Z M18.0665188,6.51884701 C18.2727273,5.63414634 18.45898,4.84922395 18.4855876,4.76940133 C18.518847,4.62305987 18.518847,4.62305987 17.6274945,4.62305987 L16.72949,4.62305987 L17.1685144,6.41906874 C17.4079823,7.40354767 17.6208426,8.18847007 17.6474501,8.16186253 C17.6674058,8.13525499 17.8603104,7.39689579 18.0665188,6.51884701 Z" id="Shape"></path>
                <polygon id="Path" points="22.4301552 5.72062084 22.4301552 0.166297118 23.3946785 0.166297118 24.3592018 0.166297118 24.3592018 2.49445676 24.3592018 4.82261641 25.6097561 4.80931264 26.8536585 4.78935698 26.8736142 2.48115299 26.886918 0.166297118 27.8514412 0.166297118 28.8159645 0.166297118 28.8026608 5.70731707 28.7827051 11.2416851 27.8381375 11.2616408 26.886918 11.2815965 26.886918 9.01330377 26.886918 6.75166297 25.6230599 6.75166297 24.3592018 6.75166297 24.345898 9 24.3259424 11.2416851 23.3813747 11.2616408 22.4301552 11.2815965"></polygon>
                <path d="M36.0665188,6.55210643 L36.0665188,1.89578714 L34.7694013,1.89578714 L33.4722838,1.89578714 L33.4722838,3.2594235 L33.4722838,4.62305987 L32.4678492,4.62305987 L31.4634146,4.62305987 L31.4900222,3.24611973 C31.5166297,2.18181818 31.5432373,1.79600887 31.6297118,1.57649667 C31.8891353,0.904656319 32.4412417,0.352549889 33.1064302,0.119733925 C33.3858093,0.0199556541 33.6651885,0 34.7694013,0 C36.2727273,0 36.5254989,0.0532150776 37.1108647,0.498891353 C37.443459,0.745011086 37.8226164,1.29711752 37.9290466,1.6962306 C37.9689579,1.83592018 37.9955654,3.78492239 37.9955654,6.55210643 L38.0022173,11.1751663 L37.0310421,11.195122 L36.0665188,11.2150776 L36.0665188,6.55210643 Z" id="Path"></path>
                <path d="M41.4279379,11.1552106 C41.3946785,11.1019956 38.6607539,0.206208426 38.6607539,0.133037694 C38.6607539,0.11308204 39.0931264,0.0997782705 39.6186253,0.0997782705 C40.4767184,0.0997782705 40.5831486,0.11308204 40.616408,0.219512195 C40.6430155,0.305986696 40.9290466,1.50332594 41.1552106,2.48115299 L41.1884701,2.62749446 L42.5587583,2.61419069 L43.9290466,2.59423503 L44.2350333,1.35033259 L44.54102,0.0997782705 L45.518847,0.0997782705 L46.4966741,0.0997782705 L45.1662971,5.40798226 C44.4412417,8.32150776 43.8159645,10.8226164 43.7760532,10.962306 L43.7095344,11.2084257 L42.5853659,11.2084257 C41.9667406,11.2084257 41.4478936,11.1818182 41.4279379,11.1552106 Z M42.9977827,6.46563193 C43.210643,5.58093126 43.3968958,4.78935698 43.4168514,4.70953437 C43.4501109,4.55654102 43.4501109,4.55654102 42.5454545,4.55654102 C41.8470067,4.55654102 41.6474501,4.57649667 41.6740576,4.64301552 C41.6873614,4.68292683 41.8935698,5.49445676 42.1197339,6.43902439 C42.3525499,7.37694013 42.5587583,8.13525499 42.578714,8.11529933 C42.5920177,8.09534368 42.7849224,7.35698448 42.9977827,6.46563193 Z" id="Shape"></path>
                <path d="M47.0421286,10.2439024 L47.0421286,9.27937916 L48.804878,9.27937916 C49.7760532,9.27937916 50.5676275,9.25277162 50.5676275,9.2195122 C50.5676275,9.19290466 49.7760532,7.55654102 48.804878,5.58758315 L47.0421286,2.01552106 L47.0421286,1.05764967 L47.0421286,0.0997782705 L49.9356984,0.0997782705 L52.8292683,0.0997782705 L52.8292683,1.06430155 L52.8292683,2.02882483 L51.0332594,2.02882483 C50.0487805,2.02882483 49.2372506,2.0421286 49.2372506,2.05543237 C49.2372506,2.06208426 50.0487805,3.71840355 51.0332594,5.72062084 L52.8359202,9.36585366 L52.8159645,10.27051 L52.7960089,11.1751663 L49.9223947,11.195122 L47.0421286,11.2084257 L47.0421286,10.2439024 Z" id="Path"></path>
                <path d="M53.7605322,10.2439024 L53.7605322,9.27937916 L55.5232816,9.27937916 C56.5875831,9.27937916 57.286031,9.25277162 57.286031,9.2195122 C57.286031,9.17960089 56.4944568,7.54323725 55.5232816,5.58093126 L53.7605322,2.00886918 L53.7605322,1.05099778 L53.7605322,0.0997782705 L56.654102,0.0997782705 L59.5476718,0.0997782705 L59.5476718,1.06430155 L59.5476718,2.02882483 L57.751663,2.02882483 C56.767184,2.02882483 55.9556541,2.0421286 55.9556541,2.05543237 C55.9556541,2.07538803 56.3348115,2.84700665 56.7937916,3.77161863 C57.2594235,4.6962306 58.0643016,6.33924612 58.5964523,7.41685144 L59.5543237,9.37250554 L59.5343681,10.2771619 L59.5144124,11.1751663 L56.6407982,11.195122 L53.7605322,11.2084257 L53.7605322,10.2439024 Z" id="Path"></path>
            </g>
        </g>
    </g>
</svg>